G04 #@! TF.GenerationSoftware,KiCad,Pcbnew,8.0.6*
G04 #@! TF.CreationDate,2024-11-17T19:47:03-05:00*
G04 #@! TF.ProjectId,STM32_KiCAD,53544d33-325f-44b6-9943-41442e6b6963,rev?*
G04 #@! TF.SameCoordinates,Original*
G04 #@! TF.FileFunction,Soldermask,Bot*
G04 #@! TF.FilePolarity,Negative*
%FSLAX46Y46*%
G04 Gerber Fmt 4.6, Leading zero omitted, Abs format (unit mm)*
G04 Created by KiCad (PCBNEW 8.0.6) date 2024-11-17 19:47:03*
%MOMM*%
%LPD*%
G01*
G04 APERTURE LIST*
%ADD10C,2.200000*%
%ADD11C,1.500000*%
%ADD12R,1.700000X1.700000*%
%ADD13O,1.700000X1.700000*%
%ADD14C,1.600000*%
%ADD15C,10.160000*%
%ADD16R,3.000000X3.000000*%
%ADD17C,3.000000*%
%ADD18O,1.600000X1.600000*%
%ADD19R,1.800000X1.800000*%
%ADD20C,1.800000*%
G04 APERTURE END LIST*
D10*
X102000000Y-122750000D03*
D11*
X136200000Y-106750000D03*
X131320000Y-106750000D03*
D12*
X136210000Y-119250000D03*
D13*
X138750000Y-119250000D03*
X141290000Y-119250000D03*
D14*
X142250000Y-106750000D03*
X142250000Y-111750000D03*
X124250000Y-106750000D03*
X124250000Y-111750000D03*
D12*
X184750000Y-80710000D03*
D13*
X184750000Y-78170000D03*
X184750000Y-75630000D03*
D10*
X190500000Y-54000000D03*
D12*
X174250000Y-58250000D03*
D13*
X171710000Y-58250000D03*
X169170000Y-58250000D03*
X166630000Y-58250000D03*
X164090000Y-58250000D03*
X161550000Y-58250000D03*
D10*
X190500000Y-122750000D03*
D14*
X118250000Y-93250000D03*
X113250000Y-93250000D03*
D15*
X113750000Y-58750000D03*
X143720000Y-58750000D03*
D10*
X102000000Y-54000000D03*
D16*
X162750000Y-110000000D03*
D17*
X167750000Y-110000000D03*
X172750000Y-110000000D03*
D14*
X160410000Y-70250000D03*
D18*
X150250000Y-70250000D03*
D14*
X153090000Y-78250000D03*
D18*
X163250000Y-78250000D03*
D19*
X169710000Y-78250000D03*
D20*
X172250000Y-78250000D03*
D12*
X184500000Y-97800000D03*
D13*
X184500000Y-95260000D03*
X184500000Y-92720000D03*
X184500000Y-90180000D03*
D12*
X113880000Y-72750000D03*
D13*
X116420000Y-72750000D03*
X118960000Y-72750000D03*
X121500000Y-72750000D03*
D12*
X106500000Y-101950000D03*
D13*
X106500000Y-99410000D03*
X106500000Y-96870000D03*
X106500000Y-94330000D03*
X106500000Y-91790000D03*
X106500000Y-89250000D03*
D12*
X171775000Y-87000000D03*
D13*
X169235000Y-87000000D03*
X166695000Y-87000000D03*
D14*
X137250000Y-85000000D03*
X137250000Y-80000000D03*
X138600000Y-95000000D03*
D18*
X125900000Y-95000000D03*
D12*
X184750000Y-68050000D03*
D13*
X184750000Y-65510000D03*
X184750000Y-62970000D03*
X184750000Y-60430000D03*
M02*
