M48
; DRILL file {KiCad 8.0.6} date 2024-11-17T19:47:21-0500
; FORMAT={-:-/ absolute / metric / decimal}
; #@! TF.CreationDate,2024-11-17T19:47:21-05:00
; #@! TF.GenerationSoftware,Kicad,Pcbnew,8.0.6
; #@! TF.FileFunction,Plated,1,2,PTH
FMAT,2
METRIC
; #@! TA.AperFunction,Plated,PTH,ViaDrill
T1C0.300
; #@! TA.AperFunction,Plated,PTH,ComponentDrill
T2C0.800
; #@! TA.AperFunction,Plated,PTH,ComponentDrill
T3C0.900
; #@! TA.AperFunction,Plated,PTH,ComponentDrill
T4C1.000
; #@! TA.AperFunction,Plated,PTH,ComponentDrill
T5C1.200
; #@! TA.AperFunction,Plated,PTH,ComponentDrill
T6C6.100
%
G90
G05
T1
X138.75Y-112.25
X141.75Y-96.0
X142.0Y-92.5
X143.5Y-96.0
X148.5Y-83.75
X149.375Y-83.125
X151.25Y-83.0
X151.5Y-84.0
X152.0Y-88.75
X152.0Y-90.5
X158.75Y-99.0
X159.75Y-88.0
X160.0Y-86.5
X160.5Y-84.75
T2
X113.25Y-93.25
X118.25Y-93.25
X124.25Y-106.75
X124.25Y-111.75
X125.9Y-95.0
X131.32Y-106.75
X136.2Y-106.75
X137.25Y-80.0
X137.25Y-85.0
X138.6Y-95.0
X142.25Y-106.75
X142.25Y-111.75
X150.25Y-70.25
X153.09Y-78.25
X160.41Y-70.25
X163.25Y-78.25
T3
X169.71Y-78.25
X172.25Y-78.25
T4
X106.5Y-89.25
X106.5Y-91.79
X106.5Y-94.33
X106.5Y-96.87
X106.5Y-99.41
X106.5Y-101.95
X113.88Y-72.75
X116.42Y-72.75
X118.96Y-72.75
X121.5Y-72.75
X136.21Y-119.25
X138.75Y-119.25
X141.29Y-119.25
X161.55Y-58.25
X164.09Y-58.25
X166.63Y-58.25
X166.695Y-87.0
X169.17Y-58.25
X169.235Y-87.0
X171.71Y-58.25
X171.775Y-87.0
X174.25Y-58.25
X184.5Y-90.18
X184.5Y-92.72
X184.5Y-95.26
X184.5Y-97.8
X184.75Y-60.43
X184.75Y-62.97
X184.75Y-65.51
X184.75Y-68.05
X184.75Y-75.63
X184.75Y-78.17
X184.75Y-80.71
T5
X162.75Y-110.0
X167.75Y-110.0
X172.75Y-110.0
T6
X113.75Y-58.75
X143.72Y-58.75
M30
