G04 #@! TF.GenerationSoftware,KiCad,Pcbnew,8.0.6*
G04 #@! TF.CreationDate,2024-11-17T19:47:03-05:00*
G04 #@! TF.ProjectId,STM32_KiCAD,53544d33-325f-44b6-9943-41442e6b6963,rev?*
G04 #@! TF.SameCoordinates,Original*
G04 #@! TF.FileFunction,Paste,Top*
G04 #@! TF.FilePolarity,Positive*
%FSLAX46Y46*%
G04 Gerber Fmt 4.6, Leading zero omitted, Abs format (unit mm)*
G04 Created by KiCad (PCBNEW 8.0.6) date 2024-11-17 19:47:03*
%MOMM*%
%LPD*%
G01*
G04 APERTURE LIST*
G04 Aperture macros list*
%AMRoundRect*
0 Rectangle with rounded corners*
0 $1 Rounding radius*
0 $2 $3 $4 $5 $6 $7 $8 $9 X,Y pos of 4 corners*
0 Add a 4 corners polygon primitive as box body*
4,1,4,$2,$3,$4,$5,$6,$7,$8,$9,$2,$3,0*
0 Add four circle primitives for the rounded corners*
1,1,$1+$1,$2,$3*
1,1,$1+$1,$4,$5*
1,1,$1+$1,$6,$7*
1,1,$1+$1,$8,$9*
0 Add four rect primitives between the rounded corners*
20,1,$1+$1,$2,$3,$4,$5,0*
20,1,$1+$1,$4,$5,$6,$7,0*
20,1,$1+$1,$6,$7,$8,$9,0*
20,1,$1+$1,$8,$9,$2,$3,0*%
G04 Aperture macros list end*
%ADD10RoundRect,0.250000X-0.337500X-0.475000X0.337500X-0.475000X0.337500X0.475000X-0.337500X0.475000X0*%
%ADD11RoundRect,0.155000X-0.212500X-0.155000X0.212500X-0.155000X0.212500X0.155000X-0.212500X0.155000X0*%
%ADD12RoundRect,0.237500X-0.300000X-0.237500X0.300000X-0.237500X0.300000X0.237500X-0.300000X0.237500X0*%
%ADD13RoundRect,0.075000X-0.700000X-0.075000X0.700000X-0.075000X0.700000X0.075000X-0.700000X0.075000X0*%
%ADD14RoundRect,0.075000X-0.075000X-0.700000X0.075000X-0.700000X0.075000X0.700000X-0.075000X0.700000X0*%
G04 APERTURE END LIST*
D10*
X126175000Y-79750000D03*
X128250000Y-79750000D03*
D11*
X120615000Y-79750000D03*
X121750000Y-79750000D03*
X106365000Y-79750000D03*
X107500000Y-79750000D03*
D12*
X123525000Y-87250000D03*
X125250000Y-87250000D03*
D13*
X146325000Y-88000000D03*
X146325000Y-88500000D03*
X146325000Y-89000000D03*
X146325000Y-89500000D03*
X146325000Y-90000000D03*
X146325000Y-90500000D03*
X146325000Y-91000000D03*
X146325000Y-91500000D03*
X146325000Y-92000000D03*
X146325000Y-92500000D03*
X146325000Y-93000000D03*
X146325000Y-93500000D03*
X146325000Y-94000000D03*
X146325000Y-94500000D03*
X146325000Y-95000000D03*
X146325000Y-95500000D03*
D14*
X148250000Y-97425000D03*
X148750000Y-97425000D03*
X149250000Y-97425000D03*
X149750000Y-97425000D03*
X150250000Y-97425000D03*
X150750000Y-97425000D03*
X151250000Y-97425000D03*
X151750000Y-97425000D03*
X152250000Y-97425000D03*
X152750000Y-97425000D03*
X153250000Y-97425000D03*
X153750000Y-97425000D03*
X154250000Y-97425000D03*
X154750000Y-97425000D03*
X155250000Y-97425000D03*
X155750000Y-97425000D03*
D13*
X157675000Y-95500000D03*
X157675000Y-95000000D03*
X157675000Y-94500000D03*
X157675000Y-94000000D03*
X157675000Y-93500000D03*
X157675000Y-93000000D03*
X157675000Y-92500000D03*
X157675000Y-92000000D03*
X157675000Y-91500000D03*
X157675000Y-91000000D03*
X157675000Y-90500000D03*
X157675000Y-90000000D03*
X157675000Y-89500000D03*
X157675000Y-89000000D03*
X157675000Y-88500000D03*
X157675000Y-88000000D03*
D14*
X155750000Y-86075000D03*
X155250000Y-86075000D03*
X154750000Y-86075000D03*
X154250000Y-86075000D03*
X153750000Y-86075000D03*
X153250000Y-86075000D03*
X152750000Y-86075000D03*
X152250000Y-86075000D03*
X151750000Y-86075000D03*
X151250000Y-86075000D03*
X150750000Y-86075000D03*
X150250000Y-86075000D03*
X149750000Y-86075000D03*
X149250000Y-86075000D03*
X148750000Y-86075000D03*
X148250000Y-86075000D03*
D12*
X113775000Y-87500000D03*
X115500000Y-87500000D03*
D11*
X115615000Y-79750000D03*
X116750000Y-79750000D03*
X110865000Y-79750000D03*
X112000000Y-79750000D03*
M02*
