%TF.GenerationSoftware,KiCad,Pcbnew,8.0.6*%
%TF.CreationDate,2024-11-17T19:47:22-05:00*%
%TF.ProjectId,STM32_KiCAD,53544d33-325f-44b6-9943-41442e6b6963,rev?*%
%TF.SameCoordinates,Original*%
%TF.FileFunction,Drillmap*%
%TF.FilePolarity,Positive*%
%FSLAX45Y45*%
G04 Gerber Fmt 4.5, Leading zero omitted, Abs format (unit mm)*
G04 Created by KiCad (PCBNEW 8.0.6) date 2024-11-17 19:47:22*
%MOMM*%
%LPD*%
G01*
G04 APERTURE LIST*
%ADD10C,0.100000*%
%ADD11C,0.200000*%
%ADD12C,0.220000*%
G04 APERTURE END LIST*
D10*
X9925000Y-5125000D02*
X19325000Y-5125000D01*
X19325000Y-12550000D01*
X9925000Y-12550000D01*
X9925000Y-5125000D01*
D11*
D12*
X10090000Y-5290000D02*
X10310000Y-5510000D01*
X10310000Y-5290000D02*
X10090000Y-5510000D01*
X10090000Y-12165000D02*
X10310000Y-12385000D01*
X10310000Y-12165000D02*
X10090000Y-12385000D01*
X18940000Y-5290000D02*
X19160000Y-5510000D01*
X19160000Y-5290000D02*
X18940000Y-5510000D01*
X18940000Y-12165000D02*
X19160000Y-12385000D01*
X19160000Y-12165000D02*
X18940000Y-12385000D01*
D11*
X10180777Y-12866484D02*
X10180777Y-12666484D01*
X10180777Y-12666484D02*
X10228396Y-12666484D01*
X10228396Y-12666484D02*
X10256967Y-12676008D01*
X10256967Y-12676008D02*
X10276015Y-12695055D01*
X10276015Y-12695055D02*
X10285539Y-12714103D01*
X10285539Y-12714103D02*
X10295063Y-12752198D01*
X10295063Y-12752198D02*
X10295063Y-12780769D01*
X10295063Y-12780769D02*
X10285539Y-12818865D01*
X10285539Y-12818865D02*
X10276015Y-12837912D01*
X10276015Y-12837912D02*
X10256967Y-12856960D01*
X10256967Y-12856960D02*
X10228396Y-12866484D01*
X10228396Y-12866484D02*
X10180777Y-12866484D01*
X10380777Y-12866484D02*
X10380777Y-12733150D01*
X10380777Y-12771246D02*
X10390301Y-12752198D01*
X10390301Y-12752198D02*
X10399824Y-12742674D01*
X10399824Y-12742674D02*
X10418872Y-12733150D01*
X10418872Y-12733150D02*
X10437920Y-12733150D01*
X10504586Y-12866484D02*
X10504586Y-12733150D01*
X10504586Y-12666484D02*
X10495063Y-12676008D01*
X10495063Y-12676008D02*
X10504586Y-12685531D01*
X10504586Y-12685531D02*
X10514110Y-12676008D01*
X10514110Y-12676008D02*
X10504586Y-12666484D01*
X10504586Y-12666484D02*
X10504586Y-12685531D01*
X10628396Y-12866484D02*
X10609348Y-12856960D01*
X10609348Y-12856960D02*
X10599824Y-12837912D01*
X10599824Y-12837912D02*
X10599824Y-12666484D01*
X10733158Y-12866484D02*
X10714110Y-12856960D01*
X10714110Y-12856960D02*
X10704586Y-12837912D01*
X10704586Y-12837912D02*
X10704586Y-12666484D01*
X10961729Y-12866484D02*
X10961729Y-12666484D01*
X10961729Y-12666484D02*
X11028396Y-12809341D01*
X11028396Y-12809341D02*
X11095063Y-12666484D01*
X11095063Y-12666484D02*
X11095063Y-12866484D01*
X11276015Y-12866484D02*
X11276015Y-12761722D01*
X11276015Y-12761722D02*
X11266491Y-12742674D01*
X11266491Y-12742674D02*
X11247443Y-12733150D01*
X11247443Y-12733150D02*
X11209348Y-12733150D01*
X11209348Y-12733150D02*
X11190301Y-12742674D01*
X11276015Y-12856960D02*
X11256967Y-12866484D01*
X11256967Y-12866484D02*
X11209348Y-12866484D01*
X11209348Y-12866484D02*
X11190301Y-12856960D01*
X11190301Y-12856960D02*
X11180777Y-12837912D01*
X11180777Y-12837912D02*
X11180777Y-12818865D01*
X11180777Y-12818865D02*
X11190301Y-12799817D01*
X11190301Y-12799817D02*
X11209348Y-12790293D01*
X11209348Y-12790293D02*
X11256967Y-12790293D01*
X11256967Y-12790293D02*
X11276015Y-12780769D01*
X11371253Y-12733150D02*
X11371253Y-12933150D01*
X11371253Y-12742674D02*
X11390301Y-12733150D01*
X11390301Y-12733150D02*
X11428396Y-12733150D01*
X11428396Y-12733150D02*
X11447443Y-12742674D01*
X11447443Y-12742674D02*
X11456967Y-12752198D01*
X11456967Y-12752198D02*
X11466491Y-12771246D01*
X11466491Y-12771246D02*
X11466491Y-12828388D01*
X11466491Y-12828388D02*
X11456967Y-12847436D01*
X11456967Y-12847436D02*
X11447443Y-12856960D01*
X11447443Y-12856960D02*
X11428396Y-12866484D01*
X11428396Y-12866484D02*
X11390301Y-12866484D01*
X11390301Y-12866484D02*
X11371253Y-12856960D01*
X11552205Y-12847436D02*
X11561729Y-12856960D01*
X11561729Y-12856960D02*
X11552205Y-12866484D01*
X11552205Y-12866484D02*
X11542682Y-12856960D01*
X11542682Y-12856960D02*
X11552205Y-12847436D01*
X11552205Y-12847436D02*
X11552205Y-12866484D01*
X11552205Y-12742674D02*
X11561729Y-12752198D01*
X11561729Y-12752198D02*
X11552205Y-12761722D01*
X11552205Y-12761722D02*
X11542682Y-12752198D01*
X11542682Y-12752198D02*
X11552205Y-12742674D01*
X11552205Y-12742674D02*
X11552205Y-12761722D01*
X9720000Y-13095000D02*
X9920000Y-13295000D01*
X9920000Y-13095000D02*
X9720000Y-13295000D01*
X10171253Y-13105531D02*
X10180777Y-13096008D01*
X10180777Y-13096008D02*
X10199824Y-13086484D01*
X10199824Y-13086484D02*
X10247444Y-13086484D01*
X10247444Y-13086484D02*
X10266491Y-13096008D01*
X10266491Y-13096008D02*
X10276015Y-13105531D01*
X10276015Y-13105531D02*
X10285539Y-13124579D01*
X10285539Y-13124579D02*
X10285539Y-13143627D01*
X10285539Y-13143627D02*
X10276015Y-13172198D01*
X10276015Y-13172198D02*
X10161729Y-13286484D01*
X10161729Y-13286484D02*
X10285539Y-13286484D01*
X10371253Y-13267436D02*
X10380777Y-13276960D01*
X10380777Y-13276960D02*
X10371253Y-13286484D01*
X10371253Y-13286484D02*
X10361729Y-13276960D01*
X10361729Y-13276960D02*
X10371253Y-13267436D01*
X10371253Y-13267436D02*
X10371253Y-13286484D01*
X10456967Y-13105531D02*
X10466491Y-13096008D01*
X10466491Y-13096008D02*
X10485539Y-13086484D01*
X10485539Y-13086484D02*
X10533158Y-13086484D01*
X10533158Y-13086484D02*
X10552205Y-13096008D01*
X10552205Y-13096008D02*
X10561729Y-13105531D01*
X10561729Y-13105531D02*
X10571253Y-13124579D01*
X10571253Y-13124579D02*
X10571253Y-13143627D01*
X10571253Y-13143627D02*
X10561729Y-13172198D01*
X10561729Y-13172198D02*
X10447444Y-13286484D01*
X10447444Y-13286484D02*
X10571253Y-13286484D01*
X10695063Y-13086484D02*
X10714110Y-13086484D01*
X10714110Y-13086484D02*
X10733158Y-13096008D01*
X10733158Y-13096008D02*
X10742682Y-13105531D01*
X10742682Y-13105531D02*
X10752205Y-13124579D01*
X10752205Y-13124579D02*
X10761729Y-13162674D01*
X10761729Y-13162674D02*
X10761729Y-13210293D01*
X10761729Y-13210293D02*
X10752205Y-13248388D01*
X10752205Y-13248388D02*
X10742682Y-13267436D01*
X10742682Y-13267436D02*
X10733158Y-13276960D01*
X10733158Y-13276960D02*
X10714110Y-13286484D01*
X10714110Y-13286484D02*
X10695063Y-13286484D01*
X10695063Y-13286484D02*
X10676015Y-13276960D01*
X10676015Y-13276960D02*
X10666491Y-13267436D01*
X10666491Y-13267436D02*
X10656967Y-13248388D01*
X10656967Y-13248388D02*
X10647444Y-13210293D01*
X10647444Y-13210293D02*
X10647444Y-13162674D01*
X10647444Y-13162674D02*
X10656967Y-13124579D01*
X10656967Y-13124579D02*
X10666491Y-13105531D01*
X10666491Y-13105531D02*
X10676015Y-13096008D01*
X10676015Y-13096008D02*
X10695063Y-13086484D01*
X10885539Y-13086484D02*
X10904586Y-13086484D01*
X10904586Y-13086484D02*
X10923634Y-13096008D01*
X10923634Y-13096008D02*
X10933158Y-13105531D01*
X10933158Y-13105531D02*
X10942682Y-13124579D01*
X10942682Y-13124579D02*
X10952205Y-13162674D01*
X10952205Y-13162674D02*
X10952205Y-13210293D01*
X10952205Y-13210293D02*
X10942682Y-13248388D01*
X10942682Y-13248388D02*
X10933158Y-13267436D01*
X10933158Y-13267436D02*
X10923634Y-13276960D01*
X10923634Y-13276960D02*
X10904586Y-13286484D01*
X10904586Y-13286484D02*
X10885539Y-13286484D01*
X10885539Y-13286484D02*
X10866491Y-13276960D01*
X10866491Y-13276960D02*
X10856967Y-13267436D01*
X10856967Y-13267436D02*
X10847444Y-13248388D01*
X10847444Y-13248388D02*
X10837920Y-13210293D01*
X10837920Y-13210293D02*
X10837920Y-13162674D01*
X10837920Y-13162674D02*
X10847444Y-13124579D01*
X10847444Y-13124579D02*
X10856967Y-13105531D01*
X10856967Y-13105531D02*
X10866491Y-13096008D01*
X10866491Y-13096008D02*
X10885539Y-13086484D01*
X11037920Y-13286484D02*
X11037920Y-13153150D01*
X11037920Y-13172198D02*
X11047444Y-13162674D01*
X11047444Y-13162674D02*
X11066491Y-13153150D01*
X11066491Y-13153150D02*
X11095063Y-13153150D01*
X11095063Y-13153150D02*
X11114110Y-13162674D01*
X11114110Y-13162674D02*
X11123634Y-13181722D01*
X11123634Y-13181722D02*
X11123634Y-13286484D01*
X11123634Y-13181722D02*
X11133158Y-13162674D01*
X11133158Y-13162674D02*
X11152205Y-13153150D01*
X11152205Y-13153150D02*
X11180777Y-13153150D01*
X11180777Y-13153150D02*
X11199824Y-13162674D01*
X11199824Y-13162674D02*
X11209348Y-13181722D01*
X11209348Y-13181722D02*
X11209348Y-13286484D01*
X11304586Y-13286484D02*
X11304586Y-13153150D01*
X11304586Y-13172198D02*
X11314110Y-13162674D01*
X11314110Y-13162674D02*
X11333158Y-13153150D01*
X11333158Y-13153150D02*
X11361729Y-13153150D01*
X11361729Y-13153150D02*
X11380777Y-13162674D01*
X11380777Y-13162674D02*
X11390301Y-13181722D01*
X11390301Y-13181722D02*
X11390301Y-13286484D01*
X11390301Y-13181722D02*
X11399824Y-13162674D01*
X11399824Y-13162674D02*
X11418872Y-13153150D01*
X11418872Y-13153150D02*
X11447443Y-13153150D01*
X11447443Y-13153150D02*
X11466491Y-13162674D01*
X11466491Y-13162674D02*
X11476015Y-13181722D01*
X11476015Y-13181722D02*
X11476015Y-13286484D01*
X11866491Y-13076960D02*
X11695063Y-13334103D01*
X12123634Y-13086484D02*
X12142682Y-13086484D01*
X12142682Y-13086484D02*
X12161729Y-13096008D01*
X12161729Y-13096008D02*
X12171253Y-13105531D01*
X12171253Y-13105531D02*
X12180777Y-13124579D01*
X12180777Y-13124579D02*
X12190301Y-13162674D01*
X12190301Y-13162674D02*
X12190301Y-13210293D01*
X12190301Y-13210293D02*
X12180777Y-13248388D01*
X12180777Y-13248388D02*
X12171253Y-13267436D01*
X12171253Y-13267436D02*
X12161729Y-13276960D01*
X12161729Y-13276960D02*
X12142682Y-13286484D01*
X12142682Y-13286484D02*
X12123634Y-13286484D01*
X12123634Y-13286484D02*
X12104586Y-13276960D01*
X12104586Y-13276960D02*
X12095063Y-13267436D01*
X12095063Y-13267436D02*
X12085539Y-13248388D01*
X12085539Y-13248388D02*
X12076015Y-13210293D01*
X12076015Y-13210293D02*
X12076015Y-13162674D01*
X12076015Y-13162674D02*
X12085539Y-13124579D01*
X12085539Y-13124579D02*
X12095063Y-13105531D01*
X12095063Y-13105531D02*
X12104586Y-13096008D01*
X12104586Y-13096008D02*
X12123634Y-13086484D01*
X12276015Y-13267436D02*
X12285539Y-13276960D01*
X12285539Y-13276960D02*
X12276015Y-13286484D01*
X12276015Y-13286484D02*
X12266491Y-13276960D01*
X12266491Y-13276960D02*
X12276015Y-13267436D01*
X12276015Y-13267436D02*
X12276015Y-13286484D01*
X12409348Y-13086484D02*
X12428396Y-13086484D01*
X12428396Y-13086484D02*
X12447444Y-13096008D01*
X12447444Y-13096008D02*
X12456967Y-13105531D01*
X12456967Y-13105531D02*
X12466491Y-13124579D01*
X12466491Y-13124579D02*
X12476015Y-13162674D01*
X12476015Y-13162674D02*
X12476015Y-13210293D01*
X12476015Y-13210293D02*
X12466491Y-13248388D01*
X12466491Y-13248388D02*
X12456967Y-13267436D01*
X12456967Y-13267436D02*
X12447444Y-13276960D01*
X12447444Y-13276960D02*
X12428396Y-13286484D01*
X12428396Y-13286484D02*
X12409348Y-13286484D01*
X12409348Y-13286484D02*
X12390301Y-13276960D01*
X12390301Y-13276960D02*
X12380777Y-13267436D01*
X12380777Y-13267436D02*
X12371253Y-13248388D01*
X12371253Y-13248388D02*
X12361729Y-13210293D01*
X12361729Y-13210293D02*
X12361729Y-13162674D01*
X12361729Y-13162674D02*
X12371253Y-13124579D01*
X12371253Y-13124579D02*
X12380777Y-13105531D01*
X12380777Y-13105531D02*
X12390301Y-13096008D01*
X12390301Y-13096008D02*
X12409348Y-13086484D01*
X12590301Y-13172198D02*
X12571253Y-13162674D01*
X12571253Y-13162674D02*
X12561729Y-13153150D01*
X12561729Y-13153150D02*
X12552206Y-13134103D01*
X12552206Y-13134103D02*
X12552206Y-13124579D01*
X12552206Y-13124579D02*
X12561729Y-13105531D01*
X12561729Y-13105531D02*
X12571253Y-13096008D01*
X12571253Y-13096008D02*
X12590301Y-13086484D01*
X12590301Y-13086484D02*
X12628396Y-13086484D01*
X12628396Y-13086484D02*
X12647444Y-13096008D01*
X12647444Y-13096008D02*
X12656967Y-13105531D01*
X12656967Y-13105531D02*
X12666491Y-13124579D01*
X12666491Y-13124579D02*
X12666491Y-13134103D01*
X12666491Y-13134103D02*
X12656967Y-13153150D01*
X12656967Y-13153150D02*
X12647444Y-13162674D01*
X12647444Y-13162674D02*
X12628396Y-13172198D01*
X12628396Y-13172198D02*
X12590301Y-13172198D01*
X12590301Y-13172198D02*
X12571253Y-13181722D01*
X12571253Y-13181722D02*
X12561729Y-13191246D01*
X12561729Y-13191246D02*
X12552206Y-13210293D01*
X12552206Y-13210293D02*
X12552206Y-13248388D01*
X12552206Y-13248388D02*
X12561729Y-13267436D01*
X12561729Y-13267436D02*
X12571253Y-13276960D01*
X12571253Y-13276960D02*
X12590301Y-13286484D01*
X12590301Y-13286484D02*
X12628396Y-13286484D01*
X12628396Y-13286484D02*
X12647444Y-13276960D01*
X12647444Y-13276960D02*
X12656967Y-13267436D01*
X12656967Y-13267436D02*
X12666491Y-13248388D01*
X12666491Y-13248388D02*
X12666491Y-13210293D01*
X12666491Y-13210293D02*
X12656967Y-13191246D01*
X12656967Y-13191246D02*
X12647444Y-13181722D01*
X12647444Y-13181722D02*
X12628396Y-13172198D01*
X12837920Y-13086484D02*
X12799825Y-13086484D01*
X12799825Y-13086484D02*
X12780777Y-13096008D01*
X12780777Y-13096008D02*
X12771253Y-13105531D01*
X12771253Y-13105531D02*
X12752206Y-13134103D01*
X12752206Y-13134103D02*
X12742682Y-13172198D01*
X12742682Y-13172198D02*
X12742682Y-13248388D01*
X12742682Y-13248388D02*
X12752206Y-13267436D01*
X12752206Y-13267436D02*
X12761729Y-13276960D01*
X12761729Y-13276960D02*
X12780777Y-13286484D01*
X12780777Y-13286484D02*
X12818872Y-13286484D01*
X12818872Y-13286484D02*
X12837920Y-13276960D01*
X12837920Y-13276960D02*
X12847444Y-13267436D01*
X12847444Y-13267436D02*
X12856967Y-13248388D01*
X12856967Y-13248388D02*
X12856967Y-13200769D01*
X12856967Y-13200769D02*
X12847444Y-13181722D01*
X12847444Y-13181722D02*
X12837920Y-13172198D01*
X12837920Y-13172198D02*
X12818872Y-13162674D01*
X12818872Y-13162674D02*
X12780777Y-13162674D01*
X12780777Y-13162674D02*
X12761729Y-13172198D01*
X12761729Y-13172198D02*
X12752206Y-13181722D01*
X12752206Y-13181722D02*
X12742682Y-13200769D01*
X13028396Y-13086484D02*
X12990301Y-13086484D01*
X12990301Y-13086484D02*
X12971253Y-13096008D01*
X12971253Y-13096008D02*
X12961729Y-13105531D01*
X12961729Y-13105531D02*
X12942682Y-13134103D01*
X12942682Y-13134103D02*
X12933158Y-13172198D01*
X12933158Y-13172198D02*
X12933158Y-13248388D01*
X12933158Y-13248388D02*
X12942682Y-13267436D01*
X12942682Y-13267436D02*
X12952206Y-13276960D01*
X12952206Y-13276960D02*
X12971253Y-13286484D01*
X12971253Y-13286484D02*
X13009348Y-13286484D01*
X13009348Y-13286484D02*
X13028396Y-13276960D01*
X13028396Y-13276960D02*
X13037920Y-13267436D01*
X13037920Y-13267436D02*
X13047444Y-13248388D01*
X13047444Y-13248388D02*
X13047444Y-13200769D01*
X13047444Y-13200769D02*
X13037920Y-13181722D01*
X13037920Y-13181722D02*
X13028396Y-13172198D01*
X13028396Y-13172198D02*
X13009348Y-13162674D01*
X13009348Y-13162674D02*
X12971253Y-13162674D01*
X12971253Y-13162674D02*
X12952206Y-13172198D01*
X12952206Y-13172198D02*
X12942682Y-13181722D01*
X12942682Y-13181722D02*
X12933158Y-13200769D01*
X13123634Y-13086484D02*
X13123634Y-13124579D01*
X13199825Y-13086484D02*
X13199825Y-13124579D01*
X13495063Y-13362674D02*
X13485539Y-13353150D01*
X13485539Y-13353150D02*
X13466491Y-13324579D01*
X13466491Y-13324579D02*
X13456968Y-13305531D01*
X13456968Y-13305531D02*
X13447444Y-13276960D01*
X13447444Y-13276960D02*
X13437920Y-13229341D01*
X13437920Y-13229341D02*
X13437920Y-13191246D01*
X13437920Y-13191246D02*
X13447444Y-13143627D01*
X13447444Y-13143627D02*
X13456968Y-13115055D01*
X13456968Y-13115055D02*
X13466491Y-13096008D01*
X13466491Y-13096008D02*
X13485539Y-13067436D01*
X13485539Y-13067436D02*
X13495063Y-13057912D01*
X13656968Y-13153150D02*
X13656968Y-13286484D01*
X13609348Y-13076960D02*
X13561729Y-13219817D01*
X13561729Y-13219817D02*
X13685539Y-13219817D01*
X13914110Y-13286484D02*
X13914110Y-13086484D01*
X13999825Y-13286484D02*
X13999825Y-13181722D01*
X13999825Y-13181722D02*
X13990301Y-13162674D01*
X13990301Y-13162674D02*
X13971253Y-13153150D01*
X13971253Y-13153150D02*
X13942682Y-13153150D01*
X13942682Y-13153150D02*
X13923634Y-13162674D01*
X13923634Y-13162674D02*
X13914110Y-13172198D01*
X14123634Y-13286484D02*
X14104587Y-13276960D01*
X14104587Y-13276960D02*
X14095063Y-13267436D01*
X14095063Y-13267436D02*
X14085539Y-13248388D01*
X14085539Y-13248388D02*
X14085539Y-13191246D01*
X14085539Y-13191246D02*
X14095063Y-13172198D01*
X14095063Y-13172198D02*
X14104587Y-13162674D01*
X14104587Y-13162674D02*
X14123634Y-13153150D01*
X14123634Y-13153150D02*
X14152206Y-13153150D01*
X14152206Y-13153150D02*
X14171253Y-13162674D01*
X14171253Y-13162674D02*
X14180777Y-13172198D01*
X14180777Y-13172198D02*
X14190301Y-13191246D01*
X14190301Y-13191246D02*
X14190301Y-13248388D01*
X14190301Y-13248388D02*
X14180777Y-13267436D01*
X14180777Y-13267436D02*
X14171253Y-13276960D01*
X14171253Y-13276960D02*
X14152206Y-13286484D01*
X14152206Y-13286484D02*
X14123634Y-13286484D01*
X14304587Y-13286484D02*
X14285539Y-13276960D01*
X14285539Y-13276960D02*
X14276015Y-13257912D01*
X14276015Y-13257912D02*
X14276015Y-13086484D01*
X14456968Y-13276960D02*
X14437920Y-13286484D01*
X14437920Y-13286484D02*
X14399825Y-13286484D01*
X14399825Y-13286484D02*
X14380777Y-13276960D01*
X14380777Y-13276960D02*
X14371253Y-13257912D01*
X14371253Y-13257912D02*
X14371253Y-13181722D01*
X14371253Y-13181722D02*
X14380777Y-13162674D01*
X14380777Y-13162674D02*
X14399825Y-13153150D01*
X14399825Y-13153150D02*
X14437920Y-13153150D01*
X14437920Y-13153150D02*
X14456968Y-13162674D01*
X14456968Y-13162674D02*
X14466491Y-13181722D01*
X14466491Y-13181722D02*
X14466491Y-13200769D01*
X14466491Y-13200769D02*
X14371253Y-13219817D01*
X14542682Y-13276960D02*
X14561730Y-13286484D01*
X14561730Y-13286484D02*
X14599825Y-13286484D01*
X14599825Y-13286484D02*
X14618872Y-13276960D01*
X14618872Y-13276960D02*
X14628396Y-13257912D01*
X14628396Y-13257912D02*
X14628396Y-13248388D01*
X14628396Y-13248388D02*
X14618872Y-13229341D01*
X14618872Y-13229341D02*
X14599825Y-13219817D01*
X14599825Y-13219817D02*
X14571253Y-13219817D01*
X14571253Y-13219817D02*
X14552206Y-13210293D01*
X14552206Y-13210293D02*
X14542682Y-13191246D01*
X14542682Y-13191246D02*
X14542682Y-13181722D01*
X14542682Y-13181722D02*
X14552206Y-13162674D01*
X14552206Y-13162674D02*
X14571253Y-13153150D01*
X14571253Y-13153150D02*
X14599825Y-13153150D01*
X14599825Y-13153150D02*
X14618872Y-13162674D01*
X14695063Y-13362674D02*
X14704587Y-13353150D01*
X14704587Y-13353150D02*
X14723634Y-13324579D01*
X14723634Y-13324579D02*
X14733158Y-13305531D01*
X14733158Y-13305531D02*
X14742682Y-13276960D01*
X14742682Y-13276960D02*
X14752206Y-13229341D01*
X14752206Y-13229341D02*
X14752206Y-13191246D01*
X14752206Y-13191246D02*
X14742682Y-13143627D01*
X14742682Y-13143627D02*
X14733158Y-13115055D01*
X14733158Y-13115055D02*
X14723634Y-13096008D01*
X14723634Y-13096008D02*
X14704587Y-13067436D01*
X14704587Y-13067436D02*
X14695063Y-13057912D01*
X15056968Y-13362674D02*
X15047444Y-13353150D01*
X15047444Y-13353150D02*
X15028396Y-13324579D01*
X15028396Y-13324579D02*
X15018872Y-13305531D01*
X15018872Y-13305531D02*
X15009349Y-13276960D01*
X15009349Y-13276960D02*
X14999825Y-13229341D01*
X14999825Y-13229341D02*
X14999825Y-13191246D01*
X14999825Y-13191246D02*
X15009349Y-13143627D01*
X15009349Y-13143627D02*
X15018872Y-13115055D01*
X15018872Y-13115055D02*
X15028396Y-13096008D01*
X15028396Y-13096008D02*
X15047444Y-13067436D01*
X15047444Y-13067436D02*
X15056968Y-13057912D01*
X15133158Y-13153150D02*
X15133158Y-13286484D01*
X15133158Y-13172198D02*
X15142682Y-13162674D01*
X15142682Y-13162674D02*
X15161730Y-13153150D01*
X15161730Y-13153150D02*
X15190301Y-13153150D01*
X15190301Y-13153150D02*
X15209349Y-13162674D01*
X15209349Y-13162674D02*
X15218872Y-13181722D01*
X15218872Y-13181722D02*
X15218872Y-13286484D01*
X15342682Y-13286484D02*
X15323634Y-13276960D01*
X15323634Y-13276960D02*
X15314111Y-13267436D01*
X15314111Y-13267436D02*
X15304587Y-13248388D01*
X15304587Y-13248388D02*
X15304587Y-13191246D01*
X15304587Y-13191246D02*
X15314111Y-13172198D01*
X15314111Y-13172198D02*
X15323634Y-13162674D01*
X15323634Y-13162674D02*
X15342682Y-13153150D01*
X15342682Y-13153150D02*
X15371253Y-13153150D01*
X15371253Y-13153150D02*
X15390301Y-13162674D01*
X15390301Y-13162674D02*
X15399825Y-13172198D01*
X15399825Y-13172198D02*
X15409349Y-13191246D01*
X15409349Y-13191246D02*
X15409349Y-13248388D01*
X15409349Y-13248388D02*
X15399825Y-13267436D01*
X15399825Y-13267436D02*
X15390301Y-13276960D01*
X15390301Y-13276960D02*
X15371253Y-13286484D01*
X15371253Y-13286484D02*
X15342682Y-13286484D01*
X15466492Y-13153150D02*
X15542682Y-13153150D01*
X15495063Y-13086484D02*
X15495063Y-13257912D01*
X15495063Y-13257912D02*
X15504587Y-13276960D01*
X15504587Y-13276960D02*
X15523634Y-13286484D01*
X15523634Y-13286484D02*
X15542682Y-13286484D01*
X15761730Y-13153150D02*
X15761730Y-13353150D01*
X15761730Y-13162674D02*
X15780777Y-13153150D01*
X15780777Y-13153150D02*
X15818873Y-13153150D01*
X15818873Y-13153150D02*
X15837920Y-13162674D01*
X15837920Y-13162674D02*
X15847444Y-13172198D01*
X15847444Y-13172198D02*
X15856968Y-13191246D01*
X15856968Y-13191246D02*
X15856968Y-13248388D01*
X15856968Y-13248388D02*
X15847444Y-13267436D01*
X15847444Y-13267436D02*
X15837920Y-13276960D01*
X15837920Y-13276960D02*
X15818873Y-13286484D01*
X15818873Y-13286484D02*
X15780777Y-13286484D01*
X15780777Y-13286484D02*
X15761730Y-13276960D01*
X15971253Y-13286484D02*
X15952206Y-13276960D01*
X15952206Y-13276960D02*
X15942682Y-13257912D01*
X15942682Y-13257912D02*
X15942682Y-13086484D01*
X16133158Y-13286484D02*
X16133158Y-13181722D01*
X16133158Y-13181722D02*
X16123634Y-13162674D01*
X16123634Y-13162674D02*
X16104587Y-13153150D01*
X16104587Y-13153150D02*
X16066492Y-13153150D01*
X16066492Y-13153150D02*
X16047444Y-13162674D01*
X16133158Y-13276960D02*
X16114111Y-13286484D01*
X16114111Y-13286484D02*
X16066492Y-13286484D01*
X16066492Y-13286484D02*
X16047444Y-13276960D01*
X16047444Y-13276960D02*
X16037920Y-13257912D01*
X16037920Y-13257912D02*
X16037920Y-13238865D01*
X16037920Y-13238865D02*
X16047444Y-13219817D01*
X16047444Y-13219817D02*
X16066492Y-13210293D01*
X16066492Y-13210293D02*
X16114111Y-13210293D01*
X16114111Y-13210293D02*
X16133158Y-13200769D01*
X16199825Y-13153150D02*
X16276015Y-13153150D01*
X16228396Y-13086484D02*
X16228396Y-13257912D01*
X16228396Y-13257912D02*
X16237920Y-13276960D01*
X16237920Y-13276960D02*
X16256968Y-13286484D01*
X16256968Y-13286484D02*
X16276015Y-13286484D01*
X16418873Y-13276960D02*
X16399825Y-13286484D01*
X16399825Y-13286484D02*
X16361730Y-13286484D01*
X16361730Y-13286484D02*
X16342682Y-13276960D01*
X16342682Y-13276960D02*
X16333158Y-13257912D01*
X16333158Y-13257912D02*
X16333158Y-13181722D01*
X16333158Y-13181722D02*
X16342682Y-13162674D01*
X16342682Y-13162674D02*
X16361730Y-13153150D01*
X16361730Y-13153150D02*
X16399825Y-13153150D01*
X16399825Y-13153150D02*
X16418873Y-13162674D01*
X16418873Y-13162674D02*
X16428396Y-13181722D01*
X16428396Y-13181722D02*
X16428396Y-13200769D01*
X16428396Y-13200769D02*
X16333158Y-13219817D01*
X16599825Y-13286484D02*
X16599825Y-13086484D01*
X16599825Y-13276960D02*
X16580777Y-13286484D01*
X16580777Y-13286484D02*
X16542682Y-13286484D01*
X16542682Y-13286484D02*
X16523634Y-13276960D01*
X16523634Y-13276960D02*
X16514111Y-13267436D01*
X16514111Y-13267436D02*
X16504587Y-13248388D01*
X16504587Y-13248388D02*
X16504587Y-13191246D01*
X16504587Y-13191246D02*
X16514111Y-13172198D01*
X16514111Y-13172198D02*
X16523634Y-13162674D01*
X16523634Y-13162674D02*
X16542682Y-13153150D01*
X16542682Y-13153150D02*
X16580777Y-13153150D01*
X16580777Y-13153150D02*
X16599825Y-13162674D01*
X16676015Y-13362674D02*
X16685539Y-13353150D01*
X16685539Y-13353150D02*
X16704587Y-13324579D01*
X16704587Y-13324579D02*
X16714111Y-13305531D01*
X16714111Y-13305531D02*
X16723634Y-13276960D01*
X16723634Y-13276960D02*
X16733158Y-13229341D01*
X16733158Y-13229341D02*
X16733158Y-13191246D01*
X16733158Y-13191246D02*
X16723634Y-13143627D01*
X16723634Y-13143627D02*
X16714111Y-13115055D01*
X16714111Y-13115055D02*
X16704587Y-13096008D01*
X16704587Y-13096008D02*
X16685539Y-13067436D01*
X16685539Y-13067436D02*
X16676015Y-13057912D01*
M02*
