G04 #@! TF.GenerationSoftware,KiCad,Pcbnew,8.0.6*
G04 #@! TF.CreationDate,2024-11-17T19:47:03-05:00*
G04 #@! TF.ProjectId,STM32_KiCAD,53544d33-325f-44b6-9943-41442e6b6963,rev?*
G04 #@! TF.SameCoordinates,Original*
G04 #@! TF.FileFunction,Copper,L2,Bot*
G04 #@! TF.FilePolarity,Positive*
%FSLAX46Y46*%
G04 Gerber Fmt 4.6, Leading zero omitted, Abs format (unit mm)*
G04 Created by KiCad (PCBNEW 8.0.6) date 2024-11-17 19:47:03*
%MOMM*%
%LPD*%
G01*
G04 APERTURE LIST*
G04 #@! TA.AperFunction,ComponentPad*
%ADD10C,1.500000*%
G04 #@! TD*
G04 #@! TA.AperFunction,ComponentPad*
%ADD11R,1.700000X1.700000*%
G04 #@! TD*
G04 #@! TA.AperFunction,ComponentPad*
%ADD12O,1.700000X1.700000*%
G04 #@! TD*
G04 #@! TA.AperFunction,ComponentPad*
%ADD13C,1.600000*%
G04 #@! TD*
G04 #@! TA.AperFunction,ComponentPad*
%ADD14C,10.160000*%
G04 #@! TD*
G04 #@! TA.AperFunction,ComponentPad*
%ADD15R,3.000000X3.000000*%
G04 #@! TD*
G04 #@! TA.AperFunction,ComponentPad*
%ADD16C,3.000000*%
G04 #@! TD*
G04 #@! TA.AperFunction,ComponentPad*
%ADD17O,1.600000X1.600000*%
G04 #@! TD*
G04 #@! TA.AperFunction,ComponentPad*
%ADD18R,1.800000X1.800000*%
G04 #@! TD*
G04 #@! TA.AperFunction,ComponentPad*
%ADD19C,1.800000*%
G04 #@! TD*
G04 #@! TA.AperFunction,ViaPad*
%ADD20C,0.600000*%
G04 #@! TD*
G04 #@! TA.AperFunction,Conductor*
%ADD21C,0.200000*%
G04 #@! TD*
G04 APERTURE END LIST*
D10*
X136200000Y-106750000D03*
X131320000Y-106750000D03*
D11*
X136210000Y-119250000D03*
D12*
X138750000Y-119250000D03*
X141290000Y-119250000D03*
D13*
X142250000Y-106750000D03*
X142250000Y-111750000D03*
X124250000Y-106750000D03*
X124250000Y-111750000D03*
D11*
X184750000Y-80710000D03*
D12*
X184750000Y-78170000D03*
X184750000Y-75630000D03*
D11*
X174250000Y-58250000D03*
D12*
X171710000Y-58250000D03*
X169170000Y-58250000D03*
X166630000Y-58250000D03*
X164090000Y-58250000D03*
X161550000Y-58250000D03*
D13*
X118250000Y-93250000D03*
X113250000Y-93250000D03*
D14*
X113750000Y-58750000D03*
X143720000Y-58750000D03*
D15*
X162750000Y-110000000D03*
D16*
X167750000Y-110000000D03*
X172750000Y-110000000D03*
D13*
X160410000Y-70250000D03*
D17*
X150250000Y-70250000D03*
D13*
X153090000Y-78250000D03*
D17*
X163250000Y-78250000D03*
D18*
X169710000Y-78250000D03*
D19*
X172250000Y-78250000D03*
D11*
X184500000Y-97800000D03*
D12*
X184500000Y-95260000D03*
X184500000Y-92720000D03*
X184500000Y-90180000D03*
D11*
X113880000Y-72750000D03*
D12*
X116420000Y-72750000D03*
X118960000Y-72750000D03*
X121500000Y-72750000D03*
D11*
X106500000Y-101950000D03*
D12*
X106500000Y-99410000D03*
X106500000Y-96870000D03*
X106500000Y-94330000D03*
X106500000Y-91790000D03*
X106500000Y-89250000D03*
D11*
X171775000Y-87000000D03*
D12*
X169235000Y-87000000D03*
X166695000Y-87000000D03*
D13*
X137250000Y-85000000D03*
X137250000Y-80000000D03*
X138600000Y-95000000D03*
D17*
X125900000Y-95000000D03*
D11*
X184750000Y-68050000D03*
D12*
X184750000Y-65510000D03*
X184750000Y-62970000D03*
X184750000Y-60430000D03*
D20*
X152000000Y-88750000D03*
X158750000Y-99000000D03*
X159750000Y-88000000D03*
X152000000Y-90500000D03*
X160000000Y-86500000D03*
X143500000Y-96000000D03*
X160500000Y-84750000D03*
X141750000Y-96000000D03*
X142000000Y-92500000D03*
X138750000Y-112250000D03*
X151250000Y-83000000D03*
X148500000Y-83750000D03*
X151500000Y-84000000D03*
X149375000Y-83125000D03*
D21*
X158750000Y-99000000D02*
X161750000Y-99000000D01*
X159400000Y-85850000D02*
X159500000Y-85750000D01*
X152000000Y-88750000D02*
X152000000Y-90500000D01*
X152000000Y-90500000D02*
X157250000Y-90500000D01*
X161750000Y-99000000D02*
X172750000Y-110000000D01*
X157250000Y-90500000D02*
X159750000Y-88000000D01*
X165445000Y-85750000D02*
X166695000Y-87000000D01*
X159750000Y-88000000D02*
X159400000Y-87650000D01*
X159400000Y-87650000D02*
X159400000Y-85850000D01*
X159500000Y-85750000D02*
X165445000Y-85750000D01*
X162750000Y-115250000D02*
X162750000Y-110000000D01*
X136210000Y-113460000D02*
X125900000Y-103150000D01*
X136210000Y-119250000D02*
X136210000Y-113460000D01*
X171775000Y-89975000D02*
X171775000Y-87000000D01*
X172250000Y-78250000D02*
X176590000Y-78250000D01*
X176590000Y-78250000D02*
X176670000Y-78170000D01*
X125900000Y-103150000D02*
X125900000Y-95000000D01*
X136500000Y-115250000D02*
X136210000Y-115540000D01*
X136210000Y-119250000D02*
X136210000Y-115540000D01*
X163500000Y-90000000D02*
X171750000Y-90000000D01*
X162750000Y-115250000D02*
X136500000Y-115250000D01*
X172250000Y-86525000D02*
X171775000Y-87000000D01*
X184750000Y-78170000D02*
X176670000Y-78170000D01*
X172250000Y-78250000D02*
X172250000Y-86525000D01*
X160000000Y-86500000D02*
X163500000Y-90000000D01*
X171750000Y-90000000D02*
X171775000Y-89975000D01*
X166630000Y-58250000D02*
X139880000Y-85000000D01*
X139880000Y-85000000D02*
X137250000Y-85000000D01*
X118250000Y-93250000D02*
X136850000Y-93250000D01*
X136850000Y-93250000D02*
X138600000Y-95000000D01*
X163250000Y-78250000D02*
X169710000Y-78250000D01*
X187000000Y-81500000D02*
X172500000Y-96000000D01*
X172500000Y-96000000D02*
X143500000Y-96000000D01*
X184750000Y-75630000D02*
X187000000Y-77880000D01*
X187000000Y-77880000D02*
X187000000Y-81500000D01*
X166985000Y-84750000D02*
X169235000Y-87000000D01*
X160500000Y-84750000D02*
X166985000Y-84750000D01*
X141750000Y-96000000D02*
X141750000Y-103000000D01*
X141750000Y-103000000D02*
X160750000Y-103000000D01*
X160750000Y-103000000D02*
X167750000Y-110000000D01*
X142000000Y-93155635D02*
X138750000Y-96405635D01*
X138750000Y-96405635D02*
X138750000Y-112250000D01*
X142000000Y-92500000D02*
X142000000Y-93155635D01*
X184750000Y-65510000D02*
X168740000Y-65510000D01*
X168740000Y-65510000D02*
X151250000Y-83000000D01*
X148500000Y-83750000D02*
X148500000Y-80604365D01*
X148500000Y-80604365D02*
X168674365Y-60430000D01*
X168674365Y-60430000D02*
X184750000Y-60430000D01*
X171894365Y-68050000D02*
X184750000Y-68050000D01*
X155944365Y-84000000D02*
X171894365Y-68050000D01*
X151500000Y-84000000D02*
X155944365Y-84000000D01*
X149375000Y-83125000D02*
X150100000Y-82400000D01*
X150100000Y-82400000D02*
X150850000Y-82400000D01*
X150850000Y-82400000D02*
X170280000Y-62970000D01*
X170280000Y-62970000D02*
X184750000Y-62970000D01*
G04 #@! TA.AperFunction,Conductor*
G36*
X166751942Y-85370185D02*
G01*
X166772584Y-85386819D01*
X166908681Y-85522916D01*
X166942166Y-85584239D01*
X166945000Y-85610597D01*
X166945000Y-86566988D01*
X166887993Y-86534075D01*
X166760826Y-86500000D01*
X166629174Y-86500000D01*
X166502007Y-86534075D01*
X166445000Y-86566988D01*
X166445000Y-85669364D01*
X166444999Y-85669364D01*
X166231513Y-85726567D01*
X166231507Y-85726570D01*
X166017422Y-85826399D01*
X166017420Y-85826400D01*
X165823926Y-85961886D01*
X165823920Y-85961891D01*
X165656891Y-86128920D01*
X165656886Y-86128926D01*
X165521400Y-86322420D01*
X165521399Y-86322422D01*
X165421570Y-86536507D01*
X165421567Y-86536513D01*
X165364364Y-86749999D01*
X165364364Y-86750000D01*
X166261988Y-86750000D01*
X166229075Y-86807007D01*
X166195000Y-86934174D01*
X166195000Y-87065826D01*
X166229075Y-87192993D01*
X166261988Y-87250000D01*
X165364364Y-87250000D01*
X165421567Y-87463486D01*
X165421570Y-87463492D01*
X165521399Y-87677578D01*
X165656894Y-87871082D01*
X165823917Y-88038105D01*
X166017421Y-88173600D01*
X166231507Y-88273429D01*
X166231516Y-88273433D01*
X166445000Y-88330634D01*
X166445000Y-87433012D01*
X166502007Y-87465925D01*
X166629174Y-87500000D01*
X166760826Y-87500000D01*
X166887993Y-87465925D01*
X166945000Y-87433012D01*
X166945000Y-88330633D01*
X167158483Y-88273433D01*
X167158492Y-88273429D01*
X167372578Y-88173600D01*
X167566082Y-88038105D01*
X167733105Y-87871082D01*
X167863119Y-87685405D01*
X167917696Y-87641781D01*
X167987195Y-87634588D01*
X168049549Y-87666110D01*
X168066269Y-87685405D01*
X168196505Y-87871401D01*
X168363599Y-88038495D01*
X168460384Y-88106265D01*
X168557165Y-88174032D01*
X168557167Y-88174033D01*
X168557170Y-88174035D01*
X168771337Y-88273903D01*
X168999592Y-88335063D01*
X169176034Y-88350500D01*
X169234999Y-88355659D01*
X169235000Y-88355659D01*
X169235001Y-88355659D01*
X169293966Y-88350500D01*
X169470408Y-88335063D01*
X169698663Y-88273903D01*
X169912830Y-88174035D01*
X170106401Y-88038495D01*
X170228329Y-87916566D01*
X170289648Y-87883084D01*
X170359340Y-87888068D01*
X170415274Y-87929939D01*
X170432189Y-87960917D01*
X170481202Y-88092328D01*
X170481206Y-88092335D01*
X170567452Y-88207544D01*
X170567455Y-88207547D01*
X170682664Y-88293793D01*
X170682671Y-88293797D01*
X170727618Y-88310561D01*
X170817517Y-88344091D01*
X170877127Y-88350500D01*
X171050500Y-88350499D01*
X171117539Y-88370183D01*
X171163294Y-88422987D01*
X171174500Y-88474499D01*
X171174500Y-89275500D01*
X171154815Y-89342539D01*
X171102011Y-89388294D01*
X171050500Y-89399500D01*
X163800097Y-89399500D01*
X163733058Y-89379815D01*
X163712416Y-89363181D01*
X160830700Y-86481465D01*
X160797215Y-86420142D01*
X160795163Y-86407686D01*
X160785368Y-86320745D01*
X160725789Y-86150478D01*
X160629816Y-85997738D01*
X160502262Y-85870184D01*
X160352647Y-85776174D01*
X160306356Y-85723839D01*
X160295708Y-85654785D01*
X160324083Y-85590937D01*
X160382473Y-85552565D01*
X160432503Y-85547960D01*
X160499997Y-85555565D01*
X160500000Y-85555565D01*
X160500004Y-85555565D01*
X160679249Y-85535369D01*
X160679252Y-85535368D01*
X160679255Y-85535368D01*
X160849522Y-85475789D01*
X161002262Y-85379816D01*
X161002267Y-85379810D01*
X161005097Y-85377555D01*
X161007275Y-85376665D01*
X161008158Y-85376111D01*
X161008255Y-85376265D01*
X161069783Y-85351145D01*
X161082412Y-85350500D01*
X166684903Y-85350500D01*
X166751942Y-85370185D01*
G37*
G04 #@! TD.AperFunction*
G04 #@! TA.AperFunction,Conductor*
G36*
X152690000Y-78302661D02*
G01*
X152717259Y-78404394D01*
X152769920Y-78495606D01*
X152844394Y-78570080D01*
X152935606Y-78622741D01*
X153037339Y-78650000D01*
X153043553Y-78650000D01*
X152364526Y-79329025D01*
X152437513Y-79380132D01*
X152437521Y-79380136D01*
X152643668Y-79476264D01*
X152643682Y-79476269D01*
X152657695Y-79480024D01*
X152717356Y-79516389D01*
X152747885Y-79579236D01*
X152739590Y-79648612D01*
X152713283Y-79687480D01*
X150637584Y-81763181D01*
X150576261Y-81796666D01*
X150549903Y-81799500D01*
X150186669Y-81799500D01*
X150186653Y-81799499D01*
X150179057Y-81799499D01*
X150020943Y-81799499D01*
X149868215Y-81840423D01*
X149868214Y-81840423D01*
X149819212Y-81868715D01*
X149819211Y-81868715D01*
X149731290Y-81919475D01*
X149731282Y-81919481D01*
X149619478Y-82031286D01*
X149356465Y-82294298D01*
X149295142Y-82327783D01*
X149282669Y-82329837D01*
X149238385Y-82334827D01*
X149169563Y-82322773D01*
X149118183Y-82275424D01*
X149100500Y-82211607D01*
X149100500Y-80904461D01*
X149120185Y-80837422D01*
X149136814Y-80816785D01*
X151590453Y-78363146D01*
X151651772Y-78329664D01*
X151721464Y-78334648D01*
X151777397Y-78376520D01*
X151801658Y-78440021D01*
X151804858Y-78476600D01*
X151804860Y-78476610D01*
X151863730Y-78696317D01*
X151863735Y-78696331D01*
X151959863Y-78902478D01*
X152010974Y-78975472D01*
X152690000Y-78296446D01*
X152690000Y-78302661D01*
G37*
G04 #@! TD.AperFunction*
G04 #@! TA.AperFunction,Conductor*
G36*
X186299473Y-78030912D02*
G01*
X186314430Y-78043666D01*
X186363180Y-78092415D01*
X186396666Y-78153738D01*
X186399500Y-78180097D01*
X186399500Y-81199902D01*
X186379815Y-81266941D01*
X186363181Y-81287583D01*
X186311681Y-81339083D01*
X186250358Y-81372568D01*
X186180666Y-81367584D01*
X186124733Y-81325712D01*
X186100316Y-81260248D01*
X186100000Y-81251402D01*
X186100000Y-80960000D01*
X185183012Y-80960000D01*
X185215925Y-80902993D01*
X185250000Y-80775826D01*
X185250000Y-80644174D01*
X185215925Y-80517007D01*
X185183012Y-80460000D01*
X186100000Y-80460000D01*
X186100000Y-79812172D01*
X186099999Y-79812155D01*
X186093598Y-79752627D01*
X186093596Y-79752620D01*
X186043354Y-79617913D01*
X186043350Y-79617906D01*
X185957190Y-79502812D01*
X185957187Y-79502809D01*
X185842093Y-79416649D01*
X185842088Y-79416646D01*
X185710528Y-79367577D01*
X185654595Y-79325705D01*
X185630178Y-79260241D01*
X185645030Y-79191968D01*
X185666175Y-79163720D01*
X185788495Y-79041401D01*
X185924035Y-78847830D01*
X186023903Y-78633663D01*
X186085063Y-78405408D01*
X186105659Y-78170000D01*
X186103222Y-78142154D01*
X186116987Y-78073659D01*
X186165600Y-78023474D01*
X186233629Y-78007539D01*
X186299473Y-78030912D01*
G37*
G04 #@! TD.AperFunction*
G04 #@! TA.AperFunction,Conductor*
G36*
X159212537Y-70843576D02*
G01*
X159268470Y-70885448D01*
X159276204Y-70898337D01*
X159276721Y-70898039D01*
X159279430Y-70902731D01*
X159409954Y-71089141D01*
X159570858Y-71250045D01*
X159570861Y-71250047D01*
X159757266Y-71380568D01*
X159963504Y-71476739D01*
X160183308Y-71535635D01*
X160345230Y-71549801D01*
X160409998Y-71555468D01*
X160410000Y-71555468D01*
X160547643Y-71543425D01*
X160616140Y-71557191D01*
X160666323Y-71605806D01*
X160682257Y-71673835D01*
X160658882Y-71739678D01*
X160646129Y-71754634D01*
X154527480Y-77873283D01*
X154466157Y-77906768D01*
X154396465Y-77901784D01*
X154340532Y-77859912D01*
X154320024Y-77817695D01*
X154316269Y-77803682D01*
X154316264Y-77803668D01*
X154220136Y-77597521D01*
X154220132Y-77597513D01*
X154169025Y-77524526D01*
X153490000Y-78203552D01*
X153490000Y-78197339D01*
X153462741Y-78095606D01*
X153410080Y-78004394D01*
X153335606Y-77929920D01*
X153244394Y-77877259D01*
X153142661Y-77850000D01*
X153136446Y-77850000D01*
X153815472Y-77170974D01*
X153742478Y-77119863D01*
X153536331Y-77023735D01*
X153536317Y-77023730D01*
X153316610Y-76964860D01*
X153316600Y-76964858D01*
X153280021Y-76961658D01*
X153214953Y-76936205D01*
X153173975Y-76879613D01*
X153170098Y-76809851D01*
X153203146Y-76750453D01*
X159081524Y-70872075D01*
X159142845Y-70838592D01*
X159212537Y-70843576D01*
G37*
G04 #@! TD.AperFunction*
G04 #@! TA.AperFunction,Conductor*
G36*
X106750000Y-101516988D02*
G01*
X106692993Y-101484075D01*
X106565826Y-101450000D01*
X106434174Y-101450000D01*
X106307007Y-101484075D01*
X106250000Y-101516988D01*
X106250000Y-99843012D01*
X106307007Y-99875925D01*
X106434174Y-99910000D01*
X106565826Y-99910000D01*
X106692993Y-99875925D01*
X106750000Y-99843012D01*
X106750000Y-101516988D01*
G37*
G04 #@! TD.AperFunction*
G04 #@! TA.AperFunction,Conductor*
G36*
X106750000Y-98976988D02*
G01*
X106692993Y-98944075D01*
X106565826Y-98910000D01*
X106434174Y-98910000D01*
X106307007Y-98944075D01*
X106250000Y-98976988D01*
X106250000Y-97303012D01*
X106307007Y-97335925D01*
X106434174Y-97370000D01*
X106565826Y-97370000D01*
X106692993Y-97335925D01*
X106750000Y-97303012D01*
X106750000Y-98976988D01*
G37*
G04 #@! TD.AperFunction*
G04 #@! TA.AperFunction,Conductor*
G36*
X192692539Y-51770185D02*
G01*
X192738294Y-51822989D01*
X192749500Y-51874500D01*
X192749500Y-124875500D01*
X192729815Y-124942539D01*
X192677011Y-124988294D01*
X192625500Y-124999500D01*
X99874500Y-124999500D01*
X99807461Y-124979815D01*
X99761706Y-124927011D01*
X99750500Y-124875500D01*
X99750500Y-122643713D01*
X100649500Y-122643713D01*
X100649500Y-122856286D01*
X100682753Y-123066239D01*
X100748444Y-123268414D01*
X100844951Y-123457820D01*
X100969890Y-123629786D01*
X101120213Y-123780109D01*
X101292179Y-123905048D01*
X101292181Y-123905049D01*
X101292184Y-123905051D01*
X101481588Y-124001557D01*
X101683757Y-124067246D01*
X101893713Y-124100500D01*
X101893714Y-124100500D01*
X102106286Y-124100500D01*
X102106287Y-124100500D01*
X102316243Y-124067246D01*
X102518412Y-124001557D01*
X102707816Y-123905051D01*
X102729789Y-123889086D01*
X102879786Y-123780109D01*
X102879788Y-123780106D01*
X102879792Y-123780104D01*
X103030104Y-123629792D01*
X103030106Y-123629788D01*
X103030109Y-123629786D01*
X103155048Y-123457820D01*
X103155047Y-123457820D01*
X103155051Y-123457816D01*
X103251557Y-123268412D01*
X103317246Y-123066243D01*
X103350500Y-122856287D01*
X103350500Y-122643713D01*
X189149500Y-122643713D01*
X189149500Y-122856286D01*
X189182753Y-123066239D01*
X189248444Y-123268414D01*
X189344951Y-123457820D01*
X189469890Y-123629786D01*
X189620213Y-123780109D01*
X189792179Y-123905048D01*
X189792181Y-123905049D01*
X189792184Y-123905051D01*
X189981588Y-124001557D01*
X190183757Y-124067246D01*
X190393713Y-124100500D01*
X190393714Y-124100500D01*
X190606286Y-124100500D01*
X190606287Y-124100500D01*
X190816243Y-124067246D01*
X191018412Y-124001557D01*
X191207816Y-123905051D01*
X191229789Y-123889086D01*
X191379786Y-123780109D01*
X191379788Y-123780106D01*
X191379792Y-123780104D01*
X191530104Y-123629792D01*
X191530106Y-123629788D01*
X191530109Y-123629786D01*
X191655048Y-123457820D01*
X191655047Y-123457820D01*
X191655051Y-123457816D01*
X191751557Y-123268412D01*
X191817246Y-123066243D01*
X191850500Y-122856287D01*
X191850500Y-122643713D01*
X191817246Y-122433757D01*
X191751557Y-122231588D01*
X191655051Y-122042184D01*
X191655049Y-122042181D01*
X191655048Y-122042179D01*
X191530109Y-121870213D01*
X191379786Y-121719890D01*
X191207820Y-121594951D01*
X191018414Y-121498444D01*
X191018413Y-121498443D01*
X191018412Y-121498443D01*
X190816243Y-121432754D01*
X190816241Y-121432753D01*
X190816240Y-121432753D01*
X190654957Y-121407208D01*
X190606287Y-121399500D01*
X190393713Y-121399500D01*
X190345042Y-121407208D01*
X190183760Y-121432753D01*
X189981585Y-121498444D01*
X189792179Y-121594951D01*
X189620213Y-121719890D01*
X189469890Y-121870213D01*
X189344951Y-122042179D01*
X189248444Y-122231585D01*
X189182753Y-122433760D01*
X189149500Y-122643713D01*
X103350500Y-122643713D01*
X103317246Y-122433757D01*
X103251557Y-122231588D01*
X103155051Y-122042184D01*
X103155049Y-122042181D01*
X103155048Y-122042179D01*
X103030109Y-121870213D01*
X102879786Y-121719890D01*
X102707820Y-121594951D01*
X102518414Y-121498444D01*
X102518413Y-121498443D01*
X102518412Y-121498443D01*
X102316243Y-121432754D01*
X102316241Y-121432753D01*
X102316240Y-121432753D01*
X102154957Y-121407208D01*
X102106287Y-121399500D01*
X101893713Y-121399500D01*
X101845042Y-121407208D01*
X101683760Y-121432753D01*
X101481585Y-121498444D01*
X101292179Y-121594951D01*
X101120213Y-121719890D01*
X100969890Y-121870213D01*
X100844951Y-122042179D01*
X100748444Y-122231585D01*
X100682753Y-122433760D01*
X100649500Y-122643713D01*
X99750500Y-122643713D01*
X99750500Y-111749997D01*
X122945034Y-111749997D01*
X122945034Y-111750002D01*
X122964858Y-111976599D01*
X122964860Y-111976610D01*
X123023730Y-112196317D01*
X123023735Y-112196331D01*
X123119863Y-112402478D01*
X123170974Y-112475472D01*
X123850000Y-111796446D01*
X123850000Y-111802661D01*
X123877259Y-111904394D01*
X123929920Y-111995606D01*
X124004394Y-112070080D01*
X124095606Y-112122741D01*
X124197339Y-112150000D01*
X124203553Y-112150000D01*
X123524526Y-112829025D01*
X123597513Y-112880132D01*
X123597521Y-112880136D01*
X123803668Y-112976264D01*
X123803682Y-112976269D01*
X124023389Y-113035139D01*
X124023400Y-113035141D01*
X124249998Y-113054966D01*
X124250002Y-113054966D01*
X124476599Y-113035141D01*
X124476610Y-113035139D01*
X124696317Y-112976269D01*
X124696331Y-112976264D01*
X124902478Y-112880136D01*
X124975471Y-112829024D01*
X124296447Y-112150000D01*
X124302661Y-112150000D01*
X124404394Y-112122741D01*
X124495606Y-112070080D01*
X124570080Y-111995606D01*
X124622741Y-111904394D01*
X124650000Y-111802661D01*
X124650000Y-111796447D01*
X125329024Y-112475471D01*
X125380136Y-112402478D01*
X125476264Y-112196331D01*
X125476269Y-112196317D01*
X125535139Y-111976610D01*
X125535141Y-111976599D01*
X125554966Y-111750002D01*
X125554966Y-111749997D01*
X125535141Y-111523400D01*
X125535139Y-111523389D01*
X125476269Y-111303682D01*
X125476264Y-111303668D01*
X125380136Y-111097521D01*
X125380132Y-111097513D01*
X125329025Y-111024526D01*
X124650000Y-111703551D01*
X124650000Y-111697339D01*
X124622741Y-111595606D01*
X124570080Y-111504394D01*
X124495606Y-111429920D01*
X124404394Y-111377259D01*
X124302661Y-111350000D01*
X124296448Y-111350000D01*
X124975472Y-110670974D01*
X124902478Y-110619863D01*
X124696331Y-110523735D01*
X124696317Y-110523730D01*
X124476610Y-110464860D01*
X124476599Y-110464858D01*
X124250002Y-110445034D01*
X124249998Y-110445034D01*
X124023400Y-110464858D01*
X124023389Y-110464860D01*
X123803682Y-110523730D01*
X123803673Y-110523734D01*
X123597516Y-110619866D01*
X123597512Y-110619868D01*
X123524526Y-110670973D01*
X123524526Y-110670974D01*
X124203553Y-111350000D01*
X124197339Y-111350000D01*
X124095606Y-111377259D01*
X124004394Y-111429920D01*
X123929920Y-111504394D01*
X123877259Y-111595606D01*
X123850000Y-111697339D01*
X123850000Y-111703552D01*
X123170974Y-111024526D01*
X123170973Y-111024526D01*
X123119868Y-111097512D01*
X123119866Y-111097516D01*
X123023734Y-111303673D01*
X123023730Y-111303682D01*
X122964860Y-111523389D01*
X122964858Y-111523400D01*
X122945034Y-111749997D01*
X99750500Y-111749997D01*
X99750500Y-106749998D01*
X122944532Y-106749998D01*
X122944532Y-106750001D01*
X122964364Y-106976686D01*
X122964366Y-106976697D01*
X123023258Y-107196488D01*
X123023261Y-107196497D01*
X123119431Y-107402732D01*
X123119432Y-107402734D01*
X123249954Y-107589141D01*
X123410858Y-107750045D01*
X123410861Y-107750047D01*
X123597266Y-107880568D01*
X123803504Y-107976739D01*
X123803509Y-107976740D01*
X123803511Y-107976741D01*
X123838839Y-107986207D01*
X124023308Y-108035635D01*
X124185230Y-108049801D01*
X124249998Y-108055468D01*
X124250000Y-108055468D01*
X124250002Y-108055468D01*
X124306673Y-108050509D01*
X124476692Y-108035635D01*
X124696496Y-107976739D01*
X124902734Y-107880568D01*
X125089139Y-107750047D01*
X125250047Y-107589139D01*
X125380568Y-107402734D01*
X125476739Y-107196496D01*
X125535635Y-106976692D01*
X125555468Y-106750000D01*
X125535635Y-106523308D01*
X125488083Y-106345839D01*
X125476741Y-106303511D01*
X125476738Y-106303502D01*
X125380568Y-106097266D01*
X125272637Y-105943123D01*
X125250045Y-105910858D01*
X125089141Y-105749954D01*
X124902734Y-105619432D01*
X124902732Y-105619431D01*
X124696497Y-105523261D01*
X124696488Y-105523258D01*
X124476697Y-105464366D01*
X124476693Y-105464365D01*
X124476692Y-105464365D01*
X124476691Y-105464364D01*
X124476686Y-105464364D01*
X124250002Y-105444532D01*
X124249998Y-105444532D01*
X124023313Y-105464364D01*
X124023302Y-105464366D01*
X123803511Y-105523258D01*
X123803502Y-105523261D01*
X123597267Y-105619431D01*
X123597265Y-105619432D01*
X123410858Y-105749954D01*
X123249954Y-105910858D01*
X123119432Y-106097265D01*
X123119431Y-106097267D01*
X123023261Y-106303502D01*
X123023258Y-106303511D01*
X122964366Y-106523302D01*
X122964364Y-106523313D01*
X122944532Y-106749998D01*
X99750500Y-106749998D01*
X99750500Y-89249999D01*
X105144341Y-89249999D01*
X105144341Y-89250000D01*
X105164936Y-89485403D01*
X105164938Y-89485413D01*
X105226094Y-89713655D01*
X105226096Y-89713659D01*
X105226097Y-89713663D01*
X105325965Y-89927830D01*
X105325967Y-89927834D01*
X105461501Y-90121395D01*
X105461506Y-90121402D01*
X105628597Y-90288493D01*
X105628603Y-90288498D01*
X105814158Y-90418425D01*
X105857783Y-90473002D01*
X105864977Y-90542500D01*
X105833454Y-90604855D01*
X105814158Y-90621575D01*
X105628597Y-90751505D01*
X105461505Y-90918597D01*
X105325965Y-91112169D01*
X105325964Y-91112171D01*
X105226098Y-91326335D01*
X105226094Y-91326344D01*
X105164938Y-91554586D01*
X105164936Y-91554596D01*
X105144341Y-91789999D01*
X105144341Y-91790000D01*
X105164936Y-92025403D01*
X105164938Y-92025413D01*
X105226094Y-92253655D01*
X105226096Y-92253659D01*
X105226097Y-92253663D01*
X105299400Y-92410861D01*
X105325965Y-92467830D01*
X105325967Y-92467834D01*
X105461501Y-92661395D01*
X105461506Y-92661402D01*
X105628597Y-92828493D01*
X105628603Y-92828498D01*
X105814158Y-92958425D01*
X105857783Y-93013002D01*
X105864977Y-93082500D01*
X105833454Y-93144855D01*
X105814158Y-93161575D01*
X105628597Y-93291505D01*
X105461505Y-93458597D01*
X105325965Y-93652169D01*
X105325964Y-93652171D01*
X105226098Y-93866335D01*
X105226094Y-93866344D01*
X105164938Y-94094586D01*
X105164936Y-94094596D01*
X105144341Y-94329999D01*
X105144341Y-94330000D01*
X105164936Y-94565403D01*
X105164938Y-94565413D01*
X105226094Y-94793655D01*
X105226096Y-94793659D01*
X105226097Y-94793663D01*
X105322313Y-94999998D01*
X105325965Y-95007830D01*
X105325967Y-95007834D01*
X105434281Y-95162521D01*
X105456627Y-95194435D01*
X105461501Y-95201395D01*
X105461506Y-95201402D01*
X105628597Y-95368493D01*
X105628603Y-95368498D01*
X105668831Y-95396666D01*
X105809849Y-95495408D01*
X105814594Y-95498730D01*
X105858219Y-95553307D01*
X105865413Y-95622805D01*
X105833890Y-95685160D01*
X105814595Y-95701880D01*
X105628922Y-95831890D01*
X105628920Y-95831891D01*
X105461891Y-95998920D01*
X105461886Y-95998926D01*
X105326400Y-96192420D01*
X105326399Y-96192422D01*
X105226570Y-96406507D01*
X105226567Y-96406513D01*
X105169364Y-96619999D01*
X105169364Y-96620000D01*
X106066988Y-96620000D01*
X106034075Y-96677007D01*
X106000000Y-96804174D01*
X106000000Y-96935826D01*
X106034075Y-97062993D01*
X106066988Y-97120000D01*
X105169364Y-97120000D01*
X105226567Y-97333486D01*
X105226570Y-97333492D01*
X105326399Y-97547578D01*
X105461894Y-97741082D01*
X105628917Y-97908105D01*
X105815031Y-98038425D01*
X105858656Y-98093003D01*
X105865848Y-98162501D01*
X105834326Y-98224856D01*
X105815031Y-98241575D01*
X105628922Y-98371890D01*
X105628920Y-98371891D01*
X105461891Y-98538920D01*
X105461886Y-98538926D01*
X105326400Y-98732420D01*
X105326399Y-98732422D01*
X105226570Y-98946507D01*
X105226567Y-98946513D01*
X105169364Y-99159999D01*
X105169364Y-99160000D01*
X106066988Y-99160000D01*
X106034075Y-99217007D01*
X106000000Y-99344174D01*
X106000000Y-99475826D01*
X106034075Y-99602993D01*
X106066988Y-99660000D01*
X105169364Y-99660000D01*
X105226567Y-99873486D01*
X105226570Y-99873492D01*
X105326399Y-100087578D01*
X105461894Y-100281082D01*
X105584334Y-100403522D01*
X105617819Y-100464845D01*
X105612835Y-100534537D01*
X105570963Y-100590470D01*
X105539987Y-100607385D01*
X105407911Y-100656646D01*
X105407906Y-100656649D01*
X105292812Y-100742809D01*
X105292809Y-100742812D01*
X105206649Y-100857906D01*
X105206645Y-100857913D01*
X105156403Y-100992620D01*
X105156401Y-100992627D01*
X105150000Y-101052155D01*
X105150000Y-101700000D01*
X106066988Y-101700000D01*
X106034075Y-101757007D01*
X106000000Y-101884174D01*
X106000000Y-102015826D01*
X106034075Y-102142993D01*
X106066988Y-102200000D01*
X105150000Y-102200000D01*
X105150000Y-102847844D01*
X105156401Y-102907372D01*
X105156403Y-102907379D01*
X105206645Y-103042086D01*
X105206649Y-103042093D01*
X105292809Y-103157187D01*
X105292812Y-103157190D01*
X105407906Y-103243350D01*
X105407913Y-103243354D01*
X105542620Y-103293596D01*
X105542627Y-103293598D01*
X105602155Y-103299999D01*
X105602172Y-103300000D01*
X106250000Y-103300000D01*
X106250000Y-102383012D01*
X106307007Y-102415925D01*
X106434174Y-102450000D01*
X106565826Y-102450000D01*
X106692993Y-102415925D01*
X106750000Y-102383012D01*
X106750000Y-103300000D01*
X107397828Y-103300000D01*
X107397844Y-103299999D01*
X107457372Y-103293598D01*
X107457379Y-103293596D01*
X107592086Y-103243354D01*
X107592093Y-103243350D01*
X107707187Y-103157190D01*
X107707190Y-103157187D01*
X107793350Y-103042093D01*
X107793354Y-103042086D01*
X107843596Y-102907379D01*
X107843598Y-102907372D01*
X107849999Y-102847844D01*
X107850000Y-102847827D01*
X107850000Y-102200000D01*
X106933012Y-102200000D01*
X106965925Y-102142993D01*
X107000000Y-102015826D01*
X107000000Y-101884174D01*
X106965925Y-101757007D01*
X106933012Y-101700000D01*
X107850000Y-101700000D01*
X107850000Y-101052172D01*
X107849999Y-101052155D01*
X107843598Y-100992627D01*
X107843596Y-100992620D01*
X107793354Y-100857913D01*
X107793350Y-100857906D01*
X107707190Y-100742812D01*
X107707187Y-100742809D01*
X107592093Y-100656649D01*
X107592086Y-100656645D01*
X107460013Y-100607385D01*
X107404079Y-100565514D01*
X107379662Y-100500049D01*
X107394514Y-100431776D01*
X107415665Y-100403521D01*
X107538108Y-100281078D01*
X107673600Y-100087578D01*
X107773429Y-99873492D01*
X107773432Y-99873486D01*
X107830636Y-99660000D01*
X106933012Y-99660000D01*
X106965925Y-99602993D01*
X107000000Y-99475826D01*
X107000000Y-99344174D01*
X106965925Y-99217007D01*
X106933012Y-99160000D01*
X107830636Y-99160000D01*
X107830635Y-99159999D01*
X107773432Y-98946513D01*
X107773429Y-98946507D01*
X107673600Y-98732422D01*
X107673599Y-98732420D01*
X107538113Y-98538926D01*
X107538108Y-98538920D01*
X107371082Y-98371894D01*
X107184968Y-98241575D01*
X107141344Y-98186998D01*
X107134151Y-98117499D01*
X107165673Y-98055145D01*
X107184968Y-98038425D01*
X107371082Y-97908105D01*
X107538105Y-97741082D01*
X107673600Y-97547578D01*
X107773429Y-97333492D01*
X107773432Y-97333486D01*
X107830636Y-97120000D01*
X106933012Y-97120000D01*
X106965925Y-97062993D01*
X107000000Y-96935826D01*
X107000000Y-96804174D01*
X106965925Y-96677007D01*
X106933012Y-96620000D01*
X107830636Y-96620000D01*
X107830635Y-96619999D01*
X107773432Y-96406513D01*
X107773429Y-96406507D01*
X107673600Y-96192422D01*
X107673599Y-96192420D01*
X107538113Y-95998926D01*
X107538108Y-95998920D01*
X107371078Y-95831890D01*
X107185405Y-95701879D01*
X107141780Y-95647302D01*
X107134588Y-95577804D01*
X107166110Y-95515449D01*
X107185406Y-95498730D01*
X107190143Y-95495413D01*
X107371401Y-95368495D01*
X107538495Y-95201401D01*
X107674035Y-95007830D01*
X107773903Y-94793663D01*
X107835063Y-94565408D01*
X107855659Y-94330000D01*
X107835063Y-94094592D01*
X107773903Y-93866337D01*
X107674035Y-93652171D01*
X107662822Y-93636156D01*
X107538494Y-93458597D01*
X107371402Y-93291506D01*
X107371396Y-93291501D01*
X107312122Y-93249997D01*
X111945034Y-93249997D01*
X111945034Y-93250002D01*
X111964858Y-93476599D01*
X111964860Y-93476610D01*
X112023730Y-93696317D01*
X112023735Y-93696331D01*
X112119863Y-93902478D01*
X112170974Y-93975472D01*
X112850000Y-93296446D01*
X112850000Y-93302661D01*
X112877259Y-93404394D01*
X112929920Y-93495606D01*
X113004394Y-93570080D01*
X113095606Y-93622741D01*
X113197339Y-93650000D01*
X113203553Y-93650000D01*
X112524526Y-94329025D01*
X112597513Y-94380132D01*
X112597521Y-94380136D01*
X112803668Y-94476264D01*
X112803682Y-94476269D01*
X113023389Y-94535139D01*
X113023400Y-94535141D01*
X113249998Y-94554966D01*
X113250002Y-94554966D01*
X113476599Y-94535141D01*
X113476610Y-94535139D01*
X113696317Y-94476269D01*
X113696331Y-94476264D01*
X113902478Y-94380136D01*
X113975471Y-94329024D01*
X113296447Y-93650000D01*
X113302661Y-93650000D01*
X113404394Y-93622741D01*
X113495606Y-93570080D01*
X113570080Y-93495606D01*
X113622741Y-93404394D01*
X113650000Y-93302661D01*
X113650000Y-93296447D01*
X114329024Y-93975471D01*
X114380136Y-93902478D01*
X114476264Y-93696331D01*
X114476269Y-93696317D01*
X114535139Y-93476610D01*
X114535141Y-93476599D01*
X114554966Y-93250002D01*
X114554966Y-93249998D01*
X116944532Y-93249998D01*
X116944532Y-93250001D01*
X116964364Y-93476686D01*
X116964366Y-93476697D01*
X117023258Y-93696488D01*
X117023261Y-93696497D01*
X117119431Y-93902732D01*
X117119432Y-93902734D01*
X117249954Y-94089141D01*
X117410858Y-94250045D01*
X117410861Y-94250047D01*
X117597266Y-94380568D01*
X117803504Y-94476739D01*
X118023308Y-94535635D01*
X118185230Y-94549801D01*
X118249998Y-94555468D01*
X118250000Y-94555468D01*
X118250002Y-94555468D01*
X118306673Y-94550509D01*
X118476692Y-94535635D01*
X118696496Y-94476739D01*
X118902734Y-94380568D01*
X119089139Y-94250047D01*
X119250047Y-94089139D01*
X119380118Y-93903375D01*
X119434693Y-93859752D01*
X119481692Y-93850500D01*
X124910951Y-93850500D01*
X124977990Y-93870185D01*
X125023745Y-93922989D01*
X125033689Y-93992147D01*
X125004664Y-94055703D01*
X124998632Y-94062181D01*
X124899954Y-94160858D01*
X124769432Y-94347265D01*
X124769431Y-94347267D01*
X124673261Y-94553502D01*
X124673258Y-94553511D01*
X124614366Y-94773302D01*
X124614364Y-94773313D01*
X124594532Y-94999998D01*
X124594532Y-95000001D01*
X124614364Y-95226686D01*
X124614366Y-95226697D01*
X124673258Y-95446488D01*
X124673261Y-95446497D01*
X124769431Y-95652732D01*
X124769432Y-95652734D01*
X124899954Y-95839141D01*
X125060858Y-96000045D01*
X125060861Y-96000047D01*
X125246624Y-96130118D01*
X125290248Y-96184693D01*
X125299500Y-96231692D01*
X125299500Y-103063330D01*
X125299499Y-103063348D01*
X125299499Y-103229054D01*
X125299498Y-103229054D01*
X125340423Y-103381785D01*
X125369358Y-103431900D01*
X125369359Y-103431904D01*
X125369360Y-103431904D01*
X125419479Y-103518714D01*
X125419481Y-103518717D01*
X125538349Y-103637585D01*
X125538355Y-103637590D01*
X135573181Y-113672416D01*
X135606666Y-113733739D01*
X135609500Y-113760097D01*
X135609500Y-115453330D01*
X135609499Y-115453348D01*
X135609499Y-115629046D01*
X135609500Y-115629059D01*
X135609500Y-117775500D01*
X135589815Y-117842539D01*
X135537011Y-117888294D01*
X135485501Y-117899500D01*
X135312130Y-117899500D01*
X135312123Y-117899501D01*
X135252516Y-117905908D01*
X135117671Y-117956202D01*
X135117664Y-117956206D01*
X135002455Y-118042452D01*
X135002452Y-118042455D01*
X134916206Y-118157664D01*
X134916202Y-118157671D01*
X134865908Y-118292517D01*
X134859501Y-118352116D01*
X134859500Y-118352135D01*
X134859500Y-120147870D01*
X134859501Y-120147876D01*
X134865908Y-120207483D01*
X134916202Y-120342328D01*
X134916206Y-120342335D01*
X135002452Y-120457544D01*
X135002455Y-120457547D01*
X135117664Y-120543793D01*
X135117671Y-120543797D01*
X135252517Y-120594091D01*
X135252516Y-120594091D01*
X135259444Y-120594835D01*
X135312127Y-120600500D01*
X137107872Y-120600499D01*
X137167483Y-120594091D01*
X137302331Y-120543796D01*
X137417546Y-120457546D01*
X137503796Y-120342331D01*
X137552810Y-120210916D01*
X137594681Y-120154984D01*
X137660145Y-120130566D01*
X137728418Y-120145417D01*
X137756673Y-120166569D01*
X137878599Y-120288495D01*
X137975384Y-120356265D01*
X138072165Y-120424032D01*
X138072167Y-120424033D01*
X138072170Y-120424035D01*
X138286337Y-120523903D01*
X138514592Y-120585063D01*
X138691034Y-120600500D01*
X138749999Y-120605659D01*
X138750000Y-120605659D01*
X138750001Y-120605659D01*
X138808966Y-120600500D01*
X138985408Y-120585063D01*
X139213663Y-120523903D01*
X139427830Y-120424035D01*
X139621401Y-120288495D01*
X139788495Y-120121401D01*
X139918730Y-119935405D01*
X139973307Y-119891781D01*
X140042805Y-119884587D01*
X140105160Y-119916110D01*
X140121879Y-119935405D01*
X140251890Y-120121078D01*
X140418917Y-120288105D01*
X140612421Y-120423600D01*
X140826507Y-120523429D01*
X140826516Y-120523433D01*
X141040000Y-120580634D01*
X141040000Y-119683012D01*
X141097007Y-119715925D01*
X141224174Y-119750000D01*
X141355826Y-119750000D01*
X141482993Y-119715925D01*
X141540000Y-119683012D01*
X141540000Y-120580633D01*
X141753483Y-120523433D01*
X141753492Y-120523429D01*
X141967578Y-120423600D01*
X142161082Y-120288105D01*
X142328105Y-120121082D01*
X142463600Y-119927578D01*
X142563429Y-119713492D01*
X142563432Y-119713486D01*
X142620636Y-119500000D01*
X141723012Y-119500000D01*
X141755925Y-119442993D01*
X141790000Y-119315826D01*
X141790000Y-119184174D01*
X141755925Y-119057007D01*
X141723012Y-119000000D01*
X142620636Y-119000000D01*
X142620635Y-118999999D01*
X142563432Y-118786513D01*
X142563429Y-118786507D01*
X142463600Y-118572422D01*
X142463599Y-118572420D01*
X142328113Y-118378926D01*
X142328108Y-118378920D01*
X142161082Y-118211894D01*
X141967578Y-118076399D01*
X141753492Y-117976570D01*
X141753486Y-117976567D01*
X141540000Y-117919364D01*
X141540000Y-118816988D01*
X141482993Y-118784075D01*
X141355826Y-118750000D01*
X141224174Y-118750000D01*
X141097007Y-118784075D01*
X141040000Y-118816988D01*
X141040000Y-117919364D01*
X141039999Y-117919364D01*
X140826513Y-117976567D01*
X140826507Y-117976570D01*
X140612422Y-118076399D01*
X140612420Y-118076400D01*
X140418926Y-118211886D01*
X140418920Y-118211891D01*
X140251891Y-118378920D01*
X140251890Y-118378922D01*
X140121880Y-118564595D01*
X140067303Y-118608219D01*
X139997804Y-118615412D01*
X139935450Y-118583890D01*
X139918730Y-118564594D01*
X139788494Y-118378597D01*
X139621402Y-118211506D01*
X139621395Y-118211501D01*
X139427834Y-118075967D01*
X139427830Y-118075965D01*
X139427828Y-118075964D01*
X139213663Y-117976097D01*
X139213659Y-117976096D01*
X139213655Y-117976094D01*
X138985413Y-117914938D01*
X138985403Y-117914936D01*
X138750001Y-117894341D01*
X138749999Y-117894341D01*
X138514596Y-117914936D01*
X138514586Y-117914938D01*
X138286344Y-117976094D01*
X138286335Y-117976098D01*
X138072171Y-118075964D01*
X138072169Y-118075965D01*
X137878600Y-118211503D01*
X137756673Y-118333430D01*
X137695350Y-118366914D01*
X137625658Y-118361930D01*
X137569725Y-118320058D01*
X137552810Y-118289081D01*
X137503797Y-118157671D01*
X137503793Y-118157664D01*
X137417547Y-118042455D01*
X137417544Y-118042452D01*
X137302335Y-117956206D01*
X137302328Y-117956202D01*
X137167482Y-117905908D01*
X137167483Y-117905908D01*
X137107883Y-117899501D01*
X137107881Y-117899500D01*
X137107873Y-117899500D01*
X137107865Y-117899500D01*
X136934500Y-117899500D01*
X136867461Y-117879815D01*
X136821706Y-117827011D01*
X136810500Y-117775500D01*
X136810500Y-115974500D01*
X136830185Y-115907461D01*
X136882989Y-115861706D01*
X136934500Y-115850500D01*
X162829055Y-115850500D01*
X162829057Y-115850500D01*
X162981784Y-115809577D01*
X163118716Y-115730520D01*
X163230520Y-115618716D01*
X163309577Y-115481784D01*
X163350500Y-115329057D01*
X163350500Y-112124499D01*
X163370185Y-112057460D01*
X163422989Y-112011705D01*
X163474500Y-112000499D01*
X164297871Y-112000499D01*
X164297872Y-112000499D01*
X164357483Y-111994091D01*
X164492331Y-111943796D01*
X164607546Y-111857546D01*
X164693796Y-111742331D01*
X164744091Y-111607483D01*
X164750500Y-111547873D01*
X164750499Y-108452128D01*
X164744091Y-108392517D01*
X164714506Y-108313196D01*
X164693797Y-108257671D01*
X164693793Y-108257664D01*
X164607547Y-108142455D01*
X164607544Y-108142452D01*
X164492335Y-108056206D01*
X164492328Y-108056202D01*
X164357482Y-108005908D01*
X164357483Y-108005908D01*
X164297883Y-107999501D01*
X164297881Y-107999500D01*
X164297873Y-107999500D01*
X164297864Y-107999500D01*
X161202129Y-107999500D01*
X161202123Y-107999501D01*
X161142516Y-108005908D01*
X161007671Y-108056202D01*
X161007664Y-108056206D01*
X160892455Y-108142452D01*
X160892452Y-108142455D01*
X160806206Y-108257664D01*
X160806202Y-108257671D01*
X160755908Y-108392517D01*
X160749501Y-108452116D01*
X160749501Y-108452123D01*
X160749500Y-108452135D01*
X160749500Y-111547870D01*
X160749501Y-111547876D01*
X160755908Y-111607483D01*
X160806202Y-111742328D01*
X160806206Y-111742335D01*
X160892452Y-111857544D01*
X160892455Y-111857547D01*
X161007664Y-111943793D01*
X161007671Y-111943797D01*
X161142517Y-111994091D01*
X161142516Y-111994091D01*
X161149444Y-111994835D01*
X161202127Y-112000500D01*
X162025500Y-112000499D01*
X162092539Y-112020183D01*
X162138294Y-112072987D01*
X162149500Y-112124499D01*
X162149500Y-114525500D01*
X162129815Y-114592539D01*
X162077011Y-114638294D01*
X162025500Y-114649500D01*
X136934500Y-114649500D01*
X136867461Y-114629815D01*
X136821706Y-114577011D01*
X136810500Y-114525500D01*
X136810500Y-113549059D01*
X136810501Y-113549046D01*
X136810501Y-113380945D01*
X136810501Y-113380943D01*
X136769577Y-113228215D01*
X136740639Y-113178095D01*
X136690520Y-113091284D01*
X136578716Y-112979480D01*
X136578715Y-112979479D01*
X136574385Y-112975149D01*
X136574374Y-112975139D01*
X131724160Y-108124925D01*
X131690675Y-108063602D01*
X131695659Y-107993910D01*
X131737531Y-107937977D01*
X131759432Y-107924864D01*
X131947639Y-107837102D01*
X132126877Y-107711598D01*
X132281598Y-107556877D01*
X132407102Y-107377639D01*
X132499575Y-107179330D01*
X132556207Y-106967977D01*
X132575277Y-106750000D01*
X132575277Y-106749997D01*
X134944723Y-106749997D01*
X134944723Y-106750002D01*
X134963793Y-106967975D01*
X134963793Y-106967979D01*
X135020422Y-107179322D01*
X135020424Y-107179326D01*
X135020425Y-107179330D01*
X135066661Y-107278484D01*
X135112897Y-107377638D01*
X135112898Y-107377639D01*
X135238402Y-107556877D01*
X135393123Y-107711598D01*
X135572361Y-107837102D01*
X135770670Y-107929575D01*
X135982023Y-107986207D01*
X136164926Y-108002208D01*
X136199998Y-108005277D01*
X136200000Y-108005277D01*
X136200002Y-108005277D01*
X136228254Y-108002805D01*
X136417977Y-107986207D01*
X136629330Y-107929575D01*
X136827639Y-107837102D01*
X137006877Y-107711598D01*
X137161598Y-107556877D01*
X137287102Y-107377639D01*
X137379575Y-107179330D01*
X137436207Y-106967977D01*
X137455277Y-106750000D01*
X137436207Y-106532023D01*
X137379575Y-106320670D01*
X137287102Y-106122362D01*
X137287100Y-106122359D01*
X137287099Y-106122357D01*
X137161599Y-105943124D01*
X137129333Y-105910858D01*
X137006877Y-105788402D01*
X136827639Y-105662898D01*
X136827640Y-105662898D01*
X136827638Y-105662897D01*
X136728484Y-105616661D01*
X136629330Y-105570425D01*
X136629326Y-105570424D01*
X136629322Y-105570422D01*
X136417977Y-105513793D01*
X136200002Y-105494723D01*
X136199998Y-105494723D01*
X136054682Y-105507436D01*
X135982023Y-105513793D01*
X135982020Y-105513793D01*
X135770677Y-105570422D01*
X135770668Y-105570426D01*
X135572361Y-105662898D01*
X135572357Y-105662900D01*
X135393121Y-105788402D01*
X135238402Y-105943121D01*
X135112900Y-106122357D01*
X135112898Y-106122361D01*
X135020426Y-106320668D01*
X135020422Y-106320677D01*
X134963793Y-106532020D01*
X134963793Y-106532024D01*
X134944723Y-106749997D01*
X132575277Y-106749997D01*
X132556207Y-106532023D01*
X132499575Y-106320670D01*
X132407102Y-106122362D01*
X132407100Y-106122359D01*
X132407099Y-106122357D01*
X132281599Y-105943124D01*
X132249333Y-105910858D01*
X132126877Y-105788402D01*
X131947639Y-105662898D01*
X131947640Y-105662898D01*
X131947638Y-105662897D01*
X131848484Y-105616661D01*
X131749330Y-105570425D01*
X131749326Y-105570424D01*
X131749322Y-105570422D01*
X131537977Y-105513793D01*
X131320002Y-105494723D01*
X131319998Y-105494723D01*
X131174682Y-105507436D01*
X131102023Y-105513793D01*
X131102020Y-105513793D01*
X130890677Y-105570422D01*
X130890668Y-105570426D01*
X130692361Y-105662898D01*
X130692357Y-105662900D01*
X130513121Y-105788402D01*
X130358402Y-105943121D01*
X130232900Y-106122357D01*
X130232898Y-106122362D01*
X130145137Y-106310563D01*
X130098964Y-106363002D01*
X130031770Y-106382154D01*
X129964889Y-106361938D01*
X129945074Y-106345839D01*
X126536819Y-102937584D01*
X126503334Y-102876261D01*
X126500500Y-102849903D01*
X126500500Y-96231692D01*
X126520185Y-96164653D01*
X126553374Y-96130119D01*
X126739139Y-96000047D01*
X126900047Y-95839139D01*
X127030568Y-95652734D01*
X127126739Y-95446496D01*
X127185635Y-95226692D01*
X127205468Y-95000000D01*
X127185635Y-94773308D01*
X127126739Y-94553504D01*
X127030568Y-94347266D01*
X126900047Y-94160861D01*
X126900045Y-94160858D01*
X126801368Y-94062181D01*
X126767883Y-94000858D01*
X126772867Y-93931166D01*
X126814739Y-93875233D01*
X126880203Y-93850816D01*
X126889049Y-93850500D01*
X136549903Y-93850500D01*
X136616942Y-93870185D01*
X136637584Y-93886819D01*
X137308058Y-94557293D01*
X137341543Y-94618616D01*
X137340152Y-94677067D01*
X137314366Y-94773302D01*
X137314364Y-94773313D01*
X137294532Y-94999998D01*
X137294532Y-95000001D01*
X137314364Y-95226686D01*
X137314366Y-95226697D01*
X137373258Y-95446488D01*
X137373261Y-95446497D01*
X137469431Y-95652732D01*
X137469432Y-95652734D01*
X137599954Y-95839141D01*
X137760858Y-96000045D01*
X137760861Y-96000047D01*
X137947266Y-96130568D01*
X138079714Y-96192329D01*
X138132152Y-96238501D01*
X138151304Y-96305695D01*
X138150247Y-96320897D01*
X138149499Y-96326578D01*
X138149499Y-96494681D01*
X138149500Y-96494694D01*
X138149500Y-111667587D01*
X138129815Y-111734626D01*
X138122450Y-111744896D01*
X138120186Y-111747734D01*
X138024211Y-111900476D01*
X137964631Y-112070745D01*
X137964630Y-112070750D01*
X137944435Y-112249996D01*
X137944435Y-112250003D01*
X137964630Y-112429249D01*
X137964631Y-112429254D01*
X138024211Y-112599523D01*
X138120184Y-112752262D01*
X138247738Y-112879816D01*
X138338080Y-112936582D01*
X138399443Y-112975139D01*
X138400478Y-112975789D01*
X138570091Y-113035139D01*
X138570745Y-113035368D01*
X138570750Y-113035369D01*
X138749996Y-113055565D01*
X138750000Y-113055565D01*
X138750004Y-113055565D01*
X138929249Y-113035369D01*
X138929252Y-113035368D01*
X138929255Y-113035368D01*
X139099522Y-112975789D01*
X139252262Y-112879816D01*
X139379816Y-112752262D01*
X139475789Y-112599522D01*
X139535368Y-112429255D01*
X139555565Y-112250000D01*
X139549516Y-112196317D01*
X139535369Y-112070750D01*
X139535368Y-112070745D01*
X139510788Y-112000499D01*
X139475789Y-111900478D01*
X139381235Y-111749997D01*
X140945034Y-111749997D01*
X140945034Y-111750002D01*
X140964858Y-111976599D01*
X140964860Y-111976610D01*
X141023730Y-112196317D01*
X141023735Y-112196331D01*
X141119863Y-112402478D01*
X141170974Y-112475472D01*
X141850000Y-111796446D01*
X141850000Y-111802661D01*
X141877259Y-111904394D01*
X141929920Y-111995606D01*
X142004394Y-112070080D01*
X142095606Y-112122741D01*
X142197339Y-112150000D01*
X142203553Y-112150000D01*
X141524526Y-112829025D01*
X141597513Y-112880132D01*
X141597521Y-112880136D01*
X141803668Y-112976264D01*
X141803682Y-112976269D01*
X142023389Y-113035139D01*
X142023400Y-113035141D01*
X142249998Y-113054966D01*
X142250002Y-113054966D01*
X142476599Y-113035141D01*
X142476610Y-113035139D01*
X142696317Y-112976269D01*
X142696331Y-112976264D01*
X142902478Y-112880136D01*
X142975471Y-112829024D01*
X142296447Y-112150000D01*
X142302661Y-112150000D01*
X142404394Y-112122741D01*
X142495606Y-112070080D01*
X142570080Y-111995606D01*
X142622741Y-111904394D01*
X142650000Y-111802661D01*
X142650000Y-111796447D01*
X143329024Y-112475471D01*
X143380136Y-112402478D01*
X143476264Y-112196331D01*
X143476269Y-112196317D01*
X143535139Y-111976610D01*
X143535141Y-111976599D01*
X143554966Y-111750002D01*
X143554966Y-111749997D01*
X143535141Y-111523400D01*
X143535139Y-111523389D01*
X143476269Y-111303682D01*
X143476264Y-111303668D01*
X143380136Y-111097521D01*
X143380132Y-111097513D01*
X143329025Y-111024526D01*
X142650000Y-111703551D01*
X142650000Y-111697339D01*
X142622741Y-111595606D01*
X142570080Y-111504394D01*
X142495606Y-111429920D01*
X142404394Y-111377259D01*
X142302661Y-111350000D01*
X142296448Y-111350000D01*
X142975472Y-110670974D01*
X142902478Y-110619863D01*
X142696331Y-110523735D01*
X142696317Y-110523730D01*
X142476610Y-110464860D01*
X142476599Y-110464858D01*
X142250002Y-110445034D01*
X142249998Y-110445034D01*
X142023400Y-110464858D01*
X142023389Y-110464860D01*
X141803682Y-110523730D01*
X141803673Y-110523734D01*
X141597516Y-110619866D01*
X141597512Y-110619868D01*
X141524526Y-110670973D01*
X141524526Y-110670974D01*
X142203553Y-111350000D01*
X142197339Y-111350000D01*
X142095606Y-111377259D01*
X142004394Y-111429920D01*
X141929920Y-111504394D01*
X141877259Y-111595606D01*
X141850000Y-111697339D01*
X141850000Y-111703552D01*
X141170974Y-111024526D01*
X141170973Y-111024526D01*
X141119868Y-111097512D01*
X141119866Y-111097516D01*
X141023734Y-111303673D01*
X141023730Y-111303682D01*
X140964860Y-111523389D01*
X140964858Y-111523400D01*
X140945034Y-111749997D01*
X139381235Y-111749997D01*
X139379816Y-111747738D01*
X139379814Y-111747736D01*
X139379813Y-111747734D01*
X139377550Y-111744896D01*
X139376659Y-111742715D01*
X139376111Y-111741842D01*
X139376264Y-111741745D01*
X139351144Y-111680209D01*
X139350500Y-111667587D01*
X139350500Y-106749998D01*
X140944532Y-106749998D01*
X140944532Y-106750001D01*
X140964364Y-106976686D01*
X140964366Y-106976697D01*
X141023258Y-107196488D01*
X141023261Y-107196497D01*
X141119431Y-107402732D01*
X141119432Y-107402734D01*
X141249954Y-107589141D01*
X141410858Y-107750045D01*
X141410861Y-107750047D01*
X141597266Y-107880568D01*
X141803504Y-107976739D01*
X141803509Y-107976740D01*
X141803511Y-107976741D01*
X141838839Y-107986207D01*
X142023308Y-108035635D01*
X142185230Y-108049801D01*
X142249998Y-108055468D01*
X142250000Y-108055468D01*
X142250002Y-108055468D01*
X142306673Y-108050509D01*
X142476692Y-108035635D01*
X142696496Y-107976739D01*
X142902734Y-107880568D01*
X143089139Y-107750047D01*
X143250047Y-107589139D01*
X143380568Y-107402734D01*
X143476739Y-107196496D01*
X143535635Y-106976692D01*
X143555468Y-106750000D01*
X143535635Y-106523308D01*
X143488083Y-106345839D01*
X143476741Y-106303511D01*
X143476738Y-106303502D01*
X143380568Y-106097266D01*
X143272637Y-105943123D01*
X143250045Y-105910858D01*
X143089141Y-105749954D01*
X142902734Y-105619432D01*
X142902732Y-105619431D01*
X142696497Y-105523261D01*
X142696488Y-105523258D01*
X142476697Y-105464366D01*
X142476693Y-105464365D01*
X142476692Y-105464365D01*
X142476691Y-105464364D01*
X142476686Y-105464364D01*
X142250002Y-105444532D01*
X142249998Y-105444532D01*
X142023313Y-105464364D01*
X142023302Y-105464366D01*
X141803511Y-105523258D01*
X141803502Y-105523261D01*
X141597267Y-105619431D01*
X141597265Y-105619432D01*
X141410858Y-105749954D01*
X141249954Y-105910858D01*
X141119432Y-106097265D01*
X141119431Y-106097267D01*
X141023261Y-106303502D01*
X141023258Y-106303511D01*
X140964366Y-106523302D01*
X140964364Y-106523313D01*
X140944532Y-106749998D01*
X139350500Y-106749998D01*
X139350500Y-96705731D01*
X139370185Y-96638692D01*
X139386814Y-96618055D01*
X142368713Y-93636156D01*
X142368716Y-93636155D01*
X142480520Y-93524351D01*
X142530639Y-93437539D01*
X142559577Y-93387420D01*
X142600500Y-93234692D01*
X142600500Y-93082412D01*
X142620185Y-93015373D01*
X142627555Y-93005097D01*
X142629810Y-93002267D01*
X142629816Y-93002262D01*
X142725789Y-92849522D01*
X142785368Y-92679255D01*
X142787380Y-92661401D01*
X142805565Y-92500003D01*
X142805565Y-92499996D01*
X142785369Y-92320750D01*
X142785368Y-92320745D01*
X142732961Y-92170974D01*
X142725789Y-92150478D01*
X142706555Y-92119868D01*
X142629815Y-91997737D01*
X142502262Y-91870184D01*
X142349523Y-91774211D01*
X142179254Y-91714631D01*
X142179249Y-91714630D01*
X142000004Y-91694435D01*
X141999996Y-91694435D01*
X141820750Y-91714630D01*
X141820745Y-91714631D01*
X141650476Y-91774211D01*
X141497737Y-91870184D01*
X141370184Y-91997737D01*
X141274211Y-92150476D01*
X141214631Y-92320745D01*
X141214630Y-92320750D01*
X141194435Y-92499996D01*
X141194435Y-92500003D01*
X141214630Y-92679249D01*
X141214631Y-92679254D01*
X141274211Y-92849524D01*
X141292086Y-92877970D01*
X141311087Y-92945206D01*
X141290720Y-93012042D01*
X141274774Y-93031624D01*
X139928476Y-94377922D01*
X139867153Y-94411407D01*
X139797461Y-94406423D01*
X139741528Y-94364551D01*
X139733811Y-94351647D01*
X139733276Y-94351957D01*
X139730567Y-94347265D01*
X139718477Y-94329999D01*
X139600047Y-94160861D01*
X139600045Y-94160858D01*
X139439141Y-93999954D01*
X139252734Y-93869432D01*
X139252732Y-93869431D01*
X139046497Y-93773261D01*
X139046488Y-93773258D01*
X138826697Y-93714366D01*
X138826693Y-93714365D01*
X138826692Y-93714365D01*
X138826691Y-93714364D01*
X138826686Y-93714364D01*
X138600002Y-93694532D01*
X138599998Y-93694532D01*
X138373313Y-93714364D01*
X138373302Y-93714366D01*
X138277067Y-93740152D01*
X138207217Y-93738489D01*
X138157293Y-93708058D01*
X137337590Y-92888355D01*
X137337588Y-92888352D01*
X137218717Y-92769481D01*
X137218716Y-92769480D01*
X137131904Y-92719360D01*
X137131904Y-92719359D01*
X137131900Y-92719358D01*
X137081785Y-92690423D01*
X136929057Y-92649499D01*
X136770943Y-92649499D01*
X136763347Y-92649499D01*
X136763331Y-92649500D01*
X119481692Y-92649500D01*
X119414653Y-92629815D01*
X119380119Y-92596625D01*
X119250047Y-92410861D01*
X119250045Y-92410858D01*
X119089141Y-92249954D01*
X118902734Y-92119432D01*
X118902732Y-92119431D01*
X118696497Y-92023261D01*
X118696488Y-92023258D01*
X118476697Y-91964366D01*
X118476693Y-91964365D01*
X118476692Y-91964365D01*
X118476691Y-91964364D01*
X118476686Y-91964364D01*
X118250002Y-91944532D01*
X118249998Y-91944532D01*
X118023313Y-91964364D01*
X118023302Y-91964366D01*
X117803511Y-92023258D01*
X117803502Y-92023261D01*
X117597267Y-92119431D01*
X117597265Y-92119432D01*
X117410858Y-92249954D01*
X117249954Y-92410858D01*
X117119432Y-92597265D01*
X117119431Y-92597267D01*
X117023261Y-92803502D01*
X117023258Y-92803511D01*
X116964366Y-93023302D01*
X116964364Y-93023313D01*
X116944532Y-93249998D01*
X114554966Y-93249998D01*
X114554966Y-93249997D01*
X114535141Y-93023400D01*
X114535139Y-93023389D01*
X114476269Y-92803682D01*
X114476264Y-92803668D01*
X114380136Y-92597521D01*
X114380132Y-92597513D01*
X114329025Y-92524526D01*
X113650000Y-93203551D01*
X113650000Y-93197339D01*
X113622741Y-93095606D01*
X113570080Y-93004394D01*
X113495606Y-92929920D01*
X113404394Y-92877259D01*
X113302661Y-92850000D01*
X113296448Y-92850000D01*
X113975472Y-92170974D01*
X113902478Y-92119863D01*
X113696331Y-92023735D01*
X113696317Y-92023730D01*
X113476610Y-91964860D01*
X113476599Y-91964858D01*
X113250002Y-91945034D01*
X113249998Y-91945034D01*
X113023400Y-91964858D01*
X113023389Y-91964860D01*
X112803682Y-92023730D01*
X112803673Y-92023734D01*
X112597516Y-92119866D01*
X112597512Y-92119868D01*
X112524526Y-92170973D01*
X112524526Y-92170974D01*
X113203553Y-92850000D01*
X113197339Y-92850000D01*
X113095606Y-92877259D01*
X113004394Y-92929920D01*
X112929920Y-93004394D01*
X112877259Y-93095606D01*
X112850000Y-93197339D01*
X112850000Y-93203552D01*
X112170974Y-92524526D01*
X112170973Y-92524526D01*
X112119868Y-92597512D01*
X112119866Y-92597516D01*
X112023734Y-92803673D01*
X112023730Y-92803682D01*
X111964860Y-93023389D01*
X111964858Y-93023400D01*
X111945034Y-93249997D01*
X107312122Y-93249997D01*
X107185842Y-93161575D01*
X107142217Y-93106998D01*
X107135023Y-93037500D01*
X107166546Y-92975145D01*
X107185842Y-92958425D01*
X107226551Y-92929920D01*
X107371401Y-92828495D01*
X107538495Y-92661401D01*
X107674035Y-92467830D01*
X107773903Y-92253663D01*
X107835063Y-92025408D01*
X107855659Y-91790000D01*
X107835063Y-91554592D01*
X107773903Y-91326337D01*
X107674035Y-91112171D01*
X107631485Y-91051402D01*
X107538494Y-90918597D01*
X107371402Y-90751506D01*
X107371396Y-90751501D01*
X107185842Y-90621575D01*
X107142217Y-90566998D01*
X107135023Y-90497500D01*
X107166546Y-90435145D01*
X107185842Y-90418425D01*
X107208026Y-90402891D01*
X107371401Y-90288495D01*
X107538495Y-90121401D01*
X107674035Y-89927830D01*
X107773903Y-89713663D01*
X107835063Y-89485408D01*
X107855659Y-89250000D01*
X107835063Y-89014592D01*
X107773903Y-88786337D01*
X107674035Y-88572171D01*
X107538495Y-88378599D01*
X107538494Y-88378597D01*
X107371402Y-88211506D01*
X107371395Y-88211501D01*
X107177834Y-88075967D01*
X107177830Y-88075965D01*
X107097482Y-88038498D01*
X106963663Y-87976097D01*
X106963659Y-87976096D01*
X106963655Y-87976094D01*
X106735413Y-87914938D01*
X106735403Y-87914936D01*
X106500001Y-87894341D01*
X106499999Y-87894341D01*
X106264596Y-87914936D01*
X106264586Y-87914938D01*
X106036344Y-87976094D01*
X106036335Y-87976098D01*
X105822171Y-88075964D01*
X105822169Y-88075965D01*
X105628597Y-88211505D01*
X105461505Y-88378597D01*
X105325965Y-88572169D01*
X105325964Y-88572171D01*
X105226098Y-88786335D01*
X105226094Y-88786344D01*
X105164938Y-89014586D01*
X105164936Y-89014596D01*
X105144341Y-89249999D01*
X99750500Y-89249999D01*
X99750500Y-84999998D01*
X135944532Y-84999998D01*
X135944532Y-85000001D01*
X135964364Y-85226686D01*
X135964366Y-85226697D01*
X136023258Y-85446488D01*
X136023261Y-85446497D01*
X136119431Y-85652732D01*
X136119432Y-85652734D01*
X136249954Y-85839141D01*
X136410858Y-86000045D01*
X136410861Y-86000047D01*
X136597266Y-86130568D01*
X136803504Y-86226739D01*
X137023308Y-86285635D01*
X137185230Y-86299801D01*
X137249998Y-86305468D01*
X137250000Y-86305468D01*
X137250002Y-86305468D01*
X137306673Y-86300509D01*
X137476692Y-86285635D01*
X137696496Y-86226739D01*
X137902734Y-86130568D01*
X138089139Y-86000047D01*
X138250047Y-85839139D01*
X138380118Y-85653375D01*
X138434693Y-85609752D01*
X138481692Y-85600500D01*
X139793331Y-85600500D01*
X139793347Y-85600501D01*
X139800943Y-85600501D01*
X139959054Y-85600501D01*
X139959057Y-85600501D01*
X140111785Y-85559577D01*
X140161904Y-85530639D01*
X140248716Y-85480520D01*
X140360520Y-85368716D01*
X140360520Y-85368714D01*
X140370728Y-85358507D01*
X140370729Y-85358504D01*
X166146470Y-59582764D01*
X166207791Y-59549281D01*
X166266242Y-59550672D01*
X166295827Y-59558599D01*
X166394592Y-59585063D01*
X166571034Y-59600500D01*
X166629999Y-59605659D01*
X166630000Y-59605659D01*
X166630001Y-59605659D01*
X166688966Y-59600500D01*
X166865408Y-59585063D01*
X167093663Y-59523903D01*
X167307830Y-59424035D01*
X167501401Y-59288495D01*
X167668495Y-59121401D01*
X167798425Y-58935842D01*
X167853002Y-58892217D01*
X167922500Y-58885023D01*
X167984855Y-58916546D01*
X168001575Y-58935842D01*
X168131281Y-59121082D01*
X168131505Y-59121401D01*
X168298599Y-59288495D01*
X168395384Y-59356265D01*
X168492165Y-59424032D01*
X168492167Y-59424033D01*
X168492170Y-59424035D01*
X168706337Y-59523903D01*
X168706343Y-59523904D01*
X168706344Y-59523905D01*
X168780583Y-59543797D01*
X168926019Y-59582766D01*
X168937063Y-59585725D01*
X168996724Y-59622090D01*
X169027253Y-59684936D01*
X169018959Y-59754312D01*
X168974473Y-59808190D01*
X168907922Y-59829465D01*
X168904970Y-59829500D01*
X168761035Y-59829500D01*
X168761019Y-59829499D01*
X168753423Y-59829499D01*
X168595308Y-59829499D01*
X168518944Y-59849961D01*
X168442579Y-59870423D01*
X168442574Y-59870426D01*
X168305655Y-59949475D01*
X168305647Y-59949481D01*
X148019481Y-80235647D01*
X148019479Y-80235650D01*
X147969361Y-80322459D01*
X147969359Y-80322461D01*
X147940425Y-80372574D01*
X147940424Y-80372575D01*
X147940423Y-80372580D01*
X147899499Y-80525308D01*
X147899499Y-80525310D01*
X147899499Y-80693411D01*
X147899500Y-80693424D01*
X147899500Y-83167587D01*
X147879815Y-83234626D01*
X147872450Y-83244896D01*
X147870186Y-83247734D01*
X147774211Y-83400476D01*
X147714631Y-83570745D01*
X147714630Y-83570750D01*
X147694435Y-83749996D01*
X147694435Y-83750003D01*
X147714630Y-83929249D01*
X147714631Y-83929254D01*
X147774211Y-84099523D01*
X147838593Y-84201986D01*
X147870184Y-84252262D01*
X147997738Y-84379816D01*
X148150478Y-84475789D01*
X148307230Y-84530639D01*
X148320745Y-84535368D01*
X148320750Y-84535369D01*
X148499996Y-84555565D01*
X148500000Y-84555565D01*
X148500004Y-84555565D01*
X148679249Y-84535369D01*
X148679252Y-84535368D01*
X148679255Y-84535368D01*
X148849522Y-84475789D01*
X149002262Y-84379816D01*
X149129816Y-84252262D01*
X149225789Y-84099522D01*
X149227100Y-84095772D01*
X149255852Y-84013610D01*
X149296573Y-83956834D01*
X149361526Y-83931087D01*
X149372893Y-83930565D01*
X149375004Y-83930565D01*
X149554249Y-83910369D01*
X149554252Y-83910368D01*
X149554255Y-83910368D01*
X149724522Y-83850789D01*
X149877262Y-83754816D01*
X150004816Y-83627262D01*
X150100789Y-83474522D01*
X150160368Y-83304255D01*
X150170161Y-83217329D01*
X150197226Y-83152918D01*
X150205690Y-83143544D01*
X150252723Y-83096510D01*
X150314046Y-83063027D01*
X150383738Y-83068012D01*
X150439671Y-83109884D01*
X150463623Y-83170307D01*
X150464630Y-83179249D01*
X150524210Y-83349521D01*
X150620184Y-83502262D01*
X150717610Y-83599688D01*
X150751095Y-83661011D01*
X150746971Y-83728323D01*
X150714632Y-83820742D01*
X150714630Y-83820750D01*
X150694435Y-83999996D01*
X150694435Y-84000003D01*
X150714630Y-84179249D01*
X150714631Y-84179254D01*
X150774211Y-84349523D01*
X150870184Y-84502262D01*
X150997738Y-84629816D01*
X151150478Y-84725789D01*
X151286280Y-84773308D01*
X151320745Y-84785368D01*
X151320750Y-84785369D01*
X151499996Y-84805565D01*
X151500000Y-84805565D01*
X151500004Y-84805565D01*
X151679249Y-84785369D01*
X151679252Y-84785368D01*
X151679255Y-84785368D01*
X151849522Y-84725789D01*
X152002262Y-84629816D01*
X152002267Y-84629810D01*
X152005097Y-84627555D01*
X152007275Y-84626665D01*
X152008158Y-84626111D01*
X152008255Y-84626265D01*
X152069783Y-84601145D01*
X152082412Y-84600500D01*
X155857696Y-84600500D01*
X155857712Y-84600501D01*
X155865308Y-84600501D01*
X156023419Y-84600501D01*
X156023422Y-84600501D01*
X156176150Y-84559577D01*
X156226269Y-84530639D01*
X156313081Y-84480520D01*
X156424885Y-84368716D01*
X156424885Y-84368714D01*
X156435093Y-84358507D01*
X156435095Y-84358504D01*
X161921524Y-78872074D01*
X161982845Y-78838591D01*
X162052537Y-78843575D01*
X162108470Y-78885447D01*
X162116207Y-78898341D01*
X162116724Y-78898043D01*
X162119432Y-78902734D01*
X162249954Y-79089141D01*
X162410858Y-79250045D01*
X162410861Y-79250047D01*
X162597266Y-79380568D01*
X162803504Y-79476739D01*
X162803509Y-79476740D01*
X162803511Y-79476741D01*
X162824213Y-79482288D01*
X163023308Y-79535635D01*
X163185230Y-79549801D01*
X163249998Y-79555468D01*
X163250000Y-79555468D01*
X163250002Y-79555468D01*
X163306673Y-79550509D01*
X163476692Y-79535635D01*
X163696496Y-79476739D01*
X163902734Y-79380568D01*
X164089139Y-79250047D01*
X164250047Y-79089139D01*
X164380118Y-78903375D01*
X164434693Y-78859752D01*
X164481692Y-78850500D01*
X168185501Y-78850500D01*
X168252540Y-78870185D01*
X168298295Y-78922989D01*
X168309501Y-78974500D01*
X168309501Y-79197876D01*
X168315908Y-79257483D01*
X168366202Y-79392328D01*
X168366206Y-79392335D01*
X168452452Y-79507544D01*
X168452455Y-79507547D01*
X168567664Y-79593793D01*
X168567671Y-79593797D01*
X168702517Y-79644091D01*
X168702516Y-79644091D01*
X168709444Y-79644835D01*
X168762127Y-79650500D01*
X170657872Y-79650499D01*
X170717483Y-79644091D01*
X170852331Y-79593796D01*
X170967546Y-79507546D01*
X171053796Y-79392331D01*
X171058184Y-79380567D01*
X171082455Y-79315493D01*
X171124326Y-79259559D01*
X171189790Y-79235141D01*
X171258063Y-79249992D01*
X171289866Y-79274843D01*
X171297302Y-79282920D01*
X171298215Y-79283912D01*
X171298222Y-79283918D01*
X171481365Y-79426464D01*
X171481372Y-79426468D01*
X171481374Y-79426470D01*
X171573395Y-79476269D01*
X171584517Y-79482288D01*
X171634108Y-79531507D01*
X171649500Y-79591343D01*
X171649500Y-85525500D01*
X171629815Y-85592539D01*
X171577011Y-85638294D01*
X171525500Y-85649500D01*
X170877129Y-85649500D01*
X170877123Y-85649501D01*
X170817516Y-85655908D01*
X170682671Y-85706202D01*
X170682664Y-85706206D01*
X170567455Y-85792452D01*
X170567452Y-85792455D01*
X170481206Y-85907664D01*
X170481203Y-85907669D01*
X170432189Y-86039083D01*
X170390317Y-86095016D01*
X170324853Y-86119433D01*
X170256580Y-86104581D01*
X170228326Y-86083430D01*
X170106402Y-85961506D01*
X170106395Y-85961501D01*
X169912834Y-85825967D01*
X169912830Y-85825965D01*
X169698663Y-85726097D01*
X169698659Y-85726096D01*
X169698655Y-85726094D01*
X169470413Y-85664938D01*
X169470403Y-85664936D01*
X169235001Y-85644341D01*
X169234999Y-85644341D01*
X168999596Y-85664936D01*
X168999583Y-85664939D01*
X168871241Y-85699327D01*
X168801392Y-85697664D01*
X168751468Y-85667233D01*
X167472590Y-84388355D01*
X167472588Y-84388352D01*
X167353717Y-84269481D01*
X167353709Y-84269475D01*
X167236815Y-84201987D01*
X167236814Y-84201986D01*
X167222735Y-84193858D01*
X167216785Y-84190423D01*
X167064057Y-84149499D01*
X166905943Y-84149499D01*
X166898347Y-84149499D01*
X166898331Y-84149500D01*
X161082412Y-84149500D01*
X161015373Y-84129815D01*
X161005097Y-84122445D01*
X161002263Y-84120185D01*
X161002262Y-84120184D01*
X160945496Y-84084515D01*
X160849523Y-84024211D01*
X160679254Y-83964631D01*
X160679249Y-83964630D01*
X160500004Y-83944435D01*
X160499996Y-83944435D01*
X160320750Y-83964630D01*
X160320745Y-83964631D01*
X160150476Y-84024211D01*
X159997737Y-84120184D01*
X159870184Y-84247737D01*
X159774211Y-84400476D01*
X159714631Y-84570745D01*
X159714630Y-84570750D01*
X159694435Y-84749996D01*
X159694435Y-84750003D01*
X159714630Y-84929249D01*
X159714631Y-84929254D01*
X159774211Y-85099523D01*
X159854117Y-85226692D01*
X159870184Y-85252262D01*
X159997738Y-85379816D01*
X160095354Y-85441152D01*
X160147352Y-85473825D01*
X160193643Y-85526160D01*
X160204291Y-85595214D01*
X160175916Y-85659062D01*
X160117526Y-85697434D01*
X160067497Y-85702039D01*
X160000004Y-85694435D01*
X159999996Y-85694435D01*
X159820750Y-85714630D01*
X159820745Y-85714631D01*
X159650476Y-85774211D01*
X159497737Y-85870184D01*
X159370184Y-85997737D01*
X159274211Y-86150476D01*
X159214631Y-86320745D01*
X159214630Y-86320750D01*
X159194435Y-86499996D01*
X159194435Y-86500003D01*
X159214630Y-86679249D01*
X159214631Y-86679254D01*
X159274211Y-86849523D01*
X159327401Y-86934174D01*
X159370184Y-87002262D01*
X159497738Y-87129816D01*
X159650478Y-87225789D01*
X159820745Y-87285368D01*
X159907669Y-87295161D01*
X159972080Y-87322226D01*
X159981465Y-87330700D01*
X163015139Y-90364374D01*
X163015149Y-90364385D01*
X163019479Y-90368715D01*
X163019480Y-90368716D01*
X163131284Y-90480520D01*
X163131286Y-90480521D01*
X163131290Y-90480524D01*
X163238637Y-90542500D01*
X163268216Y-90559577D01*
X163380019Y-90589534D01*
X163420942Y-90600500D01*
X163420943Y-90600500D01*
X171663331Y-90600500D01*
X171663347Y-90600501D01*
X171670943Y-90600501D01*
X171829054Y-90600501D01*
X171829057Y-90600501D01*
X171981785Y-90559577D01*
X172057094Y-90516097D01*
X172118716Y-90480520D01*
X172230520Y-90368716D01*
X172255520Y-90343716D01*
X172334577Y-90206784D01*
X172375500Y-90054057D01*
X172375500Y-88474499D01*
X172395185Y-88407460D01*
X172447989Y-88361705D01*
X172499500Y-88350499D01*
X172672871Y-88350499D01*
X172672872Y-88350499D01*
X172732483Y-88344091D01*
X172867331Y-88293796D01*
X172982546Y-88207546D01*
X173068796Y-88092331D01*
X173119091Y-87957483D01*
X173125500Y-87897873D01*
X173125499Y-86102128D01*
X173119091Y-86042517D01*
X173117810Y-86039083D01*
X173068797Y-85907671D01*
X173068793Y-85907664D01*
X172982547Y-85792455D01*
X172900188Y-85730800D01*
X172858318Y-85674866D01*
X172850500Y-85631534D01*
X172850500Y-79591343D01*
X172870185Y-79524304D01*
X172915483Y-79482288D01*
X173018626Y-79426470D01*
X173201784Y-79283913D01*
X173358979Y-79113153D01*
X173485924Y-78918849D01*
X173485926Y-78918843D01*
X173487747Y-78915481D01*
X173536967Y-78865891D01*
X173596801Y-78850500D01*
X176503331Y-78850500D01*
X176503347Y-78850501D01*
X176510943Y-78850501D01*
X176669054Y-78850501D01*
X176669057Y-78850501D01*
X176821785Y-78809577D01*
X176860694Y-78787112D01*
X176922694Y-78770500D01*
X183460909Y-78770500D01*
X183527948Y-78790185D01*
X183573292Y-78842097D01*
X183575965Y-78847830D01*
X183711501Y-79041396D01*
X183711506Y-79041402D01*
X183833818Y-79163714D01*
X183867303Y-79225037D01*
X183862319Y-79294729D01*
X183820447Y-79350662D01*
X183789471Y-79367577D01*
X183657912Y-79416646D01*
X183657906Y-79416649D01*
X183542812Y-79502809D01*
X183542809Y-79502812D01*
X183456649Y-79617906D01*
X183456645Y-79617913D01*
X183406403Y-79752620D01*
X183406401Y-79752627D01*
X183400000Y-79812155D01*
X183400000Y-80460000D01*
X184316988Y-80460000D01*
X184284075Y-80517007D01*
X184250000Y-80644174D01*
X184250000Y-80775826D01*
X184284075Y-80902993D01*
X184316988Y-80960000D01*
X183400000Y-80960000D01*
X183400000Y-81607844D01*
X183406401Y-81667372D01*
X183406403Y-81667379D01*
X183456645Y-81802086D01*
X183456649Y-81802093D01*
X183542809Y-81917187D01*
X183542812Y-81917190D01*
X183657906Y-82003350D01*
X183657913Y-82003354D01*
X183792620Y-82053596D01*
X183792627Y-82053598D01*
X183852155Y-82059999D01*
X183852172Y-82060000D01*
X184500000Y-82060000D01*
X184500000Y-81143012D01*
X184557007Y-81175925D01*
X184684174Y-81210000D01*
X184815826Y-81210000D01*
X184942993Y-81175925D01*
X185000000Y-81143012D01*
X185000000Y-82060000D01*
X185291402Y-82060000D01*
X185358441Y-82079685D01*
X185404196Y-82132489D01*
X185414140Y-82201647D01*
X185385115Y-82265203D01*
X185379083Y-82271681D01*
X172287584Y-95363181D01*
X172226261Y-95396666D01*
X172199903Y-95399500D01*
X144082412Y-95399500D01*
X144015373Y-95379815D01*
X144005097Y-95372445D01*
X144002263Y-95370185D01*
X144002262Y-95370184D01*
X143945496Y-95334515D01*
X143849523Y-95274211D01*
X143679254Y-95214631D01*
X143679249Y-95214630D01*
X143500004Y-95194435D01*
X143499996Y-95194435D01*
X143320750Y-95214630D01*
X143320745Y-95214631D01*
X143150476Y-95274211D01*
X142997737Y-95370184D01*
X142870184Y-95497737D01*
X142774209Y-95650480D01*
X142742041Y-95742411D01*
X142701320Y-95799187D01*
X142636367Y-95824934D01*
X142567805Y-95811478D01*
X142517403Y-95763090D01*
X142507959Y-95742411D01*
X142475790Y-95650480D01*
X142475789Y-95650478D01*
X142379816Y-95497738D01*
X142252262Y-95370184D01*
X142241117Y-95363181D01*
X142099523Y-95274211D01*
X141929254Y-95214631D01*
X141929249Y-95214630D01*
X141750004Y-95194435D01*
X141749996Y-95194435D01*
X141570750Y-95214630D01*
X141570745Y-95214631D01*
X141400476Y-95274211D01*
X141247737Y-95370184D01*
X141120184Y-95497737D01*
X141024211Y-95650476D01*
X140964631Y-95820745D01*
X140964630Y-95820750D01*
X140944435Y-95999996D01*
X140944435Y-96000003D01*
X140964630Y-96179249D01*
X140964631Y-96179254D01*
X141024211Y-96349523D01*
X141036271Y-96368716D01*
X141091058Y-96455909D01*
X141120185Y-96502263D01*
X141122445Y-96505097D01*
X141123334Y-96507275D01*
X141123889Y-96508158D01*
X141123734Y-96508255D01*
X141148855Y-96569783D01*
X141149500Y-96582412D01*
X141149500Y-102920943D01*
X141149500Y-103079057D01*
X141189693Y-103229057D01*
X141190423Y-103231783D01*
X141190426Y-103231790D01*
X141269475Y-103368709D01*
X141269479Y-103368714D01*
X141269480Y-103368716D01*
X141381284Y-103480520D01*
X141381286Y-103480521D01*
X141381290Y-103480524D01*
X141518209Y-103559573D01*
X141518216Y-103559577D01*
X141670943Y-103600500D01*
X160449903Y-103600500D01*
X160516942Y-103620185D01*
X160537584Y-103636819D01*
X165910137Y-109009372D01*
X165943622Y-109070695D01*
X165938638Y-109140387D01*
X165931291Y-109156475D01*
X165925635Y-109166833D01*
X165825628Y-109434962D01*
X165764804Y-109714566D01*
X165744390Y-109999998D01*
X165744390Y-110000001D01*
X165764804Y-110285433D01*
X165825628Y-110565037D01*
X165825630Y-110565043D01*
X165825631Y-110565046D01*
X165846077Y-110619863D01*
X165925635Y-110833166D01*
X166062770Y-111084309D01*
X166062775Y-111084317D01*
X166234254Y-111313387D01*
X166234270Y-111313405D01*
X166436594Y-111515729D01*
X166436612Y-111515745D01*
X166665682Y-111687224D01*
X166665690Y-111687229D01*
X166916833Y-111824364D01*
X166916832Y-111824364D01*
X166916836Y-111824365D01*
X166916839Y-111824367D01*
X167184954Y-111924369D01*
X167184960Y-111924370D01*
X167184962Y-111924371D01*
X167464566Y-111985195D01*
X167464568Y-111985195D01*
X167464572Y-111985196D01*
X167718220Y-112003337D01*
X167749999Y-112005610D01*
X167750000Y-112005610D01*
X167750001Y-112005610D01*
X167778595Y-112003564D01*
X168035428Y-111985196D01*
X168074898Y-111976610D01*
X168315037Y-111924371D01*
X168315037Y-111924370D01*
X168315046Y-111924369D01*
X168583161Y-111824367D01*
X168834315Y-111687226D01*
X169063395Y-111515739D01*
X169265739Y-111313395D01*
X169437226Y-111084315D01*
X169574367Y-110833161D01*
X169674369Y-110565046D01*
X169735196Y-110285428D01*
X169755610Y-110000000D01*
X169755610Y-109999998D01*
X170744891Y-109999998D01*
X170744891Y-110000001D01*
X170765300Y-110285362D01*
X170826109Y-110564895D01*
X170926091Y-110832958D01*
X171063191Y-111084038D01*
X171063196Y-111084046D01*
X171169882Y-111226561D01*
X171169883Y-111226562D01*
X172185387Y-110211058D01*
X172190889Y-110231591D01*
X172269881Y-110368408D01*
X172381592Y-110480119D01*
X172518409Y-110559111D01*
X172538940Y-110564612D01*
X171523436Y-111580115D01*
X171665960Y-111686807D01*
X171665961Y-111686808D01*
X171917042Y-111823908D01*
X171917041Y-111823908D01*
X172185104Y-111923890D01*
X172464637Y-111984699D01*
X172749999Y-112005109D01*
X172750001Y-112005109D01*
X173035362Y-111984699D01*
X173314895Y-111923890D01*
X173582958Y-111823908D01*
X173834047Y-111686803D01*
X173976561Y-111580116D01*
X173976562Y-111580115D01*
X172961060Y-110564612D01*
X172981591Y-110559111D01*
X173118408Y-110480119D01*
X173230119Y-110368408D01*
X173309111Y-110231591D01*
X173314612Y-110211059D01*
X174330115Y-111226562D01*
X174330116Y-111226561D01*
X174436803Y-111084047D01*
X174573908Y-110832958D01*
X174673890Y-110564895D01*
X174734699Y-110285362D01*
X174755109Y-110000001D01*
X174755109Y-109999998D01*
X174734699Y-109714637D01*
X174673890Y-109435104D01*
X174573908Y-109167041D01*
X174436808Y-108915961D01*
X174436807Y-108915960D01*
X174330115Y-108773436D01*
X173314612Y-109788939D01*
X173309111Y-109768409D01*
X173230119Y-109631592D01*
X173118408Y-109519881D01*
X172981591Y-109440889D01*
X172961059Y-109435387D01*
X173976562Y-108419883D01*
X173976561Y-108419882D01*
X173834046Y-108313196D01*
X173834038Y-108313191D01*
X173582957Y-108176091D01*
X173582958Y-108176091D01*
X173314895Y-108076109D01*
X173035362Y-108015300D01*
X172750001Y-107994891D01*
X172749999Y-107994891D01*
X172464637Y-108015300D01*
X172185104Y-108076109D01*
X171917041Y-108176091D01*
X171665961Y-108313191D01*
X171665953Y-108313196D01*
X171523437Y-108419882D01*
X171523436Y-108419883D01*
X172538941Y-109435387D01*
X172518409Y-109440889D01*
X172381592Y-109519881D01*
X172269881Y-109631592D01*
X172190889Y-109768409D01*
X172185387Y-109788940D01*
X171169883Y-108773436D01*
X171169882Y-108773437D01*
X171063196Y-108915953D01*
X171063191Y-108915961D01*
X170926091Y-109167041D01*
X170826109Y-109435104D01*
X170765300Y-109714637D01*
X170744891Y-109999998D01*
X169755610Y-109999998D01*
X169735196Y-109714572D01*
X169674369Y-109434954D01*
X169574367Y-109166839D01*
X169524224Y-109075010D01*
X169437229Y-108915690D01*
X169437224Y-108915682D01*
X169265745Y-108686612D01*
X169265729Y-108686594D01*
X169063405Y-108484270D01*
X169063387Y-108484254D01*
X168834317Y-108312775D01*
X168834309Y-108312770D01*
X168583166Y-108175635D01*
X168583167Y-108175635D01*
X168447208Y-108124925D01*
X168315046Y-108075631D01*
X168315043Y-108075630D01*
X168315037Y-108075628D01*
X168035433Y-108014804D01*
X167750001Y-107994390D01*
X167749999Y-107994390D01*
X167464566Y-108014804D01*
X167184962Y-108075628D01*
X166916833Y-108175635D01*
X166906475Y-108181291D01*
X166838201Y-108196140D01*
X166772738Y-108171719D01*
X166759372Y-108160137D01*
X161237590Y-102638355D01*
X161237588Y-102638352D01*
X161118717Y-102519481D01*
X161118716Y-102519480D01*
X161031904Y-102469360D01*
X161031904Y-102469359D01*
X161031900Y-102469358D01*
X160981785Y-102440423D01*
X160829057Y-102399499D01*
X160670943Y-102399499D01*
X160663347Y-102399499D01*
X160663331Y-102399500D01*
X142474500Y-102399500D01*
X142407461Y-102379815D01*
X142361706Y-102327011D01*
X142350500Y-102275500D01*
X142350500Y-96582412D01*
X142370185Y-96515373D01*
X142377555Y-96505097D01*
X142379810Y-96502267D01*
X142379816Y-96502262D01*
X142475789Y-96349522D01*
X142507958Y-96257587D01*
X142548680Y-96200812D01*
X142613633Y-96175065D01*
X142682194Y-96188521D01*
X142732597Y-96236908D01*
X142742042Y-96257588D01*
X142774211Y-96349523D01*
X142859144Y-96484692D01*
X142870184Y-96502262D01*
X142997738Y-96629816D01*
X143150478Y-96725789D01*
X143320745Y-96785368D01*
X143320750Y-96785369D01*
X143499996Y-96805565D01*
X143500000Y-96805565D01*
X143500004Y-96805565D01*
X143679249Y-96785369D01*
X143679252Y-96785368D01*
X143679255Y-96785368D01*
X143849522Y-96725789D01*
X144002262Y-96629816D01*
X144002267Y-96629810D01*
X144005097Y-96627555D01*
X144007275Y-96626665D01*
X144008158Y-96626111D01*
X144008255Y-96626265D01*
X144069783Y-96601145D01*
X144082412Y-96600500D01*
X172413331Y-96600500D01*
X172413347Y-96600501D01*
X172420943Y-96600501D01*
X172579054Y-96600501D01*
X172579057Y-96600501D01*
X172731785Y-96559577D01*
X172781904Y-96530639D01*
X172868716Y-96480520D01*
X172980520Y-96368716D01*
X172980520Y-96368714D01*
X172990728Y-96358507D01*
X172990729Y-96358504D01*
X179169235Y-90179999D01*
X183144341Y-90179999D01*
X183144341Y-90180000D01*
X183164936Y-90415403D01*
X183164938Y-90415413D01*
X183226094Y-90643655D01*
X183226096Y-90643659D01*
X183226097Y-90643663D01*
X183276383Y-90751501D01*
X183325965Y-90857830D01*
X183325967Y-90857834D01*
X183461501Y-91051395D01*
X183461506Y-91051402D01*
X183628597Y-91218493D01*
X183628603Y-91218498D01*
X183814158Y-91348425D01*
X183857783Y-91403002D01*
X183864977Y-91472500D01*
X183833454Y-91534855D01*
X183814158Y-91551575D01*
X183628597Y-91681505D01*
X183461505Y-91848597D01*
X183325965Y-92042169D01*
X183325964Y-92042171D01*
X183232401Y-92242816D01*
X183227344Y-92253664D01*
X183226098Y-92256335D01*
X183226094Y-92256344D01*
X183164938Y-92484586D01*
X183164936Y-92484596D01*
X183144341Y-92719999D01*
X183144341Y-92720000D01*
X183164936Y-92955403D01*
X183164938Y-92955413D01*
X183226094Y-93183655D01*
X183226096Y-93183659D01*
X183226097Y-93183663D01*
X183276383Y-93291501D01*
X183325965Y-93397830D01*
X183325967Y-93397834D01*
X183461501Y-93591395D01*
X183461506Y-93591402D01*
X183628597Y-93758493D01*
X183628603Y-93758498D01*
X183814158Y-93888425D01*
X183857783Y-93943002D01*
X183864977Y-94012500D01*
X183833454Y-94074855D01*
X183814158Y-94091575D01*
X183628597Y-94221505D01*
X183461505Y-94388597D01*
X183325965Y-94582169D01*
X183325964Y-94582171D01*
X183236838Y-94773302D01*
X183227344Y-94793664D01*
X183226098Y-94796335D01*
X183226094Y-94796344D01*
X183164938Y-95024586D01*
X183164936Y-95024596D01*
X183144341Y-95259999D01*
X183144341Y-95260000D01*
X183164936Y-95495403D01*
X183164938Y-95495413D01*
X183226094Y-95723655D01*
X183226096Y-95723659D01*
X183226097Y-95723663D01*
X183325965Y-95937830D01*
X183325967Y-95937834D01*
X183434281Y-96092521D01*
X183461501Y-96131396D01*
X183461506Y-96131402D01*
X183583430Y-96253326D01*
X183616915Y-96314649D01*
X183611931Y-96384341D01*
X183570059Y-96440274D01*
X183539083Y-96457189D01*
X183407669Y-96506203D01*
X183407664Y-96506206D01*
X183292455Y-96592452D01*
X183292452Y-96592455D01*
X183206206Y-96707664D01*
X183206202Y-96707671D01*
X183155908Y-96842517D01*
X183149501Y-96902116D01*
X183149501Y-96902123D01*
X183149500Y-96902135D01*
X183149500Y-98697870D01*
X183149501Y-98697876D01*
X183155908Y-98757483D01*
X183206202Y-98892328D01*
X183206206Y-98892335D01*
X183292452Y-99007544D01*
X183292455Y-99007547D01*
X183407664Y-99093793D01*
X183407671Y-99093797D01*
X183542517Y-99144091D01*
X183542516Y-99144091D01*
X183549444Y-99144835D01*
X183602127Y-99150500D01*
X185397872Y-99150499D01*
X185457483Y-99144091D01*
X185592331Y-99093796D01*
X185707546Y-99007546D01*
X185793796Y-98892331D01*
X185844091Y-98757483D01*
X185850500Y-98697873D01*
X185850499Y-96902128D01*
X185844091Y-96842517D01*
X185822776Y-96785369D01*
X185793797Y-96707671D01*
X185793793Y-96707664D01*
X185707547Y-96592455D01*
X185707544Y-96592452D01*
X185592335Y-96506206D01*
X185592328Y-96506202D01*
X185460917Y-96457189D01*
X185404983Y-96415318D01*
X185380566Y-96349853D01*
X185395418Y-96281580D01*
X185416563Y-96253332D01*
X185538495Y-96131401D01*
X185674035Y-95937830D01*
X185773903Y-95723663D01*
X185835063Y-95495408D01*
X185855659Y-95260000D01*
X185835063Y-95024592D01*
X185773903Y-94796337D01*
X185674035Y-94582171D01*
X185662298Y-94565408D01*
X185538494Y-94388597D01*
X185371402Y-94221506D01*
X185371396Y-94221501D01*
X185185842Y-94091575D01*
X185142217Y-94036998D01*
X185135023Y-93967500D01*
X185166546Y-93905145D01*
X185185842Y-93888425D01*
X185240004Y-93850500D01*
X185371401Y-93758495D01*
X185538495Y-93591401D01*
X185674035Y-93397830D01*
X185773903Y-93183663D01*
X185835063Y-92955408D01*
X185855659Y-92720000D01*
X185835063Y-92484592D01*
X185773903Y-92256337D01*
X185674035Y-92042171D01*
X185662298Y-92025408D01*
X185538494Y-91848597D01*
X185371402Y-91681506D01*
X185371396Y-91681501D01*
X185185842Y-91551575D01*
X185142217Y-91496998D01*
X185135023Y-91427500D01*
X185166546Y-91365145D01*
X185185842Y-91348425D01*
X185217390Y-91326335D01*
X185371401Y-91218495D01*
X185538495Y-91051401D01*
X185674035Y-90857830D01*
X185773903Y-90643663D01*
X185835063Y-90415408D01*
X185855659Y-90180000D01*
X185835063Y-89944592D01*
X185773903Y-89716337D01*
X185674035Y-89502171D01*
X185662298Y-89485408D01*
X185538494Y-89308597D01*
X185371402Y-89141506D01*
X185371395Y-89141501D01*
X185177834Y-89005967D01*
X185177830Y-89005965D01*
X185177828Y-89005964D01*
X184963663Y-88906097D01*
X184963659Y-88906096D01*
X184963655Y-88906094D01*
X184735413Y-88844938D01*
X184735403Y-88844936D01*
X184500001Y-88824341D01*
X184499999Y-88824341D01*
X184264596Y-88844936D01*
X184264586Y-88844938D01*
X184036344Y-88906094D01*
X184036335Y-88906098D01*
X183822171Y-89005964D01*
X183822169Y-89005965D01*
X183628597Y-89141505D01*
X183461505Y-89308597D01*
X183325965Y-89502169D01*
X183325964Y-89502171D01*
X183232401Y-89702816D01*
X183227344Y-89713664D01*
X183226098Y-89716335D01*
X183226094Y-89716344D01*
X183164938Y-89944586D01*
X183164936Y-89944596D01*
X183144341Y-90179999D01*
X179169235Y-90179999D01*
X187480520Y-81868716D01*
X187559577Y-81731784D01*
X187600501Y-81579057D01*
X187600501Y-81420942D01*
X187600501Y-81413347D01*
X187600500Y-81413329D01*
X187600500Y-77969060D01*
X187600501Y-77969047D01*
X187600501Y-77800944D01*
X187600501Y-77800943D01*
X187559577Y-77648216D01*
X187548953Y-77629815D01*
X187480524Y-77511290D01*
X187480518Y-77511282D01*
X186818736Y-76849500D01*
X186082765Y-76113530D01*
X186049281Y-76052208D01*
X186050672Y-75993757D01*
X186051863Y-75989309D01*
X186085063Y-75865408D01*
X186105659Y-75630000D01*
X186085063Y-75394592D01*
X186023903Y-75166337D01*
X185924035Y-74952171D01*
X185788495Y-74758599D01*
X185788494Y-74758597D01*
X185621402Y-74591506D01*
X185621395Y-74591501D01*
X185427834Y-74455967D01*
X185427830Y-74455965D01*
X185427828Y-74455964D01*
X185213663Y-74356097D01*
X185213659Y-74356096D01*
X185213655Y-74356094D01*
X184985413Y-74294938D01*
X184985403Y-74294936D01*
X184750001Y-74274341D01*
X184749999Y-74274341D01*
X184514596Y-74294936D01*
X184514586Y-74294938D01*
X184286344Y-74356094D01*
X184286335Y-74356098D01*
X184072171Y-74455964D01*
X184072169Y-74455965D01*
X183878597Y-74591505D01*
X183711505Y-74758597D01*
X183575965Y-74952169D01*
X183575964Y-74952171D01*
X183476098Y-75166335D01*
X183476094Y-75166344D01*
X183414938Y-75394586D01*
X183414936Y-75394596D01*
X183394341Y-75629999D01*
X183394341Y-75630000D01*
X183414936Y-75865403D01*
X183414938Y-75865413D01*
X183476094Y-76093655D01*
X183476096Y-76093659D01*
X183476097Y-76093663D01*
X183485362Y-76113531D01*
X183575965Y-76307830D01*
X183575967Y-76307834D01*
X183711501Y-76501395D01*
X183711506Y-76501402D01*
X183878597Y-76668493D01*
X183878603Y-76668498D01*
X184064158Y-76798425D01*
X184107783Y-76853002D01*
X184114977Y-76922500D01*
X184083454Y-76984855D01*
X184064158Y-77001575D01*
X183878597Y-77131505D01*
X183711506Y-77298596D01*
X183575965Y-77492170D01*
X183575962Y-77492175D01*
X183573289Y-77497909D01*
X183527115Y-77550346D01*
X183460909Y-77569500D01*
X176590943Y-77569500D01*
X176438214Y-77610423D01*
X176412521Y-77625257D01*
X176399306Y-77632887D01*
X176337306Y-77649500D01*
X173596801Y-77649500D01*
X173529762Y-77629815D01*
X173487747Y-77584519D01*
X173485924Y-77581151D01*
X173358983Y-77386852D01*
X173358980Y-77386849D01*
X173358979Y-77386847D01*
X173201784Y-77216087D01*
X173201779Y-77216083D01*
X173201777Y-77216081D01*
X173018634Y-77073535D01*
X173018628Y-77073531D01*
X172814504Y-76963064D01*
X172814495Y-76963061D01*
X172594984Y-76887702D01*
X172387035Y-76853002D01*
X172366049Y-76849500D01*
X172133951Y-76849500D01*
X172112965Y-76853002D01*
X171905015Y-76887702D01*
X171685504Y-76963061D01*
X171685495Y-76963064D01*
X171481371Y-77073531D01*
X171481365Y-77073535D01*
X171298222Y-77216081D01*
X171298218Y-77216085D01*
X171289866Y-77225158D01*
X171229979Y-77261148D01*
X171160141Y-77259047D01*
X171102525Y-77219522D01*
X171082455Y-77184507D01*
X171053797Y-77107671D01*
X171053793Y-77107664D01*
X170967547Y-76992455D01*
X170967544Y-76992452D01*
X170852335Y-76906206D01*
X170852328Y-76906202D01*
X170717482Y-76855908D01*
X170717483Y-76855908D01*
X170657883Y-76849501D01*
X170657881Y-76849500D01*
X170657873Y-76849500D01*
X170657864Y-76849500D01*
X168762129Y-76849500D01*
X168762123Y-76849501D01*
X168702516Y-76855908D01*
X168567671Y-76906202D01*
X168567664Y-76906206D01*
X168452455Y-76992452D01*
X168452452Y-76992455D01*
X168366206Y-77107664D01*
X168366202Y-77107671D01*
X168315908Y-77242517D01*
X168309501Y-77302116D01*
X168309500Y-77302135D01*
X168309500Y-77525500D01*
X168289815Y-77592539D01*
X168237011Y-77638294D01*
X168185500Y-77649500D01*
X164481692Y-77649500D01*
X164414653Y-77629815D01*
X164380119Y-77596625D01*
X164250047Y-77410861D01*
X164250045Y-77410858D01*
X164089141Y-77249954D01*
X163902734Y-77119432D01*
X163898043Y-77116724D01*
X163899294Y-77114555D01*
X163854781Y-77075203D01*
X163835763Y-77007971D01*
X163856113Y-76941130D01*
X163872071Y-76921527D01*
X172106781Y-68686819D01*
X172168104Y-68653334D01*
X172194462Y-68650500D01*
X183275501Y-68650500D01*
X183342540Y-68670185D01*
X183388295Y-68722989D01*
X183399501Y-68774500D01*
X183399501Y-68947876D01*
X183405908Y-69007483D01*
X183456202Y-69142328D01*
X183456206Y-69142335D01*
X183542452Y-69257544D01*
X183542455Y-69257547D01*
X183657664Y-69343793D01*
X183657671Y-69343797D01*
X183792517Y-69394091D01*
X183792516Y-69394091D01*
X183799444Y-69394835D01*
X183852127Y-69400500D01*
X185647872Y-69400499D01*
X185707483Y-69394091D01*
X185842331Y-69343796D01*
X185957546Y-69257546D01*
X186043796Y-69142331D01*
X186094091Y-69007483D01*
X186100500Y-68947873D01*
X186100499Y-67152128D01*
X186094091Y-67092517D01*
X186043796Y-66957669D01*
X186043795Y-66957668D01*
X186043793Y-66957664D01*
X185957547Y-66842455D01*
X185957544Y-66842452D01*
X185842335Y-66756206D01*
X185842328Y-66756202D01*
X185710917Y-66707189D01*
X185654983Y-66665318D01*
X185630566Y-66599853D01*
X185645418Y-66531580D01*
X185666563Y-66503332D01*
X185788495Y-66381401D01*
X185924035Y-66187830D01*
X186023903Y-65973663D01*
X186085063Y-65745408D01*
X186105659Y-65510000D01*
X186085063Y-65274592D01*
X186023903Y-65046337D01*
X185924035Y-64832171D01*
X185924034Y-64832169D01*
X185788494Y-64638597D01*
X185621402Y-64471506D01*
X185621396Y-64471501D01*
X185435842Y-64341575D01*
X185392217Y-64286998D01*
X185385023Y-64217500D01*
X185416546Y-64155145D01*
X185435842Y-64138425D01*
X185504681Y-64090223D01*
X185621401Y-64008495D01*
X185788495Y-63841401D01*
X185924035Y-63647830D01*
X186023903Y-63433663D01*
X186085063Y-63205408D01*
X186105659Y-62970000D01*
X186085063Y-62734592D01*
X186023903Y-62506337D01*
X185924035Y-62292171D01*
X185924034Y-62292169D01*
X185788494Y-62098597D01*
X185621402Y-61931506D01*
X185621396Y-61931501D01*
X185435842Y-61801575D01*
X185392217Y-61746998D01*
X185385023Y-61677500D01*
X185416546Y-61615145D01*
X185435842Y-61598425D01*
X185473191Y-61572273D01*
X185621401Y-61468495D01*
X185788495Y-61301401D01*
X185924035Y-61107830D01*
X186023903Y-60893663D01*
X186085063Y-60665408D01*
X186105659Y-60430000D01*
X186085063Y-60194592D01*
X186023903Y-59966337D01*
X185924035Y-59752171D01*
X185924034Y-59752169D01*
X185788494Y-59558597D01*
X185621402Y-59391506D01*
X185621395Y-59391501D01*
X185427834Y-59255967D01*
X185427830Y-59255965D01*
X185427828Y-59255964D01*
X185213663Y-59156097D01*
X185213659Y-59156096D01*
X185213655Y-59156094D01*
X184985413Y-59094938D01*
X184985403Y-59094936D01*
X184750001Y-59074341D01*
X184749999Y-59074341D01*
X184514596Y-59094936D01*
X184514586Y-59094938D01*
X184286344Y-59156094D01*
X184286335Y-59156098D01*
X184072171Y-59255964D01*
X184072169Y-59255965D01*
X183878597Y-59391505D01*
X183711506Y-59558596D01*
X183575965Y-59752170D01*
X183575962Y-59752175D01*
X183573289Y-59757909D01*
X183527115Y-59810346D01*
X183460909Y-59829500D01*
X175263614Y-59829500D01*
X175196575Y-59809815D01*
X175150820Y-59757011D01*
X175140876Y-59687853D01*
X175169901Y-59624297D01*
X175220281Y-59589318D01*
X175342328Y-59543797D01*
X175342327Y-59543797D01*
X175342331Y-59543796D01*
X175457546Y-59457546D01*
X175543796Y-59342331D01*
X175594091Y-59207483D01*
X175600500Y-59147873D01*
X175600499Y-57352128D01*
X175594091Y-57292517D01*
X175592810Y-57289083D01*
X175543797Y-57157671D01*
X175543793Y-57157664D01*
X175457547Y-57042455D01*
X175457544Y-57042452D01*
X175342335Y-56956206D01*
X175342328Y-56956202D01*
X175207482Y-56905908D01*
X175207483Y-56905908D01*
X175147883Y-56899501D01*
X175147881Y-56899500D01*
X175147873Y-56899500D01*
X175147864Y-56899500D01*
X173352129Y-56899500D01*
X173352123Y-56899501D01*
X173292516Y-56905908D01*
X173157671Y-56956202D01*
X173157664Y-56956206D01*
X173042455Y-57042452D01*
X173042452Y-57042455D01*
X172956206Y-57157664D01*
X172956203Y-57157669D01*
X172907189Y-57289083D01*
X172865317Y-57345016D01*
X172799853Y-57369433D01*
X172731580Y-57354581D01*
X172703326Y-57333430D01*
X172581402Y-57211506D01*
X172581395Y-57211501D01*
X172387834Y-57075967D01*
X172387830Y-57075965D01*
X172387828Y-57075964D01*
X172173663Y-56976097D01*
X172173659Y-56976096D01*
X172173655Y-56976094D01*
X171945413Y-56914938D01*
X171945403Y-56914936D01*
X171710001Y-56894341D01*
X171709999Y-56894341D01*
X171474596Y-56914936D01*
X171474586Y-56914938D01*
X171246344Y-56976094D01*
X171246335Y-56976098D01*
X171032171Y-57075964D01*
X171032169Y-57075965D01*
X170838597Y-57211505D01*
X170671505Y-57378597D01*
X170541575Y-57564158D01*
X170486998Y-57607783D01*
X170417500Y-57614977D01*
X170355145Y-57583454D01*
X170338425Y-57564158D01*
X170208494Y-57378597D01*
X170041402Y-57211506D01*
X170041395Y-57211501D01*
X169847834Y-57075967D01*
X169847830Y-57075965D01*
X169847828Y-57075964D01*
X169633663Y-56976097D01*
X169633659Y-56976096D01*
X169633655Y-56976094D01*
X169405413Y-56914938D01*
X169405403Y-56914936D01*
X169170001Y-56894341D01*
X169169999Y-56894341D01*
X168934596Y-56914936D01*
X168934586Y-56914938D01*
X168706344Y-56976094D01*
X168706335Y-56976098D01*
X168492171Y-57075964D01*
X168492169Y-57075965D01*
X168298597Y-57211505D01*
X168131505Y-57378597D01*
X168001575Y-57564158D01*
X167946998Y-57607783D01*
X167877500Y-57614977D01*
X167815145Y-57583454D01*
X167798425Y-57564158D01*
X167668494Y-57378597D01*
X167501402Y-57211506D01*
X167501395Y-57211501D01*
X167307834Y-57075967D01*
X167307830Y-57075965D01*
X167307828Y-57075964D01*
X167093663Y-56976097D01*
X167093659Y-56976096D01*
X167093655Y-56976094D01*
X166865413Y-56914938D01*
X166865403Y-56914936D01*
X166630001Y-56894341D01*
X166629999Y-56894341D01*
X166394596Y-56914936D01*
X166394586Y-56914938D01*
X166166344Y-56976094D01*
X166166335Y-56976098D01*
X165952171Y-57075964D01*
X165952169Y-57075965D01*
X165758597Y-57211505D01*
X165591505Y-57378597D01*
X165461575Y-57564158D01*
X165406998Y-57607783D01*
X165337500Y-57614977D01*
X165275145Y-57583454D01*
X165258425Y-57564158D01*
X165128494Y-57378597D01*
X164961402Y-57211506D01*
X164961395Y-57211501D01*
X164767834Y-57075967D01*
X164767830Y-57075965D01*
X164767828Y-57075964D01*
X164553663Y-56976097D01*
X164553659Y-56976096D01*
X164553655Y-56976094D01*
X164325413Y-56914938D01*
X164325403Y-56914936D01*
X164090001Y-56894341D01*
X164089999Y-56894341D01*
X163854596Y-56914936D01*
X163854586Y-56914938D01*
X163626344Y-56976094D01*
X163626335Y-56976098D01*
X163412171Y-57075964D01*
X163412169Y-57075965D01*
X163218597Y-57211505D01*
X163051508Y-57378594D01*
X162921269Y-57564595D01*
X162866692Y-57608219D01*
X162797193Y-57615412D01*
X162734839Y-57583890D01*
X162718119Y-57564594D01*
X162588113Y-57378926D01*
X162588108Y-57378920D01*
X162421082Y-57211894D01*
X162227578Y-57076399D01*
X162013492Y-56976570D01*
X162013486Y-56976567D01*
X161800000Y-56919364D01*
X161800000Y-57816988D01*
X161742993Y-57784075D01*
X161615826Y-57750000D01*
X161484174Y-57750000D01*
X161357007Y-57784075D01*
X161300000Y-57816988D01*
X161300000Y-56919364D01*
X161299999Y-56919364D01*
X161086513Y-56976567D01*
X161086507Y-56976570D01*
X160872422Y-57076399D01*
X160872420Y-57076400D01*
X160678926Y-57211886D01*
X160678920Y-57211891D01*
X160511891Y-57378920D01*
X160511886Y-57378926D01*
X160376400Y-57572420D01*
X160376399Y-57572422D01*
X160276570Y-57786507D01*
X160276567Y-57786513D01*
X160219364Y-57999999D01*
X160219364Y-58000000D01*
X161116988Y-58000000D01*
X161084075Y-58057007D01*
X161050000Y-58184174D01*
X161050000Y-58315826D01*
X161084075Y-58442993D01*
X161116988Y-58500000D01*
X160219364Y-58500000D01*
X160276567Y-58713486D01*
X160276570Y-58713492D01*
X160376399Y-58927578D01*
X160511894Y-59121082D01*
X160678917Y-59288105D01*
X160872421Y-59423600D01*
X161086507Y-59523429D01*
X161086516Y-59523433D01*
X161300000Y-59580634D01*
X161300000Y-58683012D01*
X161357007Y-58715925D01*
X161484174Y-58750000D01*
X161615826Y-58750000D01*
X161742993Y-58715925D01*
X161800000Y-58683012D01*
X161800000Y-59580633D01*
X162013483Y-59523433D01*
X162013492Y-59523429D01*
X162227578Y-59423600D01*
X162421082Y-59288105D01*
X162588105Y-59121082D01*
X162718119Y-58935405D01*
X162772696Y-58891781D01*
X162842195Y-58884588D01*
X162904549Y-58916110D01*
X162921269Y-58935405D01*
X163051505Y-59121401D01*
X163218599Y-59288495D01*
X163315384Y-59356265D01*
X163412165Y-59424032D01*
X163412167Y-59424033D01*
X163412170Y-59424035D01*
X163626337Y-59523903D01*
X163854592Y-59585063D01*
X164031034Y-59600500D01*
X164089999Y-59605659D01*
X164090000Y-59605659D01*
X164117841Y-59603223D01*
X164186341Y-59616989D01*
X164236524Y-59665604D01*
X164252458Y-59733632D01*
X164229083Y-59799476D01*
X164216330Y-59814432D01*
X139667584Y-84363181D01*
X139606261Y-84396666D01*
X139579903Y-84399500D01*
X138481692Y-84399500D01*
X138414653Y-84379815D01*
X138380119Y-84346625D01*
X138250047Y-84160861D01*
X138250045Y-84160858D01*
X138089141Y-83999954D01*
X137902734Y-83869432D01*
X137902732Y-83869431D01*
X137696497Y-83773261D01*
X137696488Y-83773258D01*
X137476697Y-83714366D01*
X137476693Y-83714365D01*
X137476692Y-83714365D01*
X137476691Y-83714364D01*
X137476686Y-83714364D01*
X137250002Y-83694532D01*
X137249998Y-83694532D01*
X137023313Y-83714364D01*
X137023302Y-83714366D01*
X136803511Y-83773258D01*
X136803502Y-83773261D01*
X136597267Y-83869431D01*
X136597265Y-83869432D01*
X136410858Y-83999954D01*
X136249954Y-84160858D01*
X136119432Y-84347265D01*
X136119431Y-84347267D01*
X136023261Y-84553502D01*
X136023258Y-84553511D01*
X135964366Y-84773302D01*
X135964364Y-84773313D01*
X135944532Y-84999998D01*
X99750500Y-84999998D01*
X99750500Y-79999997D01*
X135945034Y-79999997D01*
X135945034Y-80000002D01*
X135964858Y-80226599D01*
X135964860Y-80226610D01*
X136023730Y-80446317D01*
X136023735Y-80446331D01*
X136119863Y-80652478D01*
X136170974Y-80725472D01*
X136850000Y-80046446D01*
X136850000Y-80052661D01*
X136877259Y-80154394D01*
X136929920Y-80245606D01*
X137004394Y-80320080D01*
X137095606Y-80372741D01*
X137197339Y-80400000D01*
X137203553Y-80400000D01*
X136524526Y-81079025D01*
X136597513Y-81130132D01*
X136597521Y-81130136D01*
X136803668Y-81226264D01*
X136803682Y-81226269D01*
X137023389Y-81285139D01*
X137023400Y-81285141D01*
X137249998Y-81304966D01*
X137250002Y-81304966D01*
X137476599Y-81285141D01*
X137476610Y-81285139D01*
X137696317Y-81226269D01*
X137696331Y-81226264D01*
X137902478Y-81130136D01*
X137975471Y-81079024D01*
X137296447Y-80400000D01*
X137302661Y-80400000D01*
X137404394Y-80372741D01*
X137495606Y-80320080D01*
X137570080Y-80245606D01*
X137622741Y-80154394D01*
X137650000Y-80052661D01*
X137650000Y-80046447D01*
X138329024Y-80725471D01*
X138380136Y-80652478D01*
X138476264Y-80446331D01*
X138476269Y-80446317D01*
X138535139Y-80226610D01*
X138535141Y-80226599D01*
X138554966Y-80000002D01*
X138554966Y-79999997D01*
X138535141Y-79773400D01*
X138535139Y-79773389D01*
X138476269Y-79553682D01*
X138476264Y-79553668D01*
X138380136Y-79347521D01*
X138380132Y-79347513D01*
X138329025Y-79274526D01*
X137650000Y-79953551D01*
X137650000Y-79947339D01*
X137622741Y-79845606D01*
X137570080Y-79754394D01*
X137495606Y-79679920D01*
X137404394Y-79627259D01*
X137302661Y-79600000D01*
X137296448Y-79600000D01*
X137975472Y-78920974D01*
X137902478Y-78869863D01*
X137696331Y-78773735D01*
X137696317Y-78773730D01*
X137476610Y-78714860D01*
X137476599Y-78714858D01*
X137250002Y-78695034D01*
X137249998Y-78695034D01*
X137023400Y-78714858D01*
X137023389Y-78714860D01*
X136803682Y-78773730D01*
X136803673Y-78773734D01*
X136597516Y-78869866D01*
X136597512Y-78869868D01*
X136524526Y-78920973D01*
X136524526Y-78920974D01*
X137203553Y-79600000D01*
X137197339Y-79600000D01*
X137095606Y-79627259D01*
X137004394Y-79679920D01*
X136929920Y-79754394D01*
X136877259Y-79845606D01*
X136850000Y-79947339D01*
X136850000Y-79953552D01*
X136170974Y-79274526D01*
X136170973Y-79274526D01*
X136119868Y-79347512D01*
X136119866Y-79347516D01*
X136023734Y-79553673D01*
X136023730Y-79553682D01*
X135964860Y-79773389D01*
X135964858Y-79773400D01*
X135945034Y-79999997D01*
X99750500Y-79999997D01*
X99750500Y-71852135D01*
X112529500Y-71852135D01*
X112529500Y-73647870D01*
X112529501Y-73647876D01*
X112535908Y-73707483D01*
X112586202Y-73842328D01*
X112586206Y-73842335D01*
X112672452Y-73957544D01*
X112672455Y-73957547D01*
X112787664Y-74043793D01*
X112787671Y-74043797D01*
X112922517Y-74094091D01*
X112922516Y-74094091D01*
X112929444Y-74094835D01*
X112982127Y-74100500D01*
X114777872Y-74100499D01*
X114837483Y-74094091D01*
X114972331Y-74043796D01*
X115087546Y-73957546D01*
X115173796Y-73842331D01*
X115222810Y-73710916D01*
X115264681Y-73654984D01*
X115330145Y-73630566D01*
X115398418Y-73645417D01*
X115426673Y-73666569D01*
X115548599Y-73788495D01*
X115645384Y-73856265D01*
X115742165Y-73924032D01*
X115742167Y-73924033D01*
X115742170Y-73924035D01*
X115956337Y-74023903D01*
X116184592Y-74085063D01*
X116361034Y-74100500D01*
X116419999Y-74105659D01*
X116420000Y-74105659D01*
X116420001Y-74105659D01*
X116478966Y-74100500D01*
X116655408Y-74085063D01*
X116883663Y-74023903D01*
X117097830Y-73924035D01*
X117291401Y-73788495D01*
X117458495Y-73621401D01*
X117588730Y-73435405D01*
X117643307Y-73391781D01*
X117712805Y-73384587D01*
X117775160Y-73416110D01*
X117791879Y-73435405D01*
X117921890Y-73621078D01*
X118088917Y-73788105D01*
X118282421Y-73923600D01*
X118496507Y-74023429D01*
X118496516Y-74023433D01*
X118710000Y-74080634D01*
X118710000Y-73183012D01*
X118767007Y-73215925D01*
X118894174Y-73250000D01*
X119025826Y-73250000D01*
X119152993Y-73215925D01*
X119210000Y-73183012D01*
X119210000Y-74080633D01*
X119423483Y-74023433D01*
X119423492Y-74023429D01*
X119637578Y-73923600D01*
X119831082Y-73788105D01*
X119998105Y-73621082D01*
X120128119Y-73435405D01*
X120182696Y-73391781D01*
X120252195Y-73384588D01*
X120314549Y-73416110D01*
X120331269Y-73435405D01*
X120461505Y-73621401D01*
X120628599Y-73788495D01*
X120725384Y-73856265D01*
X120822165Y-73924032D01*
X120822167Y-73924033D01*
X120822170Y-73924035D01*
X121036337Y-74023903D01*
X121264592Y-74085063D01*
X121441034Y-74100500D01*
X121499999Y-74105659D01*
X121500000Y-74105659D01*
X121500001Y-74105659D01*
X121558966Y-74100500D01*
X121735408Y-74085063D01*
X121963663Y-74023903D01*
X122177830Y-73924035D01*
X122371401Y-73788495D01*
X122538495Y-73621401D01*
X122674035Y-73427830D01*
X122773903Y-73213663D01*
X122835063Y-72985408D01*
X122855659Y-72750000D01*
X122835063Y-72514592D01*
X122773903Y-72286337D01*
X122674035Y-72072171D01*
X122668731Y-72064595D01*
X122538494Y-71878597D01*
X122371402Y-71711506D01*
X122371395Y-71711501D01*
X122177834Y-71575967D01*
X122177830Y-71575965D01*
X122108048Y-71543425D01*
X121963663Y-71476097D01*
X121963659Y-71476096D01*
X121963655Y-71476094D01*
X121735413Y-71414938D01*
X121735403Y-71414936D01*
X121500001Y-71394341D01*
X121499999Y-71394341D01*
X121264596Y-71414936D01*
X121264586Y-71414938D01*
X121036344Y-71476094D01*
X121036337Y-71476096D01*
X121036337Y-71476097D01*
X121034960Y-71476739D01*
X120822171Y-71575964D01*
X120822169Y-71575965D01*
X120628597Y-71711505D01*
X120461508Y-71878594D01*
X120331269Y-72064595D01*
X120276692Y-72108219D01*
X120207193Y-72115412D01*
X120144839Y-72083890D01*
X120128119Y-72064594D01*
X119998113Y-71878926D01*
X119998108Y-71878920D01*
X119831082Y-71711894D01*
X119637578Y-71576399D01*
X119423492Y-71476570D01*
X119423486Y-71476567D01*
X119210000Y-71419364D01*
X119210000Y-72316988D01*
X119152993Y-72284075D01*
X119025826Y-72250000D01*
X118894174Y-72250000D01*
X118767007Y-72284075D01*
X118710000Y-72316988D01*
X118710000Y-71419364D01*
X118709999Y-71419364D01*
X118496513Y-71476567D01*
X118496507Y-71476570D01*
X118282422Y-71576399D01*
X118282420Y-71576400D01*
X118088926Y-71711886D01*
X118088920Y-71711891D01*
X117921891Y-71878920D01*
X117921890Y-71878922D01*
X117791880Y-72064595D01*
X117737303Y-72108219D01*
X117667804Y-72115412D01*
X117605450Y-72083890D01*
X117588730Y-72064594D01*
X117458494Y-71878597D01*
X117291402Y-71711506D01*
X117291395Y-71711501D01*
X117097834Y-71575967D01*
X117097830Y-71575965D01*
X117028048Y-71543425D01*
X116883663Y-71476097D01*
X116883659Y-71476096D01*
X116883655Y-71476094D01*
X116655413Y-71414938D01*
X116655403Y-71414936D01*
X116420001Y-71394341D01*
X116419999Y-71394341D01*
X116184596Y-71414936D01*
X116184586Y-71414938D01*
X115956344Y-71476094D01*
X115956337Y-71476096D01*
X115956337Y-71476097D01*
X115954960Y-71476739D01*
X115742171Y-71575964D01*
X115742169Y-71575965D01*
X115548600Y-71711503D01*
X115426673Y-71833430D01*
X115365350Y-71866914D01*
X115295658Y-71861930D01*
X115239725Y-71820058D01*
X115222810Y-71789081D01*
X115173797Y-71657671D01*
X115173793Y-71657664D01*
X115087547Y-71542455D01*
X115087544Y-71542452D01*
X114972335Y-71456206D01*
X114972328Y-71456202D01*
X114837482Y-71405908D01*
X114837483Y-71405908D01*
X114777883Y-71399501D01*
X114777881Y-71399500D01*
X114777873Y-71399500D01*
X114777864Y-71399500D01*
X112982129Y-71399500D01*
X112982123Y-71399501D01*
X112922516Y-71405908D01*
X112787671Y-71456202D01*
X112787664Y-71456206D01*
X112672455Y-71542452D01*
X112672452Y-71542455D01*
X112586206Y-71657664D01*
X112586202Y-71657671D01*
X112535908Y-71792517D01*
X112529501Y-71852116D01*
X112529500Y-71852135D01*
X99750500Y-71852135D01*
X99750500Y-70249998D01*
X148944532Y-70249998D01*
X148944532Y-70250001D01*
X148964364Y-70476686D01*
X148964366Y-70476697D01*
X149023258Y-70696488D01*
X149023261Y-70696497D01*
X149119431Y-70902732D01*
X149119432Y-70902734D01*
X149249954Y-71089141D01*
X149410858Y-71250045D01*
X149410861Y-71250047D01*
X149597266Y-71380568D01*
X149803504Y-71476739D01*
X150023308Y-71535635D01*
X150185230Y-71549801D01*
X150249998Y-71555468D01*
X150250000Y-71555468D01*
X150250002Y-71555468D01*
X150306673Y-71550509D01*
X150476692Y-71535635D01*
X150696496Y-71476739D01*
X150902734Y-71380568D01*
X151089139Y-71250047D01*
X151250047Y-71089139D01*
X151380568Y-70902734D01*
X151476739Y-70696496D01*
X151535635Y-70476692D01*
X151555468Y-70250000D01*
X151535635Y-70023308D01*
X151476739Y-69803504D01*
X151380568Y-69597266D01*
X151250047Y-69410861D01*
X151250045Y-69410858D01*
X151089141Y-69249954D01*
X150902734Y-69119432D01*
X150902732Y-69119431D01*
X150696497Y-69023261D01*
X150696488Y-69023258D01*
X150476697Y-68964366D01*
X150476693Y-68964365D01*
X150476692Y-68964365D01*
X150476691Y-68964364D01*
X150476686Y-68964364D01*
X150250002Y-68944532D01*
X150249998Y-68944532D01*
X150023313Y-68964364D01*
X150023302Y-68964366D01*
X149803511Y-69023258D01*
X149803502Y-69023261D01*
X149597267Y-69119431D01*
X149597265Y-69119432D01*
X149410858Y-69249954D01*
X149249954Y-69410858D01*
X149119432Y-69597265D01*
X149119431Y-69597267D01*
X149023261Y-69803502D01*
X149023258Y-69803511D01*
X148964366Y-70023302D01*
X148964364Y-70023313D01*
X148944532Y-70249998D01*
X99750500Y-70249998D01*
X99750500Y-58749993D01*
X108164467Y-58749993D01*
X108164467Y-58750006D01*
X108184587Y-59223673D01*
X108244810Y-59693961D01*
X108344696Y-60157432D01*
X108344698Y-60157440D01*
X108483527Y-60610765D01*
X108483529Y-60610770D01*
X108660298Y-61050677D01*
X108660302Y-61050688D01*
X108873741Y-61474018D01*
X108873752Y-61474038D01*
X108998041Y-61675897D01*
X109122332Y-61877758D01*
X109404256Y-62258944D01*
X109404261Y-62258949D01*
X109404262Y-62258951D01*
X109717489Y-62614846D01*
X110059788Y-62942913D01*
X110059790Y-62942914D01*
X110428654Y-63240751D01*
X110428655Y-63240752D01*
X110579322Y-63342584D01*
X110821464Y-63506244D01*
X110941561Y-63573334D01*
X111235362Y-63737462D01*
X111235384Y-63737473D01*
X111666365Y-63932288D01*
X111667398Y-63932755D01*
X112114429Y-64090701D01*
X112573244Y-64210167D01*
X113040538Y-64290293D01*
X113186774Y-64302739D01*
X113512924Y-64330499D01*
X113512941Y-64330499D01*
X113512943Y-64330500D01*
X113512944Y-64330500D01*
X113987056Y-64330500D01*
X113987057Y-64330500D01*
X113987058Y-64330499D01*
X113987075Y-64330499D01*
X114268242Y-64306567D01*
X114459462Y-64290293D01*
X114926756Y-64210167D01*
X115385571Y-64090701D01*
X115832602Y-63932755D01*
X116264628Y-63737467D01*
X116678536Y-63506244D01*
X117071343Y-63240753D01*
X117440209Y-62942914D01*
X117440211Y-62942913D01*
X117440215Y-62942908D01*
X117440220Y-62942905D01*
X117782510Y-62614847D01*
X118095744Y-62258944D01*
X118377668Y-61877758D01*
X118626249Y-61474036D01*
X118839697Y-61050688D01*
X119016473Y-60610763D01*
X119155304Y-60157432D01*
X119255190Y-59693960D01*
X119315411Y-59223686D01*
X119315414Y-59223631D01*
X119335533Y-58750006D01*
X119335533Y-58749993D01*
X138134968Y-58749993D01*
X138134968Y-58750006D01*
X138155086Y-59223631D01*
X138215304Y-59693874D01*
X138315181Y-60157306D01*
X138315183Y-60157314D01*
X138453999Y-60610598D01*
X138454004Y-60610612D01*
X138630755Y-61050471D01*
X138630759Y-61050482D01*
X138844179Y-61473774D01*
X138844189Y-61473794D01*
X139092750Y-61877481D01*
X139374648Y-62258633D01*
X139374654Y-62258641D01*
X139600825Y-62515620D01*
X139600826Y-62515620D01*
X141392818Y-60723627D01*
X141442208Y-60785560D01*
X141684440Y-61027792D01*
X141746371Y-61077180D01*
X139953983Y-62869568D01*
X140030120Y-62942537D01*
X140030122Y-62942538D01*
X140398952Y-63240348D01*
X140398953Y-63240349D01*
X140791716Y-63505809D01*
X140791735Y-63505821D01*
X141205588Y-63737014D01*
X141205610Y-63737025D01*
X141637579Y-63932288D01*
X141637585Y-63932290D01*
X142084579Y-64090223D01*
X142543351Y-64209677D01*
X143010597Y-64289795D01*
X143010605Y-64289796D01*
X143482946Y-64329999D01*
X143482966Y-64330000D01*
X143957034Y-64330000D01*
X143957053Y-64329999D01*
X144429394Y-64289796D01*
X144429402Y-64289795D01*
X144896648Y-64209677D01*
X145355420Y-64090223D01*
X145802414Y-63932290D01*
X145802420Y-63932288D01*
X146234389Y-63737025D01*
X146234411Y-63737014D01*
X146648264Y-63505821D01*
X146648283Y-63505809D01*
X147041039Y-63240353D01*
X147409886Y-62942531D01*
X147486015Y-62869568D01*
X145693628Y-61077181D01*
X145755560Y-61027792D01*
X145997792Y-60785560D01*
X146047181Y-60723628D01*
X147839173Y-62515620D01*
X148065346Y-62258638D01*
X148065360Y-62258621D01*
X148347249Y-61877481D01*
X148595810Y-61473794D01*
X148595820Y-61473774D01*
X148809240Y-61050482D01*
X148809244Y-61050471D01*
X148985995Y-60610612D01*
X148986000Y-60610598D01*
X149124816Y-60157314D01*
X149124818Y-60157306D01*
X149224695Y-59693874D01*
X149284913Y-59223631D01*
X149305032Y-58750006D01*
X149305032Y-58749993D01*
X149284913Y-58276368D01*
X149224695Y-57806125D01*
X149124818Y-57342693D01*
X149124816Y-57342685D01*
X148986000Y-56889401D01*
X148985995Y-56889387D01*
X148809244Y-56449528D01*
X148809240Y-56449517D01*
X148595820Y-56026225D01*
X148595810Y-56026205D01*
X148347249Y-55622518D01*
X148065351Y-55241366D01*
X148065345Y-55241358D01*
X147839173Y-54984378D01*
X146047180Y-56776371D01*
X145997792Y-56714440D01*
X145755560Y-56472208D01*
X145693627Y-56422818D01*
X147486015Y-54630430D01*
X147409879Y-54557462D01*
X147409877Y-54557461D01*
X147041047Y-54259651D01*
X147041046Y-54259650D01*
X146648283Y-53994190D01*
X146648264Y-53994178D01*
X146468424Y-53893713D01*
X189149500Y-53893713D01*
X189149500Y-54106286D01*
X189182753Y-54316239D01*
X189248444Y-54518414D01*
X189344951Y-54707820D01*
X189469890Y-54879786D01*
X189620213Y-55030109D01*
X189792179Y-55155048D01*
X189792181Y-55155049D01*
X189792184Y-55155051D01*
X189981588Y-55251557D01*
X190183757Y-55317246D01*
X190393713Y-55350500D01*
X190393714Y-55350500D01*
X190606286Y-55350500D01*
X190606287Y-55350500D01*
X190816243Y-55317246D01*
X191018412Y-55251557D01*
X191207816Y-55155051D01*
X191229789Y-55139086D01*
X191379786Y-55030109D01*
X191379788Y-55030106D01*
X191379792Y-55030104D01*
X191530104Y-54879792D01*
X191530106Y-54879788D01*
X191530109Y-54879786D01*
X191655048Y-54707820D01*
X191655047Y-54707820D01*
X191655051Y-54707816D01*
X191751557Y-54518412D01*
X191817246Y-54316243D01*
X191850500Y-54106287D01*
X191850500Y-53893713D01*
X191817246Y-53683757D01*
X191751557Y-53481588D01*
X191655051Y-53292184D01*
X191655049Y-53292181D01*
X191655048Y-53292179D01*
X191530109Y-53120213D01*
X191379786Y-52969890D01*
X191207820Y-52844951D01*
X191018414Y-52748444D01*
X191018413Y-52748443D01*
X191018412Y-52748443D01*
X190816243Y-52682754D01*
X190816241Y-52682753D01*
X190816240Y-52682753D01*
X190654957Y-52657208D01*
X190606287Y-52649500D01*
X190393713Y-52649500D01*
X190345042Y-52657208D01*
X190183760Y-52682753D01*
X189981585Y-52748444D01*
X189792179Y-52844951D01*
X189620213Y-52969890D01*
X189469890Y-53120213D01*
X189344951Y-53292179D01*
X189248444Y-53481585D01*
X189182753Y-53683760D01*
X189149500Y-53893713D01*
X146468424Y-53893713D01*
X146234411Y-53762985D01*
X146234389Y-53762974D01*
X145802420Y-53567711D01*
X145802414Y-53567709D01*
X145355420Y-53409776D01*
X144896648Y-53290322D01*
X144429402Y-53210204D01*
X144429394Y-53210203D01*
X143957053Y-53170000D01*
X143482946Y-53170000D01*
X143010605Y-53210203D01*
X143010597Y-53210204D01*
X142543351Y-53290322D01*
X142084579Y-53409776D01*
X141637585Y-53567709D01*
X141637579Y-53567711D01*
X141205610Y-53762974D01*
X141205588Y-53762985D01*
X140791735Y-53994178D01*
X140791716Y-53994190D01*
X140398953Y-54259650D01*
X140398952Y-54259651D01*
X140030123Y-54557460D01*
X140030107Y-54557474D01*
X139953984Y-54630431D01*
X141746371Y-56422819D01*
X141684440Y-56472208D01*
X141442208Y-56714440D01*
X141392818Y-56776371D01*
X139600826Y-54984379D01*
X139374648Y-55241366D01*
X139374645Y-55241370D01*
X139092750Y-55622518D01*
X138844189Y-56026205D01*
X138844179Y-56026225D01*
X138630759Y-56449517D01*
X138630755Y-56449528D01*
X138454004Y-56889387D01*
X138453999Y-56889401D01*
X138315183Y-57342685D01*
X138315181Y-57342693D01*
X138215304Y-57806125D01*
X138155086Y-58276368D01*
X138134968Y-58749993D01*
X119335533Y-58749993D01*
X119315412Y-58276326D01*
X119315411Y-58276320D01*
X119315411Y-58276314D01*
X119255190Y-57806040D01*
X119155304Y-57342568D01*
X119016473Y-56889237D01*
X118839697Y-56449312D01*
X118839697Y-56449311D01*
X118626258Y-56025981D01*
X118626247Y-56025961D01*
X118425545Y-55700000D01*
X118377668Y-55622242D01*
X118095744Y-55241056D01*
X117782510Y-54885153D01*
X117516738Y-54630431D01*
X117440211Y-54557086D01*
X117440209Y-54557085D01*
X117071345Y-54259248D01*
X117071344Y-54259247D01*
X116678546Y-53993763D01*
X116678536Y-53993756D01*
X116667662Y-53987681D01*
X116264637Y-53762537D01*
X116264615Y-53762526D01*
X115832608Y-53567247D01*
X115385566Y-53409297D01*
X114926754Y-53289832D01*
X114459472Y-53209708D01*
X114459446Y-53209705D01*
X113987075Y-53169500D01*
X113987057Y-53169500D01*
X113512943Y-53169500D01*
X113512924Y-53169500D01*
X113040553Y-53209705D01*
X113040527Y-53209708D01*
X112573245Y-53289832D01*
X112114433Y-53409297D01*
X111667391Y-53567247D01*
X111235384Y-53762526D01*
X111235362Y-53762537D01*
X110821472Y-53993751D01*
X110821453Y-53993763D01*
X110428655Y-54259247D01*
X110428654Y-54259248D01*
X110059790Y-54557085D01*
X110059788Y-54557086D01*
X109717489Y-54885153D01*
X109404262Y-55241048D01*
X109404256Y-55241055D01*
X109404256Y-55241056D01*
X109347906Y-55317246D01*
X109122331Y-55622243D01*
X108873752Y-56025961D01*
X108873741Y-56025981D01*
X108660302Y-56449311D01*
X108660298Y-56449322D01*
X108483529Y-56889229D01*
X108483527Y-56889234D01*
X108344698Y-57342559D01*
X108344696Y-57342567D01*
X108244810Y-57806038D01*
X108184587Y-58276326D01*
X108164467Y-58749993D01*
X99750500Y-58749993D01*
X99750500Y-53893713D01*
X100649500Y-53893713D01*
X100649500Y-54106286D01*
X100682753Y-54316239D01*
X100748444Y-54518414D01*
X100844951Y-54707820D01*
X100969890Y-54879786D01*
X101120213Y-55030109D01*
X101292179Y-55155048D01*
X101292181Y-55155049D01*
X101292184Y-55155051D01*
X101481588Y-55251557D01*
X101683757Y-55317246D01*
X101893713Y-55350500D01*
X101893714Y-55350500D01*
X102106286Y-55350500D01*
X102106287Y-55350500D01*
X102316243Y-55317246D01*
X102518412Y-55251557D01*
X102707816Y-55155051D01*
X102729789Y-55139086D01*
X102879786Y-55030109D01*
X102879788Y-55030106D01*
X102879792Y-55030104D01*
X103030104Y-54879792D01*
X103030106Y-54879788D01*
X103030109Y-54879786D01*
X103155048Y-54707820D01*
X103155047Y-54707820D01*
X103155051Y-54707816D01*
X103251557Y-54518412D01*
X103317246Y-54316243D01*
X103350500Y-54106287D01*
X103350500Y-53893713D01*
X103317246Y-53683757D01*
X103251557Y-53481588D01*
X103155051Y-53292184D01*
X103155049Y-53292181D01*
X103155048Y-53292179D01*
X103030109Y-53120213D01*
X102879786Y-52969890D01*
X102707820Y-52844951D01*
X102518414Y-52748444D01*
X102518413Y-52748443D01*
X102518412Y-52748443D01*
X102316243Y-52682754D01*
X102316241Y-52682753D01*
X102316240Y-52682753D01*
X102154957Y-52657208D01*
X102106287Y-52649500D01*
X101893713Y-52649500D01*
X101845042Y-52657208D01*
X101683760Y-52682753D01*
X101481585Y-52748444D01*
X101292179Y-52844951D01*
X101120213Y-52969890D01*
X100969890Y-53120213D01*
X100844951Y-53292179D01*
X100748444Y-53481585D01*
X100682753Y-53683760D01*
X100649500Y-53893713D01*
X99750500Y-53893713D01*
X99750500Y-51874500D01*
X99770185Y-51807461D01*
X99822989Y-51761706D01*
X99874500Y-51750500D01*
X192625500Y-51750500D01*
X192692539Y-51770185D01*
G37*
G04 #@! TD.AperFunction*
M02*
