%TF.GenerationSoftware,KiCad,Pcbnew,8.0.6*%
%TF.CreationDate,2024-11-17T19:47:22-05:00*%
%TF.ProjectId,STM32_KiCAD,53544d33-325f-44b6-9943-41442e6b6963,rev?*%
%TF.SameCoordinates,Original*%
%TF.FileFunction,Drillmap*%
%TF.FilePolarity,Positive*%
%FSLAX45Y45*%
G04 Gerber Fmt 4.5, Leading zero omitted, Abs format (unit mm)*
G04 Created by KiCad (PCBNEW 8.0.6) date 2024-11-17 19:47:22*
%MOMM*%
%LPD*%
G01*
G04 APERTURE LIST*
%ADD10C,0.100000*%
%ADD11C,0.200000*%
%ADD12C,0.120000*%
%ADD13C,0.610000*%
G04 APERTURE END LIST*
D10*
X9925000Y-5125000D02*
X19325000Y-5125000D01*
X19325000Y-12550000D01*
X9925000Y-12550000D01*
X9925000Y-5125000D01*
D11*
D10*
X13860000Y-11210000D02*
X13890000Y-11240000D01*
X13890000Y-11210000D02*
X13860000Y-11240000D01*
X14160000Y-9585000D02*
X14190000Y-9615000D01*
X14190000Y-9585000D02*
X14160000Y-9615000D01*
X14185000Y-9235000D02*
X14215000Y-9265000D01*
X14215000Y-9235000D02*
X14185000Y-9265000D01*
X14335000Y-9585000D02*
X14365000Y-9615000D01*
X14365000Y-9585000D02*
X14335000Y-9615000D01*
X14835000Y-8360000D02*
X14865000Y-8390000D01*
X14865000Y-8360000D02*
X14835000Y-8390000D01*
X14922500Y-8297500D02*
X14952500Y-8327500D01*
X14952500Y-8297500D02*
X14922500Y-8327500D01*
X15110000Y-8285000D02*
X15140000Y-8315000D01*
X15140000Y-8285000D02*
X15110000Y-8315000D01*
X15135000Y-8385000D02*
X15165000Y-8415000D01*
X15165000Y-8385000D02*
X15135000Y-8415000D01*
X15185000Y-8860000D02*
X15215000Y-8890000D01*
X15215000Y-8860000D02*
X15185000Y-8890000D01*
X15185000Y-9035000D02*
X15215000Y-9065000D01*
X15215000Y-9035000D02*
X15185000Y-9065000D01*
X15860000Y-9885000D02*
X15890000Y-9915000D01*
X15890000Y-9885000D02*
X15860000Y-9915000D01*
X15960000Y-8785000D02*
X15990000Y-8815000D01*
X15990000Y-8785000D02*
X15960000Y-8815000D01*
X15985000Y-8635000D02*
X16015000Y-8665000D01*
X16015000Y-8635000D02*
X15985000Y-8665000D01*
X16035000Y-8460000D02*
X16065000Y-8490000D01*
X16065000Y-8460000D02*
X16035000Y-8490000D01*
X11365000Y-9325000D02*
G75*
G02*
X11285000Y-9325000I-40000J0D01*
G01*
X11285000Y-9325000D02*
G75*
G02*
X11365000Y-9325000I40000J0D01*
G01*
X11865000Y-9325000D02*
G75*
G02*
X11785000Y-9325000I-40000J0D01*
G01*
X11785000Y-9325000D02*
G75*
G02*
X11865000Y-9325000I40000J0D01*
G01*
X12465000Y-10675000D02*
G75*
G02*
X12385000Y-10675000I-40000J0D01*
G01*
X12385000Y-10675000D02*
G75*
G02*
X12465000Y-10675000I40000J0D01*
G01*
X12465000Y-11175000D02*
G75*
G02*
X12385000Y-11175000I-40000J0D01*
G01*
X12385000Y-11175000D02*
G75*
G02*
X12465000Y-11175000I40000J0D01*
G01*
X12630000Y-9500000D02*
G75*
G02*
X12550000Y-9500000I-40000J0D01*
G01*
X12550000Y-9500000D02*
G75*
G02*
X12630000Y-9500000I40000J0D01*
G01*
X13172000Y-10675000D02*
G75*
G02*
X13092000Y-10675000I-40000J0D01*
G01*
X13092000Y-10675000D02*
G75*
G02*
X13172000Y-10675000I40000J0D01*
G01*
X13660000Y-10675000D02*
G75*
G02*
X13580000Y-10675000I-40000J0D01*
G01*
X13580000Y-10675000D02*
G75*
G02*
X13660000Y-10675000I40000J0D01*
G01*
X13765000Y-8000000D02*
G75*
G02*
X13685000Y-8000000I-40000J0D01*
G01*
X13685000Y-8000000D02*
G75*
G02*
X13765000Y-8000000I40000J0D01*
G01*
X13765000Y-8500000D02*
G75*
G02*
X13685000Y-8500000I-40000J0D01*
G01*
X13685000Y-8500000D02*
G75*
G02*
X13765000Y-8500000I40000J0D01*
G01*
X13900000Y-9500000D02*
G75*
G02*
X13820000Y-9500000I-40000J0D01*
G01*
X13820000Y-9500000D02*
G75*
G02*
X13900000Y-9500000I40000J0D01*
G01*
X14265000Y-10675000D02*
G75*
G02*
X14185000Y-10675000I-40000J0D01*
G01*
X14185000Y-10675000D02*
G75*
G02*
X14265000Y-10675000I40000J0D01*
G01*
X14265000Y-11175000D02*
G75*
G02*
X14185000Y-11175000I-40000J0D01*
G01*
X14185000Y-11175000D02*
G75*
G02*
X14265000Y-11175000I40000J0D01*
G01*
X15065000Y-7025000D02*
G75*
G02*
X14985000Y-7025000I-40000J0D01*
G01*
X14985000Y-7025000D02*
G75*
G02*
X15065000Y-7025000I40000J0D01*
G01*
X15349000Y-7825000D02*
G75*
G02*
X15269000Y-7825000I-40000J0D01*
G01*
X15269000Y-7825000D02*
G75*
G02*
X15349000Y-7825000I40000J0D01*
G01*
X16081000Y-7025000D02*
G75*
G02*
X16001000Y-7025000I-40000J0D01*
G01*
X16001000Y-7025000D02*
G75*
G02*
X16081000Y-7025000I40000J0D01*
G01*
X16365000Y-7825000D02*
G75*
G02*
X16285000Y-7825000I-40000J0D01*
G01*
X16285000Y-7825000D02*
G75*
G02*
X16365000Y-7825000I40000J0D01*
G01*
X16971000Y-7780000D02*
X16971000Y-7870000D01*
X16926000Y-7825000D02*
X17016000Y-7825000D01*
X17225000Y-7780000D02*
X17225000Y-7870000D01*
X17180000Y-7825000D02*
X17270000Y-7825000D01*
X10685356Y-8960356D02*
X10685356Y-8889644D01*
X10614644Y-8889644D01*
X10614644Y-8960356D01*
X10685356Y-8960356D01*
X10685356Y-9214356D02*
X10685356Y-9143644D01*
X10614644Y-9143644D01*
X10614644Y-9214356D01*
X10685356Y-9214356D01*
X10685356Y-9468356D02*
X10685356Y-9397644D01*
X10614644Y-9397644D01*
X10614644Y-9468356D01*
X10685356Y-9468356D01*
X10685356Y-9722356D02*
X10685356Y-9651644D01*
X10614644Y-9651644D01*
X10614644Y-9722356D01*
X10685356Y-9722356D01*
X10685356Y-9976356D02*
X10685356Y-9905644D01*
X10614644Y-9905644D01*
X10614644Y-9976356D01*
X10685356Y-9976356D01*
X10685356Y-10230356D02*
X10685356Y-10159644D01*
X10614644Y-10159644D01*
X10614644Y-10230356D01*
X10685356Y-10230356D01*
X11423356Y-7310356D02*
X11423356Y-7239644D01*
X11352644Y-7239644D01*
X11352644Y-7310356D01*
X11423356Y-7310356D01*
X11677356Y-7310356D02*
X11677356Y-7239644D01*
X11606644Y-7239644D01*
X11606644Y-7310356D01*
X11677356Y-7310356D01*
X11931356Y-7310356D02*
X11931356Y-7239644D01*
X11860644Y-7239644D01*
X11860644Y-7310356D01*
X11931356Y-7310356D01*
X12185356Y-7310356D02*
X12185356Y-7239644D01*
X12114644Y-7239644D01*
X12114644Y-7310356D01*
X12185356Y-7310356D01*
X13656356Y-11960356D02*
X13656356Y-11889644D01*
X13585644Y-11889644D01*
X13585644Y-11960356D01*
X13656356Y-11960356D01*
X13910356Y-11960356D02*
X13910356Y-11889644D01*
X13839644Y-11889644D01*
X13839644Y-11960356D01*
X13910356Y-11960356D01*
X14164356Y-11960356D02*
X14164356Y-11889644D01*
X14093644Y-11889644D01*
X14093644Y-11960356D01*
X14164356Y-11960356D01*
X16190356Y-5860356D02*
X16190356Y-5789644D01*
X16119644Y-5789644D01*
X16119644Y-5860356D01*
X16190356Y-5860356D01*
X16444356Y-5860356D02*
X16444356Y-5789644D01*
X16373644Y-5789644D01*
X16373644Y-5860356D01*
X16444356Y-5860356D01*
X16698356Y-5860356D02*
X16698356Y-5789644D01*
X16627644Y-5789644D01*
X16627644Y-5860356D01*
X16698356Y-5860356D01*
X16704856Y-8735356D02*
X16704856Y-8664644D01*
X16634144Y-8664644D01*
X16634144Y-8735356D01*
X16704856Y-8735356D01*
X16952356Y-5860356D02*
X16952356Y-5789644D01*
X16881644Y-5789644D01*
X16881644Y-5860356D01*
X16952356Y-5860356D01*
X16958856Y-8735356D02*
X16958856Y-8664644D01*
X16888144Y-8664644D01*
X16888144Y-8735356D01*
X16958856Y-8735356D01*
X17206356Y-5860356D02*
X17206356Y-5789644D01*
X17135644Y-5789644D01*
X17135644Y-5860356D01*
X17206356Y-5860356D01*
X17212856Y-8735356D02*
X17212856Y-8664644D01*
X17142144Y-8664644D01*
X17142144Y-8735356D01*
X17212856Y-8735356D01*
X17460356Y-5860356D02*
X17460356Y-5789644D01*
X17389644Y-5789644D01*
X17389644Y-5860356D01*
X17460356Y-5860356D01*
X18485356Y-9053356D02*
X18485356Y-8982644D01*
X18414644Y-8982644D01*
X18414644Y-9053356D01*
X18485356Y-9053356D01*
X18485356Y-9307356D02*
X18485356Y-9236644D01*
X18414644Y-9236644D01*
X18414644Y-9307356D01*
X18485356Y-9307356D01*
X18485356Y-9561356D02*
X18485356Y-9490644D01*
X18414644Y-9490644D01*
X18414644Y-9561356D01*
X18485356Y-9561356D01*
X18485356Y-9815356D02*
X18485356Y-9744644D01*
X18414644Y-9744644D01*
X18414644Y-9815356D01*
X18485356Y-9815356D01*
X18510356Y-6078356D02*
X18510356Y-6007644D01*
X18439644Y-6007644D01*
X18439644Y-6078356D01*
X18510356Y-6078356D01*
X18510356Y-6332356D02*
X18510356Y-6261644D01*
X18439644Y-6261644D01*
X18439644Y-6332356D01*
X18510356Y-6332356D01*
X18510356Y-6586356D02*
X18510356Y-6515644D01*
X18439644Y-6515644D01*
X18439644Y-6586356D01*
X18510356Y-6586356D01*
X18510356Y-6840356D02*
X18510356Y-6769644D01*
X18439644Y-6769644D01*
X18439644Y-6840356D01*
X18510356Y-6840356D01*
X18510356Y-7598356D02*
X18510356Y-7527644D01*
X18439644Y-7527644D01*
X18439644Y-7598356D01*
X18510356Y-7598356D01*
X18510356Y-7852356D02*
X18510356Y-7781644D01*
X18439644Y-7781644D01*
X18439644Y-7852356D01*
X18510356Y-7852356D01*
X18510356Y-8106356D02*
X18510356Y-8035644D01*
X18439644Y-8035644D01*
X18439644Y-8106356D01*
X18510356Y-8106356D01*
D12*
X16275000Y-11060000D02*
X16335000Y-11000000D01*
X16275000Y-10940000D01*
X16215000Y-11000000D01*
X16275000Y-11060000D01*
X16775000Y-11060000D02*
X16835000Y-11000000D01*
X16775000Y-10940000D01*
X16715000Y-11000000D01*
X16775000Y-11060000D01*
X17275000Y-11060000D02*
X17335000Y-11000000D01*
X17275000Y-10940000D01*
X17215000Y-11000000D01*
X17275000Y-11060000D01*
D13*
X11070000Y-5570000D02*
X11680000Y-6180000D01*
X11680000Y-5570000D02*
X11070000Y-6180000D01*
X11680000Y-5875000D02*
G75*
G02*
X11070000Y-5875000I-305000J0D01*
G01*
X11070000Y-5875000D02*
G75*
G02*
X11680000Y-5875000I305000J0D01*
G01*
X14067000Y-5570000D02*
X14677000Y-6180000D01*
X14677000Y-5570000D02*
X14067000Y-6180000D01*
X14677000Y-5875000D02*
G75*
G02*
X14067000Y-5875000I-305000J0D01*
G01*
X14067000Y-5875000D02*
G75*
G02*
X14677000Y-5875000I305000J0D01*
G01*
D11*
X10180777Y-12866484D02*
X10180777Y-12666484D01*
X10180777Y-12666484D02*
X10228396Y-12666484D01*
X10228396Y-12666484D02*
X10256967Y-12676008D01*
X10256967Y-12676008D02*
X10276015Y-12695055D01*
X10276015Y-12695055D02*
X10285539Y-12714103D01*
X10285539Y-12714103D02*
X10295063Y-12752198D01*
X10295063Y-12752198D02*
X10295063Y-12780769D01*
X10295063Y-12780769D02*
X10285539Y-12818865D01*
X10285539Y-12818865D02*
X10276015Y-12837912D01*
X10276015Y-12837912D02*
X10256967Y-12856960D01*
X10256967Y-12856960D02*
X10228396Y-12866484D01*
X10228396Y-12866484D02*
X10180777Y-12866484D01*
X10380777Y-12866484D02*
X10380777Y-12733150D01*
X10380777Y-12771246D02*
X10390301Y-12752198D01*
X10390301Y-12752198D02*
X10399824Y-12742674D01*
X10399824Y-12742674D02*
X10418872Y-12733150D01*
X10418872Y-12733150D02*
X10437920Y-12733150D01*
X10504586Y-12866484D02*
X10504586Y-12733150D01*
X10504586Y-12666484D02*
X10495063Y-12676008D01*
X10495063Y-12676008D02*
X10504586Y-12685531D01*
X10504586Y-12685531D02*
X10514110Y-12676008D01*
X10514110Y-12676008D02*
X10504586Y-12666484D01*
X10504586Y-12666484D02*
X10504586Y-12685531D01*
X10628396Y-12866484D02*
X10609348Y-12856960D01*
X10609348Y-12856960D02*
X10599824Y-12837912D01*
X10599824Y-12837912D02*
X10599824Y-12666484D01*
X10733158Y-12866484D02*
X10714110Y-12856960D01*
X10714110Y-12856960D02*
X10704586Y-12837912D01*
X10704586Y-12837912D02*
X10704586Y-12666484D01*
X10961729Y-12866484D02*
X10961729Y-12666484D01*
X10961729Y-12666484D02*
X11028396Y-12809341D01*
X11028396Y-12809341D02*
X11095063Y-12666484D01*
X11095063Y-12666484D02*
X11095063Y-12866484D01*
X11276015Y-12866484D02*
X11276015Y-12761722D01*
X11276015Y-12761722D02*
X11266491Y-12742674D01*
X11266491Y-12742674D02*
X11247443Y-12733150D01*
X11247443Y-12733150D02*
X11209348Y-12733150D01*
X11209348Y-12733150D02*
X11190301Y-12742674D01*
X11276015Y-12856960D02*
X11256967Y-12866484D01*
X11256967Y-12866484D02*
X11209348Y-12866484D01*
X11209348Y-12866484D02*
X11190301Y-12856960D01*
X11190301Y-12856960D02*
X11180777Y-12837912D01*
X11180777Y-12837912D02*
X11180777Y-12818865D01*
X11180777Y-12818865D02*
X11190301Y-12799817D01*
X11190301Y-12799817D02*
X11209348Y-12790293D01*
X11209348Y-12790293D02*
X11256967Y-12790293D01*
X11256967Y-12790293D02*
X11276015Y-12780769D01*
X11371253Y-12733150D02*
X11371253Y-12933150D01*
X11371253Y-12742674D02*
X11390301Y-12733150D01*
X11390301Y-12733150D02*
X11428396Y-12733150D01*
X11428396Y-12733150D02*
X11447443Y-12742674D01*
X11447443Y-12742674D02*
X11456967Y-12752198D01*
X11456967Y-12752198D02*
X11466491Y-12771246D01*
X11466491Y-12771246D02*
X11466491Y-12828388D01*
X11466491Y-12828388D02*
X11456967Y-12847436D01*
X11456967Y-12847436D02*
X11447443Y-12856960D01*
X11447443Y-12856960D02*
X11428396Y-12866484D01*
X11428396Y-12866484D02*
X11390301Y-12866484D01*
X11390301Y-12866484D02*
X11371253Y-12856960D01*
X11552205Y-12847436D02*
X11561729Y-12856960D01*
X11561729Y-12856960D02*
X11552205Y-12866484D01*
X11552205Y-12866484D02*
X11542682Y-12856960D01*
X11542682Y-12856960D02*
X11552205Y-12847436D01*
X11552205Y-12847436D02*
X11552205Y-12866484D01*
X11552205Y-12742674D02*
X11561729Y-12752198D01*
X11561729Y-12752198D02*
X11552205Y-12761722D01*
X11552205Y-12761722D02*
X11542682Y-12752198D01*
X11542682Y-12752198D02*
X11552205Y-12742674D01*
X11552205Y-12742674D02*
X11552205Y-12761722D01*
D10*
X9890000Y-13180000D02*
X9920000Y-13210000D01*
X9920000Y-13180000D02*
X9890000Y-13210000D01*
D11*
X10218872Y-13086484D02*
X10237920Y-13086484D01*
X10237920Y-13086484D02*
X10256967Y-13096008D01*
X10256967Y-13096008D02*
X10266491Y-13105531D01*
X10266491Y-13105531D02*
X10276015Y-13124579D01*
X10276015Y-13124579D02*
X10285539Y-13162674D01*
X10285539Y-13162674D02*
X10285539Y-13210293D01*
X10285539Y-13210293D02*
X10276015Y-13248388D01*
X10276015Y-13248388D02*
X10266491Y-13267436D01*
X10266491Y-13267436D02*
X10256967Y-13276960D01*
X10256967Y-13276960D02*
X10237920Y-13286484D01*
X10237920Y-13286484D02*
X10218872Y-13286484D01*
X10218872Y-13286484D02*
X10199824Y-13276960D01*
X10199824Y-13276960D02*
X10190301Y-13267436D01*
X10190301Y-13267436D02*
X10180777Y-13248388D01*
X10180777Y-13248388D02*
X10171253Y-13210293D01*
X10171253Y-13210293D02*
X10171253Y-13162674D01*
X10171253Y-13162674D02*
X10180777Y-13124579D01*
X10180777Y-13124579D02*
X10190301Y-13105531D01*
X10190301Y-13105531D02*
X10199824Y-13096008D01*
X10199824Y-13096008D02*
X10218872Y-13086484D01*
X10371253Y-13267436D02*
X10380777Y-13276960D01*
X10380777Y-13276960D02*
X10371253Y-13286484D01*
X10371253Y-13286484D02*
X10361729Y-13276960D01*
X10361729Y-13276960D02*
X10371253Y-13267436D01*
X10371253Y-13267436D02*
X10371253Y-13286484D01*
X10447444Y-13086484D02*
X10571253Y-13086484D01*
X10571253Y-13086484D02*
X10504586Y-13162674D01*
X10504586Y-13162674D02*
X10533158Y-13162674D01*
X10533158Y-13162674D02*
X10552205Y-13172198D01*
X10552205Y-13172198D02*
X10561729Y-13181722D01*
X10561729Y-13181722D02*
X10571253Y-13200769D01*
X10571253Y-13200769D02*
X10571253Y-13248388D01*
X10571253Y-13248388D02*
X10561729Y-13267436D01*
X10561729Y-13267436D02*
X10552205Y-13276960D01*
X10552205Y-13276960D02*
X10533158Y-13286484D01*
X10533158Y-13286484D02*
X10476015Y-13286484D01*
X10476015Y-13286484D02*
X10456967Y-13276960D01*
X10456967Y-13276960D02*
X10447444Y-13267436D01*
X10695063Y-13086484D02*
X10714110Y-13086484D01*
X10714110Y-13086484D02*
X10733158Y-13096008D01*
X10733158Y-13096008D02*
X10742682Y-13105531D01*
X10742682Y-13105531D02*
X10752205Y-13124579D01*
X10752205Y-13124579D02*
X10761729Y-13162674D01*
X10761729Y-13162674D02*
X10761729Y-13210293D01*
X10761729Y-13210293D02*
X10752205Y-13248388D01*
X10752205Y-13248388D02*
X10742682Y-13267436D01*
X10742682Y-13267436D02*
X10733158Y-13276960D01*
X10733158Y-13276960D02*
X10714110Y-13286484D01*
X10714110Y-13286484D02*
X10695063Y-13286484D01*
X10695063Y-13286484D02*
X10676015Y-13276960D01*
X10676015Y-13276960D02*
X10666491Y-13267436D01*
X10666491Y-13267436D02*
X10656967Y-13248388D01*
X10656967Y-13248388D02*
X10647444Y-13210293D01*
X10647444Y-13210293D02*
X10647444Y-13162674D01*
X10647444Y-13162674D02*
X10656967Y-13124579D01*
X10656967Y-13124579D02*
X10666491Y-13105531D01*
X10666491Y-13105531D02*
X10676015Y-13096008D01*
X10676015Y-13096008D02*
X10695063Y-13086484D01*
X10885539Y-13086484D02*
X10904586Y-13086484D01*
X10904586Y-13086484D02*
X10923634Y-13096008D01*
X10923634Y-13096008D02*
X10933158Y-13105531D01*
X10933158Y-13105531D02*
X10942682Y-13124579D01*
X10942682Y-13124579D02*
X10952205Y-13162674D01*
X10952205Y-13162674D02*
X10952205Y-13210293D01*
X10952205Y-13210293D02*
X10942682Y-13248388D01*
X10942682Y-13248388D02*
X10933158Y-13267436D01*
X10933158Y-13267436D02*
X10923634Y-13276960D01*
X10923634Y-13276960D02*
X10904586Y-13286484D01*
X10904586Y-13286484D02*
X10885539Y-13286484D01*
X10885539Y-13286484D02*
X10866491Y-13276960D01*
X10866491Y-13276960D02*
X10856967Y-13267436D01*
X10856967Y-13267436D02*
X10847444Y-13248388D01*
X10847444Y-13248388D02*
X10837920Y-13210293D01*
X10837920Y-13210293D02*
X10837920Y-13162674D01*
X10837920Y-13162674D02*
X10847444Y-13124579D01*
X10847444Y-13124579D02*
X10856967Y-13105531D01*
X10856967Y-13105531D02*
X10866491Y-13096008D01*
X10866491Y-13096008D02*
X10885539Y-13086484D01*
X11037920Y-13286484D02*
X11037920Y-13153150D01*
X11037920Y-13172198D02*
X11047444Y-13162674D01*
X11047444Y-13162674D02*
X11066491Y-13153150D01*
X11066491Y-13153150D02*
X11095063Y-13153150D01*
X11095063Y-13153150D02*
X11114110Y-13162674D01*
X11114110Y-13162674D02*
X11123634Y-13181722D01*
X11123634Y-13181722D02*
X11123634Y-13286484D01*
X11123634Y-13181722D02*
X11133158Y-13162674D01*
X11133158Y-13162674D02*
X11152205Y-13153150D01*
X11152205Y-13153150D02*
X11180777Y-13153150D01*
X11180777Y-13153150D02*
X11199824Y-13162674D01*
X11199824Y-13162674D02*
X11209348Y-13181722D01*
X11209348Y-13181722D02*
X11209348Y-13286484D01*
X11304586Y-13286484D02*
X11304586Y-13153150D01*
X11304586Y-13172198D02*
X11314110Y-13162674D01*
X11314110Y-13162674D02*
X11333158Y-13153150D01*
X11333158Y-13153150D02*
X11361729Y-13153150D01*
X11361729Y-13153150D02*
X11380777Y-13162674D01*
X11380777Y-13162674D02*
X11390301Y-13181722D01*
X11390301Y-13181722D02*
X11390301Y-13286484D01*
X11390301Y-13181722D02*
X11399824Y-13162674D01*
X11399824Y-13162674D02*
X11418872Y-13153150D01*
X11418872Y-13153150D02*
X11447443Y-13153150D01*
X11447443Y-13153150D02*
X11466491Y-13162674D01*
X11466491Y-13162674D02*
X11476015Y-13181722D01*
X11476015Y-13181722D02*
X11476015Y-13286484D01*
X11866491Y-13076960D02*
X11695063Y-13334103D01*
X12123634Y-13086484D02*
X12142682Y-13086484D01*
X12142682Y-13086484D02*
X12161729Y-13096008D01*
X12161729Y-13096008D02*
X12171253Y-13105531D01*
X12171253Y-13105531D02*
X12180777Y-13124579D01*
X12180777Y-13124579D02*
X12190301Y-13162674D01*
X12190301Y-13162674D02*
X12190301Y-13210293D01*
X12190301Y-13210293D02*
X12180777Y-13248388D01*
X12180777Y-13248388D02*
X12171253Y-13267436D01*
X12171253Y-13267436D02*
X12161729Y-13276960D01*
X12161729Y-13276960D02*
X12142682Y-13286484D01*
X12142682Y-13286484D02*
X12123634Y-13286484D01*
X12123634Y-13286484D02*
X12104586Y-13276960D01*
X12104586Y-13276960D02*
X12095063Y-13267436D01*
X12095063Y-13267436D02*
X12085539Y-13248388D01*
X12085539Y-13248388D02*
X12076015Y-13210293D01*
X12076015Y-13210293D02*
X12076015Y-13162674D01*
X12076015Y-13162674D02*
X12085539Y-13124579D01*
X12085539Y-13124579D02*
X12095063Y-13105531D01*
X12095063Y-13105531D02*
X12104586Y-13096008D01*
X12104586Y-13096008D02*
X12123634Y-13086484D01*
X12276015Y-13267436D02*
X12285539Y-13276960D01*
X12285539Y-13276960D02*
X12276015Y-13286484D01*
X12276015Y-13286484D02*
X12266491Y-13276960D01*
X12266491Y-13276960D02*
X12276015Y-13267436D01*
X12276015Y-13267436D02*
X12276015Y-13286484D01*
X12409348Y-13086484D02*
X12428396Y-13086484D01*
X12428396Y-13086484D02*
X12447444Y-13096008D01*
X12447444Y-13096008D02*
X12456967Y-13105531D01*
X12456967Y-13105531D02*
X12466491Y-13124579D01*
X12466491Y-13124579D02*
X12476015Y-13162674D01*
X12476015Y-13162674D02*
X12476015Y-13210293D01*
X12476015Y-13210293D02*
X12466491Y-13248388D01*
X12466491Y-13248388D02*
X12456967Y-13267436D01*
X12456967Y-13267436D02*
X12447444Y-13276960D01*
X12447444Y-13276960D02*
X12428396Y-13286484D01*
X12428396Y-13286484D02*
X12409348Y-13286484D01*
X12409348Y-13286484D02*
X12390301Y-13276960D01*
X12390301Y-13276960D02*
X12380777Y-13267436D01*
X12380777Y-13267436D02*
X12371253Y-13248388D01*
X12371253Y-13248388D02*
X12361729Y-13210293D01*
X12361729Y-13210293D02*
X12361729Y-13162674D01*
X12361729Y-13162674D02*
X12371253Y-13124579D01*
X12371253Y-13124579D02*
X12380777Y-13105531D01*
X12380777Y-13105531D02*
X12390301Y-13096008D01*
X12390301Y-13096008D02*
X12409348Y-13086484D01*
X12666491Y-13286484D02*
X12552206Y-13286484D01*
X12609348Y-13286484D02*
X12609348Y-13086484D01*
X12609348Y-13086484D02*
X12590301Y-13115055D01*
X12590301Y-13115055D02*
X12571253Y-13134103D01*
X12571253Y-13134103D02*
X12552206Y-13143627D01*
X12856967Y-13286484D02*
X12742682Y-13286484D01*
X12799825Y-13286484D02*
X12799825Y-13086484D01*
X12799825Y-13086484D02*
X12780777Y-13115055D01*
X12780777Y-13115055D02*
X12761729Y-13134103D01*
X12761729Y-13134103D02*
X12742682Y-13143627D01*
X12971253Y-13172198D02*
X12952206Y-13162674D01*
X12952206Y-13162674D02*
X12942682Y-13153150D01*
X12942682Y-13153150D02*
X12933158Y-13134103D01*
X12933158Y-13134103D02*
X12933158Y-13124579D01*
X12933158Y-13124579D02*
X12942682Y-13105531D01*
X12942682Y-13105531D02*
X12952206Y-13096008D01*
X12952206Y-13096008D02*
X12971253Y-13086484D01*
X12971253Y-13086484D02*
X13009348Y-13086484D01*
X13009348Y-13086484D02*
X13028396Y-13096008D01*
X13028396Y-13096008D02*
X13037920Y-13105531D01*
X13037920Y-13105531D02*
X13047444Y-13124579D01*
X13047444Y-13124579D02*
X13047444Y-13134103D01*
X13047444Y-13134103D02*
X13037920Y-13153150D01*
X13037920Y-13153150D02*
X13028396Y-13162674D01*
X13028396Y-13162674D02*
X13009348Y-13172198D01*
X13009348Y-13172198D02*
X12971253Y-13172198D01*
X12971253Y-13172198D02*
X12952206Y-13181722D01*
X12952206Y-13181722D02*
X12942682Y-13191246D01*
X12942682Y-13191246D02*
X12933158Y-13210293D01*
X12933158Y-13210293D02*
X12933158Y-13248388D01*
X12933158Y-13248388D02*
X12942682Y-13267436D01*
X12942682Y-13267436D02*
X12952206Y-13276960D01*
X12952206Y-13276960D02*
X12971253Y-13286484D01*
X12971253Y-13286484D02*
X13009348Y-13286484D01*
X13009348Y-13286484D02*
X13028396Y-13276960D01*
X13028396Y-13276960D02*
X13037920Y-13267436D01*
X13037920Y-13267436D02*
X13047444Y-13248388D01*
X13047444Y-13248388D02*
X13047444Y-13210293D01*
X13047444Y-13210293D02*
X13037920Y-13191246D01*
X13037920Y-13191246D02*
X13028396Y-13181722D01*
X13028396Y-13181722D02*
X13009348Y-13172198D01*
X13123634Y-13086484D02*
X13123634Y-13124579D01*
X13199825Y-13086484D02*
X13199825Y-13124579D01*
X13495063Y-13362674D02*
X13485539Y-13353150D01*
X13485539Y-13353150D02*
X13466491Y-13324579D01*
X13466491Y-13324579D02*
X13456968Y-13305531D01*
X13456968Y-13305531D02*
X13447444Y-13276960D01*
X13447444Y-13276960D02*
X13437920Y-13229341D01*
X13437920Y-13229341D02*
X13437920Y-13191246D01*
X13437920Y-13191246D02*
X13447444Y-13143627D01*
X13447444Y-13143627D02*
X13456968Y-13115055D01*
X13456968Y-13115055D02*
X13466491Y-13096008D01*
X13466491Y-13096008D02*
X13485539Y-13067436D01*
X13485539Y-13067436D02*
X13495063Y-13057912D01*
X13676015Y-13286484D02*
X13561729Y-13286484D01*
X13618872Y-13286484D02*
X13618872Y-13086484D01*
X13618872Y-13086484D02*
X13599825Y-13115055D01*
X13599825Y-13115055D02*
X13580777Y-13134103D01*
X13580777Y-13134103D02*
X13561729Y-13143627D01*
X13847444Y-13153150D02*
X13847444Y-13286484D01*
X13799825Y-13076960D02*
X13752206Y-13219817D01*
X13752206Y-13219817D02*
X13876015Y-13219817D01*
X14104587Y-13286484D02*
X14104587Y-13086484D01*
X14190301Y-13286484D02*
X14190301Y-13181722D01*
X14190301Y-13181722D02*
X14180777Y-13162674D01*
X14180777Y-13162674D02*
X14161730Y-13153150D01*
X14161730Y-13153150D02*
X14133158Y-13153150D01*
X14133158Y-13153150D02*
X14114110Y-13162674D01*
X14114110Y-13162674D02*
X14104587Y-13172198D01*
X14314110Y-13286484D02*
X14295063Y-13276960D01*
X14295063Y-13276960D02*
X14285539Y-13267436D01*
X14285539Y-13267436D02*
X14276015Y-13248388D01*
X14276015Y-13248388D02*
X14276015Y-13191246D01*
X14276015Y-13191246D02*
X14285539Y-13172198D01*
X14285539Y-13172198D02*
X14295063Y-13162674D01*
X14295063Y-13162674D02*
X14314110Y-13153150D01*
X14314110Y-13153150D02*
X14342682Y-13153150D01*
X14342682Y-13153150D02*
X14361730Y-13162674D01*
X14361730Y-13162674D02*
X14371253Y-13172198D01*
X14371253Y-13172198D02*
X14380777Y-13191246D01*
X14380777Y-13191246D02*
X14380777Y-13248388D01*
X14380777Y-13248388D02*
X14371253Y-13267436D01*
X14371253Y-13267436D02*
X14361730Y-13276960D01*
X14361730Y-13276960D02*
X14342682Y-13286484D01*
X14342682Y-13286484D02*
X14314110Y-13286484D01*
X14495063Y-13286484D02*
X14476015Y-13276960D01*
X14476015Y-13276960D02*
X14466491Y-13257912D01*
X14466491Y-13257912D02*
X14466491Y-13086484D01*
X14647444Y-13276960D02*
X14628396Y-13286484D01*
X14628396Y-13286484D02*
X14590301Y-13286484D01*
X14590301Y-13286484D02*
X14571253Y-13276960D01*
X14571253Y-13276960D02*
X14561730Y-13257912D01*
X14561730Y-13257912D02*
X14561730Y-13181722D01*
X14561730Y-13181722D02*
X14571253Y-13162674D01*
X14571253Y-13162674D02*
X14590301Y-13153150D01*
X14590301Y-13153150D02*
X14628396Y-13153150D01*
X14628396Y-13153150D02*
X14647444Y-13162674D01*
X14647444Y-13162674D02*
X14656968Y-13181722D01*
X14656968Y-13181722D02*
X14656968Y-13200769D01*
X14656968Y-13200769D02*
X14561730Y-13219817D01*
X14733158Y-13276960D02*
X14752206Y-13286484D01*
X14752206Y-13286484D02*
X14790301Y-13286484D01*
X14790301Y-13286484D02*
X14809349Y-13276960D01*
X14809349Y-13276960D02*
X14818872Y-13257912D01*
X14818872Y-13257912D02*
X14818872Y-13248388D01*
X14818872Y-13248388D02*
X14809349Y-13229341D01*
X14809349Y-13229341D02*
X14790301Y-13219817D01*
X14790301Y-13219817D02*
X14761730Y-13219817D01*
X14761730Y-13219817D02*
X14742682Y-13210293D01*
X14742682Y-13210293D02*
X14733158Y-13191246D01*
X14733158Y-13191246D02*
X14733158Y-13181722D01*
X14733158Y-13181722D02*
X14742682Y-13162674D01*
X14742682Y-13162674D02*
X14761730Y-13153150D01*
X14761730Y-13153150D02*
X14790301Y-13153150D01*
X14790301Y-13153150D02*
X14809349Y-13162674D01*
X14885539Y-13362674D02*
X14895063Y-13353150D01*
X14895063Y-13353150D02*
X14914111Y-13324579D01*
X14914111Y-13324579D02*
X14923634Y-13305531D01*
X14923634Y-13305531D02*
X14933158Y-13276960D01*
X14933158Y-13276960D02*
X14942682Y-13229341D01*
X14942682Y-13229341D02*
X14942682Y-13191246D01*
X14942682Y-13191246D02*
X14933158Y-13143627D01*
X14933158Y-13143627D02*
X14923634Y-13115055D01*
X14923634Y-13115055D02*
X14914111Y-13096008D01*
X14914111Y-13096008D02*
X14895063Y-13067436D01*
X14895063Y-13067436D02*
X14885539Y-13057912D01*
D10*
X9920000Y-13459000D02*
G75*
G02*
X9840000Y-13459000I-40000J0D01*
G01*
X9840000Y-13459000D02*
G75*
G02*
X9920000Y-13459000I40000J0D01*
G01*
D11*
X10218872Y-13350484D02*
X10237920Y-13350484D01*
X10237920Y-13350484D02*
X10256967Y-13360008D01*
X10256967Y-13360008D02*
X10266491Y-13369531D01*
X10266491Y-13369531D02*
X10276015Y-13388579D01*
X10276015Y-13388579D02*
X10285539Y-13426674D01*
X10285539Y-13426674D02*
X10285539Y-13474293D01*
X10285539Y-13474293D02*
X10276015Y-13512388D01*
X10276015Y-13512388D02*
X10266491Y-13531436D01*
X10266491Y-13531436D02*
X10256967Y-13540960D01*
X10256967Y-13540960D02*
X10237920Y-13550484D01*
X10237920Y-13550484D02*
X10218872Y-13550484D01*
X10218872Y-13550484D02*
X10199824Y-13540960D01*
X10199824Y-13540960D02*
X10190301Y-13531436D01*
X10190301Y-13531436D02*
X10180777Y-13512388D01*
X10180777Y-13512388D02*
X10171253Y-13474293D01*
X10171253Y-13474293D02*
X10171253Y-13426674D01*
X10171253Y-13426674D02*
X10180777Y-13388579D01*
X10180777Y-13388579D02*
X10190301Y-13369531D01*
X10190301Y-13369531D02*
X10199824Y-13360008D01*
X10199824Y-13360008D02*
X10218872Y-13350484D01*
X10371253Y-13531436D02*
X10380777Y-13540960D01*
X10380777Y-13540960D02*
X10371253Y-13550484D01*
X10371253Y-13550484D02*
X10361729Y-13540960D01*
X10361729Y-13540960D02*
X10371253Y-13531436D01*
X10371253Y-13531436D02*
X10371253Y-13550484D01*
X10495063Y-13436198D02*
X10476015Y-13426674D01*
X10476015Y-13426674D02*
X10466491Y-13417150D01*
X10466491Y-13417150D02*
X10456967Y-13398103D01*
X10456967Y-13398103D02*
X10456967Y-13388579D01*
X10456967Y-13388579D02*
X10466491Y-13369531D01*
X10466491Y-13369531D02*
X10476015Y-13360008D01*
X10476015Y-13360008D02*
X10495063Y-13350484D01*
X10495063Y-13350484D02*
X10533158Y-13350484D01*
X10533158Y-13350484D02*
X10552205Y-13360008D01*
X10552205Y-13360008D02*
X10561729Y-13369531D01*
X10561729Y-13369531D02*
X10571253Y-13388579D01*
X10571253Y-13388579D02*
X10571253Y-13398103D01*
X10571253Y-13398103D02*
X10561729Y-13417150D01*
X10561729Y-13417150D02*
X10552205Y-13426674D01*
X10552205Y-13426674D02*
X10533158Y-13436198D01*
X10533158Y-13436198D02*
X10495063Y-13436198D01*
X10495063Y-13436198D02*
X10476015Y-13445722D01*
X10476015Y-13445722D02*
X10466491Y-13455246D01*
X10466491Y-13455246D02*
X10456967Y-13474293D01*
X10456967Y-13474293D02*
X10456967Y-13512388D01*
X10456967Y-13512388D02*
X10466491Y-13531436D01*
X10466491Y-13531436D02*
X10476015Y-13540960D01*
X10476015Y-13540960D02*
X10495063Y-13550484D01*
X10495063Y-13550484D02*
X10533158Y-13550484D01*
X10533158Y-13550484D02*
X10552205Y-13540960D01*
X10552205Y-13540960D02*
X10561729Y-13531436D01*
X10561729Y-13531436D02*
X10571253Y-13512388D01*
X10571253Y-13512388D02*
X10571253Y-13474293D01*
X10571253Y-13474293D02*
X10561729Y-13455246D01*
X10561729Y-13455246D02*
X10552205Y-13445722D01*
X10552205Y-13445722D02*
X10533158Y-13436198D01*
X10695063Y-13350484D02*
X10714110Y-13350484D01*
X10714110Y-13350484D02*
X10733158Y-13360008D01*
X10733158Y-13360008D02*
X10742682Y-13369531D01*
X10742682Y-13369531D02*
X10752205Y-13388579D01*
X10752205Y-13388579D02*
X10761729Y-13426674D01*
X10761729Y-13426674D02*
X10761729Y-13474293D01*
X10761729Y-13474293D02*
X10752205Y-13512388D01*
X10752205Y-13512388D02*
X10742682Y-13531436D01*
X10742682Y-13531436D02*
X10733158Y-13540960D01*
X10733158Y-13540960D02*
X10714110Y-13550484D01*
X10714110Y-13550484D02*
X10695063Y-13550484D01*
X10695063Y-13550484D02*
X10676015Y-13540960D01*
X10676015Y-13540960D02*
X10666491Y-13531436D01*
X10666491Y-13531436D02*
X10656967Y-13512388D01*
X10656967Y-13512388D02*
X10647444Y-13474293D01*
X10647444Y-13474293D02*
X10647444Y-13426674D01*
X10647444Y-13426674D02*
X10656967Y-13388579D01*
X10656967Y-13388579D02*
X10666491Y-13369531D01*
X10666491Y-13369531D02*
X10676015Y-13360008D01*
X10676015Y-13360008D02*
X10695063Y-13350484D01*
X10885539Y-13350484D02*
X10904586Y-13350484D01*
X10904586Y-13350484D02*
X10923634Y-13360008D01*
X10923634Y-13360008D02*
X10933158Y-13369531D01*
X10933158Y-13369531D02*
X10942682Y-13388579D01*
X10942682Y-13388579D02*
X10952205Y-13426674D01*
X10952205Y-13426674D02*
X10952205Y-13474293D01*
X10952205Y-13474293D02*
X10942682Y-13512388D01*
X10942682Y-13512388D02*
X10933158Y-13531436D01*
X10933158Y-13531436D02*
X10923634Y-13540960D01*
X10923634Y-13540960D02*
X10904586Y-13550484D01*
X10904586Y-13550484D02*
X10885539Y-13550484D01*
X10885539Y-13550484D02*
X10866491Y-13540960D01*
X10866491Y-13540960D02*
X10856967Y-13531436D01*
X10856967Y-13531436D02*
X10847444Y-13512388D01*
X10847444Y-13512388D02*
X10837920Y-13474293D01*
X10837920Y-13474293D02*
X10837920Y-13426674D01*
X10837920Y-13426674D02*
X10847444Y-13388579D01*
X10847444Y-13388579D02*
X10856967Y-13369531D01*
X10856967Y-13369531D02*
X10866491Y-13360008D01*
X10866491Y-13360008D02*
X10885539Y-13350484D01*
X11037920Y-13550484D02*
X11037920Y-13417150D01*
X11037920Y-13436198D02*
X11047444Y-13426674D01*
X11047444Y-13426674D02*
X11066491Y-13417150D01*
X11066491Y-13417150D02*
X11095063Y-13417150D01*
X11095063Y-13417150D02*
X11114110Y-13426674D01*
X11114110Y-13426674D02*
X11123634Y-13445722D01*
X11123634Y-13445722D02*
X11123634Y-13550484D01*
X11123634Y-13445722D02*
X11133158Y-13426674D01*
X11133158Y-13426674D02*
X11152205Y-13417150D01*
X11152205Y-13417150D02*
X11180777Y-13417150D01*
X11180777Y-13417150D02*
X11199824Y-13426674D01*
X11199824Y-13426674D02*
X11209348Y-13445722D01*
X11209348Y-13445722D02*
X11209348Y-13550484D01*
X11304586Y-13550484D02*
X11304586Y-13417150D01*
X11304586Y-13436198D02*
X11314110Y-13426674D01*
X11314110Y-13426674D02*
X11333158Y-13417150D01*
X11333158Y-13417150D02*
X11361729Y-13417150D01*
X11361729Y-13417150D02*
X11380777Y-13426674D01*
X11380777Y-13426674D02*
X11390301Y-13445722D01*
X11390301Y-13445722D02*
X11390301Y-13550484D01*
X11390301Y-13445722D02*
X11399824Y-13426674D01*
X11399824Y-13426674D02*
X11418872Y-13417150D01*
X11418872Y-13417150D02*
X11447443Y-13417150D01*
X11447443Y-13417150D02*
X11466491Y-13426674D01*
X11466491Y-13426674D02*
X11476015Y-13445722D01*
X11476015Y-13445722D02*
X11476015Y-13550484D01*
X11866491Y-13340960D02*
X11695063Y-13598103D01*
X12123634Y-13350484D02*
X12142682Y-13350484D01*
X12142682Y-13350484D02*
X12161729Y-13360008D01*
X12161729Y-13360008D02*
X12171253Y-13369531D01*
X12171253Y-13369531D02*
X12180777Y-13388579D01*
X12180777Y-13388579D02*
X12190301Y-13426674D01*
X12190301Y-13426674D02*
X12190301Y-13474293D01*
X12190301Y-13474293D02*
X12180777Y-13512388D01*
X12180777Y-13512388D02*
X12171253Y-13531436D01*
X12171253Y-13531436D02*
X12161729Y-13540960D01*
X12161729Y-13540960D02*
X12142682Y-13550484D01*
X12142682Y-13550484D02*
X12123634Y-13550484D01*
X12123634Y-13550484D02*
X12104586Y-13540960D01*
X12104586Y-13540960D02*
X12095063Y-13531436D01*
X12095063Y-13531436D02*
X12085539Y-13512388D01*
X12085539Y-13512388D02*
X12076015Y-13474293D01*
X12076015Y-13474293D02*
X12076015Y-13426674D01*
X12076015Y-13426674D02*
X12085539Y-13388579D01*
X12085539Y-13388579D02*
X12095063Y-13369531D01*
X12095063Y-13369531D02*
X12104586Y-13360008D01*
X12104586Y-13360008D02*
X12123634Y-13350484D01*
X12276015Y-13531436D02*
X12285539Y-13540960D01*
X12285539Y-13540960D02*
X12276015Y-13550484D01*
X12276015Y-13550484D02*
X12266491Y-13540960D01*
X12266491Y-13540960D02*
X12276015Y-13531436D01*
X12276015Y-13531436D02*
X12276015Y-13550484D01*
X12409348Y-13350484D02*
X12428396Y-13350484D01*
X12428396Y-13350484D02*
X12447444Y-13360008D01*
X12447444Y-13360008D02*
X12456967Y-13369531D01*
X12456967Y-13369531D02*
X12466491Y-13388579D01*
X12466491Y-13388579D02*
X12476015Y-13426674D01*
X12476015Y-13426674D02*
X12476015Y-13474293D01*
X12476015Y-13474293D02*
X12466491Y-13512388D01*
X12466491Y-13512388D02*
X12456967Y-13531436D01*
X12456967Y-13531436D02*
X12447444Y-13540960D01*
X12447444Y-13540960D02*
X12428396Y-13550484D01*
X12428396Y-13550484D02*
X12409348Y-13550484D01*
X12409348Y-13550484D02*
X12390301Y-13540960D01*
X12390301Y-13540960D02*
X12380777Y-13531436D01*
X12380777Y-13531436D02*
X12371253Y-13512388D01*
X12371253Y-13512388D02*
X12361729Y-13474293D01*
X12361729Y-13474293D02*
X12361729Y-13426674D01*
X12361729Y-13426674D02*
X12371253Y-13388579D01*
X12371253Y-13388579D02*
X12380777Y-13369531D01*
X12380777Y-13369531D02*
X12390301Y-13360008D01*
X12390301Y-13360008D02*
X12409348Y-13350484D01*
X12542682Y-13350484D02*
X12666491Y-13350484D01*
X12666491Y-13350484D02*
X12599825Y-13426674D01*
X12599825Y-13426674D02*
X12628396Y-13426674D01*
X12628396Y-13426674D02*
X12647444Y-13436198D01*
X12647444Y-13436198D02*
X12656967Y-13445722D01*
X12656967Y-13445722D02*
X12666491Y-13464769D01*
X12666491Y-13464769D02*
X12666491Y-13512388D01*
X12666491Y-13512388D02*
X12656967Y-13531436D01*
X12656967Y-13531436D02*
X12647444Y-13540960D01*
X12647444Y-13540960D02*
X12628396Y-13550484D01*
X12628396Y-13550484D02*
X12571253Y-13550484D01*
X12571253Y-13550484D02*
X12552206Y-13540960D01*
X12552206Y-13540960D02*
X12542682Y-13531436D01*
X12856967Y-13550484D02*
X12742682Y-13550484D01*
X12799825Y-13550484D02*
X12799825Y-13350484D01*
X12799825Y-13350484D02*
X12780777Y-13379055D01*
X12780777Y-13379055D02*
X12761729Y-13398103D01*
X12761729Y-13398103D02*
X12742682Y-13407627D01*
X13037920Y-13350484D02*
X12942682Y-13350484D01*
X12942682Y-13350484D02*
X12933158Y-13445722D01*
X12933158Y-13445722D02*
X12942682Y-13436198D01*
X12942682Y-13436198D02*
X12961729Y-13426674D01*
X12961729Y-13426674D02*
X13009348Y-13426674D01*
X13009348Y-13426674D02*
X13028396Y-13436198D01*
X13028396Y-13436198D02*
X13037920Y-13445722D01*
X13037920Y-13445722D02*
X13047444Y-13464769D01*
X13047444Y-13464769D02*
X13047444Y-13512388D01*
X13047444Y-13512388D02*
X13037920Y-13531436D01*
X13037920Y-13531436D02*
X13028396Y-13540960D01*
X13028396Y-13540960D02*
X13009348Y-13550484D01*
X13009348Y-13550484D02*
X12961729Y-13550484D01*
X12961729Y-13550484D02*
X12942682Y-13540960D01*
X12942682Y-13540960D02*
X12933158Y-13531436D01*
X13123634Y-13350484D02*
X13123634Y-13388579D01*
X13199825Y-13350484D02*
X13199825Y-13388579D01*
X13495063Y-13626674D02*
X13485539Y-13617150D01*
X13485539Y-13617150D02*
X13466491Y-13588579D01*
X13466491Y-13588579D02*
X13456968Y-13569531D01*
X13456968Y-13569531D02*
X13447444Y-13540960D01*
X13447444Y-13540960D02*
X13437920Y-13493341D01*
X13437920Y-13493341D02*
X13437920Y-13455246D01*
X13437920Y-13455246D02*
X13447444Y-13407627D01*
X13447444Y-13407627D02*
X13456968Y-13379055D01*
X13456968Y-13379055D02*
X13466491Y-13360008D01*
X13466491Y-13360008D02*
X13485539Y-13331436D01*
X13485539Y-13331436D02*
X13495063Y-13321912D01*
X13676015Y-13550484D02*
X13561729Y-13550484D01*
X13618872Y-13550484D02*
X13618872Y-13350484D01*
X13618872Y-13350484D02*
X13599825Y-13379055D01*
X13599825Y-13379055D02*
X13580777Y-13398103D01*
X13580777Y-13398103D02*
X13561729Y-13407627D01*
X13847444Y-13350484D02*
X13809348Y-13350484D01*
X13809348Y-13350484D02*
X13790301Y-13360008D01*
X13790301Y-13360008D02*
X13780777Y-13369531D01*
X13780777Y-13369531D02*
X13761729Y-13398103D01*
X13761729Y-13398103D02*
X13752206Y-13436198D01*
X13752206Y-13436198D02*
X13752206Y-13512388D01*
X13752206Y-13512388D02*
X13761729Y-13531436D01*
X13761729Y-13531436D02*
X13771253Y-13540960D01*
X13771253Y-13540960D02*
X13790301Y-13550484D01*
X13790301Y-13550484D02*
X13828396Y-13550484D01*
X13828396Y-13550484D02*
X13847444Y-13540960D01*
X13847444Y-13540960D02*
X13856968Y-13531436D01*
X13856968Y-13531436D02*
X13866491Y-13512388D01*
X13866491Y-13512388D02*
X13866491Y-13464769D01*
X13866491Y-13464769D02*
X13856968Y-13445722D01*
X13856968Y-13445722D02*
X13847444Y-13436198D01*
X13847444Y-13436198D02*
X13828396Y-13426674D01*
X13828396Y-13426674D02*
X13790301Y-13426674D01*
X13790301Y-13426674D02*
X13771253Y-13436198D01*
X13771253Y-13436198D02*
X13761729Y-13445722D01*
X13761729Y-13445722D02*
X13752206Y-13464769D01*
X14104587Y-13550484D02*
X14104587Y-13350484D01*
X14190301Y-13550484D02*
X14190301Y-13445722D01*
X14190301Y-13445722D02*
X14180777Y-13426674D01*
X14180777Y-13426674D02*
X14161730Y-13417150D01*
X14161730Y-13417150D02*
X14133158Y-13417150D01*
X14133158Y-13417150D02*
X14114110Y-13426674D01*
X14114110Y-13426674D02*
X14104587Y-13436198D01*
X14314110Y-13550484D02*
X14295063Y-13540960D01*
X14295063Y-13540960D02*
X14285539Y-13531436D01*
X14285539Y-13531436D02*
X14276015Y-13512388D01*
X14276015Y-13512388D02*
X14276015Y-13455246D01*
X14276015Y-13455246D02*
X14285539Y-13436198D01*
X14285539Y-13436198D02*
X14295063Y-13426674D01*
X14295063Y-13426674D02*
X14314110Y-13417150D01*
X14314110Y-13417150D02*
X14342682Y-13417150D01*
X14342682Y-13417150D02*
X14361730Y-13426674D01*
X14361730Y-13426674D02*
X14371253Y-13436198D01*
X14371253Y-13436198D02*
X14380777Y-13455246D01*
X14380777Y-13455246D02*
X14380777Y-13512388D01*
X14380777Y-13512388D02*
X14371253Y-13531436D01*
X14371253Y-13531436D02*
X14361730Y-13540960D01*
X14361730Y-13540960D02*
X14342682Y-13550484D01*
X14342682Y-13550484D02*
X14314110Y-13550484D01*
X14495063Y-13550484D02*
X14476015Y-13540960D01*
X14476015Y-13540960D02*
X14466491Y-13521912D01*
X14466491Y-13521912D02*
X14466491Y-13350484D01*
X14647444Y-13540960D02*
X14628396Y-13550484D01*
X14628396Y-13550484D02*
X14590301Y-13550484D01*
X14590301Y-13550484D02*
X14571253Y-13540960D01*
X14571253Y-13540960D02*
X14561730Y-13521912D01*
X14561730Y-13521912D02*
X14561730Y-13445722D01*
X14561730Y-13445722D02*
X14571253Y-13426674D01*
X14571253Y-13426674D02*
X14590301Y-13417150D01*
X14590301Y-13417150D02*
X14628396Y-13417150D01*
X14628396Y-13417150D02*
X14647444Y-13426674D01*
X14647444Y-13426674D02*
X14656968Y-13445722D01*
X14656968Y-13445722D02*
X14656968Y-13464769D01*
X14656968Y-13464769D02*
X14561730Y-13483817D01*
X14733158Y-13540960D02*
X14752206Y-13550484D01*
X14752206Y-13550484D02*
X14790301Y-13550484D01*
X14790301Y-13550484D02*
X14809349Y-13540960D01*
X14809349Y-13540960D02*
X14818872Y-13521912D01*
X14818872Y-13521912D02*
X14818872Y-13512388D01*
X14818872Y-13512388D02*
X14809349Y-13493341D01*
X14809349Y-13493341D02*
X14790301Y-13483817D01*
X14790301Y-13483817D02*
X14761730Y-13483817D01*
X14761730Y-13483817D02*
X14742682Y-13474293D01*
X14742682Y-13474293D02*
X14733158Y-13455246D01*
X14733158Y-13455246D02*
X14733158Y-13445722D01*
X14733158Y-13445722D02*
X14742682Y-13426674D01*
X14742682Y-13426674D02*
X14761730Y-13417150D01*
X14761730Y-13417150D02*
X14790301Y-13417150D01*
X14790301Y-13417150D02*
X14809349Y-13426674D01*
X14885539Y-13626674D02*
X14895063Y-13617150D01*
X14895063Y-13617150D02*
X14914111Y-13588579D01*
X14914111Y-13588579D02*
X14923634Y-13569531D01*
X14923634Y-13569531D02*
X14933158Y-13540960D01*
X14933158Y-13540960D02*
X14942682Y-13493341D01*
X14942682Y-13493341D02*
X14942682Y-13455246D01*
X14942682Y-13455246D02*
X14933158Y-13407627D01*
X14933158Y-13407627D02*
X14923634Y-13379055D01*
X14923634Y-13379055D02*
X14914111Y-13360008D01*
X14914111Y-13360008D02*
X14895063Y-13331436D01*
X14895063Y-13331436D02*
X14885539Y-13321912D01*
D10*
X9875000Y-13678000D02*
X9875000Y-13768000D01*
X9830000Y-13723000D02*
X9920000Y-13723000D01*
D11*
X10218872Y-13614484D02*
X10237920Y-13614484D01*
X10237920Y-13614484D02*
X10256967Y-13624008D01*
X10256967Y-13624008D02*
X10266491Y-13633531D01*
X10266491Y-13633531D02*
X10276015Y-13652579D01*
X10276015Y-13652579D02*
X10285539Y-13690674D01*
X10285539Y-13690674D02*
X10285539Y-13738293D01*
X10285539Y-13738293D02*
X10276015Y-13776388D01*
X10276015Y-13776388D02*
X10266491Y-13795436D01*
X10266491Y-13795436D02*
X10256967Y-13804960D01*
X10256967Y-13804960D02*
X10237920Y-13814484D01*
X10237920Y-13814484D02*
X10218872Y-13814484D01*
X10218872Y-13814484D02*
X10199824Y-13804960D01*
X10199824Y-13804960D02*
X10190301Y-13795436D01*
X10190301Y-13795436D02*
X10180777Y-13776388D01*
X10180777Y-13776388D02*
X10171253Y-13738293D01*
X10171253Y-13738293D02*
X10171253Y-13690674D01*
X10171253Y-13690674D02*
X10180777Y-13652579D01*
X10180777Y-13652579D02*
X10190301Y-13633531D01*
X10190301Y-13633531D02*
X10199824Y-13624008D01*
X10199824Y-13624008D02*
X10218872Y-13614484D01*
X10371253Y-13795436D02*
X10380777Y-13804960D01*
X10380777Y-13804960D02*
X10371253Y-13814484D01*
X10371253Y-13814484D02*
X10361729Y-13804960D01*
X10361729Y-13804960D02*
X10371253Y-13795436D01*
X10371253Y-13795436D02*
X10371253Y-13814484D01*
X10476015Y-13814484D02*
X10514110Y-13814484D01*
X10514110Y-13814484D02*
X10533158Y-13804960D01*
X10533158Y-13804960D02*
X10542682Y-13795436D01*
X10542682Y-13795436D02*
X10561729Y-13766865D01*
X10561729Y-13766865D02*
X10571253Y-13728769D01*
X10571253Y-13728769D02*
X10571253Y-13652579D01*
X10571253Y-13652579D02*
X10561729Y-13633531D01*
X10561729Y-13633531D02*
X10552205Y-13624008D01*
X10552205Y-13624008D02*
X10533158Y-13614484D01*
X10533158Y-13614484D02*
X10495063Y-13614484D01*
X10495063Y-13614484D02*
X10476015Y-13624008D01*
X10476015Y-13624008D02*
X10466491Y-13633531D01*
X10466491Y-13633531D02*
X10456967Y-13652579D01*
X10456967Y-13652579D02*
X10456967Y-13700198D01*
X10456967Y-13700198D02*
X10466491Y-13719246D01*
X10466491Y-13719246D02*
X10476015Y-13728769D01*
X10476015Y-13728769D02*
X10495063Y-13738293D01*
X10495063Y-13738293D02*
X10533158Y-13738293D01*
X10533158Y-13738293D02*
X10552205Y-13728769D01*
X10552205Y-13728769D02*
X10561729Y-13719246D01*
X10561729Y-13719246D02*
X10571253Y-13700198D01*
X10695063Y-13614484D02*
X10714110Y-13614484D01*
X10714110Y-13614484D02*
X10733158Y-13624008D01*
X10733158Y-13624008D02*
X10742682Y-13633531D01*
X10742682Y-13633531D02*
X10752205Y-13652579D01*
X10752205Y-13652579D02*
X10761729Y-13690674D01*
X10761729Y-13690674D02*
X10761729Y-13738293D01*
X10761729Y-13738293D02*
X10752205Y-13776388D01*
X10752205Y-13776388D02*
X10742682Y-13795436D01*
X10742682Y-13795436D02*
X10733158Y-13804960D01*
X10733158Y-13804960D02*
X10714110Y-13814484D01*
X10714110Y-13814484D02*
X10695063Y-13814484D01*
X10695063Y-13814484D02*
X10676015Y-13804960D01*
X10676015Y-13804960D02*
X10666491Y-13795436D01*
X10666491Y-13795436D02*
X10656967Y-13776388D01*
X10656967Y-13776388D02*
X10647444Y-13738293D01*
X10647444Y-13738293D02*
X10647444Y-13690674D01*
X10647444Y-13690674D02*
X10656967Y-13652579D01*
X10656967Y-13652579D02*
X10666491Y-13633531D01*
X10666491Y-13633531D02*
X10676015Y-13624008D01*
X10676015Y-13624008D02*
X10695063Y-13614484D01*
X10885539Y-13614484D02*
X10904586Y-13614484D01*
X10904586Y-13614484D02*
X10923634Y-13624008D01*
X10923634Y-13624008D02*
X10933158Y-13633531D01*
X10933158Y-13633531D02*
X10942682Y-13652579D01*
X10942682Y-13652579D02*
X10952205Y-13690674D01*
X10952205Y-13690674D02*
X10952205Y-13738293D01*
X10952205Y-13738293D02*
X10942682Y-13776388D01*
X10942682Y-13776388D02*
X10933158Y-13795436D01*
X10933158Y-13795436D02*
X10923634Y-13804960D01*
X10923634Y-13804960D02*
X10904586Y-13814484D01*
X10904586Y-13814484D02*
X10885539Y-13814484D01*
X10885539Y-13814484D02*
X10866491Y-13804960D01*
X10866491Y-13804960D02*
X10856967Y-13795436D01*
X10856967Y-13795436D02*
X10847444Y-13776388D01*
X10847444Y-13776388D02*
X10837920Y-13738293D01*
X10837920Y-13738293D02*
X10837920Y-13690674D01*
X10837920Y-13690674D02*
X10847444Y-13652579D01*
X10847444Y-13652579D02*
X10856967Y-13633531D01*
X10856967Y-13633531D02*
X10866491Y-13624008D01*
X10866491Y-13624008D02*
X10885539Y-13614484D01*
X11037920Y-13814484D02*
X11037920Y-13681150D01*
X11037920Y-13700198D02*
X11047444Y-13690674D01*
X11047444Y-13690674D02*
X11066491Y-13681150D01*
X11066491Y-13681150D02*
X11095063Y-13681150D01*
X11095063Y-13681150D02*
X11114110Y-13690674D01*
X11114110Y-13690674D02*
X11123634Y-13709722D01*
X11123634Y-13709722D02*
X11123634Y-13814484D01*
X11123634Y-13709722D02*
X11133158Y-13690674D01*
X11133158Y-13690674D02*
X11152205Y-13681150D01*
X11152205Y-13681150D02*
X11180777Y-13681150D01*
X11180777Y-13681150D02*
X11199824Y-13690674D01*
X11199824Y-13690674D02*
X11209348Y-13709722D01*
X11209348Y-13709722D02*
X11209348Y-13814484D01*
X11304586Y-13814484D02*
X11304586Y-13681150D01*
X11304586Y-13700198D02*
X11314110Y-13690674D01*
X11314110Y-13690674D02*
X11333158Y-13681150D01*
X11333158Y-13681150D02*
X11361729Y-13681150D01*
X11361729Y-13681150D02*
X11380777Y-13690674D01*
X11380777Y-13690674D02*
X11390301Y-13709722D01*
X11390301Y-13709722D02*
X11390301Y-13814484D01*
X11390301Y-13709722D02*
X11399824Y-13690674D01*
X11399824Y-13690674D02*
X11418872Y-13681150D01*
X11418872Y-13681150D02*
X11447443Y-13681150D01*
X11447443Y-13681150D02*
X11466491Y-13690674D01*
X11466491Y-13690674D02*
X11476015Y-13709722D01*
X11476015Y-13709722D02*
X11476015Y-13814484D01*
X11866491Y-13604960D02*
X11695063Y-13862103D01*
X12123634Y-13614484D02*
X12142682Y-13614484D01*
X12142682Y-13614484D02*
X12161729Y-13624008D01*
X12161729Y-13624008D02*
X12171253Y-13633531D01*
X12171253Y-13633531D02*
X12180777Y-13652579D01*
X12180777Y-13652579D02*
X12190301Y-13690674D01*
X12190301Y-13690674D02*
X12190301Y-13738293D01*
X12190301Y-13738293D02*
X12180777Y-13776388D01*
X12180777Y-13776388D02*
X12171253Y-13795436D01*
X12171253Y-13795436D02*
X12161729Y-13804960D01*
X12161729Y-13804960D02*
X12142682Y-13814484D01*
X12142682Y-13814484D02*
X12123634Y-13814484D01*
X12123634Y-13814484D02*
X12104586Y-13804960D01*
X12104586Y-13804960D02*
X12095063Y-13795436D01*
X12095063Y-13795436D02*
X12085539Y-13776388D01*
X12085539Y-13776388D02*
X12076015Y-13738293D01*
X12076015Y-13738293D02*
X12076015Y-13690674D01*
X12076015Y-13690674D02*
X12085539Y-13652579D01*
X12085539Y-13652579D02*
X12095063Y-13633531D01*
X12095063Y-13633531D02*
X12104586Y-13624008D01*
X12104586Y-13624008D02*
X12123634Y-13614484D01*
X12276015Y-13795436D02*
X12285539Y-13804960D01*
X12285539Y-13804960D02*
X12276015Y-13814484D01*
X12276015Y-13814484D02*
X12266491Y-13804960D01*
X12266491Y-13804960D02*
X12276015Y-13795436D01*
X12276015Y-13795436D02*
X12276015Y-13814484D01*
X12409348Y-13614484D02*
X12428396Y-13614484D01*
X12428396Y-13614484D02*
X12447444Y-13624008D01*
X12447444Y-13624008D02*
X12456967Y-13633531D01*
X12456967Y-13633531D02*
X12466491Y-13652579D01*
X12466491Y-13652579D02*
X12476015Y-13690674D01*
X12476015Y-13690674D02*
X12476015Y-13738293D01*
X12476015Y-13738293D02*
X12466491Y-13776388D01*
X12466491Y-13776388D02*
X12456967Y-13795436D01*
X12456967Y-13795436D02*
X12447444Y-13804960D01*
X12447444Y-13804960D02*
X12428396Y-13814484D01*
X12428396Y-13814484D02*
X12409348Y-13814484D01*
X12409348Y-13814484D02*
X12390301Y-13804960D01*
X12390301Y-13804960D02*
X12380777Y-13795436D01*
X12380777Y-13795436D02*
X12371253Y-13776388D01*
X12371253Y-13776388D02*
X12361729Y-13738293D01*
X12361729Y-13738293D02*
X12361729Y-13690674D01*
X12361729Y-13690674D02*
X12371253Y-13652579D01*
X12371253Y-13652579D02*
X12380777Y-13633531D01*
X12380777Y-13633531D02*
X12390301Y-13624008D01*
X12390301Y-13624008D02*
X12409348Y-13614484D01*
X12542682Y-13614484D02*
X12666491Y-13614484D01*
X12666491Y-13614484D02*
X12599825Y-13690674D01*
X12599825Y-13690674D02*
X12628396Y-13690674D01*
X12628396Y-13690674D02*
X12647444Y-13700198D01*
X12647444Y-13700198D02*
X12656967Y-13709722D01*
X12656967Y-13709722D02*
X12666491Y-13728769D01*
X12666491Y-13728769D02*
X12666491Y-13776388D01*
X12666491Y-13776388D02*
X12656967Y-13795436D01*
X12656967Y-13795436D02*
X12647444Y-13804960D01*
X12647444Y-13804960D02*
X12628396Y-13814484D01*
X12628396Y-13814484D02*
X12571253Y-13814484D01*
X12571253Y-13814484D02*
X12552206Y-13804960D01*
X12552206Y-13804960D02*
X12542682Y-13795436D01*
X12847444Y-13614484D02*
X12752206Y-13614484D01*
X12752206Y-13614484D02*
X12742682Y-13709722D01*
X12742682Y-13709722D02*
X12752206Y-13700198D01*
X12752206Y-13700198D02*
X12771253Y-13690674D01*
X12771253Y-13690674D02*
X12818872Y-13690674D01*
X12818872Y-13690674D02*
X12837920Y-13700198D01*
X12837920Y-13700198D02*
X12847444Y-13709722D01*
X12847444Y-13709722D02*
X12856967Y-13728769D01*
X12856967Y-13728769D02*
X12856967Y-13776388D01*
X12856967Y-13776388D02*
X12847444Y-13795436D01*
X12847444Y-13795436D02*
X12837920Y-13804960D01*
X12837920Y-13804960D02*
X12818872Y-13814484D01*
X12818872Y-13814484D02*
X12771253Y-13814484D01*
X12771253Y-13814484D02*
X12752206Y-13804960D01*
X12752206Y-13804960D02*
X12742682Y-13795436D01*
X13028396Y-13681150D02*
X13028396Y-13814484D01*
X12980777Y-13604960D02*
X12933158Y-13747817D01*
X12933158Y-13747817D02*
X13056967Y-13747817D01*
X13123634Y-13614484D02*
X13123634Y-13652579D01*
X13199825Y-13614484D02*
X13199825Y-13652579D01*
X13495063Y-13890674D02*
X13485539Y-13881150D01*
X13485539Y-13881150D02*
X13466491Y-13852579D01*
X13466491Y-13852579D02*
X13456968Y-13833531D01*
X13456968Y-13833531D02*
X13447444Y-13804960D01*
X13447444Y-13804960D02*
X13437920Y-13757341D01*
X13437920Y-13757341D02*
X13437920Y-13719246D01*
X13437920Y-13719246D02*
X13447444Y-13671627D01*
X13447444Y-13671627D02*
X13456968Y-13643055D01*
X13456968Y-13643055D02*
X13466491Y-13624008D01*
X13466491Y-13624008D02*
X13485539Y-13595436D01*
X13485539Y-13595436D02*
X13495063Y-13585912D01*
X13561729Y-13633531D02*
X13571253Y-13624008D01*
X13571253Y-13624008D02*
X13590301Y-13614484D01*
X13590301Y-13614484D02*
X13637920Y-13614484D01*
X13637920Y-13614484D02*
X13656968Y-13624008D01*
X13656968Y-13624008D02*
X13666491Y-13633531D01*
X13666491Y-13633531D02*
X13676015Y-13652579D01*
X13676015Y-13652579D02*
X13676015Y-13671627D01*
X13676015Y-13671627D02*
X13666491Y-13700198D01*
X13666491Y-13700198D02*
X13552206Y-13814484D01*
X13552206Y-13814484D02*
X13676015Y-13814484D01*
X13914110Y-13814484D02*
X13914110Y-13614484D01*
X13999825Y-13814484D02*
X13999825Y-13709722D01*
X13999825Y-13709722D02*
X13990301Y-13690674D01*
X13990301Y-13690674D02*
X13971253Y-13681150D01*
X13971253Y-13681150D02*
X13942682Y-13681150D01*
X13942682Y-13681150D02*
X13923634Y-13690674D01*
X13923634Y-13690674D02*
X13914110Y-13700198D01*
X14123634Y-13814484D02*
X14104587Y-13804960D01*
X14104587Y-13804960D02*
X14095063Y-13795436D01*
X14095063Y-13795436D02*
X14085539Y-13776388D01*
X14085539Y-13776388D02*
X14085539Y-13719246D01*
X14085539Y-13719246D02*
X14095063Y-13700198D01*
X14095063Y-13700198D02*
X14104587Y-13690674D01*
X14104587Y-13690674D02*
X14123634Y-13681150D01*
X14123634Y-13681150D02*
X14152206Y-13681150D01*
X14152206Y-13681150D02*
X14171253Y-13690674D01*
X14171253Y-13690674D02*
X14180777Y-13700198D01*
X14180777Y-13700198D02*
X14190301Y-13719246D01*
X14190301Y-13719246D02*
X14190301Y-13776388D01*
X14190301Y-13776388D02*
X14180777Y-13795436D01*
X14180777Y-13795436D02*
X14171253Y-13804960D01*
X14171253Y-13804960D02*
X14152206Y-13814484D01*
X14152206Y-13814484D02*
X14123634Y-13814484D01*
X14304587Y-13814484D02*
X14285539Y-13804960D01*
X14285539Y-13804960D02*
X14276015Y-13785912D01*
X14276015Y-13785912D02*
X14276015Y-13614484D01*
X14456968Y-13804960D02*
X14437920Y-13814484D01*
X14437920Y-13814484D02*
X14399825Y-13814484D01*
X14399825Y-13814484D02*
X14380777Y-13804960D01*
X14380777Y-13804960D02*
X14371253Y-13785912D01*
X14371253Y-13785912D02*
X14371253Y-13709722D01*
X14371253Y-13709722D02*
X14380777Y-13690674D01*
X14380777Y-13690674D02*
X14399825Y-13681150D01*
X14399825Y-13681150D02*
X14437920Y-13681150D01*
X14437920Y-13681150D02*
X14456968Y-13690674D01*
X14456968Y-13690674D02*
X14466491Y-13709722D01*
X14466491Y-13709722D02*
X14466491Y-13728769D01*
X14466491Y-13728769D02*
X14371253Y-13747817D01*
X14542682Y-13804960D02*
X14561730Y-13814484D01*
X14561730Y-13814484D02*
X14599825Y-13814484D01*
X14599825Y-13814484D02*
X14618872Y-13804960D01*
X14618872Y-13804960D02*
X14628396Y-13785912D01*
X14628396Y-13785912D02*
X14628396Y-13776388D01*
X14628396Y-13776388D02*
X14618872Y-13757341D01*
X14618872Y-13757341D02*
X14599825Y-13747817D01*
X14599825Y-13747817D02*
X14571253Y-13747817D01*
X14571253Y-13747817D02*
X14552206Y-13738293D01*
X14552206Y-13738293D02*
X14542682Y-13719246D01*
X14542682Y-13719246D02*
X14542682Y-13709722D01*
X14542682Y-13709722D02*
X14552206Y-13690674D01*
X14552206Y-13690674D02*
X14571253Y-13681150D01*
X14571253Y-13681150D02*
X14599825Y-13681150D01*
X14599825Y-13681150D02*
X14618872Y-13690674D01*
X14695063Y-13890674D02*
X14704587Y-13881150D01*
X14704587Y-13881150D02*
X14723634Y-13852579D01*
X14723634Y-13852579D02*
X14733158Y-13833531D01*
X14733158Y-13833531D02*
X14742682Y-13804960D01*
X14742682Y-13804960D02*
X14752206Y-13757341D01*
X14752206Y-13757341D02*
X14752206Y-13719246D01*
X14752206Y-13719246D02*
X14742682Y-13671627D01*
X14742682Y-13671627D02*
X14733158Y-13643055D01*
X14733158Y-13643055D02*
X14723634Y-13624008D01*
X14723634Y-13624008D02*
X14704587Y-13595436D01*
X14704587Y-13595436D02*
X14695063Y-13585912D01*
D10*
X9905356Y-14022356D02*
X9905356Y-13951644D01*
X9834644Y-13951644D01*
X9834644Y-14022356D01*
X9905356Y-14022356D01*
D11*
X10285539Y-14078484D02*
X10171253Y-14078484D01*
X10228396Y-14078484D02*
X10228396Y-13878484D01*
X10228396Y-13878484D02*
X10209348Y-13907055D01*
X10209348Y-13907055D02*
X10190301Y-13926103D01*
X10190301Y-13926103D02*
X10171253Y-13935627D01*
X10371253Y-14059436D02*
X10380777Y-14068960D01*
X10380777Y-14068960D02*
X10371253Y-14078484D01*
X10371253Y-14078484D02*
X10361729Y-14068960D01*
X10361729Y-14068960D02*
X10371253Y-14059436D01*
X10371253Y-14059436D02*
X10371253Y-14078484D01*
X10504586Y-13878484D02*
X10523634Y-13878484D01*
X10523634Y-13878484D02*
X10542682Y-13888008D01*
X10542682Y-13888008D02*
X10552205Y-13897531D01*
X10552205Y-13897531D02*
X10561729Y-13916579D01*
X10561729Y-13916579D02*
X10571253Y-13954674D01*
X10571253Y-13954674D02*
X10571253Y-14002293D01*
X10571253Y-14002293D02*
X10561729Y-14040388D01*
X10561729Y-14040388D02*
X10552205Y-14059436D01*
X10552205Y-14059436D02*
X10542682Y-14068960D01*
X10542682Y-14068960D02*
X10523634Y-14078484D01*
X10523634Y-14078484D02*
X10504586Y-14078484D01*
X10504586Y-14078484D02*
X10485539Y-14068960D01*
X10485539Y-14068960D02*
X10476015Y-14059436D01*
X10476015Y-14059436D02*
X10466491Y-14040388D01*
X10466491Y-14040388D02*
X10456967Y-14002293D01*
X10456967Y-14002293D02*
X10456967Y-13954674D01*
X10456967Y-13954674D02*
X10466491Y-13916579D01*
X10466491Y-13916579D02*
X10476015Y-13897531D01*
X10476015Y-13897531D02*
X10485539Y-13888008D01*
X10485539Y-13888008D02*
X10504586Y-13878484D01*
X10695063Y-13878484D02*
X10714110Y-13878484D01*
X10714110Y-13878484D02*
X10733158Y-13888008D01*
X10733158Y-13888008D02*
X10742682Y-13897531D01*
X10742682Y-13897531D02*
X10752205Y-13916579D01*
X10752205Y-13916579D02*
X10761729Y-13954674D01*
X10761729Y-13954674D02*
X10761729Y-14002293D01*
X10761729Y-14002293D02*
X10752205Y-14040388D01*
X10752205Y-14040388D02*
X10742682Y-14059436D01*
X10742682Y-14059436D02*
X10733158Y-14068960D01*
X10733158Y-14068960D02*
X10714110Y-14078484D01*
X10714110Y-14078484D02*
X10695063Y-14078484D01*
X10695063Y-14078484D02*
X10676015Y-14068960D01*
X10676015Y-14068960D02*
X10666491Y-14059436D01*
X10666491Y-14059436D02*
X10656967Y-14040388D01*
X10656967Y-14040388D02*
X10647444Y-14002293D01*
X10647444Y-14002293D02*
X10647444Y-13954674D01*
X10647444Y-13954674D02*
X10656967Y-13916579D01*
X10656967Y-13916579D02*
X10666491Y-13897531D01*
X10666491Y-13897531D02*
X10676015Y-13888008D01*
X10676015Y-13888008D02*
X10695063Y-13878484D01*
X10885539Y-13878484D02*
X10904586Y-13878484D01*
X10904586Y-13878484D02*
X10923634Y-13888008D01*
X10923634Y-13888008D02*
X10933158Y-13897531D01*
X10933158Y-13897531D02*
X10942682Y-13916579D01*
X10942682Y-13916579D02*
X10952205Y-13954674D01*
X10952205Y-13954674D02*
X10952205Y-14002293D01*
X10952205Y-14002293D02*
X10942682Y-14040388D01*
X10942682Y-14040388D02*
X10933158Y-14059436D01*
X10933158Y-14059436D02*
X10923634Y-14068960D01*
X10923634Y-14068960D02*
X10904586Y-14078484D01*
X10904586Y-14078484D02*
X10885539Y-14078484D01*
X10885539Y-14078484D02*
X10866491Y-14068960D01*
X10866491Y-14068960D02*
X10856967Y-14059436D01*
X10856967Y-14059436D02*
X10847444Y-14040388D01*
X10847444Y-14040388D02*
X10837920Y-14002293D01*
X10837920Y-14002293D02*
X10837920Y-13954674D01*
X10837920Y-13954674D02*
X10847444Y-13916579D01*
X10847444Y-13916579D02*
X10856967Y-13897531D01*
X10856967Y-13897531D02*
X10866491Y-13888008D01*
X10866491Y-13888008D02*
X10885539Y-13878484D01*
X11037920Y-14078484D02*
X11037920Y-13945150D01*
X11037920Y-13964198D02*
X11047444Y-13954674D01*
X11047444Y-13954674D02*
X11066491Y-13945150D01*
X11066491Y-13945150D02*
X11095063Y-13945150D01*
X11095063Y-13945150D02*
X11114110Y-13954674D01*
X11114110Y-13954674D02*
X11123634Y-13973722D01*
X11123634Y-13973722D02*
X11123634Y-14078484D01*
X11123634Y-13973722D02*
X11133158Y-13954674D01*
X11133158Y-13954674D02*
X11152205Y-13945150D01*
X11152205Y-13945150D02*
X11180777Y-13945150D01*
X11180777Y-13945150D02*
X11199824Y-13954674D01*
X11199824Y-13954674D02*
X11209348Y-13973722D01*
X11209348Y-13973722D02*
X11209348Y-14078484D01*
X11304586Y-14078484D02*
X11304586Y-13945150D01*
X11304586Y-13964198D02*
X11314110Y-13954674D01*
X11314110Y-13954674D02*
X11333158Y-13945150D01*
X11333158Y-13945150D02*
X11361729Y-13945150D01*
X11361729Y-13945150D02*
X11380777Y-13954674D01*
X11380777Y-13954674D02*
X11390301Y-13973722D01*
X11390301Y-13973722D02*
X11390301Y-14078484D01*
X11390301Y-13973722D02*
X11399824Y-13954674D01*
X11399824Y-13954674D02*
X11418872Y-13945150D01*
X11418872Y-13945150D02*
X11447443Y-13945150D01*
X11447443Y-13945150D02*
X11466491Y-13954674D01*
X11466491Y-13954674D02*
X11476015Y-13973722D01*
X11476015Y-13973722D02*
X11476015Y-14078484D01*
X11866491Y-13868960D02*
X11695063Y-14126103D01*
X12123634Y-13878484D02*
X12142682Y-13878484D01*
X12142682Y-13878484D02*
X12161729Y-13888008D01*
X12161729Y-13888008D02*
X12171253Y-13897531D01*
X12171253Y-13897531D02*
X12180777Y-13916579D01*
X12180777Y-13916579D02*
X12190301Y-13954674D01*
X12190301Y-13954674D02*
X12190301Y-14002293D01*
X12190301Y-14002293D02*
X12180777Y-14040388D01*
X12180777Y-14040388D02*
X12171253Y-14059436D01*
X12171253Y-14059436D02*
X12161729Y-14068960D01*
X12161729Y-14068960D02*
X12142682Y-14078484D01*
X12142682Y-14078484D02*
X12123634Y-14078484D01*
X12123634Y-14078484D02*
X12104586Y-14068960D01*
X12104586Y-14068960D02*
X12095063Y-14059436D01*
X12095063Y-14059436D02*
X12085539Y-14040388D01*
X12085539Y-14040388D02*
X12076015Y-14002293D01*
X12076015Y-14002293D02*
X12076015Y-13954674D01*
X12076015Y-13954674D02*
X12085539Y-13916579D01*
X12085539Y-13916579D02*
X12095063Y-13897531D01*
X12095063Y-13897531D02*
X12104586Y-13888008D01*
X12104586Y-13888008D02*
X12123634Y-13878484D01*
X12276015Y-14059436D02*
X12285539Y-14068960D01*
X12285539Y-14068960D02*
X12276015Y-14078484D01*
X12276015Y-14078484D02*
X12266491Y-14068960D01*
X12266491Y-14068960D02*
X12276015Y-14059436D01*
X12276015Y-14059436D02*
X12276015Y-14078484D01*
X12409348Y-13878484D02*
X12428396Y-13878484D01*
X12428396Y-13878484D02*
X12447444Y-13888008D01*
X12447444Y-13888008D02*
X12456967Y-13897531D01*
X12456967Y-13897531D02*
X12466491Y-13916579D01*
X12466491Y-13916579D02*
X12476015Y-13954674D01*
X12476015Y-13954674D02*
X12476015Y-14002293D01*
X12476015Y-14002293D02*
X12466491Y-14040388D01*
X12466491Y-14040388D02*
X12456967Y-14059436D01*
X12456967Y-14059436D02*
X12447444Y-14068960D01*
X12447444Y-14068960D02*
X12428396Y-14078484D01*
X12428396Y-14078484D02*
X12409348Y-14078484D01*
X12409348Y-14078484D02*
X12390301Y-14068960D01*
X12390301Y-14068960D02*
X12380777Y-14059436D01*
X12380777Y-14059436D02*
X12371253Y-14040388D01*
X12371253Y-14040388D02*
X12361729Y-14002293D01*
X12361729Y-14002293D02*
X12361729Y-13954674D01*
X12361729Y-13954674D02*
X12371253Y-13916579D01*
X12371253Y-13916579D02*
X12380777Y-13897531D01*
X12380777Y-13897531D02*
X12390301Y-13888008D01*
X12390301Y-13888008D02*
X12409348Y-13878484D01*
X12542682Y-13878484D02*
X12666491Y-13878484D01*
X12666491Y-13878484D02*
X12599825Y-13954674D01*
X12599825Y-13954674D02*
X12628396Y-13954674D01*
X12628396Y-13954674D02*
X12647444Y-13964198D01*
X12647444Y-13964198D02*
X12656967Y-13973722D01*
X12656967Y-13973722D02*
X12666491Y-13992769D01*
X12666491Y-13992769D02*
X12666491Y-14040388D01*
X12666491Y-14040388D02*
X12656967Y-14059436D01*
X12656967Y-14059436D02*
X12647444Y-14068960D01*
X12647444Y-14068960D02*
X12628396Y-14078484D01*
X12628396Y-14078484D02*
X12571253Y-14078484D01*
X12571253Y-14078484D02*
X12552206Y-14068960D01*
X12552206Y-14068960D02*
X12542682Y-14059436D01*
X12761729Y-14078484D02*
X12799825Y-14078484D01*
X12799825Y-14078484D02*
X12818872Y-14068960D01*
X12818872Y-14068960D02*
X12828396Y-14059436D01*
X12828396Y-14059436D02*
X12847444Y-14030865D01*
X12847444Y-14030865D02*
X12856967Y-13992769D01*
X12856967Y-13992769D02*
X12856967Y-13916579D01*
X12856967Y-13916579D02*
X12847444Y-13897531D01*
X12847444Y-13897531D02*
X12837920Y-13888008D01*
X12837920Y-13888008D02*
X12818872Y-13878484D01*
X12818872Y-13878484D02*
X12780777Y-13878484D01*
X12780777Y-13878484D02*
X12761729Y-13888008D01*
X12761729Y-13888008D02*
X12752206Y-13897531D01*
X12752206Y-13897531D02*
X12742682Y-13916579D01*
X12742682Y-13916579D02*
X12742682Y-13964198D01*
X12742682Y-13964198D02*
X12752206Y-13983246D01*
X12752206Y-13983246D02*
X12761729Y-13992769D01*
X12761729Y-13992769D02*
X12780777Y-14002293D01*
X12780777Y-14002293D02*
X12818872Y-14002293D01*
X12818872Y-14002293D02*
X12837920Y-13992769D01*
X12837920Y-13992769D02*
X12847444Y-13983246D01*
X12847444Y-13983246D02*
X12856967Y-13964198D01*
X13028396Y-13945150D02*
X13028396Y-14078484D01*
X12980777Y-13868960D02*
X12933158Y-14011817D01*
X12933158Y-14011817D02*
X13056967Y-14011817D01*
X13123634Y-13878484D02*
X13123634Y-13916579D01*
X13199825Y-13878484D02*
X13199825Y-13916579D01*
X13495063Y-14154674D02*
X13485539Y-14145150D01*
X13485539Y-14145150D02*
X13466491Y-14116579D01*
X13466491Y-14116579D02*
X13456968Y-14097531D01*
X13456968Y-14097531D02*
X13447444Y-14068960D01*
X13447444Y-14068960D02*
X13437920Y-14021341D01*
X13437920Y-14021341D02*
X13437920Y-13983246D01*
X13437920Y-13983246D02*
X13447444Y-13935627D01*
X13447444Y-13935627D02*
X13456968Y-13907055D01*
X13456968Y-13907055D02*
X13466491Y-13888008D01*
X13466491Y-13888008D02*
X13485539Y-13859436D01*
X13485539Y-13859436D02*
X13495063Y-13849912D01*
X13552206Y-13878484D02*
X13676015Y-13878484D01*
X13676015Y-13878484D02*
X13609348Y-13954674D01*
X13609348Y-13954674D02*
X13637920Y-13954674D01*
X13637920Y-13954674D02*
X13656968Y-13964198D01*
X13656968Y-13964198D02*
X13666491Y-13973722D01*
X13666491Y-13973722D02*
X13676015Y-13992769D01*
X13676015Y-13992769D02*
X13676015Y-14040388D01*
X13676015Y-14040388D02*
X13666491Y-14059436D01*
X13666491Y-14059436D02*
X13656968Y-14068960D01*
X13656968Y-14068960D02*
X13637920Y-14078484D01*
X13637920Y-14078484D02*
X13580777Y-14078484D01*
X13580777Y-14078484D02*
X13561729Y-14068960D01*
X13561729Y-14068960D02*
X13552206Y-14059436D01*
X13742682Y-13878484D02*
X13866491Y-13878484D01*
X13866491Y-13878484D02*
X13799825Y-13954674D01*
X13799825Y-13954674D02*
X13828396Y-13954674D01*
X13828396Y-13954674D02*
X13847444Y-13964198D01*
X13847444Y-13964198D02*
X13856968Y-13973722D01*
X13856968Y-13973722D02*
X13866491Y-13992769D01*
X13866491Y-13992769D02*
X13866491Y-14040388D01*
X13866491Y-14040388D02*
X13856968Y-14059436D01*
X13856968Y-14059436D02*
X13847444Y-14068960D01*
X13847444Y-14068960D02*
X13828396Y-14078484D01*
X13828396Y-14078484D02*
X13771253Y-14078484D01*
X13771253Y-14078484D02*
X13752206Y-14068960D01*
X13752206Y-14068960D02*
X13742682Y-14059436D01*
X14104587Y-14078484D02*
X14104587Y-13878484D01*
X14190301Y-14078484D02*
X14190301Y-13973722D01*
X14190301Y-13973722D02*
X14180777Y-13954674D01*
X14180777Y-13954674D02*
X14161730Y-13945150D01*
X14161730Y-13945150D02*
X14133158Y-13945150D01*
X14133158Y-13945150D02*
X14114110Y-13954674D01*
X14114110Y-13954674D02*
X14104587Y-13964198D01*
X14314110Y-14078484D02*
X14295063Y-14068960D01*
X14295063Y-14068960D02*
X14285539Y-14059436D01*
X14285539Y-14059436D02*
X14276015Y-14040388D01*
X14276015Y-14040388D02*
X14276015Y-13983246D01*
X14276015Y-13983246D02*
X14285539Y-13964198D01*
X14285539Y-13964198D02*
X14295063Y-13954674D01*
X14295063Y-13954674D02*
X14314110Y-13945150D01*
X14314110Y-13945150D02*
X14342682Y-13945150D01*
X14342682Y-13945150D02*
X14361730Y-13954674D01*
X14361730Y-13954674D02*
X14371253Y-13964198D01*
X14371253Y-13964198D02*
X14380777Y-13983246D01*
X14380777Y-13983246D02*
X14380777Y-14040388D01*
X14380777Y-14040388D02*
X14371253Y-14059436D01*
X14371253Y-14059436D02*
X14361730Y-14068960D01*
X14361730Y-14068960D02*
X14342682Y-14078484D01*
X14342682Y-14078484D02*
X14314110Y-14078484D01*
X14495063Y-14078484D02*
X14476015Y-14068960D01*
X14476015Y-14068960D02*
X14466491Y-14049912D01*
X14466491Y-14049912D02*
X14466491Y-13878484D01*
X14647444Y-14068960D02*
X14628396Y-14078484D01*
X14628396Y-14078484D02*
X14590301Y-14078484D01*
X14590301Y-14078484D02*
X14571253Y-14068960D01*
X14571253Y-14068960D02*
X14561730Y-14049912D01*
X14561730Y-14049912D02*
X14561730Y-13973722D01*
X14561730Y-13973722D02*
X14571253Y-13954674D01*
X14571253Y-13954674D02*
X14590301Y-13945150D01*
X14590301Y-13945150D02*
X14628396Y-13945150D01*
X14628396Y-13945150D02*
X14647444Y-13954674D01*
X14647444Y-13954674D02*
X14656968Y-13973722D01*
X14656968Y-13973722D02*
X14656968Y-13992769D01*
X14656968Y-13992769D02*
X14561730Y-14011817D01*
X14733158Y-14068960D02*
X14752206Y-14078484D01*
X14752206Y-14078484D02*
X14790301Y-14078484D01*
X14790301Y-14078484D02*
X14809349Y-14068960D01*
X14809349Y-14068960D02*
X14818872Y-14049912D01*
X14818872Y-14049912D02*
X14818872Y-14040388D01*
X14818872Y-14040388D02*
X14809349Y-14021341D01*
X14809349Y-14021341D02*
X14790301Y-14011817D01*
X14790301Y-14011817D02*
X14761730Y-14011817D01*
X14761730Y-14011817D02*
X14742682Y-14002293D01*
X14742682Y-14002293D02*
X14733158Y-13983246D01*
X14733158Y-13983246D02*
X14733158Y-13973722D01*
X14733158Y-13973722D02*
X14742682Y-13954674D01*
X14742682Y-13954674D02*
X14761730Y-13945150D01*
X14761730Y-13945150D02*
X14790301Y-13945150D01*
X14790301Y-13945150D02*
X14809349Y-13954674D01*
X14885539Y-14154674D02*
X14895063Y-14145150D01*
X14895063Y-14145150D02*
X14914111Y-14116579D01*
X14914111Y-14116579D02*
X14923634Y-14097531D01*
X14923634Y-14097531D02*
X14933158Y-14068960D01*
X14933158Y-14068960D02*
X14942682Y-14021341D01*
X14942682Y-14021341D02*
X14942682Y-13983246D01*
X14942682Y-13983246D02*
X14933158Y-13935627D01*
X14933158Y-13935627D02*
X14923634Y-13907055D01*
X14923634Y-13907055D02*
X14914111Y-13888008D01*
X14914111Y-13888008D02*
X14895063Y-13859436D01*
X14895063Y-13859436D02*
X14885539Y-13849912D01*
D12*
X9860000Y-14311000D02*
X9920000Y-14251000D01*
X9860000Y-14191000D01*
X9800000Y-14251000D01*
X9860000Y-14311000D01*
D11*
X10285539Y-14342484D02*
X10171253Y-14342484D01*
X10228396Y-14342484D02*
X10228396Y-14142484D01*
X10228396Y-14142484D02*
X10209348Y-14171055D01*
X10209348Y-14171055D02*
X10190301Y-14190103D01*
X10190301Y-14190103D02*
X10171253Y-14199627D01*
X10371253Y-14323436D02*
X10380777Y-14332960D01*
X10380777Y-14332960D02*
X10371253Y-14342484D01*
X10371253Y-14342484D02*
X10361729Y-14332960D01*
X10361729Y-14332960D02*
X10371253Y-14323436D01*
X10371253Y-14323436D02*
X10371253Y-14342484D01*
X10456967Y-14161531D02*
X10466491Y-14152008D01*
X10466491Y-14152008D02*
X10485539Y-14142484D01*
X10485539Y-14142484D02*
X10533158Y-14142484D01*
X10533158Y-14142484D02*
X10552205Y-14152008D01*
X10552205Y-14152008D02*
X10561729Y-14161531D01*
X10561729Y-14161531D02*
X10571253Y-14180579D01*
X10571253Y-14180579D02*
X10571253Y-14199627D01*
X10571253Y-14199627D02*
X10561729Y-14228198D01*
X10561729Y-14228198D02*
X10447444Y-14342484D01*
X10447444Y-14342484D02*
X10571253Y-14342484D01*
X10695063Y-14142484D02*
X10714110Y-14142484D01*
X10714110Y-14142484D02*
X10733158Y-14152008D01*
X10733158Y-14152008D02*
X10742682Y-14161531D01*
X10742682Y-14161531D02*
X10752205Y-14180579D01*
X10752205Y-14180579D02*
X10761729Y-14218674D01*
X10761729Y-14218674D02*
X10761729Y-14266293D01*
X10761729Y-14266293D02*
X10752205Y-14304388D01*
X10752205Y-14304388D02*
X10742682Y-14323436D01*
X10742682Y-14323436D02*
X10733158Y-14332960D01*
X10733158Y-14332960D02*
X10714110Y-14342484D01*
X10714110Y-14342484D02*
X10695063Y-14342484D01*
X10695063Y-14342484D02*
X10676015Y-14332960D01*
X10676015Y-14332960D02*
X10666491Y-14323436D01*
X10666491Y-14323436D02*
X10656967Y-14304388D01*
X10656967Y-14304388D02*
X10647444Y-14266293D01*
X10647444Y-14266293D02*
X10647444Y-14218674D01*
X10647444Y-14218674D02*
X10656967Y-14180579D01*
X10656967Y-14180579D02*
X10666491Y-14161531D01*
X10666491Y-14161531D02*
X10676015Y-14152008D01*
X10676015Y-14152008D02*
X10695063Y-14142484D01*
X10885539Y-14142484D02*
X10904586Y-14142484D01*
X10904586Y-14142484D02*
X10923634Y-14152008D01*
X10923634Y-14152008D02*
X10933158Y-14161531D01*
X10933158Y-14161531D02*
X10942682Y-14180579D01*
X10942682Y-14180579D02*
X10952205Y-14218674D01*
X10952205Y-14218674D02*
X10952205Y-14266293D01*
X10952205Y-14266293D02*
X10942682Y-14304388D01*
X10942682Y-14304388D02*
X10933158Y-14323436D01*
X10933158Y-14323436D02*
X10923634Y-14332960D01*
X10923634Y-14332960D02*
X10904586Y-14342484D01*
X10904586Y-14342484D02*
X10885539Y-14342484D01*
X10885539Y-14342484D02*
X10866491Y-14332960D01*
X10866491Y-14332960D02*
X10856967Y-14323436D01*
X10856967Y-14323436D02*
X10847444Y-14304388D01*
X10847444Y-14304388D02*
X10837920Y-14266293D01*
X10837920Y-14266293D02*
X10837920Y-14218674D01*
X10837920Y-14218674D02*
X10847444Y-14180579D01*
X10847444Y-14180579D02*
X10856967Y-14161531D01*
X10856967Y-14161531D02*
X10866491Y-14152008D01*
X10866491Y-14152008D02*
X10885539Y-14142484D01*
X11037920Y-14342484D02*
X11037920Y-14209150D01*
X11037920Y-14228198D02*
X11047444Y-14218674D01*
X11047444Y-14218674D02*
X11066491Y-14209150D01*
X11066491Y-14209150D02*
X11095063Y-14209150D01*
X11095063Y-14209150D02*
X11114110Y-14218674D01*
X11114110Y-14218674D02*
X11123634Y-14237722D01*
X11123634Y-14237722D02*
X11123634Y-14342484D01*
X11123634Y-14237722D02*
X11133158Y-14218674D01*
X11133158Y-14218674D02*
X11152205Y-14209150D01*
X11152205Y-14209150D02*
X11180777Y-14209150D01*
X11180777Y-14209150D02*
X11199824Y-14218674D01*
X11199824Y-14218674D02*
X11209348Y-14237722D01*
X11209348Y-14237722D02*
X11209348Y-14342484D01*
X11304586Y-14342484D02*
X11304586Y-14209150D01*
X11304586Y-14228198D02*
X11314110Y-14218674D01*
X11314110Y-14218674D02*
X11333158Y-14209150D01*
X11333158Y-14209150D02*
X11361729Y-14209150D01*
X11361729Y-14209150D02*
X11380777Y-14218674D01*
X11380777Y-14218674D02*
X11390301Y-14237722D01*
X11390301Y-14237722D02*
X11390301Y-14342484D01*
X11390301Y-14237722D02*
X11399824Y-14218674D01*
X11399824Y-14218674D02*
X11418872Y-14209150D01*
X11418872Y-14209150D02*
X11447443Y-14209150D01*
X11447443Y-14209150D02*
X11466491Y-14218674D01*
X11466491Y-14218674D02*
X11476015Y-14237722D01*
X11476015Y-14237722D02*
X11476015Y-14342484D01*
X11866491Y-14132960D02*
X11695063Y-14390103D01*
X12123634Y-14142484D02*
X12142682Y-14142484D01*
X12142682Y-14142484D02*
X12161729Y-14152008D01*
X12161729Y-14152008D02*
X12171253Y-14161531D01*
X12171253Y-14161531D02*
X12180777Y-14180579D01*
X12180777Y-14180579D02*
X12190301Y-14218674D01*
X12190301Y-14218674D02*
X12190301Y-14266293D01*
X12190301Y-14266293D02*
X12180777Y-14304388D01*
X12180777Y-14304388D02*
X12171253Y-14323436D01*
X12171253Y-14323436D02*
X12161729Y-14332960D01*
X12161729Y-14332960D02*
X12142682Y-14342484D01*
X12142682Y-14342484D02*
X12123634Y-14342484D01*
X12123634Y-14342484D02*
X12104586Y-14332960D01*
X12104586Y-14332960D02*
X12095063Y-14323436D01*
X12095063Y-14323436D02*
X12085539Y-14304388D01*
X12085539Y-14304388D02*
X12076015Y-14266293D01*
X12076015Y-14266293D02*
X12076015Y-14218674D01*
X12076015Y-14218674D02*
X12085539Y-14180579D01*
X12085539Y-14180579D02*
X12095063Y-14161531D01*
X12095063Y-14161531D02*
X12104586Y-14152008D01*
X12104586Y-14152008D02*
X12123634Y-14142484D01*
X12276015Y-14323436D02*
X12285539Y-14332960D01*
X12285539Y-14332960D02*
X12276015Y-14342484D01*
X12276015Y-14342484D02*
X12266491Y-14332960D01*
X12266491Y-14332960D02*
X12276015Y-14323436D01*
X12276015Y-14323436D02*
X12276015Y-14342484D01*
X12409348Y-14142484D02*
X12428396Y-14142484D01*
X12428396Y-14142484D02*
X12447444Y-14152008D01*
X12447444Y-14152008D02*
X12456967Y-14161531D01*
X12456967Y-14161531D02*
X12466491Y-14180579D01*
X12466491Y-14180579D02*
X12476015Y-14218674D01*
X12476015Y-14218674D02*
X12476015Y-14266293D01*
X12476015Y-14266293D02*
X12466491Y-14304388D01*
X12466491Y-14304388D02*
X12456967Y-14323436D01*
X12456967Y-14323436D02*
X12447444Y-14332960D01*
X12447444Y-14332960D02*
X12428396Y-14342484D01*
X12428396Y-14342484D02*
X12409348Y-14342484D01*
X12409348Y-14342484D02*
X12390301Y-14332960D01*
X12390301Y-14332960D02*
X12380777Y-14323436D01*
X12380777Y-14323436D02*
X12371253Y-14304388D01*
X12371253Y-14304388D02*
X12361729Y-14266293D01*
X12361729Y-14266293D02*
X12361729Y-14218674D01*
X12361729Y-14218674D02*
X12371253Y-14180579D01*
X12371253Y-14180579D02*
X12380777Y-14161531D01*
X12380777Y-14161531D02*
X12390301Y-14152008D01*
X12390301Y-14152008D02*
X12409348Y-14142484D01*
X12647444Y-14209150D02*
X12647444Y-14342484D01*
X12599825Y-14132960D02*
X12552206Y-14275817D01*
X12552206Y-14275817D02*
X12676015Y-14275817D01*
X12733158Y-14142484D02*
X12866491Y-14142484D01*
X12866491Y-14142484D02*
X12780777Y-14342484D01*
X12933158Y-14161531D02*
X12942682Y-14152008D01*
X12942682Y-14152008D02*
X12961729Y-14142484D01*
X12961729Y-14142484D02*
X13009348Y-14142484D01*
X13009348Y-14142484D02*
X13028396Y-14152008D01*
X13028396Y-14152008D02*
X13037920Y-14161531D01*
X13037920Y-14161531D02*
X13047444Y-14180579D01*
X13047444Y-14180579D02*
X13047444Y-14199627D01*
X13047444Y-14199627D02*
X13037920Y-14228198D01*
X13037920Y-14228198D02*
X12923634Y-14342484D01*
X12923634Y-14342484D02*
X13047444Y-14342484D01*
X13123634Y-14142484D02*
X13123634Y-14180579D01*
X13199825Y-14142484D02*
X13199825Y-14180579D01*
X13495063Y-14418674D02*
X13485539Y-14409150D01*
X13485539Y-14409150D02*
X13466491Y-14380579D01*
X13466491Y-14380579D02*
X13456968Y-14361531D01*
X13456968Y-14361531D02*
X13447444Y-14332960D01*
X13447444Y-14332960D02*
X13437920Y-14285341D01*
X13437920Y-14285341D02*
X13437920Y-14247246D01*
X13437920Y-14247246D02*
X13447444Y-14199627D01*
X13447444Y-14199627D02*
X13456968Y-14171055D01*
X13456968Y-14171055D02*
X13466491Y-14152008D01*
X13466491Y-14152008D02*
X13485539Y-14123436D01*
X13485539Y-14123436D02*
X13495063Y-14113912D01*
X13552206Y-14142484D02*
X13676015Y-14142484D01*
X13676015Y-14142484D02*
X13609348Y-14218674D01*
X13609348Y-14218674D02*
X13637920Y-14218674D01*
X13637920Y-14218674D02*
X13656968Y-14228198D01*
X13656968Y-14228198D02*
X13666491Y-14237722D01*
X13666491Y-14237722D02*
X13676015Y-14256769D01*
X13676015Y-14256769D02*
X13676015Y-14304388D01*
X13676015Y-14304388D02*
X13666491Y-14323436D01*
X13666491Y-14323436D02*
X13656968Y-14332960D01*
X13656968Y-14332960D02*
X13637920Y-14342484D01*
X13637920Y-14342484D02*
X13580777Y-14342484D01*
X13580777Y-14342484D02*
X13561729Y-14332960D01*
X13561729Y-14332960D02*
X13552206Y-14323436D01*
X13914110Y-14342484D02*
X13914110Y-14142484D01*
X13999825Y-14342484D02*
X13999825Y-14237722D01*
X13999825Y-14237722D02*
X13990301Y-14218674D01*
X13990301Y-14218674D02*
X13971253Y-14209150D01*
X13971253Y-14209150D02*
X13942682Y-14209150D01*
X13942682Y-14209150D02*
X13923634Y-14218674D01*
X13923634Y-14218674D02*
X13914110Y-14228198D01*
X14123634Y-14342484D02*
X14104587Y-14332960D01*
X14104587Y-14332960D02*
X14095063Y-14323436D01*
X14095063Y-14323436D02*
X14085539Y-14304388D01*
X14085539Y-14304388D02*
X14085539Y-14247246D01*
X14085539Y-14247246D02*
X14095063Y-14228198D01*
X14095063Y-14228198D02*
X14104587Y-14218674D01*
X14104587Y-14218674D02*
X14123634Y-14209150D01*
X14123634Y-14209150D02*
X14152206Y-14209150D01*
X14152206Y-14209150D02*
X14171253Y-14218674D01*
X14171253Y-14218674D02*
X14180777Y-14228198D01*
X14180777Y-14228198D02*
X14190301Y-14247246D01*
X14190301Y-14247246D02*
X14190301Y-14304388D01*
X14190301Y-14304388D02*
X14180777Y-14323436D01*
X14180777Y-14323436D02*
X14171253Y-14332960D01*
X14171253Y-14332960D02*
X14152206Y-14342484D01*
X14152206Y-14342484D02*
X14123634Y-14342484D01*
X14304587Y-14342484D02*
X14285539Y-14332960D01*
X14285539Y-14332960D02*
X14276015Y-14313912D01*
X14276015Y-14313912D02*
X14276015Y-14142484D01*
X14456968Y-14332960D02*
X14437920Y-14342484D01*
X14437920Y-14342484D02*
X14399825Y-14342484D01*
X14399825Y-14342484D02*
X14380777Y-14332960D01*
X14380777Y-14332960D02*
X14371253Y-14313912D01*
X14371253Y-14313912D02*
X14371253Y-14237722D01*
X14371253Y-14237722D02*
X14380777Y-14218674D01*
X14380777Y-14218674D02*
X14399825Y-14209150D01*
X14399825Y-14209150D02*
X14437920Y-14209150D01*
X14437920Y-14209150D02*
X14456968Y-14218674D01*
X14456968Y-14218674D02*
X14466491Y-14237722D01*
X14466491Y-14237722D02*
X14466491Y-14256769D01*
X14466491Y-14256769D02*
X14371253Y-14275817D01*
X14542682Y-14332960D02*
X14561730Y-14342484D01*
X14561730Y-14342484D02*
X14599825Y-14342484D01*
X14599825Y-14342484D02*
X14618872Y-14332960D01*
X14618872Y-14332960D02*
X14628396Y-14313912D01*
X14628396Y-14313912D02*
X14628396Y-14304388D01*
X14628396Y-14304388D02*
X14618872Y-14285341D01*
X14618872Y-14285341D02*
X14599825Y-14275817D01*
X14599825Y-14275817D02*
X14571253Y-14275817D01*
X14571253Y-14275817D02*
X14552206Y-14266293D01*
X14552206Y-14266293D02*
X14542682Y-14247246D01*
X14542682Y-14247246D02*
X14542682Y-14237722D01*
X14542682Y-14237722D02*
X14552206Y-14218674D01*
X14552206Y-14218674D02*
X14571253Y-14209150D01*
X14571253Y-14209150D02*
X14599825Y-14209150D01*
X14599825Y-14209150D02*
X14618872Y-14218674D01*
X14695063Y-14418674D02*
X14704587Y-14409150D01*
X14704587Y-14409150D02*
X14723634Y-14380579D01*
X14723634Y-14380579D02*
X14733158Y-14361531D01*
X14733158Y-14361531D02*
X14742682Y-14332960D01*
X14742682Y-14332960D02*
X14752206Y-14285341D01*
X14752206Y-14285341D02*
X14752206Y-14247246D01*
X14752206Y-14247246D02*
X14742682Y-14199627D01*
X14742682Y-14199627D02*
X14733158Y-14171055D01*
X14733158Y-14171055D02*
X14723634Y-14152008D01*
X14723634Y-14152008D02*
X14704587Y-14123436D01*
X14704587Y-14123436D02*
X14695063Y-14113912D01*
X9720000Y-14415000D02*
X9920000Y-14615000D01*
X9920000Y-14415000D02*
X9720000Y-14615000D01*
X9920000Y-14515000D02*
G75*
G02*
X9720000Y-14515000I-100000J0D01*
G01*
X9720000Y-14515000D02*
G75*
G02*
X9920000Y-14515000I100000J0D01*
G01*
X10266491Y-14406484D02*
X10228396Y-14406484D01*
X10228396Y-14406484D02*
X10209348Y-14416008D01*
X10209348Y-14416008D02*
X10199824Y-14425531D01*
X10199824Y-14425531D02*
X10180777Y-14454103D01*
X10180777Y-14454103D02*
X10171253Y-14492198D01*
X10171253Y-14492198D02*
X10171253Y-14568388D01*
X10171253Y-14568388D02*
X10180777Y-14587436D01*
X10180777Y-14587436D02*
X10190301Y-14596960D01*
X10190301Y-14596960D02*
X10209348Y-14606484D01*
X10209348Y-14606484D02*
X10247444Y-14606484D01*
X10247444Y-14606484D02*
X10266491Y-14596960D01*
X10266491Y-14596960D02*
X10276015Y-14587436D01*
X10276015Y-14587436D02*
X10285539Y-14568388D01*
X10285539Y-14568388D02*
X10285539Y-14520769D01*
X10285539Y-14520769D02*
X10276015Y-14501722D01*
X10276015Y-14501722D02*
X10266491Y-14492198D01*
X10266491Y-14492198D02*
X10247444Y-14482674D01*
X10247444Y-14482674D02*
X10209348Y-14482674D01*
X10209348Y-14482674D02*
X10190301Y-14492198D01*
X10190301Y-14492198D02*
X10180777Y-14501722D01*
X10180777Y-14501722D02*
X10171253Y-14520769D01*
X10371253Y-14587436D02*
X10380777Y-14596960D01*
X10380777Y-14596960D02*
X10371253Y-14606484D01*
X10371253Y-14606484D02*
X10361729Y-14596960D01*
X10361729Y-14596960D02*
X10371253Y-14587436D01*
X10371253Y-14587436D02*
X10371253Y-14606484D01*
X10571253Y-14606484D02*
X10456967Y-14606484D01*
X10514110Y-14606484D02*
X10514110Y-14406484D01*
X10514110Y-14406484D02*
X10495063Y-14435055D01*
X10495063Y-14435055D02*
X10476015Y-14454103D01*
X10476015Y-14454103D02*
X10456967Y-14463627D01*
X10695063Y-14406484D02*
X10714110Y-14406484D01*
X10714110Y-14406484D02*
X10733158Y-14416008D01*
X10733158Y-14416008D02*
X10742682Y-14425531D01*
X10742682Y-14425531D02*
X10752205Y-14444579D01*
X10752205Y-14444579D02*
X10761729Y-14482674D01*
X10761729Y-14482674D02*
X10761729Y-14530293D01*
X10761729Y-14530293D02*
X10752205Y-14568388D01*
X10752205Y-14568388D02*
X10742682Y-14587436D01*
X10742682Y-14587436D02*
X10733158Y-14596960D01*
X10733158Y-14596960D02*
X10714110Y-14606484D01*
X10714110Y-14606484D02*
X10695063Y-14606484D01*
X10695063Y-14606484D02*
X10676015Y-14596960D01*
X10676015Y-14596960D02*
X10666491Y-14587436D01*
X10666491Y-14587436D02*
X10656967Y-14568388D01*
X10656967Y-14568388D02*
X10647444Y-14530293D01*
X10647444Y-14530293D02*
X10647444Y-14482674D01*
X10647444Y-14482674D02*
X10656967Y-14444579D01*
X10656967Y-14444579D02*
X10666491Y-14425531D01*
X10666491Y-14425531D02*
X10676015Y-14416008D01*
X10676015Y-14416008D02*
X10695063Y-14406484D01*
X10885539Y-14406484D02*
X10904586Y-14406484D01*
X10904586Y-14406484D02*
X10923634Y-14416008D01*
X10923634Y-14416008D02*
X10933158Y-14425531D01*
X10933158Y-14425531D02*
X10942682Y-14444579D01*
X10942682Y-14444579D02*
X10952205Y-14482674D01*
X10952205Y-14482674D02*
X10952205Y-14530293D01*
X10952205Y-14530293D02*
X10942682Y-14568388D01*
X10942682Y-14568388D02*
X10933158Y-14587436D01*
X10933158Y-14587436D02*
X10923634Y-14596960D01*
X10923634Y-14596960D02*
X10904586Y-14606484D01*
X10904586Y-14606484D02*
X10885539Y-14606484D01*
X10885539Y-14606484D02*
X10866491Y-14596960D01*
X10866491Y-14596960D02*
X10856967Y-14587436D01*
X10856967Y-14587436D02*
X10847444Y-14568388D01*
X10847444Y-14568388D02*
X10837920Y-14530293D01*
X10837920Y-14530293D02*
X10837920Y-14482674D01*
X10837920Y-14482674D02*
X10847444Y-14444579D01*
X10847444Y-14444579D02*
X10856967Y-14425531D01*
X10856967Y-14425531D02*
X10866491Y-14416008D01*
X10866491Y-14416008D02*
X10885539Y-14406484D01*
X11037920Y-14606484D02*
X11037920Y-14473150D01*
X11037920Y-14492198D02*
X11047444Y-14482674D01*
X11047444Y-14482674D02*
X11066491Y-14473150D01*
X11066491Y-14473150D02*
X11095063Y-14473150D01*
X11095063Y-14473150D02*
X11114110Y-14482674D01*
X11114110Y-14482674D02*
X11123634Y-14501722D01*
X11123634Y-14501722D02*
X11123634Y-14606484D01*
X11123634Y-14501722D02*
X11133158Y-14482674D01*
X11133158Y-14482674D02*
X11152205Y-14473150D01*
X11152205Y-14473150D02*
X11180777Y-14473150D01*
X11180777Y-14473150D02*
X11199824Y-14482674D01*
X11199824Y-14482674D02*
X11209348Y-14501722D01*
X11209348Y-14501722D02*
X11209348Y-14606484D01*
X11304586Y-14606484D02*
X11304586Y-14473150D01*
X11304586Y-14492198D02*
X11314110Y-14482674D01*
X11314110Y-14482674D02*
X11333158Y-14473150D01*
X11333158Y-14473150D02*
X11361729Y-14473150D01*
X11361729Y-14473150D02*
X11380777Y-14482674D01*
X11380777Y-14482674D02*
X11390301Y-14501722D01*
X11390301Y-14501722D02*
X11390301Y-14606484D01*
X11390301Y-14501722D02*
X11399824Y-14482674D01*
X11399824Y-14482674D02*
X11418872Y-14473150D01*
X11418872Y-14473150D02*
X11447443Y-14473150D01*
X11447443Y-14473150D02*
X11466491Y-14482674D01*
X11466491Y-14482674D02*
X11476015Y-14501722D01*
X11476015Y-14501722D02*
X11476015Y-14606484D01*
X11866491Y-14396960D02*
X11695063Y-14654103D01*
X12123634Y-14406484D02*
X12142682Y-14406484D01*
X12142682Y-14406484D02*
X12161729Y-14416008D01*
X12161729Y-14416008D02*
X12171253Y-14425531D01*
X12171253Y-14425531D02*
X12180777Y-14444579D01*
X12180777Y-14444579D02*
X12190301Y-14482674D01*
X12190301Y-14482674D02*
X12190301Y-14530293D01*
X12190301Y-14530293D02*
X12180777Y-14568388D01*
X12180777Y-14568388D02*
X12171253Y-14587436D01*
X12171253Y-14587436D02*
X12161729Y-14596960D01*
X12161729Y-14596960D02*
X12142682Y-14606484D01*
X12142682Y-14606484D02*
X12123634Y-14606484D01*
X12123634Y-14606484D02*
X12104586Y-14596960D01*
X12104586Y-14596960D02*
X12095063Y-14587436D01*
X12095063Y-14587436D02*
X12085539Y-14568388D01*
X12085539Y-14568388D02*
X12076015Y-14530293D01*
X12076015Y-14530293D02*
X12076015Y-14482674D01*
X12076015Y-14482674D02*
X12085539Y-14444579D01*
X12085539Y-14444579D02*
X12095063Y-14425531D01*
X12095063Y-14425531D02*
X12104586Y-14416008D01*
X12104586Y-14416008D02*
X12123634Y-14406484D01*
X12276015Y-14587436D02*
X12285539Y-14596960D01*
X12285539Y-14596960D02*
X12276015Y-14606484D01*
X12276015Y-14606484D02*
X12266491Y-14596960D01*
X12266491Y-14596960D02*
X12276015Y-14587436D01*
X12276015Y-14587436D02*
X12276015Y-14606484D01*
X12361729Y-14425531D02*
X12371253Y-14416008D01*
X12371253Y-14416008D02*
X12390301Y-14406484D01*
X12390301Y-14406484D02*
X12437920Y-14406484D01*
X12437920Y-14406484D02*
X12456967Y-14416008D01*
X12456967Y-14416008D02*
X12466491Y-14425531D01*
X12466491Y-14425531D02*
X12476015Y-14444579D01*
X12476015Y-14444579D02*
X12476015Y-14463627D01*
X12476015Y-14463627D02*
X12466491Y-14492198D01*
X12466491Y-14492198D02*
X12352206Y-14606484D01*
X12352206Y-14606484D02*
X12476015Y-14606484D01*
X12647444Y-14473150D02*
X12647444Y-14606484D01*
X12599825Y-14396960D02*
X12552206Y-14539817D01*
X12552206Y-14539817D02*
X12676015Y-14539817D01*
X12790301Y-14406484D02*
X12809348Y-14406484D01*
X12809348Y-14406484D02*
X12828396Y-14416008D01*
X12828396Y-14416008D02*
X12837920Y-14425531D01*
X12837920Y-14425531D02*
X12847444Y-14444579D01*
X12847444Y-14444579D02*
X12856967Y-14482674D01*
X12856967Y-14482674D02*
X12856967Y-14530293D01*
X12856967Y-14530293D02*
X12847444Y-14568388D01*
X12847444Y-14568388D02*
X12837920Y-14587436D01*
X12837920Y-14587436D02*
X12828396Y-14596960D01*
X12828396Y-14596960D02*
X12809348Y-14606484D01*
X12809348Y-14606484D02*
X12790301Y-14606484D01*
X12790301Y-14606484D02*
X12771253Y-14596960D01*
X12771253Y-14596960D02*
X12761729Y-14587436D01*
X12761729Y-14587436D02*
X12752206Y-14568388D01*
X12752206Y-14568388D02*
X12742682Y-14530293D01*
X12742682Y-14530293D02*
X12742682Y-14482674D01*
X12742682Y-14482674D02*
X12752206Y-14444579D01*
X12752206Y-14444579D02*
X12761729Y-14425531D01*
X12761729Y-14425531D02*
X12771253Y-14416008D01*
X12771253Y-14416008D02*
X12790301Y-14406484D01*
X12933158Y-14425531D02*
X12942682Y-14416008D01*
X12942682Y-14416008D02*
X12961729Y-14406484D01*
X12961729Y-14406484D02*
X13009348Y-14406484D01*
X13009348Y-14406484D02*
X13028396Y-14416008D01*
X13028396Y-14416008D02*
X13037920Y-14425531D01*
X13037920Y-14425531D02*
X13047444Y-14444579D01*
X13047444Y-14444579D02*
X13047444Y-14463627D01*
X13047444Y-14463627D02*
X13037920Y-14492198D01*
X13037920Y-14492198D02*
X12923634Y-14606484D01*
X12923634Y-14606484D02*
X13047444Y-14606484D01*
X13123634Y-14406484D02*
X13123634Y-14444579D01*
X13199825Y-14406484D02*
X13199825Y-14444579D01*
X13495063Y-14682674D02*
X13485539Y-14673150D01*
X13485539Y-14673150D02*
X13466491Y-14644579D01*
X13466491Y-14644579D02*
X13456968Y-14625531D01*
X13456968Y-14625531D02*
X13447444Y-14596960D01*
X13447444Y-14596960D02*
X13437920Y-14549341D01*
X13437920Y-14549341D02*
X13437920Y-14511246D01*
X13437920Y-14511246D02*
X13447444Y-14463627D01*
X13447444Y-14463627D02*
X13456968Y-14435055D01*
X13456968Y-14435055D02*
X13466491Y-14416008D01*
X13466491Y-14416008D02*
X13485539Y-14387436D01*
X13485539Y-14387436D02*
X13495063Y-14377912D01*
X13561729Y-14425531D02*
X13571253Y-14416008D01*
X13571253Y-14416008D02*
X13590301Y-14406484D01*
X13590301Y-14406484D02*
X13637920Y-14406484D01*
X13637920Y-14406484D02*
X13656968Y-14416008D01*
X13656968Y-14416008D02*
X13666491Y-14425531D01*
X13666491Y-14425531D02*
X13676015Y-14444579D01*
X13676015Y-14444579D02*
X13676015Y-14463627D01*
X13676015Y-14463627D02*
X13666491Y-14492198D01*
X13666491Y-14492198D02*
X13552206Y-14606484D01*
X13552206Y-14606484D02*
X13676015Y-14606484D01*
X13914110Y-14606484D02*
X13914110Y-14406484D01*
X13999825Y-14606484D02*
X13999825Y-14501722D01*
X13999825Y-14501722D02*
X13990301Y-14482674D01*
X13990301Y-14482674D02*
X13971253Y-14473150D01*
X13971253Y-14473150D02*
X13942682Y-14473150D01*
X13942682Y-14473150D02*
X13923634Y-14482674D01*
X13923634Y-14482674D02*
X13914110Y-14492198D01*
X14123634Y-14606484D02*
X14104587Y-14596960D01*
X14104587Y-14596960D02*
X14095063Y-14587436D01*
X14095063Y-14587436D02*
X14085539Y-14568388D01*
X14085539Y-14568388D02*
X14085539Y-14511246D01*
X14085539Y-14511246D02*
X14095063Y-14492198D01*
X14095063Y-14492198D02*
X14104587Y-14482674D01*
X14104587Y-14482674D02*
X14123634Y-14473150D01*
X14123634Y-14473150D02*
X14152206Y-14473150D01*
X14152206Y-14473150D02*
X14171253Y-14482674D01*
X14171253Y-14482674D02*
X14180777Y-14492198D01*
X14180777Y-14492198D02*
X14190301Y-14511246D01*
X14190301Y-14511246D02*
X14190301Y-14568388D01*
X14190301Y-14568388D02*
X14180777Y-14587436D01*
X14180777Y-14587436D02*
X14171253Y-14596960D01*
X14171253Y-14596960D02*
X14152206Y-14606484D01*
X14152206Y-14606484D02*
X14123634Y-14606484D01*
X14304587Y-14606484D02*
X14285539Y-14596960D01*
X14285539Y-14596960D02*
X14276015Y-14577912D01*
X14276015Y-14577912D02*
X14276015Y-14406484D01*
X14456968Y-14596960D02*
X14437920Y-14606484D01*
X14437920Y-14606484D02*
X14399825Y-14606484D01*
X14399825Y-14606484D02*
X14380777Y-14596960D01*
X14380777Y-14596960D02*
X14371253Y-14577912D01*
X14371253Y-14577912D02*
X14371253Y-14501722D01*
X14371253Y-14501722D02*
X14380777Y-14482674D01*
X14380777Y-14482674D02*
X14399825Y-14473150D01*
X14399825Y-14473150D02*
X14437920Y-14473150D01*
X14437920Y-14473150D02*
X14456968Y-14482674D01*
X14456968Y-14482674D02*
X14466491Y-14501722D01*
X14466491Y-14501722D02*
X14466491Y-14520769D01*
X14466491Y-14520769D02*
X14371253Y-14539817D01*
X14542682Y-14596960D02*
X14561730Y-14606484D01*
X14561730Y-14606484D02*
X14599825Y-14606484D01*
X14599825Y-14606484D02*
X14618872Y-14596960D01*
X14618872Y-14596960D02*
X14628396Y-14577912D01*
X14628396Y-14577912D02*
X14628396Y-14568388D01*
X14628396Y-14568388D02*
X14618872Y-14549341D01*
X14618872Y-14549341D02*
X14599825Y-14539817D01*
X14599825Y-14539817D02*
X14571253Y-14539817D01*
X14571253Y-14539817D02*
X14552206Y-14530293D01*
X14552206Y-14530293D02*
X14542682Y-14511246D01*
X14542682Y-14511246D02*
X14542682Y-14501722D01*
X14542682Y-14501722D02*
X14552206Y-14482674D01*
X14552206Y-14482674D02*
X14571253Y-14473150D01*
X14571253Y-14473150D02*
X14599825Y-14473150D01*
X14599825Y-14473150D02*
X14618872Y-14482674D01*
X14695063Y-14682674D02*
X14704587Y-14673150D01*
X14704587Y-14673150D02*
X14723634Y-14644579D01*
X14723634Y-14644579D02*
X14733158Y-14625531D01*
X14733158Y-14625531D02*
X14742682Y-14596960D01*
X14742682Y-14596960D02*
X14752206Y-14549341D01*
X14752206Y-14549341D02*
X14752206Y-14511246D01*
X14752206Y-14511246D02*
X14742682Y-14463627D01*
X14742682Y-14463627D02*
X14733158Y-14435055D01*
X14733158Y-14435055D02*
X14723634Y-14416008D01*
X14723634Y-14416008D02*
X14704587Y-14387436D01*
X14704587Y-14387436D02*
X14695063Y-14377912D01*
M02*
