G04 #@! TF.GenerationSoftware,KiCad,Pcbnew,8.0.6*
G04 #@! TF.CreationDate,2024-11-17T19:47:03-05:00*
G04 #@! TF.ProjectId,STM32_KiCAD,53544d33-325f-44b6-9943-41442e6b6963,rev?*
G04 #@! TF.SameCoordinates,Original*
G04 #@! TF.FileFunction,Copper,L1,Top*
G04 #@! TF.FilePolarity,Positive*
%FSLAX46Y46*%
G04 Gerber Fmt 4.6, Leading zero omitted, Abs format (unit mm)*
G04 Created by KiCad (PCBNEW 8.0.6) date 2024-11-17 19:47:03*
%MOMM*%
%LPD*%
G01*
G04 APERTURE LIST*
G04 Aperture macros list*
%AMRoundRect*
0 Rectangle with rounded corners*
0 $1 Rounding radius*
0 $2 $3 $4 $5 $6 $7 $8 $9 X,Y pos of 4 corners*
0 Add a 4 corners polygon primitive as box body*
4,1,4,$2,$3,$4,$5,$6,$7,$8,$9,$2,$3,0*
0 Add four circle primitives for the rounded corners*
1,1,$1+$1,$2,$3*
1,1,$1+$1,$4,$5*
1,1,$1+$1,$6,$7*
1,1,$1+$1,$8,$9*
0 Add four rect primitives between the rounded corners*
20,1,$1+$1,$2,$3,$4,$5,0*
20,1,$1+$1,$4,$5,$6,$7,0*
20,1,$1+$1,$6,$7,$8,$9,0*
20,1,$1+$1,$8,$9,$2,$3,0*%
G04 Aperture macros list end*
G04 #@! TA.AperFunction,SMDPad,CuDef*
%ADD10RoundRect,0.250000X-0.337500X-0.475000X0.337500X-0.475000X0.337500X0.475000X-0.337500X0.475000X0*%
G04 #@! TD*
G04 #@! TA.AperFunction,ComponentPad*
%ADD11C,1.500000*%
G04 #@! TD*
G04 #@! TA.AperFunction,SMDPad,CuDef*
%ADD12RoundRect,0.155000X-0.212500X-0.155000X0.212500X-0.155000X0.212500X0.155000X-0.212500X0.155000X0*%
G04 #@! TD*
G04 #@! TA.AperFunction,ComponentPad*
%ADD13R,1.700000X1.700000*%
G04 #@! TD*
G04 #@! TA.AperFunction,ComponentPad*
%ADD14O,1.700000X1.700000*%
G04 #@! TD*
G04 #@! TA.AperFunction,ComponentPad*
%ADD15C,1.600000*%
G04 #@! TD*
G04 #@! TA.AperFunction,SMDPad,CuDef*
%ADD16RoundRect,0.237500X-0.300000X-0.237500X0.300000X-0.237500X0.300000X0.237500X-0.300000X0.237500X0*%
G04 #@! TD*
G04 #@! TA.AperFunction,SMDPad,CuDef*
%ADD17RoundRect,0.075000X-0.700000X-0.075000X0.700000X-0.075000X0.700000X0.075000X-0.700000X0.075000X0*%
G04 #@! TD*
G04 #@! TA.AperFunction,SMDPad,CuDef*
%ADD18RoundRect,0.075000X-0.075000X-0.700000X0.075000X-0.700000X0.075000X0.700000X-0.075000X0.700000X0*%
G04 #@! TD*
G04 #@! TA.AperFunction,ComponentPad*
%ADD19C,10.160000*%
G04 #@! TD*
G04 #@! TA.AperFunction,ComponentPad*
%ADD20R,3.000000X3.000000*%
G04 #@! TD*
G04 #@! TA.AperFunction,ComponentPad*
%ADD21C,3.000000*%
G04 #@! TD*
G04 #@! TA.AperFunction,ComponentPad*
%ADD22O,1.600000X1.600000*%
G04 #@! TD*
G04 #@! TA.AperFunction,ComponentPad*
%ADD23R,1.800000X1.800000*%
G04 #@! TD*
G04 #@! TA.AperFunction,ComponentPad*
%ADD24C,1.800000*%
G04 #@! TD*
G04 #@! TA.AperFunction,ViaPad*
%ADD25C,0.600000*%
G04 #@! TD*
G04 #@! TA.AperFunction,Conductor*
%ADD26C,0.200000*%
G04 #@! TD*
G04 APERTURE END LIST*
D10*
X126175000Y-79750000D03*
X128250000Y-79750000D03*
D11*
X136200000Y-106750000D03*
X131320000Y-106750000D03*
D12*
X120615000Y-79750000D03*
X121750000Y-79750000D03*
D13*
X136210000Y-119250000D03*
D14*
X138750000Y-119250000D03*
X141290000Y-119250000D03*
D12*
X106365000Y-79750000D03*
X107500000Y-79750000D03*
D15*
X142250000Y-106750000D03*
X142250000Y-111750000D03*
D16*
X123525000Y-87250000D03*
X125250000Y-87250000D03*
D15*
X124250000Y-106750000D03*
X124250000Y-111750000D03*
D13*
X184750000Y-80710000D03*
D14*
X184750000Y-78170000D03*
X184750000Y-75630000D03*
D17*
X146325000Y-88000000D03*
X146325000Y-88500000D03*
X146325000Y-89000000D03*
X146325000Y-89500000D03*
X146325000Y-90000000D03*
X146325000Y-90500000D03*
X146325000Y-91000000D03*
X146325000Y-91500000D03*
X146325000Y-92000000D03*
X146325000Y-92500000D03*
X146325000Y-93000000D03*
X146325000Y-93500000D03*
X146325000Y-94000000D03*
X146325000Y-94500000D03*
X146325000Y-95000000D03*
X146325000Y-95500000D03*
D18*
X148250000Y-97425000D03*
X148750000Y-97425000D03*
X149250000Y-97425000D03*
X149750000Y-97425000D03*
X150250000Y-97425000D03*
X150750000Y-97425000D03*
X151250000Y-97425000D03*
X151750000Y-97425000D03*
X152250000Y-97425000D03*
X152750000Y-97425000D03*
X153250000Y-97425000D03*
X153750000Y-97425000D03*
X154250000Y-97425000D03*
X154750000Y-97425000D03*
X155250000Y-97425000D03*
X155750000Y-97425000D03*
D17*
X157675000Y-95500000D03*
X157675000Y-95000000D03*
X157675000Y-94500000D03*
X157675000Y-94000000D03*
X157675000Y-93500000D03*
X157675000Y-93000000D03*
X157675000Y-92500000D03*
X157675000Y-92000000D03*
X157675000Y-91500000D03*
X157675000Y-91000000D03*
X157675000Y-90500000D03*
X157675000Y-90000000D03*
X157675000Y-89500000D03*
X157675000Y-89000000D03*
X157675000Y-88500000D03*
X157675000Y-88000000D03*
D18*
X155750000Y-86075000D03*
X155250000Y-86075000D03*
X154750000Y-86075000D03*
X154250000Y-86075000D03*
X153750000Y-86075000D03*
X153250000Y-86075000D03*
X152750000Y-86075000D03*
X152250000Y-86075000D03*
X151750000Y-86075000D03*
X151250000Y-86075000D03*
X150750000Y-86075000D03*
X150250000Y-86075000D03*
X149750000Y-86075000D03*
X149250000Y-86075000D03*
X148750000Y-86075000D03*
X148250000Y-86075000D03*
D16*
X113775000Y-87500000D03*
X115500000Y-87500000D03*
D13*
X174250000Y-58250000D03*
D14*
X171710000Y-58250000D03*
X169170000Y-58250000D03*
X166630000Y-58250000D03*
X164090000Y-58250000D03*
X161550000Y-58250000D03*
D15*
X118250000Y-93250000D03*
X113250000Y-93250000D03*
D19*
X113750000Y-58750000D03*
X143720000Y-58750000D03*
D20*
X162750000Y-110000000D03*
D21*
X167750000Y-110000000D03*
X172750000Y-110000000D03*
D15*
X160410000Y-70250000D03*
D22*
X150250000Y-70250000D03*
D12*
X115615000Y-79750000D03*
X116750000Y-79750000D03*
D15*
X153090000Y-78250000D03*
D22*
X163250000Y-78250000D03*
D12*
X110865000Y-79750000D03*
X112000000Y-79750000D03*
D23*
X169710000Y-78250000D03*
D24*
X172250000Y-78250000D03*
D13*
X184500000Y-97800000D03*
D14*
X184500000Y-95260000D03*
X184500000Y-92720000D03*
X184500000Y-90180000D03*
D13*
X113880000Y-72750000D03*
D14*
X116420000Y-72750000D03*
X118960000Y-72750000D03*
X121500000Y-72750000D03*
D13*
X106500000Y-101950000D03*
D14*
X106500000Y-99410000D03*
X106500000Y-96870000D03*
X106500000Y-94330000D03*
X106500000Y-91790000D03*
X106500000Y-89250000D03*
D13*
X171775000Y-87000000D03*
D14*
X169235000Y-87000000D03*
X166695000Y-87000000D03*
D15*
X137250000Y-85000000D03*
X137250000Y-80000000D03*
X138600000Y-95000000D03*
D22*
X125900000Y-95000000D03*
D13*
X184750000Y-68050000D03*
D14*
X184750000Y-65510000D03*
X184750000Y-62970000D03*
X184750000Y-60430000D03*
D25*
X152000000Y-88750000D03*
X158750000Y-99000000D03*
X159750000Y-88000000D03*
X152000000Y-90500000D03*
X160000000Y-86500000D03*
X143500000Y-96000000D03*
X160500000Y-84750000D03*
X141750000Y-96000000D03*
X142000000Y-92500000D03*
X138750000Y-112250000D03*
X151250000Y-83000000D03*
X148500000Y-83750000D03*
X151500000Y-84000000D03*
X149375000Y-83125000D03*
D26*
X159250000Y-88500000D02*
X157675000Y-88500000D01*
X148750000Y-86882410D02*
X150617590Y-88750000D01*
X156017590Y-99000000D02*
X158750000Y-99000000D01*
X148750000Y-86075000D02*
X148750000Y-86882410D01*
X155250000Y-97425000D02*
X155250000Y-98232410D01*
X148750000Y-105250000D02*
X142250000Y-111750000D01*
X148750000Y-93750000D02*
X148750000Y-97425000D01*
X131500000Y-93500000D02*
X125250000Y-87250000D01*
X159750000Y-88000000D02*
X159250000Y-88500000D01*
X155250000Y-98232410D02*
X156017590Y-99000000D01*
X150617590Y-88750000D02*
X152000000Y-88750000D01*
X146325000Y-93500000D02*
X131500000Y-93500000D01*
X152000000Y-90500000D02*
X148750000Y-93750000D01*
X148750000Y-97425000D02*
X148750000Y-105250000D01*
X149000000Y-89750000D02*
X155750000Y-89750000D01*
X106500000Y-89250000D02*
X106500000Y-91790000D01*
X115500000Y-76250000D02*
X115615000Y-76365000D01*
X155750000Y-89117590D02*
X155750000Y-89750000D01*
X157675000Y-88000000D02*
X158500000Y-88000000D01*
X110750000Y-76250000D02*
X110865000Y-76365000D01*
X121500000Y-76250000D02*
X120500000Y-76250000D01*
X123500000Y-76250000D02*
X126000000Y-76250000D01*
X106365000Y-76385000D02*
X106365000Y-79750000D01*
X148250000Y-89000000D02*
X149000000Y-89750000D01*
X158925000Y-55750000D02*
X138425000Y-76250000D01*
X126175000Y-76425000D02*
X126000000Y-76250000D01*
X156867590Y-88000000D02*
X155750000Y-89117590D01*
X115615000Y-76365000D02*
X115615000Y-79750000D01*
X123525000Y-92625000D02*
X125900000Y-95000000D01*
X123525000Y-76775000D02*
X123525000Y-87250000D01*
X121500000Y-76250000D02*
X123500000Y-76250000D01*
X146325000Y-84175000D02*
X146337500Y-84162500D01*
X158500000Y-88000000D02*
X160000000Y-86500000D01*
X106365000Y-89115000D02*
X106500000Y-89250000D01*
X115500000Y-76250000D02*
X110750000Y-76250000D01*
X174250000Y-58250000D02*
X174250000Y-55750000D01*
X123500000Y-76250000D02*
X123500000Y-76750000D01*
X149250000Y-96000000D02*
X155750000Y-96000000D01*
X106365000Y-79750000D02*
X106365000Y-89115000D01*
X149250000Y-97425000D02*
X149250000Y-96000000D01*
X120500000Y-76250000D02*
X115500000Y-76250000D01*
X157675000Y-88000000D02*
X156867590Y-88000000D01*
X120615000Y-76365000D02*
X120500000Y-76250000D01*
X148250000Y-86075000D02*
X148250000Y-89000000D01*
X110865000Y-76365000D02*
X110865000Y-79750000D01*
X110750000Y-76250000D02*
X106500000Y-76250000D01*
X146337500Y-84162500D02*
X138425000Y-76250000D01*
X121500000Y-72750000D02*
X121500000Y-76250000D01*
X106500000Y-76250000D02*
X106365000Y-76385000D01*
X146325000Y-88000000D02*
X146325000Y-84175000D01*
X106500000Y-91790000D02*
X106500000Y-94330000D01*
X148250000Y-86075000D02*
X146337500Y-84162500D01*
X123525000Y-87250000D02*
X123525000Y-92625000D01*
X138425000Y-76250000D02*
X126000000Y-76250000D01*
X174250000Y-55750000D02*
X158925000Y-55750000D01*
X155750000Y-96000000D02*
X155750000Y-97425000D01*
X123500000Y-76750000D02*
X123525000Y-76775000D01*
X126175000Y-79750000D02*
X126175000Y-76425000D01*
X120615000Y-79750000D02*
X120615000Y-76365000D01*
X155750000Y-89750000D02*
X155750000Y-96000000D01*
X147750000Y-95382410D02*
X147750000Y-90500000D01*
X146325000Y-90500000D02*
X147750000Y-90500000D01*
X137432410Y-105700000D02*
X147750000Y-95382410D01*
X131320000Y-106750000D02*
X132370000Y-105700000D01*
X132370000Y-105700000D02*
X137432410Y-105700000D01*
X124250000Y-106750000D02*
X131320000Y-106750000D01*
X148250000Y-90250000D02*
X148250000Y-96117590D01*
X148000000Y-90000000D02*
X148250000Y-90250000D01*
X148250000Y-96117590D02*
X142250000Y-102117590D01*
X142250000Y-102117590D02*
X142250000Y-106750000D01*
X146325000Y-90000000D02*
X148000000Y-90000000D01*
X136200000Y-106750000D02*
X142250000Y-106750000D01*
X141750000Y-91000000D02*
X146325000Y-91000000D01*
X137250000Y-86500000D02*
X141750000Y-91000000D01*
X137250000Y-85000000D02*
X137250000Y-86500000D01*
X139600000Y-94000000D02*
X146325000Y-94000000D01*
X113775000Y-87500000D02*
X113775000Y-88775000D01*
X138600000Y-95000000D02*
X139600000Y-94000000D01*
X113775000Y-88775000D02*
X118250000Y-93250000D01*
X146325000Y-95000000D02*
X143500000Y-95000000D01*
X143500000Y-95000000D02*
X143500000Y-96000000D01*
X113750000Y-72620000D02*
X113880000Y-72750000D01*
X113880000Y-72750000D02*
X116420000Y-72750000D01*
X113750000Y-58750000D02*
X113750000Y-72620000D01*
X179010000Y-95260000D02*
X184500000Y-95260000D01*
X176750000Y-93000000D02*
X179010000Y-95260000D01*
X157675000Y-93000000D02*
X176750000Y-93000000D01*
X176750000Y-92000000D02*
X178570000Y-90180000D01*
X178570000Y-90180000D02*
X184500000Y-90180000D01*
X157675000Y-92000000D02*
X176750000Y-92000000D01*
X184280000Y-92500000D02*
X184500000Y-92720000D01*
X157675000Y-92500000D02*
X184280000Y-92500000D01*
X162000000Y-89000000D02*
X157675000Y-89000000D01*
X171710000Y-58250000D02*
X162150000Y-67810000D01*
X162150000Y-67810000D02*
X162150000Y-88850000D01*
X162150000Y-88850000D02*
X162000000Y-89000000D01*
X169170000Y-58250000D02*
X155750000Y-71670000D01*
X155750000Y-71670000D02*
X155750000Y-86075000D01*
X160410000Y-70250000D02*
X160410000Y-84660000D01*
X160500000Y-84750000D02*
X160410000Y-84660000D01*
X150250000Y-70250000D02*
X150250000Y-86075000D01*
X146325000Y-94500000D02*
X141750000Y-94500000D01*
X141750000Y-94500000D02*
X141750000Y-96000000D01*
X146325000Y-92500000D02*
X142000000Y-92500000D01*
X138750000Y-112250000D02*
X138750000Y-119250000D01*
X179800000Y-97800000D02*
X177350000Y-100250000D01*
X150750000Y-100250000D02*
X150750000Y-97425000D01*
X177350000Y-100250000D02*
X150750000Y-100250000D01*
X184500000Y-97800000D02*
X179800000Y-97800000D01*
X154190000Y-68150000D02*
X154190000Y-81810000D01*
X152750000Y-83250000D02*
X152750000Y-86075000D01*
X164090000Y-58250000D02*
X154190000Y-68150000D01*
X154190000Y-81810000D02*
X152750000Y-83250000D01*
X150750000Y-83500000D02*
X150750000Y-86075000D01*
X151250000Y-83000000D02*
X150750000Y-83500000D01*
X149250000Y-86075000D02*
X149250000Y-84500000D01*
X149250000Y-84500000D02*
X148500000Y-83750000D01*
X151250000Y-86075000D02*
X151250000Y-84250000D01*
X151250000Y-84250000D02*
X151500000Y-84000000D01*
X149750000Y-86075000D02*
X149750000Y-83500000D01*
X149750000Y-83500000D02*
X149375000Y-83125000D01*
G04 #@! TA.AperFunction,Conductor*
G36*
X106750000Y-101516988D02*
G01*
X106692993Y-101484075D01*
X106565826Y-101450000D01*
X106434174Y-101450000D01*
X106307007Y-101484075D01*
X106250000Y-101516988D01*
X106250000Y-99843012D01*
X106307007Y-99875925D01*
X106434174Y-99910000D01*
X106565826Y-99910000D01*
X106692993Y-99875925D01*
X106750000Y-99843012D01*
X106750000Y-101516988D01*
G37*
G04 #@! TD.AperFunction*
G04 #@! TA.AperFunction,Conductor*
G36*
X176516942Y-93620185D02*
G01*
X176537583Y-93636818D01*
X178641284Y-95740520D01*
X178641286Y-95740521D01*
X178641290Y-95740524D01*
X178742899Y-95799187D01*
X178778216Y-95819577D01*
X178930943Y-95860501D01*
X178930945Y-95860501D01*
X179096654Y-95860501D01*
X179096670Y-95860500D01*
X183210909Y-95860500D01*
X183277948Y-95880185D01*
X183323292Y-95932097D01*
X183325965Y-95937830D01*
X183461501Y-96131396D01*
X183461506Y-96131402D01*
X183583430Y-96253326D01*
X183616915Y-96314649D01*
X183611931Y-96384341D01*
X183570059Y-96440274D01*
X183539083Y-96457189D01*
X183407669Y-96506203D01*
X183407664Y-96506206D01*
X183292455Y-96592452D01*
X183292452Y-96592455D01*
X183206206Y-96707664D01*
X183206202Y-96707671D01*
X183155908Y-96842517D01*
X183149501Y-96902116D01*
X183149501Y-96902123D01*
X183149500Y-96902135D01*
X183149500Y-97075500D01*
X183129815Y-97142539D01*
X183077011Y-97188294D01*
X183025500Y-97199500D01*
X179879057Y-97199500D01*
X179720942Y-97199500D01*
X179568215Y-97240423D01*
X179568214Y-97240423D01*
X179568212Y-97240424D01*
X179568209Y-97240425D01*
X179518096Y-97269359D01*
X179518095Y-97269360D01*
X179474689Y-97294420D01*
X179431285Y-97319479D01*
X179431282Y-97319481D01*
X179319480Y-97431284D01*
X179319478Y-97431286D01*
X178211839Y-98538926D01*
X177137584Y-99613181D01*
X177076261Y-99646666D01*
X177049903Y-99649500D01*
X151474500Y-99649500D01*
X151407461Y-99629815D01*
X151361706Y-99577011D01*
X151350500Y-99525500D01*
X151350500Y-98810853D01*
X151370185Y-98743814D01*
X151422989Y-98698059D01*
X151458309Y-98687915D01*
X151475236Y-98685687D01*
X151475238Y-98685685D01*
X151483298Y-98684625D01*
X151483701Y-98687689D01*
X151516302Y-98687689D01*
X151516705Y-98684626D01*
X151524763Y-98685686D01*
X151524764Y-98685687D01*
X151637280Y-98700500D01*
X151637287Y-98700500D01*
X151862713Y-98700500D01*
X151862720Y-98700500D01*
X151975236Y-98685687D01*
X151975236Y-98685686D01*
X151983295Y-98684626D01*
X151983698Y-98687689D01*
X152016302Y-98687689D01*
X152016705Y-98684626D01*
X152024763Y-98685686D01*
X152024764Y-98685687D01*
X152137280Y-98700500D01*
X152137287Y-98700500D01*
X152362713Y-98700500D01*
X152362720Y-98700500D01*
X152475236Y-98685687D01*
X152475236Y-98685686D01*
X152483295Y-98684626D01*
X152483698Y-98687689D01*
X152516302Y-98687689D01*
X152516705Y-98684626D01*
X152524763Y-98685686D01*
X152524764Y-98685687D01*
X152637280Y-98700500D01*
X152637287Y-98700500D01*
X152862713Y-98700500D01*
X152862720Y-98700500D01*
X152975236Y-98685687D01*
X152975236Y-98685686D01*
X152983295Y-98684626D01*
X152983698Y-98687689D01*
X153016302Y-98687689D01*
X153016705Y-98684626D01*
X153024763Y-98685686D01*
X153024764Y-98685687D01*
X153137280Y-98700500D01*
X153137287Y-98700500D01*
X153362713Y-98700500D01*
X153362720Y-98700500D01*
X153475236Y-98685687D01*
X153475236Y-98685686D01*
X153483295Y-98684626D01*
X153483698Y-98687689D01*
X153516302Y-98687689D01*
X153516705Y-98684626D01*
X153524763Y-98685686D01*
X153524764Y-98685687D01*
X153637280Y-98700500D01*
X153637287Y-98700500D01*
X153862713Y-98700500D01*
X153862720Y-98700500D01*
X153975236Y-98685687D01*
X153975236Y-98685686D01*
X153983295Y-98684626D01*
X153983698Y-98687689D01*
X154016302Y-98687689D01*
X154016705Y-98684626D01*
X154024763Y-98685686D01*
X154024764Y-98685687D01*
X154137280Y-98700500D01*
X154137287Y-98700500D01*
X154362713Y-98700500D01*
X154362720Y-98700500D01*
X154475236Y-98685687D01*
X154475236Y-98685686D01*
X154483295Y-98684626D01*
X154483698Y-98687689D01*
X154516302Y-98687689D01*
X154516705Y-98684626D01*
X154524763Y-98685686D01*
X154524764Y-98685687D01*
X154637280Y-98700500D01*
X154637287Y-98700500D01*
X154862713Y-98700500D01*
X154862720Y-98700500D01*
X154975236Y-98685687D01*
X154975236Y-98685686D01*
X154983295Y-98684626D01*
X154983530Y-98686418D01*
X155017269Y-98684195D01*
X155099999Y-98695086D01*
X155102155Y-98693195D01*
X155119685Y-98633497D01*
X155148512Y-98602161D01*
X155174515Y-98582208D01*
X155239684Y-98557016D01*
X155308129Y-98571055D01*
X155325484Y-98582208D01*
X155351486Y-98602160D01*
X155392689Y-98658587D01*
X155398878Y-98694102D01*
X155400000Y-98695086D01*
X155482730Y-98684195D01*
X155516469Y-98686415D01*
X155516705Y-98684626D01*
X155524763Y-98685686D01*
X155524764Y-98685687D01*
X155637280Y-98700500D01*
X155637287Y-98700500D01*
X155862713Y-98700500D01*
X155862720Y-98700500D01*
X155975236Y-98685687D01*
X156115233Y-98627698D01*
X156235451Y-98535451D01*
X156327698Y-98415233D01*
X156385687Y-98275236D01*
X156400500Y-98162720D01*
X156400500Y-96687280D01*
X156385687Y-96574764D01*
X156377507Y-96555017D01*
X156359939Y-96512601D01*
X156350500Y-96465149D01*
X156350500Y-96070764D01*
X156370185Y-96003725D01*
X156422989Y-95957970D01*
X156492147Y-95948026D01*
X156555703Y-95977051D01*
X156562181Y-95983083D01*
X156564544Y-95985446D01*
X156564546Y-95985448D01*
X156564549Y-95985451D01*
X156684767Y-96077698D01*
X156824764Y-96135687D01*
X156937280Y-96150500D01*
X156937287Y-96150500D01*
X158412713Y-96150500D01*
X158412720Y-96150500D01*
X158525236Y-96135687D01*
X158665233Y-96077698D01*
X158785451Y-95985451D01*
X158877698Y-95865233D01*
X158935687Y-95725236D01*
X158950500Y-95612720D01*
X158950500Y-95387280D01*
X158935687Y-95274764D01*
X158935686Y-95274763D01*
X158934626Y-95266705D01*
X158937689Y-95266301D01*
X158937689Y-95233698D01*
X158934626Y-95233295D01*
X158938825Y-95201401D01*
X158950500Y-95112720D01*
X158950500Y-94887280D01*
X158935687Y-94774764D01*
X158935686Y-94774763D01*
X158934626Y-94766705D01*
X158937689Y-94766301D01*
X158937689Y-94733698D01*
X158934626Y-94733295D01*
X158935784Y-94724500D01*
X158950500Y-94612720D01*
X158950500Y-94387280D01*
X158935687Y-94274764D01*
X158935686Y-94274763D01*
X158934626Y-94266705D01*
X158937689Y-94266301D01*
X158937689Y-94233698D01*
X158934626Y-94233295D01*
X158944162Y-94160861D01*
X158950500Y-94112720D01*
X158950500Y-93887280D01*
X158935687Y-93774764D01*
X158935686Y-93774763D01*
X158934626Y-93766705D01*
X158937689Y-93766301D01*
X158937689Y-93733696D01*
X158934626Y-93733293D01*
X158937915Y-93708313D01*
X158966182Y-93644417D01*
X159024507Y-93605947D01*
X159060854Y-93600500D01*
X176449903Y-93600500D01*
X176516942Y-93620185D01*
G37*
G04 #@! TD.AperFunction*
G04 #@! TA.AperFunction,Conductor*
G36*
X106750000Y-98976988D02*
G01*
X106692993Y-98944075D01*
X106565826Y-98910000D01*
X106434174Y-98910000D01*
X106307007Y-98944075D01*
X106250000Y-98976988D01*
X106250000Y-97303012D01*
X106307007Y-97335925D01*
X106434174Y-97370000D01*
X106565826Y-97370000D01*
X106692993Y-97335925D01*
X106750000Y-97303012D01*
X106750000Y-98976988D01*
G37*
G04 #@! TD.AperFunction*
G04 #@! TA.AperFunction,Conductor*
G36*
X155092539Y-90370185D02*
G01*
X155138294Y-90422989D01*
X155149500Y-90474500D01*
X155149500Y-95275500D01*
X155129815Y-95342539D01*
X155077011Y-95388294D01*
X155025500Y-95399500D01*
X149329057Y-95399500D01*
X149170943Y-95399500D01*
X149018216Y-95440423D01*
X149018214Y-95440423D01*
X149010365Y-95442527D01*
X149009739Y-95440190D01*
X148952472Y-95446342D01*
X148889996Y-95415061D01*
X148854349Y-95354969D01*
X148850500Y-95324314D01*
X148850500Y-90474500D01*
X148870185Y-90407461D01*
X148922989Y-90361706D01*
X148974500Y-90350500D01*
X149079057Y-90350500D01*
X155025500Y-90350500D01*
X155092539Y-90370185D01*
G37*
G04 #@! TD.AperFunction*
G04 #@! TA.AperFunction,Conductor*
G36*
X168806238Y-59550670D02*
G01*
X168934592Y-59585063D01*
X169111034Y-59600500D01*
X169169999Y-59605659D01*
X169170000Y-59605659D01*
X169197841Y-59603223D01*
X169266341Y-59616989D01*
X169316524Y-59665604D01*
X169332458Y-59733632D01*
X169309083Y-59799476D01*
X169296330Y-59814432D01*
X161781286Y-67329478D01*
X161669481Y-67441282D01*
X161669479Y-67441285D01*
X161619361Y-67528094D01*
X161619359Y-67528096D01*
X161590425Y-67578209D01*
X161590424Y-67578210D01*
X161590423Y-67578215D01*
X161549499Y-67730943D01*
X161549499Y-67730945D01*
X161549499Y-67899046D01*
X161549500Y-67899059D01*
X161549500Y-69250951D01*
X161529815Y-69317990D01*
X161477011Y-69363745D01*
X161407853Y-69373689D01*
X161344297Y-69344664D01*
X161337819Y-69338632D01*
X161249141Y-69249954D01*
X161062734Y-69119432D01*
X161062732Y-69119431D01*
X160856497Y-69023261D01*
X160856488Y-69023258D01*
X160636697Y-68964366D01*
X160636693Y-68964365D01*
X160636692Y-68964365D01*
X160636691Y-68964364D01*
X160636686Y-68964364D01*
X160410002Y-68944532D01*
X160409998Y-68944532D01*
X160183313Y-68964364D01*
X160183302Y-68964366D01*
X159963511Y-69023258D01*
X159963502Y-69023261D01*
X159757267Y-69119431D01*
X159757265Y-69119432D01*
X159570858Y-69249954D01*
X159409954Y-69410858D01*
X159279432Y-69597265D01*
X159279431Y-69597267D01*
X159183261Y-69803502D01*
X159183258Y-69803511D01*
X159124366Y-70023302D01*
X159124364Y-70023313D01*
X159104532Y-70249998D01*
X159104532Y-70250001D01*
X159124364Y-70476686D01*
X159124366Y-70476697D01*
X159183258Y-70696488D01*
X159183261Y-70696497D01*
X159279431Y-70902732D01*
X159279432Y-70902734D01*
X159409954Y-71089141D01*
X159570858Y-71250045D01*
X159570861Y-71250047D01*
X159756624Y-71380118D01*
X159800248Y-71434693D01*
X159809500Y-71481692D01*
X159809500Y-84308592D01*
X159790494Y-84374562D01*
X159787194Y-84379816D01*
X159774209Y-84400481D01*
X159714633Y-84570737D01*
X159714630Y-84570750D01*
X159694435Y-84749996D01*
X159694435Y-84750003D01*
X159714630Y-84929249D01*
X159714631Y-84929254D01*
X159774211Y-85099523D01*
X159854117Y-85226692D01*
X159870184Y-85252262D01*
X159997738Y-85379816D01*
X160095354Y-85441152D01*
X160147352Y-85473825D01*
X160193643Y-85526160D01*
X160204291Y-85595214D01*
X160175916Y-85659062D01*
X160117526Y-85697434D01*
X160067497Y-85702039D01*
X160000004Y-85694435D01*
X159999996Y-85694435D01*
X159820750Y-85714630D01*
X159820745Y-85714631D01*
X159650476Y-85774211D01*
X159497737Y-85870184D01*
X159370184Y-85997737D01*
X159274210Y-86150478D01*
X159214630Y-86320750D01*
X159204837Y-86407668D01*
X159177770Y-86472082D01*
X159169298Y-86481465D01*
X158337584Y-87313181D01*
X158276261Y-87346666D01*
X158249903Y-87349500D01*
X156937272Y-87349500D01*
X156824764Y-87364313D01*
X156824763Y-87364313D01*
X156684762Y-87422304D01*
X156682732Y-87423476D01*
X156652836Y-87435859D01*
X156635804Y-87440422D01*
X156635804Y-87440423D01*
X156595552Y-87463663D01*
X156498877Y-87519477D01*
X156498872Y-87519481D01*
X155269479Y-88748874D01*
X155254533Y-88774764D01*
X155247851Y-88786337D01*
X155190423Y-88885805D01*
X155161656Y-88993162D01*
X155149498Y-89038536D01*
X155149084Y-89041687D01*
X155147994Y-89044148D01*
X155147396Y-89046384D01*
X155147047Y-89046290D01*
X155120816Y-89105583D01*
X155062491Y-89144054D01*
X155026145Y-89149500D01*
X149300097Y-89149500D01*
X149233058Y-89129815D01*
X149212416Y-89113181D01*
X148886819Y-88787584D01*
X148853334Y-88726261D01*
X148850500Y-88699903D01*
X148850500Y-87460349D01*
X148870185Y-87393310D01*
X148922989Y-87347555D01*
X148958316Y-87337410D01*
X148982731Y-87334196D01*
X149016470Y-87336406D01*
X149016705Y-87334626D01*
X149024763Y-87335686D01*
X149024764Y-87335687D01*
X149137280Y-87350500D01*
X149137287Y-87350500D01*
X149362713Y-87350500D01*
X149362720Y-87350500D01*
X149475236Y-87335687D01*
X149475236Y-87335686D01*
X149483295Y-87334626D01*
X149483698Y-87337689D01*
X149516302Y-87337689D01*
X149516705Y-87334626D01*
X149524763Y-87335686D01*
X149524764Y-87335687D01*
X149637280Y-87350500D01*
X149637287Y-87350500D01*
X149862713Y-87350500D01*
X149862720Y-87350500D01*
X149975236Y-87335687D01*
X149975236Y-87335686D01*
X149983295Y-87334626D01*
X149983698Y-87337689D01*
X150016302Y-87337689D01*
X150016705Y-87334626D01*
X150024763Y-87335686D01*
X150024764Y-87335687D01*
X150137280Y-87350500D01*
X150137287Y-87350500D01*
X150362713Y-87350500D01*
X150362720Y-87350500D01*
X150475236Y-87335687D01*
X150475236Y-87335686D01*
X150483295Y-87334626D01*
X150483698Y-87337689D01*
X150516302Y-87337689D01*
X150516705Y-87334626D01*
X150524763Y-87335686D01*
X150524764Y-87335687D01*
X150637280Y-87350500D01*
X150637287Y-87350500D01*
X150862713Y-87350500D01*
X150862720Y-87350500D01*
X150975236Y-87335687D01*
X150975236Y-87335686D01*
X150983295Y-87334626D01*
X150983698Y-87337689D01*
X151016302Y-87337689D01*
X151016705Y-87334626D01*
X151024763Y-87335686D01*
X151024764Y-87335687D01*
X151137280Y-87350500D01*
X151137287Y-87350500D01*
X151362713Y-87350500D01*
X151362720Y-87350500D01*
X151475236Y-87335687D01*
X151475236Y-87335686D01*
X151483295Y-87334626D01*
X151483698Y-87337689D01*
X151516302Y-87337689D01*
X151516705Y-87334626D01*
X151524763Y-87335686D01*
X151524764Y-87335687D01*
X151637280Y-87350500D01*
X151637287Y-87350500D01*
X151862713Y-87350500D01*
X151862720Y-87350500D01*
X151975236Y-87335687D01*
X151975236Y-87335686D01*
X151983295Y-87334626D01*
X151983698Y-87337689D01*
X152016302Y-87337689D01*
X152016705Y-87334626D01*
X152024763Y-87335686D01*
X152024764Y-87335687D01*
X152137280Y-87350500D01*
X152137287Y-87350500D01*
X152362713Y-87350500D01*
X152362720Y-87350500D01*
X152475236Y-87335687D01*
X152475236Y-87335686D01*
X152483295Y-87334626D01*
X152483698Y-87337689D01*
X152516302Y-87337689D01*
X152516705Y-87334626D01*
X152524763Y-87335686D01*
X152524764Y-87335687D01*
X152637280Y-87350500D01*
X152637287Y-87350500D01*
X152862713Y-87350500D01*
X152862720Y-87350500D01*
X152975236Y-87335687D01*
X152975236Y-87335686D01*
X152983295Y-87334626D01*
X152983698Y-87337689D01*
X153016302Y-87337689D01*
X153016705Y-87334626D01*
X153024763Y-87335686D01*
X153024764Y-87335687D01*
X153137280Y-87350500D01*
X153137287Y-87350500D01*
X153362713Y-87350500D01*
X153362720Y-87350500D01*
X153475236Y-87335687D01*
X153475236Y-87335686D01*
X153483295Y-87334626D01*
X153483698Y-87337689D01*
X153516302Y-87337689D01*
X153516705Y-87334626D01*
X153524763Y-87335686D01*
X153524764Y-87335687D01*
X153637280Y-87350500D01*
X153637287Y-87350500D01*
X153862713Y-87350500D01*
X153862720Y-87350500D01*
X153975236Y-87335687D01*
X153975236Y-87335686D01*
X153983295Y-87334626D01*
X153983698Y-87337689D01*
X154016302Y-87337689D01*
X154016705Y-87334626D01*
X154024763Y-87335686D01*
X154024764Y-87335687D01*
X154137280Y-87350500D01*
X154137287Y-87350500D01*
X154362713Y-87350500D01*
X154362720Y-87350500D01*
X154475236Y-87335687D01*
X154475236Y-87335686D01*
X154483295Y-87334626D01*
X154483698Y-87337689D01*
X154516302Y-87337689D01*
X154516705Y-87334626D01*
X154524763Y-87335686D01*
X154524764Y-87335687D01*
X154637280Y-87350500D01*
X154637287Y-87350500D01*
X154862713Y-87350500D01*
X154862720Y-87350500D01*
X154975236Y-87335687D01*
X154975236Y-87335686D01*
X154983295Y-87334626D01*
X154983698Y-87337689D01*
X155016302Y-87337689D01*
X155016705Y-87334626D01*
X155024763Y-87335686D01*
X155024764Y-87335687D01*
X155137280Y-87350500D01*
X155137287Y-87350500D01*
X155362713Y-87350500D01*
X155362720Y-87350500D01*
X155475236Y-87335687D01*
X155475236Y-87335686D01*
X155483295Y-87334626D01*
X155483698Y-87337689D01*
X155516302Y-87337689D01*
X155516705Y-87334626D01*
X155524763Y-87335686D01*
X155524764Y-87335687D01*
X155637280Y-87350500D01*
X155637287Y-87350500D01*
X155862713Y-87350500D01*
X155862720Y-87350500D01*
X155975236Y-87335687D01*
X156115233Y-87277698D01*
X156235451Y-87185451D01*
X156327698Y-87065233D01*
X156385687Y-86925236D01*
X156400500Y-86812720D01*
X156400500Y-85337280D01*
X156385687Y-85224764D01*
X156377507Y-85205017D01*
X156359939Y-85162601D01*
X156350500Y-85115149D01*
X156350500Y-71970096D01*
X156370185Y-71903057D01*
X156386814Y-71882420D01*
X168686470Y-59582763D01*
X168747791Y-59549280D01*
X168806238Y-59550670D01*
G37*
G04 #@! TD.AperFunction*
G04 #@! TA.AperFunction,Conductor*
G36*
X161468834Y-71132867D02*
G01*
X161524767Y-71174739D01*
X161549184Y-71240203D01*
X161549500Y-71249049D01*
X161549500Y-84706957D01*
X161536891Y-84749897D01*
X161547640Y-84771648D01*
X161549500Y-84793042D01*
X161549500Y-88275500D01*
X161529815Y-88342539D01*
X161477011Y-88388294D01*
X161425500Y-88399500D01*
X159249096Y-88399500D01*
X159182057Y-88379815D01*
X159136302Y-88327011D01*
X159126358Y-88257853D01*
X159155383Y-88194297D01*
X159161415Y-88187819D01*
X159574471Y-87774763D01*
X160018535Y-87330698D01*
X160079856Y-87297215D01*
X160092311Y-87295163D01*
X160179255Y-87285368D01*
X160349522Y-87225789D01*
X160502262Y-87129816D01*
X160629816Y-87002262D01*
X160725789Y-86849522D01*
X160785368Y-86679255D01*
X160795527Y-86589091D01*
X160805565Y-86500003D01*
X160805565Y-86499996D01*
X160785369Y-86320750D01*
X160785368Y-86320745D01*
X160737761Y-86184693D01*
X160725789Y-86150478D01*
X160712041Y-86128599D01*
X160683660Y-86083430D01*
X160629816Y-85997738D01*
X160502262Y-85870184D01*
X160352647Y-85776174D01*
X160306356Y-85723839D01*
X160295708Y-85654785D01*
X160324083Y-85590937D01*
X160382473Y-85552565D01*
X160432503Y-85547960D01*
X160499997Y-85555565D01*
X160500000Y-85555565D01*
X160500004Y-85555565D01*
X160679249Y-85535369D01*
X160679252Y-85535368D01*
X160679255Y-85535368D01*
X160849522Y-85475789D01*
X161002262Y-85379816D01*
X161129816Y-85252262D01*
X161225789Y-85099522D01*
X161285368Y-84929255D01*
X161285369Y-84929249D01*
X161302280Y-84779159D01*
X161313425Y-84752633D01*
X161306523Y-84741892D01*
X161302280Y-84720840D01*
X161285369Y-84570750D01*
X161285368Y-84570745D01*
X161225788Y-84400476D01*
X161168053Y-84308592D01*
X161129816Y-84247738D01*
X161046819Y-84164741D01*
X161013334Y-84103418D01*
X161010500Y-84077060D01*
X161010500Y-71481692D01*
X161030185Y-71414653D01*
X161063374Y-71380119D01*
X161249139Y-71250047D01*
X161258983Y-71240203D01*
X161337819Y-71161368D01*
X161399142Y-71127883D01*
X161468834Y-71132867D01*
G37*
G04 #@! TD.AperFunction*
G04 #@! TA.AperFunction,Conductor*
G36*
X173592539Y-56370185D02*
G01*
X173638294Y-56422989D01*
X173649500Y-56474500D01*
X173649500Y-56775500D01*
X173629815Y-56842539D01*
X173577011Y-56888294D01*
X173525501Y-56899500D01*
X173352130Y-56899500D01*
X173352123Y-56899501D01*
X173292516Y-56905908D01*
X173157671Y-56956202D01*
X173157664Y-56956206D01*
X173042455Y-57042452D01*
X173042452Y-57042455D01*
X172956206Y-57157664D01*
X172956203Y-57157669D01*
X172907189Y-57289083D01*
X172865317Y-57345016D01*
X172799853Y-57369433D01*
X172731580Y-57354581D01*
X172703326Y-57333430D01*
X172581402Y-57211506D01*
X172581395Y-57211501D01*
X172387834Y-57075967D01*
X172387830Y-57075965D01*
X172387828Y-57075964D01*
X172173663Y-56976097D01*
X172173659Y-56976096D01*
X172173655Y-56976094D01*
X171945413Y-56914938D01*
X171945403Y-56914936D01*
X171710001Y-56894341D01*
X171709999Y-56894341D01*
X171474596Y-56914936D01*
X171474586Y-56914938D01*
X171246344Y-56976094D01*
X171246335Y-56976098D01*
X171032171Y-57075964D01*
X171032169Y-57075965D01*
X170838597Y-57211505D01*
X170671505Y-57378597D01*
X170541575Y-57564158D01*
X170486998Y-57607783D01*
X170417500Y-57614977D01*
X170355145Y-57583454D01*
X170338425Y-57564158D01*
X170208494Y-57378597D01*
X170041402Y-57211506D01*
X170041395Y-57211501D01*
X169847834Y-57075967D01*
X169847830Y-57075965D01*
X169847828Y-57075964D01*
X169633663Y-56976097D01*
X169633659Y-56976096D01*
X169633655Y-56976094D01*
X169405413Y-56914938D01*
X169405403Y-56914936D01*
X169170001Y-56894341D01*
X169169999Y-56894341D01*
X168934596Y-56914936D01*
X168934586Y-56914938D01*
X168706344Y-56976094D01*
X168706335Y-56976098D01*
X168492171Y-57075964D01*
X168492169Y-57075965D01*
X168298597Y-57211505D01*
X168131505Y-57378597D01*
X168001575Y-57564158D01*
X167946998Y-57607783D01*
X167877500Y-57614977D01*
X167815145Y-57583454D01*
X167798425Y-57564158D01*
X167668494Y-57378597D01*
X167501402Y-57211506D01*
X167501395Y-57211501D01*
X167307834Y-57075967D01*
X167307830Y-57075965D01*
X167307828Y-57075964D01*
X167093663Y-56976097D01*
X167093659Y-56976096D01*
X167093655Y-56976094D01*
X166865413Y-56914938D01*
X166865403Y-56914936D01*
X166630001Y-56894341D01*
X166629999Y-56894341D01*
X166394596Y-56914936D01*
X166394586Y-56914938D01*
X166166344Y-56976094D01*
X166166335Y-56976098D01*
X165952171Y-57075964D01*
X165952169Y-57075965D01*
X165758597Y-57211505D01*
X165591505Y-57378597D01*
X165461575Y-57564158D01*
X165406998Y-57607783D01*
X165337500Y-57614977D01*
X165275145Y-57583454D01*
X165258425Y-57564158D01*
X165128494Y-57378597D01*
X164961402Y-57211506D01*
X164961395Y-57211501D01*
X164767834Y-57075967D01*
X164767830Y-57075965D01*
X164767828Y-57075964D01*
X164553663Y-56976097D01*
X164553659Y-56976096D01*
X164553655Y-56976094D01*
X164325413Y-56914938D01*
X164325403Y-56914936D01*
X164090001Y-56894341D01*
X164089999Y-56894341D01*
X163854596Y-56914936D01*
X163854586Y-56914938D01*
X163626344Y-56976094D01*
X163626335Y-56976098D01*
X163412171Y-57075964D01*
X163412169Y-57075965D01*
X163218597Y-57211505D01*
X163051508Y-57378594D01*
X162921269Y-57564595D01*
X162866692Y-57608219D01*
X162797193Y-57615412D01*
X162734839Y-57583890D01*
X162718119Y-57564594D01*
X162588113Y-57378926D01*
X162588108Y-57378920D01*
X162421082Y-57211894D01*
X162227578Y-57076399D01*
X162013492Y-56976570D01*
X162013486Y-56976567D01*
X161800000Y-56919364D01*
X161800000Y-57816988D01*
X161742993Y-57784075D01*
X161615826Y-57750000D01*
X161484174Y-57750000D01*
X161357007Y-57784075D01*
X161300000Y-57816988D01*
X161300000Y-56919364D01*
X161299999Y-56919364D01*
X161086513Y-56976567D01*
X161086507Y-56976570D01*
X160872422Y-57076399D01*
X160872420Y-57076400D01*
X160678926Y-57211886D01*
X160678920Y-57211891D01*
X160511891Y-57378920D01*
X160511886Y-57378926D01*
X160376400Y-57572420D01*
X160376399Y-57572422D01*
X160276570Y-57786507D01*
X160276567Y-57786513D01*
X160219364Y-57999999D01*
X160219364Y-58000000D01*
X161116988Y-58000000D01*
X161084075Y-58057007D01*
X161050000Y-58184174D01*
X161050000Y-58315826D01*
X161084075Y-58442993D01*
X161116988Y-58500000D01*
X160219364Y-58500000D01*
X160276567Y-58713486D01*
X160276570Y-58713492D01*
X160376399Y-58927578D01*
X160511894Y-59121082D01*
X160678917Y-59288105D01*
X160872421Y-59423600D01*
X161086507Y-59523429D01*
X161086516Y-59523433D01*
X161300000Y-59580634D01*
X161300000Y-58683012D01*
X161357007Y-58715925D01*
X161484174Y-58750000D01*
X161615826Y-58750000D01*
X161742993Y-58715925D01*
X161800000Y-58683012D01*
X161800000Y-59639401D01*
X161780315Y-59706440D01*
X161763681Y-59727082D01*
X153821286Y-67669478D01*
X153709481Y-67781282D01*
X153709479Y-67781285D01*
X153659361Y-67868094D01*
X153659359Y-67868096D01*
X153630425Y-67918209D01*
X153630424Y-67918210D01*
X153630423Y-67918215D01*
X153589499Y-68070943D01*
X153589499Y-68070945D01*
X153589499Y-68239046D01*
X153589500Y-68239059D01*
X153589500Y-76876380D01*
X153569815Y-76943419D01*
X153517011Y-76989174D01*
X153447853Y-76999118D01*
X153433407Y-76996155D01*
X153316610Y-76964860D01*
X153316599Y-76964858D01*
X153090002Y-76945034D01*
X153089998Y-76945034D01*
X152863400Y-76964858D01*
X152863389Y-76964860D01*
X152643682Y-77023730D01*
X152643673Y-77023734D01*
X152437516Y-77119866D01*
X152437512Y-77119868D01*
X152364526Y-77170973D01*
X152364526Y-77170974D01*
X153043553Y-77850000D01*
X153037339Y-77850000D01*
X152935606Y-77877259D01*
X152844394Y-77929920D01*
X152769920Y-78004394D01*
X152717259Y-78095606D01*
X152690000Y-78197339D01*
X152690000Y-78203552D01*
X152010974Y-77524526D01*
X152010973Y-77524526D01*
X151959868Y-77597512D01*
X151959866Y-77597516D01*
X151863734Y-77803673D01*
X151863730Y-77803682D01*
X151804860Y-78023389D01*
X151804858Y-78023400D01*
X151785034Y-78249997D01*
X151785034Y-78250002D01*
X151804858Y-78476599D01*
X151804860Y-78476610D01*
X151863730Y-78696317D01*
X151863735Y-78696331D01*
X151959863Y-78902478D01*
X152010974Y-78975472D01*
X152690000Y-78296446D01*
X152690000Y-78302661D01*
X152717259Y-78404394D01*
X152769920Y-78495606D01*
X152844394Y-78570080D01*
X152935606Y-78622741D01*
X153037339Y-78650000D01*
X153043551Y-78650000D01*
X152364526Y-79329025D01*
X152437513Y-79380132D01*
X152437521Y-79380136D01*
X152643668Y-79476264D01*
X152643682Y-79476269D01*
X152863389Y-79535139D01*
X152863400Y-79535141D01*
X153089998Y-79554966D01*
X153090002Y-79554966D01*
X153316599Y-79535141D01*
X153316609Y-79535139D01*
X153433407Y-79503844D01*
X153503256Y-79505507D01*
X153561119Y-79544669D01*
X153588623Y-79608898D01*
X153589500Y-79623619D01*
X153589500Y-81509902D01*
X153569815Y-81576941D01*
X153553181Y-81597583D01*
X152269481Y-82881282D01*
X152269473Y-82881293D01*
X152267712Y-82884343D01*
X152265554Y-82886399D01*
X152264530Y-82887735D01*
X152264321Y-82887575D01*
X152217141Y-82932554D01*
X152148532Y-82945770D01*
X152083670Y-82919796D01*
X152043147Y-82862878D01*
X152037111Y-82836218D01*
X152035368Y-82820745D01*
X151975789Y-82650478D01*
X151879816Y-82497738D01*
X151752262Y-82370184D01*
X151703639Y-82339632D01*
X151599523Y-82274211D01*
X151429254Y-82214631D01*
X151429249Y-82214630D01*
X151250004Y-82194435D01*
X151249996Y-82194435D01*
X151070750Y-82214630D01*
X151070739Y-82214633D01*
X151015453Y-82233978D01*
X150945674Y-82237539D01*
X150885047Y-82202809D01*
X150852821Y-82140816D01*
X150850500Y-82116936D01*
X150850500Y-71481692D01*
X150870185Y-71414653D01*
X150903374Y-71380119D01*
X151089139Y-71250047D01*
X151250047Y-71089139D01*
X151380568Y-70902734D01*
X151476739Y-70696496D01*
X151535635Y-70476692D01*
X151555468Y-70250000D01*
X151535635Y-70023308D01*
X151476739Y-69803504D01*
X151380568Y-69597266D01*
X151250047Y-69410861D01*
X151250045Y-69410858D01*
X151089141Y-69249954D01*
X150902734Y-69119432D01*
X150902732Y-69119431D01*
X150696497Y-69023261D01*
X150696488Y-69023258D01*
X150476697Y-68964366D01*
X150476693Y-68964365D01*
X150476692Y-68964365D01*
X150476691Y-68964364D01*
X150476686Y-68964364D01*
X150250002Y-68944532D01*
X150249998Y-68944532D01*
X150023313Y-68964364D01*
X150023302Y-68964366D01*
X149803511Y-69023258D01*
X149803502Y-69023261D01*
X149597267Y-69119431D01*
X149597265Y-69119432D01*
X149410858Y-69249954D01*
X149249954Y-69410858D01*
X149119432Y-69597265D01*
X149119431Y-69597267D01*
X149023261Y-69803502D01*
X149023258Y-69803511D01*
X148964366Y-70023302D01*
X148964364Y-70023313D01*
X148944532Y-70249998D01*
X148944532Y-70250001D01*
X148964364Y-70476686D01*
X148964366Y-70476697D01*
X149023258Y-70696488D01*
X149023261Y-70696497D01*
X149119431Y-70902732D01*
X149119432Y-70902734D01*
X149249954Y-71089141D01*
X149410858Y-71250045D01*
X149410861Y-71250047D01*
X149596624Y-71380118D01*
X149640248Y-71434693D01*
X149649500Y-71481692D01*
X149649500Y-82211607D01*
X149629815Y-82278646D01*
X149577011Y-82324401D01*
X149511617Y-82334827D01*
X149375004Y-82319435D01*
X149374996Y-82319435D01*
X149195750Y-82339630D01*
X149195745Y-82339631D01*
X149025476Y-82399211D01*
X148872737Y-82495184D01*
X148745184Y-82622737D01*
X148649210Y-82775478D01*
X148633372Y-82820744D01*
X148619148Y-82861390D01*
X148578429Y-82918165D01*
X148513476Y-82943913D01*
X148502108Y-82944435D01*
X148499996Y-82944435D01*
X148320750Y-82964630D01*
X148320745Y-82964631D01*
X148150476Y-83024211D01*
X147997737Y-83120184D01*
X147870184Y-83247737D01*
X147774211Y-83400476D01*
X147714631Y-83570745D01*
X147714630Y-83570750D01*
X147694435Y-83749996D01*
X147694435Y-83750003D01*
X147714630Y-83929249D01*
X147714631Y-83929254D01*
X147774211Y-84099523D01*
X147867341Y-84247737D01*
X147870184Y-84252262D01*
X147997738Y-84379816D01*
X148150478Y-84475789D01*
X148320745Y-84535368D01*
X148407669Y-84545161D01*
X148472080Y-84572226D01*
X148481465Y-84580700D01*
X148493140Y-84592375D01*
X148526625Y-84653698D01*
X148521641Y-84723390D01*
X148479769Y-84779323D01*
X148414305Y-84803740D01*
X148389276Y-84802996D01*
X148362720Y-84799500D01*
X148137280Y-84799500D01*
X148137272Y-84799500D01*
X148024764Y-84814313D01*
X147969634Y-84837148D01*
X147900165Y-84844615D01*
X147837686Y-84813340D01*
X147834502Y-84810267D01*
X146825090Y-83800855D01*
X146825087Y-83800851D01*
X146825087Y-83800852D01*
X146818020Y-83793785D01*
X146818020Y-83793784D01*
X146706216Y-83681980D01*
X146706215Y-83681979D01*
X146701885Y-83677649D01*
X146701874Y-83677639D01*
X139361916Y-76337681D01*
X139328431Y-76276358D01*
X139333415Y-76206666D01*
X139361916Y-76162319D01*
X159137416Y-56386819D01*
X159198739Y-56353334D01*
X159225097Y-56350500D01*
X173525500Y-56350500D01*
X173592539Y-56370185D01*
G37*
G04 #@! TD.AperFunction*
G04 #@! TA.AperFunction,Conductor*
G36*
X192692539Y-51770185D02*
G01*
X192738294Y-51822989D01*
X192749500Y-51874500D01*
X192749500Y-124875500D01*
X192729815Y-124942539D01*
X192677011Y-124988294D01*
X192625500Y-124999500D01*
X99874500Y-124999500D01*
X99807461Y-124979815D01*
X99761706Y-124927011D01*
X99750500Y-124875500D01*
X99750500Y-122643713D01*
X100649500Y-122643713D01*
X100649500Y-122856286D01*
X100682753Y-123066239D01*
X100748444Y-123268414D01*
X100844951Y-123457820D01*
X100969890Y-123629786D01*
X101120213Y-123780109D01*
X101292179Y-123905048D01*
X101292181Y-123905049D01*
X101292184Y-123905051D01*
X101481588Y-124001557D01*
X101683757Y-124067246D01*
X101893713Y-124100500D01*
X101893714Y-124100500D01*
X102106286Y-124100500D01*
X102106287Y-124100500D01*
X102316243Y-124067246D01*
X102518412Y-124001557D01*
X102707816Y-123905051D01*
X102729789Y-123889086D01*
X102879786Y-123780109D01*
X102879788Y-123780106D01*
X102879792Y-123780104D01*
X103030104Y-123629792D01*
X103030106Y-123629788D01*
X103030109Y-123629786D01*
X103155048Y-123457820D01*
X103155047Y-123457820D01*
X103155051Y-123457816D01*
X103251557Y-123268412D01*
X103317246Y-123066243D01*
X103350500Y-122856287D01*
X103350500Y-122643713D01*
X189149500Y-122643713D01*
X189149500Y-122856286D01*
X189182753Y-123066239D01*
X189248444Y-123268414D01*
X189344951Y-123457820D01*
X189469890Y-123629786D01*
X189620213Y-123780109D01*
X189792179Y-123905048D01*
X189792181Y-123905049D01*
X189792184Y-123905051D01*
X189981588Y-124001557D01*
X190183757Y-124067246D01*
X190393713Y-124100500D01*
X190393714Y-124100500D01*
X190606286Y-124100500D01*
X190606287Y-124100500D01*
X190816243Y-124067246D01*
X191018412Y-124001557D01*
X191207816Y-123905051D01*
X191229789Y-123889086D01*
X191379786Y-123780109D01*
X191379788Y-123780106D01*
X191379792Y-123780104D01*
X191530104Y-123629792D01*
X191530106Y-123629788D01*
X191530109Y-123629786D01*
X191655048Y-123457820D01*
X191655047Y-123457820D01*
X191655051Y-123457816D01*
X191751557Y-123268412D01*
X191817246Y-123066243D01*
X191850500Y-122856287D01*
X191850500Y-122643713D01*
X191817246Y-122433757D01*
X191751557Y-122231588D01*
X191655051Y-122042184D01*
X191655049Y-122042181D01*
X191655048Y-122042179D01*
X191530109Y-121870213D01*
X191379786Y-121719890D01*
X191207820Y-121594951D01*
X191018414Y-121498444D01*
X191018413Y-121498443D01*
X191018412Y-121498443D01*
X190816243Y-121432754D01*
X190816241Y-121432753D01*
X190816240Y-121432753D01*
X190654957Y-121407208D01*
X190606287Y-121399500D01*
X190393713Y-121399500D01*
X190345042Y-121407208D01*
X190183760Y-121432753D01*
X189981585Y-121498444D01*
X189792179Y-121594951D01*
X189620213Y-121719890D01*
X189469890Y-121870213D01*
X189344951Y-122042179D01*
X189248444Y-122231585D01*
X189182753Y-122433760D01*
X189149500Y-122643713D01*
X103350500Y-122643713D01*
X103317246Y-122433757D01*
X103251557Y-122231588D01*
X103155051Y-122042184D01*
X103155049Y-122042181D01*
X103155048Y-122042179D01*
X103030109Y-121870213D01*
X102879786Y-121719890D01*
X102707820Y-121594951D01*
X102518414Y-121498444D01*
X102518413Y-121498443D01*
X102518412Y-121498443D01*
X102316243Y-121432754D01*
X102316241Y-121432753D01*
X102316240Y-121432753D01*
X102154957Y-121407208D01*
X102106287Y-121399500D01*
X101893713Y-121399500D01*
X101845042Y-121407208D01*
X101683760Y-121432753D01*
X101481585Y-121498444D01*
X101292179Y-121594951D01*
X101120213Y-121719890D01*
X100969890Y-121870213D01*
X100844951Y-122042179D01*
X100748444Y-122231585D01*
X100682753Y-122433760D01*
X100649500Y-122643713D01*
X99750500Y-122643713D01*
X99750500Y-118352135D01*
X134859500Y-118352135D01*
X134859500Y-120147870D01*
X134859501Y-120147876D01*
X134865908Y-120207483D01*
X134916202Y-120342328D01*
X134916206Y-120342335D01*
X135002452Y-120457544D01*
X135002455Y-120457547D01*
X135117664Y-120543793D01*
X135117671Y-120543797D01*
X135252517Y-120594091D01*
X135252516Y-120594091D01*
X135259444Y-120594835D01*
X135312127Y-120600500D01*
X137107872Y-120600499D01*
X137167483Y-120594091D01*
X137302331Y-120543796D01*
X137417546Y-120457546D01*
X137503796Y-120342331D01*
X137552810Y-120210916D01*
X137594681Y-120154984D01*
X137660145Y-120130566D01*
X137728418Y-120145417D01*
X137756673Y-120166569D01*
X137878599Y-120288495D01*
X137975384Y-120356265D01*
X138072165Y-120424032D01*
X138072167Y-120424033D01*
X138072170Y-120424035D01*
X138286337Y-120523903D01*
X138514592Y-120585063D01*
X138691034Y-120600500D01*
X138749999Y-120605659D01*
X138750000Y-120605659D01*
X138750001Y-120605659D01*
X138808966Y-120600500D01*
X138985408Y-120585063D01*
X139213663Y-120523903D01*
X139427830Y-120424035D01*
X139621401Y-120288495D01*
X139788495Y-120121401D01*
X139918730Y-119935405D01*
X139973307Y-119891781D01*
X140042805Y-119884587D01*
X140105160Y-119916110D01*
X140121879Y-119935405D01*
X140251890Y-120121078D01*
X140418917Y-120288105D01*
X140612421Y-120423600D01*
X140826507Y-120523429D01*
X140826516Y-120523433D01*
X141040000Y-120580634D01*
X141040000Y-119683012D01*
X141097007Y-119715925D01*
X141224174Y-119750000D01*
X141355826Y-119750000D01*
X141482993Y-119715925D01*
X141540000Y-119683012D01*
X141540000Y-120580633D01*
X141753483Y-120523433D01*
X141753492Y-120523429D01*
X141967578Y-120423600D01*
X142161082Y-120288105D01*
X142328105Y-120121082D01*
X142463600Y-119927578D01*
X142563429Y-119713492D01*
X142563432Y-119713486D01*
X142620636Y-119500000D01*
X141723012Y-119500000D01*
X141755925Y-119442993D01*
X141790000Y-119315826D01*
X141790000Y-119184174D01*
X141755925Y-119057007D01*
X141723012Y-119000000D01*
X142620636Y-119000000D01*
X142620635Y-118999999D01*
X142563432Y-118786513D01*
X142563429Y-118786507D01*
X142463600Y-118572422D01*
X142463599Y-118572420D01*
X142328113Y-118378926D01*
X142328108Y-118378920D01*
X142161082Y-118211894D01*
X141967578Y-118076399D01*
X141753492Y-117976570D01*
X141753486Y-117976567D01*
X141540000Y-117919364D01*
X141540000Y-118816988D01*
X141482993Y-118784075D01*
X141355826Y-118750000D01*
X141224174Y-118750000D01*
X141097007Y-118784075D01*
X141040000Y-118816988D01*
X141040000Y-117919364D01*
X141039999Y-117919364D01*
X140826513Y-117976567D01*
X140826507Y-117976570D01*
X140612422Y-118076399D01*
X140612420Y-118076400D01*
X140418926Y-118211886D01*
X140418920Y-118211891D01*
X140251891Y-118378920D01*
X140251890Y-118378922D01*
X140121880Y-118564595D01*
X140067303Y-118608219D01*
X139997804Y-118615412D01*
X139935450Y-118583890D01*
X139918730Y-118564594D01*
X139788494Y-118378597D01*
X139621402Y-118211506D01*
X139621395Y-118211501D01*
X139427831Y-118075965D01*
X139427826Y-118075962D01*
X139422091Y-118073288D01*
X139369653Y-118027113D01*
X139350500Y-117960908D01*
X139350500Y-112832412D01*
X139370185Y-112765373D01*
X139377555Y-112755097D01*
X139379810Y-112752267D01*
X139379816Y-112752262D01*
X139475789Y-112599522D01*
X139535368Y-112429255D01*
X139555565Y-112250000D01*
X139549516Y-112196317D01*
X139535369Y-112070750D01*
X139535368Y-112070745D01*
X139510788Y-112000499D01*
X139475789Y-111900478D01*
X139381235Y-111749997D01*
X140945034Y-111749997D01*
X140945034Y-111750002D01*
X140964858Y-111976599D01*
X140964860Y-111976610D01*
X141023730Y-112196317D01*
X141023735Y-112196331D01*
X141119863Y-112402478D01*
X141170974Y-112475472D01*
X141850000Y-111796446D01*
X141850000Y-111802661D01*
X141877259Y-111904394D01*
X141929920Y-111995606D01*
X142004394Y-112070080D01*
X142095606Y-112122741D01*
X142197339Y-112150000D01*
X142203553Y-112150000D01*
X141524526Y-112829025D01*
X141597513Y-112880132D01*
X141597521Y-112880136D01*
X141803668Y-112976264D01*
X141803682Y-112976269D01*
X142023389Y-113035139D01*
X142023400Y-113035141D01*
X142249998Y-113054966D01*
X142250002Y-113054966D01*
X142476599Y-113035141D01*
X142476610Y-113035139D01*
X142696317Y-112976269D01*
X142696331Y-112976264D01*
X142902478Y-112880136D01*
X142975471Y-112829024D01*
X142296447Y-112150000D01*
X142302661Y-112150000D01*
X142404394Y-112122741D01*
X142495606Y-112070080D01*
X142570080Y-111995606D01*
X142622741Y-111904394D01*
X142650000Y-111802661D01*
X142650000Y-111796447D01*
X143329024Y-112475471D01*
X143380136Y-112402478D01*
X143476264Y-112196331D01*
X143476269Y-112196317D01*
X143535139Y-111976610D01*
X143535141Y-111976599D01*
X143554966Y-111750002D01*
X143554966Y-111749997D01*
X143535141Y-111523400D01*
X143535139Y-111523389D01*
X143476269Y-111303682D01*
X143476264Y-111303668D01*
X143380136Y-111097521D01*
X143380132Y-111097513D01*
X143329025Y-111024526D01*
X142650000Y-111703551D01*
X142650000Y-111697339D01*
X142622741Y-111595606D01*
X142570080Y-111504394D01*
X142495606Y-111429920D01*
X142404394Y-111377259D01*
X142302661Y-111350000D01*
X142296448Y-111350000D01*
X142975472Y-110670974D01*
X142902478Y-110619863D01*
X142696331Y-110523735D01*
X142696317Y-110523730D01*
X142476610Y-110464860D01*
X142476599Y-110464858D01*
X142250002Y-110445034D01*
X142249998Y-110445034D01*
X142023400Y-110464858D01*
X142023389Y-110464860D01*
X141803682Y-110523730D01*
X141803673Y-110523734D01*
X141597516Y-110619866D01*
X141597512Y-110619868D01*
X141524526Y-110670973D01*
X141524526Y-110670974D01*
X142203553Y-111350000D01*
X142197339Y-111350000D01*
X142095606Y-111377259D01*
X142004394Y-111429920D01*
X141929920Y-111504394D01*
X141877259Y-111595606D01*
X141850000Y-111697339D01*
X141850000Y-111703552D01*
X141170974Y-111024526D01*
X141170973Y-111024526D01*
X141119868Y-111097512D01*
X141119866Y-111097516D01*
X141023734Y-111303673D01*
X141023730Y-111303682D01*
X140964860Y-111523389D01*
X140964858Y-111523400D01*
X140945034Y-111749997D01*
X139381235Y-111749997D01*
X139379816Y-111747738D01*
X139252262Y-111620184D01*
X139099523Y-111524211D01*
X138929254Y-111464631D01*
X138929249Y-111464630D01*
X138750004Y-111444435D01*
X138749996Y-111444435D01*
X138570750Y-111464630D01*
X138570745Y-111464631D01*
X138400476Y-111524211D01*
X138247737Y-111620184D01*
X138120184Y-111747737D01*
X138024211Y-111900476D01*
X137964631Y-112070745D01*
X137964630Y-112070750D01*
X137944435Y-112249996D01*
X137944435Y-112250003D01*
X137964630Y-112429249D01*
X137964631Y-112429254D01*
X138024211Y-112599523D01*
X138120185Y-112752263D01*
X138122445Y-112755097D01*
X138123334Y-112757275D01*
X138123889Y-112758158D01*
X138123734Y-112758255D01*
X138148855Y-112819783D01*
X138149500Y-112832412D01*
X138149500Y-117960908D01*
X138129815Y-118027947D01*
X138077914Y-118073286D01*
X138072173Y-118075963D01*
X138072169Y-118075965D01*
X137878600Y-118211503D01*
X137756673Y-118333430D01*
X137695350Y-118366914D01*
X137625658Y-118361930D01*
X137569725Y-118320058D01*
X137552810Y-118289081D01*
X137503797Y-118157671D01*
X137503793Y-118157664D01*
X137417547Y-118042455D01*
X137417544Y-118042452D01*
X137302335Y-117956206D01*
X137302328Y-117956202D01*
X137167482Y-117905908D01*
X137167483Y-117905908D01*
X137107883Y-117899501D01*
X137107881Y-117899500D01*
X137107873Y-117899500D01*
X137107864Y-117899500D01*
X135312129Y-117899500D01*
X135312123Y-117899501D01*
X135252516Y-117905908D01*
X135117671Y-117956202D01*
X135117664Y-117956206D01*
X135002455Y-118042452D01*
X135002452Y-118042455D01*
X134916206Y-118157664D01*
X134916202Y-118157671D01*
X134865908Y-118292517D01*
X134859501Y-118352116D01*
X134859500Y-118352135D01*
X99750500Y-118352135D01*
X99750500Y-111749997D01*
X122945034Y-111749997D01*
X122945034Y-111750002D01*
X122964858Y-111976599D01*
X122964860Y-111976610D01*
X123023730Y-112196317D01*
X123023735Y-112196331D01*
X123119863Y-112402478D01*
X123170974Y-112475472D01*
X123850000Y-111796446D01*
X123850000Y-111802661D01*
X123877259Y-111904394D01*
X123929920Y-111995606D01*
X124004394Y-112070080D01*
X124095606Y-112122741D01*
X124197339Y-112150000D01*
X124203553Y-112150000D01*
X123524526Y-112829025D01*
X123597513Y-112880132D01*
X123597521Y-112880136D01*
X123803668Y-112976264D01*
X123803682Y-112976269D01*
X124023389Y-113035139D01*
X124023400Y-113035141D01*
X124249998Y-113054966D01*
X124250002Y-113054966D01*
X124476599Y-113035141D01*
X124476610Y-113035139D01*
X124696317Y-112976269D01*
X124696331Y-112976264D01*
X124902478Y-112880136D01*
X124975471Y-112829024D01*
X124296447Y-112150000D01*
X124302661Y-112150000D01*
X124404394Y-112122741D01*
X124495606Y-112070080D01*
X124570080Y-111995606D01*
X124622741Y-111904394D01*
X124650000Y-111802661D01*
X124650000Y-111796447D01*
X125329024Y-112475471D01*
X125380136Y-112402478D01*
X125476264Y-112196331D01*
X125476269Y-112196317D01*
X125535139Y-111976610D01*
X125535141Y-111976599D01*
X125554966Y-111750002D01*
X125554966Y-111749997D01*
X125535141Y-111523400D01*
X125535139Y-111523389D01*
X125476269Y-111303682D01*
X125476264Y-111303668D01*
X125380136Y-111097521D01*
X125380132Y-111097513D01*
X125329025Y-111024526D01*
X124650000Y-111703551D01*
X124650000Y-111697339D01*
X124622741Y-111595606D01*
X124570080Y-111504394D01*
X124495606Y-111429920D01*
X124404394Y-111377259D01*
X124302661Y-111350000D01*
X124296448Y-111350000D01*
X124975472Y-110670974D01*
X124902478Y-110619863D01*
X124696331Y-110523735D01*
X124696317Y-110523730D01*
X124476610Y-110464860D01*
X124476599Y-110464858D01*
X124250002Y-110445034D01*
X124249998Y-110445034D01*
X124023400Y-110464858D01*
X124023389Y-110464860D01*
X123803682Y-110523730D01*
X123803673Y-110523734D01*
X123597516Y-110619866D01*
X123597512Y-110619868D01*
X123524526Y-110670973D01*
X123524526Y-110670974D01*
X124203553Y-111350000D01*
X124197339Y-111350000D01*
X124095606Y-111377259D01*
X124004394Y-111429920D01*
X123929920Y-111504394D01*
X123877259Y-111595606D01*
X123850000Y-111697339D01*
X123850000Y-111703552D01*
X123170974Y-111024526D01*
X123170973Y-111024526D01*
X123119868Y-111097512D01*
X123119866Y-111097516D01*
X123023734Y-111303673D01*
X123023730Y-111303682D01*
X122964860Y-111523389D01*
X122964858Y-111523400D01*
X122945034Y-111749997D01*
X99750500Y-111749997D01*
X99750500Y-108452135D01*
X160749500Y-108452135D01*
X160749500Y-111547870D01*
X160749501Y-111547876D01*
X160755908Y-111607483D01*
X160806202Y-111742328D01*
X160806206Y-111742335D01*
X160892452Y-111857544D01*
X160892455Y-111857547D01*
X161007664Y-111943793D01*
X161007671Y-111943797D01*
X161142517Y-111994091D01*
X161142516Y-111994091D01*
X161149444Y-111994835D01*
X161202127Y-112000500D01*
X164297872Y-112000499D01*
X164357483Y-111994091D01*
X164492331Y-111943796D01*
X164607546Y-111857546D01*
X164693796Y-111742331D01*
X164744091Y-111607483D01*
X164750500Y-111547873D01*
X164750499Y-109999998D01*
X165744390Y-109999998D01*
X165744390Y-110000001D01*
X165764804Y-110285433D01*
X165825628Y-110565037D01*
X165825630Y-110565043D01*
X165825631Y-110565046D01*
X165846077Y-110619863D01*
X165925635Y-110833166D01*
X166062770Y-111084309D01*
X166062775Y-111084317D01*
X166234254Y-111313387D01*
X166234270Y-111313405D01*
X166436594Y-111515729D01*
X166436612Y-111515745D01*
X166665682Y-111687224D01*
X166665690Y-111687229D01*
X166916833Y-111824364D01*
X166916832Y-111824364D01*
X166916836Y-111824365D01*
X166916839Y-111824367D01*
X167184954Y-111924369D01*
X167184960Y-111924370D01*
X167184962Y-111924371D01*
X167464566Y-111985195D01*
X167464568Y-111985195D01*
X167464572Y-111985196D01*
X167718220Y-112003337D01*
X167749999Y-112005610D01*
X167750000Y-112005610D01*
X167750001Y-112005610D01*
X167778595Y-112003564D01*
X168035428Y-111985196D01*
X168074898Y-111976610D01*
X168315037Y-111924371D01*
X168315037Y-111924370D01*
X168315046Y-111924369D01*
X168583161Y-111824367D01*
X168834315Y-111687226D01*
X169063395Y-111515739D01*
X169265739Y-111313395D01*
X169437226Y-111084315D01*
X169574367Y-110833161D01*
X169674369Y-110565046D01*
X169735196Y-110285428D01*
X169755610Y-110000000D01*
X169755610Y-109999998D01*
X170744891Y-109999998D01*
X170744891Y-110000001D01*
X170765300Y-110285362D01*
X170826109Y-110564895D01*
X170926091Y-110832958D01*
X171063191Y-111084038D01*
X171063196Y-111084046D01*
X171169882Y-111226561D01*
X171169883Y-111226562D01*
X172185387Y-110211058D01*
X172190889Y-110231591D01*
X172269881Y-110368408D01*
X172381592Y-110480119D01*
X172518409Y-110559111D01*
X172538940Y-110564612D01*
X171523436Y-111580115D01*
X171665960Y-111686807D01*
X171665961Y-111686808D01*
X171917042Y-111823908D01*
X171917041Y-111823908D01*
X172185104Y-111923890D01*
X172464637Y-111984699D01*
X172749999Y-112005109D01*
X172750001Y-112005109D01*
X173035362Y-111984699D01*
X173314895Y-111923890D01*
X173582958Y-111823908D01*
X173834047Y-111686803D01*
X173976561Y-111580116D01*
X173976562Y-111580115D01*
X172961060Y-110564612D01*
X172981591Y-110559111D01*
X173118408Y-110480119D01*
X173230119Y-110368408D01*
X173309111Y-110231591D01*
X173314612Y-110211059D01*
X174330115Y-111226562D01*
X174330116Y-111226561D01*
X174436803Y-111084047D01*
X174573908Y-110832958D01*
X174673890Y-110564895D01*
X174734699Y-110285362D01*
X174755109Y-110000001D01*
X174755109Y-109999998D01*
X174734699Y-109714637D01*
X174673890Y-109435104D01*
X174573908Y-109167041D01*
X174436808Y-108915961D01*
X174436807Y-108915960D01*
X174330115Y-108773436D01*
X173314612Y-109788939D01*
X173309111Y-109768409D01*
X173230119Y-109631592D01*
X173118408Y-109519881D01*
X172981591Y-109440889D01*
X172961059Y-109435387D01*
X173976562Y-108419883D01*
X173976561Y-108419882D01*
X173834046Y-108313196D01*
X173834038Y-108313191D01*
X173582957Y-108176091D01*
X173582958Y-108176091D01*
X173314895Y-108076109D01*
X173035362Y-108015300D01*
X172750001Y-107994891D01*
X172749999Y-107994891D01*
X172464637Y-108015300D01*
X172185104Y-108076109D01*
X171917041Y-108176091D01*
X171665961Y-108313191D01*
X171665953Y-108313196D01*
X171523437Y-108419882D01*
X171523436Y-108419883D01*
X172538941Y-109435387D01*
X172518409Y-109440889D01*
X172381592Y-109519881D01*
X172269881Y-109631592D01*
X172190889Y-109768409D01*
X172185387Y-109788940D01*
X171169883Y-108773436D01*
X171169882Y-108773437D01*
X171063196Y-108915953D01*
X171063191Y-108915961D01*
X170926091Y-109167041D01*
X170826109Y-109435104D01*
X170765300Y-109714637D01*
X170744891Y-109999998D01*
X169755610Y-109999998D01*
X169735196Y-109714572D01*
X169674369Y-109434954D01*
X169574367Y-109166839D01*
X169437372Y-108915953D01*
X169437229Y-108915690D01*
X169437224Y-108915682D01*
X169265745Y-108686612D01*
X169265729Y-108686594D01*
X169063405Y-108484270D01*
X169063387Y-108484254D01*
X168834317Y-108312775D01*
X168834309Y-108312770D01*
X168583166Y-108175635D01*
X168583167Y-108175635D01*
X168475915Y-108135632D01*
X168315046Y-108075631D01*
X168315043Y-108075630D01*
X168315037Y-108075628D01*
X168035433Y-108014804D01*
X167750001Y-107994390D01*
X167749999Y-107994390D01*
X167464566Y-108014804D01*
X167184962Y-108075628D01*
X166916833Y-108175635D01*
X166665690Y-108312770D01*
X166665682Y-108312775D01*
X166436612Y-108484254D01*
X166436594Y-108484270D01*
X166234270Y-108686594D01*
X166234254Y-108686612D01*
X166062775Y-108915682D01*
X166062770Y-108915690D01*
X165925635Y-109166833D01*
X165825628Y-109434962D01*
X165764804Y-109714566D01*
X165744390Y-109999998D01*
X164750499Y-109999998D01*
X164750499Y-108452128D01*
X164744091Y-108392517D01*
X164714506Y-108313196D01*
X164693797Y-108257671D01*
X164693793Y-108257664D01*
X164607547Y-108142455D01*
X164607544Y-108142452D01*
X164492335Y-108056206D01*
X164492328Y-108056202D01*
X164357482Y-108005908D01*
X164357483Y-108005908D01*
X164297883Y-107999501D01*
X164297881Y-107999500D01*
X164297873Y-107999500D01*
X164297864Y-107999500D01*
X161202129Y-107999500D01*
X161202123Y-107999501D01*
X161142516Y-108005908D01*
X161007671Y-108056202D01*
X161007664Y-108056206D01*
X160892455Y-108142452D01*
X160892452Y-108142455D01*
X160806206Y-108257664D01*
X160806202Y-108257671D01*
X160755908Y-108392517D01*
X160749501Y-108452116D01*
X160749501Y-108452123D01*
X160749500Y-108452135D01*
X99750500Y-108452135D01*
X99750500Y-89249999D01*
X105144341Y-89249999D01*
X105144341Y-89250000D01*
X105164936Y-89485403D01*
X105164938Y-89485413D01*
X105226094Y-89713655D01*
X105226096Y-89713659D01*
X105226097Y-89713663D01*
X105307056Y-89887280D01*
X105325965Y-89927830D01*
X105325967Y-89927834D01*
X105434281Y-90082521D01*
X105455431Y-90112727D01*
X105461501Y-90121395D01*
X105461506Y-90121402D01*
X105628597Y-90288493D01*
X105628603Y-90288498D01*
X105814158Y-90418425D01*
X105857783Y-90473002D01*
X105864977Y-90542500D01*
X105833454Y-90604855D01*
X105814158Y-90621575D01*
X105628597Y-90751505D01*
X105461505Y-90918597D01*
X105325965Y-91112169D01*
X105325964Y-91112171D01*
X105226098Y-91326335D01*
X105226094Y-91326344D01*
X105164938Y-91554586D01*
X105164936Y-91554596D01*
X105144341Y-91789999D01*
X105144341Y-91790000D01*
X105164936Y-92025403D01*
X105164938Y-92025413D01*
X105226094Y-92253655D01*
X105226096Y-92253659D01*
X105226097Y-92253663D01*
X105299400Y-92410861D01*
X105325965Y-92467830D01*
X105325967Y-92467834D01*
X105461501Y-92661395D01*
X105461506Y-92661402D01*
X105628597Y-92828493D01*
X105628603Y-92828498D01*
X105814158Y-92958425D01*
X105857783Y-93013002D01*
X105864977Y-93082500D01*
X105833454Y-93144855D01*
X105814158Y-93161575D01*
X105628597Y-93291505D01*
X105461505Y-93458597D01*
X105325965Y-93652169D01*
X105325964Y-93652171D01*
X105226098Y-93866335D01*
X105226094Y-93866344D01*
X105164938Y-94094586D01*
X105164936Y-94094596D01*
X105144341Y-94329999D01*
X105144341Y-94330000D01*
X105164936Y-94565403D01*
X105164938Y-94565413D01*
X105226094Y-94793655D01*
X105226096Y-94793659D01*
X105226097Y-94793663D01*
X105322313Y-94999998D01*
X105325965Y-95007830D01*
X105325967Y-95007834D01*
X105390853Y-95100500D01*
X105461505Y-95201401D01*
X105628599Y-95368495D01*
X105813171Y-95497734D01*
X105814594Y-95498730D01*
X105858219Y-95553307D01*
X105865413Y-95622805D01*
X105833890Y-95685160D01*
X105814595Y-95701880D01*
X105628922Y-95831890D01*
X105628920Y-95831891D01*
X105461891Y-95998920D01*
X105461886Y-95998926D01*
X105326400Y-96192420D01*
X105326399Y-96192422D01*
X105226570Y-96406507D01*
X105226567Y-96406513D01*
X105169364Y-96619999D01*
X105169364Y-96620000D01*
X106066988Y-96620000D01*
X106034075Y-96677007D01*
X106000000Y-96804174D01*
X106000000Y-96935826D01*
X106034075Y-97062993D01*
X106066988Y-97120000D01*
X105169364Y-97120000D01*
X105226567Y-97333486D01*
X105226570Y-97333492D01*
X105326399Y-97547578D01*
X105461894Y-97741082D01*
X105628917Y-97908105D01*
X105815031Y-98038425D01*
X105858656Y-98093003D01*
X105865848Y-98162501D01*
X105834326Y-98224856D01*
X105815031Y-98241575D01*
X105628922Y-98371890D01*
X105628920Y-98371891D01*
X105461891Y-98538920D01*
X105461886Y-98538926D01*
X105326400Y-98732420D01*
X105326399Y-98732422D01*
X105226570Y-98946507D01*
X105226567Y-98946513D01*
X105169364Y-99159999D01*
X105169364Y-99160000D01*
X106066988Y-99160000D01*
X106034075Y-99217007D01*
X106000000Y-99344174D01*
X106000000Y-99475826D01*
X106034075Y-99602993D01*
X106066988Y-99660000D01*
X105169364Y-99660000D01*
X105226567Y-99873486D01*
X105226570Y-99873492D01*
X105326399Y-100087578D01*
X105461894Y-100281082D01*
X105584334Y-100403522D01*
X105617819Y-100464845D01*
X105612835Y-100534537D01*
X105570963Y-100590470D01*
X105539987Y-100607385D01*
X105407911Y-100656646D01*
X105407906Y-100656649D01*
X105292812Y-100742809D01*
X105292809Y-100742812D01*
X105206649Y-100857906D01*
X105206645Y-100857913D01*
X105156403Y-100992620D01*
X105156401Y-100992627D01*
X105150000Y-101052155D01*
X105150000Y-101700000D01*
X106066988Y-101700000D01*
X106034075Y-101757007D01*
X106000000Y-101884174D01*
X106000000Y-102015826D01*
X106034075Y-102142993D01*
X106066988Y-102200000D01*
X105150000Y-102200000D01*
X105150000Y-102847844D01*
X105156401Y-102907372D01*
X105156403Y-102907379D01*
X105206645Y-103042086D01*
X105206649Y-103042093D01*
X105292809Y-103157187D01*
X105292812Y-103157190D01*
X105407906Y-103243350D01*
X105407913Y-103243354D01*
X105542620Y-103293596D01*
X105542627Y-103293598D01*
X105602155Y-103299999D01*
X105602172Y-103300000D01*
X106250000Y-103300000D01*
X106250000Y-102383012D01*
X106307007Y-102415925D01*
X106434174Y-102450000D01*
X106565826Y-102450000D01*
X106692993Y-102415925D01*
X106750000Y-102383012D01*
X106750000Y-103300000D01*
X107397828Y-103300000D01*
X107397844Y-103299999D01*
X107457372Y-103293598D01*
X107457379Y-103293596D01*
X107592086Y-103243354D01*
X107592093Y-103243350D01*
X107707187Y-103157190D01*
X107707190Y-103157187D01*
X107793350Y-103042093D01*
X107793354Y-103042086D01*
X107843596Y-102907379D01*
X107843598Y-102907372D01*
X107849999Y-102847844D01*
X107850000Y-102847827D01*
X107850000Y-102200000D01*
X106933012Y-102200000D01*
X106965925Y-102142993D01*
X107000000Y-102015826D01*
X107000000Y-101884174D01*
X106965925Y-101757007D01*
X106933012Y-101700000D01*
X107850000Y-101700000D01*
X107850000Y-101052172D01*
X107849999Y-101052155D01*
X107843598Y-100992627D01*
X107843596Y-100992620D01*
X107793354Y-100857913D01*
X107793350Y-100857906D01*
X107707190Y-100742812D01*
X107707187Y-100742809D01*
X107592093Y-100656649D01*
X107592086Y-100656645D01*
X107460013Y-100607385D01*
X107404079Y-100565514D01*
X107379662Y-100500049D01*
X107394514Y-100431776D01*
X107415665Y-100403521D01*
X107538108Y-100281078D01*
X107673600Y-100087578D01*
X107773429Y-99873492D01*
X107773432Y-99873486D01*
X107830636Y-99660000D01*
X106933012Y-99660000D01*
X106965925Y-99602993D01*
X107000000Y-99475826D01*
X107000000Y-99344174D01*
X106965925Y-99217007D01*
X106933012Y-99160000D01*
X107830636Y-99160000D01*
X107830635Y-99159999D01*
X107773432Y-98946513D01*
X107773429Y-98946507D01*
X107673600Y-98732422D01*
X107673599Y-98732420D01*
X107538113Y-98538926D01*
X107538108Y-98538920D01*
X107371082Y-98371894D01*
X107184968Y-98241575D01*
X107141344Y-98186998D01*
X107134151Y-98117499D01*
X107165673Y-98055145D01*
X107184968Y-98038425D01*
X107371082Y-97908105D01*
X107538105Y-97741082D01*
X107673600Y-97547578D01*
X107773429Y-97333492D01*
X107773432Y-97333486D01*
X107830636Y-97120000D01*
X106933012Y-97120000D01*
X106965925Y-97062993D01*
X107000000Y-96935826D01*
X107000000Y-96804174D01*
X106965925Y-96677007D01*
X106933012Y-96620000D01*
X107830636Y-96620000D01*
X107830635Y-96619999D01*
X107773432Y-96406513D01*
X107773429Y-96406507D01*
X107673600Y-96192422D01*
X107673599Y-96192420D01*
X107538113Y-95998926D01*
X107538108Y-95998920D01*
X107371078Y-95831890D01*
X107185405Y-95701879D01*
X107141780Y-95647302D01*
X107134588Y-95577804D01*
X107166110Y-95515449D01*
X107185406Y-95498730D01*
X107186823Y-95497738D01*
X107371401Y-95368495D01*
X107538495Y-95201401D01*
X107674035Y-95007830D01*
X107773903Y-94793663D01*
X107835063Y-94565408D01*
X107855659Y-94330000D01*
X107835063Y-94094592D01*
X107773903Y-93866337D01*
X107674035Y-93652171D01*
X107663286Y-93636819D01*
X107538494Y-93458597D01*
X107371402Y-93291506D01*
X107371396Y-93291501D01*
X107312122Y-93249997D01*
X111945034Y-93249997D01*
X111945034Y-93250002D01*
X111964858Y-93476599D01*
X111964860Y-93476610D01*
X112023730Y-93696317D01*
X112023735Y-93696331D01*
X112119863Y-93902478D01*
X112170974Y-93975472D01*
X112850000Y-93296446D01*
X112850000Y-93302661D01*
X112877259Y-93404394D01*
X112929920Y-93495606D01*
X113004394Y-93570080D01*
X113095606Y-93622741D01*
X113197339Y-93650000D01*
X113203553Y-93650000D01*
X112524526Y-94329025D01*
X112597513Y-94380132D01*
X112597521Y-94380136D01*
X112803668Y-94476264D01*
X112803682Y-94476269D01*
X113023389Y-94535139D01*
X113023400Y-94535141D01*
X113249998Y-94554966D01*
X113250002Y-94554966D01*
X113476599Y-94535141D01*
X113476610Y-94535139D01*
X113696317Y-94476269D01*
X113696331Y-94476264D01*
X113902478Y-94380136D01*
X113975471Y-94329024D01*
X113296447Y-93650000D01*
X113302661Y-93650000D01*
X113404394Y-93622741D01*
X113495606Y-93570080D01*
X113570080Y-93495606D01*
X113622741Y-93404394D01*
X113650000Y-93302661D01*
X113650000Y-93296447D01*
X114329024Y-93975471D01*
X114380136Y-93902478D01*
X114476264Y-93696331D01*
X114476269Y-93696317D01*
X114535139Y-93476610D01*
X114535141Y-93476599D01*
X114554966Y-93250002D01*
X114554966Y-93249997D01*
X114535141Y-93023400D01*
X114535139Y-93023389D01*
X114476269Y-92803682D01*
X114476264Y-92803668D01*
X114380136Y-92597521D01*
X114380132Y-92597513D01*
X114329025Y-92524526D01*
X113650000Y-93203551D01*
X113650000Y-93197339D01*
X113622741Y-93095606D01*
X113570080Y-93004394D01*
X113495606Y-92929920D01*
X113404394Y-92877259D01*
X113302661Y-92850000D01*
X113296448Y-92850000D01*
X113975472Y-92170974D01*
X113902478Y-92119863D01*
X113696331Y-92023735D01*
X113696317Y-92023730D01*
X113476610Y-91964860D01*
X113476599Y-91964858D01*
X113250002Y-91945034D01*
X113249998Y-91945034D01*
X113023400Y-91964858D01*
X113023389Y-91964860D01*
X112803682Y-92023730D01*
X112803673Y-92023734D01*
X112597516Y-92119866D01*
X112597512Y-92119868D01*
X112524526Y-92170973D01*
X112524526Y-92170974D01*
X113203553Y-92850000D01*
X113197339Y-92850000D01*
X113095606Y-92877259D01*
X113004394Y-92929920D01*
X112929920Y-93004394D01*
X112877259Y-93095606D01*
X112850000Y-93197339D01*
X112850000Y-93203552D01*
X112170974Y-92524526D01*
X112170973Y-92524526D01*
X112119868Y-92597512D01*
X112119866Y-92597516D01*
X112023734Y-92803673D01*
X112023730Y-92803682D01*
X111964860Y-93023389D01*
X111964858Y-93023400D01*
X111945034Y-93249997D01*
X107312122Y-93249997D01*
X107185842Y-93161575D01*
X107142217Y-93106998D01*
X107135023Y-93037500D01*
X107166546Y-92975145D01*
X107185842Y-92958425D01*
X107259427Y-92906900D01*
X107371401Y-92828495D01*
X107538495Y-92661401D01*
X107674035Y-92467830D01*
X107773903Y-92253663D01*
X107835063Y-92025408D01*
X107855659Y-91790000D01*
X107835063Y-91554592D01*
X107785258Y-91368716D01*
X107773905Y-91326344D01*
X107773904Y-91326343D01*
X107773903Y-91326337D01*
X107674035Y-91112171D01*
X107631485Y-91051402D01*
X107538494Y-90918597D01*
X107371402Y-90751506D01*
X107371396Y-90751501D01*
X107185842Y-90621575D01*
X107142217Y-90566998D01*
X107135023Y-90497500D01*
X107166546Y-90435145D01*
X107185842Y-90418425D01*
X107230313Y-90387286D01*
X107371401Y-90288495D01*
X107538495Y-90121401D01*
X107674035Y-89927830D01*
X107773903Y-89713663D01*
X107835063Y-89485408D01*
X107855659Y-89250000D01*
X107835063Y-89014592D01*
X107773903Y-88786337D01*
X107674035Y-88572171D01*
X107673190Y-88570963D01*
X107538494Y-88378597D01*
X107371402Y-88211506D01*
X107371395Y-88211501D01*
X107177831Y-88075965D01*
X107177829Y-88075964D01*
X107037095Y-88010338D01*
X106984656Y-87964165D01*
X106965500Y-87897956D01*
X106965500Y-87213315D01*
X112737000Y-87213315D01*
X112737000Y-87786669D01*
X112737001Y-87786687D01*
X112747325Y-87887752D01*
X112776884Y-87976953D01*
X112801520Y-88051300D01*
X112801592Y-88051515D01*
X112801593Y-88051518D01*
X112812958Y-88069944D01*
X112892160Y-88198350D01*
X113014150Y-88320340D01*
X113115596Y-88382912D01*
X113162321Y-88434860D01*
X113174500Y-88488451D01*
X113174500Y-88688330D01*
X113174499Y-88688348D01*
X113174499Y-88854054D01*
X113174498Y-88854054D01*
X113174499Y-88854057D01*
X113215423Y-89006785D01*
X113215424Y-89006787D01*
X113215423Y-89006787D01*
X113222023Y-89018217D01*
X113222024Y-89018218D01*
X113294477Y-89143712D01*
X113294481Y-89143717D01*
X113413349Y-89262585D01*
X113413355Y-89262590D01*
X116958058Y-92807293D01*
X116991543Y-92868616D01*
X116990152Y-92927067D01*
X116964366Y-93023302D01*
X116964364Y-93023313D01*
X116944532Y-93249998D01*
X116944532Y-93250001D01*
X116964364Y-93476686D01*
X116964366Y-93476697D01*
X117023258Y-93696488D01*
X117023261Y-93696497D01*
X117119431Y-93902732D01*
X117119432Y-93902734D01*
X117249954Y-94089141D01*
X117410858Y-94250045D01*
X117410861Y-94250047D01*
X117597266Y-94380568D01*
X117803504Y-94476739D01*
X118023308Y-94535635D01*
X118185230Y-94549801D01*
X118249998Y-94555468D01*
X118250000Y-94555468D01*
X118250002Y-94555468D01*
X118306673Y-94550509D01*
X118476692Y-94535635D01*
X118696496Y-94476739D01*
X118902734Y-94380568D01*
X119089139Y-94250047D01*
X119250047Y-94089139D01*
X119380568Y-93902734D01*
X119476739Y-93696496D01*
X119535635Y-93476692D01*
X119555468Y-93250000D01*
X119553301Y-93225236D01*
X119544755Y-93127555D01*
X119535635Y-93023308D01*
X119476739Y-92803504D01*
X119380568Y-92597266D01*
X119282839Y-92457693D01*
X119250045Y-92410858D01*
X119089141Y-92249954D01*
X118902734Y-92119432D01*
X118902732Y-92119431D01*
X118696497Y-92023261D01*
X118696488Y-92023258D01*
X118476697Y-91964366D01*
X118476693Y-91964365D01*
X118476692Y-91964365D01*
X118476691Y-91964364D01*
X118476686Y-91964364D01*
X118250002Y-91944532D01*
X118249998Y-91944532D01*
X118023313Y-91964364D01*
X118023302Y-91964366D01*
X117927067Y-91990152D01*
X117857217Y-91988489D01*
X117807293Y-91958058D01*
X116115945Y-90266710D01*
X114420199Y-88570963D01*
X114386714Y-88509640D01*
X114391698Y-88439948D01*
X114433570Y-88384015D01*
X114442774Y-88377749D01*
X114535850Y-88320340D01*
X114550171Y-88306018D01*
X114611489Y-88272533D01*
X114681181Y-88277514D01*
X114725534Y-88306017D01*
X114739461Y-88319944D01*
X114739465Y-88319947D01*
X114886188Y-88410448D01*
X114886199Y-88410453D01*
X115049847Y-88464680D01*
X115150851Y-88474999D01*
X115750000Y-88474999D01*
X115849140Y-88474999D01*
X115849154Y-88474998D01*
X115950152Y-88464680D01*
X116113800Y-88410453D01*
X116113811Y-88410448D01*
X116260534Y-88319947D01*
X116260538Y-88319944D01*
X116382444Y-88198038D01*
X116382447Y-88198034D01*
X116472948Y-88051311D01*
X116472953Y-88051300D01*
X116527180Y-87887652D01*
X116537499Y-87786654D01*
X116537500Y-87786641D01*
X116537500Y-87750000D01*
X115750000Y-87750000D01*
X115750000Y-88474999D01*
X115150851Y-88474999D01*
X115250000Y-88474998D01*
X115250000Y-87250000D01*
X115750000Y-87250000D01*
X116537499Y-87250000D01*
X116537499Y-87213360D01*
X116537498Y-87213345D01*
X116527180Y-87112347D01*
X116472953Y-86948699D01*
X116472948Y-86948688D01*
X116382447Y-86801965D01*
X116382444Y-86801961D01*
X116260538Y-86680055D01*
X116260534Y-86680052D01*
X116113811Y-86589551D01*
X116113800Y-86589546D01*
X115950152Y-86535319D01*
X115849154Y-86525000D01*
X115750000Y-86525000D01*
X115750000Y-87250000D01*
X115250000Y-87250000D01*
X115250000Y-86524999D01*
X115150860Y-86525000D01*
X115150844Y-86525001D01*
X115049847Y-86535319D01*
X114886199Y-86589546D01*
X114886188Y-86589551D01*
X114739465Y-86680052D01*
X114725532Y-86693985D01*
X114664208Y-86727468D01*
X114594516Y-86722482D01*
X114550172Y-86693982D01*
X114535851Y-86679661D01*
X114535850Y-86679660D01*
X114406540Y-86599901D01*
X114389018Y-86589093D01*
X114389013Y-86589091D01*
X114387569Y-86588612D01*
X114225253Y-86534826D01*
X114225251Y-86534825D01*
X114124178Y-86524500D01*
X113425830Y-86524500D01*
X113425812Y-86524501D01*
X113324747Y-86534825D01*
X113160984Y-86589092D01*
X113160981Y-86589093D01*
X113014148Y-86679661D01*
X112892161Y-86801648D01*
X112801593Y-86948481D01*
X112801591Y-86948486D01*
X112774219Y-87031088D01*
X112747326Y-87112247D01*
X112747326Y-87112248D01*
X112747325Y-87112248D01*
X112737000Y-87213315D01*
X106965500Y-87213315D01*
X106965500Y-80658686D01*
X106985185Y-80591647D01*
X107037989Y-80545892D01*
X107107147Y-80535948D01*
X107124095Y-80539610D01*
X107184216Y-80557077D01*
X107184222Y-80557078D01*
X107221342Y-80559999D01*
X107221358Y-80560000D01*
X107250000Y-80560000D01*
X107750000Y-80560000D01*
X107778642Y-80560000D01*
X107778657Y-80559999D01*
X107815777Y-80557078D01*
X107815783Y-80557077D01*
X107974694Y-80510908D01*
X107974697Y-80510907D01*
X108117142Y-80426666D01*
X108117150Y-80426660D01*
X108234160Y-80309650D01*
X108234166Y-80309642D01*
X108318407Y-80167197D01*
X108318409Y-80167194D01*
X108364578Y-80008281D01*
X108365230Y-80000000D01*
X107750000Y-80000000D01*
X107750000Y-80560000D01*
X107250000Y-80560000D01*
X107250000Y-79500000D01*
X107750000Y-79500000D01*
X108365230Y-79500000D01*
X108364578Y-79491718D01*
X108318409Y-79332805D01*
X108318407Y-79332802D01*
X108234166Y-79190357D01*
X108234160Y-79190349D01*
X108117150Y-79073339D01*
X108117142Y-79073333D01*
X107974697Y-78989092D01*
X107974694Y-78989091D01*
X107815783Y-78942922D01*
X107815777Y-78942921D01*
X107778657Y-78940000D01*
X107750000Y-78940000D01*
X107750000Y-79500000D01*
X107250000Y-79500000D01*
X107250000Y-78940000D01*
X107221342Y-78940000D01*
X107184222Y-78942921D01*
X107124094Y-78960390D01*
X107054224Y-78960189D01*
X106995555Y-78922247D01*
X106966712Y-78858608D01*
X106965500Y-78841313D01*
X106965500Y-76974500D01*
X106985185Y-76907461D01*
X107037989Y-76861706D01*
X107089500Y-76850500D01*
X110140500Y-76850500D01*
X110207539Y-76870185D01*
X110253294Y-76922989D01*
X110264500Y-76974500D01*
X110264500Y-79004620D01*
X110244815Y-79071659D01*
X110228181Y-79092301D01*
X110130441Y-79190040D01*
X110130434Y-79190049D01*
X110046129Y-79332601D01*
X110046128Y-79332604D01*
X109999924Y-79491637D01*
X109999923Y-79491643D01*
X109997000Y-79528789D01*
X109997000Y-79971190D01*
X109997001Y-79971215D01*
X109999923Y-80008354D01*
X110046130Y-80167400D01*
X110130434Y-80309950D01*
X110130441Y-80309959D01*
X110247540Y-80427058D01*
X110247544Y-80427061D01*
X110247546Y-80427063D01*
X110390100Y-80511370D01*
X110409503Y-80517007D01*
X110549137Y-80557575D01*
X110549140Y-80557575D01*
X110549142Y-80557576D01*
X110586297Y-80560500D01*
X111143702Y-80560499D01*
X111180858Y-80557576D01*
X111339900Y-80511370D01*
X111369869Y-80493645D01*
X111437588Y-80476461D01*
X111496113Y-80493645D01*
X111525300Y-80510906D01*
X111525305Y-80510908D01*
X111684216Y-80557077D01*
X111684222Y-80557078D01*
X111721342Y-80559999D01*
X111721358Y-80560000D01*
X111750000Y-80560000D01*
X112250000Y-80560000D01*
X112278642Y-80560000D01*
X112278657Y-80559999D01*
X112315777Y-80557078D01*
X112315783Y-80557077D01*
X112474694Y-80510908D01*
X112474697Y-80510907D01*
X112617142Y-80426666D01*
X112617150Y-80426660D01*
X112734160Y-80309650D01*
X112734166Y-80309642D01*
X112818407Y-80167197D01*
X112818409Y-80167194D01*
X112864578Y-80008281D01*
X112865230Y-80000000D01*
X112250000Y-80000000D01*
X112250000Y-80560000D01*
X111750000Y-80560000D01*
X111750000Y-79500000D01*
X112250000Y-79500000D01*
X112865230Y-79500000D01*
X112864578Y-79491718D01*
X112818409Y-79332805D01*
X112818407Y-79332802D01*
X112734166Y-79190357D01*
X112734160Y-79190349D01*
X112617150Y-79073339D01*
X112617142Y-79073333D01*
X112474697Y-78989092D01*
X112474694Y-78989091D01*
X112315783Y-78942922D01*
X112315777Y-78942921D01*
X112278657Y-78940000D01*
X112250000Y-78940000D01*
X112250000Y-79500000D01*
X111750000Y-79500000D01*
X111750000Y-78940000D01*
X111721342Y-78940000D01*
X111684222Y-78942921D01*
X111624094Y-78960390D01*
X111554224Y-78960189D01*
X111495555Y-78922247D01*
X111466712Y-78858608D01*
X111465500Y-78841313D01*
X111465500Y-76974500D01*
X111485185Y-76907461D01*
X111537989Y-76861706D01*
X111589500Y-76850500D01*
X114890500Y-76850500D01*
X114957539Y-76870185D01*
X115003294Y-76922989D01*
X115014500Y-76974500D01*
X115014500Y-79004620D01*
X114994815Y-79071659D01*
X114978181Y-79092301D01*
X114880441Y-79190040D01*
X114880434Y-79190049D01*
X114796129Y-79332601D01*
X114796128Y-79332604D01*
X114749924Y-79491637D01*
X114749923Y-79491643D01*
X114747000Y-79528789D01*
X114747000Y-79971190D01*
X114747001Y-79971215D01*
X114749923Y-80008354D01*
X114796130Y-80167400D01*
X114880434Y-80309950D01*
X114880441Y-80309959D01*
X114997540Y-80427058D01*
X114997544Y-80427061D01*
X114997546Y-80427063D01*
X115140100Y-80511370D01*
X115159503Y-80517007D01*
X115299137Y-80557575D01*
X115299140Y-80557575D01*
X115299142Y-80557576D01*
X115336297Y-80560500D01*
X115893702Y-80560499D01*
X115930858Y-80557576D01*
X116089900Y-80511370D01*
X116119869Y-80493645D01*
X116187588Y-80476461D01*
X116246113Y-80493645D01*
X116275300Y-80510906D01*
X116275305Y-80510908D01*
X116434216Y-80557077D01*
X116434222Y-80557078D01*
X116471342Y-80559999D01*
X116471358Y-80560000D01*
X116500000Y-80560000D01*
X117000000Y-80560000D01*
X117028642Y-80560000D01*
X117028657Y-80559999D01*
X117065777Y-80557078D01*
X117065783Y-80557077D01*
X117224694Y-80510908D01*
X117224697Y-80510907D01*
X117367142Y-80426666D01*
X117367150Y-80426660D01*
X117484160Y-80309650D01*
X117484166Y-80309642D01*
X117568407Y-80167197D01*
X117568409Y-80167194D01*
X117614578Y-80008281D01*
X117615230Y-80000000D01*
X117000000Y-80000000D01*
X117000000Y-80560000D01*
X116500000Y-80560000D01*
X116500000Y-79500000D01*
X117000000Y-79500000D01*
X117615230Y-79500000D01*
X117614578Y-79491718D01*
X117568409Y-79332805D01*
X117568407Y-79332802D01*
X117484166Y-79190357D01*
X117484160Y-79190349D01*
X117367150Y-79073339D01*
X117367142Y-79073333D01*
X117224697Y-78989092D01*
X117224694Y-78989091D01*
X117065783Y-78942922D01*
X117065777Y-78942921D01*
X117028657Y-78940000D01*
X117000000Y-78940000D01*
X117000000Y-79500000D01*
X116500000Y-79500000D01*
X116500000Y-78940000D01*
X116471342Y-78940000D01*
X116434222Y-78942921D01*
X116374094Y-78960390D01*
X116304224Y-78960189D01*
X116245555Y-78922247D01*
X116216712Y-78858608D01*
X116215500Y-78841313D01*
X116215500Y-76974500D01*
X116235185Y-76907461D01*
X116287989Y-76861706D01*
X116339500Y-76850500D01*
X119890500Y-76850500D01*
X119957539Y-76870185D01*
X120003294Y-76922989D01*
X120014500Y-76974500D01*
X120014500Y-79004620D01*
X119994815Y-79071659D01*
X119978181Y-79092301D01*
X119880441Y-79190040D01*
X119880434Y-79190049D01*
X119796129Y-79332601D01*
X119796128Y-79332604D01*
X119749924Y-79491637D01*
X119749923Y-79491643D01*
X119747000Y-79528789D01*
X119747000Y-79971190D01*
X119747001Y-79971215D01*
X119749923Y-80008354D01*
X119796130Y-80167400D01*
X119880434Y-80309950D01*
X119880441Y-80309959D01*
X119997540Y-80427058D01*
X119997544Y-80427061D01*
X119997546Y-80427063D01*
X120140100Y-80511370D01*
X120159503Y-80517007D01*
X120299137Y-80557575D01*
X120299140Y-80557575D01*
X120299142Y-80557576D01*
X120336297Y-80560500D01*
X120893702Y-80560499D01*
X120930858Y-80557576D01*
X121089900Y-80511370D01*
X121119869Y-80493645D01*
X121187588Y-80476461D01*
X121246113Y-80493645D01*
X121275300Y-80510906D01*
X121275305Y-80510908D01*
X121434216Y-80557077D01*
X121434222Y-80557078D01*
X121471342Y-80559999D01*
X121471358Y-80560000D01*
X121500000Y-80560000D01*
X122000000Y-80560000D01*
X122028642Y-80560000D01*
X122028657Y-80559999D01*
X122065777Y-80557078D01*
X122065783Y-80557077D01*
X122224694Y-80510908D01*
X122224697Y-80510907D01*
X122367142Y-80426666D01*
X122367150Y-80426660D01*
X122484160Y-80309650D01*
X122484166Y-80309642D01*
X122568407Y-80167197D01*
X122568409Y-80167194D01*
X122614578Y-80008281D01*
X122615230Y-80000000D01*
X122000000Y-80000000D01*
X122000000Y-80560000D01*
X121500000Y-80560000D01*
X121500000Y-79500000D01*
X122000000Y-79500000D01*
X122615230Y-79500000D01*
X122614578Y-79491718D01*
X122568409Y-79332805D01*
X122568407Y-79332802D01*
X122484166Y-79190357D01*
X122484160Y-79190349D01*
X122367150Y-79073339D01*
X122367142Y-79073333D01*
X122224697Y-78989092D01*
X122224694Y-78989091D01*
X122065783Y-78942922D01*
X122065777Y-78942921D01*
X122028657Y-78940000D01*
X122000000Y-78940000D01*
X122000000Y-79500000D01*
X121500000Y-79500000D01*
X121500000Y-78940000D01*
X121471342Y-78940000D01*
X121434222Y-78942921D01*
X121374094Y-78960390D01*
X121304224Y-78960189D01*
X121245555Y-78922247D01*
X121216712Y-78858608D01*
X121215500Y-78841313D01*
X121215500Y-76974500D01*
X121235185Y-76907461D01*
X121287989Y-76861706D01*
X121339500Y-76850500D01*
X121420943Y-76850500D01*
X121579057Y-76850500D01*
X122800500Y-76850500D01*
X122867539Y-76870185D01*
X122913294Y-76922989D01*
X122924500Y-76974500D01*
X122924500Y-86261548D01*
X122904815Y-86328587D01*
X122865597Y-86367086D01*
X122764153Y-86429657D01*
X122764149Y-86429660D01*
X122642161Y-86551648D01*
X122551593Y-86698481D01*
X122551591Y-86698486D01*
X122534521Y-86750000D01*
X122497326Y-86862247D01*
X122497326Y-86862248D01*
X122497325Y-86862248D01*
X122487000Y-86963315D01*
X122487000Y-87536669D01*
X122487001Y-87536687D01*
X122497325Y-87637752D01*
X122510606Y-87677830D01*
X122551592Y-87801516D01*
X122642160Y-87948350D01*
X122764150Y-88070340D01*
X122865596Y-88132912D01*
X122912321Y-88184860D01*
X122924500Y-88238451D01*
X122924500Y-92538330D01*
X122924499Y-92538348D01*
X122924499Y-92704054D01*
X122924498Y-92704054D01*
X122943445Y-92774764D01*
X122965423Y-92856785D01*
X122988322Y-92896447D01*
X122994358Y-92906900D01*
X122994359Y-92906904D01*
X122994360Y-92906904D01*
X123044479Y-92993714D01*
X123044481Y-92993717D01*
X123163349Y-93112585D01*
X123163355Y-93112590D01*
X124608058Y-94557293D01*
X124641543Y-94618616D01*
X124640152Y-94677067D01*
X124614366Y-94773302D01*
X124614364Y-94773313D01*
X124594532Y-94999998D01*
X124594532Y-95000001D01*
X124614364Y-95226686D01*
X124614366Y-95226697D01*
X124673258Y-95446488D01*
X124673261Y-95446497D01*
X124769431Y-95652732D01*
X124769432Y-95652734D01*
X124899954Y-95839141D01*
X125060858Y-96000045D01*
X125060861Y-96000047D01*
X125247266Y-96130568D01*
X125453504Y-96226739D01*
X125673308Y-96285635D01*
X125835230Y-96299801D01*
X125899998Y-96305468D01*
X125900000Y-96305468D01*
X125900002Y-96305468D01*
X125956673Y-96300509D01*
X126126692Y-96285635D01*
X126346496Y-96226739D01*
X126552734Y-96130568D01*
X126739139Y-96000047D01*
X126900047Y-95839139D01*
X127030568Y-95652734D01*
X127126739Y-95446496D01*
X127185635Y-95226692D01*
X127205468Y-95000000D01*
X127185635Y-94773308D01*
X127126739Y-94553504D01*
X127030568Y-94347266D01*
X126900047Y-94160861D01*
X126900045Y-94160858D01*
X126739141Y-93999954D01*
X126552734Y-93869432D01*
X126552732Y-93869431D01*
X126346497Y-93773261D01*
X126346488Y-93773258D01*
X126126697Y-93714366D01*
X126126693Y-93714365D01*
X126126692Y-93714365D01*
X126126691Y-93714364D01*
X126126686Y-93714364D01*
X125900002Y-93694532D01*
X125899998Y-93694532D01*
X125673313Y-93714364D01*
X125673302Y-93714366D01*
X125577067Y-93740152D01*
X125507217Y-93738489D01*
X125457293Y-93708058D01*
X124161819Y-92412584D01*
X124128334Y-92351261D01*
X124125500Y-92324903D01*
X124125500Y-88238451D01*
X124145185Y-88171412D01*
X124184402Y-88132913D01*
X124285850Y-88070340D01*
X124300171Y-88056018D01*
X124361489Y-88022533D01*
X124431181Y-88027514D01*
X124475534Y-88056017D01*
X124489461Y-88069944D01*
X124489465Y-88069947D01*
X124636188Y-88160448D01*
X124636199Y-88160453D01*
X124799847Y-88214680D01*
X124900851Y-88224999D01*
X125500000Y-88224999D01*
X125599140Y-88224999D01*
X125599154Y-88224998D01*
X125700152Y-88214680D01*
X125863800Y-88160453D01*
X125863811Y-88160448D01*
X126010534Y-88069947D01*
X126010538Y-88069944D01*
X126132444Y-87948038D01*
X126132447Y-87948034D01*
X126222948Y-87801311D01*
X126222953Y-87801300D01*
X126277180Y-87637652D01*
X126287499Y-87536654D01*
X126287500Y-87536641D01*
X126287500Y-87500000D01*
X125500000Y-87500000D01*
X125500000Y-88224999D01*
X124900851Y-88224999D01*
X125000000Y-88224998D01*
X125000000Y-87000000D01*
X125500000Y-87000000D01*
X126287499Y-87000000D01*
X126287499Y-86963360D01*
X126287498Y-86963345D01*
X126277180Y-86862347D01*
X126222953Y-86698699D01*
X126222948Y-86698688D01*
X126132447Y-86551965D01*
X126132444Y-86551961D01*
X126010538Y-86430055D01*
X126010534Y-86430052D01*
X125863811Y-86339551D01*
X125863800Y-86339546D01*
X125700152Y-86285319D01*
X125599154Y-86275000D01*
X125500000Y-86275000D01*
X125500000Y-87000000D01*
X125000000Y-87000000D01*
X125000000Y-86274999D01*
X124900860Y-86275000D01*
X124900844Y-86275001D01*
X124799847Y-86285319D01*
X124636199Y-86339546D01*
X124636188Y-86339551D01*
X124489465Y-86430052D01*
X124475532Y-86443985D01*
X124414208Y-86477468D01*
X124344516Y-86472482D01*
X124300172Y-86443982D01*
X124285850Y-86429660D01*
X124285846Y-86429657D01*
X124184403Y-86367086D01*
X124137678Y-86315138D01*
X124125500Y-86261548D01*
X124125500Y-76974500D01*
X124145185Y-76907461D01*
X124197989Y-76861706D01*
X124249500Y-76850500D01*
X125450500Y-76850500D01*
X125517539Y-76870185D01*
X125563294Y-76922989D01*
X125574500Y-76974500D01*
X125574500Y-78486232D01*
X125554815Y-78553271D01*
X125515598Y-78591769D01*
X125419923Y-78650781D01*
X125368842Y-78682289D01*
X125244789Y-78806342D01*
X125152687Y-78955663D01*
X125152685Y-78955668D01*
X125136464Y-79004620D01*
X125097501Y-79122203D01*
X125097501Y-79122204D01*
X125097500Y-79122204D01*
X125087000Y-79224983D01*
X125087000Y-80275001D01*
X125087001Y-80275019D01*
X125097500Y-80377796D01*
X125097501Y-80377799D01*
X125152685Y-80544331D01*
X125152687Y-80544336D01*
X125162657Y-80560500D01*
X125244788Y-80693656D01*
X125368844Y-80817712D01*
X125518166Y-80909814D01*
X125684703Y-80964999D01*
X125787491Y-80975500D01*
X126562508Y-80975499D01*
X126562516Y-80975498D01*
X126562519Y-80975498D01*
X126618802Y-80969748D01*
X126665297Y-80964999D01*
X126831834Y-80909814D01*
X126981156Y-80817712D01*
X127105212Y-80693656D01*
X127107252Y-80690347D01*
X127109245Y-80688555D01*
X127109693Y-80687989D01*
X127109789Y-80688065D01*
X127159194Y-80643623D01*
X127228156Y-80632395D01*
X127292240Y-80660234D01*
X127318329Y-80690339D01*
X127320181Y-80693341D01*
X127320183Y-80693344D01*
X127444154Y-80817315D01*
X127593375Y-80909356D01*
X127593380Y-80909358D01*
X127759802Y-80964505D01*
X127759809Y-80964506D01*
X127862519Y-80974999D01*
X127999999Y-80974999D01*
X128500000Y-80974999D01*
X128637472Y-80974999D01*
X128637486Y-80974998D01*
X128740197Y-80964505D01*
X128906619Y-80909358D01*
X128906624Y-80909356D01*
X129055845Y-80817315D01*
X129179815Y-80693345D01*
X129271856Y-80544124D01*
X129271858Y-80544119D01*
X129327005Y-80377697D01*
X129327006Y-80377690D01*
X129337499Y-80274986D01*
X129337500Y-80274973D01*
X129337500Y-80000000D01*
X128500000Y-80000000D01*
X128500000Y-80974999D01*
X127999999Y-80974999D01*
X128000000Y-80974998D01*
X128000000Y-79999997D01*
X135945034Y-79999997D01*
X135945034Y-80000000D01*
X135964858Y-80226599D01*
X135964860Y-80226610D01*
X136023730Y-80446317D01*
X136023735Y-80446331D01*
X136119863Y-80652478D01*
X136170974Y-80725472D01*
X136850000Y-80046446D01*
X136850000Y-80052661D01*
X136877259Y-80154394D01*
X136929920Y-80245606D01*
X137004394Y-80320080D01*
X137095606Y-80372741D01*
X137197339Y-80400000D01*
X137203553Y-80400000D01*
X136524526Y-81079025D01*
X136597513Y-81130132D01*
X136597521Y-81130136D01*
X136803668Y-81226264D01*
X136803682Y-81226269D01*
X137023389Y-81285139D01*
X137023400Y-81285141D01*
X137249998Y-81304966D01*
X137250002Y-81304966D01*
X137476599Y-81285141D01*
X137476610Y-81285139D01*
X137696317Y-81226269D01*
X137696331Y-81226264D01*
X137902478Y-81130136D01*
X137975471Y-81079024D01*
X137296447Y-80400000D01*
X137302661Y-80400000D01*
X137404394Y-80372741D01*
X137495606Y-80320080D01*
X137570080Y-80245606D01*
X137622741Y-80154394D01*
X137650000Y-80052661D01*
X137650000Y-80046447D01*
X138329024Y-80725471D01*
X138380136Y-80652478D01*
X138476264Y-80446331D01*
X138476269Y-80446317D01*
X138535139Y-80226610D01*
X138535141Y-80226599D01*
X138554966Y-80000000D01*
X138554966Y-79999997D01*
X138535141Y-79773400D01*
X138535139Y-79773389D01*
X138476269Y-79553682D01*
X138476264Y-79553668D01*
X138380136Y-79347521D01*
X138380132Y-79347513D01*
X138329025Y-79274526D01*
X137650000Y-79953551D01*
X137650000Y-79947339D01*
X137622741Y-79845606D01*
X137570080Y-79754394D01*
X137495606Y-79679920D01*
X137404394Y-79627259D01*
X137302661Y-79600000D01*
X137296448Y-79600000D01*
X137975472Y-78920974D01*
X137902478Y-78869863D01*
X137696331Y-78773735D01*
X137696317Y-78773730D01*
X137476610Y-78714860D01*
X137476599Y-78714858D01*
X137250002Y-78695034D01*
X137249998Y-78695034D01*
X137023400Y-78714858D01*
X137023389Y-78714860D01*
X136803682Y-78773730D01*
X136803673Y-78773734D01*
X136597516Y-78869866D01*
X136597512Y-78869868D01*
X136524526Y-78920973D01*
X136524526Y-78920974D01*
X137203553Y-79600000D01*
X137197339Y-79600000D01*
X137095606Y-79627259D01*
X137004394Y-79679920D01*
X136929920Y-79754394D01*
X136877259Y-79845606D01*
X136850000Y-79947339D01*
X136850000Y-79953552D01*
X136170974Y-79274526D01*
X136170973Y-79274526D01*
X136119868Y-79347512D01*
X136119866Y-79347516D01*
X136023734Y-79553673D01*
X136023730Y-79553682D01*
X135964860Y-79773389D01*
X135964858Y-79773400D01*
X135945034Y-79999997D01*
X128000000Y-79999997D01*
X128000000Y-79500000D01*
X128500000Y-79500000D01*
X129337499Y-79500000D01*
X129337499Y-79225028D01*
X129337498Y-79225013D01*
X129327005Y-79122302D01*
X129271858Y-78955880D01*
X129271856Y-78955875D01*
X129179815Y-78806654D01*
X129055845Y-78682684D01*
X128906624Y-78590643D01*
X128906619Y-78590641D01*
X128740197Y-78535494D01*
X128740190Y-78535493D01*
X128637486Y-78525000D01*
X128500000Y-78525000D01*
X128500000Y-79500000D01*
X128000000Y-79500000D01*
X128000000Y-78525000D01*
X127862527Y-78525000D01*
X127862512Y-78525001D01*
X127759802Y-78535494D01*
X127593380Y-78590641D01*
X127593375Y-78590643D01*
X127444154Y-78682684D01*
X127320183Y-78806655D01*
X127320179Y-78806660D01*
X127318326Y-78809665D01*
X127316518Y-78811290D01*
X127315702Y-78812323D01*
X127315525Y-78812183D01*
X127266374Y-78856385D01*
X127197411Y-78867601D01*
X127133331Y-78839752D01*
X127107253Y-78809653D01*
X127107237Y-78809628D01*
X127105212Y-78806344D01*
X126981156Y-78682288D01*
X126834402Y-78591770D01*
X126787679Y-78539823D01*
X126775500Y-78486232D01*
X126775500Y-76974500D01*
X126795185Y-76907461D01*
X126847989Y-76861706D01*
X126899500Y-76850500D01*
X138124903Y-76850500D01*
X138191942Y-76870185D01*
X138212584Y-76886819D01*
X145688181Y-84362416D01*
X145721666Y-84423739D01*
X145724500Y-84450097D01*
X145724500Y-87225500D01*
X145704815Y-87292539D01*
X145652011Y-87338294D01*
X145600500Y-87349500D01*
X145587272Y-87349500D01*
X145474764Y-87364313D01*
X145474763Y-87364313D01*
X145334770Y-87422300D01*
X145334767Y-87422301D01*
X145334767Y-87422302D01*
X145214549Y-87514549D01*
X145122440Y-87634588D01*
X145122300Y-87634770D01*
X145064313Y-87774763D01*
X145064313Y-87774764D01*
X145049500Y-87887272D01*
X145049500Y-88112727D01*
X145057227Y-88171412D01*
X145062505Y-88211506D01*
X145065374Y-88233292D01*
X145062399Y-88233683D01*
X145062399Y-88266316D01*
X145065374Y-88266708D01*
X145049500Y-88387272D01*
X145049500Y-88612727D01*
X145065374Y-88733292D01*
X145062399Y-88733683D01*
X145062399Y-88766316D01*
X145065374Y-88766708D01*
X145064313Y-88774762D01*
X145064313Y-88774764D01*
X145062625Y-88787584D01*
X145049500Y-88887272D01*
X145049500Y-89112720D01*
X145065374Y-89233292D01*
X145062399Y-89233683D01*
X145062399Y-89266316D01*
X145065374Y-89266708D01*
X145049500Y-89387272D01*
X145049500Y-89612727D01*
X145057165Y-89670943D01*
X145063142Y-89716344D01*
X145065374Y-89733292D01*
X145062399Y-89733683D01*
X145062399Y-89766316D01*
X145065374Y-89766708D01*
X145049500Y-89887272D01*
X145049500Y-90112727D01*
X145065374Y-90233292D01*
X145062399Y-90233683D01*
X145062399Y-90266318D01*
X145065374Y-90266710D01*
X145062085Y-90291688D01*
X145033817Y-90355584D01*
X144975491Y-90394054D01*
X144939146Y-90399500D01*
X142050097Y-90399500D01*
X141983058Y-90379815D01*
X141962416Y-90363181D01*
X137905516Y-86306281D01*
X137872031Y-86244958D01*
X137877015Y-86175266D01*
X137918887Y-86119333D01*
X137922016Y-86117066D01*
X138089139Y-86000047D01*
X138250047Y-85839139D01*
X138380568Y-85652734D01*
X138476739Y-85446496D01*
X138535635Y-85226692D01*
X138555468Y-85000000D01*
X138535635Y-84773308D01*
X138476739Y-84553504D01*
X138380568Y-84347266D01*
X138250047Y-84160861D01*
X138250045Y-84160858D01*
X138089141Y-83999954D01*
X137902734Y-83869432D01*
X137902732Y-83869431D01*
X137696497Y-83773261D01*
X137696488Y-83773258D01*
X137476697Y-83714366D01*
X137476693Y-83714365D01*
X137476692Y-83714365D01*
X137476691Y-83714364D01*
X137476686Y-83714364D01*
X137250002Y-83694532D01*
X137249998Y-83694532D01*
X137023313Y-83714364D01*
X137023302Y-83714366D01*
X136803511Y-83773258D01*
X136803502Y-83773261D01*
X136597267Y-83869431D01*
X136597265Y-83869432D01*
X136410858Y-83999954D01*
X136249954Y-84160858D01*
X136119432Y-84347265D01*
X136119431Y-84347267D01*
X136023261Y-84553502D01*
X136023258Y-84553511D01*
X135964366Y-84773302D01*
X135964364Y-84773313D01*
X135944532Y-84999998D01*
X135944532Y-85000001D01*
X135964364Y-85226686D01*
X135964366Y-85226697D01*
X136023258Y-85446488D01*
X136023261Y-85446497D01*
X136119431Y-85652732D01*
X136119432Y-85652734D01*
X136249954Y-85839141D01*
X136410858Y-86000045D01*
X136410861Y-86000047D01*
X136596624Y-86130118D01*
X136640248Y-86184693D01*
X136649500Y-86231692D01*
X136649500Y-86413330D01*
X136649499Y-86413348D01*
X136649499Y-86579054D01*
X136649498Y-86579054D01*
X136690423Y-86731785D01*
X136719358Y-86781900D01*
X136719359Y-86781904D01*
X136719360Y-86781904D01*
X136769479Y-86868714D01*
X136769481Y-86868717D01*
X136888349Y-86987585D01*
X136888355Y-86987590D01*
X141265139Y-91364374D01*
X141265149Y-91364385D01*
X141269479Y-91368715D01*
X141269480Y-91368716D01*
X141381284Y-91480520D01*
X141409826Y-91496998D01*
X141468095Y-91530639D01*
X141468097Y-91530641D01*
X141518212Y-91559576D01*
X141518214Y-91559576D01*
X141518215Y-91559577D01*
X141575879Y-91575028D01*
X141635539Y-91611394D01*
X141666068Y-91674241D01*
X141657773Y-91743616D01*
X141613287Y-91797494D01*
X141609758Y-91799796D01*
X141497739Y-91870182D01*
X141370184Y-91997737D01*
X141274211Y-92150476D01*
X141214631Y-92320745D01*
X141214630Y-92320750D01*
X141194435Y-92499996D01*
X141194435Y-92500003D01*
X141214630Y-92679249D01*
X141214631Y-92679254D01*
X141274211Y-92849523D01*
X141340747Y-92955413D01*
X141370184Y-93002262D01*
X141497738Y-93129816D01*
X141539354Y-93155965D01*
X141562496Y-93170506D01*
X141608787Y-93222841D01*
X141619435Y-93291894D01*
X141591060Y-93355743D01*
X141532670Y-93394115D01*
X141496524Y-93399500D01*
X139686670Y-93399500D01*
X139686654Y-93399499D01*
X139679058Y-93399499D01*
X139520943Y-93399499D01*
X139444579Y-93419961D01*
X139368214Y-93440423D01*
X139368209Y-93440426D01*
X139231290Y-93519475D01*
X139231282Y-93519481D01*
X139042705Y-93708058D01*
X138981382Y-93741543D01*
X138922931Y-93740152D01*
X138826697Y-93714366D01*
X138826693Y-93714365D01*
X138826692Y-93714365D01*
X138826691Y-93714364D01*
X138826686Y-93714364D01*
X138600002Y-93694532D01*
X138599998Y-93694532D01*
X138373313Y-93714364D01*
X138373302Y-93714366D01*
X138153511Y-93773258D01*
X138153502Y-93773261D01*
X137947267Y-93869431D01*
X137947265Y-93869432D01*
X137760858Y-93999954D01*
X137599954Y-94160858D01*
X137469432Y-94347265D01*
X137469431Y-94347267D01*
X137373261Y-94553502D01*
X137373258Y-94553511D01*
X137314366Y-94773302D01*
X137314364Y-94773313D01*
X137294532Y-94999998D01*
X137294532Y-95000001D01*
X137314364Y-95226686D01*
X137314366Y-95226697D01*
X137373258Y-95446488D01*
X137373261Y-95446497D01*
X137469431Y-95652732D01*
X137469432Y-95652734D01*
X137599954Y-95839141D01*
X137760858Y-96000045D01*
X137760861Y-96000047D01*
X137947266Y-96130568D01*
X138153504Y-96226739D01*
X138373308Y-96285635D01*
X138535230Y-96299801D01*
X138599998Y-96305468D01*
X138600000Y-96305468D01*
X138600002Y-96305468D01*
X138656673Y-96300509D01*
X138826692Y-96285635D01*
X139046496Y-96226739D01*
X139252734Y-96130568D01*
X139439139Y-96000047D01*
X139600047Y-95839139D01*
X139730568Y-95652734D01*
X139826739Y-95446496D01*
X139885635Y-95226692D01*
X139905468Y-95000000D01*
X139885635Y-94773308D01*
X139881156Y-94756592D01*
X139882819Y-94686744D01*
X139921981Y-94628882D01*
X139986209Y-94601377D01*
X140000931Y-94600500D01*
X141025500Y-94600500D01*
X141092539Y-94620185D01*
X141138294Y-94672989D01*
X141149500Y-94724500D01*
X141149500Y-95417587D01*
X141129815Y-95484626D01*
X141122450Y-95494896D01*
X141120186Y-95497734D01*
X141024211Y-95650476D01*
X140964631Y-95820745D01*
X140964630Y-95820750D01*
X140944435Y-95999996D01*
X140944435Y-96000003D01*
X140964630Y-96179249D01*
X140964631Y-96179254D01*
X141024211Y-96349523D01*
X141065553Y-96415318D01*
X141120184Y-96502262D01*
X141247738Y-96629816D01*
X141400478Y-96725789D01*
X141570745Y-96785368D01*
X141570750Y-96785369D01*
X141749996Y-96805565D01*
X141750000Y-96805565D01*
X141750004Y-96805565D01*
X141929249Y-96785369D01*
X141929252Y-96785368D01*
X141929255Y-96785368D01*
X142099522Y-96725789D01*
X142252262Y-96629816D01*
X142379816Y-96502262D01*
X142475789Y-96349522D01*
X142507958Y-96257587D01*
X142548680Y-96200812D01*
X142613633Y-96175065D01*
X142682194Y-96188521D01*
X142732597Y-96236908D01*
X142742042Y-96257588D01*
X142774211Y-96349523D01*
X142815553Y-96415318D01*
X142870184Y-96502262D01*
X142997738Y-96629816D01*
X143150478Y-96725789D01*
X143320745Y-96785368D01*
X143320750Y-96785369D01*
X143499996Y-96805565D01*
X143500000Y-96805565D01*
X143500004Y-96805565D01*
X143679249Y-96785369D01*
X143679252Y-96785368D01*
X143679255Y-96785368D01*
X143849522Y-96725789D01*
X144002262Y-96629816D01*
X144129816Y-96502262D01*
X144225789Y-96349522D01*
X144285368Y-96179255D01*
X144290760Y-96131401D01*
X144305565Y-96000003D01*
X144305565Y-95999996D01*
X144285369Y-95820750D01*
X144285366Y-95820737D01*
X144266022Y-95765455D01*
X144262460Y-95695676D01*
X144297188Y-95635049D01*
X144359182Y-95602821D01*
X144383063Y-95600500D01*
X144939146Y-95600500D01*
X145006185Y-95620185D01*
X145051940Y-95672989D01*
X145062085Y-95708313D01*
X145064313Y-95725235D01*
X145064313Y-95725236D01*
X145120341Y-95860500D01*
X145122302Y-95865233D01*
X145214549Y-95985451D01*
X145334767Y-96077698D01*
X145474764Y-96135687D01*
X145587280Y-96150500D01*
X145833312Y-96150500D01*
X145900351Y-96170185D01*
X145946106Y-96222989D01*
X145956050Y-96292147D01*
X145927025Y-96355703D01*
X145920993Y-96362181D01*
X137219994Y-105063181D01*
X137158671Y-105096666D01*
X137132313Y-105099500D01*
X132449057Y-105099500D01*
X132290942Y-105099500D01*
X132138215Y-105140423D01*
X132138214Y-105140423D01*
X132138212Y-105140424D01*
X132138209Y-105140425D01*
X132088096Y-105169359D01*
X132088095Y-105169360D01*
X132044689Y-105194420D01*
X132001285Y-105219479D01*
X132001282Y-105219481D01*
X131889480Y-105331284D01*
X131889478Y-105331286D01*
X131776232Y-105444532D01*
X131721881Y-105498883D01*
X131660558Y-105532367D01*
X131602108Y-105530976D01*
X131537984Y-105513795D01*
X131537986Y-105513795D01*
X131537977Y-105513793D01*
X131537973Y-105513792D01*
X131537970Y-105513792D01*
X131320002Y-105494723D01*
X131319998Y-105494723D01*
X131174682Y-105507436D01*
X131102023Y-105513793D01*
X131102020Y-105513793D01*
X130890677Y-105570422D01*
X130890668Y-105570426D01*
X130692361Y-105662898D01*
X130692357Y-105662900D01*
X130513121Y-105788402D01*
X130358402Y-105943121D01*
X130250920Y-106096623D01*
X130196343Y-106140248D01*
X130149345Y-106149500D01*
X125481692Y-106149500D01*
X125414653Y-106129815D01*
X125380119Y-106096625D01*
X125250047Y-105910861D01*
X125250045Y-105910858D01*
X125089141Y-105749954D01*
X124902734Y-105619432D01*
X124902732Y-105619431D01*
X124696497Y-105523261D01*
X124696488Y-105523258D01*
X124476697Y-105464366D01*
X124476693Y-105464365D01*
X124476692Y-105464365D01*
X124476691Y-105464364D01*
X124476686Y-105464364D01*
X124250002Y-105444532D01*
X124249998Y-105444532D01*
X124023313Y-105464364D01*
X124023302Y-105464366D01*
X123803511Y-105523258D01*
X123803502Y-105523261D01*
X123597267Y-105619431D01*
X123597265Y-105619432D01*
X123410858Y-105749954D01*
X123249954Y-105910858D01*
X123119432Y-106097265D01*
X123119431Y-106097267D01*
X123023261Y-106303502D01*
X123023258Y-106303511D01*
X122964366Y-106523302D01*
X122964364Y-106523313D01*
X122944532Y-106749998D01*
X122944532Y-106750001D01*
X122964364Y-106976686D01*
X122964366Y-106976697D01*
X123023258Y-107196488D01*
X123023261Y-107196497D01*
X123119431Y-107402732D01*
X123119432Y-107402734D01*
X123249954Y-107589141D01*
X123410858Y-107750045D01*
X123410861Y-107750047D01*
X123597266Y-107880568D01*
X123803504Y-107976739D01*
X123803509Y-107976740D01*
X123803511Y-107976741D01*
X123838839Y-107986207D01*
X124023308Y-108035635D01*
X124185230Y-108049801D01*
X124249998Y-108055468D01*
X124250000Y-108055468D01*
X124250002Y-108055468D01*
X124306673Y-108050509D01*
X124476692Y-108035635D01*
X124696496Y-107976739D01*
X124902734Y-107880568D01*
X125089139Y-107750047D01*
X125250047Y-107589139D01*
X125380118Y-107403375D01*
X125434693Y-107359752D01*
X125481692Y-107350500D01*
X130149345Y-107350500D01*
X130216384Y-107370185D01*
X130250917Y-107403373D01*
X130358402Y-107556877D01*
X130513123Y-107711598D01*
X130692361Y-107837102D01*
X130890670Y-107929575D01*
X131102023Y-107986207D01*
X131284926Y-108002208D01*
X131319998Y-108005277D01*
X131320000Y-108005277D01*
X131320002Y-108005277D01*
X131348254Y-108002805D01*
X131537977Y-107986207D01*
X131749330Y-107929575D01*
X131947639Y-107837102D01*
X132126877Y-107711598D01*
X132281598Y-107556877D01*
X132407102Y-107377639D01*
X132499575Y-107179330D01*
X132556207Y-106967977D01*
X132575277Y-106750000D01*
X132556207Y-106532023D01*
X132539023Y-106467891D01*
X132540686Y-106398043D01*
X132571121Y-106348114D01*
X132582421Y-106336815D01*
X132643745Y-106303333D01*
X132670098Y-106300500D01*
X134864229Y-106300500D01*
X134931268Y-106320185D01*
X134977023Y-106372989D01*
X134986967Y-106442147D01*
X134984004Y-106456593D01*
X134963793Y-106532020D01*
X134963793Y-106532024D01*
X134944723Y-106749997D01*
X134944723Y-106750002D01*
X134963793Y-106967975D01*
X134963793Y-106967979D01*
X135020422Y-107179322D01*
X135020424Y-107179326D01*
X135020425Y-107179330D01*
X135066661Y-107278484D01*
X135112897Y-107377638D01*
X135112898Y-107377639D01*
X135238402Y-107556877D01*
X135393123Y-107711598D01*
X135572361Y-107837102D01*
X135770670Y-107929575D01*
X135982023Y-107986207D01*
X136164926Y-108002208D01*
X136199998Y-108005277D01*
X136200000Y-108005277D01*
X136200002Y-108005277D01*
X136228254Y-108002805D01*
X136417977Y-107986207D01*
X136629330Y-107929575D01*
X136827639Y-107837102D01*
X137006877Y-107711598D01*
X137161598Y-107556877D01*
X137269081Y-107403374D01*
X137323657Y-107359751D01*
X137370655Y-107350500D01*
X141018308Y-107350500D01*
X141085347Y-107370185D01*
X141119880Y-107403374D01*
X141205480Y-107525624D01*
X141249954Y-107589141D01*
X141410858Y-107750045D01*
X141410861Y-107750047D01*
X141597266Y-107880568D01*
X141803504Y-107976739D01*
X141803509Y-107976740D01*
X141803511Y-107976741D01*
X141838839Y-107986207D01*
X142023308Y-108035635D01*
X142185230Y-108049801D01*
X142249998Y-108055468D01*
X142250000Y-108055468D01*
X142250002Y-108055468D01*
X142306673Y-108050509D01*
X142476692Y-108035635D01*
X142696496Y-107976739D01*
X142902734Y-107880568D01*
X143089139Y-107750047D01*
X143250047Y-107589139D01*
X143380568Y-107402734D01*
X143476739Y-107196496D01*
X143535635Y-106976692D01*
X143555468Y-106750000D01*
X143535635Y-106523308D01*
X143476739Y-106303504D01*
X143380568Y-106097266D01*
X143272637Y-105943123D01*
X143250045Y-105910858D01*
X143089140Y-105749953D01*
X142903377Y-105619881D01*
X142859752Y-105565304D01*
X142850500Y-105518306D01*
X142850500Y-102417687D01*
X142870185Y-102350648D01*
X142886819Y-102330006D01*
X147387819Y-97829006D01*
X147449142Y-97795521D01*
X147518834Y-97800505D01*
X147574767Y-97842377D01*
X147599184Y-97907841D01*
X147599500Y-97916687D01*
X147599500Y-98162727D01*
X147614313Y-98275235D01*
X147614313Y-98275236D01*
X147654348Y-98371890D01*
X147672302Y-98415233D01*
X147764549Y-98535451D01*
X147884767Y-98627698D01*
X148024764Y-98685687D01*
X148131586Y-98699750D01*
X148137264Y-98700498D01*
X148137280Y-98700500D01*
X148137287Y-98700500D01*
X148362713Y-98700500D01*
X148362720Y-98700500D01*
X148475236Y-98685687D01*
X148475236Y-98685686D01*
X148483295Y-98684626D01*
X148483530Y-98686418D01*
X148517269Y-98684195D01*
X148599999Y-98695086D01*
X148602155Y-98693195D01*
X148619685Y-98633497D01*
X148648512Y-98602161D01*
X148674515Y-98582208D01*
X148739684Y-98557016D01*
X148808129Y-98571055D01*
X148825484Y-98582208D01*
X148851486Y-98602160D01*
X148892689Y-98658587D01*
X148898878Y-98694102D01*
X148900000Y-98695086D01*
X148982730Y-98684195D01*
X149016469Y-98686415D01*
X149016705Y-98684626D01*
X149024763Y-98685686D01*
X149024764Y-98685687D01*
X149137280Y-98700500D01*
X149137287Y-98700500D01*
X149362713Y-98700500D01*
X149362720Y-98700500D01*
X149475236Y-98685687D01*
X149475236Y-98685686D01*
X149483295Y-98684626D01*
X149483698Y-98687689D01*
X149516302Y-98687689D01*
X149516705Y-98684626D01*
X149524763Y-98685686D01*
X149524764Y-98685687D01*
X149637280Y-98700500D01*
X149637287Y-98700500D01*
X149862713Y-98700500D01*
X149862720Y-98700500D01*
X149975236Y-98685687D01*
X149975236Y-98685686D01*
X149983295Y-98684626D01*
X149983698Y-98687689D01*
X150016299Y-98687689D01*
X150016702Y-98684625D01*
X150024761Y-98685685D01*
X150024764Y-98685687D01*
X150041686Y-98687914D01*
X150105579Y-98716178D01*
X150144052Y-98774502D01*
X150149500Y-98810853D01*
X150149500Y-100170943D01*
X150149500Y-100329057D01*
X150177024Y-100431776D01*
X150190423Y-100481783D01*
X150190426Y-100481790D01*
X150269475Y-100618709D01*
X150269478Y-100618713D01*
X150269480Y-100618716D01*
X150381284Y-100730520D01*
X150381286Y-100730521D01*
X150381290Y-100730524D01*
X150518209Y-100809573D01*
X150518216Y-100809577D01*
X150670943Y-100850500D01*
X177263331Y-100850500D01*
X177263347Y-100850501D01*
X177270943Y-100850501D01*
X177429054Y-100850501D01*
X177429057Y-100850501D01*
X177581785Y-100809577D01*
X177631904Y-100780639D01*
X177718716Y-100730520D01*
X177830520Y-100618716D01*
X177830520Y-100618714D01*
X177840728Y-100608507D01*
X177840729Y-100608504D01*
X180012416Y-98436819D01*
X180073739Y-98403334D01*
X180100097Y-98400500D01*
X183025501Y-98400500D01*
X183092540Y-98420185D01*
X183138295Y-98472989D01*
X183149501Y-98524500D01*
X183149501Y-98697876D01*
X183155908Y-98757483D01*
X183206202Y-98892328D01*
X183206206Y-98892335D01*
X183292452Y-99007544D01*
X183292455Y-99007547D01*
X183407664Y-99093793D01*
X183407671Y-99093797D01*
X183542517Y-99144091D01*
X183542516Y-99144091D01*
X183549444Y-99144835D01*
X183602127Y-99150500D01*
X185397872Y-99150499D01*
X185457483Y-99144091D01*
X185592331Y-99093796D01*
X185707546Y-99007546D01*
X185793796Y-98892331D01*
X185844091Y-98757483D01*
X185850500Y-98697873D01*
X185850499Y-96902128D01*
X185844091Y-96842517D01*
X185822776Y-96785369D01*
X185793797Y-96707671D01*
X185793793Y-96707664D01*
X185707547Y-96592455D01*
X185707544Y-96592452D01*
X185592335Y-96506206D01*
X185592328Y-96506202D01*
X185460917Y-96457189D01*
X185404983Y-96415318D01*
X185380566Y-96349853D01*
X185395418Y-96281580D01*
X185416563Y-96253332D01*
X185538495Y-96131401D01*
X185674035Y-95937830D01*
X185773903Y-95723663D01*
X185835063Y-95495408D01*
X185855659Y-95260000D01*
X185835063Y-95024592D01*
X185773903Y-94796337D01*
X185674035Y-94582171D01*
X185674034Y-94582169D01*
X185538494Y-94388597D01*
X185371402Y-94221506D01*
X185371396Y-94221501D01*
X185185842Y-94091575D01*
X185142217Y-94036998D01*
X185135023Y-93967500D01*
X185166546Y-93905145D01*
X185185842Y-93888425D01*
X185348166Y-93774764D01*
X185371401Y-93758495D01*
X185538495Y-93591401D01*
X185674035Y-93397830D01*
X185773903Y-93183663D01*
X185835063Y-92955408D01*
X185855659Y-92720000D01*
X185835063Y-92484592D01*
X185788626Y-92311285D01*
X185773905Y-92256344D01*
X185773904Y-92256343D01*
X185773903Y-92256337D01*
X185674035Y-92042171D01*
X185662298Y-92025408D01*
X185538494Y-91848597D01*
X185371402Y-91681506D01*
X185371396Y-91681501D01*
X185185842Y-91551575D01*
X185142217Y-91496998D01*
X185135023Y-91427500D01*
X185166546Y-91365145D01*
X185185842Y-91348425D01*
X185266872Y-91291687D01*
X185371401Y-91218495D01*
X185538495Y-91051401D01*
X185674035Y-90857830D01*
X185773903Y-90643663D01*
X185835063Y-90415408D01*
X185855659Y-90180000D01*
X185835063Y-89944592D01*
X185778446Y-89733292D01*
X185773905Y-89716344D01*
X185773904Y-89716343D01*
X185773903Y-89716337D01*
X185674035Y-89502171D01*
X185674034Y-89502169D01*
X185538494Y-89308597D01*
X185371402Y-89141506D01*
X185371395Y-89141501D01*
X185177834Y-89005967D01*
X185177830Y-89005965D01*
X185177828Y-89005964D01*
X184963663Y-88906097D01*
X184963659Y-88906096D01*
X184963655Y-88906094D01*
X184735413Y-88844938D01*
X184735403Y-88844936D01*
X184500001Y-88824341D01*
X184499999Y-88824341D01*
X184264596Y-88844936D01*
X184264586Y-88844938D01*
X184036344Y-88906094D01*
X184036335Y-88906098D01*
X183822171Y-89005964D01*
X183822169Y-89005965D01*
X183628597Y-89141505D01*
X183461506Y-89308596D01*
X183325965Y-89502170D01*
X183325962Y-89502175D01*
X183323289Y-89507909D01*
X183277115Y-89560346D01*
X183210909Y-89579500D01*
X178656670Y-89579500D01*
X178656654Y-89579499D01*
X178649058Y-89579499D01*
X178490943Y-89579499D01*
X178414579Y-89599961D01*
X178338214Y-89620423D01*
X178338209Y-89620426D01*
X178201290Y-89699475D01*
X178201282Y-89699481D01*
X176537584Y-91363181D01*
X176476261Y-91396666D01*
X176449903Y-91399500D01*
X159060854Y-91399500D01*
X158993815Y-91379815D01*
X158948060Y-91327011D01*
X158937915Y-91291687D01*
X158934626Y-91266707D01*
X158937689Y-91266303D01*
X158937689Y-91233698D01*
X158934626Y-91233295D01*
X158936575Y-91218493D01*
X158950500Y-91112720D01*
X158950500Y-90887280D01*
X158935687Y-90774764D01*
X158935686Y-90774763D01*
X158934626Y-90766705D01*
X158937689Y-90766301D01*
X158937689Y-90733698D01*
X158934626Y-90733295D01*
X158946427Y-90643655D01*
X158950500Y-90612720D01*
X158950500Y-90387280D01*
X158935687Y-90274764D01*
X158935686Y-90274763D01*
X158934626Y-90266705D01*
X158937689Y-90266301D01*
X158937689Y-90233698D01*
X158934626Y-90233295D01*
X158941642Y-90180000D01*
X158950500Y-90112720D01*
X158950500Y-89887280D01*
X158935687Y-89774764D01*
X158935686Y-89774763D01*
X158934626Y-89766705D01*
X158937689Y-89766301D01*
X158937689Y-89733696D01*
X158934626Y-89733293D01*
X158937915Y-89708313D01*
X158966182Y-89644417D01*
X159024507Y-89605947D01*
X159060854Y-89600500D01*
X161913331Y-89600500D01*
X161913347Y-89600501D01*
X161920943Y-89600501D01*
X162079054Y-89600501D01*
X162079057Y-89600501D01*
X162231785Y-89559577D01*
X162301233Y-89519481D01*
X162368716Y-89480520D01*
X162480520Y-89368716D01*
X162480520Y-89368714D01*
X162490724Y-89358511D01*
X162490728Y-89358506D01*
X162508506Y-89340728D01*
X162508511Y-89340724D01*
X162518714Y-89330520D01*
X162518716Y-89330520D01*
X162630520Y-89218716D01*
X162633482Y-89213585D01*
X162691707Y-89112737D01*
X162691710Y-89112728D01*
X162691716Y-89112720D01*
X162709577Y-89081785D01*
X162750501Y-88929057D01*
X162750501Y-88770943D01*
X162750501Y-88763348D01*
X162750500Y-88763330D01*
X162750500Y-86749999D01*
X165364364Y-86749999D01*
X165364364Y-86750000D01*
X166261988Y-86750000D01*
X166229075Y-86807007D01*
X166195000Y-86934174D01*
X166195000Y-87065826D01*
X166229075Y-87192993D01*
X166261988Y-87250000D01*
X165364364Y-87250000D01*
X165421567Y-87463486D01*
X165421570Y-87463492D01*
X165521399Y-87677578D01*
X165656894Y-87871082D01*
X165823917Y-88038105D01*
X166017421Y-88173600D01*
X166231507Y-88273429D01*
X166231516Y-88273433D01*
X166445000Y-88330634D01*
X166445000Y-87433012D01*
X166502007Y-87465925D01*
X166629174Y-87500000D01*
X166760826Y-87500000D01*
X166887993Y-87465925D01*
X166945000Y-87433012D01*
X166945000Y-88330633D01*
X167158483Y-88273433D01*
X167158492Y-88273429D01*
X167372578Y-88173600D01*
X167566082Y-88038105D01*
X167733105Y-87871082D01*
X167863119Y-87685405D01*
X167917696Y-87641781D01*
X167987195Y-87634588D01*
X168049549Y-87666110D01*
X168066269Y-87685405D01*
X168196505Y-87871401D01*
X168363599Y-88038495D01*
X168460384Y-88106265D01*
X168557165Y-88174032D01*
X168557167Y-88174033D01*
X168557170Y-88174035D01*
X168771337Y-88273903D01*
X168771343Y-88273904D01*
X168771344Y-88273905D01*
X168826285Y-88288626D01*
X168999592Y-88335063D01*
X169176034Y-88350500D01*
X169234999Y-88355659D01*
X169235000Y-88355659D01*
X169235001Y-88355659D01*
X169293966Y-88350500D01*
X169470408Y-88335063D01*
X169698663Y-88273903D01*
X169912830Y-88174035D01*
X170106401Y-88038495D01*
X170228329Y-87916566D01*
X170289648Y-87883084D01*
X170359340Y-87888068D01*
X170415274Y-87929939D01*
X170432189Y-87960917D01*
X170481202Y-88092328D01*
X170481206Y-88092335D01*
X170567452Y-88207544D01*
X170567455Y-88207547D01*
X170682664Y-88293793D01*
X170682671Y-88293797D01*
X170817517Y-88344091D01*
X170817516Y-88344091D01*
X170824444Y-88344835D01*
X170877127Y-88350500D01*
X172672872Y-88350499D01*
X172732483Y-88344091D01*
X172867331Y-88293796D01*
X172982546Y-88207546D01*
X173068796Y-88092331D01*
X173119091Y-87957483D01*
X173125500Y-87897873D01*
X173125499Y-86102128D01*
X173119091Y-86042517D01*
X173117810Y-86039083D01*
X173068797Y-85907671D01*
X173068793Y-85907664D01*
X172982547Y-85792455D01*
X172982544Y-85792452D01*
X172867335Y-85706206D01*
X172867328Y-85706202D01*
X172732482Y-85655908D01*
X172732483Y-85655908D01*
X172672883Y-85649501D01*
X172672881Y-85649500D01*
X172672873Y-85649500D01*
X172672864Y-85649500D01*
X170877129Y-85649500D01*
X170877123Y-85649501D01*
X170817516Y-85655908D01*
X170682671Y-85706202D01*
X170682664Y-85706206D01*
X170567455Y-85792452D01*
X170567452Y-85792455D01*
X170481206Y-85907664D01*
X170481203Y-85907669D01*
X170432189Y-86039083D01*
X170390317Y-86095016D01*
X170324853Y-86119433D01*
X170256580Y-86104581D01*
X170228326Y-86083430D01*
X170106402Y-85961506D01*
X170106395Y-85961501D01*
X169912834Y-85825967D01*
X169912830Y-85825965D01*
X169912828Y-85825964D01*
X169698663Y-85726097D01*
X169698659Y-85726096D01*
X169698655Y-85726094D01*
X169470413Y-85664938D01*
X169470403Y-85664936D01*
X169235001Y-85644341D01*
X169234999Y-85644341D01*
X168999596Y-85664936D01*
X168999586Y-85664938D01*
X168771344Y-85726094D01*
X168771335Y-85726098D01*
X168557171Y-85825964D01*
X168557169Y-85825965D01*
X168363597Y-85961505D01*
X168196508Y-86128594D01*
X168066269Y-86314595D01*
X168011692Y-86358219D01*
X167942193Y-86365412D01*
X167879839Y-86333890D01*
X167863119Y-86314594D01*
X167733113Y-86128926D01*
X167733108Y-86128920D01*
X167566082Y-85961894D01*
X167372578Y-85826399D01*
X167158492Y-85726570D01*
X167158486Y-85726567D01*
X166945000Y-85669364D01*
X166945000Y-86566988D01*
X166887993Y-86534075D01*
X166760826Y-86500000D01*
X166629174Y-86500000D01*
X166502007Y-86534075D01*
X166445000Y-86566988D01*
X166445000Y-85669364D01*
X166444999Y-85669364D01*
X166231513Y-85726567D01*
X166231507Y-85726570D01*
X166017422Y-85826399D01*
X166017420Y-85826400D01*
X165823926Y-85961886D01*
X165823920Y-85961891D01*
X165656891Y-86128920D01*
X165656886Y-86128926D01*
X165521400Y-86322420D01*
X165521399Y-86322422D01*
X165421570Y-86536507D01*
X165421567Y-86536513D01*
X165364364Y-86749999D01*
X162750500Y-86749999D01*
X162750500Y-79624136D01*
X162770185Y-79557097D01*
X162822989Y-79511342D01*
X162892147Y-79501398D01*
X162906582Y-79504358D01*
X163023308Y-79535635D01*
X163185230Y-79549801D01*
X163249998Y-79555468D01*
X163250000Y-79555468D01*
X163250002Y-79555468D01*
X163306673Y-79550509D01*
X163476692Y-79535635D01*
X163696496Y-79476739D01*
X163902734Y-79380568D01*
X164089139Y-79250047D01*
X164250047Y-79089139D01*
X164380568Y-78902734D01*
X164476739Y-78696496D01*
X164535635Y-78476692D01*
X164552634Y-78282384D01*
X164555468Y-78250001D01*
X164555468Y-78249998D01*
X164535635Y-78023313D01*
X164535635Y-78023308D01*
X164476739Y-77803504D01*
X164380568Y-77597266D01*
X164250047Y-77410861D01*
X164250045Y-77410858D01*
X164141322Y-77302135D01*
X168309500Y-77302135D01*
X168309500Y-79197870D01*
X168309501Y-79197876D01*
X168315908Y-79257483D01*
X168366202Y-79392328D01*
X168366206Y-79392335D01*
X168452452Y-79507544D01*
X168452455Y-79507547D01*
X168567664Y-79593793D01*
X168567671Y-79593797D01*
X168702517Y-79644091D01*
X168702516Y-79644091D01*
X168709444Y-79644835D01*
X168762127Y-79650500D01*
X170657872Y-79650499D01*
X170717483Y-79644091D01*
X170852331Y-79593796D01*
X170967546Y-79507546D01*
X171053796Y-79392331D01*
X171058184Y-79380567D01*
X171082455Y-79315493D01*
X171124326Y-79259559D01*
X171189790Y-79235141D01*
X171258063Y-79249992D01*
X171289866Y-79274843D01*
X171297302Y-79282920D01*
X171298215Y-79283912D01*
X171298222Y-79283918D01*
X171481365Y-79426464D01*
X171481371Y-79426468D01*
X171481374Y-79426470D01*
X171685497Y-79536936D01*
X171799487Y-79576068D01*
X171905015Y-79612297D01*
X171905017Y-79612297D01*
X171905019Y-79612298D01*
X172133951Y-79650500D01*
X172133952Y-79650500D01*
X172366048Y-79650500D01*
X172366049Y-79650500D01*
X172594981Y-79612298D01*
X172814503Y-79536936D01*
X173018626Y-79426470D01*
X173201784Y-79283913D01*
X173358979Y-79113153D01*
X173485924Y-78918849D01*
X173579157Y-78706300D01*
X173636134Y-78481305D01*
X173636516Y-78476697D01*
X173655300Y-78250006D01*
X173655300Y-78249993D01*
X173636135Y-78018702D01*
X173636133Y-78018691D01*
X173579157Y-77793699D01*
X173485924Y-77581151D01*
X173358983Y-77386852D01*
X173358980Y-77386849D01*
X173358979Y-77386847D01*
X173201784Y-77216087D01*
X173201779Y-77216083D01*
X173201777Y-77216081D01*
X173018634Y-77073535D01*
X173018628Y-77073531D01*
X172814504Y-76963064D01*
X172814495Y-76963061D01*
X172594984Y-76887702D01*
X172387035Y-76853002D01*
X172366049Y-76849500D01*
X172133951Y-76849500D01*
X172112965Y-76853002D01*
X171905015Y-76887702D01*
X171685504Y-76963061D01*
X171685495Y-76963064D01*
X171481371Y-77073531D01*
X171481365Y-77073535D01*
X171298222Y-77216081D01*
X171298218Y-77216085D01*
X171289866Y-77225158D01*
X171229979Y-77261148D01*
X171160141Y-77259047D01*
X171102525Y-77219522D01*
X171082455Y-77184507D01*
X171053797Y-77107671D01*
X171053793Y-77107664D01*
X170967547Y-76992455D01*
X170967544Y-76992452D01*
X170852335Y-76906206D01*
X170852328Y-76906202D01*
X170717482Y-76855908D01*
X170717483Y-76855908D01*
X170657883Y-76849501D01*
X170657881Y-76849500D01*
X170657873Y-76849500D01*
X170657864Y-76849500D01*
X168762129Y-76849500D01*
X168762123Y-76849501D01*
X168702516Y-76855908D01*
X168567671Y-76906202D01*
X168567664Y-76906206D01*
X168452455Y-76992452D01*
X168452452Y-76992455D01*
X168366206Y-77107664D01*
X168366202Y-77107671D01*
X168315908Y-77242517D01*
X168309501Y-77302116D01*
X168309500Y-77302135D01*
X164141322Y-77302135D01*
X164089141Y-77249954D01*
X163902734Y-77119432D01*
X163902732Y-77119431D01*
X163696497Y-77023261D01*
X163696488Y-77023258D01*
X163476697Y-76964366D01*
X163476693Y-76964365D01*
X163476692Y-76964365D01*
X163476691Y-76964364D01*
X163476686Y-76964364D01*
X163250002Y-76944532D01*
X163249998Y-76944532D01*
X163023313Y-76964364D01*
X163023302Y-76964366D01*
X162906593Y-76995638D01*
X162836743Y-76993975D01*
X162778881Y-76954812D01*
X162751377Y-76890583D01*
X162750500Y-76875863D01*
X162750500Y-75629999D01*
X183394341Y-75629999D01*
X183394341Y-75630000D01*
X183414936Y-75865403D01*
X183414938Y-75865413D01*
X183476094Y-76093655D01*
X183476096Y-76093660D01*
X183476097Y-76093663D01*
X183548998Y-76250000D01*
X183575965Y-76307830D01*
X183575967Y-76307834D01*
X183711501Y-76501395D01*
X183711506Y-76501402D01*
X183878597Y-76668493D01*
X183878603Y-76668498D01*
X184064158Y-76798425D01*
X184107783Y-76853002D01*
X184114977Y-76922500D01*
X184083454Y-76984855D01*
X184064158Y-77001575D01*
X183878597Y-77131505D01*
X183711505Y-77298597D01*
X183575965Y-77492169D01*
X183575964Y-77492171D01*
X183476098Y-77706335D01*
X183476094Y-77706344D01*
X183414938Y-77934586D01*
X183414936Y-77934596D01*
X183394341Y-78169999D01*
X183394341Y-78170000D01*
X183414936Y-78405403D01*
X183414938Y-78405413D01*
X183476094Y-78633655D01*
X183476096Y-78633659D01*
X183476097Y-78633663D01*
X183559408Y-78812323D01*
X183575965Y-78847830D01*
X183575967Y-78847834D01*
X183654780Y-78960390D01*
X183711501Y-79041396D01*
X183711506Y-79041402D01*
X183833818Y-79163714D01*
X183867303Y-79225037D01*
X183862319Y-79294729D01*
X183820447Y-79350662D01*
X183789471Y-79367577D01*
X183657912Y-79416646D01*
X183657906Y-79416649D01*
X183542812Y-79502809D01*
X183542809Y-79502812D01*
X183456649Y-79617906D01*
X183456645Y-79617913D01*
X183406403Y-79752620D01*
X183406401Y-79752627D01*
X183400000Y-79812155D01*
X183400000Y-80460000D01*
X184316988Y-80460000D01*
X184284075Y-80517007D01*
X184250000Y-80644174D01*
X184250000Y-80775826D01*
X184284075Y-80902993D01*
X184316988Y-80960000D01*
X183400000Y-80960000D01*
X183400000Y-81607844D01*
X183406401Y-81667372D01*
X183406403Y-81667379D01*
X183456645Y-81802086D01*
X183456649Y-81802093D01*
X183542809Y-81917187D01*
X183542812Y-81917190D01*
X183657906Y-82003350D01*
X183657913Y-82003354D01*
X183792620Y-82053596D01*
X183792627Y-82053598D01*
X183852155Y-82059999D01*
X183852172Y-82060000D01*
X184500000Y-82060000D01*
X184500000Y-81143012D01*
X184557007Y-81175925D01*
X184684174Y-81210000D01*
X184815826Y-81210000D01*
X184942993Y-81175925D01*
X185000000Y-81143012D01*
X185000000Y-82060000D01*
X185647828Y-82060000D01*
X185647844Y-82059999D01*
X185707372Y-82053598D01*
X185707379Y-82053596D01*
X185842086Y-82003354D01*
X185842093Y-82003350D01*
X185957187Y-81917190D01*
X185957190Y-81917187D01*
X186043350Y-81802093D01*
X186043354Y-81802086D01*
X186093596Y-81667379D01*
X186093598Y-81667372D01*
X186099999Y-81607844D01*
X186100000Y-81607827D01*
X186100000Y-80960000D01*
X185183012Y-80960000D01*
X185215925Y-80902993D01*
X185250000Y-80775826D01*
X185250000Y-80644174D01*
X185215925Y-80517007D01*
X185183012Y-80460000D01*
X186100000Y-80460000D01*
X186100000Y-79812172D01*
X186099999Y-79812155D01*
X186093598Y-79752627D01*
X186093596Y-79752620D01*
X186043354Y-79617913D01*
X186043350Y-79617906D01*
X185957190Y-79502812D01*
X185957187Y-79502809D01*
X185842093Y-79416649D01*
X185842088Y-79416646D01*
X185710528Y-79367577D01*
X185654595Y-79325705D01*
X185630178Y-79260241D01*
X185645030Y-79191968D01*
X185666175Y-79163720D01*
X185788495Y-79041401D01*
X185924035Y-78847830D01*
X186023903Y-78633663D01*
X186085063Y-78405408D01*
X186105659Y-78170000D01*
X186085063Y-77934592D01*
X186023903Y-77706337D01*
X185924035Y-77492171D01*
X185882999Y-77433564D01*
X185788494Y-77298597D01*
X185621402Y-77131506D01*
X185621396Y-77131501D01*
X185435842Y-77001575D01*
X185392217Y-76946998D01*
X185385023Y-76877500D01*
X185416546Y-76815145D01*
X185435842Y-76798425D01*
X185458026Y-76782891D01*
X185621401Y-76668495D01*
X185788495Y-76501401D01*
X185924035Y-76307830D01*
X186023903Y-76093663D01*
X186085063Y-75865408D01*
X186105659Y-75630000D01*
X186104187Y-75613181D01*
X186085063Y-75394596D01*
X186085063Y-75394592D01*
X186023903Y-75166337D01*
X185924035Y-74952171D01*
X185788495Y-74758599D01*
X185788494Y-74758597D01*
X185621402Y-74591506D01*
X185621395Y-74591501D01*
X185427834Y-74455967D01*
X185427830Y-74455965D01*
X185427828Y-74455964D01*
X185213663Y-74356097D01*
X185213659Y-74356096D01*
X185213655Y-74356094D01*
X184985413Y-74294938D01*
X184985403Y-74294936D01*
X184750001Y-74274341D01*
X184749999Y-74274341D01*
X184514596Y-74294936D01*
X184514586Y-74294938D01*
X184286344Y-74356094D01*
X184286335Y-74356098D01*
X184072171Y-74455964D01*
X184072169Y-74455965D01*
X183878597Y-74591505D01*
X183711505Y-74758597D01*
X183575965Y-74952169D01*
X183575964Y-74952171D01*
X183476098Y-75166335D01*
X183476094Y-75166344D01*
X183414938Y-75394586D01*
X183414936Y-75394596D01*
X183394341Y-75629999D01*
X162750500Y-75629999D01*
X162750500Y-68110097D01*
X162770185Y-68043058D01*
X162786819Y-68022416D01*
X166967840Y-63841395D01*
X170379235Y-60429999D01*
X183394341Y-60429999D01*
X183394341Y-60430000D01*
X183414936Y-60665403D01*
X183414938Y-60665413D01*
X183476094Y-60893655D01*
X183476096Y-60893659D01*
X183476097Y-60893663D01*
X183538643Y-61027792D01*
X183575965Y-61107830D01*
X183575967Y-61107834D01*
X183711501Y-61301395D01*
X183711506Y-61301402D01*
X183878597Y-61468493D01*
X183878603Y-61468498D01*
X184064158Y-61598425D01*
X184107783Y-61653002D01*
X184114977Y-61722500D01*
X184083454Y-61784855D01*
X184064158Y-61801575D01*
X183878597Y-61931505D01*
X183711505Y-62098597D01*
X183575965Y-62292169D01*
X183575964Y-62292171D01*
X183476098Y-62506335D01*
X183476094Y-62506344D01*
X183414938Y-62734586D01*
X183414936Y-62734596D01*
X183394341Y-62969999D01*
X183394341Y-62970000D01*
X183414936Y-63205403D01*
X183414938Y-63205413D01*
X183476094Y-63433655D01*
X183476096Y-63433659D01*
X183476097Y-63433663D01*
X183509944Y-63506248D01*
X183575965Y-63647830D01*
X183575967Y-63647834D01*
X183711501Y-63841395D01*
X183711506Y-63841402D01*
X183878597Y-64008493D01*
X183878603Y-64008498D01*
X184064158Y-64138425D01*
X184107783Y-64193002D01*
X184114977Y-64262500D01*
X184083454Y-64324855D01*
X184064158Y-64341575D01*
X183878597Y-64471505D01*
X183711505Y-64638597D01*
X183575965Y-64832169D01*
X183575964Y-64832171D01*
X183476098Y-65046335D01*
X183476094Y-65046344D01*
X183414938Y-65274586D01*
X183414936Y-65274596D01*
X183394341Y-65509999D01*
X183394341Y-65510000D01*
X183414936Y-65745403D01*
X183414938Y-65745413D01*
X183476094Y-65973655D01*
X183476096Y-65973659D01*
X183476097Y-65973663D01*
X183575965Y-66187830D01*
X183575967Y-66187834D01*
X183684281Y-66342521D01*
X183711501Y-66381396D01*
X183711506Y-66381402D01*
X183833430Y-66503326D01*
X183866915Y-66564649D01*
X183861931Y-66634341D01*
X183820059Y-66690274D01*
X183789083Y-66707189D01*
X183657669Y-66756203D01*
X183657664Y-66756206D01*
X183542455Y-66842452D01*
X183542452Y-66842455D01*
X183456206Y-66957664D01*
X183456202Y-66957671D01*
X183405908Y-67092517D01*
X183399501Y-67152116D01*
X183399501Y-67152123D01*
X183399500Y-67152135D01*
X183399500Y-68947870D01*
X183399501Y-68947876D01*
X183405908Y-69007483D01*
X183456202Y-69142328D01*
X183456206Y-69142335D01*
X183542452Y-69257544D01*
X183542455Y-69257547D01*
X183657664Y-69343793D01*
X183657671Y-69343797D01*
X183792517Y-69394091D01*
X183792516Y-69394091D01*
X183799444Y-69394835D01*
X183852127Y-69400500D01*
X185647872Y-69400499D01*
X185707483Y-69394091D01*
X185842331Y-69343796D01*
X185957546Y-69257546D01*
X186043796Y-69142331D01*
X186094091Y-69007483D01*
X186100500Y-68947873D01*
X186100499Y-67152128D01*
X186094091Y-67092517D01*
X186043796Y-66957669D01*
X186043795Y-66957668D01*
X186043793Y-66957664D01*
X185957547Y-66842455D01*
X185957544Y-66842452D01*
X185842335Y-66756206D01*
X185842328Y-66756202D01*
X185710917Y-66707189D01*
X185654983Y-66665318D01*
X185630566Y-66599853D01*
X185645418Y-66531580D01*
X185666563Y-66503332D01*
X185788495Y-66381401D01*
X185924035Y-66187830D01*
X186023903Y-65973663D01*
X186085063Y-65745408D01*
X186105659Y-65510000D01*
X186085063Y-65274592D01*
X186023903Y-65046337D01*
X185924035Y-64832171D01*
X185788495Y-64638599D01*
X185788494Y-64638597D01*
X185621402Y-64471506D01*
X185621396Y-64471501D01*
X185435842Y-64341575D01*
X185392217Y-64286998D01*
X185385023Y-64217500D01*
X185416546Y-64155145D01*
X185435842Y-64138425D01*
X185504681Y-64090223D01*
X185621401Y-64008495D01*
X185788495Y-63841401D01*
X185924035Y-63647830D01*
X186023903Y-63433663D01*
X186085063Y-63205408D01*
X186105659Y-62970000D01*
X186085063Y-62734592D01*
X186023903Y-62506337D01*
X185924035Y-62292171D01*
X185900775Y-62258951D01*
X185788494Y-62098597D01*
X185621402Y-61931506D01*
X185621396Y-61931501D01*
X185435842Y-61801575D01*
X185392217Y-61746998D01*
X185385023Y-61677500D01*
X185416546Y-61615145D01*
X185435842Y-61598425D01*
X185473191Y-61572273D01*
X185621401Y-61468495D01*
X185788495Y-61301401D01*
X185924035Y-61107830D01*
X186023903Y-60893663D01*
X186085063Y-60665408D01*
X186105659Y-60430000D01*
X186085063Y-60194592D01*
X186023903Y-59966337D01*
X185924035Y-59752171D01*
X185883276Y-59693960D01*
X185788494Y-59558597D01*
X185621402Y-59391506D01*
X185621395Y-59391501D01*
X185427834Y-59255967D01*
X185427830Y-59255965D01*
X185427828Y-59255964D01*
X185213663Y-59156097D01*
X185213659Y-59156096D01*
X185213655Y-59156094D01*
X184985413Y-59094938D01*
X184985403Y-59094936D01*
X184750001Y-59074341D01*
X184749999Y-59074341D01*
X184514596Y-59094936D01*
X184514586Y-59094938D01*
X184286344Y-59156094D01*
X184286335Y-59156098D01*
X184072171Y-59255964D01*
X184072169Y-59255965D01*
X183878597Y-59391505D01*
X183711505Y-59558597D01*
X183575965Y-59752169D01*
X183575964Y-59752171D01*
X183476098Y-59966335D01*
X183476094Y-59966344D01*
X183414938Y-60194586D01*
X183414936Y-60194596D01*
X183394341Y-60429999D01*
X170379235Y-60429999D01*
X171226470Y-59582764D01*
X171287791Y-59549281D01*
X171346242Y-59550672D01*
X171375827Y-59558599D01*
X171474592Y-59585063D01*
X171651034Y-59600500D01*
X171709999Y-59605659D01*
X171710000Y-59605659D01*
X171710001Y-59605659D01*
X171768966Y-59600500D01*
X171945408Y-59585063D01*
X172173663Y-59523903D01*
X172387830Y-59424035D01*
X172581401Y-59288495D01*
X172703329Y-59166566D01*
X172764648Y-59133084D01*
X172834340Y-59138068D01*
X172890274Y-59179939D01*
X172907189Y-59210917D01*
X172956202Y-59342328D01*
X172956206Y-59342335D01*
X173042452Y-59457544D01*
X173042455Y-59457547D01*
X173157664Y-59543793D01*
X173157671Y-59543797D01*
X173292517Y-59594091D01*
X173292516Y-59594091D01*
X173299444Y-59594835D01*
X173352127Y-59600500D01*
X175147872Y-59600499D01*
X175207483Y-59594091D01*
X175342331Y-59543796D01*
X175457546Y-59457546D01*
X175543796Y-59342331D01*
X175594091Y-59207483D01*
X175600500Y-59147873D01*
X175600499Y-57352128D01*
X175594091Y-57292517D01*
X175592810Y-57289083D01*
X175543797Y-57157671D01*
X175543793Y-57157664D01*
X175457547Y-57042455D01*
X175457544Y-57042452D01*
X175342335Y-56956206D01*
X175342328Y-56956202D01*
X175207482Y-56905908D01*
X175207483Y-56905908D01*
X175147883Y-56899501D01*
X175147881Y-56899500D01*
X175147873Y-56899500D01*
X175147865Y-56899500D01*
X174974500Y-56899500D01*
X174907461Y-56879815D01*
X174861706Y-56827011D01*
X174850500Y-56775500D01*
X174850500Y-55670945D01*
X174850500Y-55670943D01*
X174809577Y-55518216D01*
X174809573Y-55518209D01*
X174730524Y-55381290D01*
X174730518Y-55381282D01*
X174618717Y-55269481D01*
X174618709Y-55269475D01*
X174481790Y-55190426D01*
X174481786Y-55190424D01*
X174481784Y-55190423D01*
X174329057Y-55149500D01*
X174329056Y-55149500D01*
X159011669Y-55149500D01*
X159011653Y-55149499D01*
X159004057Y-55149499D01*
X158845943Y-55149499D01*
X158738587Y-55178265D01*
X158693210Y-55190424D01*
X158693209Y-55190425D01*
X158643096Y-55219359D01*
X158643095Y-55219360D01*
X158605530Y-55241048D01*
X158556285Y-55269479D01*
X158556282Y-55269481D01*
X158475264Y-55350500D01*
X158444480Y-55381284D01*
X158444478Y-55381286D01*
X148315765Y-65510000D01*
X138212584Y-75613181D01*
X138151261Y-75646666D01*
X138124903Y-75649500D01*
X126086669Y-75649500D01*
X126086653Y-75649499D01*
X126079057Y-75649499D01*
X125920943Y-75649499D01*
X125913347Y-75649499D01*
X125913331Y-75649500D01*
X122224500Y-75649500D01*
X122157461Y-75629815D01*
X122111706Y-75577011D01*
X122100500Y-75525500D01*
X122100500Y-74039090D01*
X122120185Y-73972051D01*
X122172101Y-73926706D01*
X122177830Y-73924035D01*
X122371401Y-73788495D01*
X122538495Y-73621401D01*
X122674035Y-73427830D01*
X122773903Y-73213663D01*
X122835063Y-72985408D01*
X122855659Y-72750000D01*
X122835063Y-72514592D01*
X122773903Y-72286337D01*
X122674035Y-72072171D01*
X122668731Y-72064595D01*
X122538494Y-71878597D01*
X122371402Y-71711506D01*
X122371395Y-71711501D01*
X122177834Y-71575967D01*
X122177830Y-71575965D01*
X122177828Y-71575964D01*
X121963663Y-71476097D01*
X121963659Y-71476096D01*
X121963655Y-71476094D01*
X121735413Y-71414938D01*
X121735403Y-71414936D01*
X121500001Y-71394341D01*
X121499999Y-71394341D01*
X121264596Y-71414936D01*
X121264586Y-71414938D01*
X121036344Y-71476094D01*
X121036335Y-71476098D01*
X120822171Y-71575964D01*
X120822169Y-71575965D01*
X120628597Y-71711505D01*
X120461508Y-71878594D01*
X120331269Y-72064595D01*
X120276692Y-72108219D01*
X120207193Y-72115412D01*
X120144839Y-72083890D01*
X120128119Y-72064594D01*
X119998113Y-71878926D01*
X119998108Y-71878920D01*
X119831082Y-71711894D01*
X119637578Y-71576399D01*
X119423492Y-71476570D01*
X119423486Y-71476567D01*
X119210000Y-71419364D01*
X119210000Y-72316988D01*
X119152993Y-72284075D01*
X119025826Y-72250000D01*
X118894174Y-72250000D01*
X118767007Y-72284075D01*
X118710000Y-72316988D01*
X118710000Y-71419364D01*
X118709999Y-71419364D01*
X118496513Y-71476567D01*
X118496507Y-71476570D01*
X118282422Y-71576399D01*
X118282420Y-71576400D01*
X118088926Y-71711886D01*
X118088920Y-71711891D01*
X117921891Y-71878920D01*
X117921890Y-71878922D01*
X117791880Y-72064595D01*
X117737303Y-72108219D01*
X117667804Y-72115412D01*
X117605450Y-72083890D01*
X117588730Y-72064594D01*
X117458494Y-71878597D01*
X117291402Y-71711506D01*
X117291395Y-71711501D01*
X117097834Y-71575967D01*
X117097830Y-71575965D01*
X117097828Y-71575964D01*
X116883663Y-71476097D01*
X116883659Y-71476096D01*
X116883655Y-71476094D01*
X116655413Y-71414938D01*
X116655403Y-71414936D01*
X116420001Y-71394341D01*
X116419999Y-71394341D01*
X116184596Y-71414936D01*
X116184586Y-71414938D01*
X115956344Y-71476094D01*
X115956335Y-71476098D01*
X115742171Y-71575964D01*
X115742169Y-71575965D01*
X115548600Y-71711503D01*
X115426673Y-71833430D01*
X115365350Y-71866914D01*
X115295658Y-71861930D01*
X115239725Y-71820058D01*
X115222810Y-71789081D01*
X115173797Y-71657671D01*
X115173793Y-71657664D01*
X115087547Y-71542455D01*
X115087544Y-71542452D01*
X114972335Y-71456206D01*
X114972328Y-71456202D01*
X114837482Y-71405908D01*
X114837483Y-71405908D01*
X114777883Y-71399501D01*
X114777881Y-71399500D01*
X114777873Y-71399500D01*
X114777865Y-71399500D01*
X114474500Y-71399500D01*
X114407461Y-71379815D01*
X114361706Y-71327011D01*
X114350500Y-71275500D01*
X114350500Y-64413379D01*
X114370185Y-64346340D01*
X114422989Y-64300585D01*
X114456897Y-64290914D01*
X114456867Y-64290738D01*
X114458497Y-64290458D01*
X114458769Y-64290381D01*
X114459437Y-64290295D01*
X114459462Y-64290293D01*
X114926756Y-64210167D01*
X115385571Y-64090701D01*
X115832602Y-63932755D01*
X116264628Y-63737467D01*
X116678536Y-63506244D01*
X117071343Y-63240753D01*
X117440209Y-62942914D01*
X117440211Y-62942913D01*
X117440215Y-62942908D01*
X117440220Y-62942905D01*
X117782510Y-62614847D01*
X118095744Y-62258944D01*
X118377668Y-61877758D01*
X118626249Y-61474036D01*
X118839697Y-61050688D01*
X119016473Y-60610763D01*
X119155304Y-60157432D01*
X119255190Y-59693960D01*
X119315411Y-59223686D01*
X119315414Y-59223631D01*
X119335533Y-58750006D01*
X119335533Y-58749993D01*
X138134968Y-58749993D01*
X138134968Y-58750006D01*
X138155086Y-59223631D01*
X138215304Y-59693874D01*
X138315181Y-60157306D01*
X138315183Y-60157314D01*
X138453999Y-60610598D01*
X138454004Y-60610612D01*
X138630755Y-61050471D01*
X138630759Y-61050482D01*
X138844179Y-61473774D01*
X138844189Y-61473794D01*
X139092750Y-61877481D01*
X139374648Y-62258633D01*
X139374654Y-62258641D01*
X139600825Y-62515620D01*
X139600826Y-62515620D01*
X141392818Y-60723627D01*
X141442208Y-60785560D01*
X141684440Y-61027792D01*
X141746371Y-61077180D01*
X139953983Y-62869568D01*
X140030120Y-62942537D01*
X140030122Y-62942538D01*
X140398952Y-63240348D01*
X140398953Y-63240349D01*
X140791716Y-63505809D01*
X140791735Y-63505821D01*
X141205588Y-63737014D01*
X141205610Y-63737025D01*
X141637579Y-63932288D01*
X141637585Y-63932290D01*
X142084579Y-64090223D01*
X142543351Y-64209677D01*
X143010597Y-64289795D01*
X143010605Y-64289796D01*
X143482946Y-64329999D01*
X143482966Y-64330000D01*
X143957034Y-64330000D01*
X143957053Y-64329999D01*
X144429394Y-64289796D01*
X144429402Y-64289795D01*
X144896648Y-64209677D01*
X145355420Y-64090223D01*
X145802414Y-63932290D01*
X145802420Y-63932288D01*
X146234389Y-63737025D01*
X146234411Y-63737014D01*
X146648264Y-63505821D01*
X146648283Y-63505809D01*
X147041039Y-63240353D01*
X147409886Y-62942531D01*
X147486015Y-62869568D01*
X145693628Y-61077181D01*
X145755560Y-61027792D01*
X145997792Y-60785560D01*
X146047181Y-60723628D01*
X147839173Y-62515620D01*
X148065346Y-62258638D01*
X148065360Y-62258621D01*
X148347249Y-61877481D01*
X148595810Y-61473794D01*
X148595820Y-61473774D01*
X148809240Y-61050482D01*
X148809244Y-61050471D01*
X148985995Y-60610612D01*
X148986000Y-60610598D01*
X149124816Y-60157314D01*
X149124818Y-60157306D01*
X149224695Y-59693874D01*
X149284913Y-59223631D01*
X149305032Y-58750006D01*
X149305032Y-58749993D01*
X149284913Y-58276368D01*
X149224695Y-57806125D01*
X149124818Y-57342693D01*
X149124816Y-57342685D01*
X148986000Y-56889401D01*
X148985995Y-56889387D01*
X148809244Y-56449528D01*
X148809240Y-56449517D01*
X148595820Y-56026225D01*
X148595810Y-56026205D01*
X148347249Y-55622518D01*
X148065351Y-55241366D01*
X148065345Y-55241358D01*
X147839173Y-54984378D01*
X146047180Y-56776371D01*
X145997792Y-56714440D01*
X145755560Y-56472208D01*
X145693627Y-56422818D01*
X147486015Y-54630430D01*
X147409879Y-54557462D01*
X147409877Y-54557461D01*
X147041047Y-54259651D01*
X147041046Y-54259650D01*
X146648283Y-53994190D01*
X146648264Y-53994178D01*
X146468424Y-53893713D01*
X189149500Y-53893713D01*
X189149500Y-54106286D01*
X189182753Y-54316239D01*
X189248444Y-54518414D01*
X189344951Y-54707820D01*
X189469890Y-54879786D01*
X189620213Y-55030109D01*
X189792179Y-55155048D01*
X189792181Y-55155049D01*
X189792184Y-55155051D01*
X189981588Y-55251557D01*
X190183757Y-55317246D01*
X190393713Y-55350500D01*
X190393714Y-55350500D01*
X190606286Y-55350500D01*
X190606287Y-55350500D01*
X190816243Y-55317246D01*
X191018412Y-55251557D01*
X191207816Y-55155051D01*
X191229789Y-55139086D01*
X191379786Y-55030109D01*
X191379788Y-55030106D01*
X191379792Y-55030104D01*
X191530104Y-54879792D01*
X191530106Y-54879788D01*
X191530109Y-54879786D01*
X191655048Y-54707820D01*
X191655047Y-54707820D01*
X191655051Y-54707816D01*
X191751557Y-54518412D01*
X191817246Y-54316243D01*
X191850500Y-54106287D01*
X191850500Y-53893713D01*
X191817246Y-53683757D01*
X191751557Y-53481588D01*
X191655051Y-53292184D01*
X191655049Y-53292181D01*
X191655048Y-53292179D01*
X191530109Y-53120213D01*
X191379786Y-52969890D01*
X191207820Y-52844951D01*
X191018414Y-52748444D01*
X191018413Y-52748443D01*
X191018412Y-52748443D01*
X190816243Y-52682754D01*
X190816241Y-52682753D01*
X190816240Y-52682753D01*
X190654957Y-52657208D01*
X190606287Y-52649500D01*
X190393713Y-52649500D01*
X190345042Y-52657208D01*
X190183760Y-52682753D01*
X189981585Y-52748444D01*
X189792179Y-52844951D01*
X189620213Y-52969890D01*
X189469890Y-53120213D01*
X189344951Y-53292179D01*
X189248444Y-53481585D01*
X189182753Y-53683760D01*
X189149500Y-53893713D01*
X146468424Y-53893713D01*
X146234411Y-53762985D01*
X146234389Y-53762974D01*
X145802420Y-53567711D01*
X145802414Y-53567709D01*
X145355420Y-53409776D01*
X144896648Y-53290322D01*
X144429402Y-53210204D01*
X144429394Y-53210203D01*
X143957053Y-53170000D01*
X143482946Y-53170000D01*
X143010605Y-53210203D01*
X143010597Y-53210204D01*
X142543351Y-53290322D01*
X142084579Y-53409776D01*
X141637585Y-53567709D01*
X141637579Y-53567711D01*
X141205610Y-53762974D01*
X141205588Y-53762985D01*
X140791735Y-53994178D01*
X140791716Y-53994190D01*
X140398953Y-54259650D01*
X140398952Y-54259651D01*
X140030123Y-54557460D01*
X140030107Y-54557474D01*
X139953984Y-54630431D01*
X141746371Y-56422819D01*
X141684440Y-56472208D01*
X141442208Y-56714440D01*
X141392818Y-56776371D01*
X139600826Y-54984379D01*
X139374648Y-55241366D01*
X139374645Y-55241370D01*
X139092750Y-55622518D01*
X138844189Y-56026205D01*
X138844179Y-56026225D01*
X138630759Y-56449517D01*
X138630755Y-56449528D01*
X138454004Y-56889387D01*
X138453999Y-56889401D01*
X138315183Y-57342685D01*
X138315181Y-57342693D01*
X138215304Y-57806125D01*
X138155086Y-58276368D01*
X138134968Y-58749993D01*
X119335533Y-58749993D01*
X119315412Y-58276326D01*
X119315411Y-58276320D01*
X119315411Y-58276314D01*
X119255190Y-57806040D01*
X119155304Y-57342568D01*
X119016473Y-56889237D01*
X118839697Y-56449312D01*
X118839697Y-56449311D01*
X118626258Y-56025981D01*
X118626247Y-56025961D01*
X118425545Y-55700000D01*
X118377668Y-55622242D01*
X118095744Y-55241056D01*
X117782510Y-54885153D01*
X117516738Y-54630431D01*
X117440211Y-54557086D01*
X117440209Y-54557085D01*
X117071345Y-54259248D01*
X117071344Y-54259247D01*
X116678546Y-53993763D01*
X116678536Y-53993756D01*
X116667662Y-53987681D01*
X116264637Y-53762537D01*
X116264615Y-53762526D01*
X115832608Y-53567247D01*
X115385566Y-53409297D01*
X114926754Y-53289832D01*
X114459472Y-53209708D01*
X114459446Y-53209705D01*
X113987075Y-53169500D01*
X113987057Y-53169500D01*
X113512943Y-53169500D01*
X113512924Y-53169500D01*
X113040553Y-53209705D01*
X113040527Y-53209708D01*
X112573245Y-53289832D01*
X112114433Y-53409297D01*
X111667391Y-53567247D01*
X111235384Y-53762526D01*
X111235362Y-53762537D01*
X110821472Y-53993751D01*
X110821453Y-53993763D01*
X110428655Y-54259247D01*
X110428654Y-54259248D01*
X110059790Y-54557085D01*
X110059788Y-54557086D01*
X109717489Y-54885153D01*
X109404262Y-55241048D01*
X109404256Y-55241055D01*
X109404256Y-55241056D01*
X109383237Y-55269475D01*
X109122331Y-55622243D01*
X108873752Y-56025961D01*
X108873741Y-56025981D01*
X108660302Y-56449311D01*
X108660298Y-56449322D01*
X108483529Y-56889229D01*
X108483527Y-56889234D01*
X108344698Y-57342559D01*
X108344696Y-57342567D01*
X108244810Y-57806038D01*
X108184587Y-58276326D01*
X108164467Y-58749993D01*
X108164467Y-58750006D01*
X108184587Y-59223673D01*
X108244810Y-59693961D01*
X108344696Y-60157432D01*
X108344698Y-60157440D01*
X108483527Y-60610765D01*
X108483529Y-60610770D01*
X108660298Y-61050677D01*
X108660302Y-61050688D01*
X108873741Y-61474018D01*
X108873752Y-61474038D01*
X108998041Y-61675897D01*
X109122332Y-61877758D01*
X109404256Y-62258944D01*
X109404261Y-62258949D01*
X109404262Y-62258951D01*
X109717489Y-62614846D01*
X110059788Y-62942913D01*
X110059790Y-62942914D01*
X110428654Y-63240751D01*
X110428655Y-63240752D01*
X110579322Y-63342584D01*
X110821464Y-63506244D01*
X111005423Y-63609009D01*
X111235362Y-63737462D01*
X111235384Y-63737473D01*
X111666365Y-63932288D01*
X111667398Y-63932755D01*
X112114429Y-64090701D01*
X112573244Y-64210167D01*
X113040538Y-64290293D01*
X113040559Y-64290294D01*
X113041231Y-64290381D01*
X113041346Y-64290431D01*
X113043133Y-64290738D01*
X113043057Y-64291180D01*
X113105232Y-64318411D01*
X113143918Y-64376593D01*
X113149500Y-64413379D01*
X113149500Y-71275500D01*
X113129815Y-71342539D01*
X113077011Y-71388294D01*
X113025503Y-71399500D01*
X112982131Y-71399500D01*
X112982123Y-71399501D01*
X112922516Y-71405908D01*
X112787671Y-71456202D01*
X112787664Y-71456206D01*
X112672455Y-71542452D01*
X112672452Y-71542455D01*
X112586206Y-71657664D01*
X112586202Y-71657671D01*
X112535908Y-71792517D01*
X112529501Y-71852116D01*
X112529500Y-71852135D01*
X112529500Y-73647870D01*
X112529501Y-73647876D01*
X112535908Y-73707483D01*
X112586202Y-73842328D01*
X112586206Y-73842335D01*
X112672452Y-73957544D01*
X112672455Y-73957547D01*
X112787664Y-74043793D01*
X112787671Y-74043797D01*
X112922517Y-74094091D01*
X112922516Y-74094091D01*
X112929444Y-74094835D01*
X112982127Y-74100500D01*
X114777872Y-74100499D01*
X114837483Y-74094091D01*
X114972331Y-74043796D01*
X115087546Y-73957546D01*
X115173796Y-73842331D01*
X115222810Y-73710916D01*
X115264681Y-73654984D01*
X115330145Y-73630566D01*
X115398418Y-73645417D01*
X115426673Y-73666569D01*
X115548599Y-73788495D01*
X115645384Y-73856265D01*
X115742165Y-73924032D01*
X115742167Y-73924033D01*
X115742170Y-73924035D01*
X115956337Y-74023903D01*
X116184592Y-74085063D01*
X116361034Y-74100500D01*
X116419999Y-74105659D01*
X116420000Y-74105659D01*
X116420001Y-74105659D01*
X116478966Y-74100500D01*
X116655408Y-74085063D01*
X116883663Y-74023903D01*
X117097830Y-73924035D01*
X117291401Y-73788495D01*
X117458495Y-73621401D01*
X117588730Y-73435405D01*
X117643307Y-73391781D01*
X117712805Y-73384587D01*
X117775160Y-73416110D01*
X117791879Y-73435405D01*
X117921890Y-73621078D01*
X118088917Y-73788105D01*
X118282421Y-73923600D01*
X118496507Y-74023429D01*
X118496516Y-74023433D01*
X118710000Y-74080634D01*
X118710000Y-73183012D01*
X118767007Y-73215925D01*
X118894174Y-73250000D01*
X119025826Y-73250000D01*
X119152993Y-73215925D01*
X119210000Y-73183012D01*
X119210000Y-74080633D01*
X119423483Y-74023433D01*
X119423492Y-74023429D01*
X119637578Y-73923600D01*
X119831082Y-73788105D01*
X119998105Y-73621082D01*
X120128119Y-73435405D01*
X120182696Y-73391781D01*
X120252195Y-73384588D01*
X120314549Y-73416110D01*
X120331269Y-73435405D01*
X120461505Y-73621401D01*
X120628599Y-73788495D01*
X120725384Y-73856265D01*
X120822165Y-73924032D01*
X120822167Y-73924033D01*
X120822170Y-73924035D01*
X120827898Y-73926706D01*
X120880339Y-73972872D01*
X120899500Y-74039090D01*
X120899500Y-75525500D01*
X120879815Y-75592539D01*
X120827011Y-75638294D01*
X120775500Y-75649500D01*
X120586669Y-75649500D01*
X120586653Y-75649499D01*
X120579057Y-75649499D01*
X120420943Y-75649499D01*
X120413347Y-75649499D01*
X120413331Y-75649500D01*
X115586669Y-75649500D01*
X115586653Y-75649499D01*
X115579057Y-75649499D01*
X115420943Y-75649499D01*
X115413347Y-75649499D01*
X115413331Y-75649500D01*
X110836669Y-75649500D01*
X110836653Y-75649499D01*
X110829057Y-75649499D01*
X110670943Y-75649499D01*
X110663347Y-75649499D01*
X110663331Y-75649500D01*
X106586669Y-75649500D01*
X106586653Y-75649499D01*
X106579057Y-75649499D01*
X106420943Y-75649499D01*
X106313587Y-75678265D01*
X106268210Y-75690424D01*
X106268209Y-75690425D01*
X106218096Y-75719359D01*
X106218095Y-75719360D01*
X106174689Y-75744420D01*
X106131285Y-75769479D01*
X106131282Y-75769481D01*
X105884481Y-76016282D01*
X105884475Y-76016290D01*
X105839806Y-76093661D01*
X105839806Y-76093662D01*
X105805423Y-76153214D01*
X105805423Y-76153215D01*
X105764499Y-76305943D01*
X105764499Y-76305945D01*
X105764499Y-76474046D01*
X105764500Y-76474059D01*
X105764500Y-79004620D01*
X105744815Y-79071659D01*
X105728181Y-79092301D01*
X105630441Y-79190040D01*
X105630434Y-79190049D01*
X105546129Y-79332601D01*
X105546128Y-79332604D01*
X105499924Y-79491637D01*
X105499923Y-79491643D01*
X105497000Y-79528789D01*
X105497000Y-79971190D01*
X105497001Y-79971215D01*
X105499923Y-80008354D01*
X105546130Y-80167400D01*
X105630434Y-80309950D01*
X105630436Y-80309953D01*
X105630437Y-80309954D01*
X105728182Y-80407699D01*
X105761666Y-80469020D01*
X105764500Y-80495379D01*
X105764500Y-88051795D01*
X105744815Y-88118834D01*
X105711624Y-88153370D01*
X105628599Y-88211505D01*
X105628597Y-88211506D01*
X105461505Y-88378597D01*
X105325965Y-88572169D01*
X105325964Y-88572171D01*
X105266402Y-88699903D01*
X105226098Y-88786336D01*
X105226094Y-88786344D01*
X105164938Y-89014586D01*
X105164936Y-89014596D01*
X105144341Y-89249999D01*
X99750500Y-89249999D01*
X99750500Y-53893713D01*
X100649500Y-53893713D01*
X100649500Y-54106286D01*
X100682753Y-54316239D01*
X100748444Y-54518414D01*
X100844951Y-54707820D01*
X100969890Y-54879786D01*
X101120213Y-55030109D01*
X101292179Y-55155048D01*
X101292181Y-55155049D01*
X101292184Y-55155051D01*
X101481588Y-55251557D01*
X101683757Y-55317246D01*
X101893713Y-55350500D01*
X101893714Y-55350500D01*
X102106286Y-55350500D01*
X102106287Y-55350500D01*
X102316243Y-55317246D01*
X102518412Y-55251557D01*
X102707816Y-55155051D01*
X102729789Y-55139086D01*
X102879786Y-55030109D01*
X102879788Y-55030106D01*
X102879792Y-55030104D01*
X103030104Y-54879792D01*
X103030106Y-54879788D01*
X103030109Y-54879786D01*
X103155048Y-54707820D01*
X103155047Y-54707820D01*
X103155051Y-54707816D01*
X103251557Y-54518412D01*
X103317246Y-54316243D01*
X103350500Y-54106287D01*
X103350500Y-53893713D01*
X103317246Y-53683757D01*
X103251557Y-53481588D01*
X103155051Y-53292184D01*
X103155049Y-53292181D01*
X103155048Y-53292179D01*
X103030109Y-53120213D01*
X102879786Y-52969890D01*
X102707820Y-52844951D01*
X102518414Y-52748444D01*
X102518413Y-52748443D01*
X102518412Y-52748443D01*
X102316243Y-52682754D01*
X102316241Y-52682753D01*
X102316240Y-52682753D01*
X102154957Y-52657208D01*
X102106287Y-52649500D01*
X101893713Y-52649500D01*
X101845042Y-52657208D01*
X101683760Y-52682753D01*
X101481585Y-52748444D01*
X101292179Y-52844951D01*
X101120213Y-52969890D01*
X100969890Y-53120213D01*
X100844951Y-53292179D01*
X100748444Y-53481585D01*
X100682753Y-53683760D01*
X100649500Y-53893713D01*
X99750500Y-53893713D01*
X99750500Y-51874500D01*
X99770185Y-51807461D01*
X99822989Y-51761706D01*
X99874500Y-51750500D01*
X192625500Y-51750500D01*
X192692539Y-51770185D01*
G37*
G04 #@! TD.AperFunction*
M02*
