%TF.GenerationSoftware,KiCad,Pcbnew,8.0.6*%
%TF.CreationDate,2024-11-01T15:42:28-04:00*%
%TF.ProjectId,H_Bridge_KiCAD,485f4272-6964-4676-955f-4b694341442e,rev?*%
%TF.SameCoordinates,Original*%
%TF.FileFunction,Drillmap*%
%TF.FilePolarity,Positive*%
%FSLAX45Y45*%
G04 Gerber Fmt 4.5, Leading zero omitted, Abs format (unit mm)*
G04 Created by KiCad (PCBNEW 8.0.6) date 2024-11-01 15:42:28*
%MOMM*%
%LPD*%
G01*
G04 APERTURE LIST*
%ADD10C,0.200000*%
%ADD11C,0.100000*%
%ADD12C,0.110000*%
%ADD13C,0.610000*%
G04 APERTURE END LIST*
D10*
X6700000Y-5800000D02*
X22650000Y-5800000D01*
X22650000Y-12051600D01*
X6700000Y-12051600D01*
X6700000Y-5800000D01*
D11*
X7135000Y-8460000D02*
X7215000Y-8540000D01*
X7215000Y-8460000D02*
X7135000Y-8540000D01*
X7280000Y-9130000D02*
X7360000Y-9210000D01*
X7360000Y-9130000D02*
X7280000Y-9210000D01*
X7280000Y-9384000D02*
X7360000Y-9464000D01*
X7360000Y-9384000D02*
X7280000Y-9464000D01*
X7280000Y-9638000D02*
X7360000Y-9718000D01*
X7360000Y-9638000D02*
X7280000Y-9718000D01*
X7280000Y-9892000D02*
X7360000Y-9972000D01*
X7360000Y-9892000D02*
X7280000Y-9972000D01*
X7310000Y-6902000D02*
X7390000Y-6982000D01*
X7390000Y-6902000D02*
X7310000Y-6982000D01*
X7310000Y-7918000D02*
X7390000Y-7998000D01*
X7390000Y-7918000D02*
X7310000Y-7998000D01*
X7635000Y-8460000D02*
X7715000Y-8540000D01*
X7715000Y-8460000D02*
X7635000Y-8540000D01*
X7852000Y-6610000D02*
X7932000Y-6690000D01*
X7932000Y-6610000D02*
X7852000Y-6690000D01*
X8042000Y-9130000D02*
X8122000Y-9210000D01*
X8122000Y-9130000D02*
X8042000Y-9210000D01*
X8042000Y-9384000D02*
X8122000Y-9464000D01*
X8122000Y-9384000D02*
X8042000Y-9464000D01*
X8042000Y-9638000D02*
X8122000Y-9718000D01*
X8122000Y-9638000D02*
X8042000Y-9718000D01*
X8042000Y-9892000D02*
X8122000Y-9972000D01*
X8122000Y-9892000D02*
X8042000Y-9972000D01*
X8144000Y-11110000D02*
X8224000Y-11190000D01*
X8224000Y-11110000D02*
X8144000Y-11190000D01*
X8152000Y-10460000D02*
X8232000Y-10540000D01*
X8232000Y-10460000D02*
X8152000Y-10540000D01*
X8202000Y-8310000D02*
X8282000Y-8390000D01*
X8282000Y-8310000D02*
X8202000Y-8390000D01*
X8360000Y-7560000D02*
X8440000Y-7640000D01*
X8440000Y-7560000D02*
X8360000Y-7640000D01*
X8560000Y-9079000D02*
X8640000Y-9159000D01*
X8640000Y-9079000D02*
X8560000Y-9159000D01*
X8560000Y-9841000D02*
X8640000Y-9921000D01*
X8640000Y-9841000D02*
X8560000Y-9921000D01*
X8860000Y-7560000D02*
X8940000Y-7640000D01*
X8940000Y-7560000D02*
X8860000Y-7640000D01*
X8868000Y-6610000D02*
X8948000Y-6690000D01*
X8948000Y-6610000D02*
X8868000Y-6690000D01*
X9160000Y-7110000D02*
X9240000Y-7190000D01*
X9240000Y-7110000D02*
X9160000Y-7190000D01*
X9160000Y-11110000D02*
X9240000Y-11190000D01*
X9240000Y-11110000D02*
X9160000Y-11190000D01*
X9168000Y-10460000D02*
X9248000Y-10540000D01*
X9248000Y-10460000D02*
X9168000Y-10540000D01*
X9210000Y-8752000D02*
X9290000Y-8832000D01*
X9290000Y-8752000D02*
X9210000Y-8832000D01*
X9210000Y-9768000D02*
X9290000Y-9848000D01*
X9290000Y-9768000D02*
X9210000Y-9848000D01*
X9218000Y-8310000D02*
X9298000Y-8390000D01*
X9298000Y-8310000D02*
X9218000Y-8390000D01*
X14160000Y-11760000D02*
X14240000Y-11840000D01*
X14240000Y-11760000D02*
X14160000Y-11840000D01*
X14460000Y-11760000D02*
X14540000Y-11840000D01*
X14540000Y-11760000D02*
X14460000Y-11840000D01*
X14810000Y-11760000D02*
X14890000Y-11840000D01*
X14890000Y-11760000D02*
X14810000Y-11840000D01*
X15110000Y-11760000D02*
X15190000Y-11840000D01*
X15190000Y-11760000D02*
X15110000Y-11840000D01*
X16910000Y-6160000D02*
X16990000Y-6240000D01*
X16990000Y-6160000D02*
X16910000Y-6240000D01*
X17410000Y-6160000D02*
X17490000Y-6240000D01*
X17490000Y-6160000D02*
X17410000Y-6240000D01*
X17660000Y-6610000D02*
X17740000Y-6690000D01*
X17740000Y-6610000D02*
X17660000Y-6690000D01*
X17660000Y-6860000D02*
X17740000Y-6940000D01*
X17740000Y-6860000D02*
X17660000Y-6940000D01*
X19902000Y-8160000D02*
X19982000Y-8240000D01*
X19982000Y-8160000D02*
X19902000Y-8240000D01*
X19978000Y-8566000D02*
X20058000Y-8646000D01*
X20058000Y-8566000D02*
X19978000Y-8646000D01*
X19978000Y-9582000D02*
X20058000Y-9662000D01*
X20058000Y-9582000D02*
X19978000Y-9662000D01*
X20010000Y-11210000D02*
X20090000Y-11290000D01*
X20090000Y-11210000D02*
X20010000Y-11290000D01*
X20012000Y-10432000D02*
X20092000Y-10512000D01*
X20092000Y-10432000D02*
X20012000Y-10512000D01*
X20110000Y-6860000D02*
X20190000Y-6940000D01*
X20190000Y-6860000D02*
X20110000Y-6940000D01*
X20494000Y-6432000D02*
X20574000Y-6512000D01*
X20574000Y-6432000D02*
X20494000Y-6512000D01*
X20510000Y-7060000D02*
X20590000Y-7140000D01*
X20590000Y-7060000D02*
X20510000Y-7140000D01*
X20710000Y-8729000D02*
X20790000Y-8809000D01*
X20790000Y-8729000D02*
X20710000Y-8809000D01*
X20710000Y-9491000D02*
X20790000Y-9571000D01*
X20790000Y-9491000D02*
X20710000Y-9571000D01*
X20918000Y-8160000D02*
X20998000Y-8240000D01*
X20998000Y-8160000D02*
X20918000Y-8240000D01*
X21010000Y-7060000D02*
X21090000Y-7140000D01*
X21090000Y-7060000D02*
X21010000Y-7140000D01*
X21026000Y-11210000D02*
X21106000Y-11290000D01*
X21106000Y-11210000D02*
X21026000Y-11290000D01*
X21028000Y-10432000D02*
X21108000Y-10512000D01*
X21108000Y-10432000D02*
X21028000Y-10512000D01*
X21330000Y-8780000D02*
X21410000Y-8860000D01*
X21410000Y-8780000D02*
X21330000Y-8860000D01*
X21330000Y-9034000D02*
X21410000Y-9114000D01*
X21410000Y-9034000D02*
X21330000Y-9114000D01*
X21330000Y-9288000D02*
X21410000Y-9368000D01*
X21410000Y-9288000D02*
X21330000Y-9368000D01*
X21330000Y-9542000D02*
X21410000Y-9622000D01*
X21410000Y-9542000D02*
X21330000Y-9622000D01*
X21510000Y-6432000D02*
X21590000Y-6512000D01*
X21590000Y-6432000D02*
X21510000Y-6512000D01*
X21585000Y-8032000D02*
X21665000Y-8112000D01*
X21665000Y-8032000D02*
X21585000Y-8112000D01*
X21860000Y-6652000D02*
X21940000Y-6732000D01*
X21940000Y-6652000D02*
X21860000Y-6732000D01*
X21860000Y-7668000D02*
X21940000Y-7748000D01*
X21940000Y-7668000D02*
X21860000Y-7748000D01*
X22085000Y-8032000D02*
X22165000Y-8112000D01*
X22165000Y-8032000D02*
X22085000Y-8112000D01*
X22092000Y-8780000D02*
X22172000Y-8860000D01*
X22172000Y-8780000D02*
X22092000Y-8860000D01*
X22092000Y-9034000D02*
X22172000Y-9114000D01*
X22172000Y-9034000D02*
X22092000Y-9114000D01*
X22092000Y-9288000D02*
X22172000Y-9368000D01*
X22172000Y-9288000D02*
X22092000Y-9368000D01*
X22092000Y-9542000D02*
X22172000Y-9622000D01*
X22172000Y-9542000D02*
X22092000Y-9622000D01*
D12*
X10510500Y-7888000D02*
G75*
G02*
X10400500Y-7888000I-55000J0D01*
G01*
X10400500Y-7888000D02*
G75*
G02*
X10510500Y-7888000I55000J0D01*
G01*
X10510500Y-8142000D02*
G75*
G02*
X10400500Y-8142000I-55000J0D01*
G01*
X10400500Y-8142000D02*
G75*
G02*
X10510500Y-8142000I55000J0D01*
G01*
X10510500Y-8396000D02*
G75*
G02*
X10400500Y-8396000I-55000J0D01*
G01*
X10400500Y-8396000D02*
G75*
G02*
X10510500Y-8396000I55000J0D01*
G01*
X10560500Y-10692000D02*
G75*
G02*
X10450500Y-10692000I-55000J0D01*
G01*
X10450500Y-10692000D02*
G75*
G02*
X10560500Y-10692000I55000J0D01*
G01*
X10560500Y-10946000D02*
G75*
G02*
X10450500Y-10946000I-55000J0D01*
G01*
X10450500Y-10946000D02*
G75*
G02*
X10560500Y-10946000I55000J0D01*
G01*
X10560500Y-11200000D02*
G75*
G02*
X10450500Y-11200000I-55000J0D01*
G01*
X10450500Y-11200000D02*
G75*
G02*
X10560500Y-11200000I55000J0D01*
G01*
X10660500Y-6646000D02*
G75*
G02*
X10550500Y-6646000I-55000J0D01*
G01*
X10550500Y-6646000D02*
G75*
G02*
X10660500Y-6646000I55000J0D01*
G01*
X10914500Y-6646000D02*
G75*
G02*
X10804500Y-6646000I-55000J0D01*
G01*
X10804500Y-6646000D02*
G75*
G02*
X10914500Y-6646000I55000J0D01*
G01*
X11168500Y-6646000D02*
G75*
G02*
X11058500Y-6646000I-55000J0D01*
G01*
X11058500Y-6646000D02*
G75*
G02*
X11168500Y-6646000I55000J0D01*
G01*
X11955000Y-10700000D02*
G75*
G02*
X11845000Y-10700000I-55000J0D01*
G01*
X11845000Y-10700000D02*
G75*
G02*
X11955000Y-10700000I55000J0D01*
G01*
X11955000Y-11208000D02*
G75*
G02*
X11845000Y-11208000I-55000J0D01*
G01*
X11845000Y-11208000D02*
G75*
G02*
X11955000Y-11208000I55000J0D01*
G01*
X11960500Y-7838000D02*
G75*
G02*
X11850500Y-7838000I-55000J0D01*
G01*
X11850500Y-7838000D02*
G75*
G02*
X11960500Y-7838000I55000J0D01*
G01*
X11960500Y-8346000D02*
G75*
G02*
X11850500Y-8346000I-55000J0D01*
G01*
X11850500Y-8346000D02*
G75*
G02*
X11960500Y-8346000I55000J0D01*
G01*
X17560500Y-7846000D02*
G75*
G02*
X17450500Y-7846000I-55000J0D01*
G01*
X17450500Y-7846000D02*
G75*
G02*
X17560500Y-7846000I55000J0D01*
G01*
X17560500Y-8354000D02*
G75*
G02*
X17450500Y-8354000I-55000J0D01*
G01*
X17450500Y-8354000D02*
G75*
G02*
X17560500Y-8354000I55000J0D01*
G01*
X17560500Y-10742000D02*
G75*
G02*
X17450500Y-10742000I-55000J0D01*
G01*
X17450500Y-10742000D02*
G75*
G02*
X17560500Y-10742000I55000J0D01*
G01*
X17560500Y-11250000D02*
G75*
G02*
X17450500Y-11250000I-55000J0D01*
G01*
X17450500Y-11250000D02*
G75*
G02*
X17560500Y-11250000I55000J0D01*
G01*
X18905000Y-10746000D02*
G75*
G02*
X18795000Y-10746000I-55000J0D01*
G01*
X18795000Y-10746000D02*
G75*
G02*
X18905000Y-10746000I55000J0D01*
G01*
X18905000Y-11000000D02*
G75*
G02*
X18795000Y-11000000I-55000J0D01*
G01*
X18795000Y-11000000D02*
G75*
G02*
X18905000Y-11000000I55000J0D01*
G01*
X18905000Y-11254000D02*
G75*
G02*
X18795000Y-11254000I-55000J0D01*
G01*
X18795000Y-11254000D02*
G75*
G02*
X18905000Y-11254000I55000J0D01*
G01*
X18910500Y-7796000D02*
G75*
G02*
X18800500Y-7796000I-55000J0D01*
G01*
X18800500Y-7796000D02*
G75*
G02*
X18910500Y-7796000I55000J0D01*
G01*
X18910500Y-8050000D02*
G75*
G02*
X18800500Y-8050000I-55000J0D01*
G01*
X18800500Y-8050000D02*
G75*
G02*
X18910500Y-8050000I55000J0D01*
G01*
X18910500Y-8304000D02*
G75*
G02*
X18800500Y-8304000I-55000J0D01*
G01*
X18800500Y-8304000D02*
G75*
G02*
X18910500Y-8304000I55000J0D01*
G01*
X19001000Y-6494500D02*
G75*
G02*
X18891000Y-6494500I-55000J0D01*
G01*
X18891000Y-6494500D02*
G75*
G02*
X19001000Y-6494500I55000J0D01*
G01*
X19255000Y-6494500D02*
G75*
G02*
X19145000Y-6494500I-55000J0D01*
G01*
X19145000Y-6494500D02*
G75*
G02*
X19255000Y-6494500I55000J0D01*
G01*
X19509000Y-6494500D02*
G75*
G02*
X19399000Y-6494500I-55000J0D01*
G01*
X19399000Y-6494500D02*
G75*
G02*
X19509000Y-6494500I55000J0D01*
G01*
D13*
X13153000Y-6245000D02*
X13153000Y-6855000D01*
X12848000Y-6550000D02*
X13458000Y-6550000D01*
X13350000Y-8995000D02*
X13350000Y-9605000D01*
X13045000Y-9300000D02*
X13655000Y-9300000D01*
X16150000Y-6245000D02*
X16150000Y-6855000D01*
X15845000Y-6550000D02*
X16455000Y-6550000D01*
X16347000Y-8995000D02*
X16347000Y-9605000D01*
X16042000Y-9300000D02*
X16652000Y-9300000D01*
D10*
X6950777Y-12373084D02*
X6950777Y-12173084D01*
X6950777Y-12173084D02*
X6998396Y-12173084D01*
X6998396Y-12173084D02*
X7026967Y-12182608D01*
X7026967Y-12182608D02*
X7046015Y-12201655D01*
X7046015Y-12201655D02*
X7055539Y-12220703D01*
X7055539Y-12220703D02*
X7065062Y-12258798D01*
X7065062Y-12258798D02*
X7065062Y-12287369D01*
X7065062Y-12287369D02*
X7055539Y-12325465D01*
X7055539Y-12325465D02*
X7046015Y-12344512D01*
X7046015Y-12344512D02*
X7026967Y-12363560D01*
X7026967Y-12363560D02*
X6998396Y-12373084D01*
X6998396Y-12373084D02*
X6950777Y-12373084D01*
X7150777Y-12373084D02*
X7150777Y-12239750D01*
X7150777Y-12277846D02*
X7160301Y-12258798D01*
X7160301Y-12258798D02*
X7169824Y-12249274D01*
X7169824Y-12249274D02*
X7188872Y-12239750D01*
X7188872Y-12239750D02*
X7207920Y-12239750D01*
X7274586Y-12373084D02*
X7274586Y-12239750D01*
X7274586Y-12173084D02*
X7265062Y-12182608D01*
X7265062Y-12182608D02*
X7274586Y-12192131D01*
X7274586Y-12192131D02*
X7284110Y-12182608D01*
X7284110Y-12182608D02*
X7274586Y-12173084D01*
X7274586Y-12173084D02*
X7274586Y-12192131D01*
X7398396Y-12373084D02*
X7379348Y-12363560D01*
X7379348Y-12363560D02*
X7369824Y-12344512D01*
X7369824Y-12344512D02*
X7369824Y-12173084D01*
X7503158Y-12373084D02*
X7484110Y-12363560D01*
X7484110Y-12363560D02*
X7474586Y-12344512D01*
X7474586Y-12344512D02*
X7474586Y-12173084D01*
X7731729Y-12373084D02*
X7731729Y-12173084D01*
X7731729Y-12173084D02*
X7798396Y-12315941D01*
X7798396Y-12315941D02*
X7865062Y-12173084D01*
X7865062Y-12173084D02*
X7865062Y-12373084D01*
X8046015Y-12373084D02*
X8046015Y-12268322D01*
X8046015Y-12268322D02*
X8036491Y-12249274D01*
X8036491Y-12249274D02*
X8017443Y-12239750D01*
X8017443Y-12239750D02*
X7979348Y-12239750D01*
X7979348Y-12239750D02*
X7960301Y-12249274D01*
X8046015Y-12363560D02*
X8026967Y-12373084D01*
X8026967Y-12373084D02*
X7979348Y-12373084D01*
X7979348Y-12373084D02*
X7960301Y-12363560D01*
X7960301Y-12363560D02*
X7950777Y-12344512D01*
X7950777Y-12344512D02*
X7950777Y-12325465D01*
X7950777Y-12325465D02*
X7960301Y-12306417D01*
X7960301Y-12306417D02*
X7979348Y-12296893D01*
X7979348Y-12296893D02*
X8026967Y-12296893D01*
X8026967Y-12296893D02*
X8046015Y-12287369D01*
X8141253Y-12239750D02*
X8141253Y-12439750D01*
X8141253Y-12249274D02*
X8160301Y-12239750D01*
X8160301Y-12239750D02*
X8198396Y-12239750D01*
X8198396Y-12239750D02*
X8217443Y-12249274D01*
X8217443Y-12249274D02*
X8226967Y-12258798D01*
X8226967Y-12258798D02*
X8236491Y-12277846D01*
X8236491Y-12277846D02*
X8236491Y-12334988D01*
X8236491Y-12334988D02*
X8226967Y-12354036D01*
X8226967Y-12354036D02*
X8217443Y-12363560D01*
X8217443Y-12363560D02*
X8198396Y-12373084D01*
X8198396Y-12373084D02*
X8160301Y-12373084D01*
X8160301Y-12373084D02*
X8141253Y-12363560D01*
X8322205Y-12354036D02*
X8331729Y-12363560D01*
X8331729Y-12363560D02*
X8322205Y-12373084D01*
X8322205Y-12373084D02*
X8312682Y-12363560D01*
X8312682Y-12363560D02*
X8322205Y-12354036D01*
X8322205Y-12354036D02*
X8322205Y-12373084D01*
X8322205Y-12249274D02*
X8331729Y-12258798D01*
X8331729Y-12258798D02*
X8322205Y-12268322D01*
X8322205Y-12268322D02*
X8312682Y-12258798D01*
X8312682Y-12258798D02*
X8322205Y-12249274D01*
X8322205Y-12249274D02*
X8322205Y-12268322D01*
D11*
X6610000Y-12661600D02*
X6690000Y-12741600D01*
X6690000Y-12661600D02*
X6610000Y-12741600D01*
D10*
X6988872Y-12593084D02*
X7007920Y-12593084D01*
X7007920Y-12593084D02*
X7026967Y-12602608D01*
X7026967Y-12602608D02*
X7036491Y-12612131D01*
X7036491Y-12612131D02*
X7046015Y-12631179D01*
X7046015Y-12631179D02*
X7055539Y-12669274D01*
X7055539Y-12669274D02*
X7055539Y-12716893D01*
X7055539Y-12716893D02*
X7046015Y-12754988D01*
X7046015Y-12754988D02*
X7036491Y-12774036D01*
X7036491Y-12774036D02*
X7026967Y-12783560D01*
X7026967Y-12783560D02*
X7007920Y-12793084D01*
X7007920Y-12793084D02*
X6988872Y-12793084D01*
X6988872Y-12793084D02*
X6969824Y-12783560D01*
X6969824Y-12783560D02*
X6960301Y-12774036D01*
X6960301Y-12774036D02*
X6950777Y-12754988D01*
X6950777Y-12754988D02*
X6941253Y-12716893D01*
X6941253Y-12716893D02*
X6941253Y-12669274D01*
X6941253Y-12669274D02*
X6950777Y-12631179D01*
X6950777Y-12631179D02*
X6960301Y-12612131D01*
X6960301Y-12612131D02*
X6969824Y-12602608D01*
X6969824Y-12602608D02*
X6988872Y-12593084D01*
X7141253Y-12774036D02*
X7150777Y-12783560D01*
X7150777Y-12783560D02*
X7141253Y-12793084D01*
X7141253Y-12793084D02*
X7131729Y-12783560D01*
X7131729Y-12783560D02*
X7141253Y-12774036D01*
X7141253Y-12774036D02*
X7141253Y-12793084D01*
X7265062Y-12678798D02*
X7246015Y-12669274D01*
X7246015Y-12669274D02*
X7236491Y-12659750D01*
X7236491Y-12659750D02*
X7226967Y-12640703D01*
X7226967Y-12640703D02*
X7226967Y-12631179D01*
X7226967Y-12631179D02*
X7236491Y-12612131D01*
X7236491Y-12612131D02*
X7246015Y-12602608D01*
X7246015Y-12602608D02*
X7265062Y-12593084D01*
X7265062Y-12593084D02*
X7303158Y-12593084D01*
X7303158Y-12593084D02*
X7322205Y-12602608D01*
X7322205Y-12602608D02*
X7331729Y-12612131D01*
X7331729Y-12612131D02*
X7341253Y-12631179D01*
X7341253Y-12631179D02*
X7341253Y-12640703D01*
X7341253Y-12640703D02*
X7331729Y-12659750D01*
X7331729Y-12659750D02*
X7322205Y-12669274D01*
X7322205Y-12669274D02*
X7303158Y-12678798D01*
X7303158Y-12678798D02*
X7265062Y-12678798D01*
X7265062Y-12678798D02*
X7246015Y-12688322D01*
X7246015Y-12688322D02*
X7236491Y-12697846D01*
X7236491Y-12697846D02*
X7226967Y-12716893D01*
X7226967Y-12716893D02*
X7226967Y-12754988D01*
X7226967Y-12754988D02*
X7236491Y-12774036D01*
X7236491Y-12774036D02*
X7246015Y-12783560D01*
X7246015Y-12783560D02*
X7265062Y-12793084D01*
X7265062Y-12793084D02*
X7303158Y-12793084D01*
X7303158Y-12793084D02*
X7322205Y-12783560D01*
X7322205Y-12783560D02*
X7331729Y-12774036D01*
X7331729Y-12774036D02*
X7341253Y-12754988D01*
X7341253Y-12754988D02*
X7341253Y-12716893D01*
X7341253Y-12716893D02*
X7331729Y-12697846D01*
X7331729Y-12697846D02*
X7322205Y-12688322D01*
X7322205Y-12688322D02*
X7303158Y-12678798D01*
X7465062Y-12593084D02*
X7484110Y-12593084D01*
X7484110Y-12593084D02*
X7503158Y-12602608D01*
X7503158Y-12602608D02*
X7512682Y-12612131D01*
X7512682Y-12612131D02*
X7522205Y-12631179D01*
X7522205Y-12631179D02*
X7531729Y-12669274D01*
X7531729Y-12669274D02*
X7531729Y-12716893D01*
X7531729Y-12716893D02*
X7522205Y-12754988D01*
X7522205Y-12754988D02*
X7512682Y-12774036D01*
X7512682Y-12774036D02*
X7503158Y-12783560D01*
X7503158Y-12783560D02*
X7484110Y-12793084D01*
X7484110Y-12793084D02*
X7465062Y-12793084D01*
X7465062Y-12793084D02*
X7446015Y-12783560D01*
X7446015Y-12783560D02*
X7436491Y-12774036D01*
X7436491Y-12774036D02*
X7426967Y-12754988D01*
X7426967Y-12754988D02*
X7417443Y-12716893D01*
X7417443Y-12716893D02*
X7417443Y-12669274D01*
X7417443Y-12669274D02*
X7426967Y-12631179D01*
X7426967Y-12631179D02*
X7436491Y-12612131D01*
X7436491Y-12612131D02*
X7446015Y-12602608D01*
X7446015Y-12602608D02*
X7465062Y-12593084D01*
X7655539Y-12593084D02*
X7674586Y-12593084D01*
X7674586Y-12593084D02*
X7693634Y-12602608D01*
X7693634Y-12602608D02*
X7703158Y-12612131D01*
X7703158Y-12612131D02*
X7712682Y-12631179D01*
X7712682Y-12631179D02*
X7722205Y-12669274D01*
X7722205Y-12669274D02*
X7722205Y-12716893D01*
X7722205Y-12716893D02*
X7712682Y-12754988D01*
X7712682Y-12754988D02*
X7703158Y-12774036D01*
X7703158Y-12774036D02*
X7693634Y-12783560D01*
X7693634Y-12783560D02*
X7674586Y-12793084D01*
X7674586Y-12793084D02*
X7655539Y-12793084D01*
X7655539Y-12793084D02*
X7636491Y-12783560D01*
X7636491Y-12783560D02*
X7626967Y-12774036D01*
X7626967Y-12774036D02*
X7617443Y-12754988D01*
X7617443Y-12754988D02*
X7607920Y-12716893D01*
X7607920Y-12716893D02*
X7607920Y-12669274D01*
X7607920Y-12669274D02*
X7617443Y-12631179D01*
X7617443Y-12631179D02*
X7626967Y-12612131D01*
X7626967Y-12612131D02*
X7636491Y-12602608D01*
X7636491Y-12602608D02*
X7655539Y-12593084D01*
X7807920Y-12793084D02*
X7807920Y-12659750D01*
X7807920Y-12678798D02*
X7817443Y-12669274D01*
X7817443Y-12669274D02*
X7836491Y-12659750D01*
X7836491Y-12659750D02*
X7865063Y-12659750D01*
X7865063Y-12659750D02*
X7884110Y-12669274D01*
X7884110Y-12669274D02*
X7893634Y-12688322D01*
X7893634Y-12688322D02*
X7893634Y-12793084D01*
X7893634Y-12688322D02*
X7903158Y-12669274D01*
X7903158Y-12669274D02*
X7922205Y-12659750D01*
X7922205Y-12659750D02*
X7950777Y-12659750D01*
X7950777Y-12659750D02*
X7969824Y-12669274D01*
X7969824Y-12669274D02*
X7979348Y-12688322D01*
X7979348Y-12688322D02*
X7979348Y-12793084D01*
X8074586Y-12793084D02*
X8074586Y-12659750D01*
X8074586Y-12678798D02*
X8084110Y-12669274D01*
X8084110Y-12669274D02*
X8103158Y-12659750D01*
X8103158Y-12659750D02*
X8131729Y-12659750D01*
X8131729Y-12659750D02*
X8150777Y-12669274D01*
X8150777Y-12669274D02*
X8160301Y-12688322D01*
X8160301Y-12688322D02*
X8160301Y-12793084D01*
X8160301Y-12688322D02*
X8169824Y-12669274D01*
X8169824Y-12669274D02*
X8188872Y-12659750D01*
X8188872Y-12659750D02*
X8217443Y-12659750D01*
X8217443Y-12659750D02*
X8236491Y-12669274D01*
X8236491Y-12669274D02*
X8246015Y-12688322D01*
X8246015Y-12688322D02*
X8246015Y-12793084D01*
X8636491Y-12583560D02*
X8465063Y-12840703D01*
X8893634Y-12593084D02*
X8912682Y-12593084D01*
X8912682Y-12593084D02*
X8931729Y-12602608D01*
X8931729Y-12602608D02*
X8941253Y-12612131D01*
X8941253Y-12612131D02*
X8950777Y-12631179D01*
X8950777Y-12631179D02*
X8960301Y-12669274D01*
X8960301Y-12669274D02*
X8960301Y-12716893D01*
X8960301Y-12716893D02*
X8950777Y-12754988D01*
X8950777Y-12754988D02*
X8941253Y-12774036D01*
X8941253Y-12774036D02*
X8931729Y-12783560D01*
X8931729Y-12783560D02*
X8912682Y-12793084D01*
X8912682Y-12793084D02*
X8893634Y-12793084D01*
X8893634Y-12793084D02*
X8874587Y-12783560D01*
X8874587Y-12783560D02*
X8865063Y-12774036D01*
X8865063Y-12774036D02*
X8855539Y-12754988D01*
X8855539Y-12754988D02*
X8846015Y-12716893D01*
X8846015Y-12716893D02*
X8846015Y-12669274D01*
X8846015Y-12669274D02*
X8855539Y-12631179D01*
X8855539Y-12631179D02*
X8865063Y-12612131D01*
X8865063Y-12612131D02*
X8874587Y-12602608D01*
X8874587Y-12602608D02*
X8893634Y-12593084D01*
X9046015Y-12774036D02*
X9055539Y-12783560D01*
X9055539Y-12783560D02*
X9046015Y-12793084D01*
X9046015Y-12793084D02*
X9036491Y-12783560D01*
X9036491Y-12783560D02*
X9046015Y-12774036D01*
X9046015Y-12774036D02*
X9046015Y-12793084D01*
X9179348Y-12593084D02*
X9198396Y-12593084D01*
X9198396Y-12593084D02*
X9217444Y-12602608D01*
X9217444Y-12602608D02*
X9226968Y-12612131D01*
X9226968Y-12612131D02*
X9236491Y-12631179D01*
X9236491Y-12631179D02*
X9246015Y-12669274D01*
X9246015Y-12669274D02*
X9246015Y-12716893D01*
X9246015Y-12716893D02*
X9236491Y-12754988D01*
X9236491Y-12754988D02*
X9226968Y-12774036D01*
X9226968Y-12774036D02*
X9217444Y-12783560D01*
X9217444Y-12783560D02*
X9198396Y-12793084D01*
X9198396Y-12793084D02*
X9179348Y-12793084D01*
X9179348Y-12793084D02*
X9160301Y-12783560D01*
X9160301Y-12783560D02*
X9150777Y-12774036D01*
X9150777Y-12774036D02*
X9141253Y-12754988D01*
X9141253Y-12754988D02*
X9131729Y-12716893D01*
X9131729Y-12716893D02*
X9131729Y-12669274D01*
X9131729Y-12669274D02*
X9141253Y-12631179D01*
X9141253Y-12631179D02*
X9150777Y-12612131D01*
X9150777Y-12612131D02*
X9160301Y-12602608D01*
X9160301Y-12602608D02*
X9179348Y-12593084D01*
X9312682Y-12593084D02*
X9436491Y-12593084D01*
X9436491Y-12593084D02*
X9369825Y-12669274D01*
X9369825Y-12669274D02*
X9398396Y-12669274D01*
X9398396Y-12669274D02*
X9417444Y-12678798D01*
X9417444Y-12678798D02*
X9426968Y-12688322D01*
X9426968Y-12688322D02*
X9436491Y-12707369D01*
X9436491Y-12707369D02*
X9436491Y-12754988D01*
X9436491Y-12754988D02*
X9426968Y-12774036D01*
X9426968Y-12774036D02*
X9417444Y-12783560D01*
X9417444Y-12783560D02*
X9398396Y-12793084D01*
X9398396Y-12793084D02*
X9341253Y-12793084D01*
X9341253Y-12793084D02*
X9322206Y-12783560D01*
X9322206Y-12783560D02*
X9312682Y-12774036D01*
X9626968Y-12793084D02*
X9512682Y-12793084D01*
X9569825Y-12793084D02*
X9569825Y-12593084D01*
X9569825Y-12593084D02*
X9550777Y-12621655D01*
X9550777Y-12621655D02*
X9531729Y-12640703D01*
X9531729Y-12640703D02*
X9512682Y-12650227D01*
X9807920Y-12593084D02*
X9712682Y-12593084D01*
X9712682Y-12593084D02*
X9703158Y-12688322D01*
X9703158Y-12688322D02*
X9712682Y-12678798D01*
X9712682Y-12678798D02*
X9731729Y-12669274D01*
X9731729Y-12669274D02*
X9779349Y-12669274D01*
X9779349Y-12669274D02*
X9798396Y-12678798D01*
X9798396Y-12678798D02*
X9807920Y-12688322D01*
X9807920Y-12688322D02*
X9817444Y-12707369D01*
X9817444Y-12707369D02*
X9817444Y-12754988D01*
X9817444Y-12754988D02*
X9807920Y-12774036D01*
X9807920Y-12774036D02*
X9798396Y-12783560D01*
X9798396Y-12783560D02*
X9779349Y-12793084D01*
X9779349Y-12793084D02*
X9731729Y-12793084D01*
X9731729Y-12793084D02*
X9712682Y-12783560D01*
X9712682Y-12783560D02*
X9703158Y-12774036D01*
X9893634Y-12593084D02*
X9893634Y-12631179D01*
X9969825Y-12593084D02*
X9969825Y-12631179D01*
X10265063Y-12869274D02*
X10255539Y-12859750D01*
X10255539Y-12859750D02*
X10236491Y-12831179D01*
X10236491Y-12831179D02*
X10226968Y-12812131D01*
X10226968Y-12812131D02*
X10217444Y-12783560D01*
X10217444Y-12783560D02*
X10207920Y-12735941D01*
X10207920Y-12735941D02*
X10207920Y-12697846D01*
X10207920Y-12697846D02*
X10217444Y-12650227D01*
X10217444Y-12650227D02*
X10226968Y-12621655D01*
X10226968Y-12621655D02*
X10236491Y-12602608D01*
X10236491Y-12602608D02*
X10255539Y-12574036D01*
X10255539Y-12574036D02*
X10265063Y-12564512D01*
X10426968Y-12593084D02*
X10388872Y-12593084D01*
X10388872Y-12593084D02*
X10369825Y-12602608D01*
X10369825Y-12602608D02*
X10360301Y-12612131D01*
X10360301Y-12612131D02*
X10341253Y-12640703D01*
X10341253Y-12640703D02*
X10331730Y-12678798D01*
X10331730Y-12678798D02*
X10331730Y-12754988D01*
X10331730Y-12754988D02*
X10341253Y-12774036D01*
X10341253Y-12774036D02*
X10350777Y-12783560D01*
X10350777Y-12783560D02*
X10369825Y-12793084D01*
X10369825Y-12793084D02*
X10407920Y-12793084D01*
X10407920Y-12793084D02*
X10426968Y-12783560D01*
X10426968Y-12783560D02*
X10436491Y-12774036D01*
X10436491Y-12774036D02*
X10446015Y-12754988D01*
X10446015Y-12754988D02*
X10446015Y-12707369D01*
X10446015Y-12707369D02*
X10436491Y-12688322D01*
X10436491Y-12688322D02*
X10426968Y-12678798D01*
X10426968Y-12678798D02*
X10407920Y-12669274D01*
X10407920Y-12669274D02*
X10369825Y-12669274D01*
X10369825Y-12669274D02*
X10350777Y-12678798D01*
X10350777Y-12678798D02*
X10341253Y-12688322D01*
X10341253Y-12688322D02*
X10331730Y-12707369D01*
X10522206Y-12612131D02*
X10531730Y-12602608D01*
X10531730Y-12602608D02*
X10550777Y-12593084D01*
X10550777Y-12593084D02*
X10598396Y-12593084D01*
X10598396Y-12593084D02*
X10617444Y-12602608D01*
X10617444Y-12602608D02*
X10626968Y-12612131D01*
X10626968Y-12612131D02*
X10636491Y-12631179D01*
X10636491Y-12631179D02*
X10636491Y-12650227D01*
X10636491Y-12650227D02*
X10626968Y-12678798D01*
X10626968Y-12678798D02*
X10512682Y-12793084D01*
X10512682Y-12793084D02*
X10636491Y-12793084D01*
X10874587Y-12793084D02*
X10874587Y-12593084D01*
X10960301Y-12793084D02*
X10960301Y-12688322D01*
X10960301Y-12688322D02*
X10950777Y-12669274D01*
X10950777Y-12669274D02*
X10931730Y-12659750D01*
X10931730Y-12659750D02*
X10903158Y-12659750D01*
X10903158Y-12659750D02*
X10884111Y-12669274D01*
X10884111Y-12669274D02*
X10874587Y-12678798D01*
X11084111Y-12793084D02*
X11065063Y-12783560D01*
X11065063Y-12783560D02*
X11055539Y-12774036D01*
X11055539Y-12774036D02*
X11046015Y-12754988D01*
X11046015Y-12754988D02*
X11046015Y-12697846D01*
X11046015Y-12697846D02*
X11055539Y-12678798D01*
X11055539Y-12678798D02*
X11065063Y-12669274D01*
X11065063Y-12669274D02*
X11084111Y-12659750D01*
X11084111Y-12659750D02*
X11112682Y-12659750D01*
X11112682Y-12659750D02*
X11131730Y-12669274D01*
X11131730Y-12669274D02*
X11141253Y-12678798D01*
X11141253Y-12678798D02*
X11150777Y-12697846D01*
X11150777Y-12697846D02*
X11150777Y-12754988D01*
X11150777Y-12754988D02*
X11141253Y-12774036D01*
X11141253Y-12774036D02*
X11131730Y-12783560D01*
X11131730Y-12783560D02*
X11112682Y-12793084D01*
X11112682Y-12793084D02*
X11084111Y-12793084D01*
X11265063Y-12793084D02*
X11246015Y-12783560D01*
X11246015Y-12783560D02*
X11236491Y-12764512D01*
X11236491Y-12764512D02*
X11236491Y-12593084D01*
X11417444Y-12783560D02*
X11398396Y-12793084D01*
X11398396Y-12793084D02*
X11360301Y-12793084D01*
X11360301Y-12793084D02*
X11341253Y-12783560D01*
X11341253Y-12783560D02*
X11331730Y-12764512D01*
X11331730Y-12764512D02*
X11331730Y-12688322D01*
X11331730Y-12688322D02*
X11341253Y-12669274D01*
X11341253Y-12669274D02*
X11360301Y-12659750D01*
X11360301Y-12659750D02*
X11398396Y-12659750D01*
X11398396Y-12659750D02*
X11417444Y-12669274D01*
X11417444Y-12669274D02*
X11426968Y-12688322D01*
X11426968Y-12688322D02*
X11426968Y-12707369D01*
X11426968Y-12707369D02*
X11331730Y-12726417D01*
X11503158Y-12783560D02*
X11522206Y-12793084D01*
X11522206Y-12793084D02*
X11560301Y-12793084D01*
X11560301Y-12793084D02*
X11579349Y-12783560D01*
X11579349Y-12783560D02*
X11588872Y-12764512D01*
X11588872Y-12764512D02*
X11588872Y-12754988D01*
X11588872Y-12754988D02*
X11579349Y-12735941D01*
X11579349Y-12735941D02*
X11560301Y-12726417D01*
X11560301Y-12726417D02*
X11531730Y-12726417D01*
X11531730Y-12726417D02*
X11512682Y-12716893D01*
X11512682Y-12716893D02*
X11503158Y-12697846D01*
X11503158Y-12697846D02*
X11503158Y-12688322D01*
X11503158Y-12688322D02*
X11512682Y-12669274D01*
X11512682Y-12669274D02*
X11531730Y-12659750D01*
X11531730Y-12659750D02*
X11560301Y-12659750D01*
X11560301Y-12659750D02*
X11579349Y-12669274D01*
X11655539Y-12869274D02*
X11665063Y-12859750D01*
X11665063Y-12859750D02*
X11684111Y-12831179D01*
X11684111Y-12831179D02*
X11693634Y-12812131D01*
X11693634Y-12812131D02*
X11703158Y-12783560D01*
X11703158Y-12783560D02*
X11712682Y-12735941D01*
X11712682Y-12735941D02*
X11712682Y-12697846D01*
X11712682Y-12697846D02*
X11703158Y-12650227D01*
X11703158Y-12650227D02*
X11693634Y-12621655D01*
X11693634Y-12621655D02*
X11684111Y-12602608D01*
X11684111Y-12602608D02*
X11665063Y-12574036D01*
X11665063Y-12574036D02*
X11655539Y-12564512D01*
D12*
X6690000Y-12965600D02*
G75*
G02*
X6580000Y-12965600I-55000J0D01*
G01*
X6580000Y-12965600D02*
G75*
G02*
X6690000Y-12965600I55000J0D01*
G01*
D10*
X7055539Y-13057084D02*
X6941253Y-13057084D01*
X6998396Y-13057084D02*
X6998396Y-12857084D01*
X6998396Y-12857084D02*
X6979348Y-12885655D01*
X6979348Y-12885655D02*
X6960301Y-12904703D01*
X6960301Y-12904703D02*
X6941253Y-12914227D01*
X7141253Y-13038036D02*
X7150777Y-13047560D01*
X7150777Y-13047560D02*
X7141253Y-13057084D01*
X7141253Y-13057084D02*
X7131729Y-13047560D01*
X7131729Y-13047560D02*
X7141253Y-13038036D01*
X7141253Y-13038036D02*
X7141253Y-13057084D01*
X7341253Y-13057084D02*
X7226967Y-13057084D01*
X7284110Y-13057084D02*
X7284110Y-12857084D01*
X7284110Y-12857084D02*
X7265062Y-12885655D01*
X7265062Y-12885655D02*
X7246015Y-12904703D01*
X7246015Y-12904703D02*
X7226967Y-12914227D01*
X7465062Y-12857084D02*
X7484110Y-12857084D01*
X7484110Y-12857084D02*
X7503158Y-12866608D01*
X7503158Y-12866608D02*
X7512682Y-12876131D01*
X7512682Y-12876131D02*
X7522205Y-12895179D01*
X7522205Y-12895179D02*
X7531729Y-12933274D01*
X7531729Y-12933274D02*
X7531729Y-12980893D01*
X7531729Y-12980893D02*
X7522205Y-13018988D01*
X7522205Y-13018988D02*
X7512682Y-13038036D01*
X7512682Y-13038036D02*
X7503158Y-13047560D01*
X7503158Y-13047560D02*
X7484110Y-13057084D01*
X7484110Y-13057084D02*
X7465062Y-13057084D01*
X7465062Y-13057084D02*
X7446015Y-13047560D01*
X7446015Y-13047560D02*
X7436491Y-13038036D01*
X7436491Y-13038036D02*
X7426967Y-13018988D01*
X7426967Y-13018988D02*
X7417443Y-12980893D01*
X7417443Y-12980893D02*
X7417443Y-12933274D01*
X7417443Y-12933274D02*
X7426967Y-12895179D01*
X7426967Y-12895179D02*
X7436491Y-12876131D01*
X7436491Y-12876131D02*
X7446015Y-12866608D01*
X7446015Y-12866608D02*
X7465062Y-12857084D01*
X7655539Y-12857084D02*
X7674586Y-12857084D01*
X7674586Y-12857084D02*
X7693634Y-12866608D01*
X7693634Y-12866608D02*
X7703158Y-12876131D01*
X7703158Y-12876131D02*
X7712682Y-12895179D01*
X7712682Y-12895179D02*
X7722205Y-12933274D01*
X7722205Y-12933274D02*
X7722205Y-12980893D01*
X7722205Y-12980893D02*
X7712682Y-13018988D01*
X7712682Y-13018988D02*
X7703158Y-13038036D01*
X7703158Y-13038036D02*
X7693634Y-13047560D01*
X7693634Y-13047560D02*
X7674586Y-13057084D01*
X7674586Y-13057084D02*
X7655539Y-13057084D01*
X7655539Y-13057084D02*
X7636491Y-13047560D01*
X7636491Y-13047560D02*
X7626967Y-13038036D01*
X7626967Y-13038036D02*
X7617443Y-13018988D01*
X7617443Y-13018988D02*
X7607920Y-12980893D01*
X7607920Y-12980893D02*
X7607920Y-12933274D01*
X7607920Y-12933274D02*
X7617443Y-12895179D01*
X7617443Y-12895179D02*
X7626967Y-12876131D01*
X7626967Y-12876131D02*
X7636491Y-12866608D01*
X7636491Y-12866608D02*
X7655539Y-12857084D01*
X7807920Y-13057084D02*
X7807920Y-12923750D01*
X7807920Y-12942798D02*
X7817443Y-12933274D01*
X7817443Y-12933274D02*
X7836491Y-12923750D01*
X7836491Y-12923750D02*
X7865063Y-12923750D01*
X7865063Y-12923750D02*
X7884110Y-12933274D01*
X7884110Y-12933274D02*
X7893634Y-12952322D01*
X7893634Y-12952322D02*
X7893634Y-13057084D01*
X7893634Y-12952322D02*
X7903158Y-12933274D01*
X7903158Y-12933274D02*
X7922205Y-12923750D01*
X7922205Y-12923750D02*
X7950777Y-12923750D01*
X7950777Y-12923750D02*
X7969824Y-12933274D01*
X7969824Y-12933274D02*
X7979348Y-12952322D01*
X7979348Y-12952322D02*
X7979348Y-13057084D01*
X8074586Y-13057084D02*
X8074586Y-12923750D01*
X8074586Y-12942798D02*
X8084110Y-12933274D01*
X8084110Y-12933274D02*
X8103158Y-12923750D01*
X8103158Y-12923750D02*
X8131729Y-12923750D01*
X8131729Y-12923750D02*
X8150777Y-12933274D01*
X8150777Y-12933274D02*
X8160301Y-12952322D01*
X8160301Y-12952322D02*
X8160301Y-13057084D01*
X8160301Y-12952322D02*
X8169824Y-12933274D01*
X8169824Y-12933274D02*
X8188872Y-12923750D01*
X8188872Y-12923750D02*
X8217443Y-12923750D01*
X8217443Y-12923750D02*
X8236491Y-12933274D01*
X8236491Y-12933274D02*
X8246015Y-12952322D01*
X8246015Y-12952322D02*
X8246015Y-13057084D01*
X8636491Y-12847560D02*
X8465063Y-13104703D01*
X8893634Y-12857084D02*
X8912682Y-12857084D01*
X8912682Y-12857084D02*
X8931729Y-12866608D01*
X8931729Y-12866608D02*
X8941253Y-12876131D01*
X8941253Y-12876131D02*
X8950777Y-12895179D01*
X8950777Y-12895179D02*
X8960301Y-12933274D01*
X8960301Y-12933274D02*
X8960301Y-12980893D01*
X8960301Y-12980893D02*
X8950777Y-13018988D01*
X8950777Y-13018988D02*
X8941253Y-13038036D01*
X8941253Y-13038036D02*
X8931729Y-13047560D01*
X8931729Y-13047560D02*
X8912682Y-13057084D01*
X8912682Y-13057084D02*
X8893634Y-13057084D01*
X8893634Y-13057084D02*
X8874587Y-13047560D01*
X8874587Y-13047560D02*
X8865063Y-13038036D01*
X8865063Y-13038036D02*
X8855539Y-13018988D01*
X8855539Y-13018988D02*
X8846015Y-12980893D01*
X8846015Y-12980893D02*
X8846015Y-12933274D01*
X8846015Y-12933274D02*
X8855539Y-12895179D01*
X8855539Y-12895179D02*
X8865063Y-12876131D01*
X8865063Y-12876131D02*
X8874587Y-12866608D01*
X8874587Y-12866608D02*
X8893634Y-12857084D01*
X9046015Y-13038036D02*
X9055539Y-13047560D01*
X9055539Y-13047560D02*
X9046015Y-13057084D01*
X9046015Y-13057084D02*
X9036491Y-13047560D01*
X9036491Y-13047560D02*
X9046015Y-13038036D01*
X9046015Y-13038036D02*
X9046015Y-13057084D01*
X9179348Y-12857084D02*
X9198396Y-12857084D01*
X9198396Y-12857084D02*
X9217444Y-12866608D01*
X9217444Y-12866608D02*
X9226968Y-12876131D01*
X9226968Y-12876131D02*
X9236491Y-12895179D01*
X9236491Y-12895179D02*
X9246015Y-12933274D01*
X9246015Y-12933274D02*
X9246015Y-12980893D01*
X9246015Y-12980893D02*
X9236491Y-13018988D01*
X9236491Y-13018988D02*
X9226968Y-13038036D01*
X9226968Y-13038036D02*
X9217444Y-13047560D01*
X9217444Y-13047560D02*
X9198396Y-13057084D01*
X9198396Y-13057084D02*
X9179348Y-13057084D01*
X9179348Y-13057084D02*
X9160301Y-13047560D01*
X9160301Y-13047560D02*
X9150777Y-13038036D01*
X9150777Y-13038036D02*
X9141253Y-13018988D01*
X9141253Y-13018988D02*
X9131729Y-12980893D01*
X9131729Y-12980893D02*
X9131729Y-12933274D01*
X9131729Y-12933274D02*
X9141253Y-12895179D01*
X9141253Y-12895179D02*
X9150777Y-12876131D01*
X9150777Y-12876131D02*
X9160301Y-12866608D01*
X9160301Y-12866608D02*
X9179348Y-12857084D01*
X9417444Y-12923750D02*
X9417444Y-13057084D01*
X9369825Y-12847560D02*
X9322206Y-12990417D01*
X9322206Y-12990417D02*
X9446015Y-12990417D01*
X9503158Y-12857084D02*
X9626968Y-12857084D01*
X9626968Y-12857084D02*
X9560301Y-12933274D01*
X9560301Y-12933274D02*
X9588872Y-12933274D01*
X9588872Y-12933274D02*
X9607920Y-12942798D01*
X9607920Y-12942798D02*
X9617444Y-12952322D01*
X9617444Y-12952322D02*
X9626968Y-12971369D01*
X9626968Y-12971369D02*
X9626968Y-13018988D01*
X9626968Y-13018988D02*
X9617444Y-13038036D01*
X9617444Y-13038036D02*
X9607920Y-13047560D01*
X9607920Y-13047560D02*
X9588872Y-13057084D01*
X9588872Y-13057084D02*
X9531729Y-13057084D01*
X9531729Y-13057084D02*
X9512682Y-13047560D01*
X9512682Y-13047560D02*
X9503158Y-13038036D01*
X9693634Y-12857084D02*
X9817444Y-12857084D01*
X9817444Y-12857084D02*
X9750777Y-12933274D01*
X9750777Y-12933274D02*
X9779349Y-12933274D01*
X9779349Y-12933274D02*
X9798396Y-12942798D01*
X9798396Y-12942798D02*
X9807920Y-12952322D01*
X9807920Y-12952322D02*
X9817444Y-12971369D01*
X9817444Y-12971369D02*
X9817444Y-13018988D01*
X9817444Y-13018988D02*
X9807920Y-13038036D01*
X9807920Y-13038036D02*
X9798396Y-13047560D01*
X9798396Y-13047560D02*
X9779349Y-13057084D01*
X9779349Y-13057084D02*
X9722206Y-13057084D01*
X9722206Y-13057084D02*
X9703158Y-13047560D01*
X9703158Y-13047560D02*
X9693634Y-13038036D01*
X9893634Y-12857084D02*
X9893634Y-12895179D01*
X9969825Y-12857084D02*
X9969825Y-12895179D01*
X10265063Y-13133274D02*
X10255539Y-13123750D01*
X10255539Y-13123750D02*
X10236491Y-13095179D01*
X10236491Y-13095179D02*
X10226968Y-13076131D01*
X10226968Y-13076131D02*
X10217444Y-13047560D01*
X10217444Y-13047560D02*
X10207920Y-12999941D01*
X10207920Y-12999941D02*
X10207920Y-12961846D01*
X10207920Y-12961846D02*
X10217444Y-12914227D01*
X10217444Y-12914227D02*
X10226968Y-12885655D01*
X10226968Y-12885655D02*
X10236491Y-12866608D01*
X10236491Y-12866608D02*
X10255539Y-12838036D01*
X10255539Y-12838036D02*
X10265063Y-12828512D01*
X10331730Y-12876131D02*
X10341253Y-12866608D01*
X10341253Y-12866608D02*
X10360301Y-12857084D01*
X10360301Y-12857084D02*
X10407920Y-12857084D01*
X10407920Y-12857084D02*
X10426968Y-12866608D01*
X10426968Y-12866608D02*
X10436491Y-12876131D01*
X10436491Y-12876131D02*
X10446015Y-12895179D01*
X10446015Y-12895179D02*
X10446015Y-12914227D01*
X10446015Y-12914227D02*
X10436491Y-12942798D01*
X10436491Y-12942798D02*
X10322206Y-13057084D01*
X10322206Y-13057084D02*
X10446015Y-13057084D01*
X10617444Y-12857084D02*
X10579349Y-12857084D01*
X10579349Y-12857084D02*
X10560301Y-12866608D01*
X10560301Y-12866608D02*
X10550777Y-12876131D01*
X10550777Y-12876131D02*
X10531730Y-12904703D01*
X10531730Y-12904703D02*
X10522206Y-12942798D01*
X10522206Y-12942798D02*
X10522206Y-13018988D01*
X10522206Y-13018988D02*
X10531730Y-13038036D01*
X10531730Y-13038036D02*
X10541253Y-13047560D01*
X10541253Y-13047560D02*
X10560301Y-13057084D01*
X10560301Y-13057084D02*
X10598396Y-13057084D01*
X10598396Y-13057084D02*
X10617444Y-13047560D01*
X10617444Y-13047560D02*
X10626968Y-13038036D01*
X10626968Y-13038036D02*
X10636491Y-13018988D01*
X10636491Y-13018988D02*
X10636491Y-12971369D01*
X10636491Y-12971369D02*
X10626968Y-12952322D01*
X10626968Y-12952322D02*
X10617444Y-12942798D01*
X10617444Y-12942798D02*
X10598396Y-12933274D01*
X10598396Y-12933274D02*
X10560301Y-12933274D01*
X10560301Y-12933274D02*
X10541253Y-12942798D01*
X10541253Y-12942798D02*
X10531730Y-12952322D01*
X10531730Y-12952322D02*
X10522206Y-12971369D01*
X10874587Y-13057084D02*
X10874587Y-12857084D01*
X10960301Y-13057084D02*
X10960301Y-12952322D01*
X10960301Y-12952322D02*
X10950777Y-12933274D01*
X10950777Y-12933274D02*
X10931730Y-12923750D01*
X10931730Y-12923750D02*
X10903158Y-12923750D01*
X10903158Y-12923750D02*
X10884111Y-12933274D01*
X10884111Y-12933274D02*
X10874587Y-12942798D01*
X11084111Y-13057084D02*
X11065063Y-13047560D01*
X11065063Y-13047560D02*
X11055539Y-13038036D01*
X11055539Y-13038036D02*
X11046015Y-13018988D01*
X11046015Y-13018988D02*
X11046015Y-12961846D01*
X11046015Y-12961846D02*
X11055539Y-12942798D01*
X11055539Y-12942798D02*
X11065063Y-12933274D01*
X11065063Y-12933274D02*
X11084111Y-12923750D01*
X11084111Y-12923750D02*
X11112682Y-12923750D01*
X11112682Y-12923750D02*
X11131730Y-12933274D01*
X11131730Y-12933274D02*
X11141253Y-12942798D01*
X11141253Y-12942798D02*
X11150777Y-12961846D01*
X11150777Y-12961846D02*
X11150777Y-13018988D01*
X11150777Y-13018988D02*
X11141253Y-13038036D01*
X11141253Y-13038036D02*
X11131730Y-13047560D01*
X11131730Y-13047560D02*
X11112682Y-13057084D01*
X11112682Y-13057084D02*
X11084111Y-13057084D01*
X11265063Y-13057084D02*
X11246015Y-13047560D01*
X11246015Y-13047560D02*
X11236491Y-13028512D01*
X11236491Y-13028512D02*
X11236491Y-12857084D01*
X11417444Y-13047560D02*
X11398396Y-13057084D01*
X11398396Y-13057084D02*
X11360301Y-13057084D01*
X11360301Y-13057084D02*
X11341253Y-13047560D01*
X11341253Y-13047560D02*
X11331730Y-13028512D01*
X11331730Y-13028512D02*
X11331730Y-12952322D01*
X11331730Y-12952322D02*
X11341253Y-12933274D01*
X11341253Y-12933274D02*
X11360301Y-12923750D01*
X11360301Y-12923750D02*
X11398396Y-12923750D01*
X11398396Y-12923750D02*
X11417444Y-12933274D01*
X11417444Y-12933274D02*
X11426968Y-12952322D01*
X11426968Y-12952322D02*
X11426968Y-12971369D01*
X11426968Y-12971369D02*
X11331730Y-12990417D01*
X11503158Y-13047560D02*
X11522206Y-13057084D01*
X11522206Y-13057084D02*
X11560301Y-13057084D01*
X11560301Y-13057084D02*
X11579349Y-13047560D01*
X11579349Y-13047560D02*
X11588872Y-13028512D01*
X11588872Y-13028512D02*
X11588872Y-13018988D01*
X11588872Y-13018988D02*
X11579349Y-12999941D01*
X11579349Y-12999941D02*
X11560301Y-12990417D01*
X11560301Y-12990417D02*
X11531730Y-12990417D01*
X11531730Y-12990417D02*
X11512682Y-12980893D01*
X11512682Y-12980893D02*
X11503158Y-12961846D01*
X11503158Y-12961846D02*
X11503158Y-12952322D01*
X11503158Y-12952322D02*
X11512682Y-12933274D01*
X11512682Y-12933274D02*
X11531730Y-12923750D01*
X11531730Y-12923750D02*
X11560301Y-12923750D01*
X11560301Y-12923750D02*
X11579349Y-12933274D01*
X11655539Y-13133274D02*
X11665063Y-13123750D01*
X11665063Y-13123750D02*
X11684111Y-13095179D01*
X11684111Y-13095179D02*
X11693634Y-13076131D01*
X11693634Y-13076131D02*
X11703158Y-13047560D01*
X11703158Y-13047560D02*
X11712682Y-12999941D01*
X11712682Y-12999941D02*
X11712682Y-12961846D01*
X11712682Y-12961846D02*
X11703158Y-12914227D01*
X11703158Y-12914227D02*
X11693634Y-12885655D01*
X11693634Y-12885655D02*
X11684111Y-12866608D01*
X11684111Y-12866608D02*
X11665063Y-12838036D01*
X11665063Y-12838036D02*
X11655539Y-12828512D01*
X6590000Y-13129600D02*
X6590000Y-13329600D01*
X6490000Y-13229600D02*
X6690000Y-13229600D01*
X7036491Y-13121084D02*
X6998396Y-13121084D01*
X6998396Y-13121084D02*
X6979348Y-13130608D01*
X6979348Y-13130608D02*
X6969824Y-13140131D01*
X6969824Y-13140131D02*
X6950777Y-13168703D01*
X6950777Y-13168703D02*
X6941253Y-13206798D01*
X6941253Y-13206798D02*
X6941253Y-13282988D01*
X6941253Y-13282988D02*
X6950777Y-13302036D01*
X6950777Y-13302036D02*
X6960301Y-13311560D01*
X6960301Y-13311560D02*
X6979348Y-13321084D01*
X6979348Y-13321084D02*
X7017443Y-13321084D01*
X7017443Y-13321084D02*
X7036491Y-13311560D01*
X7036491Y-13311560D02*
X7046015Y-13302036D01*
X7046015Y-13302036D02*
X7055539Y-13282988D01*
X7055539Y-13282988D02*
X7055539Y-13235369D01*
X7055539Y-13235369D02*
X7046015Y-13216322D01*
X7046015Y-13216322D02*
X7036491Y-13206798D01*
X7036491Y-13206798D02*
X7017443Y-13197274D01*
X7017443Y-13197274D02*
X6979348Y-13197274D01*
X6979348Y-13197274D02*
X6960301Y-13206798D01*
X6960301Y-13206798D02*
X6950777Y-13216322D01*
X6950777Y-13216322D02*
X6941253Y-13235369D01*
X7141253Y-13302036D02*
X7150777Y-13311560D01*
X7150777Y-13311560D02*
X7141253Y-13321084D01*
X7141253Y-13321084D02*
X7131729Y-13311560D01*
X7131729Y-13311560D02*
X7141253Y-13302036D01*
X7141253Y-13302036D02*
X7141253Y-13321084D01*
X7341253Y-13321084D02*
X7226967Y-13321084D01*
X7284110Y-13321084D02*
X7284110Y-13121084D01*
X7284110Y-13121084D02*
X7265062Y-13149655D01*
X7265062Y-13149655D02*
X7246015Y-13168703D01*
X7246015Y-13168703D02*
X7226967Y-13178227D01*
X7465062Y-13121084D02*
X7484110Y-13121084D01*
X7484110Y-13121084D02*
X7503158Y-13130608D01*
X7503158Y-13130608D02*
X7512682Y-13140131D01*
X7512682Y-13140131D02*
X7522205Y-13159179D01*
X7522205Y-13159179D02*
X7531729Y-13197274D01*
X7531729Y-13197274D02*
X7531729Y-13244893D01*
X7531729Y-13244893D02*
X7522205Y-13282988D01*
X7522205Y-13282988D02*
X7512682Y-13302036D01*
X7512682Y-13302036D02*
X7503158Y-13311560D01*
X7503158Y-13311560D02*
X7484110Y-13321084D01*
X7484110Y-13321084D02*
X7465062Y-13321084D01*
X7465062Y-13321084D02*
X7446015Y-13311560D01*
X7446015Y-13311560D02*
X7436491Y-13302036D01*
X7436491Y-13302036D02*
X7426967Y-13282988D01*
X7426967Y-13282988D02*
X7417443Y-13244893D01*
X7417443Y-13244893D02*
X7417443Y-13197274D01*
X7417443Y-13197274D02*
X7426967Y-13159179D01*
X7426967Y-13159179D02*
X7436491Y-13140131D01*
X7436491Y-13140131D02*
X7446015Y-13130608D01*
X7446015Y-13130608D02*
X7465062Y-13121084D01*
X7655539Y-13121084D02*
X7674586Y-13121084D01*
X7674586Y-13121084D02*
X7693634Y-13130608D01*
X7693634Y-13130608D02*
X7703158Y-13140131D01*
X7703158Y-13140131D02*
X7712682Y-13159179D01*
X7712682Y-13159179D02*
X7722205Y-13197274D01*
X7722205Y-13197274D02*
X7722205Y-13244893D01*
X7722205Y-13244893D02*
X7712682Y-13282988D01*
X7712682Y-13282988D02*
X7703158Y-13302036D01*
X7703158Y-13302036D02*
X7693634Y-13311560D01*
X7693634Y-13311560D02*
X7674586Y-13321084D01*
X7674586Y-13321084D02*
X7655539Y-13321084D01*
X7655539Y-13321084D02*
X7636491Y-13311560D01*
X7636491Y-13311560D02*
X7626967Y-13302036D01*
X7626967Y-13302036D02*
X7617443Y-13282988D01*
X7617443Y-13282988D02*
X7607920Y-13244893D01*
X7607920Y-13244893D02*
X7607920Y-13197274D01*
X7607920Y-13197274D02*
X7617443Y-13159179D01*
X7617443Y-13159179D02*
X7626967Y-13140131D01*
X7626967Y-13140131D02*
X7636491Y-13130608D01*
X7636491Y-13130608D02*
X7655539Y-13121084D01*
X7807920Y-13321084D02*
X7807920Y-13187750D01*
X7807920Y-13206798D02*
X7817443Y-13197274D01*
X7817443Y-13197274D02*
X7836491Y-13187750D01*
X7836491Y-13187750D02*
X7865063Y-13187750D01*
X7865063Y-13187750D02*
X7884110Y-13197274D01*
X7884110Y-13197274D02*
X7893634Y-13216322D01*
X7893634Y-13216322D02*
X7893634Y-13321084D01*
X7893634Y-13216322D02*
X7903158Y-13197274D01*
X7903158Y-13197274D02*
X7922205Y-13187750D01*
X7922205Y-13187750D02*
X7950777Y-13187750D01*
X7950777Y-13187750D02*
X7969824Y-13197274D01*
X7969824Y-13197274D02*
X7979348Y-13216322D01*
X7979348Y-13216322D02*
X7979348Y-13321084D01*
X8074586Y-13321084D02*
X8074586Y-13187750D01*
X8074586Y-13206798D02*
X8084110Y-13197274D01*
X8084110Y-13197274D02*
X8103158Y-13187750D01*
X8103158Y-13187750D02*
X8131729Y-13187750D01*
X8131729Y-13187750D02*
X8150777Y-13197274D01*
X8150777Y-13197274D02*
X8160301Y-13216322D01*
X8160301Y-13216322D02*
X8160301Y-13321084D01*
X8160301Y-13216322D02*
X8169824Y-13197274D01*
X8169824Y-13197274D02*
X8188872Y-13187750D01*
X8188872Y-13187750D02*
X8217443Y-13187750D01*
X8217443Y-13187750D02*
X8236491Y-13197274D01*
X8236491Y-13197274D02*
X8246015Y-13216322D01*
X8246015Y-13216322D02*
X8246015Y-13321084D01*
X8636491Y-13111560D02*
X8465063Y-13368703D01*
X8893634Y-13121084D02*
X8912682Y-13121084D01*
X8912682Y-13121084D02*
X8931729Y-13130608D01*
X8931729Y-13130608D02*
X8941253Y-13140131D01*
X8941253Y-13140131D02*
X8950777Y-13159179D01*
X8950777Y-13159179D02*
X8960301Y-13197274D01*
X8960301Y-13197274D02*
X8960301Y-13244893D01*
X8960301Y-13244893D02*
X8950777Y-13282988D01*
X8950777Y-13282988D02*
X8941253Y-13302036D01*
X8941253Y-13302036D02*
X8931729Y-13311560D01*
X8931729Y-13311560D02*
X8912682Y-13321084D01*
X8912682Y-13321084D02*
X8893634Y-13321084D01*
X8893634Y-13321084D02*
X8874587Y-13311560D01*
X8874587Y-13311560D02*
X8865063Y-13302036D01*
X8865063Y-13302036D02*
X8855539Y-13282988D01*
X8855539Y-13282988D02*
X8846015Y-13244893D01*
X8846015Y-13244893D02*
X8846015Y-13197274D01*
X8846015Y-13197274D02*
X8855539Y-13159179D01*
X8855539Y-13159179D02*
X8865063Y-13140131D01*
X8865063Y-13140131D02*
X8874587Y-13130608D01*
X8874587Y-13130608D02*
X8893634Y-13121084D01*
X9046015Y-13302036D02*
X9055539Y-13311560D01*
X9055539Y-13311560D02*
X9046015Y-13321084D01*
X9046015Y-13321084D02*
X9036491Y-13311560D01*
X9036491Y-13311560D02*
X9046015Y-13302036D01*
X9046015Y-13302036D02*
X9046015Y-13321084D01*
X9131729Y-13140131D02*
X9141253Y-13130608D01*
X9141253Y-13130608D02*
X9160301Y-13121084D01*
X9160301Y-13121084D02*
X9207920Y-13121084D01*
X9207920Y-13121084D02*
X9226968Y-13130608D01*
X9226968Y-13130608D02*
X9236491Y-13140131D01*
X9236491Y-13140131D02*
X9246015Y-13159179D01*
X9246015Y-13159179D02*
X9246015Y-13178227D01*
X9246015Y-13178227D02*
X9236491Y-13206798D01*
X9236491Y-13206798D02*
X9122206Y-13321084D01*
X9122206Y-13321084D02*
X9246015Y-13321084D01*
X9417444Y-13187750D02*
X9417444Y-13321084D01*
X9369825Y-13111560D02*
X9322206Y-13254417D01*
X9322206Y-13254417D02*
X9446015Y-13254417D01*
X9560301Y-13121084D02*
X9579349Y-13121084D01*
X9579349Y-13121084D02*
X9598396Y-13130608D01*
X9598396Y-13130608D02*
X9607920Y-13140131D01*
X9607920Y-13140131D02*
X9617444Y-13159179D01*
X9617444Y-13159179D02*
X9626968Y-13197274D01*
X9626968Y-13197274D02*
X9626968Y-13244893D01*
X9626968Y-13244893D02*
X9617444Y-13282988D01*
X9617444Y-13282988D02*
X9607920Y-13302036D01*
X9607920Y-13302036D02*
X9598396Y-13311560D01*
X9598396Y-13311560D02*
X9579349Y-13321084D01*
X9579349Y-13321084D02*
X9560301Y-13321084D01*
X9560301Y-13321084D02*
X9541253Y-13311560D01*
X9541253Y-13311560D02*
X9531729Y-13302036D01*
X9531729Y-13302036D02*
X9522206Y-13282988D01*
X9522206Y-13282988D02*
X9512682Y-13244893D01*
X9512682Y-13244893D02*
X9512682Y-13197274D01*
X9512682Y-13197274D02*
X9522206Y-13159179D01*
X9522206Y-13159179D02*
X9531729Y-13140131D01*
X9531729Y-13140131D02*
X9541253Y-13130608D01*
X9541253Y-13130608D02*
X9560301Y-13121084D01*
X9703158Y-13140131D02*
X9712682Y-13130608D01*
X9712682Y-13130608D02*
X9731729Y-13121084D01*
X9731729Y-13121084D02*
X9779349Y-13121084D01*
X9779349Y-13121084D02*
X9798396Y-13130608D01*
X9798396Y-13130608D02*
X9807920Y-13140131D01*
X9807920Y-13140131D02*
X9817444Y-13159179D01*
X9817444Y-13159179D02*
X9817444Y-13178227D01*
X9817444Y-13178227D02*
X9807920Y-13206798D01*
X9807920Y-13206798D02*
X9693634Y-13321084D01*
X9693634Y-13321084D02*
X9817444Y-13321084D01*
X9893634Y-13121084D02*
X9893634Y-13159179D01*
X9969825Y-13121084D02*
X9969825Y-13159179D01*
X10265063Y-13397274D02*
X10255539Y-13387750D01*
X10255539Y-13387750D02*
X10236491Y-13359179D01*
X10236491Y-13359179D02*
X10226968Y-13340131D01*
X10226968Y-13340131D02*
X10217444Y-13311560D01*
X10217444Y-13311560D02*
X10207920Y-13263941D01*
X10207920Y-13263941D02*
X10207920Y-13225846D01*
X10207920Y-13225846D02*
X10217444Y-13178227D01*
X10217444Y-13178227D02*
X10226968Y-13149655D01*
X10226968Y-13149655D02*
X10236491Y-13130608D01*
X10236491Y-13130608D02*
X10255539Y-13102036D01*
X10255539Y-13102036D02*
X10265063Y-13092512D01*
X10426968Y-13187750D02*
X10426968Y-13321084D01*
X10379349Y-13111560D02*
X10331730Y-13254417D01*
X10331730Y-13254417D02*
X10455539Y-13254417D01*
X10684111Y-13321084D02*
X10684111Y-13121084D01*
X10769825Y-13321084D02*
X10769825Y-13216322D01*
X10769825Y-13216322D02*
X10760301Y-13197274D01*
X10760301Y-13197274D02*
X10741253Y-13187750D01*
X10741253Y-13187750D02*
X10712682Y-13187750D01*
X10712682Y-13187750D02*
X10693634Y-13197274D01*
X10693634Y-13197274D02*
X10684111Y-13206798D01*
X10893634Y-13321084D02*
X10874587Y-13311560D01*
X10874587Y-13311560D02*
X10865063Y-13302036D01*
X10865063Y-13302036D02*
X10855539Y-13282988D01*
X10855539Y-13282988D02*
X10855539Y-13225846D01*
X10855539Y-13225846D02*
X10865063Y-13206798D01*
X10865063Y-13206798D02*
X10874587Y-13197274D01*
X10874587Y-13197274D02*
X10893634Y-13187750D01*
X10893634Y-13187750D02*
X10922206Y-13187750D01*
X10922206Y-13187750D02*
X10941253Y-13197274D01*
X10941253Y-13197274D02*
X10950777Y-13206798D01*
X10950777Y-13206798D02*
X10960301Y-13225846D01*
X10960301Y-13225846D02*
X10960301Y-13282988D01*
X10960301Y-13282988D02*
X10950777Y-13302036D01*
X10950777Y-13302036D02*
X10941253Y-13311560D01*
X10941253Y-13311560D02*
X10922206Y-13321084D01*
X10922206Y-13321084D02*
X10893634Y-13321084D01*
X11074587Y-13321084D02*
X11055539Y-13311560D01*
X11055539Y-13311560D02*
X11046015Y-13292512D01*
X11046015Y-13292512D02*
X11046015Y-13121084D01*
X11226968Y-13311560D02*
X11207920Y-13321084D01*
X11207920Y-13321084D02*
X11169825Y-13321084D01*
X11169825Y-13321084D02*
X11150777Y-13311560D01*
X11150777Y-13311560D02*
X11141253Y-13292512D01*
X11141253Y-13292512D02*
X11141253Y-13216322D01*
X11141253Y-13216322D02*
X11150777Y-13197274D01*
X11150777Y-13197274D02*
X11169825Y-13187750D01*
X11169825Y-13187750D02*
X11207920Y-13187750D01*
X11207920Y-13187750D02*
X11226968Y-13197274D01*
X11226968Y-13197274D02*
X11236491Y-13216322D01*
X11236491Y-13216322D02*
X11236491Y-13235369D01*
X11236491Y-13235369D02*
X11141253Y-13254417D01*
X11312682Y-13311560D02*
X11331730Y-13321084D01*
X11331730Y-13321084D02*
X11369825Y-13321084D01*
X11369825Y-13321084D02*
X11388872Y-13311560D01*
X11388872Y-13311560D02*
X11398396Y-13292512D01*
X11398396Y-13292512D02*
X11398396Y-13282988D01*
X11398396Y-13282988D02*
X11388872Y-13263941D01*
X11388872Y-13263941D02*
X11369825Y-13254417D01*
X11369825Y-13254417D02*
X11341253Y-13254417D01*
X11341253Y-13254417D02*
X11322206Y-13244893D01*
X11322206Y-13244893D02*
X11312682Y-13225846D01*
X11312682Y-13225846D02*
X11312682Y-13216322D01*
X11312682Y-13216322D02*
X11322206Y-13197274D01*
X11322206Y-13197274D02*
X11341253Y-13187750D01*
X11341253Y-13187750D02*
X11369825Y-13187750D01*
X11369825Y-13187750D02*
X11388872Y-13197274D01*
X11465063Y-13397274D02*
X11474587Y-13387750D01*
X11474587Y-13387750D02*
X11493634Y-13359179D01*
X11493634Y-13359179D02*
X11503158Y-13340131D01*
X11503158Y-13340131D02*
X11512682Y-13311560D01*
X11512682Y-13311560D02*
X11522206Y-13263941D01*
X11522206Y-13263941D02*
X11522206Y-13225846D01*
X11522206Y-13225846D02*
X11512682Y-13178227D01*
X11512682Y-13178227D02*
X11503158Y-13149655D01*
X11503158Y-13149655D02*
X11493634Y-13130608D01*
X11493634Y-13130608D02*
X11474587Y-13102036D01*
X11474587Y-13102036D02*
X11465063Y-13092512D01*
M02*
