G04 #@! TF.GenerationSoftware,KiCad,Pcbnew,8.0.6*
G04 #@! TF.CreationDate,2024-11-01T15:42:23-04:00*
G04 #@! TF.ProjectId,H_Bridge_KiCAD,485f4272-6964-4676-955f-4b694341442e,rev?*
G04 #@! TF.SameCoordinates,Original*
G04 #@! TF.FileFunction,Copper,L1,Top*
G04 #@! TF.FilePolarity,Positive*
%FSLAX46Y46*%
G04 Gerber Fmt 4.6, Leading zero omitted, Abs format (unit mm)*
G04 Created by KiCad (PCBNEW 8.0.6) date 2024-11-01 15:42:23*
%MOMM*%
%LPD*%
G01*
G04 APERTURE LIST*
G04 #@! TA.AperFunction,ComponentPad*
%ADD10R,2.000000X2.000000*%
G04 #@! TD*
G04 #@! TA.AperFunction,ComponentPad*
%ADD11O,2.000000X2.000000*%
G04 #@! TD*
G04 #@! TA.AperFunction,ComponentPad*
%ADD12C,10.160000*%
G04 #@! TD*
G04 #@! TA.AperFunction,ComponentPad*
%ADD13R,2.000000X1.905000*%
G04 #@! TD*
G04 #@! TA.AperFunction,ComponentPad*
%ADD14O,2.000000X1.905000*%
G04 #@! TD*
G04 #@! TA.AperFunction,ComponentPad*
%ADD15C,1.600000*%
G04 #@! TD*
G04 #@! TA.AperFunction,ComponentPad*
%ADD16O,1.600000X1.600000*%
G04 #@! TD*
G04 #@! TA.AperFunction,ComponentPad*
%ADD17R,1.905000X2.000000*%
G04 #@! TD*
G04 #@! TA.AperFunction,ComponentPad*
%ADD18O,1.905000X2.000000*%
G04 #@! TD*
G04 #@! TA.AperFunction,ComponentPad*
%ADD19R,1.600000X1.600000*%
G04 #@! TD*
G04 #@! TA.AperFunction,ComponentPad*
%ADD20R,1.350000X1.350000*%
G04 #@! TD*
G04 #@! TA.AperFunction,Conductor*
%ADD21C,0.200000*%
G04 #@! TD*
G04 #@! TA.AperFunction,Conductor*
%ADD22C,0.300000*%
G04 #@! TD*
G04 #@! TA.AperFunction,Conductor*
%ADD23C,1.750000*%
G04 #@! TD*
G04 APERTURE END LIST*
D10*
X175055000Y-107420000D03*
D11*
X175055000Y-112500000D03*
D12*
X161500000Y-65500000D03*
X131530000Y-65500000D03*
D13*
X104555000Y-78880000D03*
D14*
X104555000Y-81420000D03*
X104555000Y-83960000D03*
D10*
X119055000Y-78380000D03*
D11*
X119055000Y-83460000D03*
D15*
X200520000Y-104720000D03*
D16*
X210680000Y-104720000D03*
D15*
X216250000Y-80720000D03*
X221250000Y-80720000D03*
D17*
X106055000Y-66460000D03*
D18*
X108595000Y-66460000D03*
X111135000Y-66460000D03*
D15*
X210500000Y-71000000D03*
X205500000Y-71000000D03*
D19*
X213700000Y-88200000D03*
D16*
X213700000Y-90740000D03*
X213700000Y-93280000D03*
X213700000Y-95820000D03*
X221320000Y-95820000D03*
X221320000Y-93280000D03*
X221320000Y-90740000D03*
X221320000Y-88200000D03*
D17*
X189460000Y-64945000D03*
D18*
X192000000Y-64945000D03*
X194540000Y-64945000D03*
D20*
X151500000Y-118000000D03*
X92000000Y-71500000D03*
D15*
X219000000Y-66920000D03*
D16*
X219000000Y-77080000D03*
D20*
X201500000Y-69000000D03*
D19*
X177000000Y-66500000D03*
D15*
X177000000Y-69000000D03*
D13*
X188500000Y-107460000D03*
D14*
X188500000Y-110000000D03*
X188500000Y-112540000D03*
D15*
X73500000Y-69420000D03*
D16*
X73500000Y-79580000D03*
D15*
X200180000Y-86060000D03*
D16*
X200180000Y-96220000D03*
D15*
X81920000Y-105000000D03*
D16*
X92080000Y-105000000D03*
D20*
X145000000Y-118000000D03*
D19*
X73200000Y-91700000D03*
D16*
X73200000Y-94240000D03*
X73200000Y-96780000D03*
X73200000Y-99320000D03*
X80820000Y-99320000D03*
X80820000Y-96780000D03*
X80820000Y-94240000D03*
X80820000Y-91700000D03*
D15*
X89080000Y-66500000D03*
D16*
X78920000Y-66500000D03*
D20*
X142000000Y-118000000D03*
D12*
X133500000Y-93000000D03*
X163470000Y-93000000D03*
D10*
X175055000Y-78460000D03*
D11*
X175055000Y-83540000D03*
D15*
X199420000Y-82000000D03*
D16*
X209580000Y-82000000D03*
D13*
X188555000Y-77960000D03*
D14*
X188555000Y-80500000D03*
X188555000Y-83040000D03*
D15*
X92500000Y-87920000D03*
D16*
X92500000Y-98080000D03*
D15*
X174500000Y-62000000D03*
X169500000Y-62000000D03*
X200500000Y-112500000D03*
D16*
X210660000Y-112500000D03*
D19*
X86000000Y-98810000D03*
D16*
X86000000Y-91190000D03*
D15*
X81840000Y-111500000D03*
D16*
X92000000Y-111500000D03*
D15*
X205340000Y-64720000D03*
D16*
X215500000Y-64720000D03*
D19*
X207500000Y-95310000D03*
D16*
X207500000Y-87690000D03*
D10*
X119000000Y-107000000D03*
D11*
X119000000Y-112080000D03*
D15*
X82420000Y-83500000D03*
D16*
X92580000Y-83500000D03*
D20*
X148500000Y-118000000D03*
D15*
X76750000Y-85000000D03*
X71750000Y-85000000D03*
X84000000Y-76000000D03*
X89000000Y-76000000D03*
D13*
X105055000Y-106920000D03*
D14*
X105055000Y-109460000D03*
X105055000Y-112000000D03*
D21*
X92000000Y-71500000D02*
X89080000Y-71500000D01*
D22*
X89080000Y-75420000D02*
X89080000Y-71500000D01*
X73200000Y-91700000D02*
X74350000Y-90550000D01*
X74350000Y-90550000D02*
X85360000Y-90550000D01*
X89000000Y-76000000D02*
X89000000Y-75500000D01*
X108595000Y-66460000D02*
X107245000Y-67810000D01*
X89000000Y-75500000D02*
X89080000Y-75420000D01*
X89080000Y-71500000D02*
X89080000Y-66500000D01*
X85360000Y-90550000D02*
X86000000Y-91190000D01*
X90390000Y-67810000D02*
X89080000Y-66500000D01*
X107245000Y-67810000D02*
X90390000Y-67810000D01*
X92000000Y-111500000D02*
X92500000Y-111500000D01*
D23*
X174635000Y-112080000D02*
X175055000Y-112500000D01*
X119000000Y-112080000D02*
X174635000Y-112080000D01*
D22*
X162000000Y-65500000D02*
X165500000Y-62000000D01*
D23*
X175055000Y-112500000D02*
X188460000Y-112500000D01*
X188460000Y-112500000D02*
X188500000Y-112540000D01*
D22*
X161500000Y-65500000D02*
X162000000Y-65500000D01*
D23*
X105135000Y-112080000D02*
X105055000Y-112000000D01*
X119000000Y-112080000D02*
X105135000Y-112080000D01*
D22*
X72000000Y-94500000D02*
X72940000Y-94500000D01*
X76750000Y-85000000D02*
X72000000Y-89750000D01*
X86000000Y-98810000D02*
X85360000Y-98170000D01*
X85360000Y-98170000D02*
X77130000Y-98170000D01*
X77130000Y-98170000D02*
X73200000Y-94240000D01*
X72000000Y-89750000D02*
X72000000Y-94500000D01*
X72940000Y-94500000D02*
X73200000Y-94240000D01*
D23*
X119055000Y-93000000D02*
X133500000Y-93000000D01*
D22*
X92500000Y-98080000D02*
X99420000Y-98080000D01*
D23*
X110460000Y-109460000D02*
X105055000Y-109460000D01*
X110500000Y-109500000D02*
X110460000Y-109460000D01*
D22*
X71500000Y-87750000D02*
X71500000Y-97620000D01*
D23*
X104500000Y-93000000D02*
X112000000Y-100500000D01*
X104500000Y-93000000D02*
X104555000Y-92945000D01*
X112000000Y-109500000D02*
X110500000Y-109500000D01*
D22*
X92500000Y-98080000D02*
X90110000Y-100470000D01*
X74350000Y-100470000D02*
X73200000Y-99320000D01*
X71750000Y-87500000D02*
X71750000Y-85000000D01*
X90110000Y-100470000D02*
X74350000Y-100470000D01*
D23*
X119055000Y-83460000D02*
X119055000Y-93000000D01*
X112000000Y-100500000D02*
X112000000Y-109500000D01*
D22*
X71500000Y-97620000D02*
X73200000Y-99320000D01*
D23*
X119055000Y-93000000D02*
X119055000Y-106945000D01*
X119055000Y-93000000D02*
X104500000Y-93000000D01*
X104555000Y-92945000D02*
X104555000Y-83960000D01*
D21*
X119055000Y-106945000D02*
X119000000Y-107000000D01*
D22*
X71500000Y-87750000D02*
X71750000Y-87500000D01*
X99420000Y-98080000D02*
X104500000Y-93000000D01*
X205340000Y-64720000D02*
X205340000Y-69000000D01*
D21*
X201500000Y-69000000D02*
X205340000Y-69000000D01*
D22*
X205340000Y-69000000D02*
X205340000Y-71130000D01*
D21*
X196055000Y-69000000D02*
X201500000Y-69000000D01*
X192000000Y-64945000D02*
X196055000Y-69000000D01*
D22*
X216250000Y-88190000D02*
X213700000Y-90740000D01*
X216250000Y-80720000D02*
X216250000Y-88190000D01*
X212900001Y-96619999D02*
X200579999Y-96619999D01*
X200579999Y-96619999D02*
X200180000Y-96220000D01*
X218750000Y-90770000D02*
X213700000Y-95820000D01*
D23*
X182000000Y-93000000D02*
X182000000Y-106155000D01*
X185845000Y-110000000D02*
X188500000Y-110000000D01*
D22*
X200180000Y-96220000D02*
X191830000Y-96220000D01*
D23*
X175055000Y-93500000D02*
X175055000Y-107420000D01*
X182000000Y-93000000D02*
X188500000Y-93000000D01*
X188555000Y-92945000D02*
X188555000Y-83040000D01*
D22*
X213700000Y-95820000D02*
X212900001Y-96619999D01*
X191830000Y-96220000D02*
X188555000Y-92945000D01*
D23*
X175055000Y-83540000D02*
X175055000Y-93500000D01*
X163470000Y-93000000D02*
X182000000Y-93000000D01*
D22*
X218750000Y-90770000D02*
X218750000Y-83220000D01*
X218750000Y-83220000D02*
X221250000Y-80720000D01*
D23*
X188500000Y-93000000D02*
X188555000Y-92945000D01*
X182000000Y-106155000D02*
X185845000Y-110000000D01*
X171500000Y-78380000D02*
X174975000Y-78380000D01*
D21*
X174975000Y-78380000D02*
X175055000Y-78460000D01*
D23*
X119055000Y-78380000D02*
X116015000Y-81420000D01*
D22*
X111135000Y-66460000D02*
X130570000Y-66460000D01*
D23*
X188555000Y-80500000D02*
X177095000Y-80500000D01*
D22*
X172750000Y-62000000D02*
X191595000Y-62000000D01*
D23*
X177095000Y-80500000D02*
X175055000Y-78460000D01*
D22*
X191595000Y-62000000D02*
X194540000Y-64945000D01*
D23*
X144410000Y-78380000D02*
X131530000Y-65500000D01*
X146500000Y-78380000D02*
X144410000Y-78380000D01*
D22*
X171500000Y-78380000D02*
X171500000Y-63250000D01*
X130570000Y-66460000D02*
X131530000Y-65500000D01*
X171500000Y-63250000D02*
X172750000Y-62000000D01*
D23*
X116015000Y-81420000D02*
X104555000Y-81420000D01*
X120500000Y-78380000D02*
X119055000Y-78380000D01*
D21*
X174500000Y-64000000D02*
X177000000Y-66500000D01*
X174500000Y-62000000D02*
X174500000Y-64000000D01*
D23*
X120500000Y-78380000D02*
X146500000Y-78380000D01*
X146500000Y-78380000D02*
X171500000Y-78380000D01*
D22*
X99935000Y-83500000D02*
X104555000Y-78880000D01*
X92580000Y-83500000D02*
X99935000Y-83500000D01*
X92500000Y-83580000D02*
X92580000Y-83500000D01*
X92500000Y-87920000D02*
X92500000Y-83580000D01*
X85580000Y-111500000D02*
X92080000Y-105000000D01*
X105055000Y-106920000D02*
X94000000Y-106920000D01*
X81840000Y-111500000D02*
X85580000Y-111500000D01*
X94000000Y-106920000D02*
X92080000Y-105000000D01*
X198500000Y-78040000D02*
X198420000Y-77960000D01*
X200180000Y-86060000D02*
X200180000Y-82760000D01*
X198500000Y-81080000D02*
X198500000Y-78040000D01*
X200180000Y-82760000D02*
X199420000Y-82000000D01*
X199420000Y-82000000D02*
X198500000Y-81080000D01*
X198420000Y-77960000D02*
X188555000Y-77960000D01*
X200520000Y-112480000D02*
X200500000Y-112500000D01*
X200520000Y-104720000D02*
X200520000Y-112480000D01*
X188500000Y-107460000D02*
X197780000Y-107460000D01*
X197780000Y-107460000D02*
X200520000Y-104720000D01*
X76420000Y-66500000D02*
X73500000Y-69420000D01*
X78920000Y-66500000D02*
X76420000Y-66500000D01*
X81920000Y-63500000D02*
X78920000Y-66500000D01*
X103095000Y-63500000D02*
X81920000Y-63500000D01*
X106055000Y-66460000D02*
X103095000Y-63500000D01*
X216800000Y-64720000D02*
X219000000Y-66920000D01*
X215500000Y-64720000D02*
X216800000Y-64720000D01*
X213700000Y-93280000D02*
X209580000Y-89160000D01*
X209580000Y-89160000D02*
X209580000Y-82000000D01*
X220170000Y-89350000D02*
X220170000Y-95230000D01*
X220170000Y-95230000D02*
X210680000Y-104720000D01*
X221320000Y-88200000D02*
X220170000Y-89350000D01*
G04 #@! TA.AperFunction,Conductor*
G36*
X79512902Y-91220185D02*
G01*
X79558657Y-91272989D01*
X79568601Y-91342147D01*
X79565638Y-91356593D01*
X79534366Y-91473302D01*
X79534364Y-91473313D01*
X79514532Y-91699998D01*
X79514532Y-91700001D01*
X79534364Y-91926686D01*
X79534366Y-91926697D01*
X79593258Y-92146488D01*
X79593261Y-92146497D01*
X79689431Y-92352732D01*
X79689432Y-92352734D01*
X79819954Y-92539141D01*
X79980858Y-92700045D01*
X79980861Y-92700047D01*
X80167266Y-92830568D01*
X80225865Y-92857893D01*
X80278305Y-92904065D01*
X80297457Y-92971258D01*
X80277242Y-93038139D01*
X80225867Y-93082657D01*
X80167515Y-93109867D01*
X79981179Y-93240342D01*
X79820342Y-93401179D01*
X79689865Y-93587517D01*
X79593734Y-93793673D01*
X79593730Y-93793682D01*
X79541127Y-93989999D01*
X79541128Y-93990000D01*
X80504314Y-93990000D01*
X80499920Y-93994394D01*
X80447259Y-94085606D01*
X80420000Y-94187339D01*
X80420000Y-94292661D01*
X80447259Y-94394394D01*
X80499920Y-94485606D01*
X80504314Y-94490000D01*
X79541128Y-94490000D01*
X79593730Y-94686317D01*
X79593734Y-94686326D01*
X79689865Y-94892482D01*
X79820342Y-95078820D01*
X79981179Y-95239657D01*
X80167518Y-95370134D01*
X80167520Y-95370135D01*
X80225865Y-95397342D01*
X80278305Y-95443514D01*
X80297457Y-95510707D01*
X80277242Y-95577589D01*
X80225867Y-95622105D01*
X80225275Y-95622382D01*
X80167264Y-95649433D01*
X79980858Y-95779954D01*
X79819954Y-95940858D01*
X79689432Y-96127265D01*
X79689431Y-96127267D01*
X79593261Y-96333502D01*
X79593258Y-96333511D01*
X79534366Y-96553302D01*
X79534364Y-96553313D01*
X79514532Y-96779998D01*
X79514532Y-96780001D01*
X79534364Y-97006686D01*
X79534366Y-97006697D01*
X79593258Y-97226488D01*
X79593260Y-97226492D01*
X79593261Y-97226496D01*
X79613780Y-97270499D01*
X79647632Y-97343095D01*
X79658124Y-97412173D01*
X79629604Y-97475957D01*
X79571127Y-97514196D01*
X79535250Y-97519500D01*
X77450808Y-97519500D01*
X77383769Y-97499815D01*
X77363127Y-97483181D01*
X74506884Y-94626938D01*
X74473399Y-94565615D01*
X74474791Y-94507162D01*
X74485633Y-94466699D01*
X74485632Y-94466699D01*
X74485635Y-94466692D01*
X74505468Y-94240000D01*
X74485635Y-94013308D01*
X74426739Y-93793504D01*
X74330568Y-93587266D01*
X74200047Y-93400861D01*
X74200045Y-93400858D01*
X74039143Y-93239956D01*
X74014536Y-93222726D01*
X73970912Y-93168149D01*
X73963719Y-93098650D01*
X73995241Y-93036296D01*
X74055471Y-93000882D01*
X74072404Y-92997861D01*
X74107483Y-92994091D01*
X74242331Y-92943796D01*
X74357546Y-92857546D01*
X74443796Y-92742331D01*
X74494091Y-92607483D01*
X74500500Y-92547873D01*
X74500499Y-91370808D01*
X74520184Y-91303770D01*
X74536819Y-91283127D01*
X74583129Y-91236818D01*
X74644452Y-91203334D01*
X74670809Y-91200500D01*
X79445863Y-91200500D01*
X79512902Y-91220185D01*
G37*
G04 #@! TD.AperFunction*
G04 #@! TA.AperFunction,Conductor*
G36*
X225942539Y-58520185D02*
G01*
X225988294Y-58572989D01*
X225999500Y-58624500D01*
X225999500Y-119891500D01*
X225979815Y-119958539D01*
X225927011Y-120004294D01*
X225875500Y-120015500D01*
X67624500Y-120015500D01*
X67557461Y-119995815D01*
X67511706Y-119943011D01*
X67500500Y-119891500D01*
X67500500Y-116897648D01*
X69199500Y-116897648D01*
X69199500Y-117102351D01*
X69231522Y-117304534D01*
X69294781Y-117499223D01*
X69387715Y-117681613D01*
X69508028Y-117847213D01*
X69652786Y-117991971D01*
X69807749Y-118104556D01*
X69818390Y-118112287D01*
X69934607Y-118171503D01*
X70000776Y-118205218D01*
X70000778Y-118205218D01*
X70000781Y-118205220D01*
X70105137Y-118239127D01*
X70195465Y-118268477D01*
X70296557Y-118284488D01*
X70397648Y-118300500D01*
X70397649Y-118300500D01*
X70602351Y-118300500D01*
X70602352Y-118300500D01*
X70804534Y-118268477D01*
X70999219Y-118205220D01*
X71181610Y-118112287D01*
X71274590Y-118044732D01*
X71347213Y-117991971D01*
X71347215Y-117991968D01*
X71347219Y-117991966D01*
X71491966Y-117847219D01*
X71491968Y-117847215D01*
X71491971Y-117847213D01*
X71544732Y-117774590D01*
X71612287Y-117681610D01*
X71705220Y-117499219D01*
X71768477Y-117304534D01*
X71772817Y-117277135D01*
X140824500Y-117277135D01*
X140824500Y-118722870D01*
X140824501Y-118722876D01*
X140830908Y-118782483D01*
X140881202Y-118917328D01*
X140881206Y-118917335D01*
X140967452Y-119032544D01*
X140967455Y-119032547D01*
X141082664Y-119118793D01*
X141082671Y-119118797D01*
X141217517Y-119169091D01*
X141217516Y-119169091D01*
X141224444Y-119169835D01*
X141277127Y-119175500D01*
X142722872Y-119175499D01*
X142782483Y-119169091D01*
X142917331Y-119118796D01*
X143032546Y-119032546D01*
X143118796Y-118917331D01*
X143169091Y-118782483D01*
X143175500Y-118722873D01*
X143175499Y-117277135D01*
X143824500Y-117277135D01*
X143824500Y-118722870D01*
X143824501Y-118722876D01*
X143830908Y-118782483D01*
X143881202Y-118917328D01*
X143881206Y-118917335D01*
X143967452Y-119032544D01*
X143967455Y-119032547D01*
X144082664Y-119118793D01*
X144082671Y-119118797D01*
X144217517Y-119169091D01*
X144217516Y-119169091D01*
X144224444Y-119169835D01*
X144277127Y-119175500D01*
X145722872Y-119175499D01*
X145782483Y-119169091D01*
X145917331Y-119118796D01*
X146032546Y-119032546D01*
X146118796Y-118917331D01*
X146169091Y-118782483D01*
X146175500Y-118722873D01*
X146175499Y-117277135D01*
X147324500Y-117277135D01*
X147324500Y-118722870D01*
X147324501Y-118722876D01*
X147330908Y-118782483D01*
X147381202Y-118917328D01*
X147381206Y-118917335D01*
X147467452Y-119032544D01*
X147467455Y-119032547D01*
X147582664Y-119118793D01*
X147582671Y-119118797D01*
X147717517Y-119169091D01*
X147717516Y-119169091D01*
X147724444Y-119169835D01*
X147777127Y-119175500D01*
X149222872Y-119175499D01*
X149282483Y-119169091D01*
X149417331Y-119118796D01*
X149532546Y-119032546D01*
X149618796Y-118917331D01*
X149669091Y-118782483D01*
X149675500Y-118722873D01*
X149675499Y-117277135D01*
X150324500Y-117277135D01*
X150324500Y-118722870D01*
X150324501Y-118722876D01*
X150330908Y-118782483D01*
X150381202Y-118917328D01*
X150381206Y-118917335D01*
X150467452Y-119032544D01*
X150467455Y-119032547D01*
X150582664Y-119118793D01*
X150582671Y-119118797D01*
X150717517Y-119169091D01*
X150717516Y-119169091D01*
X150724444Y-119169835D01*
X150777127Y-119175500D01*
X152222872Y-119175499D01*
X152282483Y-119169091D01*
X152417331Y-119118796D01*
X152532546Y-119032546D01*
X152618796Y-118917331D01*
X152669091Y-118782483D01*
X152675500Y-118722873D01*
X152675499Y-117277128D01*
X152669091Y-117217517D01*
X152626137Y-117102352D01*
X152618797Y-117082671D01*
X152618793Y-117082664D01*
X152532547Y-116967455D01*
X152532544Y-116967452D01*
X152439299Y-116897648D01*
X221699500Y-116897648D01*
X221699500Y-117102351D01*
X221731522Y-117304534D01*
X221794781Y-117499223D01*
X221887715Y-117681613D01*
X222008028Y-117847213D01*
X222152786Y-117991971D01*
X222307749Y-118104556D01*
X222318390Y-118112287D01*
X222434607Y-118171503D01*
X222500776Y-118205218D01*
X222500778Y-118205218D01*
X222500781Y-118205220D01*
X222605137Y-118239127D01*
X222695465Y-118268477D01*
X222796557Y-118284488D01*
X222897648Y-118300500D01*
X222897649Y-118300500D01*
X223102351Y-118300500D01*
X223102352Y-118300500D01*
X223304534Y-118268477D01*
X223499219Y-118205220D01*
X223681610Y-118112287D01*
X223774590Y-118044732D01*
X223847213Y-117991971D01*
X223847215Y-117991968D01*
X223847219Y-117991966D01*
X223991966Y-117847219D01*
X223991968Y-117847215D01*
X223991971Y-117847213D01*
X224044732Y-117774590D01*
X224112287Y-117681610D01*
X224205220Y-117499219D01*
X224268477Y-117304534D01*
X224300500Y-117102352D01*
X224300500Y-116897648D01*
X224289929Y-116830908D01*
X224268477Y-116695465D01*
X224205218Y-116500776D01*
X224171503Y-116434607D01*
X224112287Y-116318390D01*
X224104556Y-116307749D01*
X223991971Y-116152786D01*
X223847213Y-116008028D01*
X223681613Y-115887715D01*
X223681612Y-115887714D01*
X223681610Y-115887713D01*
X223624653Y-115858691D01*
X223499223Y-115794781D01*
X223304534Y-115731522D01*
X223129995Y-115703878D01*
X223102352Y-115699500D01*
X222897648Y-115699500D01*
X222873329Y-115703351D01*
X222695465Y-115731522D01*
X222500776Y-115794781D01*
X222318386Y-115887715D01*
X222152786Y-116008028D01*
X222008028Y-116152786D01*
X221887715Y-116318386D01*
X221794781Y-116500776D01*
X221731522Y-116695465D01*
X221699500Y-116897648D01*
X152439299Y-116897648D01*
X152417335Y-116881206D01*
X152417328Y-116881202D01*
X152282482Y-116830908D01*
X152282483Y-116830908D01*
X152222883Y-116824501D01*
X152222881Y-116824500D01*
X152222873Y-116824500D01*
X152222864Y-116824500D01*
X150777129Y-116824500D01*
X150777123Y-116824501D01*
X150717516Y-116830908D01*
X150582671Y-116881202D01*
X150582664Y-116881206D01*
X150467455Y-116967452D01*
X150467452Y-116967455D01*
X150381206Y-117082664D01*
X150381202Y-117082671D01*
X150330908Y-117217517D01*
X150324501Y-117277116D01*
X150324501Y-117277123D01*
X150324500Y-117277135D01*
X149675499Y-117277135D01*
X149675499Y-117277128D01*
X149669091Y-117217517D01*
X149626137Y-117102352D01*
X149618797Y-117082671D01*
X149618793Y-117082664D01*
X149532547Y-116967455D01*
X149532544Y-116967452D01*
X149417335Y-116881206D01*
X149417328Y-116881202D01*
X149282482Y-116830908D01*
X149282483Y-116830908D01*
X149222883Y-116824501D01*
X149222881Y-116824500D01*
X149222873Y-116824500D01*
X149222864Y-116824500D01*
X147777129Y-116824500D01*
X147777123Y-116824501D01*
X147717516Y-116830908D01*
X147582671Y-116881202D01*
X147582664Y-116881206D01*
X147467455Y-116967452D01*
X147467452Y-116967455D01*
X147381206Y-117082664D01*
X147381202Y-117082671D01*
X147330908Y-117217517D01*
X147324501Y-117277116D01*
X147324501Y-117277123D01*
X147324500Y-117277135D01*
X146175499Y-117277135D01*
X146175499Y-117277128D01*
X146169091Y-117217517D01*
X146126137Y-117102352D01*
X146118797Y-117082671D01*
X146118793Y-117082664D01*
X146032547Y-116967455D01*
X146032544Y-116967452D01*
X145917335Y-116881206D01*
X145917328Y-116881202D01*
X145782482Y-116830908D01*
X145782483Y-116830908D01*
X145722883Y-116824501D01*
X145722881Y-116824500D01*
X145722873Y-116824500D01*
X145722864Y-116824500D01*
X144277129Y-116824500D01*
X144277123Y-116824501D01*
X144217516Y-116830908D01*
X144082671Y-116881202D01*
X144082664Y-116881206D01*
X143967455Y-116967452D01*
X143967452Y-116967455D01*
X143881206Y-117082664D01*
X143881202Y-117082671D01*
X143830908Y-117217517D01*
X143824501Y-117277116D01*
X143824501Y-117277123D01*
X143824500Y-117277135D01*
X143175499Y-117277135D01*
X143175499Y-117277128D01*
X143169091Y-117217517D01*
X143126137Y-117102352D01*
X143118797Y-117082671D01*
X143118793Y-117082664D01*
X143032547Y-116967455D01*
X143032544Y-116967452D01*
X142917335Y-116881206D01*
X142917328Y-116881202D01*
X142782482Y-116830908D01*
X142782483Y-116830908D01*
X142722883Y-116824501D01*
X142722881Y-116824500D01*
X142722873Y-116824500D01*
X142722864Y-116824500D01*
X141277129Y-116824500D01*
X141277123Y-116824501D01*
X141217516Y-116830908D01*
X141082671Y-116881202D01*
X141082664Y-116881206D01*
X140967455Y-116967452D01*
X140967452Y-116967455D01*
X140881206Y-117082664D01*
X140881202Y-117082671D01*
X140830908Y-117217517D01*
X140824501Y-117277116D01*
X140824501Y-117277123D01*
X140824500Y-117277135D01*
X71772817Y-117277135D01*
X71800500Y-117102352D01*
X71800500Y-116897648D01*
X71789929Y-116830908D01*
X71768477Y-116695465D01*
X71705218Y-116500776D01*
X71671503Y-116434607D01*
X71612287Y-116318390D01*
X71604556Y-116307749D01*
X71491971Y-116152786D01*
X71347213Y-116008028D01*
X71181613Y-115887715D01*
X71181612Y-115887714D01*
X71181610Y-115887713D01*
X71124653Y-115858691D01*
X70999223Y-115794781D01*
X70804534Y-115731522D01*
X70629995Y-115703878D01*
X70602352Y-115699500D01*
X70397648Y-115699500D01*
X70373329Y-115703351D01*
X70195465Y-115731522D01*
X70000776Y-115794781D01*
X69818386Y-115887715D01*
X69652786Y-116008028D01*
X69508028Y-116152786D01*
X69387715Y-116318386D01*
X69294781Y-116500776D01*
X69231522Y-116695465D01*
X69199500Y-116897648D01*
X67500500Y-116897648D01*
X67500500Y-104999998D01*
X80614532Y-104999998D01*
X80614532Y-105000001D01*
X80634364Y-105226686D01*
X80634366Y-105226697D01*
X80693258Y-105446488D01*
X80693261Y-105446497D01*
X80789431Y-105652732D01*
X80789432Y-105652734D01*
X80919954Y-105839141D01*
X81080858Y-106000045D01*
X81090791Y-106007000D01*
X81267266Y-106130568D01*
X81473504Y-106226739D01*
X81693308Y-106285635D01*
X81855230Y-106299801D01*
X81919998Y-106305468D01*
X81920000Y-106305468D01*
X81920002Y-106305468D01*
X81976673Y-106300509D01*
X82146692Y-106285635D01*
X82366496Y-106226739D01*
X82572734Y-106130568D01*
X82759139Y-106000047D01*
X82920047Y-105839139D01*
X83050568Y-105652734D01*
X83146739Y-105446496D01*
X83205635Y-105226692D01*
X83225468Y-105000000D01*
X83205635Y-104773308D01*
X83146739Y-104553504D01*
X83050568Y-104347266D01*
X82920047Y-104160861D01*
X82920045Y-104160858D01*
X82759141Y-103999954D01*
X82572734Y-103869432D01*
X82572732Y-103869431D01*
X82366497Y-103773261D01*
X82366488Y-103773258D01*
X82146697Y-103714366D01*
X82146693Y-103714365D01*
X82146692Y-103714365D01*
X82146691Y-103714364D01*
X82146686Y-103714364D01*
X81920002Y-103694532D01*
X81919998Y-103694532D01*
X81693313Y-103714364D01*
X81693302Y-103714366D01*
X81473511Y-103773258D01*
X81473502Y-103773261D01*
X81267267Y-103869431D01*
X81267265Y-103869432D01*
X81080858Y-103999954D01*
X80919954Y-104160858D01*
X80789432Y-104347265D01*
X80789431Y-104347267D01*
X80693261Y-104553502D01*
X80693258Y-104553511D01*
X80634366Y-104773302D01*
X80634364Y-104773313D01*
X80614532Y-104999998D01*
X67500500Y-104999998D01*
X67500500Y-84999998D01*
X70444532Y-84999998D01*
X70444532Y-85000001D01*
X70464364Y-85226686D01*
X70464366Y-85226697D01*
X70523258Y-85446488D01*
X70523261Y-85446497D01*
X70619431Y-85652732D01*
X70619432Y-85652734D01*
X70749954Y-85839141D01*
X70910855Y-86000042D01*
X70910858Y-86000044D01*
X70910861Y-86000047D01*
X71046626Y-86095109D01*
X71090248Y-86149683D01*
X71099500Y-86196682D01*
X71099500Y-87179192D01*
X71079815Y-87246231D01*
X71063181Y-87266873D01*
X70994722Y-87335331D01*
X70994718Y-87335336D01*
X70950187Y-87401985D01*
X70950185Y-87401988D01*
X70923539Y-87441864D01*
X70923533Y-87441875D01*
X70874499Y-87560255D01*
X70874497Y-87560261D01*
X70849500Y-87685928D01*
X70849500Y-87685931D01*
X70849500Y-97684069D01*
X70863855Y-97756236D01*
X70863857Y-97756243D01*
X70863857Y-97756245D01*
X70874497Y-97809736D01*
X70874499Y-97809744D01*
X70916262Y-97910570D01*
X70923535Y-97928127D01*
X70963181Y-97987462D01*
X70994726Y-98034673D01*
X70994727Y-98034674D01*
X71893115Y-98933061D01*
X71926600Y-98994384D01*
X71925209Y-99052834D01*
X71914367Y-99093299D01*
X71914364Y-99093313D01*
X71894532Y-99319998D01*
X71894532Y-99320001D01*
X71914364Y-99546686D01*
X71914366Y-99546697D01*
X71973258Y-99766488D01*
X71973261Y-99766497D01*
X72069431Y-99972732D01*
X72069432Y-99972734D01*
X72199954Y-100159141D01*
X72360858Y-100320045D01*
X72360861Y-100320047D01*
X72547266Y-100450568D01*
X72753504Y-100546739D01*
X72973308Y-100605635D01*
X73135230Y-100619801D01*
X73199998Y-100625468D01*
X73200000Y-100625468D01*
X73200002Y-100625468D01*
X73231421Y-100622719D01*
X73426692Y-100605635D01*
X73467162Y-100594791D01*
X73537012Y-100596452D01*
X73586938Y-100626884D01*
X73935325Y-100975272D01*
X73935331Y-100975277D01*
X74041874Y-101046466D01*
X74111221Y-101075189D01*
X74160256Y-101095501D01*
X74160259Y-101095501D01*
X74160260Y-101095502D01*
X74285928Y-101120500D01*
X74285931Y-101120500D01*
X90174071Y-101120500D01*
X90258615Y-101103682D01*
X90299744Y-101095501D01*
X90418127Y-101046465D01*
X90524669Y-100975277D01*
X92113062Y-99386882D01*
X92174383Y-99353399D01*
X92232834Y-99354790D01*
X92273308Y-99365635D01*
X92435230Y-99379801D01*
X92499998Y-99385468D01*
X92500000Y-99385468D01*
X92500002Y-99385468D01*
X92556673Y-99380509D01*
X92726692Y-99365635D01*
X92946496Y-99306739D01*
X93152734Y-99210568D01*
X93339139Y-99080047D01*
X93500047Y-98919139D01*
X93586618Y-98795502D01*
X93595108Y-98783377D01*
X93649685Y-98739752D01*
X93696683Y-98730500D01*
X99484071Y-98730500D01*
X99568615Y-98713682D01*
X99609744Y-98705501D01*
X99728127Y-98656465D01*
X99781899Y-98620536D01*
X99834669Y-98585277D01*
X103899666Y-94520278D01*
X103960989Y-94486794D01*
X104030681Y-94491778D01*
X104075028Y-94520279D01*
X110588181Y-101033432D01*
X110621666Y-101094755D01*
X110624500Y-101121113D01*
X110624500Y-107960500D01*
X110604815Y-108027539D01*
X110552011Y-108073294D01*
X110500500Y-108084500D01*
X106675900Y-108084500D01*
X106608861Y-108064815D01*
X106563106Y-108012011D01*
X106552611Y-107947245D01*
X106553029Y-107943346D01*
X106555500Y-107920373D01*
X106555499Y-105919628D01*
X106549091Y-105860017D01*
X106545566Y-105850567D01*
X106498797Y-105725171D01*
X106498793Y-105725164D01*
X106412547Y-105609955D01*
X106412544Y-105609952D01*
X106297335Y-105523706D01*
X106297328Y-105523702D01*
X106162482Y-105473408D01*
X106162483Y-105473408D01*
X106102883Y-105467001D01*
X106102881Y-105467000D01*
X106102873Y-105467000D01*
X106102864Y-105467000D01*
X104007129Y-105467000D01*
X104007123Y-105467001D01*
X103947516Y-105473408D01*
X103812671Y-105523702D01*
X103812664Y-105523706D01*
X103697455Y-105609952D01*
X103697452Y-105609955D01*
X103611206Y-105725164D01*
X103611202Y-105725171D01*
X103560908Y-105860017D01*
X103554501Y-105919616D01*
X103554501Y-105919623D01*
X103554500Y-105919635D01*
X103554500Y-106145500D01*
X103534815Y-106212539D01*
X103482011Y-106258294D01*
X103430500Y-106269500D01*
X94320808Y-106269500D01*
X94253769Y-106249815D01*
X94233127Y-106233181D01*
X93386884Y-105386938D01*
X93353399Y-105325615D01*
X93354791Y-105267162D01*
X93365633Y-105226699D01*
X93365632Y-105226699D01*
X93365635Y-105226692D01*
X93385468Y-105000000D01*
X93365635Y-104773308D01*
X93306739Y-104553504D01*
X93210568Y-104347266D01*
X93080047Y-104160861D01*
X93080045Y-104160858D01*
X92919141Y-103999954D01*
X92732734Y-103869432D01*
X92732732Y-103869431D01*
X92526497Y-103773261D01*
X92526488Y-103773258D01*
X92306697Y-103714366D01*
X92306693Y-103714365D01*
X92306692Y-103714365D01*
X92306691Y-103714364D01*
X92306686Y-103714364D01*
X92080002Y-103694532D01*
X92079998Y-103694532D01*
X91853313Y-103714364D01*
X91853302Y-103714366D01*
X91633511Y-103773258D01*
X91633502Y-103773261D01*
X91427267Y-103869431D01*
X91427265Y-103869432D01*
X91240858Y-103999954D01*
X91079954Y-104160858D01*
X90949432Y-104347265D01*
X90949431Y-104347267D01*
X90853261Y-104553502D01*
X90853258Y-104553511D01*
X90794366Y-104773302D01*
X90794364Y-104773313D01*
X90774532Y-104999998D01*
X90774532Y-105000001D01*
X90794364Y-105226686D01*
X90794367Y-105226700D01*
X90805209Y-105267165D01*
X90803546Y-105337015D01*
X90773115Y-105386938D01*
X85346873Y-110813181D01*
X85285550Y-110846666D01*
X85259192Y-110849500D01*
X83036683Y-110849500D01*
X82969644Y-110829815D01*
X82935108Y-110796623D01*
X82840045Y-110660858D01*
X82679141Y-110499954D01*
X82492734Y-110369432D01*
X82492732Y-110369431D01*
X82286497Y-110273261D01*
X82286488Y-110273258D01*
X82066697Y-110214366D01*
X82066693Y-110214365D01*
X82066692Y-110214365D01*
X82066691Y-110214364D01*
X82066686Y-110214364D01*
X81840002Y-110194532D01*
X81839998Y-110194532D01*
X81613313Y-110214364D01*
X81613302Y-110214366D01*
X81393511Y-110273258D01*
X81393502Y-110273261D01*
X81187267Y-110369431D01*
X81187265Y-110369432D01*
X81000858Y-110499954D01*
X80839954Y-110660858D01*
X80709432Y-110847265D01*
X80709431Y-110847267D01*
X80613261Y-111053502D01*
X80613258Y-111053511D01*
X80554366Y-111273302D01*
X80554364Y-111273313D01*
X80534532Y-111499998D01*
X80534532Y-111500001D01*
X80554364Y-111726686D01*
X80554366Y-111726697D01*
X80613258Y-111946488D01*
X80613261Y-111946497D01*
X80709431Y-112152732D01*
X80709432Y-112152734D01*
X80839954Y-112339141D01*
X81000858Y-112500045D01*
X81000861Y-112500047D01*
X81187266Y-112630568D01*
X81393504Y-112726739D01*
X81613308Y-112785635D01*
X81775230Y-112799801D01*
X81839998Y-112805468D01*
X81840000Y-112805468D01*
X81840002Y-112805468D01*
X81896673Y-112800509D01*
X82066692Y-112785635D01*
X82286496Y-112726739D01*
X82492734Y-112630568D01*
X82679139Y-112500047D01*
X82840047Y-112339139D01*
X82904255Y-112247438D01*
X82935108Y-112203377D01*
X82989685Y-112159752D01*
X83036683Y-112150500D01*
X85644071Y-112150500D01*
X85728615Y-112133682D01*
X85769744Y-112125501D01*
X85888127Y-112076465D01*
X85922491Y-112053504D01*
X85994669Y-112005277D01*
X86749947Y-111249999D01*
X90721127Y-111249999D01*
X90721128Y-111250000D01*
X91684314Y-111250000D01*
X91679920Y-111254394D01*
X91627259Y-111345606D01*
X91600000Y-111447339D01*
X91600000Y-111552661D01*
X91627259Y-111654394D01*
X91679920Y-111745606D01*
X91684314Y-111750000D01*
X90721128Y-111750000D01*
X90773730Y-111946317D01*
X90773734Y-111946326D01*
X90869865Y-112152482D01*
X91000342Y-112338820D01*
X91161179Y-112499657D01*
X91347517Y-112630134D01*
X91553673Y-112726265D01*
X91553682Y-112726269D01*
X91749999Y-112778872D01*
X91750000Y-112778871D01*
X91750000Y-111815686D01*
X91754394Y-111820080D01*
X91845606Y-111872741D01*
X91947339Y-111900000D01*
X92052661Y-111900000D01*
X92154394Y-111872741D01*
X92245606Y-111820080D01*
X92250000Y-111815686D01*
X92250000Y-112778872D01*
X92446317Y-112726269D01*
X92446326Y-112726265D01*
X92652482Y-112630134D01*
X92838820Y-112499657D01*
X92999657Y-112338820D01*
X93130134Y-112152482D01*
X93226265Y-111946326D01*
X93226269Y-111946317D01*
X93278872Y-111750000D01*
X92315686Y-111750000D01*
X92320080Y-111745606D01*
X92372741Y-111654394D01*
X92400000Y-111552661D01*
X92400000Y-111447339D01*
X92372741Y-111345606D01*
X92320080Y-111254394D01*
X92315686Y-111250000D01*
X93278872Y-111250000D01*
X93278872Y-111249999D01*
X93226269Y-111053682D01*
X93226265Y-111053673D01*
X93130134Y-110847517D01*
X92999657Y-110661179D01*
X92838820Y-110500342D01*
X92652482Y-110369865D01*
X92446328Y-110273734D01*
X92250000Y-110221127D01*
X92250000Y-111184314D01*
X92245606Y-111179920D01*
X92154394Y-111127259D01*
X92052661Y-111100000D01*
X91947339Y-111100000D01*
X91845606Y-111127259D01*
X91754394Y-111179920D01*
X91750000Y-111184314D01*
X91750000Y-110221127D01*
X91553671Y-110273734D01*
X91347517Y-110369865D01*
X91161179Y-110500342D01*
X91000342Y-110661179D01*
X90869865Y-110847517D01*
X90773734Y-111053673D01*
X90773730Y-111053682D01*
X90721127Y-111249999D01*
X86749947Y-111249999D01*
X91693061Y-106306882D01*
X91754382Y-106273399D01*
X91812833Y-106274790D01*
X91829306Y-106279203D01*
X91853308Y-106285635D01*
X92015230Y-106299801D01*
X92079998Y-106305468D01*
X92080000Y-106305468D01*
X92080002Y-106305468D01*
X92111421Y-106302719D01*
X92306692Y-106285635D01*
X92347162Y-106274791D01*
X92417012Y-106276452D01*
X92466938Y-106306884D01*
X93585325Y-107425272D01*
X93585332Y-107425278D01*
X93668005Y-107480518D01*
X93668008Y-107480519D01*
X93675999Y-107485858D01*
X93691872Y-107496465D01*
X93740908Y-107516776D01*
X93810256Y-107545501D01*
X93810260Y-107545501D01*
X93810261Y-107545502D01*
X93935928Y-107570500D01*
X93935931Y-107570500D01*
X103430501Y-107570500D01*
X103497540Y-107590185D01*
X103543295Y-107642989D01*
X103554501Y-107694500D01*
X103554501Y-107920376D01*
X103560908Y-107979983D01*
X103611202Y-108114828D01*
X103611206Y-108114835D01*
X103697452Y-108230044D01*
X103697455Y-108230047D01*
X103812664Y-108316293D01*
X103812669Y-108316296D01*
X103840539Y-108326690D01*
X103896473Y-108368561D01*
X103920891Y-108434024D01*
X103906040Y-108502298D01*
X103897525Y-108515759D01*
X103764783Y-108698461D01*
X103660950Y-108902244D01*
X103590278Y-109119750D01*
X103590278Y-109119753D01*
X103554500Y-109345646D01*
X103554500Y-109574353D01*
X103590278Y-109800246D01*
X103590278Y-109800249D01*
X103660950Y-110017755D01*
X103710170Y-110114354D01*
X103764783Y-110221538D01*
X103899214Y-110406566D01*
X104060934Y-110568286D01*
X104145864Y-110629991D01*
X104188529Y-110685321D01*
X104194508Y-110754935D01*
X104161902Y-110816730D01*
X104145864Y-110830627D01*
X104061257Y-110892097D01*
X103899597Y-111053757D01*
X103765211Y-111238723D01*
X103661417Y-111442429D01*
X103590765Y-111659871D01*
X103576491Y-111750000D01*
X104564252Y-111750000D01*
X104542482Y-111787708D01*
X104505000Y-111927591D01*
X104505000Y-112072409D01*
X104542482Y-112212292D01*
X104564252Y-112250000D01*
X103576491Y-112250000D01*
X103590765Y-112340128D01*
X103661417Y-112557570D01*
X103765211Y-112761276D01*
X103899597Y-112946242D01*
X104061257Y-113107902D01*
X104246223Y-113242288D01*
X104449929Y-113346082D01*
X104667371Y-113416734D01*
X104805000Y-113438532D01*
X104805000Y-112490747D01*
X104842708Y-112512518D01*
X104982591Y-112550000D01*
X105127409Y-112550000D01*
X105267292Y-112512518D01*
X105305000Y-112490747D01*
X105305000Y-113438531D01*
X105442628Y-113416734D01*
X105660070Y-113346082D01*
X105863776Y-113242288D01*
X106048742Y-113107902D01*
X106210402Y-112946242D01*
X106344788Y-112761276D01*
X106448582Y-112557570D01*
X106519234Y-112340128D01*
X106533509Y-112250000D01*
X105545748Y-112250000D01*
X105567518Y-112212292D01*
X105605000Y-112072409D01*
X105605000Y-111927591D01*
X105578850Y-111830000D01*
X117515960Y-111830000D01*
X118509252Y-111830000D01*
X118487482Y-111867708D01*
X118450000Y-112007591D01*
X118450000Y-112152409D01*
X118487482Y-112292292D01*
X118509252Y-112330000D01*
X117515960Y-112330000D01*
X117576411Y-112568716D01*
X117676267Y-112796367D01*
X117812232Y-113004478D01*
X117980592Y-113187364D01*
X117980602Y-113187373D01*
X118176762Y-113340051D01*
X118176771Y-113340057D01*
X118395385Y-113458364D01*
X118395396Y-113458369D01*
X118630507Y-113539083D01*
X118749999Y-113559023D01*
X118750000Y-113559022D01*
X118750000Y-112570747D01*
X118787708Y-112592518D01*
X118927591Y-112630000D01*
X119072409Y-112630000D01*
X119212292Y-112592518D01*
X119250000Y-112570747D01*
X119250000Y-113559023D01*
X119369492Y-113539083D01*
X119604603Y-113458369D01*
X119604614Y-113458364D01*
X119823228Y-113340057D01*
X119823237Y-113340051D01*
X120019397Y-113187373D01*
X120019407Y-113187364D01*
X120187767Y-113004478D01*
X120323732Y-112796367D01*
X120423588Y-112568716D01*
X120484040Y-112330000D01*
X119490748Y-112330000D01*
X119512518Y-112292292D01*
X119523850Y-112250000D01*
X173570960Y-112250000D01*
X174564252Y-112250000D01*
X174542482Y-112287708D01*
X174505000Y-112427591D01*
X174505000Y-112572409D01*
X174542482Y-112712292D01*
X174564252Y-112750000D01*
X173570960Y-112750000D01*
X173631411Y-112988716D01*
X173731267Y-113216367D01*
X173867232Y-113424478D01*
X174035592Y-113607364D01*
X174035602Y-113607373D01*
X174231762Y-113760051D01*
X174231771Y-113760057D01*
X174450385Y-113878364D01*
X174450396Y-113878369D01*
X174685507Y-113959083D01*
X174804999Y-113979023D01*
X174805000Y-113979022D01*
X174805000Y-112990747D01*
X174842708Y-113012518D01*
X174982591Y-113050000D01*
X175127409Y-113050000D01*
X175267292Y-113012518D01*
X175305000Y-112990747D01*
X175305000Y-113979023D01*
X175424492Y-113959083D01*
X175659603Y-113878369D01*
X175659614Y-113878364D01*
X175878228Y-113760057D01*
X175878237Y-113760051D01*
X176074397Y-113607373D01*
X176074407Y-113607364D01*
X176242767Y-113424478D01*
X176378732Y-113216367D01*
X176478588Y-112988716D01*
X176539040Y-112750000D01*
X175545748Y-112750000D01*
X175567518Y-112712292D01*
X175605000Y-112572409D01*
X175605000Y-112427591D01*
X175567518Y-112287708D01*
X175545748Y-112250000D01*
X176539040Y-112250000D01*
X176478588Y-112011283D01*
X176378732Y-111783632D01*
X176242767Y-111575521D01*
X176074407Y-111392635D01*
X176074397Y-111392626D01*
X175878237Y-111239948D01*
X175878228Y-111239942D01*
X175659614Y-111121635D01*
X175659603Y-111121630D01*
X175424492Y-111040916D01*
X175305000Y-111020976D01*
X175305000Y-112009252D01*
X175267292Y-111987482D01*
X175127409Y-111950000D01*
X174982591Y-111950000D01*
X174842708Y-111987482D01*
X174805000Y-112009252D01*
X174805000Y-111020976D01*
X174804999Y-111020976D01*
X174685507Y-111040916D01*
X174450396Y-111121630D01*
X174450385Y-111121635D01*
X174231771Y-111239942D01*
X174231762Y-111239948D01*
X174035602Y-111392626D01*
X174035592Y-111392635D01*
X173867232Y-111575521D01*
X173731267Y-111783632D01*
X173631411Y-112011283D01*
X173570960Y-112250000D01*
X119523850Y-112250000D01*
X119550000Y-112152409D01*
X119550000Y-112007591D01*
X119512518Y-111867708D01*
X119490748Y-111830000D01*
X120484040Y-111830000D01*
X120423588Y-111591283D01*
X120323732Y-111363632D01*
X120187767Y-111155521D01*
X120019407Y-110972635D01*
X120019397Y-110972626D01*
X119823237Y-110819948D01*
X119823228Y-110819942D01*
X119604614Y-110701635D01*
X119604603Y-110701630D01*
X119369492Y-110620916D01*
X119250000Y-110600976D01*
X119250000Y-111589252D01*
X119212292Y-111567482D01*
X119072409Y-111530000D01*
X118927591Y-111530000D01*
X118787708Y-111567482D01*
X118750000Y-111589252D01*
X118750000Y-110600976D01*
X118749999Y-110600976D01*
X118630507Y-110620916D01*
X118395396Y-110701630D01*
X118395385Y-110701635D01*
X118176771Y-110819942D01*
X118176762Y-110819948D01*
X117980602Y-110972626D01*
X117980592Y-110972635D01*
X117812232Y-111155521D01*
X117676267Y-111363632D01*
X117576411Y-111591283D01*
X117515960Y-111830000D01*
X105578850Y-111830000D01*
X105567518Y-111787708D01*
X105545748Y-111750000D01*
X106533509Y-111750000D01*
X106519234Y-111659871D01*
X106448582Y-111442429D01*
X106344788Y-111238723D01*
X106210402Y-111053757D01*
X106203826Y-111047181D01*
X106170341Y-110985858D01*
X106175325Y-110916166D01*
X106217197Y-110860233D01*
X106282661Y-110835816D01*
X106291507Y-110835500D01*
X110139395Y-110835500D01*
X110173085Y-110840835D01*
X110173168Y-110840494D01*
X110177505Y-110841535D01*
X110177707Y-110841567D01*
X110177903Y-110841631D01*
X110362507Y-110870869D01*
X110362506Y-110870869D01*
X110391745Y-110875500D01*
X110391746Y-110875500D01*
X112108253Y-110875500D01*
X112108254Y-110875500D01*
X112322097Y-110841630D01*
X112528009Y-110774726D01*
X112720919Y-110676433D01*
X112896078Y-110549172D01*
X113049172Y-110396078D01*
X113176433Y-110220919D01*
X113274726Y-110028009D01*
X113341630Y-109822097D01*
X113375500Y-109608254D01*
X113375500Y-100391746D01*
X113375500Y-100391741D01*
X113357842Y-100280258D01*
X113357842Y-100280256D01*
X113341631Y-100177903D01*
X113341631Y-100177902D01*
X113276233Y-99976630D01*
X113275170Y-99972864D01*
X113274726Y-99971992D01*
X113274726Y-99971991D01*
X113176433Y-99779081D01*
X113088370Y-99657873D01*
X113088369Y-99657871D01*
X113088368Y-99657869D01*
X113049176Y-99603926D01*
X113049171Y-99603920D01*
X108032432Y-94587181D01*
X107998947Y-94525858D01*
X108003931Y-94456166D01*
X108045803Y-94400233D01*
X108111267Y-94375816D01*
X108120113Y-94375500D01*
X117555500Y-94375500D01*
X117622539Y-94395185D01*
X117668294Y-94447989D01*
X117679500Y-94499500D01*
X117679500Y-105554045D01*
X117659815Y-105621084D01*
X117643188Y-105641720D01*
X117642452Y-105642455D01*
X117556206Y-105757664D01*
X117556202Y-105757671D01*
X117505908Y-105892517D01*
X117502993Y-105919635D01*
X117499501Y-105952123D01*
X117499500Y-105952135D01*
X117499500Y-108047870D01*
X117499501Y-108047876D01*
X117505908Y-108107483D01*
X117556202Y-108242328D01*
X117556206Y-108242335D01*
X117642452Y-108357544D01*
X117642455Y-108357547D01*
X117757664Y-108443793D01*
X117757671Y-108443797D01*
X117892517Y-108494091D01*
X117892516Y-108494091D01*
X117899444Y-108494835D01*
X117952127Y-108500500D01*
X120047872Y-108500499D01*
X120107483Y-108494091D01*
X120242331Y-108443796D01*
X120357546Y-108357546D01*
X120443796Y-108242331D01*
X120494091Y-108107483D01*
X120500500Y-108047873D01*
X120500499Y-105952128D01*
X120494091Y-105892517D01*
X120481969Y-105860017D01*
X120440697Y-105749360D01*
X120442500Y-105748687D01*
X120430500Y-105701670D01*
X120430500Y-94499500D01*
X120450185Y-94432461D01*
X120502989Y-94386706D01*
X120554500Y-94375500D01*
X127993207Y-94375500D01*
X128060246Y-94395185D01*
X128106001Y-94447989D01*
X128111770Y-94463185D01*
X128151605Y-94593261D01*
X128233527Y-94860765D01*
X128233529Y-94860770D01*
X128410298Y-95300677D01*
X128410302Y-95300688D01*
X128623741Y-95724018D01*
X128623752Y-95724038D01*
X128718299Y-95877592D01*
X128872332Y-96127758D01*
X129154256Y-96508944D01*
X129154261Y-96508949D01*
X129154262Y-96508951D01*
X129467489Y-96864846D01*
X129809788Y-97192913D01*
X129809790Y-97192914D01*
X130178654Y-97490751D01*
X130178655Y-97490752D01*
X130290290Y-97566204D01*
X130571464Y-97756244D01*
X130745225Y-97853313D01*
X130985362Y-97987462D01*
X130985384Y-97987473D01*
X131417391Y-98182752D01*
X131417398Y-98182755D01*
X131864429Y-98340701D01*
X132323244Y-98460167D01*
X132790538Y-98540293D01*
X132936774Y-98552739D01*
X133262924Y-98580499D01*
X133262941Y-98580499D01*
X133262943Y-98580500D01*
X133262944Y-98580500D01*
X133737056Y-98580500D01*
X133737057Y-98580500D01*
X133737058Y-98580499D01*
X133737075Y-98580499D01*
X134018242Y-98556567D01*
X134209462Y-98540293D01*
X134676756Y-98460167D01*
X135135571Y-98340701D01*
X135582602Y-98182755D01*
X135910194Y-98034674D01*
X136014615Y-97987473D01*
X136014617Y-97987471D01*
X136014628Y-97987467D01*
X136428536Y-97756244D01*
X136821343Y-97490753D01*
X137130828Y-97240861D01*
X137190209Y-97192914D01*
X137190211Y-97192913D01*
X137190215Y-97192908D01*
X137190220Y-97192905D01*
X137532510Y-96864847D01*
X137845744Y-96508944D01*
X138127668Y-96127758D01*
X138376249Y-95724036D01*
X138589697Y-95300688D01*
X138766473Y-94860763D01*
X138905304Y-94407432D01*
X139005190Y-93943960D01*
X139065411Y-93473686D01*
X139066376Y-93450991D01*
X139085533Y-93000006D01*
X139085533Y-92999993D01*
X139065412Y-92526326D01*
X139065411Y-92526320D01*
X139065411Y-92526314D01*
X139005190Y-92056040D01*
X138905304Y-91592568D01*
X138766473Y-91139237D01*
X138753018Y-91105754D01*
X138589701Y-90699322D01*
X138589697Y-90699311D01*
X138376258Y-90275981D01*
X138376247Y-90275961D01*
X138375963Y-90275500D01*
X138127668Y-89872242D01*
X137845744Y-89491056D01*
X137626838Y-89242331D01*
X137532510Y-89135153D01*
X137190211Y-88807086D01*
X137190209Y-88807085D01*
X136821345Y-88509248D01*
X136821344Y-88509247D01*
X136454049Y-88261000D01*
X136428536Y-88243756D01*
X136350211Y-88200001D01*
X136014637Y-88012537D01*
X136014615Y-88012526D01*
X135582608Y-87817247D01*
X135135566Y-87659297D01*
X134676754Y-87539832D01*
X134209472Y-87459708D01*
X134209446Y-87459705D01*
X133737075Y-87419500D01*
X133737057Y-87419500D01*
X133262943Y-87419500D01*
X133262924Y-87419500D01*
X132790553Y-87459705D01*
X132790527Y-87459708D01*
X132323245Y-87539832D01*
X131864433Y-87659297D01*
X131417391Y-87817247D01*
X130985384Y-88012526D01*
X130985362Y-88012537D01*
X130571472Y-88243751D01*
X130571453Y-88243763D01*
X130178655Y-88509247D01*
X130178654Y-88509248D01*
X129809790Y-88807085D01*
X129809788Y-88807086D01*
X129467489Y-89135153D01*
X129154262Y-89491048D01*
X128872331Y-89872243D01*
X128623752Y-90275961D01*
X128623741Y-90275981D01*
X128410302Y-90699311D01*
X128410298Y-90699322D01*
X128233529Y-91139229D01*
X128233527Y-91139234D01*
X128155895Y-91392732D01*
X128122892Y-91500500D01*
X128111772Y-91536810D01*
X128073319Y-91595147D01*
X128009432Y-91623434D01*
X127993207Y-91624500D01*
X120554500Y-91624500D01*
X120487461Y-91604815D01*
X120441706Y-91552011D01*
X120430500Y-91500500D01*
X120430500Y-84085593D01*
X120440943Y-84035784D01*
X120479063Y-83948881D01*
X120540108Y-83707821D01*
X120546212Y-83634160D01*
X120560643Y-83460005D01*
X120560643Y-83459994D01*
X120540109Y-83212187D01*
X120540107Y-83212175D01*
X120479063Y-82971118D01*
X120379173Y-82743393D01*
X120243166Y-82535217D01*
X120148388Y-82432261D01*
X120074744Y-82352262D01*
X119878509Y-82199526D01*
X119878507Y-82199525D01*
X119878506Y-82199524D01*
X119659811Y-82081172D01*
X119659802Y-82081169D01*
X119424616Y-82000429D01*
X119179335Y-81959500D01*
X118930665Y-81959500D01*
X118685383Y-82000429D01*
X118450197Y-82081169D01*
X118450188Y-82081172D01*
X118231493Y-82199524D01*
X118035257Y-82352261D01*
X117866833Y-82535217D01*
X117730826Y-82743393D01*
X117630936Y-82971118D01*
X117569892Y-83212175D01*
X117569890Y-83212187D01*
X117549357Y-83459994D01*
X117549357Y-83460005D01*
X117569890Y-83707812D01*
X117569892Y-83707824D01*
X117630331Y-83946488D01*
X117630937Y-83948881D01*
X117669056Y-84035784D01*
X117679500Y-84085593D01*
X117679500Y-91500500D01*
X117659815Y-91567539D01*
X117607011Y-91613294D01*
X117555500Y-91624500D01*
X106054500Y-91624500D01*
X105987461Y-91604815D01*
X105941706Y-91552011D01*
X105930500Y-91500500D01*
X105930500Y-84583928D01*
X105944016Y-84527633D01*
X105949048Y-84517758D01*
X106019722Y-84300245D01*
X106055500Y-84074354D01*
X106055500Y-83845646D01*
X106019722Y-83619755D01*
X106019721Y-83619751D01*
X106019721Y-83619750D01*
X105949049Y-83402244D01*
X105899739Y-83305468D01*
X105845217Y-83198462D01*
X105710786Y-83013434D01*
X105704533Y-83007181D01*
X105671048Y-82945858D01*
X105676032Y-82876166D01*
X105717904Y-82820233D01*
X105783368Y-82795816D01*
X105792214Y-82795500D01*
X116123253Y-82795500D01*
X116123254Y-82795500D01*
X116337097Y-82761630D01*
X116543009Y-82694726D01*
X116735919Y-82596433D01*
X116752343Y-82584500D01*
X116911078Y-82469173D01*
X119463431Y-79916817D01*
X119524754Y-79883333D01*
X119551112Y-79880499D01*
X120102871Y-79880499D01*
X120102872Y-79880499D01*
X120162483Y-79874091D01*
X120297331Y-79823796D01*
X120355524Y-79780233D01*
X120420989Y-79755816D01*
X120429835Y-79755500D01*
X144301746Y-79755500D01*
X146391746Y-79755500D01*
X171391746Y-79755500D01*
X173588937Y-79755500D01*
X173655976Y-79775185D01*
X173688204Y-79805190D01*
X173697454Y-79817546D01*
X173726095Y-79838987D01*
X173812664Y-79903793D01*
X173812671Y-79903797D01*
X173821916Y-79907245D01*
X173947517Y-79954091D01*
X174007127Y-79960500D01*
X174558886Y-79960499D01*
X174625925Y-79980183D01*
X174646567Y-79996818D01*
X176198920Y-81549171D01*
X176198926Y-81549176D01*
X176280285Y-81608287D01*
X176364789Y-81669682D01*
X176374081Y-81676433D01*
X176566991Y-81774726D01*
X176617486Y-81791132D01*
X176617487Y-81791133D01*
X176656341Y-81803757D01*
X176772903Y-81841631D01*
X176853094Y-81854331D01*
X176986741Y-81875500D01*
X176986746Y-81875500D01*
X177203254Y-81875500D01*
X187317786Y-81875500D01*
X187384825Y-81895185D01*
X187430580Y-81947989D01*
X187440524Y-82017147D01*
X187411499Y-82080703D01*
X187405467Y-82087181D01*
X187399216Y-82093431D01*
X187399216Y-82093432D01*
X187399214Y-82093434D01*
X187350002Y-82161169D01*
X187264783Y-82278461D01*
X187160950Y-82482244D01*
X187090278Y-82699750D01*
X187090278Y-82699753D01*
X187054500Y-82925646D01*
X187054500Y-83154353D01*
X187090278Y-83380246D01*
X187090278Y-83380249D01*
X187160951Y-83597756D01*
X187160952Y-83597758D01*
X187165983Y-83607633D01*
X187179500Y-83663928D01*
X187179500Y-91500500D01*
X187159815Y-91567539D01*
X187107011Y-91613294D01*
X187055500Y-91624500D01*
X176554500Y-91624500D01*
X176487461Y-91604815D01*
X176441706Y-91552011D01*
X176430500Y-91500500D01*
X176430500Y-84165593D01*
X176440943Y-84115784D01*
X176479063Y-84028881D01*
X176540108Y-83787821D01*
X176540109Y-83787812D01*
X176560643Y-83540005D01*
X176560643Y-83539994D01*
X176540109Y-83292187D01*
X176540107Y-83292175D01*
X176479063Y-83051118D01*
X176379173Y-82823393D01*
X176243166Y-82615217D01*
X176201775Y-82570255D01*
X176074744Y-82432262D01*
X175878509Y-82279526D01*
X175878507Y-82279525D01*
X175878506Y-82279524D01*
X175659811Y-82161172D01*
X175659802Y-82161169D01*
X175424616Y-82080429D01*
X175179335Y-82039500D01*
X174930665Y-82039500D01*
X174685383Y-82080429D01*
X174450197Y-82161169D01*
X174450188Y-82161172D01*
X174231493Y-82279524D01*
X174035257Y-82432261D01*
X173866833Y-82615217D01*
X173730826Y-82823393D01*
X173630936Y-83051118D01*
X173569892Y-83292175D01*
X173569890Y-83292187D01*
X173549357Y-83539994D01*
X173549357Y-83540005D01*
X173569890Y-83787812D01*
X173569892Y-83787824D01*
X173624960Y-84005278D01*
X173630937Y-84028881D01*
X173669056Y-84115784D01*
X173679500Y-84165593D01*
X173679500Y-91500500D01*
X173659815Y-91567539D01*
X173607011Y-91613294D01*
X173555500Y-91624500D01*
X168976793Y-91624500D01*
X168909754Y-91604815D01*
X168863999Y-91552011D01*
X168858228Y-91536810D01*
X168847108Y-91500500D01*
X168736473Y-91139237D01*
X168723018Y-91105754D01*
X168559701Y-90699322D01*
X168559697Y-90699311D01*
X168346258Y-90275981D01*
X168346247Y-90275961D01*
X168345963Y-90275500D01*
X168097668Y-89872242D01*
X167815744Y-89491056D01*
X167596838Y-89242331D01*
X167502510Y-89135153D01*
X167160211Y-88807086D01*
X167160209Y-88807085D01*
X166791345Y-88509248D01*
X166791344Y-88509247D01*
X166424049Y-88261000D01*
X166398536Y-88243756D01*
X166320211Y-88200001D01*
X165984637Y-88012537D01*
X165984615Y-88012526D01*
X165552608Y-87817247D01*
X165105566Y-87659297D01*
X164646754Y-87539832D01*
X164179472Y-87459708D01*
X164179446Y-87459705D01*
X163707075Y-87419500D01*
X163707057Y-87419500D01*
X163232943Y-87419500D01*
X163232924Y-87419500D01*
X162760553Y-87459705D01*
X162760527Y-87459708D01*
X162293245Y-87539832D01*
X161834433Y-87659297D01*
X161387391Y-87817247D01*
X160955384Y-88012526D01*
X160955362Y-88012537D01*
X160541472Y-88243751D01*
X160541453Y-88243763D01*
X160148655Y-88509247D01*
X160148654Y-88509248D01*
X159779790Y-88807085D01*
X159779788Y-88807086D01*
X159437489Y-89135153D01*
X159124262Y-89491048D01*
X158842331Y-89872243D01*
X158593752Y-90275961D01*
X158593741Y-90275981D01*
X158380302Y-90699311D01*
X158380298Y-90699322D01*
X158203529Y-91139229D01*
X158203527Y-91139234D01*
X158064698Y-91592559D01*
X158064696Y-91592567D01*
X157964810Y-92056038D01*
X157904587Y-92526326D01*
X157884467Y-92999993D01*
X157884467Y-93000006D01*
X157904587Y-93473673D01*
X157964810Y-93943961D01*
X158064696Y-94407432D01*
X158064698Y-94407440D01*
X158203527Y-94860765D01*
X158203529Y-94860770D01*
X158380298Y-95300677D01*
X158380302Y-95300688D01*
X158593741Y-95724018D01*
X158593752Y-95724038D01*
X158688299Y-95877592D01*
X158842332Y-96127758D01*
X159124256Y-96508944D01*
X159124261Y-96508949D01*
X159124262Y-96508951D01*
X159437489Y-96864846D01*
X159779788Y-97192913D01*
X159779790Y-97192914D01*
X160148654Y-97490751D01*
X160148655Y-97490752D01*
X160260290Y-97566204D01*
X160541464Y-97756244D01*
X160715225Y-97853313D01*
X160955362Y-97987462D01*
X160955384Y-97987473D01*
X161387391Y-98182752D01*
X161387398Y-98182755D01*
X161834429Y-98340701D01*
X162293244Y-98460167D01*
X162760538Y-98540293D01*
X162906774Y-98552739D01*
X163232924Y-98580499D01*
X163232941Y-98580499D01*
X163232943Y-98580500D01*
X163232944Y-98580500D01*
X163707056Y-98580500D01*
X163707057Y-98580500D01*
X163707058Y-98580499D01*
X163707075Y-98580499D01*
X163988242Y-98556567D01*
X164179462Y-98540293D01*
X164646756Y-98460167D01*
X165105571Y-98340701D01*
X165552602Y-98182755D01*
X165880194Y-98034674D01*
X165984615Y-97987473D01*
X165984617Y-97987471D01*
X165984628Y-97987467D01*
X166398536Y-97756244D01*
X166791343Y-97490753D01*
X167100828Y-97240861D01*
X167160209Y-97192914D01*
X167160211Y-97192913D01*
X167160215Y-97192908D01*
X167160220Y-97192905D01*
X167502510Y-96864847D01*
X167815744Y-96508944D01*
X168097668Y-96127758D01*
X168346249Y-95724036D01*
X168559697Y-95300688D01*
X168736473Y-94860763D01*
X168858228Y-94463189D01*
X168896681Y-94404853D01*
X168960568Y-94376566D01*
X168976793Y-94375500D01*
X173555500Y-94375500D01*
X173622539Y-94395185D01*
X173668294Y-94447989D01*
X173679500Y-94499500D01*
X173679500Y-106045165D01*
X173659815Y-106112204D01*
X173654767Y-106119476D01*
X173611204Y-106177668D01*
X173611202Y-106177671D01*
X173560908Y-106312517D01*
X173554501Y-106372116D01*
X173554501Y-106372123D01*
X173554500Y-106372135D01*
X173554500Y-108467870D01*
X173554501Y-108467876D01*
X173560908Y-108527483D01*
X173611202Y-108662328D01*
X173611206Y-108662335D01*
X173697452Y-108777544D01*
X173697455Y-108777547D01*
X173812664Y-108863793D01*
X173812671Y-108863797D01*
X173947517Y-108914091D01*
X173947516Y-108914091D01*
X173954444Y-108914835D01*
X174007127Y-108920500D01*
X176102872Y-108920499D01*
X176162483Y-108914091D01*
X176297331Y-108863796D01*
X176412546Y-108777546D01*
X176498796Y-108662331D01*
X176549091Y-108527483D01*
X176555500Y-108467873D01*
X176555499Y-106372128D01*
X176549091Y-106312517D01*
X176539064Y-106285634D01*
X176498797Y-106177671D01*
X176498795Y-106177668D01*
X176455233Y-106119476D01*
X176430816Y-106054011D01*
X176430500Y-106045165D01*
X176430500Y-94499500D01*
X176450185Y-94432461D01*
X176502989Y-94386706D01*
X176554500Y-94375500D01*
X180500500Y-94375500D01*
X180567539Y-94395185D01*
X180613294Y-94447989D01*
X180624500Y-94499500D01*
X180624500Y-106263254D01*
X180632303Y-106312517D01*
X180647722Y-106409870D01*
X180658370Y-106477098D01*
X180725272Y-106683006D01*
X180725273Y-106683009D01*
X180823569Y-106875922D01*
X180950821Y-107051071D01*
X180950825Y-107051076D01*
X180950826Y-107051077D01*
X180950827Y-107051078D01*
X184795828Y-110896078D01*
X184948922Y-111049172D01*
X185124081Y-111176433D01*
X185211798Y-111221127D01*
X185316990Y-111274726D01*
X185316993Y-111274727D01*
X185419947Y-111308178D01*
X185522903Y-111341630D01*
X185736746Y-111375500D01*
X187263493Y-111375500D01*
X187330532Y-111395185D01*
X187376287Y-111447989D01*
X187386231Y-111517147D01*
X187357206Y-111580703D01*
X187351174Y-111587181D01*
X187344597Y-111593757D01*
X187210211Y-111778723D01*
X187106417Y-111982429D01*
X187035765Y-112199871D01*
X187021491Y-112290000D01*
X188009252Y-112290000D01*
X187987482Y-112327708D01*
X187950000Y-112467591D01*
X187950000Y-112612409D01*
X187987482Y-112752292D01*
X188009252Y-112790000D01*
X187021491Y-112790000D01*
X187035765Y-112880128D01*
X187106417Y-113097570D01*
X187210211Y-113301276D01*
X187344597Y-113486242D01*
X187506257Y-113647902D01*
X187691223Y-113782288D01*
X187894929Y-113886082D01*
X188112371Y-113956734D01*
X188250000Y-113978532D01*
X188250000Y-113030747D01*
X188287708Y-113052518D01*
X188427591Y-113090000D01*
X188572409Y-113090000D01*
X188712292Y-113052518D01*
X188750000Y-113030747D01*
X188750000Y-113978531D01*
X188887628Y-113956734D01*
X189105070Y-113886082D01*
X189308776Y-113782288D01*
X189493742Y-113647902D01*
X189655402Y-113486242D01*
X189789788Y-113301276D01*
X189893582Y-113097570D01*
X189964234Y-112880128D01*
X189978509Y-112790000D01*
X188990748Y-112790000D01*
X189012518Y-112752292D01*
X189050000Y-112612409D01*
X189050000Y-112467591D01*
X189012518Y-112327708D01*
X188990748Y-112290000D01*
X189978509Y-112290000D01*
X189964234Y-112199871D01*
X189893582Y-111982429D01*
X189789788Y-111778723D01*
X189655402Y-111593757D01*
X189493742Y-111432097D01*
X189409135Y-111370626D01*
X189366470Y-111315296D01*
X189360491Y-111245682D01*
X189393097Y-111183887D01*
X189409125Y-111169999D01*
X189494066Y-111108286D01*
X189655786Y-110946566D01*
X189790217Y-110761538D01*
X189894048Y-110557758D01*
X189912830Y-110499953D01*
X189964721Y-110340249D01*
X189964721Y-110340248D01*
X189964722Y-110340245D01*
X190000500Y-110114354D01*
X190000500Y-109885646D01*
X189964722Y-109659755D01*
X189964721Y-109659751D01*
X189964721Y-109659750D01*
X189894049Y-109442244D01*
X189790216Y-109238461D01*
X189657472Y-109055755D01*
X189633994Y-108989953D01*
X189649819Y-108921899D01*
X189699925Y-108873204D01*
X189714455Y-108866692D01*
X189742331Y-108856296D01*
X189857546Y-108770046D01*
X189943796Y-108654831D01*
X189994091Y-108519983D01*
X190000500Y-108460373D01*
X190000500Y-108234500D01*
X190020185Y-108167461D01*
X190072989Y-108121706D01*
X190124500Y-108110500D01*
X197844071Y-108110500D01*
X197929994Y-108093408D01*
X197969744Y-108085501D01*
X198088127Y-108036465D01*
X198194669Y-107965277D01*
X199657819Y-106502125D01*
X199719142Y-106468641D01*
X199788833Y-106473625D01*
X199844767Y-106515497D01*
X199869184Y-106580961D01*
X199869500Y-106589807D01*
X199869500Y-111289313D01*
X199849815Y-111356352D01*
X199816623Y-111390888D01*
X199660858Y-111499954D01*
X199499954Y-111660858D01*
X199369432Y-111847265D01*
X199369431Y-111847267D01*
X199273261Y-112053502D01*
X199273258Y-112053511D01*
X199214366Y-112273302D01*
X199214364Y-112273313D01*
X199194532Y-112499998D01*
X199194532Y-112500001D01*
X199214364Y-112726686D01*
X199214366Y-112726697D01*
X199273258Y-112946488D01*
X199273261Y-112946497D01*
X199369431Y-113152732D01*
X199369432Y-113152734D01*
X199499954Y-113339141D01*
X199660858Y-113500045D01*
X199660861Y-113500047D01*
X199847266Y-113630568D01*
X200053504Y-113726739D01*
X200273308Y-113785635D01*
X200435230Y-113799801D01*
X200499998Y-113805468D01*
X200500000Y-113805468D01*
X200500002Y-113805468D01*
X200556673Y-113800509D01*
X200726692Y-113785635D01*
X200946496Y-113726739D01*
X201152734Y-113630568D01*
X201339139Y-113500047D01*
X201500047Y-113339139D01*
X201630568Y-113152734D01*
X201726739Y-112946496D01*
X201785635Y-112726692D01*
X201805468Y-112500000D01*
X201785635Y-112273308D01*
X201779389Y-112249999D01*
X209381127Y-112249999D01*
X209381128Y-112250000D01*
X210344314Y-112250000D01*
X210339920Y-112254394D01*
X210287259Y-112345606D01*
X210260000Y-112447339D01*
X210260000Y-112552661D01*
X210287259Y-112654394D01*
X210339920Y-112745606D01*
X210344314Y-112750000D01*
X209381128Y-112750000D01*
X209433730Y-112946317D01*
X209433734Y-112946326D01*
X209529865Y-113152482D01*
X209660342Y-113338820D01*
X209821179Y-113499657D01*
X210007517Y-113630134D01*
X210213673Y-113726265D01*
X210213682Y-113726269D01*
X210409999Y-113778872D01*
X210410000Y-113778871D01*
X210410000Y-112815686D01*
X210414394Y-112820080D01*
X210505606Y-112872741D01*
X210607339Y-112900000D01*
X210712661Y-112900000D01*
X210814394Y-112872741D01*
X210905606Y-112820080D01*
X210910000Y-112815686D01*
X210910000Y-113778872D01*
X211106317Y-113726269D01*
X211106326Y-113726265D01*
X211312482Y-113630134D01*
X211498820Y-113499657D01*
X211659657Y-113338820D01*
X211790134Y-113152482D01*
X211886265Y-112946326D01*
X211886269Y-112946317D01*
X211938872Y-112750000D01*
X210975686Y-112750000D01*
X210980080Y-112745606D01*
X211032741Y-112654394D01*
X211060000Y-112552661D01*
X211060000Y-112447339D01*
X211032741Y-112345606D01*
X210980080Y-112254394D01*
X210975686Y-112250000D01*
X211938872Y-112250000D01*
X211938872Y-112249999D01*
X211886269Y-112053682D01*
X211886265Y-112053673D01*
X211790134Y-111847517D01*
X211659657Y-111661179D01*
X211498820Y-111500342D01*
X211312482Y-111369865D01*
X211106328Y-111273734D01*
X210910000Y-111221127D01*
X210910000Y-112184314D01*
X210905606Y-112179920D01*
X210814394Y-112127259D01*
X210712661Y-112100000D01*
X210607339Y-112100000D01*
X210505606Y-112127259D01*
X210414394Y-112179920D01*
X210410000Y-112184314D01*
X210410000Y-111221127D01*
X210213671Y-111273734D01*
X210007517Y-111369865D01*
X209821179Y-111500342D01*
X209660342Y-111661179D01*
X209529865Y-111847517D01*
X209433734Y-112053673D01*
X209433730Y-112053682D01*
X209381127Y-112249999D01*
X201779389Y-112249999D01*
X201726739Y-112053504D01*
X201630568Y-111847266D01*
X201500047Y-111660861D01*
X201500045Y-111660858D01*
X201339143Y-111499956D01*
X201321328Y-111487482D01*
X201223376Y-111418895D01*
X201179752Y-111364318D01*
X201170500Y-111317320D01*
X201170500Y-105916682D01*
X201190185Y-105849643D01*
X201223371Y-105815111D01*
X201359139Y-105720047D01*
X201520047Y-105559139D01*
X201650568Y-105372734D01*
X201746739Y-105166496D01*
X201805635Y-104946692D01*
X201825468Y-104720000D01*
X201805635Y-104493308D01*
X201746739Y-104273504D01*
X201650568Y-104067266D01*
X201520047Y-103880861D01*
X201520045Y-103880858D01*
X201359141Y-103719954D01*
X201172734Y-103589432D01*
X201172732Y-103589431D01*
X200966497Y-103493261D01*
X200966488Y-103493258D01*
X200746697Y-103434366D01*
X200746693Y-103434365D01*
X200746692Y-103434365D01*
X200746691Y-103434364D01*
X200746686Y-103434364D01*
X200520002Y-103414532D01*
X200519998Y-103414532D01*
X200293313Y-103434364D01*
X200293302Y-103434366D01*
X200073511Y-103493258D01*
X200073502Y-103493261D01*
X199867267Y-103589431D01*
X199867265Y-103589432D01*
X199680858Y-103719954D01*
X199519954Y-103880858D01*
X199389432Y-104067265D01*
X199389431Y-104067267D01*
X199293261Y-104273502D01*
X199293258Y-104273511D01*
X199234366Y-104493302D01*
X199234364Y-104493313D01*
X199214532Y-104719998D01*
X199214532Y-104720001D01*
X199234364Y-104946686D01*
X199234367Y-104946700D01*
X199245209Y-104987165D01*
X199243546Y-105057015D01*
X199213115Y-105106938D01*
X197546873Y-106773181D01*
X197485550Y-106806666D01*
X197459192Y-106809500D01*
X190124499Y-106809500D01*
X190057460Y-106789815D01*
X190011705Y-106737011D01*
X190000499Y-106685500D01*
X190000499Y-106459629D01*
X190000498Y-106459623D01*
X190000497Y-106459616D01*
X189994091Y-106400017D01*
X189983689Y-106372129D01*
X189943797Y-106265171D01*
X189943793Y-106265164D01*
X189857547Y-106149955D01*
X189857544Y-106149952D01*
X189742335Y-106063706D01*
X189742328Y-106063702D01*
X189607482Y-106013408D01*
X189607483Y-106013408D01*
X189547883Y-106007001D01*
X189547881Y-106007000D01*
X189547873Y-106007000D01*
X189547864Y-106007000D01*
X187452129Y-106007000D01*
X187452123Y-106007001D01*
X187392516Y-106013408D01*
X187257671Y-106063702D01*
X187257664Y-106063706D01*
X187142455Y-106149952D01*
X187142452Y-106149955D01*
X187056206Y-106265164D01*
X187056202Y-106265171D01*
X187005908Y-106400017D01*
X186999501Y-106459616D01*
X186999501Y-106459623D01*
X186999500Y-106459635D01*
X186999500Y-108460370D01*
X186999501Y-108460373D01*
X187002390Y-108487246D01*
X186989983Y-108556005D01*
X186942373Y-108607142D01*
X186879100Y-108624500D01*
X186466112Y-108624500D01*
X186399073Y-108604815D01*
X186378431Y-108588181D01*
X183411819Y-105621568D01*
X183378334Y-105560245D01*
X183375500Y-105533887D01*
X183375500Y-94499500D01*
X183395185Y-94432461D01*
X183447989Y-94386706D01*
X183499500Y-94375500D01*
X188608253Y-94375500D01*
X188608254Y-94375500D01*
X188822097Y-94341630D01*
X188908019Y-94313711D01*
X188977857Y-94311717D01*
X189034016Y-94343962D01*
X191415324Y-96725271D01*
X191415327Y-96725274D01*
X191415330Y-96725276D01*
X191489048Y-96774532D01*
X191521873Y-96796465D01*
X191640256Y-96845501D01*
X191640260Y-96845501D01*
X191640261Y-96845502D01*
X191765928Y-96870500D01*
X191765931Y-96870500D01*
X198983317Y-96870500D01*
X199050356Y-96890185D01*
X199084892Y-96923377D01*
X199179954Y-97059141D01*
X199340858Y-97220045D01*
X199340861Y-97220047D01*
X199527266Y-97350568D01*
X199733504Y-97446739D01*
X199953308Y-97505635D01*
X200111786Y-97519500D01*
X200179998Y-97525468D01*
X200180000Y-97525468D01*
X200180002Y-97525468D01*
X200248214Y-97519500D01*
X200406692Y-97505635D01*
X200626496Y-97446739D01*
X200832734Y-97350568D01*
X200915059Y-97292923D01*
X200981264Y-97270597D01*
X200986181Y-97270499D01*
X212964072Y-97270499D01*
X213048616Y-97253681D01*
X213089745Y-97245500D01*
X213208128Y-97196464D01*
X213314670Y-97125276D01*
X213314674Y-97125271D01*
X213319374Y-97121415D01*
X213320522Y-97122814D01*
X213374361Y-97093404D01*
X213432834Y-97094789D01*
X213473308Y-97105635D01*
X213635230Y-97119801D01*
X213699998Y-97125468D01*
X213700000Y-97125468D01*
X213700002Y-97125468D01*
X213756673Y-97120509D01*
X213926692Y-97105635D01*
X214146496Y-97046739D01*
X214352734Y-96950568D01*
X214539139Y-96820047D01*
X214700047Y-96659139D01*
X214830568Y-96472734D01*
X214926739Y-96266496D01*
X214985635Y-96046692D01*
X215005468Y-95820000D01*
X214985635Y-95593308D01*
X214976997Y-95561074D01*
X214974790Y-95552834D01*
X214976453Y-95482984D01*
X215006882Y-95433062D01*
X219255276Y-91184670D01*
X219285635Y-91139234D01*
X219292398Y-91129113D01*
X219346010Y-91084307D01*
X219415335Y-91075600D01*
X219478362Y-91105754D01*
X219515082Y-91165197D01*
X219519500Y-91198003D01*
X219519500Y-94909191D01*
X219499815Y-94976230D01*
X219483181Y-94996872D01*
X211066937Y-103413115D01*
X211005614Y-103446600D01*
X210947163Y-103445209D01*
X210906697Y-103434366D01*
X210906693Y-103434365D01*
X210906692Y-103434365D01*
X210906691Y-103434364D01*
X210906686Y-103434364D01*
X210680002Y-103414532D01*
X210679998Y-103414532D01*
X210453313Y-103434364D01*
X210453302Y-103434366D01*
X210233511Y-103493258D01*
X210233502Y-103493261D01*
X210027267Y-103589431D01*
X210027265Y-103589432D01*
X209840858Y-103719954D01*
X209679954Y-103880858D01*
X209549432Y-104067265D01*
X209549431Y-104067267D01*
X209453261Y-104273502D01*
X209453258Y-104273511D01*
X209394366Y-104493302D01*
X209394364Y-104493313D01*
X209374532Y-104719998D01*
X209374532Y-104720001D01*
X209394364Y-104946686D01*
X209394366Y-104946697D01*
X209453258Y-105166488D01*
X209453261Y-105166497D01*
X209549431Y-105372732D01*
X209549432Y-105372734D01*
X209679954Y-105559141D01*
X209840858Y-105720045D01*
X209840861Y-105720047D01*
X210027266Y-105850568D01*
X210233504Y-105946739D01*
X210453308Y-106005635D01*
X210615230Y-106019801D01*
X210679998Y-106025468D01*
X210680000Y-106025468D01*
X210680002Y-106025468D01*
X210736673Y-106020509D01*
X210906692Y-106005635D01*
X211126496Y-105946739D01*
X211332734Y-105850568D01*
X211519139Y-105720047D01*
X211680047Y-105559139D01*
X211810568Y-105372734D01*
X211906739Y-105166496D01*
X211965635Y-104946692D01*
X211985468Y-104720000D01*
X211965635Y-104493308D01*
X211954790Y-104452834D01*
X211956453Y-104382984D01*
X211986882Y-104333062D01*
X219955380Y-96364564D01*
X220016701Y-96331081D01*
X220086393Y-96336065D01*
X220142326Y-96377937D01*
X220155441Y-96399841D01*
X220189432Y-96472734D01*
X220189433Y-96472735D01*
X220319954Y-96659141D01*
X220480858Y-96820045D01*
X220480861Y-96820047D01*
X220667266Y-96950568D01*
X220873504Y-97046739D01*
X221093308Y-97105635D01*
X221255230Y-97119801D01*
X221319998Y-97125468D01*
X221320000Y-97125468D01*
X221320002Y-97125468D01*
X221376673Y-97120509D01*
X221546692Y-97105635D01*
X221766496Y-97046739D01*
X221972734Y-96950568D01*
X222159139Y-96820047D01*
X222320047Y-96659139D01*
X222450568Y-96472734D01*
X222546739Y-96266496D01*
X222605635Y-96046692D01*
X222625468Y-95820000D01*
X222605635Y-95593308D01*
X222548710Y-95380861D01*
X222546741Y-95373511D01*
X222546738Y-95373502D01*
X222545168Y-95370135D01*
X222450568Y-95167266D01*
X222331258Y-94996872D01*
X222320045Y-94980858D01*
X222159141Y-94819954D01*
X221972734Y-94689432D01*
X221972728Y-94689429D01*
X221914725Y-94662382D01*
X221862285Y-94616210D01*
X221843133Y-94549017D01*
X221863348Y-94482135D01*
X221914725Y-94437618D01*
X221972734Y-94410568D01*
X222159139Y-94280047D01*
X222320047Y-94119139D01*
X222450568Y-93932734D01*
X222546739Y-93726496D01*
X222605635Y-93506692D01*
X222625468Y-93280000D01*
X222625467Y-93279994D01*
X222609602Y-93098650D01*
X222605635Y-93053308D01*
X222553181Y-92857546D01*
X222546741Y-92833511D01*
X222546738Y-92833502D01*
X222504224Y-92742331D01*
X222450568Y-92627266D01*
X222320047Y-92440861D01*
X222320045Y-92440858D01*
X222159141Y-92279954D01*
X221972734Y-92149432D01*
X221972732Y-92149431D01*
X221914725Y-92122382D01*
X221914132Y-92122105D01*
X221861694Y-92075934D01*
X221842542Y-92008740D01*
X221862758Y-91941859D01*
X221914134Y-91897341D01*
X221972484Y-91870132D01*
X222158820Y-91739657D01*
X222319657Y-91578820D01*
X222450134Y-91392482D01*
X222546265Y-91186326D01*
X222546269Y-91186317D01*
X222598872Y-90990000D01*
X221635686Y-90990000D01*
X221640080Y-90985606D01*
X221692741Y-90894394D01*
X221720000Y-90792661D01*
X221720000Y-90687339D01*
X221692741Y-90585606D01*
X221640080Y-90494394D01*
X221635686Y-90490000D01*
X222598872Y-90490000D01*
X222598872Y-90489999D01*
X222546269Y-90293682D01*
X222546265Y-90293673D01*
X222450134Y-90087517D01*
X222319657Y-89901179D01*
X222158820Y-89740342D01*
X221972482Y-89609865D01*
X221914133Y-89582657D01*
X221861694Y-89536484D01*
X221842542Y-89469291D01*
X221862758Y-89402410D01*
X221914129Y-89357895D01*
X221972734Y-89330568D01*
X222159139Y-89200047D01*
X222320047Y-89039139D01*
X222450568Y-88852734D01*
X222546739Y-88646496D01*
X222605635Y-88426692D01*
X222625468Y-88200000D01*
X222605635Y-87973308D01*
X222546739Y-87753504D01*
X222450568Y-87547266D01*
X222320047Y-87360861D01*
X222320045Y-87360858D01*
X222159141Y-87199954D01*
X221972734Y-87069432D01*
X221972732Y-87069431D01*
X221766497Y-86973261D01*
X221766488Y-86973258D01*
X221546697Y-86914366D01*
X221546693Y-86914365D01*
X221546692Y-86914365D01*
X221546691Y-86914364D01*
X221546686Y-86914364D01*
X221320002Y-86894532D01*
X221319998Y-86894532D01*
X221093313Y-86914364D01*
X221093302Y-86914366D01*
X220873511Y-86973258D01*
X220873502Y-86973261D01*
X220667267Y-87069431D01*
X220667265Y-87069432D01*
X220480858Y-87199954D01*
X220319954Y-87360858D01*
X220189432Y-87547265D01*
X220189431Y-87547267D01*
X220093261Y-87753502D01*
X220093258Y-87753511D01*
X220034366Y-87973302D01*
X220034364Y-87973313D01*
X220014532Y-88199998D01*
X220014532Y-88200001D01*
X220034364Y-88426686D01*
X220034366Y-88426697D01*
X220045209Y-88467163D01*
X220043546Y-88537013D01*
X220013115Y-88586937D01*
X219664725Y-88935328D01*
X219664722Y-88935332D01*
X219627602Y-88990887D01*
X219573990Y-89035692D01*
X219504665Y-89044399D01*
X219441638Y-89014245D01*
X219404918Y-88954802D01*
X219400500Y-88921996D01*
X219400500Y-83540807D01*
X219420185Y-83473768D01*
X219436814Y-83453131D01*
X220863062Y-82026882D01*
X220924383Y-81993399D01*
X220982834Y-81994790D01*
X221023308Y-82005635D01*
X221185230Y-82019801D01*
X221249998Y-82025468D01*
X221250000Y-82025468D01*
X221250002Y-82025468D01*
X221306673Y-82020509D01*
X221476692Y-82005635D01*
X221696496Y-81946739D01*
X221902734Y-81850568D01*
X222089139Y-81720047D01*
X222250047Y-81559139D01*
X222380568Y-81372734D01*
X222476739Y-81166496D01*
X222535635Y-80946692D01*
X222555468Y-80720000D01*
X222535635Y-80493308D01*
X222476739Y-80273504D01*
X222380568Y-80067266D01*
X222250047Y-79880861D01*
X222250045Y-79880858D01*
X222089141Y-79719954D01*
X221902734Y-79589432D01*
X221902732Y-79589431D01*
X221696497Y-79493261D01*
X221696488Y-79493258D01*
X221476697Y-79434366D01*
X221476693Y-79434365D01*
X221476692Y-79434365D01*
X221476691Y-79434364D01*
X221476686Y-79434364D01*
X221250002Y-79414532D01*
X221249998Y-79414532D01*
X221023313Y-79434364D01*
X221023302Y-79434366D01*
X220803511Y-79493258D01*
X220803502Y-79493261D01*
X220597267Y-79589431D01*
X220597265Y-79589432D01*
X220410858Y-79719954D01*
X220249954Y-79880858D01*
X220119432Y-80067265D01*
X220119431Y-80067267D01*
X220023261Y-80273502D01*
X220023258Y-80273511D01*
X219964366Y-80493302D01*
X219964364Y-80493313D01*
X219944532Y-80719998D01*
X219944532Y-80720001D01*
X219964364Y-80946686D01*
X219964366Y-80946697D01*
X219975209Y-80987163D01*
X219973546Y-81057013D01*
X219943115Y-81106937D01*
X218244725Y-82805328D01*
X218244719Y-82805336D01*
X218204256Y-82865893D01*
X218204257Y-82865894D01*
X218173534Y-82911874D01*
X218124499Y-83030255D01*
X218124497Y-83030261D01*
X218099500Y-83155928D01*
X218099500Y-90449191D01*
X218079815Y-90516230D01*
X218063181Y-90536872D01*
X215216208Y-93383844D01*
X215154885Y-93417329D01*
X215085193Y-93412345D01*
X215029260Y-93370473D01*
X215004843Y-93305009D01*
X215004998Y-93285361D01*
X215005468Y-93280000D01*
X214985635Y-93053308D01*
X214933181Y-92857546D01*
X214926741Y-92833511D01*
X214926738Y-92833502D01*
X214884224Y-92742331D01*
X214830568Y-92627266D01*
X214700047Y-92440861D01*
X214700045Y-92440858D01*
X214539141Y-92279954D01*
X214352734Y-92149432D01*
X214352728Y-92149429D01*
X214294725Y-92122382D01*
X214242285Y-92076210D01*
X214223133Y-92009017D01*
X214243348Y-91942135D01*
X214294725Y-91897618D01*
X214295319Y-91897341D01*
X214352734Y-91870568D01*
X214539139Y-91740047D01*
X214700047Y-91579139D01*
X214830568Y-91392734D01*
X214926739Y-91186496D01*
X214985635Y-90966692D01*
X215005161Y-90743511D01*
X215005468Y-90740001D01*
X215005468Y-90739998D01*
X214987731Y-90537265D01*
X214985635Y-90513308D01*
X214974790Y-90472834D01*
X214976453Y-90402984D01*
X215006882Y-90353062D01*
X216755277Y-88604669D01*
X216826466Y-88498126D01*
X216856052Y-88426697D01*
X216871358Y-88389746D01*
X216871358Y-88389745D01*
X216871651Y-88389037D01*
X216875501Y-88379744D01*
X216892457Y-88294502D01*
X216900500Y-88254071D01*
X216900500Y-81916682D01*
X216920185Y-81849643D01*
X216953371Y-81815111D01*
X217089139Y-81720047D01*
X217250047Y-81559139D01*
X217380568Y-81372734D01*
X217476739Y-81166496D01*
X217535635Y-80946692D01*
X217555468Y-80720000D01*
X217535635Y-80493308D01*
X217476739Y-80273504D01*
X217380568Y-80067266D01*
X217250047Y-79880861D01*
X217250045Y-79880858D01*
X217089141Y-79719954D01*
X216902734Y-79589432D01*
X216902732Y-79589431D01*
X216696497Y-79493261D01*
X216696488Y-79493258D01*
X216476697Y-79434366D01*
X216476693Y-79434365D01*
X216476692Y-79434365D01*
X216476691Y-79434364D01*
X216476686Y-79434364D01*
X216250002Y-79414532D01*
X216249998Y-79414532D01*
X216023313Y-79434364D01*
X216023302Y-79434366D01*
X215803511Y-79493258D01*
X215803502Y-79493261D01*
X215597267Y-79589431D01*
X215597265Y-79589432D01*
X215410858Y-79719954D01*
X215249954Y-79880858D01*
X215119432Y-80067265D01*
X215119431Y-80067267D01*
X215023261Y-80273502D01*
X215023258Y-80273511D01*
X214964366Y-80493302D01*
X214964364Y-80493313D01*
X214944532Y-80719998D01*
X214944532Y-80720001D01*
X214964364Y-80946686D01*
X214964366Y-80946697D01*
X215023258Y-81166488D01*
X215023261Y-81166497D01*
X215119431Y-81372732D01*
X215119432Y-81372734D01*
X215249954Y-81559141D01*
X215410855Y-81720042D01*
X215410858Y-81720044D01*
X215410861Y-81720047D01*
X215546626Y-81815109D01*
X215590248Y-81869683D01*
X215599500Y-81916682D01*
X215599500Y-87869191D01*
X215579815Y-87936230D01*
X215563181Y-87956872D01*
X215212180Y-88307873D01*
X215150857Y-88341358D01*
X215081165Y-88336374D01*
X215025232Y-88294502D01*
X215000815Y-88229038D01*
X215000499Y-88220192D01*
X215000499Y-87352129D01*
X215000498Y-87352123D01*
X215000497Y-87352116D01*
X214994091Y-87292517D01*
X214984673Y-87267267D01*
X214943797Y-87157671D01*
X214943793Y-87157664D01*
X214857547Y-87042455D01*
X214857544Y-87042452D01*
X214742335Y-86956206D01*
X214742328Y-86956202D01*
X214607482Y-86905908D01*
X214607483Y-86905908D01*
X214547883Y-86899501D01*
X214547881Y-86899500D01*
X214547873Y-86899500D01*
X214547864Y-86899500D01*
X212852129Y-86899500D01*
X212852123Y-86899501D01*
X212792516Y-86905908D01*
X212657671Y-86956202D01*
X212657664Y-86956206D01*
X212542455Y-87042452D01*
X212542452Y-87042455D01*
X212456206Y-87157664D01*
X212456202Y-87157671D01*
X212405908Y-87292517D01*
X212401305Y-87335336D01*
X212399501Y-87352123D01*
X212399500Y-87352135D01*
X212399501Y-89047862D01*
X212399501Y-89047876D01*
X212405908Y-89107483D01*
X212456202Y-89242328D01*
X212456206Y-89242335D01*
X212542452Y-89357544D01*
X212542455Y-89357547D01*
X212657664Y-89443793D01*
X212657671Y-89443797D01*
X212691089Y-89456261D01*
X212792517Y-89494091D01*
X212827596Y-89497862D01*
X212892144Y-89524599D01*
X212931993Y-89581991D01*
X212934488Y-89651816D01*
X212898836Y-89711905D01*
X212885464Y-89722725D01*
X212860858Y-89739954D01*
X212699954Y-89900858D01*
X212569432Y-90087265D01*
X212569431Y-90087267D01*
X212473261Y-90293502D01*
X212473258Y-90293511D01*
X212414366Y-90513302D01*
X212414364Y-90513313D01*
X212394532Y-90739998D01*
X212395001Y-90745362D01*
X212381231Y-90813862D01*
X212332613Y-90864042D01*
X212264584Y-90879973D01*
X212198741Y-90856594D01*
X212183791Y-90843845D01*
X210266819Y-88926873D01*
X210233334Y-88865550D01*
X210230500Y-88839192D01*
X210230500Y-83196682D01*
X210250185Y-83129643D01*
X210283371Y-83095111D01*
X210419139Y-83000047D01*
X210580047Y-82839139D01*
X210710568Y-82652734D01*
X210806739Y-82446496D01*
X210865635Y-82226692D01*
X210884975Y-82005633D01*
X210885468Y-82000001D01*
X210885468Y-81999998D01*
X210876298Y-81895185D01*
X210865635Y-81773308D01*
X210820916Y-81606415D01*
X210806741Y-81553511D01*
X210806738Y-81553502D01*
X210797809Y-81534354D01*
X210710568Y-81347266D01*
X210580047Y-81160861D01*
X210580045Y-81160858D01*
X210419141Y-80999954D01*
X210232734Y-80869432D01*
X210232732Y-80869431D01*
X210026497Y-80773261D01*
X210026488Y-80773258D01*
X209806697Y-80714366D01*
X209806693Y-80714365D01*
X209806692Y-80714365D01*
X209806691Y-80714364D01*
X209806686Y-80714364D01*
X209580002Y-80694532D01*
X209579998Y-80694532D01*
X209353313Y-80714364D01*
X209353302Y-80714366D01*
X209133511Y-80773258D01*
X209133502Y-80773261D01*
X208927267Y-80869431D01*
X208927265Y-80869432D01*
X208740858Y-80999954D01*
X208579954Y-81160858D01*
X208449432Y-81347265D01*
X208449431Y-81347267D01*
X208353261Y-81553502D01*
X208353258Y-81553511D01*
X208294366Y-81773302D01*
X208294364Y-81773313D01*
X208274532Y-81999998D01*
X208274532Y-82000001D01*
X208294364Y-82226686D01*
X208294366Y-82226697D01*
X208353258Y-82446488D01*
X208353261Y-82446497D01*
X208449431Y-82652732D01*
X208449432Y-82652734D01*
X208579954Y-82839141D01*
X208740855Y-83000042D01*
X208740858Y-83000044D01*
X208740861Y-83000047D01*
X208876626Y-83095109D01*
X208920248Y-83149683D01*
X208929500Y-83196682D01*
X208929500Y-87118999D01*
X208909815Y-87186038D01*
X208857011Y-87231793D01*
X208787853Y-87241737D01*
X208724297Y-87212712D01*
X208693118Y-87171404D01*
X208641190Y-87060045D01*
X208630568Y-87037266D01*
X208500047Y-86850861D01*
X208500045Y-86850858D01*
X208339141Y-86689954D01*
X208152734Y-86559432D01*
X208152732Y-86559431D01*
X207946497Y-86463261D01*
X207946488Y-86463258D01*
X207726697Y-86404366D01*
X207726693Y-86404365D01*
X207726692Y-86404365D01*
X207726691Y-86404364D01*
X207726686Y-86404364D01*
X207500002Y-86384532D01*
X207499998Y-86384532D01*
X207273313Y-86404364D01*
X207273302Y-86404366D01*
X207053511Y-86463258D01*
X207053502Y-86463261D01*
X206847267Y-86559431D01*
X206847265Y-86559432D01*
X206660858Y-86689954D01*
X206499954Y-86850858D01*
X206369432Y-87037265D01*
X206369431Y-87037267D01*
X206273261Y-87243502D01*
X206273258Y-87243511D01*
X206214366Y-87463302D01*
X206214364Y-87463313D01*
X206194532Y-87689998D01*
X206194532Y-87690001D01*
X206214364Y-87916686D01*
X206214366Y-87916697D01*
X206273258Y-88136488D01*
X206273261Y-88136497D01*
X206369431Y-88342732D01*
X206369432Y-88342734D01*
X206499954Y-88529141D01*
X206660858Y-88690045D01*
X206660861Y-88690047D01*
X206847266Y-88820568D01*
X207053504Y-88916739D01*
X207053509Y-88916740D01*
X207053511Y-88916741D01*
X207073123Y-88921996D01*
X207273308Y-88975635D01*
X207435230Y-88989801D01*
X207499998Y-88995468D01*
X207500000Y-88995468D01*
X207500002Y-88995468D01*
X207556673Y-88990509D01*
X207726692Y-88975635D01*
X207946496Y-88916739D01*
X208152734Y-88820568D01*
X208339139Y-88690047D01*
X208500047Y-88529139D01*
X208630568Y-88342734D01*
X208693118Y-88208593D01*
X208739290Y-88156156D01*
X208806484Y-88137004D01*
X208873365Y-88157220D01*
X208918700Y-88210385D01*
X208929500Y-88261000D01*
X208929500Y-89224070D01*
X208950684Y-89330563D01*
X208950684Y-89330565D01*
X208954497Y-89349736D01*
X208954501Y-89349749D01*
X209003532Y-89468123D01*
X209074726Y-89574673D01*
X209074727Y-89574674D01*
X212393115Y-92893061D01*
X212426600Y-92954384D01*
X212425209Y-93012834D01*
X212414367Y-93053299D01*
X212414364Y-93053313D01*
X212394532Y-93279998D01*
X212394532Y-93280001D01*
X212414364Y-93506686D01*
X212414366Y-93506697D01*
X212473258Y-93726488D01*
X212473261Y-93726497D01*
X212569431Y-93932732D01*
X212569432Y-93932734D01*
X212699954Y-94119141D01*
X212860858Y-94280045D01*
X212860861Y-94280047D01*
X213047266Y-94410568D01*
X213105275Y-94437618D01*
X213157714Y-94483791D01*
X213176866Y-94550984D01*
X213156650Y-94617865D01*
X213105275Y-94662382D01*
X213047267Y-94689431D01*
X213047265Y-94689432D01*
X212860858Y-94819954D01*
X212699954Y-94980858D01*
X212569432Y-95167265D01*
X212569431Y-95167267D01*
X212473261Y-95373502D01*
X212473258Y-95373511D01*
X212414366Y-95593302D01*
X212414364Y-95593313D01*
X212394532Y-95819998D01*
X212394532Y-95820003D01*
X212395817Y-95834693D01*
X212382050Y-95903193D01*
X212333434Y-95953375D01*
X212272289Y-95969499D01*
X208924500Y-95969499D01*
X208857461Y-95949814D01*
X208811706Y-95897010D01*
X208800500Y-95845499D01*
X208800499Y-94462129D01*
X208800498Y-94462123D01*
X208800497Y-94462116D01*
X208794091Y-94402517D01*
X208791356Y-94395185D01*
X208743797Y-94267671D01*
X208743793Y-94267664D01*
X208657547Y-94152455D01*
X208657544Y-94152452D01*
X208542335Y-94066206D01*
X208542328Y-94066202D01*
X208407482Y-94015908D01*
X208407483Y-94015908D01*
X208347883Y-94009501D01*
X208347881Y-94009500D01*
X208347873Y-94009500D01*
X208347864Y-94009500D01*
X206652129Y-94009500D01*
X206652123Y-94009501D01*
X206592516Y-94015908D01*
X206457671Y-94066202D01*
X206457664Y-94066206D01*
X206342455Y-94152452D01*
X206342452Y-94152455D01*
X206256206Y-94267664D01*
X206256202Y-94267671D01*
X206205908Y-94402517D01*
X206202135Y-94437618D01*
X206199500Y-94462127D01*
X206199500Y-95206310D01*
X206199501Y-95845499D01*
X206179816Y-95912538D01*
X206127013Y-95958293D01*
X206075501Y-95969499D01*
X201554404Y-95969499D01*
X201487365Y-95949814D01*
X201441610Y-95897010D01*
X201434629Y-95877592D01*
X201406741Y-95773511D01*
X201406738Y-95773502D01*
X201383672Y-95724038D01*
X201310568Y-95567266D01*
X201180047Y-95380861D01*
X201180045Y-95380858D01*
X201019141Y-95219954D01*
X200832734Y-95089432D01*
X200832732Y-95089431D01*
X200626497Y-94993261D01*
X200626488Y-94993258D01*
X200406697Y-94934366D01*
X200406693Y-94934365D01*
X200406692Y-94934365D01*
X200406691Y-94934364D01*
X200406686Y-94934364D01*
X200180002Y-94914532D01*
X200179998Y-94914532D01*
X199953313Y-94934364D01*
X199953302Y-94934366D01*
X199733511Y-94993258D01*
X199733502Y-94993261D01*
X199527267Y-95089431D01*
X199527265Y-95089432D01*
X199340858Y-95219954D01*
X199179954Y-95380858D01*
X199084892Y-95516623D01*
X199030315Y-95560248D01*
X198983317Y-95569500D01*
X192150808Y-95569500D01*
X192083769Y-95549815D01*
X192063127Y-95533181D01*
X189925939Y-93395993D01*
X189892454Y-93334670D01*
X189895597Y-93271856D01*
X189895494Y-93271832D01*
X189895626Y-93271280D01*
X189895691Y-93269989D01*
X189896631Y-93267097D01*
X189912303Y-93168149D01*
X189930500Y-93053259D01*
X189930500Y-83663928D01*
X189944016Y-83607633D01*
X189949048Y-83597758D01*
X190019722Y-83380245D01*
X190055500Y-83154354D01*
X190055500Y-82925646D01*
X190019722Y-82699755D01*
X190019721Y-82699751D01*
X190019721Y-82699750D01*
X189949049Y-82482244D01*
X189942389Y-82469173D01*
X189845217Y-82278462D01*
X189710786Y-82093434D01*
X189549066Y-81931714D01*
X189464559Y-81870316D01*
X189421896Y-81814988D01*
X189415917Y-81745375D01*
X189448523Y-81683580D01*
X189464556Y-81669685D01*
X189549066Y-81608286D01*
X189710786Y-81446566D01*
X189845217Y-81261538D01*
X189949048Y-81057758D01*
X189985134Y-80946697D01*
X190019721Y-80840249D01*
X190019721Y-80840248D01*
X190019722Y-80840245D01*
X190055500Y-80614354D01*
X190055500Y-80385646D01*
X190019722Y-80159755D01*
X190019721Y-80159751D01*
X190019721Y-80159750D01*
X189949049Y-79942244D01*
X189917524Y-79880373D01*
X189845217Y-79738462D01*
X189712472Y-79555755D01*
X189688994Y-79489953D01*
X189704819Y-79421899D01*
X189754925Y-79373204D01*
X189769455Y-79366692D01*
X189797331Y-79356296D01*
X189912546Y-79270046D01*
X189998796Y-79154831D01*
X190049091Y-79019983D01*
X190055500Y-78960373D01*
X190055500Y-78734500D01*
X190075185Y-78667461D01*
X190127989Y-78621706D01*
X190179500Y-78610500D01*
X197725500Y-78610500D01*
X197792539Y-78630185D01*
X197838294Y-78682989D01*
X197849500Y-78734500D01*
X197849500Y-81144069D01*
X197854590Y-81169654D01*
X197854589Y-81169654D01*
X197854590Y-81169657D01*
X197872866Y-81261538D01*
X197874499Y-81269744D01*
X197923535Y-81388127D01*
X197994723Y-81494669D01*
X198113116Y-81613062D01*
X198146600Y-81674383D01*
X198145209Y-81732834D01*
X198134367Y-81773299D01*
X198134364Y-81773313D01*
X198114532Y-81999998D01*
X198114532Y-82000001D01*
X198134364Y-82226686D01*
X198134366Y-82226697D01*
X198193258Y-82446488D01*
X198193261Y-82446497D01*
X198289431Y-82652732D01*
X198289432Y-82652734D01*
X198419954Y-82839141D01*
X198580858Y-83000045D01*
X198599977Y-83013432D01*
X198767266Y-83130568D01*
X198973504Y-83226739D01*
X199193308Y-83285635D01*
X199376190Y-83301635D01*
X199416307Y-83305145D01*
X199481376Y-83330597D01*
X199522355Y-83387188D01*
X199529500Y-83428673D01*
X199529500Y-84863316D01*
X199509815Y-84930355D01*
X199476623Y-84964891D01*
X199340859Y-85059953D01*
X199179954Y-85220858D01*
X199049432Y-85407265D01*
X199049431Y-85407267D01*
X198953261Y-85613502D01*
X198953258Y-85613511D01*
X198894366Y-85833302D01*
X198894364Y-85833313D01*
X198874532Y-86059998D01*
X198874532Y-86060001D01*
X198894364Y-86286686D01*
X198894366Y-86286697D01*
X198953258Y-86506488D01*
X198953261Y-86506497D01*
X199049431Y-86712732D01*
X199049432Y-86712734D01*
X199179954Y-86899141D01*
X199340858Y-87060045D01*
X199340861Y-87060047D01*
X199527266Y-87190568D01*
X199733504Y-87286739D01*
X199953308Y-87345635D01*
X200115230Y-87359801D01*
X200179998Y-87365468D01*
X200180000Y-87365468D01*
X200180002Y-87365468D01*
X200236673Y-87360509D01*
X200406692Y-87345635D01*
X200626496Y-87286739D01*
X200832734Y-87190568D01*
X201019139Y-87060047D01*
X201180047Y-86899139D01*
X201310568Y-86712734D01*
X201406739Y-86506496D01*
X201465635Y-86286692D01*
X201485468Y-86060000D01*
X201465635Y-85833308D01*
X201406739Y-85613504D01*
X201310568Y-85407266D01*
X201180047Y-85220861D01*
X201180045Y-85220858D01*
X201019140Y-85059953D01*
X200883377Y-84964891D01*
X200839752Y-84910314D01*
X200830500Y-84863316D01*
X200830500Y-82695928D01*
X200805502Y-82570261D01*
X200805501Y-82570260D01*
X200805501Y-82570256D01*
X200756465Y-82451873D01*
X200729040Y-82410828D01*
X200708330Y-82379833D01*
X200687453Y-82313159D01*
X200691658Y-82278851D01*
X200705635Y-82226692D01*
X200724975Y-82005633D01*
X200725468Y-82000001D01*
X200725468Y-81999998D01*
X200716298Y-81895185D01*
X200705635Y-81773308D01*
X200660916Y-81606415D01*
X200646741Y-81553511D01*
X200646738Y-81553502D01*
X200637809Y-81534354D01*
X200550568Y-81347266D01*
X200420047Y-81160861D01*
X200420045Y-81160858D01*
X200259141Y-80999954D01*
X200072734Y-80869432D01*
X200072732Y-80869431D01*
X199866497Y-80773261D01*
X199866488Y-80773258D01*
X199646697Y-80714366D01*
X199646693Y-80714365D01*
X199646692Y-80714365D01*
X199646691Y-80714364D01*
X199646686Y-80714364D01*
X199420002Y-80694532D01*
X199419998Y-80694532D01*
X199285307Y-80706316D01*
X199216807Y-80692549D01*
X199166624Y-80643934D01*
X199150500Y-80582788D01*
X199150500Y-77975928D01*
X199125502Y-77850261D01*
X199125501Y-77850260D01*
X199125501Y-77850256D01*
X199076465Y-77731873D01*
X199005277Y-77625331D01*
X199005275Y-77625329D01*
X199005273Y-77625326D01*
X198834673Y-77454726D01*
X198834669Y-77454723D01*
X198728127Y-77383535D01*
X198609744Y-77334499D01*
X198609738Y-77334497D01*
X198484071Y-77309500D01*
X198484069Y-77309500D01*
X190179499Y-77309500D01*
X190112460Y-77289815D01*
X190066705Y-77237011D01*
X190055499Y-77185500D01*
X190055499Y-76959629D01*
X190055498Y-76959623D01*
X190055497Y-76959616D01*
X190049091Y-76900017D01*
X190024615Y-76834394D01*
X190022976Y-76829999D01*
X217721127Y-76829999D01*
X217721128Y-76830000D01*
X218684314Y-76830000D01*
X218679920Y-76834394D01*
X218627259Y-76925606D01*
X218600000Y-77027339D01*
X218600000Y-77132661D01*
X218627259Y-77234394D01*
X218679920Y-77325606D01*
X218684314Y-77330000D01*
X217721128Y-77330000D01*
X217773730Y-77526317D01*
X217773734Y-77526326D01*
X217869865Y-77732482D01*
X218000342Y-77918820D01*
X218161179Y-78079657D01*
X218347517Y-78210134D01*
X218553673Y-78306265D01*
X218553682Y-78306269D01*
X218749999Y-78358872D01*
X218750000Y-78358871D01*
X218750000Y-77395686D01*
X218754394Y-77400080D01*
X218845606Y-77452741D01*
X218947339Y-77480000D01*
X219052661Y-77480000D01*
X219154394Y-77452741D01*
X219245606Y-77400080D01*
X219250000Y-77395686D01*
X219250000Y-78358872D01*
X219446317Y-78306269D01*
X219446326Y-78306265D01*
X219652482Y-78210134D01*
X219838820Y-78079657D01*
X219999657Y-77918820D01*
X220130134Y-77732482D01*
X220226265Y-77526326D01*
X220226269Y-77526317D01*
X220278872Y-77330000D01*
X219315686Y-77330000D01*
X219320080Y-77325606D01*
X219372741Y-77234394D01*
X219400000Y-77132661D01*
X219400000Y-77027339D01*
X219372741Y-76925606D01*
X219320080Y-76834394D01*
X219315686Y-76830000D01*
X220278872Y-76830000D01*
X220278872Y-76829999D01*
X220226269Y-76633682D01*
X220226265Y-76633673D01*
X220130134Y-76427517D01*
X219999657Y-76241179D01*
X219838820Y-76080342D01*
X219652482Y-75949865D01*
X219446328Y-75853734D01*
X219250000Y-75801127D01*
X219250000Y-76764314D01*
X219245606Y-76759920D01*
X219154394Y-76707259D01*
X219052661Y-76680000D01*
X218947339Y-76680000D01*
X218845606Y-76707259D01*
X218754394Y-76759920D01*
X218750000Y-76764314D01*
X218750000Y-75801127D01*
X218553671Y-75853734D01*
X218347517Y-75949865D01*
X218161179Y-76080342D01*
X218000342Y-76241179D01*
X217869865Y-76427517D01*
X217773734Y-76633673D01*
X217773730Y-76633682D01*
X217721127Y-76829999D01*
X190022976Y-76829999D01*
X189998797Y-76765171D01*
X189998793Y-76765164D01*
X189912547Y-76649955D01*
X189912544Y-76649952D01*
X189797335Y-76563706D01*
X189797328Y-76563702D01*
X189662482Y-76513408D01*
X189662483Y-76513408D01*
X189602883Y-76507001D01*
X189602881Y-76507000D01*
X189602873Y-76507000D01*
X189602864Y-76507000D01*
X187507129Y-76507000D01*
X187507123Y-76507001D01*
X187447516Y-76513408D01*
X187312671Y-76563702D01*
X187312664Y-76563706D01*
X187197455Y-76649952D01*
X187197452Y-76649955D01*
X187111206Y-76765164D01*
X187111202Y-76765171D01*
X187060908Y-76900017D01*
X187054501Y-76959616D01*
X187054501Y-76959623D01*
X187054500Y-76959635D01*
X187054500Y-78960370D01*
X187054501Y-78960373D01*
X187057390Y-78987246D01*
X187044983Y-79056005D01*
X186997373Y-79107142D01*
X186934100Y-79124500D01*
X177716113Y-79124500D01*
X177649074Y-79104815D01*
X177628432Y-79088181D01*
X176591818Y-78051567D01*
X176558333Y-77990244D01*
X176555499Y-77963886D01*
X176555499Y-77412129D01*
X176555498Y-77412123D01*
X176549091Y-77352516D01*
X176498797Y-77217671D01*
X176498793Y-77217664D01*
X176412547Y-77102455D01*
X176412544Y-77102452D01*
X176297335Y-77016206D01*
X176297328Y-77016202D01*
X176162482Y-76965908D01*
X176162483Y-76965908D01*
X176102883Y-76959501D01*
X176102881Y-76959500D01*
X176102873Y-76959500D01*
X176102864Y-76959500D01*
X174007129Y-76959500D01*
X174007123Y-76959501D01*
X173947516Y-76965908D01*
X173865010Y-76996682D01*
X173821677Y-77004500D01*
X172274500Y-77004500D01*
X172207461Y-76984815D01*
X172161706Y-76932011D01*
X172150500Y-76880500D01*
X172150500Y-63570808D01*
X172170185Y-63503769D01*
X172186819Y-63483127D01*
X172983127Y-62686819D01*
X173044450Y-62653334D01*
X173070808Y-62650500D01*
X173303317Y-62650500D01*
X173370356Y-62670185D01*
X173404892Y-62703377D01*
X173499954Y-62839141D01*
X173660858Y-63000045D01*
X173660861Y-63000047D01*
X173846624Y-63130118D01*
X173890248Y-63184693D01*
X173899500Y-63231692D01*
X173899500Y-63913330D01*
X173899499Y-63913348D01*
X173899499Y-64079054D01*
X173899498Y-64079054D01*
X173940422Y-64231783D01*
X173964509Y-64273502D01*
X173964511Y-64273505D01*
X174019479Y-64368714D01*
X174019481Y-64368717D01*
X174138349Y-64487585D01*
X174138355Y-64487590D01*
X175663181Y-66012416D01*
X175696666Y-66073739D01*
X175699500Y-66100097D01*
X175699500Y-67347870D01*
X175699501Y-67347876D01*
X175705908Y-67407483D01*
X175756202Y-67542328D01*
X175756206Y-67542335D01*
X175842452Y-67657544D01*
X175842455Y-67657547D01*
X175957664Y-67743793D01*
X175957671Y-67743797D01*
X175998806Y-67759139D01*
X176092517Y-67794091D01*
X176152127Y-67800500D01*
X176152153Y-67800499D01*
X176155453Y-67800678D01*
X176155372Y-67802183D01*
X176216672Y-67820112D01*
X176262483Y-67872867D01*
X176270016Y-67916464D01*
X176953553Y-68600000D01*
X176947339Y-68600000D01*
X176845606Y-68627259D01*
X176754394Y-68679920D01*
X176679920Y-68754394D01*
X176627259Y-68845606D01*
X176600000Y-68947339D01*
X176600000Y-68953552D01*
X175920974Y-68274526D01*
X175920973Y-68274526D01*
X175869868Y-68347512D01*
X175869866Y-68347516D01*
X175773734Y-68553673D01*
X175773730Y-68553682D01*
X175714860Y-68773389D01*
X175714858Y-68773400D01*
X175695034Y-68999997D01*
X175695034Y-69000002D01*
X175714858Y-69226599D01*
X175714860Y-69226610D01*
X175773730Y-69446317D01*
X175773735Y-69446331D01*
X175869863Y-69652478D01*
X175920974Y-69725472D01*
X176600000Y-69046446D01*
X176600000Y-69052661D01*
X176627259Y-69154394D01*
X176679920Y-69245606D01*
X176754394Y-69320080D01*
X176845606Y-69372741D01*
X176947339Y-69400000D01*
X176953553Y-69400000D01*
X176274526Y-70079025D01*
X176347513Y-70130132D01*
X176347521Y-70130136D01*
X176553668Y-70226264D01*
X176553682Y-70226269D01*
X176773389Y-70285139D01*
X176773400Y-70285141D01*
X176999998Y-70304966D01*
X177000002Y-70304966D01*
X177226599Y-70285141D01*
X177226610Y-70285139D01*
X177446317Y-70226269D01*
X177446331Y-70226264D01*
X177652478Y-70130136D01*
X177725471Y-70079024D01*
X177046447Y-69400000D01*
X177052661Y-69400000D01*
X177154394Y-69372741D01*
X177245606Y-69320080D01*
X177320080Y-69245606D01*
X177372741Y-69154394D01*
X177400000Y-69052661D01*
X177400000Y-69046447D01*
X178079024Y-69725471D01*
X178130136Y-69652478D01*
X178226264Y-69446331D01*
X178226269Y-69446317D01*
X178285139Y-69226610D01*
X178285141Y-69226599D01*
X178304966Y-69000002D01*
X178304966Y-68999997D01*
X178285141Y-68773400D01*
X178285139Y-68773389D01*
X178226269Y-68553682D01*
X178226264Y-68553668D01*
X178130136Y-68347521D01*
X178130132Y-68347513D01*
X178079025Y-68274526D01*
X177400000Y-68953551D01*
X177400000Y-68947339D01*
X177372741Y-68845606D01*
X177320080Y-68754394D01*
X177245606Y-68679920D01*
X177154394Y-68627259D01*
X177052661Y-68600000D01*
X177046448Y-68600000D01*
X177730645Y-67915801D01*
X177740492Y-67866807D01*
X177789107Y-67816624D01*
X177844633Y-67801981D01*
X177844576Y-67800900D01*
X177844571Y-67800854D01*
X177844573Y-67800853D01*
X177844564Y-67800676D01*
X177847857Y-67800499D01*
X177847872Y-67800499D01*
X177907483Y-67794091D01*
X178042331Y-67743796D01*
X178157546Y-67657546D01*
X178243796Y-67542331D01*
X178294091Y-67407483D01*
X178300500Y-67347873D01*
X178300499Y-65652128D01*
X178294091Y-65592517D01*
X178284378Y-65566476D01*
X178243797Y-65457671D01*
X178243793Y-65457664D01*
X178157547Y-65342455D01*
X178157544Y-65342452D01*
X178042335Y-65256206D01*
X178042328Y-65256202D01*
X177907482Y-65205908D01*
X177907483Y-65205908D01*
X177847883Y-65199501D01*
X177847881Y-65199500D01*
X177847873Y-65199500D01*
X177847865Y-65199500D01*
X176600097Y-65199500D01*
X176533058Y-65179815D01*
X176512416Y-65163181D01*
X175136819Y-63787584D01*
X175103334Y-63726261D01*
X175100500Y-63699903D01*
X175100500Y-63231692D01*
X175120185Y-63164653D01*
X175153374Y-63130119D01*
X175339139Y-63000047D01*
X175500047Y-62839139D01*
X175579637Y-62725472D01*
X175595108Y-62703377D01*
X175649685Y-62659752D01*
X175696683Y-62650500D01*
X191274192Y-62650500D01*
X191341231Y-62670185D01*
X191361873Y-62686819D01*
X191915488Y-63240434D01*
X191948973Y-63301757D01*
X191943989Y-63371449D01*
X191902117Y-63427382D01*
X191847205Y-63450588D01*
X191659753Y-63480278D01*
X191659750Y-63480278D01*
X191442244Y-63550950D01*
X191238461Y-63654783D01*
X191055759Y-63787525D01*
X190989952Y-63811005D01*
X190921898Y-63795180D01*
X190873203Y-63745074D01*
X190866690Y-63730538D01*
X190862742Y-63719953D01*
X190856296Y-63702669D01*
X190856293Y-63702664D01*
X190770047Y-63587455D01*
X190770044Y-63587452D01*
X190654835Y-63501206D01*
X190654828Y-63501202D01*
X190519982Y-63450908D01*
X190519983Y-63450908D01*
X190460383Y-63444501D01*
X190460381Y-63444500D01*
X190460373Y-63444500D01*
X190460364Y-63444500D01*
X188459629Y-63444500D01*
X188459623Y-63444501D01*
X188400016Y-63450908D01*
X188265171Y-63501202D01*
X188265164Y-63501206D01*
X188149955Y-63587452D01*
X188149952Y-63587455D01*
X188063706Y-63702664D01*
X188063702Y-63702671D01*
X188013408Y-63837517D01*
X188007001Y-63897116D01*
X188007000Y-63897135D01*
X188007000Y-65992870D01*
X188007001Y-65992876D01*
X188013408Y-66052483D01*
X188063702Y-66187328D01*
X188063706Y-66187335D01*
X188149952Y-66302544D01*
X188149955Y-66302547D01*
X188265164Y-66388793D01*
X188265171Y-66388797D01*
X188400017Y-66439091D01*
X188400016Y-66439091D01*
X188406944Y-66439835D01*
X188459627Y-66445500D01*
X190460372Y-66445499D01*
X190519983Y-66439091D01*
X190654831Y-66388796D01*
X190770046Y-66302546D01*
X190856296Y-66187331D01*
X190866690Y-66159460D01*
X190908560Y-66103527D01*
X190974023Y-66079108D01*
X191042297Y-66093958D01*
X191055746Y-66102465D01*
X191238462Y-66235217D01*
X191313220Y-66273308D01*
X191442244Y-66339049D01*
X191659751Y-66409721D01*
X191659752Y-66409721D01*
X191659755Y-66409722D01*
X191885646Y-66445500D01*
X191885647Y-66445500D01*
X192114353Y-66445500D01*
X192114354Y-66445500D01*
X192340245Y-66409722D01*
X192475720Y-66365702D01*
X192545560Y-66363708D01*
X192601718Y-66395953D01*
X195570139Y-69364374D01*
X195570149Y-69364385D01*
X195574479Y-69368715D01*
X195574480Y-69368716D01*
X195686284Y-69480520D01*
X195773095Y-69530639D01*
X195773097Y-69530641D01*
X195811151Y-69552611D01*
X195823215Y-69559577D01*
X195975943Y-69600501D01*
X195975946Y-69600501D01*
X196141653Y-69600501D01*
X196141669Y-69600500D01*
X200200501Y-69600500D01*
X200267540Y-69620185D01*
X200313295Y-69672989D01*
X200323437Y-69719611D01*
X200324099Y-69719576D01*
X200324146Y-69719571D01*
X200324146Y-69719573D01*
X200324324Y-69719564D01*
X200324501Y-69722876D01*
X200330908Y-69782483D01*
X200381202Y-69917328D01*
X200381206Y-69917335D01*
X200467452Y-70032544D01*
X200467455Y-70032547D01*
X200582664Y-70118793D01*
X200582671Y-70118797D01*
X200717517Y-70169091D01*
X200717516Y-70169091D01*
X200724444Y-70169835D01*
X200777127Y-70175500D01*
X202222872Y-70175499D01*
X202282483Y-70169091D01*
X202417331Y-70118796D01*
X202532546Y-70032546D01*
X202618796Y-69917331D01*
X202669091Y-69782483D01*
X202675500Y-69722873D01*
X202675500Y-69722845D01*
X202675678Y-69719548D01*
X202676934Y-69719615D01*
X202695185Y-69657461D01*
X202747989Y-69611706D01*
X202799500Y-69600500D01*
X204565500Y-69600500D01*
X204632539Y-69620185D01*
X204678294Y-69672989D01*
X204689500Y-69724500D01*
X204689500Y-69919951D01*
X204669815Y-69986990D01*
X204653181Y-70007632D01*
X204499954Y-70160858D01*
X204369432Y-70347265D01*
X204369431Y-70347267D01*
X204273261Y-70553502D01*
X204273258Y-70553511D01*
X204214366Y-70773302D01*
X204214364Y-70773313D01*
X204194532Y-70999998D01*
X204194532Y-71000001D01*
X204214364Y-71226686D01*
X204214366Y-71226697D01*
X204273258Y-71446488D01*
X204273261Y-71446497D01*
X204369431Y-71652732D01*
X204369432Y-71652734D01*
X204499954Y-71839141D01*
X204660858Y-72000045D01*
X204660861Y-72000047D01*
X204847266Y-72130568D01*
X205053504Y-72226739D01*
X205273308Y-72285635D01*
X205435230Y-72299801D01*
X205499998Y-72305468D01*
X205500000Y-72305468D01*
X205500002Y-72305468D01*
X205556673Y-72300509D01*
X205726692Y-72285635D01*
X205946496Y-72226739D01*
X206152734Y-72130568D01*
X206339139Y-72000047D01*
X206500047Y-71839139D01*
X206630568Y-71652734D01*
X206726739Y-71446496D01*
X206785635Y-71226692D01*
X206805468Y-71000000D01*
X206805468Y-70999997D01*
X209195034Y-70999997D01*
X209195034Y-71000002D01*
X209214858Y-71226599D01*
X209214860Y-71226610D01*
X209273730Y-71446317D01*
X209273735Y-71446331D01*
X209369863Y-71652478D01*
X209420974Y-71725472D01*
X210100000Y-71046446D01*
X210100000Y-71052661D01*
X210127259Y-71154394D01*
X210179920Y-71245606D01*
X210254394Y-71320080D01*
X210345606Y-71372741D01*
X210447339Y-71400000D01*
X210453553Y-71400000D01*
X209774526Y-72079025D01*
X209847513Y-72130132D01*
X209847521Y-72130136D01*
X210053668Y-72226264D01*
X210053682Y-72226269D01*
X210273389Y-72285139D01*
X210273400Y-72285141D01*
X210499998Y-72304966D01*
X210500002Y-72304966D01*
X210726599Y-72285141D01*
X210726610Y-72285139D01*
X210946317Y-72226269D01*
X210946331Y-72226264D01*
X211152478Y-72130136D01*
X211225471Y-72079024D01*
X210546447Y-71400000D01*
X210552661Y-71400000D01*
X210654394Y-71372741D01*
X210745606Y-71320080D01*
X210820080Y-71245606D01*
X210872741Y-71154394D01*
X210900000Y-71052661D01*
X210900000Y-71046447D01*
X211579024Y-71725471D01*
X211630136Y-71652478D01*
X211726264Y-71446331D01*
X211726269Y-71446317D01*
X211785139Y-71226610D01*
X211785141Y-71226599D01*
X211804966Y-71000002D01*
X211804966Y-70999997D01*
X211785141Y-70773400D01*
X211785139Y-70773389D01*
X211726269Y-70553682D01*
X211726264Y-70553668D01*
X211630136Y-70347521D01*
X211630132Y-70347513D01*
X211579025Y-70274526D01*
X210900000Y-70953551D01*
X210900000Y-70947339D01*
X210872741Y-70845606D01*
X210820080Y-70754394D01*
X210745606Y-70679920D01*
X210654394Y-70627259D01*
X210552661Y-70600000D01*
X210546448Y-70600000D01*
X211225472Y-69920974D01*
X211152478Y-69869863D01*
X210946331Y-69773735D01*
X210946317Y-69773730D01*
X210726610Y-69714860D01*
X210726599Y-69714858D01*
X210500002Y-69695034D01*
X210499998Y-69695034D01*
X210273400Y-69714858D01*
X210273389Y-69714860D01*
X210053682Y-69773730D01*
X210053673Y-69773734D01*
X209847516Y-69869866D01*
X209847512Y-69869868D01*
X209774526Y-69920973D01*
X209774526Y-69920974D01*
X210453553Y-70600000D01*
X210447339Y-70600000D01*
X210345606Y-70627259D01*
X210254394Y-70679920D01*
X210179920Y-70754394D01*
X210127259Y-70845606D01*
X210100000Y-70947339D01*
X210100000Y-70953552D01*
X209420974Y-70274526D01*
X209420973Y-70274526D01*
X209369868Y-70347512D01*
X209369866Y-70347516D01*
X209273734Y-70553673D01*
X209273730Y-70553682D01*
X209214860Y-70773389D01*
X209214858Y-70773400D01*
X209195034Y-70999997D01*
X206805468Y-70999997D01*
X206785635Y-70773308D01*
X206726739Y-70553504D01*
X206630568Y-70347266D01*
X206500047Y-70160861D01*
X206500045Y-70160858D01*
X206339141Y-69999954D01*
X206152733Y-69869431D01*
X206062094Y-69827165D01*
X206009655Y-69780992D01*
X205990500Y-69714783D01*
X205990500Y-65916682D01*
X206010185Y-65849643D01*
X206043371Y-65815111D01*
X206179139Y-65720047D01*
X206340047Y-65559139D01*
X206470568Y-65372734D01*
X206566739Y-65166496D01*
X206625635Y-64946692D01*
X206645468Y-64720000D01*
X206645468Y-64719998D01*
X214194532Y-64719998D01*
X214194532Y-64720001D01*
X214214364Y-64946686D01*
X214214366Y-64946697D01*
X214273258Y-65166488D01*
X214273261Y-65166497D01*
X214369431Y-65372732D01*
X214369432Y-65372734D01*
X214499954Y-65559141D01*
X214660858Y-65720045D01*
X214660861Y-65720047D01*
X214847266Y-65850568D01*
X215053504Y-65946739D01*
X215273308Y-66005635D01*
X215435230Y-66019801D01*
X215499998Y-66025468D01*
X215500000Y-66025468D01*
X215500002Y-66025468D01*
X215556673Y-66020509D01*
X215726692Y-66005635D01*
X215946496Y-65946739D01*
X216152734Y-65850568D01*
X216339139Y-65720047D01*
X216415641Y-65643545D01*
X216500041Y-65559146D01*
X216500043Y-65559143D01*
X216500047Y-65559139D01*
X216505536Y-65551299D01*
X216560109Y-65507674D01*
X216629607Y-65500478D01*
X216691963Y-65531997D01*
X216694793Y-65534739D01*
X217693115Y-66533061D01*
X217726600Y-66594384D01*
X217725209Y-66652834D01*
X217714367Y-66693299D01*
X217714364Y-66693313D01*
X217694532Y-66919998D01*
X217694532Y-66920001D01*
X217714364Y-67146686D01*
X217714366Y-67146697D01*
X217773258Y-67366488D01*
X217773261Y-67366497D01*
X217869431Y-67572732D01*
X217869432Y-67572734D01*
X217999954Y-67759141D01*
X218160858Y-67920045D01*
X218160861Y-67920047D01*
X218347266Y-68050568D01*
X218553504Y-68146739D01*
X218773308Y-68205635D01*
X218935230Y-68219801D01*
X218999998Y-68225468D01*
X219000000Y-68225468D01*
X219000002Y-68225468D01*
X219056673Y-68220509D01*
X219226692Y-68205635D01*
X219446496Y-68146739D01*
X219652734Y-68050568D01*
X219839139Y-67920047D01*
X220000047Y-67759139D01*
X220130568Y-67572734D01*
X220226739Y-67366496D01*
X220285635Y-67146692D01*
X220305468Y-66920000D01*
X220304368Y-66907432D01*
X220299801Y-66855230D01*
X220285635Y-66693308D01*
X220226739Y-66473504D01*
X220130568Y-66267266D01*
X220015918Y-66103527D01*
X220000045Y-66080858D01*
X219839141Y-65919954D01*
X219652734Y-65789432D01*
X219652732Y-65789431D01*
X219446497Y-65693261D01*
X219446488Y-65693258D01*
X219226697Y-65634366D01*
X219226693Y-65634365D01*
X219226692Y-65634365D01*
X219226691Y-65634364D01*
X219226686Y-65634364D01*
X219000002Y-65614532D01*
X218999998Y-65614532D01*
X218773313Y-65634364D01*
X218773299Y-65634367D01*
X218732834Y-65645209D01*
X218662984Y-65643545D01*
X218613061Y-65613115D01*
X217214674Y-64214727D01*
X217214673Y-64214726D01*
X217118551Y-64150500D01*
X217108127Y-64143535D01*
X217089844Y-64135962D01*
X216989744Y-64094499D01*
X216989740Y-64094498D01*
X216980664Y-64092693D01*
X216980039Y-64092568D01*
X216980036Y-64092567D01*
X216980036Y-64092568D01*
X216864071Y-64069500D01*
X216864069Y-64069500D01*
X216696683Y-64069500D01*
X216629644Y-64049815D01*
X216595108Y-64016623D01*
X216500045Y-63880858D01*
X216339141Y-63719954D01*
X216152734Y-63589432D01*
X216152732Y-63589431D01*
X215946497Y-63493261D01*
X215946488Y-63493258D01*
X215726697Y-63434366D01*
X215726693Y-63434365D01*
X215726692Y-63434365D01*
X215726691Y-63434364D01*
X215726686Y-63434364D01*
X215500002Y-63414532D01*
X215499998Y-63414532D01*
X215273313Y-63434364D01*
X215273302Y-63434366D01*
X215053511Y-63493258D01*
X215053502Y-63493261D01*
X214847267Y-63589431D01*
X214847265Y-63589432D01*
X214660858Y-63719954D01*
X214499954Y-63880858D01*
X214369432Y-64067265D01*
X214369431Y-64067267D01*
X214273261Y-64273502D01*
X214273258Y-64273511D01*
X214214366Y-64493302D01*
X214214364Y-64493313D01*
X214194532Y-64719998D01*
X206645468Y-64719998D01*
X206625635Y-64493308D01*
X206566739Y-64273504D01*
X206470568Y-64067266D01*
X206351437Y-63897128D01*
X206340045Y-63880858D01*
X206179141Y-63719954D01*
X205992734Y-63589432D01*
X205992732Y-63589431D01*
X205786497Y-63493261D01*
X205786488Y-63493258D01*
X205566697Y-63434366D01*
X205566693Y-63434365D01*
X205566692Y-63434365D01*
X205566691Y-63434364D01*
X205566686Y-63434364D01*
X205340002Y-63414532D01*
X205339998Y-63414532D01*
X205113313Y-63434364D01*
X205113302Y-63434366D01*
X204893511Y-63493258D01*
X204893502Y-63493261D01*
X204687267Y-63589431D01*
X204687265Y-63589432D01*
X204500858Y-63719954D01*
X204339954Y-63880858D01*
X204209432Y-64067265D01*
X204209431Y-64067267D01*
X204113261Y-64273502D01*
X204113258Y-64273511D01*
X204054366Y-64493302D01*
X204054364Y-64493313D01*
X204034532Y-64719998D01*
X204034532Y-64720001D01*
X204054364Y-64946686D01*
X204054366Y-64946697D01*
X204113258Y-65166488D01*
X204113261Y-65166497D01*
X204209431Y-65372732D01*
X204209432Y-65372734D01*
X204339954Y-65559141D01*
X204500855Y-65720042D01*
X204500858Y-65720044D01*
X204500861Y-65720047D01*
X204636626Y-65815109D01*
X204680248Y-65869683D01*
X204689500Y-65916682D01*
X204689500Y-68275500D01*
X204669815Y-68342539D01*
X204617011Y-68388294D01*
X204565500Y-68399500D01*
X202799499Y-68399500D01*
X202732460Y-68379815D01*
X202686705Y-68327011D01*
X202676562Y-68280388D01*
X202675900Y-68280423D01*
X202675854Y-68280429D01*
X202675853Y-68280426D01*
X202675676Y-68280436D01*
X202675499Y-68277141D01*
X202675499Y-68277128D01*
X202669091Y-68217517D01*
X202664659Y-68205635D01*
X202618797Y-68082671D01*
X202618793Y-68082664D01*
X202532547Y-67967455D01*
X202532544Y-67967452D01*
X202417335Y-67881206D01*
X202417328Y-67881202D01*
X202282482Y-67830908D01*
X202282483Y-67830908D01*
X202222883Y-67824501D01*
X202222881Y-67824500D01*
X202222873Y-67824500D01*
X202222864Y-67824500D01*
X200777129Y-67824500D01*
X200777123Y-67824501D01*
X200717516Y-67830908D01*
X200582671Y-67881202D01*
X200582664Y-67881206D01*
X200467455Y-67967452D01*
X200467452Y-67967455D01*
X200381206Y-68082664D01*
X200381202Y-68082671D01*
X200330908Y-68217517D01*
X200324675Y-68275500D01*
X200324501Y-68277123D01*
X200324322Y-68280452D01*
X200323065Y-68280384D01*
X200304815Y-68342539D01*
X200252011Y-68388294D01*
X200200500Y-68399500D01*
X196355097Y-68399500D01*
X196288058Y-68379815D01*
X196267416Y-68363181D01*
X194561416Y-66657181D01*
X194527931Y-66595858D01*
X194532915Y-66526166D01*
X194574787Y-66470233D01*
X194640251Y-66445816D01*
X194649097Y-66445500D01*
X194654353Y-66445500D01*
X194654354Y-66445500D01*
X194880245Y-66409722D01*
X194880248Y-66409721D01*
X194880249Y-66409721D01*
X195097755Y-66339049D01*
X195097755Y-66339048D01*
X195097758Y-66339048D01*
X195301538Y-66235217D01*
X195486566Y-66100786D01*
X195648286Y-65939066D01*
X195782717Y-65754038D01*
X195886548Y-65550258D01*
X195900384Y-65507674D01*
X195957221Y-65332749D01*
X195957221Y-65332748D01*
X195957222Y-65332745D01*
X195993000Y-65106854D01*
X195993000Y-64783146D01*
X195957222Y-64557255D01*
X195957221Y-64557251D01*
X195957221Y-64557250D01*
X195886549Y-64339744D01*
X195886548Y-64339742D01*
X195782717Y-64135962D01*
X195648286Y-63950934D01*
X195486566Y-63789214D01*
X195301538Y-63654783D01*
X195271012Y-63639229D01*
X195097755Y-63550950D01*
X194880248Y-63480278D01*
X194694812Y-63450908D01*
X194654354Y-63444500D01*
X194425646Y-63444500D01*
X194394760Y-63449391D01*
X194199755Y-63480277D01*
X194117647Y-63506955D01*
X194047806Y-63508949D01*
X193991650Y-63476704D01*
X192009674Y-61494727D01*
X192009673Y-61494726D01*
X192009669Y-61494723D01*
X191903127Y-61423535D01*
X191840630Y-61397648D01*
X221699500Y-61397648D01*
X221699500Y-61602351D01*
X221731522Y-61804534D01*
X221794781Y-61999223D01*
X221887715Y-62181613D01*
X222008028Y-62347213D01*
X222152786Y-62491971D01*
X222307749Y-62604556D01*
X222318390Y-62612287D01*
X222432021Y-62670185D01*
X222500776Y-62705218D01*
X222500778Y-62705218D01*
X222500781Y-62705220D01*
X222605137Y-62739127D01*
X222695465Y-62768477D01*
X222744384Y-62776225D01*
X222897648Y-62800500D01*
X222897649Y-62800500D01*
X223102351Y-62800500D01*
X223102352Y-62800500D01*
X223304534Y-62768477D01*
X223499219Y-62705220D01*
X223681610Y-62612287D01*
X223774590Y-62544732D01*
X223847213Y-62491971D01*
X223847215Y-62491968D01*
X223847219Y-62491966D01*
X223991966Y-62347219D01*
X223991968Y-62347215D01*
X223991971Y-62347213D01*
X224044732Y-62274590D01*
X224112287Y-62181610D01*
X224205220Y-61999219D01*
X224268477Y-61804534D01*
X224300500Y-61602352D01*
X224300500Y-61397648D01*
X224297773Y-61380430D01*
X224268477Y-61195465D01*
X224208102Y-61009651D01*
X224205220Y-61000781D01*
X224205218Y-61000778D01*
X224205218Y-61000776D01*
X224138515Y-60869866D01*
X224112287Y-60818390D01*
X224079497Y-60773258D01*
X223991971Y-60652786D01*
X223847213Y-60508028D01*
X223681613Y-60387715D01*
X223681612Y-60387714D01*
X223681610Y-60387713D01*
X223624653Y-60358691D01*
X223499223Y-60294781D01*
X223304534Y-60231522D01*
X223129995Y-60203878D01*
X223102352Y-60199500D01*
X222897648Y-60199500D01*
X222873329Y-60203351D01*
X222695465Y-60231522D01*
X222500776Y-60294781D01*
X222318386Y-60387715D01*
X222152786Y-60508028D01*
X222008028Y-60652786D01*
X221887715Y-60818386D01*
X221794781Y-61000776D01*
X221731522Y-61195465D01*
X221699500Y-61397648D01*
X191840630Y-61397648D01*
X191784744Y-61374499D01*
X191784738Y-61374497D01*
X191659071Y-61349500D01*
X191659069Y-61349500D01*
X175696683Y-61349500D01*
X175629644Y-61329815D01*
X175595108Y-61296623D01*
X175500045Y-61160858D01*
X175339141Y-60999954D01*
X175152734Y-60869432D01*
X175152732Y-60869431D01*
X174946497Y-60773261D01*
X174946488Y-60773258D01*
X174726697Y-60714366D01*
X174726693Y-60714365D01*
X174726692Y-60714365D01*
X174726691Y-60714364D01*
X174726686Y-60714364D01*
X174500002Y-60694532D01*
X174499998Y-60694532D01*
X174273313Y-60714364D01*
X174273302Y-60714366D01*
X174053511Y-60773258D01*
X174053502Y-60773261D01*
X173847267Y-60869431D01*
X173847265Y-60869432D01*
X173660858Y-60999954D01*
X173499954Y-61160858D01*
X173404892Y-61296623D01*
X173350315Y-61340248D01*
X173303317Y-61349500D01*
X172685929Y-61349500D01*
X172560261Y-61374497D01*
X172560255Y-61374499D01*
X172441874Y-61423534D01*
X172335326Y-61494726D01*
X170994727Y-62835325D01*
X170994721Y-62835332D01*
X170935787Y-62923534D01*
X170935788Y-62923535D01*
X170923534Y-62941874D01*
X170874499Y-63060255D01*
X170874497Y-63060261D01*
X170849500Y-63185928D01*
X170849500Y-76880500D01*
X170829815Y-76947539D01*
X170777011Y-76993294D01*
X170725500Y-77004500D01*
X145031113Y-77004500D01*
X144964074Y-76984815D01*
X144943432Y-76968181D01*
X136396652Y-68421401D01*
X136363167Y-68360078D01*
X136368151Y-68290386D01*
X136378740Y-68268712D01*
X136406249Y-68224036D01*
X136619697Y-67800688D01*
X136619697Y-67800687D01*
X136619702Y-67800678D01*
X136794169Y-67366496D01*
X136796473Y-67360763D01*
X136935304Y-66907432D01*
X137035190Y-66443960D01*
X137095411Y-65973686D01*
X137095414Y-65973631D01*
X137115533Y-65500006D01*
X137115533Y-65499993D01*
X155914968Y-65499993D01*
X155914968Y-65500006D01*
X155935086Y-65973631D01*
X155995304Y-66443874D01*
X156095181Y-66907306D01*
X156095183Y-66907314D01*
X156233999Y-67360598D01*
X156234004Y-67360612D01*
X156410755Y-67800471D01*
X156410759Y-67800482D01*
X156624179Y-68223774D01*
X156624189Y-68223794D01*
X156872750Y-68627481D01*
X157154648Y-69008633D01*
X157154654Y-69008641D01*
X157380825Y-69265620D01*
X157380826Y-69265620D01*
X159172818Y-67473627D01*
X159222208Y-67535560D01*
X159464440Y-67777792D01*
X159526371Y-67827180D01*
X157733983Y-69619568D01*
X157810120Y-69692537D01*
X157810122Y-69692538D01*
X158178952Y-69990348D01*
X158178953Y-69990349D01*
X158571716Y-70255809D01*
X158571735Y-70255821D01*
X158985588Y-70487014D01*
X158985610Y-70487025D01*
X159417579Y-70682288D01*
X159417585Y-70682290D01*
X159864579Y-70840223D01*
X160323351Y-70959677D01*
X160790597Y-71039795D01*
X160790605Y-71039796D01*
X161262946Y-71079999D01*
X161262966Y-71080000D01*
X161737034Y-71080000D01*
X161737053Y-71079999D01*
X162209394Y-71039796D01*
X162209402Y-71039795D01*
X162676648Y-70959677D01*
X163135420Y-70840223D01*
X163582414Y-70682290D01*
X163582420Y-70682288D01*
X164014389Y-70487025D01*
X164014411Y-70487014D01*
X164428264Y-70255821D01*
X164428283Y-70255809D01*
X164821039Y-69990353D01*
X165189886Y-69692531D01*
X165266015Y-69619568D01*
X163473628Y-67827181D01*
X163535560Y-67777792D01*
X163777792Y-67535560D01*
X163827181Y-67473628D01*
X165619173Y-69265620D01*
X165845346Y-69008638D01*
X165845360Y-69008621D01*
X166127249Y-68627481D01*
X166375810Y-68223794D01*
X166375820Y-68223774D01*
X166589240Y-67800482D01*
X166589244Y-67800471D01*
X166765995Y-67360612D01*
X166766000Y-67360598D01*
X166904816Y-66907314D01*
X166904818Y-66907306D01*
X167004695Y-66443874D01*
X167064913Y-65973631D01*
X167085032Y-65500006D01*
X167085032Y-65499993D01*
X167064913Y-65026368D01*
X167004695Y-64556125D01*
X166904818Y-64092693D01*
X166904816Y-64092685D01*
X166766000Y-63639401D01*
X166765995Y-63639387D01*
X166589244Y-63199528D01*
X166589240Y-63199517D01*
X166375820Y-62776225D01*
X166375810Y-62776205D01*
X166127249Y-62372518D01*
X165851734Y-61999997D01*
X168195034Y-61999997D01*
X168195034Y-62000002D01*
X168214858Y-62226599D01*
X168214860Y-62226610D01*
X168273730Y-62446317D01*
X168273735Y-62446331D01*
X168369863Y-62652478D01*
X168420974Y-62725472D01*
X169100000Y-62046446D01*
X169100000Y-62052661D01*
X169127259Y-62154394D01*
X169179920Y-62245606D01*
X169254394Y-62320080D01*
X169345606Y-62372741D01*
X169447339Y-62400000D01*
X169453553Y-62400000D01*
X168774526Y-63079025D01*
X168847513Y-63130132D01*
X168847521Y-63130136D01*
X169053668Y-63226264D01*
X169053682Y-63226269D01*
X169273389Y-63285139D01*
X169273400Y-63285141D01*
X169499998Y-63304966D01*
X169500002Y-63304966D01*
X169726599Y-63285141D01*
X169726610Y-63285139D01*
X169946317Y-63226269D01*
X169946331Y-63226264D01*
X170152478Y-63130136D01*
X170225471Y-63079024D01*
X169546447Y-62400000D01*
X169552661Y-62400000D01*
X169654394Y-62372741D01*
X169745606Y-62320080D01*
X169820080Y-62245606D01*
X169872741Y-62154394D01*
X169900000Y-62052661D01*
X169900000Y-62046447D01*
X170579024Y-62725471D01*
X170630136Y-62652478D01*
X170726264Y-62446331D01*
X170726269Y-62446317D01*
X170785139Y-62226610D01*
X170785141Y-62226599D01*
X170804966Y-62000002D01*
X170804966Y-61999997D01*
X170785141Y-61773400D01*
X170785139Y-61773389D01*
X170726269Y-61553682D01*
X170726264Y-61553668D01*
X170630136Y-61347521D01*
X170630132Y-61347513D01*
X170579025Y-61274526D01*
X169900000Y-61953551D01*
X169900000Y-61947339D01*
X169872741Y-61845606D01*
X169820080Y-61754394D01*
X169745606Y-61679920D01*
X169654394Y-61627259D01*
X169552661Y-61600000D01*
X169546448Y-61600000D01*
X170225472Y-60920974D01*
X170152478Y-60869863D01*
X169946331Y-60773735D01*
X169946317Y-60773730D01*
X169726610Y-60714860D01*
X169726599Y-60714858D01*
X169500002Y-60695034D01*
X169499998Y-60695034D01*
X169273400Y-60714858D01*
X169273389Y-60714860D01*
X169053682Y-60773730D01*
X169053673Y-60773734D01*
X168847516Y-60869866D01*
X168847512Y-60869868D01*
X168774526Y-60920973D01*
X168774526Y-60920974D01*
X169453553Y-61600000D01*
X169447339Y-61600000D01*
X169345606Y-61627259D01*
X169254394Y-61679920D01*
X169179920Y-61754394D01*
X169127259Y-61845606D01*
X169100000Y-61947339D01*
X169100000Y-61953552D01*
X168420974Y-61274526D01*
X168420973Y-61274526D01*
X168369868Y-61347512D01*
X168369866Y-61347516D01*
X168273734Y-61553673D01*
X168273730Y-61553682D01*
X168214860Y-61773389D01*
X168214858Y-61773400D01*
X168195034Y-61999997D01*
X165851734Y-61999997D01*
X165845351Y-61991366D01*
X165845345Y-61991358D01*
X165619173Y-61734378D01*
X163827180Y-63526371D01*
X163777792Y-63464440D01*
X163535560Y-63222208D01*
X163473627Y-63172818D01*
X165266015Y-61380430D01*
X165189879Y-61307462D01*
X165189877Y-61307461D01*
X164821047Y-61009651D01*
X164821046Y-61009650D01*
X164428283Y-60744190D01*
X164428264Y-60744178D01*
X164014411Y-60512985D01*
X164014389Y-60512974D01*
X163582420Y-60317711D01*
X163582414Y-60317709D01*
X163135420Y-60159776D01*
X162676648Y-60040322D01*
X162209402Y-59960204D01*
X162209394Y-59960203D01*
X161737053Y-59920000D01*
X161262946Y-59920000D01*
X160790605Y-59960203D01*
X160790597Y-59960204D01*
X160323351Y-60040322D01*
X159864579Y-60159776D01*
X159417585Y-60317709D01*
X159417579Y-60317711D01*
X158985610Y-60512974D01*
X158985588Y-60512985D01*
X158571735Y-60744178D01*
X158571716Y-60744190D01*
X158178953Y-61009650D01*
X158178952Y-61009651D01*
X157810123Y-61307460D01*
X157810107Y-61307474D01*
X157733984Y-61380431D01*
X159526371Y-63172819D01*
X159464440Y-63222208D01*
X159222208Y-63464440D01*
X159172818Y-63526371D01*
X157380826Y-61734379D01*
X157154648Y-61991366D01*
X157154645Y-61991370D01*
X156872750Y-62372518D01*
X156624189Y-62776205D01*
X156624179Y-62776225D01*
X156410759Y-63199517D01*
X156410755Y-63199528D01*
X156234004Y-63639387D01*
X156233999Y-63639401D01*
X156095183Y-64092685D01*
X156095181Y-64092693D01*
X155995304Y-64556125D01*
X155935086Y-65026368D01*
X155914968Y-65499993D01*
X137115533Y-65499993D01*
X137095412Y-65026326D01*
X137095411Y-65026320D01*
X137095411Y-65026314D01*
X137035190Y-64556040D01*
X136935304Y-64092568D01*
X136796473Y-63639237D01*
X136776459Y-63589431D01*
X136619701Y-63199322D01*
X136619697Y-63199311D01*
X136406258Y-62775981D01*
X136406247Y-62775961D01*
X136362689Y-62705218D01*
X136157668Y-62372242D01*
X135875744Y-61991056D01*
X135562510Y-61635153D01*
X135415988Y-61494723D01*
X135220211Y-61307086D01*
X135220209Y-61307085D01*
X134851345Y-61009248D01*
X134851344Y-61009247D01*
X134502190Y-60773261D01*
X134458536Y-60743756D01*
X134370421Y-60694532D01*
X134044637Y-60512537D01*
X134044615Y-60512526D01*
X133612608Y-60317247D01*
X133165566Y-60159297D01*
X132706754Y-60039832D01*
X132239472Y-59959708D01*
X132239446Y-59959705D01*
X131767075Y-59919500D01*
X131767057Y-59919500D01*
X131292943Y-59919500D01*
X131292924Y-59919500D01*
X130820553Y-59959705D01*
X130820527Y-59959708D01*
X130353245Y-60039832D01*
X129894433Y-60159297D01*
X129447391Y-60317247D01*
X129015384Y-60512526D01*
X129015362Y-60512537D01*
X128601472Y-60743751D01*
X128601453Y-60743763D01*
X128208655Y-61009247D01*
X128208654Y-61009248D01*
X127839790Y-61307085D01*
X127839788Y-61307086D01*
X127497489Y-61635153D01*
X127184262Y-61991048D01*
X126902331Y-62372243D01*
X126653752Y-62775961D01*
X126653741Y-62775981D01*
X126440302Y-63199311D01*
X126440298Y-63199322D01*
X126263529Y-63639229D01*
X126263527Y-63639234D01*
X126124698Y-64092559D01*
X126124696Y-64092567D01*
X126024810Y-64556038D01*
X125964587Y-65026326D01*
X125944467Y-65499993D01*
X125944467Y-65500005D01*
X125952123Y-65680237D01*
X125935302Y-65748052D01*
X125884487Y-65796007D01*
X125828235Y-65809500D01*
X112534484Y-65809500D01*
X112467445Y-65789815D01*
X112423999Y-65741795D01*
X112392633Y-65680237D01*
X112377717Y-65650962D01*
X112243286Y-65465934D01*
X112081566Y-65304214D01*
X111896538Y-65169783D01*
X111883581Y-65163181D01*
X111692755Y-65065950D01*
X111475248Y-64995278D01*
X111289812Y-64965908D01*
X111249354Y-64959500D01*
X111020646Y-64959500D01*
X110980188Y-64965908D01*
X110794753Y-64995278D01*
X110794750Y-64995278D01*
X110577244Y-65065950D01*
X110373461Y-65169783D01*
X110297175Y-65225209D01*
X110188434Y-65304214D01*
X110188432Y-65304216D01*
X110188431Y-65304216D01*
X110026715Y-65465932D01*
X109965318Y-65550438D01*
X109909987Y-65593103D01*
X109840374Y-65599082D01*
X109778579Y-65566476D01*
X109764682Y-65550438D01*
X109733612Y-65507674D01*
X109703286Y-65465934D01*
X109541566Y-65304214D01*
X109356538Y-65169783D01*
X109343581Y-65163181D01*
X109152755Y-65065950D01*
X108935248Y-64995278D01*
X108749812Y-64965908D01*
X108709354Y-64959500D01*
X108480646Y-64959500D01*
X108440188Y-64965908D01*
X108254753Y-64995278D01*
X108254750Y-64995278D01*
X108037244Y-65065950D01*
X107833461Y-65169783D01*
X107650759Y-65302525D01*
X107584952Y-65326005D01*
X107516898Y-65310180D01*
X107468203Y-65260074D01*
X107461690Y-65245538D01*
X107451296Y-65217669D01*
X107451293Y-65217664D01*
X107365047Y-65102455D01*
X107365044Y-65102452D01*
X107249835Y-65016206D01*
X107249828Y-65016202D01*
X107114982Y-64965908D01*
X107114983Y-64965908D01*
X107055383Y-64959501D01*
X107055381Y-64959500D01*
X107055373Y-64959500D01*
X107055365Y-64959500D01*
X105525808Y-64959500D01*
X105458769Y-64939815D01*
X105438127Y-64923181D01*
X103509674Y-62994727D01*
X103509673Y-62994726D01*
X103509669Y-62994723D01*
X103403127Y-62923535D01*
X103284744Y-62874499D01*
X103284738Y-62874497D01*
X103159071Y-62849500D01*
X103159069Y-62849500D01*
X81855931Y-62849500D01*
X81855929Y-62849500D01*
X81730261Y-62874497D01*
X81730255Y-62874499D01*
X81611874Y-62923534D01*
X81505326Y-62994726D01*
X79306937Y-65193115D01*
X79245614Y-65226600D01*
X79187163Y-65225209D01*
X79146697Y-65214366D01*
X79146693Y-65214365D01*
X79146692Y-65214365D01*
X79146691Y-65214364D01*
X79146686Y-65214364D01*
X78920002Y-65194532D01*
X78919998Y-65194532D01*
X78693313Y-65214364D01*
X78693302Y-65214366D01*
X78473511Y-65273258D01*
X78473502Y-65273261D01*
X78267267Y-65369431D01*
X78267265Y-65369432D01*
X78080858Y-65499954D01*
X77919954Y-65660858D01*
X77824892Y-65796623D01*
X77770315Y-65840248D01*
X77723317Y-65849500D01*
X76355929Y-65849500D01*
X76230261Y-65874497D01*
X76230251Y-65874500D01*
X76181220Y-65894810D01*
X76111881Y-65923530D01*
X76111863Y-65923540D01*
X76005332Y-65994721D01*
X76005325Y-65994727D01*
X73886937Y-68113115D01*
X73825614Y-68146600D01*
X73767163Y-68145209D01*
X73726697Y-68134366D01*
X73726693Y-68134365D01*
X73726692Y-68134365D01*
X73726691Y-68134364D01*
X73726686Y-68134364D01*
X73500002Y-68114532D01*
X73499998Y-68114532D01*
X73273313Y-68134364D01*
X73273302Y-68134366D01*
X73053511Y-68193258D01*
X73053502Y-68193261D01*
X72847267Y-68289431D01*
X72847265Y-68289432D01*
X72660858Y-68419954D01*
X72499954Y-68580858D01*
X72369432Y-68767265D01*
X72369431Y-68767267D01*
X72273261Y-68973502D01*
X72273258Y-68973511D01*
X72214366Y-69193302D01*
X72214364Y-69193313D01*
X72194532Y-69419998D01*
X72194532Y-69420001D01*
X72214364Y-69646686D01*
X72214366Y-69646697D01*
X72273258Y-69866488D01*
X72273261Y-69866497D01*
X72369431Y-70072732D01*
X72369432Y-70072734D01*
X72499954Y-70259141D01*
X72660858Y-70420045D01*
X72660861Y-70420047D01*
X72847266Y-70550568D01*
X73053504Y-70646739D01*
X73273308Y-70705635D01*
X73435230Y-70719801D01*
X73499998Y-70725468D01*
X73500000Y-70725468D01*
X73500002Y-70725468D01*
X73556673Y-70720509D01*
X73726692Y-70705635D01*
X73946496Y-70646739D01*
X74152734Y-70550568D01*
X74339139Y-70420047D01*
X74500047Y-70259139D01*
X74630568Y-70072734D01*
X74726739Y-69866496D01*
X74785635Y-69646692D01*
X74805468Y-69420000D01*
X74785635Y-69193308D01*
X74774790Y-69152834D01*
X74776453Y-69082984D01*
X74806882Y-69033062D01*
X76653127Y-67186819D01*
X76714450Y-67153334D01*
X76740808Y-67150500D01*
X77723317Y-67150500D01*
X77790356Y-67170185D01*
X77824892Y-67203377D01*
X77919954Y-67339141D01*
X78080858Y-67500045D01*
X78080861Y-67500047D01*
X78267266Y-67630568D01*
X78473504Y-67726739D01*
X78693308Y-67785635D01*
X78855230Y-67799801D01*
X78919998Y-67805468D01*
X78920000Y-67805468D01*
X78920002Y-67805468D01*
X78977116Y-67800471D01*
X79146692Y-67785635D01*
X79366496Y-67726739D01*
X79572734Y-67630568D01*
X79759139Y-67500047D01*
X79920047Y-67339139D01*
X80050568Y-67152734D01*
X80146739Y-66946496D01*
X80205635Y-66726692D01*
X80225468Y-66500000D01*
X80205635Y-66273308D01*
X80196997Y-66241074D01*
X80194790Y-66232834D01*
X80196453Y-66162984D01*
X80226882Y-66113062D01*
X82153127Y-64186819D01*
X82214450Y-64153334D01*
X82240808Y-64150500D01*
X102774192Y-64150500D01*
X102841231Y-64170185D01*
X102861873Y-64186819D01*
X104565681Y-65890626D01*
X104599166Y-65951949D01*
X104602000Y-65978307D01*
X104602000Y-66533061D01*
X104602001Y-67035500D01*
X104582317Y-67102539D01*
X104529513Y-67148294D01*
X104478001Y-67159500D01*
X90710808Y-67159500D01*
X90643769Y-67139815D01*
X90623127Y-67123181D01*
X90386884Y-66886938D01*
X90353399Y-66825615D01*
X90354791Y-66767162D01*
X90365633Y-66726699D01*
X90365632Y-66726699D01*
X90365635Y-66726692D01*
X90385468Y-66500000D01*
X90365635Y-66273308D01*
X90319407Y-66100783D01*
X90306741Y-66053511D01*
X90306738Y-66053502D01*
X90304515Y-66048735D01*
X90210568Y-65847266D01*
X90087345Y-65671284D01*
X90080045Y-65660858D01*
X89919141Y-65499954D01*
X89732734Y-65369432D01*
X89732732Y-65369431D01*
X89526497Y-65273261D01*
X89526488Y-65273258D01*
X89306697Y-65214366D01*
X89306693Y-65214365D01*
X89306692Y-65214365D01*
X89306691Y-65214364D01*
X89306686Y-65214364D01*
X89080002Y-65194532D01*
X89079998Y-65194532D01*
X88853313Y-65214364D01*
X88853302Y-65214366D01*
X88633511Y-65273258D01*
X88633502Y-65273261D01*
X88427267Y-65369431D01*
X88427265Y-65369432D01*
X88240858Y-65499954D01*
X88079954Y-65660858D01*
X87949432Y-65847265D01*
X87949431Y-65847267D01*
X87853261Y-66053502D01*
X87853258Y-66053511D01*
X87794366Y-66273302D01*
X87794364Y-66273313D01*
X87774532Y-66499998D01*
X87774532Y-66500001D01*
X87794364Y-66726686D01*
X87794366Y-66726697D01*
X87853258Y-66946488D01*
X87853261Y-66946497D01*
X87949431Y-67152732D01*
X87949432Y-67152734D01*
X88079954Y-67339141D01*
X88240855Y-67500042D01*
X88240858Y-67500044D01*
X88240861Y-67500047D01*
X88376626Y-67595109D01*
X88420248Y-67649683D01*
X88429500Y-67696682D01*
X88429500Y-74752088D01*
X88409815Y-74819127D01*
X88357909Y-74864468D01*
X88347271Y-74869428D01*
X88347268Y-74869430D01*
X88160858Y-74999954D01*
X87999954Y-75160858D01*
X87869432Y-75347265D01*
X87869431Y-75347267D01*
X87773261Y-75553502D01*
X87773258Y-75553511D01*
X87714366Y-75773302D01*
X87714364Y-75773313D01*
X87694532Y-75999998D01*
X87694532Y-76000001D01*
X87714364Y-76226686D01*
X87714366Y-76226697D01*
X87773258Y-76446488D01*
X87773261Y-76446497D01*
X87869431Y-76652732D01*
X87869432Y-76652734D01*
X87999954Y-76839141D01*
X88160858Y-77000045D01*
X88183933Y-77016202D01*
X88347266Y-77130568D01*
X88553504Y-77226739D01*
X88773308Y-77285635D01*
X88935230Y-77299801D01*
X88999998Y-77305468D01*
X89000000Y-77305468D01*
X89000002Y-77305468D01*
X89056673Y-77300509D01*
X89226692Y-77285635D01*
X89446496Y-77226739D01*
X89652734Y-77130568D01*
X89839139Y-77000047D01*
X90000047Y-76839139D01*
X90130568Y-76652734D01*
X90226739Y-76446496D01*
X90285635Y-76226692D01*
X90305468Y-76000000D01*
X90285635Y-75773308D01*
X90226739Y-75553504D01*
X90130568Y-75347266D01*
X90000047Y-75160861D01*
X89839139Y-74999953D01*
X89807860Y-74978051D01*
X89783375Y-74960906D01*
X89739751Y-74906328D01*
X89730500Y-74859332D01*
X89730500Y-72224500D01*
X89750185Y-72157461D01*
X89802989Y-72111706D01*
X89854500Y-72100500D01*
X90700501Y-72100500D01*
X90767540Y-72120185D01*
X90813295Y-72172989D01*
X90823437Y-72219611D01*
X90824099Y-72219576D01*
X90824146Y-72219571D01*
X90824146Y-72219573D01*
X90824324Y-72219564D01*
X90824501Y-72222876D01*
X90830908Y-72282483D01*
X90881202Y-72417328D01*
X90881206Y-72417335D01*
X90967452Y-72532544D01*
X90967455Y-72532547D01*
X91082664Y-72618793D01*
X91082671Y-72618797D01*
X91217517Y-72669091D01*
X91217516Y-72669091D01*
X91224444Y-72669835D01*
X91277127Y-72675500D01*
X92722872Y-72675499D01*
X92782483Y-72669091D01*
X92917331Y-72618796D01*
X93032546Y-72532546D01*
X93118796Y-72417331D01*
X93169091Y-72282483D01*
X93175500Y-72222873D01*
X93175499Y-70777128D01*
X93169091Y-70717517D01*
X93164659Y-70705635D01*
X93118797Y-70582671D01*
X93118793Y-70582664D01*
X93032547Y-70467455D01*
X93032544Y-70467452D01*
X92917335Y-70381206D01*
X92917328Y-70381202D01*
X92782482Y-70330908D01*
X92782483Y-70330908D01*
X92722883Y-70324501D01*
X92722881Y-70324500D01*
X92722873Y-70324500D01*
X92722864Y-70324500D01*
X91277129Y-70324500D01*
X91277123Y-70324501D01*
X91217516Y-70330908D01*
X91082671Y-70381202D01*
X91082664Y-70381206D01*
X90967455Y-70467452D01*
X90967452Y-70467455D01*
X90881206Y-70582664D01*
X90881202Y-70582671D01*
X90830908Y-70717517D01*
X90824675Y-70775500D01*
X90824501Y-70777123D01*
X90824322Y-70780452D01*
X90823065Y-70780384D01*
X90804815Y-70842539D01*
X90752011Y-70888294D01*
X90700500Y-70899500D01*
X89854500Y-70899500D01*
X89787461Y-70879815D01*
X89741706Y-70827011D01*
X89730500Y-70775500D01*
X89730500Y-68369808D01*
X89750185Y-68302769D01*
X89802989Y-68257014D01*
X89872147Y-68247070D01*
X89935703Y-68276095D01*
X89942182Y-68282128D01*
X89975326Y-68315273D01*
X89975329Y-68315275D01*
X89975331Y-68315277D01*
X90081873Y-68386465D01*
X90200256Y-68435501D01*
X90200260Y-68435501D01*
X90200261Y-68435502D01*
X90325928Y-68460500D01*
X90325931Y-68460500D01*
X107309071Y-68460500D01*
X107393615Y-68443682D01*
X107434744Y-68435501D01*
X107553127Y-68386465D01*
X107659669Y-68315277D01*
X108046651Y-67928293D01*
X108107974Y-67894809D01*
X108172648Y-67898043D01*
X108254755Y-67924722D01*
X108480646Y-67960500D01*
X108480647Y-67960500D01*
X108709353Y-67960500D01*
X108709354Y-67960500D01*
X108935245Y-67924722D01*
X108935248Y-67924721D01*
X108935249Y-67924721D01*
X109152755Y-67854049D01*
X109152755Y-67854048D01*
X109152758Y-67854048D01*
X109356538Y-67750217D01*
X109541566Y-67615786D01*
X109703286Y-67454066D01*
X109764683Y-67369559D01*
X109820012Y-67326896D01*
X109889625Y-67320917D01*
X109951420Y-67353523D01*
X109965314Y-67369556D01*
X110026714Y-67454066D01*
X110188434Y-67615786D01*
X110373462Y-67750217D01*
X110510639Y-67820112D01*
X110577244Y-67854049D01*
X110794751Y-67924721D01*
X110794752Y-67924721D01*
X110794755Y-67924722D01*
X111020646Y-67960500D01*
X111020647Y-67960500D01*
X111249353Y-67960500D01*
X111249354Y-67960500D01*
X111475245Y-67924722D01*
X111475248Y-67924721D01*
X111475249Y-67924721D01*
X111692755Y-67854049D01*
X111692755Y-67854048D01*
X111692758Y-67854048D01*
X111896538Y-67750217D01*
X112081566Y-67615786D01*
X112243286Y-67454066D01*
X112377717Y-67269038D01*
X112423999Y-67178205D01*
X112471974Y-67127409D01*
X112534484Y-67110500D01*
X126095175Y-67110500D01*
X126162214Y-67130185D01*
X126207969Y-67182989D01*
X126213738Y-67198185D01*
X126230226Y-67252023D01*
X126263527Y-67360765D01*
X126263529Y-67360770D01*
X126440298Y-67800678D01*
X126653741Y-68224018D01*
X126653752Y-68224038D01*
X126732620Y-68352128D01*
X126902332Y-68627758D01*
X127184256Y-69008944D01*
X127184261Y-69008949D01*
X127184262Y-69008951D01*
X127497489Y-69364846D01*
X127839788Y-69692913D01*
X127839790Y-69692914D01*
X128208654Y-69990751D01*
X128208655Y-69990752D01*
X128270493Y-70032547D01*
X128601464Y-70256244D01*
X128758732Y-70344099D01*
X129015362Y-70487462D01*
X129015384Y-70487473D01*
X129441126Y-70679920D01*
X129447398Y-70682755D01*
X129894429Y-70840701D01*
X130353244Y-70960167D01*
X130820538Y-71040293D01*
X130965854Y-71052661D01*
X131292924Y-71080499D01*
X131292941Y-71080499D01*
X131292943Y-71080500D01*
X131292944Y-71080500D01*
X131767056Y-71080500D01*
X131767057Y-71080500D01*
X131767058Y-71080499D01*
X131767075Y-71080499D01*
X132048242Y-71056567D01*
X132239462Y-71040293D01*
X132706756Y-70960167D01*
X133165571Y-70840701D01*
X133612602Y-70682755D01*
X134044628Y-70487467D01*
X134301266Y-70344098D01*
X134369392Y-70328589D01*
X134435089Y-70352373D01*
X134449421Y-70364672D01*
X140877568Y-76792819D01*
X140911053Y-76854142D01*
X140906069Y-76923834D01*
X140864197Y-76979767D01*
X140798733Y-77004184D01*
X140789887Y-77004500D01*
X120429835Y-77004500D01*
X120362796Y-76984815D01*
X120355524Y-76979767D01*
X120297331Y-76936204D01*
X120297328Y-76936202D01*
X120162482Y-76885908D01*
X120162483Y-76885908D01*
X120102883Y-76879501D01*
X120102881Y-76879500D01*
X120102873Y-76879500D01*
X120102864Y-76879500D01*
X118007129Y-76879500D01*
X118007123Y-76879501D01*
X117947516Y-76885908D01*
X117812671Y-76936202D01*
X117812664Y-76936206D01*
X117697455Y-77022452D01*
X117697452Y-77022455D01*
X117611206Y-77137664D01*
X117611202Y-77137671D01*
X117560908Y-77272517D01*
X117554501Y-77332116D01*
X117554500Y-77332135D01*
X117554500Y-77883887D01*
X117534815Y-77950926D01*
X117518181Y-77971568D01*
X115481568Y-80008181D01*
X115420245Y-80041666D01*
X115393887Y-80044500D01*
X106175900Y-80044500D01*
X106108861Y-80024815D01*
X106063106Y-79972011D01*
X106052611Y-79907245D01*
X106053381Y-79900080D01*
X106055500Y-79880373D01*
X106055499Y-77879628D01*
X106049091Y-77820017D01*
X106016215Y-77731873D01*
X105998797Y-77685171D01*
X105998793Y-77685164D01*
X105912547Y-77569955D01*
X105912544Y-77569952D01*
X105797335Y-77483706D01*
X105797328Y-77483702D01*
X105662482Y-77433408D01*
X105662483Y-77433408D01*
X105602883Y-77427001D01*
X105602881Y-77427000D01*
X105602873Y-77427000D01*
X105602864Y-77427000D01*
X103507129Y-77427000D01*
X103507123Y-77427001D01*
X103447516Y-77433408D01*
X103312671Y-77483702D01*
X103312664Y-77483706D01*
X103197455Y-77569952D01*
X103197452Y-77569955D01*
X103111206Y-77685164D01*
X103111202Y-77685171D01*
X103060908Y-77820017D01*
X103057657Y-77850261D01*
X103054501Y-77879623D01*
X103054500Y-77879635D01*
X103054500Y-79409191D01*
X103034815Y-79476230D01*
X103018181Y-79496872D01*
X99701873Y-82813181D01*
X99640550Y-82846666D01*
X99614192Y-82849500D01*
X93776683Y-82849500D01*
X93709644Y-82829815D01*
X93675108Y-82796623D01*
X93580045Y-82660858D01*
X93419141Y-82499954D01*
X93232734Y-82369432D01*
X93232732Y-82369431D01*
X93026497Y-82273261D01*
X93026488Y-82273258D01*
X92806697Y-82214366D01*
X92806693Y-82214365D01*
X92806692Y-82214365D01*
X92806691Y-82214364D01*
X92806686Y-82214364D01*
X92580002Y-82194532D01*
X92579998Y-82194532D01*
X92353313Y-82214364D01*
X92353302Y-82214366D01*
X92133511Y-82273258D01*
X92133502Y-82273261D01*
X91927267Y-82369431D01*
X91927265Y-82369432D01*
X91740858Y-82499954D01*
X91579954Y-82660858D01*
X91449432Y-82847265D01*
X91449431Y-82847267D01*
X91353261Y-83053502D01*
X91353258Y-83053511D01*
X91294366Y-83273302D01*
X91294364Y-83273313D01*
X91274532Y-83499998D01*
X91274532Y-83500001D01*
X91294364Y-83726686D01*
X91294366Y-83726697D01*
X91353258Y-83946488D01*
X91353261Y-83946497D01*
X91449431Y-84152732D01*
X91449432Y-84152734D01*
X91579954Y-84339141D01*
X91740857Y-84500044D01*
X91740860Y-84500046D01*
X91740861Y-84500047D01*
X91796623Y-84539091D01*
X91840248Y-84593666D01*
X91849500Y-84640666D01*
X91849500Y-86723316D01*
X91829815Y-86790355D01*
X91796623Y-86824891D01*
X91660859Y-86919953D01*
X91499954Y-87080858D01*
X91369432Y-87267265D01*
X91369431Y-87267267D01*
X91273261Y-87473502D01*
X91273258Y-87473511D01*
X91214366Y-87693302D01*
X91214364Y-87693313D01*
X91194532Y-87919998D01*
X91194532Y-87920001D01*
X91214364Y-88146686D01*
X91214366Y-88146697D01*
X91273258Y-88366488D01*
X91273261Y-88366497D01*
X91369431Y-88572732D01*
X91369432Y-88572734D01*
X91499954Y-88759141D01*
X91660858Y-88920045D01*
X91660861Y-88920047D01*
X91847266Y-89050568D01*
X92053504Y-89146739D01*
X92273308Y-89205635D01*
X92435230Y-89219801D01*
X92499998Y-89225468D01*
X92500000Y-89225468D01*
X92500002Y-89225468D01*
X92556673Y-89220509D01*
X92726692Y-89205635D01*
X92946496Y-89146739D01*
X93152734Y-89050568D01*
X93339139Y-88920047D01*
X93500047Y-88759139D01*
X93630568Y-88572734D01*
X93726739Y-88366496D01*
X93785635Y-88146692D01*
X93805468Y-87920000D01*
X93785635Y-87693308D01*
X93726739Y-87473504D01*
X93630568Y-87267266D01*
X93500047Y-87080861D01*
X93500045Y-87080858D01*
X93339140Y-86919953D01*
X93203377Y-86824891D01*
X93159752Y-86770314D01*
X93150500Y-86723316D01*
X93150500Y-84747910D01*
X93170185Y-84680871D01*
X93222098Y-84635527D01*
X93232734Y-84630568D01*
X93419139Y-84500047D01*
X93580047Y-84339139D01*
X93675108Y-84203377D01*
X93729685Y-84159752D01*
X93776683Y-84150500D01*
X99999071Y-84150500D01*
X100083615Y-84133682D01*
X100124744Y-84125501D01*
X100243127Y-84076465D01*
X100262583Y-84063465D01*
X100349669Y-84005277D01*
X102850436Y-81504508D01*
X102911757Y-81471025D01*
X102981448Y-81476009D01*
X103037382Y-81517881D01*
X103060588Y-81572793D01*
X103090278Y-81760246D01*
X103090278Y-81760249D01*
X103160950Y-81977755D01*
X103185261Y-82025468D01*
X103264783Y-82181538D01*
X103399214Y-82366566D01*
X103560934Y-82528286D01*
X103570474Y-82535217D01*
X103645438Y-82589682D01*
X103688103Y-82645013D01*
X103694082Y-82714626D01*
X103661476Y-82776421D01*
X103645438Y-82790318D01*
X103560932Y-82851715D01*
X103399216Y-83013431D01*
X103399216Y-83013432D01*
X103399214Y-83013434D01*
X103341480Y-83092896D01*
X103264783Y-83198461D01*
X103160950Y-83402244D01*
X103090278Y-83619750D01*
X103090278Y-83619753D01*
X103073340Y-83726697D01*
X103054500Y-83845646D01*
X103054500Y-84074354D01*
X103066914Y-84152732D01*
X103090278Y-84300246D01*
X103090278Y-84300249D01*
X103155197Y-84500047D01*
X103160952Y-84517758D01*
X103165983Y-84527633D01*
X103179500Y-84583928D01*
X103179500Y-92593231D01*
X103173431Y-92631549D01*
X103158370Y-92677901D01*
X103148166Y-92742328D01*
X103124500Y-92891746D01*
X103124500Y-93108254D01*
X103133987Y-93168149D01*
X103156157Y-93308128D01*
X103158368Y-93322088D01*
X103158370Y-93322096D01*
X103159311Y-93324992D01*
X103159344Y-93326152D01*
X103159506Y-93326826D01*
X103159364Y-93326860D01*
X103161306Y-93394833D01*
X103129061Y-93450991D01*
X99186873Y-97393181D01*
X99125550Y-97426666D01*
X99099192Y-97429500D01*
X93696683Y-97429500D01*
X93629644Y-97409815D01*
X93595108Y-97376623D01*
X93500045Y-97240858D01*
X93339141Y-97079954D01*
X93152734Y-96949432D01*
X93152732Y-96949431D01*
X92946497Y-96853261D01*
X92946488Y-96853258D01*
X92726697Y-96794366D01*
X92726693Y-96794365D01*
X92726692Y-96794365D01*
X92726691Y-96794364D01*
X92726686Y-96794364D01*
X92500002Y-96774532D01*
X92499998Y-96774532D01*
X92273313Y-96794364D01*
X92273302Y-96794366D01*
X92053511Y-96853258D01*
X92053502Y-96853261D01*
X91847267Y-96949431D01*
X91847265Y-96949432D01*
X91660858Y-97079954D01*
X91499954Y-97240858D01*
X91369432Y-97427265D01*
X91369431Y-97427267D01*
X91273261Y-97633502D01*
X91273258Y-97633511D01*
X91214366Y-97853302D01*
X91214364Y-97853313D01*
X91194532Y-98079998D01*
X91194532Y-98080001D01*
X91214364Y-98306686D01*
X91214366Y-98306697D01*
X91225209Y-98347163D01*
X91223546Y-98417013D01*
X91193115Y-98466937D01*
X89876873Y-99783181D01*
X89815550Y-99816666D01*
X89789192Y-99819500D01*
X87421169Y-99819500D01*
X87354130Y-99799815D01*
X87308375Y-99747011D01*
X87297879Y-99682247D01*
X87300500Y-99657873D01*
X87300499Y-97962128D01*
X87294091Y-97902517D01*
X87275737Y-97853308D01*
X87243797Y-97767671D01*
X87243793Y-97767664D01*
X87157547Y-97652455D01*
X87157544Y-97652452D01*
X87042335Y-97566206D01*
X87042328Y-97566202D01*
X86907482Y-97515908D01*
X86907483Y-97515908D01*
X86847883Y-97509501D01*
X86847881Y-97509500D01*
X86847873Y-97509500D01*
X86847864Y-97509500D01*
X85152129Y-97509500D01*
X85152123Y-97509501D01*
X85092516Y-97515908D01*
X85091382Y-97516177D01*
X85062867Y-97519500D01*
X82104750Y-97519500D01*
X82037711Y-97499815D01*
X81991956Y-97447011D01*
X81982012Y-97377853D01*
X81992368Y-97343095D01*
X82002915Y-97320475D01*
X82046739Y-97226496D01*
X82105635Y-97006692D01*
X82124027Y-96796466D01*
X82125468Y-96780001D01*
X82125468Y-96779998D01*
X82105635Y-96553313D01*
X82105635Y-96553308D01*
X82046739Y-96333504D01*
X81950568Y-96127266D01*
X81820047Y-95940861D01*
X81820045Y-95940858D01*
X81659141Y-95779954D01*
X81472734Y-95649432D01*
X81472732Y-95649431D01*
X81414725Y-95622382D01*
X81414132Y-95622105D01*
X81361694Y-95575934D01*
X81342542Y-95508740D01*
X81362758Y-95441859D01*
X81414134Y-95397341D01*
X81472484Y-95370132D01*
X81658820Y-95239657D01*
X81819657Y-95078820D01*
X81950134Y-94892482D01*
X82046265Y-94686326D01*
X82046269Y-94686317D01*
X82098872Y-94490000D01*
X81135686Y-94490000D01*
X81140080Y-94485606D01*
X81192741Y-94394394D01*
X81220000Y-94292661D01*
X81220000Y-94187339D01*
X81192741Y-94085606D01*
X81140080Y-93994394D01*
X81135686Y-93990000D01*
X82098872Y-93990000D01*
X82098872Y-93989999D01*
X82046269Y-93793682D01*
X82046265Y-93793673D01*
X81950134Y-93587517D01*
X81819657Y-93401179D01*
X81658820Y-93240342D01*
X81472482Y-93109865D01*
X81414133Y-93082657D01*
X81361694Y-93036484D01*
X81342542Y-92969291D01*
X81362758Y-92902410D01*
X81414129Y-92857895D01*
X81472734Y-92830568D01*
X81659139Y-92700047D01*
X81820047Y-92539139D01*
X81950568Y-92352734D01*
X82046739Y-92146496D01*
X82105635Y-91926692D01*
X82125468Y-91700000D01*
X82105635Y-91473308D01*
X82090463Y-91416686D01*
X82074362Y-91356593D01*
X82076025Y-91286743D01*
X82115188Y-91228881D01*
X82179417Y-91201377D01*
X82194137Y-91200500D01*
X84581826Y-91200500D01*
X84648865Y-91220185D01*
X84694620Y-91272989D01*
X84705353Y-91313692D01*
X84714364Y-91416686D01*
X84714365Y-91416690D01*
X84714365Y-91416694D01*
X84773258Y-91636488D01*
X84773261Y-91636497D01*
X84869431Y-91842732D01*
X84869432Y-91842734D01*
X84999954Y-92029141D01*
X85160858Y-92190045D01*
X85160861Y-92190047D01*
X85347266Y-92320568D01*
X85553504Y-92416739D01*
X85773308Y-92475635D01*
X85935230Y-92489801D01*
X85999998Y-92495468D01*
X86000000Y-92495468D01*
X86000002Y-92495468D01*
X86056673Y-92490509D01*
X86226692Y-92475635D01*
X86446496Y-92416739D01*
X86652734Y-92320568D01*
X86839139Y-92190047D01*
X87000047Y-92029139D01*
X87130568Y-91842734D01*
X87226739Y-91636496D01*
X87285635Y-91416692D01*
X87305468Y-91190000D01*
X87305161Y-91186496D01*
X87287970Y-90990000D01*
X87285635Y-90963308D01*
X87226739Y-90743504D01*
X87130568Y-90537266D01*
X87011529Y-90367259D01*
X87000045Y-90350858D01*
X86839141Y-90189954D01*
X86652734Y-90059432D01*
X86652732Y-90059431D01*
X86446497Y-89963261D01*
X86446488Y-89963258D01*
X86226697Y-89904366D01*
X86226693Y-89904365D01*
X86226692Y-89904365D01*
X86226691Y-89904364D01*
X86226686Y-89904364D01*
X86000002Y-89884532D01*
X85999998Y-89884532D01*
X85773313Y-89904364D01*
X85773302Y-89904366D01*
X85648700Y-89937753D01*
X85578850Y-89936090D01*
X85569155Y-89932539D01*
X85549748Y-89924500D01*
X85549738Y-89924497D01*
X85424071Y-89899500D01*
X85424069Y-89899500D01*
X74285931Y-89899500D01*
X74285929Y-89899500D01*
X74160261Y-89924497D01*
X74160251Y-89924500D01*
X74111220Y-89944810D01*
X74041881Y-89973530D01*
X74041863Y-89973540D01*
X73935332Y-90044721D01*
X73935325Y-90044727D01*
X73616872Y-90363181D01*
X73555549Y-90396666D01*
X73529191Y-90399500D01*
X72774500Y-90399500D01*
X72707461Y-90379815D01*
X72661706Y-90327011D01*
X72650500Y-90275500D01*
X72650500Y-90070807D01*
X72670185Y-90003768D01*
X72686814Y-89983131D01*
X76363062Y-86306882D01*
X76424383Y-86273399D01*
X76482834Y-86274790D01*
X76523308Y-86285635D01*
X76685230Y-86299801D01*
X76749998Y-86305468D01*
X76750000Y-86305468D01*
X76750002Y-86305468D01*
X76806673Y-86300509D01*
X76976692Y-86285635D01*
X77196496Y-86226739D01*
X77402734Y-86130568D01*
X77589139Y-86000047D01*
X77750047Y-85839139D01*
X77880568Y-85652734D01*
X77976739Y-85446496D01*
X78035635Y-85226692D01*
X78055468Y-85000000D01*
X78035635Y-84773308D01*
X77976739Y-84553504D01*
X77880568Y-84347266D01*
X77750047Y-84160861D01*
X77750045Y-84160858D01*
X77589141Y-83999954D01*
X77402734Y-83869432D01*
X77402732Y-83869431D01*
X77196497Y-83773261D01*
X77196488Y-83773258D01*
X76976697Y-83714366D01*
X76976693Y-83714365D01*
X76976692Y-83714365D01*
X76976691Y-83714364D01*
X76976686Y-83714364D01*
X76750002Y-83694532D01*
X76749998Y-83694532D01*
X76523313Y-83714364D01*
X76523302Y-83714366D01*
X76303511Y-83773258D01*
X76303502Y-83773261D01*
X76097267Y-83869431D01*
X76097265Y-83869432D01*
X75910858Y-83999954D01*
X75749954Y-84160858D01*
X75619432Y-84347265D01*
X75619431Y-84347267D01*
X75523261Y-84553502D01*
X75523258Y-84553511D01*
X75464366Y-84773302D01*
X75464364Y-84773313D01*
X75444532Y-84999998D01*
X75444532Y-85000001D01*
X75464364Y-85226686D01*
X75464366Y-85226697D01*
X75475209Y-85267163D01*
X75473546Y-85337013D01*
X75443115Y-85386937D01*
X72362181Y-88467872D01*
X72300858Y-88501357D01*
X72231166Y-88496373D01*
X72175233Y-88454501D01*
X72150816Y-88389037D01*
X72150500Y-88380191D01*
X72150500Y-88070808D01*
X72170185Y-88003769D01*
X72186814Y-87983131D01*
X72255276Y-87914670D01*
X72290870Y-87861398D01*
X72326464Y-87808129D01*
X72326465Y-87808127D01*
X72375501Y-87689744D01*
X72381948Y-87657334D01*
X72400500Y-87564069D01*
X72400500Y-86196682D01*
X72420185Y-86129643D01*
X72453371Y-86095111D01*
X72589139Y-86000047D01*
X72750047Y-85839139D01*
X72880568Y-85652734D01*
X72976739Y-85446496D01*
X73035635Y-85226692D01*
X73055468Y-85000000D01*
X73035635Y-84773308D01*
X72976739Y-84553504D01*
X72880568Y-84347266D01*
X72750047Y-84160861D01*
X72750045Y-84160858D01*
X72589141Y-83999954D01*
X72402734Y-83869432D01*
X72402732Y-83869431D01*
X72196497Y-83773261D01*
X72196488Y-83773258D01*
X71976697Y-83714366D01*
X71976693Y-83714365D01*
X71976692Y-83714365D01*
X71976691Y-83714364D01*
X71976686Y-83714364D01*
X71750002Y-83694532D01*
X71749998Y-83694532D01*
X71523313Y-83714364D01*
X71523302Y-83714366D01*
X71303511Y-83773258D01*
X71303502Y-83773261D01*
X71097267Y-83869431D01*
X71097265Y-83869432D01*
X70910858Y-83999954D01*
X70749954Y-84160858D01*
X70619432Y-84347265D01*
X70619431Y-84347267D01*
X70523261Y-84553502D01*
X70523258Y-84553511D01*
X70464366Y-84773302D01*
X70464364Y-84773313D01*
X70444532Y-84999998D01*
X67500500Y-84999998D01*
X67500500Y-83499998D01*
X81114532Y-83499998D01*
X81114532Y-83500001D01*
X81134364Y-83726686D01*
X81134366Y-83726697D01*
X81193258Y-83946488D01*
X81193261Y-83946497D01*
X81289431Y-84152732D01*
X81289432Y-84152734D01*
X81419954Y-84339141D01*
X81580858Y-84500045D01*
X81580861Y-84500047D01*
X81767266Y-84630568D01*
X81973504Y-84726739D01*
X82193308Y-84785635D01*
X82355230Y-84799801D01*
X82419998Y-84805468D01*
X82420000Y-84805468D01*
X82420002Y-84805468D01*
X82476673Y-84800509D01*
X82646692Y-84785635D01*
X82866496Y-84726739D01*
X83072734Y-84630568D01*
X83259139Y-84500047D01*
X83420047Y-84339139D01*
X83550568Y-84152734D01*
X83646739Y-83946496D01*
X83705635Y-83726692D01*
X83725468Y-83500000D01*
X83721968Y-83460000D01*
X83710647Y-83330597D01*
X83705635Y-83273308D01*
X83646739Y-83053504D01*
X83550568Y-82847266D01*
X83420047Y-82660861D01*
X83420045Y-82660858D01*
X83259141Y-82499954D01*
X83072734Y-82369432D01*
X83072732Y-82369431D01*
X82866497Y-82273261D01*
X82866488Y-82273258D01*
X82646697Y-82214366D01*
X82646693Y-82214365D01*
X82646692Y-82214365D01*
X82646691Y-82214364D01*
X82646686Y-82214364D01*
X82420002Y-82194532D01*
X82419998Y-82194532D01*
X82193313Y-82214364D01*
X82193302Y-82214366D01*
X81973511Y-82273258D01*
X81973502Y-82273261D01*
X81767267Y-82369431D01*
X81767265Y-82369432D01*
X81580858Y-82499954D01*
X81419954Y-82660858D01*
X81289432Y-82847265D01*
X81289431Y-82847267D01*
X81193261Y-83053502D01*
X81193258Y-83053511D01*
X81134366Y-83273302D01*
X81134364Y-83273313D01*
X81114532Y-83499998D01*
X67500500Y-83499998D01*
X67500500Y-79329999D01*
X72221127Y-79329999D01*
X72221128Y-79330000D01*
X73184314Y-79330000D01*
X73179920Y-79334394D01*
X73127259Y-79425606D01*
X73100000Y-79527339D01*
X73100000Y-79632661D01*
X73127259Y-79734394D01*
X73179920Y-79825606D01*
X73184314Y-79830000D01*
X72221128Y-79830000D01*
X72273730Y-80026317D01*
X72273734Y-80026326D01*
X72369865Y-80232482D01*
X72500342Y-80418820D01*
X72661179Y-80579657D01*
X72847517Y-80710134D01*
X73053673Y-80806265D01*
X73053682Y-80806269D01*
X73249999Y-80858872D01*
X73250000Y-80858871D01*
X73250000Y-79895686D01*
X73254394Y-79900080D01*
X73345606Y-79952741D01*
X73447339Y-79980000D01*
X73552661Y-79980000D01*
X73654394Y-79952741D01*
X73745606Y-79900080D01*
X73750000Y-79895686D01*
X73750000Y-80858872D01*
X73946317Y-80806269D01*
X73946326Y-80806265D01*
X74152482Y-80710134D01*
X74338820Y-80579657D01*
X74499657Y-80418820D01*
X74630134Y-80232482D01*
X74726265Y-80026326D01*
X74726269Y-80026317D01*
X74778872Y-79830000D01*
X73815686Y-79830000D01*
X73820080Y-79825606D01*
X73872741Y-79734394D01*
X73900000Y-79632661D01*
X73900000Y-79527339D01*
X73872741Y-79425606D01*
X73820080Y-79334394D01*
X73815686Y-79330000D01*
X74778872Y-79330000D01*
X74778872Y-79329999D01*
X74726269Y-79133682D01*
X74726265Y-79133673D01*
X74630134Y-78927517D01*
X74499657Y-78741179D01*
X74338820Y-78580342D01*
X74152482Y-78449865D01*
X73946328Y-78353734D01*
X73750000Y-78301127D01*
X73750000Y-79264314D01*
X73745606Y-79259920D01*
X73654394Y-79207259D01*
X73552661Y-79180000D01*
X73447339Y-79180000D01*
X73345606Y-79207259D01*
X73254394Y-79259920D01*
X73250000Y-79264314D01*
X73250000Y-78301127D01*
X73053671Y-78353734D01*
X72847517Y-78449865D01*
X72661179Y-78580342D01*
X72500342Y-78741179D01*
X72369865Y-78927517D01*
X72273734Y-79133673D01*
X72273730Y-79133682D01*
X72221127Y-79329999D01*
X67500500Y-79329999D01*
X67500500Y-75999997D01*
X82695034Y-75999997D01*
X82695034Y-76000002D01*
X82714858Y-76226599D01*
X82714860Y-76226610D01*
X82773730Y-76446317D01*
X82773735Y-76446331D01*
X82869863Y-76652478D01*
X82920974Y-76725472D01*
X83600000Y-76046446D01*
X83600000Y-76052661D01*
X83627259Y-76154394D01*
X83679920Y-76245606D01*
X83754394Y-76320080D01*
X83845606Y-76372741D01*
X83947339Y-76400000D01*
X83953553Y-76400000D01*
X83274526Y-77079025D01*
X83347513Y-77130132D01*
X83347521Y-77130136D01*
X83553668Y-77226264D01*
X83553682Y-77226269D01*
X83773389Y-77285139D01*
X83773400Y-77285141D01*
X83999998Y-77304966D01*
X84000002Y-77304966D01*
X84226599Y-77285141D01*
X84226610Y-77285139D01*
X84446317Y-77226269D01*
X84446331Y-77226264D01*
X84652478Y-77130136D01*
X84725471Y-77079024D01*
X84046447Y-76400000D01*
X84052661Y-76400000D01*
X84154394Y-76372741D01*
X84245606Y-76320080D01*
X84320080Y-76245606D01*
X84372741Y-76154394D01*
X84400000Y-76052661D01*
X84400000Y-76046447D01*
X85079024Y-76725471D01*
X85130136Y-76652478D01*
X85226264Y-76446331D01*
X85226269Y-76446317D01*
X85285139Y-76226610D01*
X85285141Y-76226599D01*
X85304966Y-76000002D01*
X85304966Y-75999997D01*
X85285141Y-75773400D01*
X85285139Y-75773389D01*
X85226269Y-75553682D01*
X85226264Y-75553668D01*
X85130136Y-75347521D01*
X85130132Y-75347513D01*
X85079025Y-75274526D01*
X84400000Y-75953551D01*
X84400000Y-75947339D01*
X84372741Y-75845606D01*
X84320080Y-75754394D01*
X84245606Y-75679920D01*
X84154394Y-75627259D01*
X84052661Y-75600000D01*
X84046448Y-75600000D01*
X84725472Y-74920974D01*
X84652478Y-74869863D01*
X84446331Y-74773735D01*
X84446317Y-74773730D01*
X84226610Y-74714860D01*
X84226599Y-74714858D01*
X84000002Y-74695034D01*
X83999998Y-74695034D01*
X83773400Y-74714858D01*
X83773389Y-74714860D01*
X83553682Y-74773730D01*
X83553673Y-74773734D01*
X83347516Y-74869866D01*
X83347512Y-74869868D01*
X83274526Y-74920973D01*
X83274526Y-74920974D01*
X83953553Y-75600000D01*
X83947339Y-75600000D01*
X83845606Y-75627259D01*
X83754394Y-75679920D01*
X83679920Y-75754394D01*
X83627259Y-75845606D01*
X83600000Y-75947339D01*
X83600000Y-75953552D01*
X82920974Y-75274526D01*
X82920973Y-75274526D01*
X82869868Y-75347512D01*
X82869866Y-75347516D01*
X82773734Y-75553673D01*
X82773730Y-75553682D01*
X82714860Y-75773389D01*
X82714858Y-75773400D01*
X82695034Y-75999997D01*
X67500500Y-75999997D01*
X67500500Y-61397648D01*
X69199500Y-61397648D01*
X69199500Y-61602351D01*
X69231522Y-61804534D01*
X69294781Y-61999223D01*
X69387715Y-62181613D01*
X69508028Y-62347213D01*
X69652786Y-62491971D01*
X69807749Y-62604556D01*
X69818390Y-62612287D01*
X69932021Y-62670185D01*
X70000776Y-62705218D01*
X70000778Y-62705218D01*
X70000781Y-62705220D01*
X70105137Y-62739127D01*
X70195465Y-62768477D01*
X70244384Y-62776225D01*
X70397648Y-62800500D01*
X70397649Y-62800500D01*
X70602351Y-62800500D01*
X70602352Y-62800500D01*
X70804534Y-62768477D01*
X70999219Y-62705220D01*
X71181610Y-62612287D01*
X71274590Y-62544732D01*
X71347213Y-62491971D01*
X71347215Y-62491968D01*
X71347219Y-62491966D01*
X71491966Y-62347219D01*
X71491968Y-62347215D01*
X71491971Y-62347213D01*
X71544732Y-62274590D01*
X71612287Y-62181610D01*
X71705220Y-61999219D01*
X71768477Y-61804534D01*
X71800500Y-61602352D01*
X71800500Y-61397648D01*
X71797773Y-61380430D01*
X71768477Y-61195465D01*
X71708102Y-61009651D01*
X71705220Y-61000781D01*
X71705218Y-61000778D01*
X71705218Y-61000776D01*
X71638515Y-60869866D01*
X71612287Y-60818390D01*
X71579497Y-60773258D01*
X71491971Y-60652786D01*
X71347213Y-60508028D01*
X71181613Y-60387715D01*
X71181612Y-60387714D01*
X71181610Y-60387713D01*
X71124653Y-60358691D01*
X70999223Y-60294781D01*
X70804534Y-60231522D01*
X70629995Y-60203878D01*
X70602352Y-60199500D01*
X70397648Y-60199500D01*
X70373329Y-60203351D01*
X70195465Y-60231522D01*
X70000776Y-60294781D01*
X69818386Y-60387715D01*
X69652786Y-60508028D01*
X69508028Y-60652786D01*
X69387715Y-60818386D01*
X69294781Y-61000776D01*
X69231522Y-61195465D01*
X69199500Y-61397648D01*
X67500500Y-61397648D01*
X67500500Y-58624500D01*
X67520185Y-58557461D01*
X67572989Y-58511706D01*
X67624500Y-58500500D01*
X225875500Y-58500500D01*
X225942539Y-58520185D01*
G37*
G04 #@! TD.AperFunction*
M02*
