%TF.GenerationSoftware,KiCad,Pcbnew,8.0.6*%
%TF.CreationDate,2024-11-01T15:42:28-04:00*%
%TF.ProjectId,H_Bridge_KiCAD,485f4272-6964-4676-955f-4b694341442e,rev?*%
%TF.SameCoordinates,Original*%
%TF.FileFunction,Drillmap*%
%TF.FilePolarity,Positive*%
%FSLAX45Y45*%
G04 Gerber Fmt 4.5, Leading zero omitted, Abs format (unit mm)*
G04 Created by KiCad (PCBNEW 8.0.6) date 2024-11-01 15:42:28*
%MOMM*%
%LPD*%
G01*
G04 APERTURE LIST*
%ADD10C,0.200000*%
%ADD11C,0.210000*%
G04 APERTURE END LIST*
D10*
X6700000Y-5800000D02*
X22650000Y-5800000D01*
X22650000Y-12051600D01*
X6700000Y-12051600D01*
X6700000Y-5800000D01*
D11*
X6945000Y-6045000D02*
X7155000Y-6255000D01*
X7155000Y-6045000D02*
X6945000Y-6255000D01*
X6945000Y-11595000D02*
X7155000Y-11805000D01*
X7155000Y-11595000D02*
X6945000Y-11805000D01*
X22195000Y-6045000D02*
X22405000Y-6255000D01*
X22405000Y-6045000D02*
X22195000Y-6255000D01*
X22195000Y-11595000D02*
X22405000Y-11805000D01*
X22405000Y-11595000D02*
X22195000Y-11805000D01*
D10*
X6950777Y-12373084D02*
X6950777Y-12173084D01*
X6950777Y-12173084D02*
X6998396Y-12173084D01*
X6998396Y-12173084D02*
X7026967Y-12182608D01*
X7026967Y-12182608D02*
X7046015Y-12201655D01*
X7046015Y-12201655D02*
X7055539Y-12220703D01*
X7055539Y-12220703D02*
X7065062Y-12258798D01*
X7065062Y-12258798D02*
X7065062Y-12287369D01*
X7065062Y-12287369D02*
X7055539Y-12325465D01*
X7055539Y-12325465D02*
X7046015Y-12344512D01*
X7046015Y-12344512D02*
X7026967Y-12363560D01*
X7026967Y-12363560D02*
X6998396Y-12373084D01*
X6998396Y-12373084D02*
X6950777Y-12373084D01*
X7150777Y-12373084D02*
X7150777Y-12239750D01*
X7150777Y-12277846D02*
X7160301Y-12258798D01*
X7160301Y-12258798D02*
X7169824Y-12249274D01*
X7169824Y-12249274D02*
X7188872Y-12239750D01*
X7188872Y-12239750D02*
X7207920Y-12239750D01*
X7274586Y-12373084D02*
X7274586Y-12239750D01*
X7274586Y-12173084D02*
X7265062Y-12182608D01*
X7265062Y-12182608D02*
X7274586Y-12192131D01*
X7274586Y-12192131D02*
X7284110Y-12182608D01*
X7284110Y-12182608D02*
X7274586Y-12173084D01*
X7274586Y-12173084D02*
X7274586Y-12192131D01*
X7398396Y-12373084D02*
X7379348Y-12363560D01*
X7379348Y-12363560D02*
X7369824Y-12344512D01*
X7369824Y-12344512D02*
X7369824Y-12173084D01*
X7503158Y-12373084D02*
X7484110Y-12363560D01*
X7484110Y-12363560D02*
X7474586Y-12344512D01*
X7474586Y-12344512D02*
X7474586Y-12173084D01*
X7731729Y-12373084D02*
X7731729Y-12173084D01*
X7731729Y-12173084D02*
X7798396Y-12315941D01*
X7798396Y-12315941D02*
X7865062Y-12173084D01*
X7865062Y-12173084D02*
X7865062Y-12373084D01*
X8046015Y-12373084D02*
X8046015Y-12268322D01*
X8046015Y-12268322D02*
X8036491Y-12249274D01*
X8036491Y-12249274D02*
X8017443Y-12239750D01*
X8017443Y-12239750D02*
X7979348Y-12239750D01*
X7979348Y-12239750D02*
X7960301Y-12249274D01*
X8046015Y-12363560D02*
X8026967Y-12373084D01*
X8026967Y-12373084D02*
X7979348Y-12373084D01*
X7979348Y-12373084D02*
X7960301Y-12363560D01*
X7960301Y-12363560D02*
X7950777Y-12344512D01*
X7950777Y-12344512D02*
X7950777Y-12325465D01*
X7950777Y-12325465D02*
X7960301Y-12306417D01*
X7960301Y-12306417D02*
X7979348Y-12296893D01*
X7979348Y-12296893D02*
X8026967Y-12296893D01*
X8026967Y-12296893D02*
X8046015Y-12287369D01*
X8141253Y-12239750D02*
X8141253Y-12439750D01*
X8141253Y-12249274D02*
X8160301Y-12239750D01*
X8160301Y-12239750D02*
X8198396Y-12239750D01*
X8198396Y-12239750D02*
X8217443Y-12249274D01*
X8217443Y-12249274D02*
X8226967Y-12258798D01*
X8226967Y-12258798D02*
X8236491Y-12277846D01*
X8236491Y-12277846D02*
X8236491Y-12334988D01*
X8236491Y-12334988D02*
X8226967Y-12354036D01*
X8226967Y-12354036D02*
X8217443Y-12363560D01*
X8217443Y-12363560D02*
X8198396Y-12373084D01*
X8198396Y-12373084D02*
X8160301Y-12373084D01*
X8160301Y-12373084D02*
X8141253Y-12363560D01*
X8322205Y-12354036D02*
X8331729Y-12363560D01*
X8331729Y-12363560D02*
X8322205Y-12373084D01*
X8322205Y-12373084D02*
X8312682Y-12363560D01*
X8312682Y-12363560D02*
X8322205Y-12354036D01*
X8322205Y-12354036D02*
X8322205Y-12373084D01*
X8322205Y-12249274D02*
X8331729Y-12258798D01*
X8331729Y-12258798D02*
X8322205Y-12268322D01*
X8322205Y-12268322D02*
X8312682Y-12258798D01*
X8312682Y-12258798D02*
X8322205Y-12249274D01*
X8322205Y-12249274D02*
X8322205Y-12268322D01*
X6490000Y-12601600D02*
X6690000Y-12801600D01*
X6690000Y-12601600D02*
X6490000Y-12801600D01*
X6941253Y-12612131D02*
X6950777Y-12602608D01*
X6950777Y-12602608D02*
X6969824Y-12593084D01*
X6969824Y-12593084D02*
X7017443Y-12593084D01*
X7017443Y-12593084D02*
X7036491Y-12602608D01*
X7036491Y-12602608D02*
X7046015Y-12612131D01*
X7046015Y-12612131D02*
X7055539Y-12631179D01*
X7055539Y-12631179D02*
X7055539Y-12650227D01*
X7055539Y-12650227D02*
X7046015Y-12678798D01*
X7046015Y-12678798D02*
X6931729Y-12793084D01*
X6931729Y-12793084D02*
X7055539Y-12793084D01*
X7141253Y-12774036D02*
X7150777Y-12783560D01*
X7150777Y-12783560D02*
X7141253Y-12793084D01*
X7141253Y-12793084D02*
X7131729Y-12783560D01*
X7131729Y-12783560D02*
X7141253Y-12774036D01*
X7141253Y-12774036D02*
X7141253Y-12793084D01*
X7341253Y-12793084D02*
X7226967Y-12793084D01*
X7284110Y-12793084D02*
X7284110Y-12593084D01*
X7284110Y-12593084D02*
X7265062Y-12621655D01*
X7265062Y-12621655D02*
X7246015Y-12640703D01*
X7246015Y-12640703D02*
X7226967Y-12650227D01*
X7465062Y-12593084D02*
X7484110Y-12593084D01*
X7484110Y-12593084D02*
X7503158Y-12602608D01*
X7503158Y-12602608D02*
X7512682Y-12612131D01*
X7512682Y-12612131D02*
X7522205Y-12631179D01*
X7522205Y-12631179D02*
X7531729Y-12669274D01*
X7531729Y-12669274D02*
X7531729Y-12716893D01*
X7531729Y-12716893D02*
X7522205Y-12754988D01*
X7522205Y-12754988D02*
X7512682Y-12774036D01*
X7512682Y-12774036D02*
X7503158Y-12783560D01*
X7503158Y-12783560D02*
X7484110Y-12793084D01*
X7484110Y-12793084D02*
X7465062Y-12793084D01*
X7465062Y-12793084D02*
X7446015Y-12783560D01*
X7446015Y-12783560D02*
X7436491Y-12774036D01*
X7436491Y-12774036D02*
X7426967Y-12754988D01*
X7426967Y-12754988D02*
X7417443Y-12716893D01*
X7417443Y-12716893D02*
X7417443Y-12669274D01*
X7417443Y-12669274D02*
X7426967Y-12631179D01*
X7426967Y-12631179D02*
X7436491Y-12612131D01*
X7436491Y-12612131D02*
X7446015Y-12602608D01*
X7446015Y-12602608D02*
X7465062Y-12593084D01*
X7655539Y-12593084D02*
X7674586Y-12593084D01*
X7674586Y-12593084D02*
X7693634Y-12602608D01*
X7693634Y-12602608D02*
X7703158Y-12612131D01*
X7703158Y-12612131D02*
X7712682Y-12631179D01*
X7712682Y-12631179D02*
X7722205Y-12669274D01*
X7722205Y-12669274D02*
X7722205Y-12716893D01*
X7722205Y-12716893D02*
X7712682Y-12754988D01*
X7712682Y-12754988D02*
X7703158Y-12774036D01*
X7703158Y-12774036D02*
X7693634Y-12783560D01*
X7693634Y-12783560D02*
X7674586Y-12793084D01*
X7674586Y-12793084D02*
X7655539Y-12793084D01*
X7655539Y-12793084D02*
X7636491Y-12783560D01*
X7636491Y-12783560D02*
X7626967Y-12774036D01*
X7626967Y-12774036D02*
X7617443Y-12754988D01*
X7617443Y-12754988D02*
X7607920Y-12716893D01*
X7607920Y-12716893D02*
X7607920Y-12669274D01*
X7607920Y-12669274D02*
X7617443Y-12631179D01*
X7617443Y-12631179D02*
X7626967Y-12612131D01*
X7626967Y-12612131D02*
X7636491Y-12602608D01*
X7636491Y-12602608D02*
X7655539Y-12593084D01*
X7807920Y-12793084D02*
X7807920Y-12659750D01*
X7807920Y-12678798D02*
X7817443Y-12669274D01*
X7817443Y-12669274D02*
X7836491Y-12659750D01*
X7836491Y-12659750D02*
X7865063Y-12659750D01*
X7865063Y-12659750D02*
X7884110Y-12669274D01*
X7884110Y-12669274D02*
X7893634Y-12688322D01*
X7893634Y-12688322D02*
X7893634Y-12793084D01*
X7893634Y-12688322D02*
X7903158Y-12669274D01*
X7903158Y-12669274D02*
X7922205Y-12659750D01*
X7922205Y-12659750D02*
X7950777Y-12659750D01*
X7950777Y-12659750D02*
X7969824Y-12669274D01*
X7969824Y-12669274D02*
X7979348Y-12688322D01*
X7979348Y-12688322D02*
X7979348Y-12793084D01*
X8074586Y-12793084D02*
X8074586Y-12659750D01*
X8074586Y-12678798D02*
X8084110Y-12669274D01*
X8084110Y-12669274D02*
X8103158Y-12659750D01*
X8103158Y-12659750D02*
X8131729Y-12659750D01*
X8131729Y-12659750D02*
X8150777Y-12669274D01*
X8150777Y-12669274D02*
X8160301Y-12688322D01*
X8160301Y-12688322D02*
X8160301Y-12793084D01*
X8160301Y-12688322D02*
X8169824Y-12669274D01*
X8169824Y-12669274D02*
X8188872Y-12659750D01*
X8188872Y-12659750D02*
X8217443Y-12659750D01*
X8217443Y-12659750D02*
X8236491Y-12669274D01*
X8236491Y-12669274D02*
X8246015Y-12688322D01*
X8246015Y-12688322D02*
X8246015Y-12793084D01*
X8636491Y-12583560D02*
X8465063Y-12840703D01*
X8893634Y-12593084D02*
X8912682Y-12593084D01*
X8912682Y-12593084D02*
X8931729Y-12602608D01*
X8931729Y-12602608D02*
X8941253Y-12612131D01*
X8941253Y-12612131D02*
X8950777Y-12631179D01*
X8950777Y-12631179D02*
X8960301Y-12669274D01*
X8960301Y-12669274D02*
X8960301Y-12716893D01*
X8960301Y-12716893D02*
X8950777Y-12754988D01*
X8950777Y-12754988D02*
X8941253Y-12774036D01*
X8941253Y-12774036D02*
X8931729Y-12783560D01*
X8931729Y-12783560D02*
X8912682Y-12793084D01*
X8912682Y-12793084D02*
X8893634Y-12793084D01*
X8893634Y-12793084D02*
X8874587Y-12783560D01*
X8874587Y-12783560D02*
X8865063Y-12774036D01*
X8865063Y-12774036D02*
X8855539Y-12754988D01*
X8855539Y-12754988D02*
X8846015Y-12716893D01*
X8846015Y-12716893D02*
X8846015Y-12669274D01*
X8846015Y-12669274D02*
X8855539Y-12631179D01*
X8855539Y-12631179D02*
X8865063Y-12612131D01*
X8865063Y-12612131D02*
X8874587Y-12602608D01*
X8874587Y-12602608D02*
X8893634Y-12593084D01*
X9046015Y-12774036D02*
X9055539Y-12783560D01*
X9055539Y-12783560D02*
X9046015Y-12793084D01*
X9046015Y-12793084D02*
X9036491Y-12783560D01*
X9036491Y-12783560D02*
X9046015Y-12774036D01*
X9046015Y-12774036D02*
X9046015Y-12793084D01*
X9179348Y-12593084D02*
X9198396Y-12593084D01*
X9198396Y-12593084D02*
X9217444Y-12602608D01*
X9217444Y-12602608D02*
X9226968Y-12612131D01*
X9226968Y-12612131D02*
X9236491Y-12631179D01*
X9236491Y-12631179D02*
X9246015Y-12669274D01*
X9246015Y-12669274D02*
X9246015Y-12716893D01*
X9246015Y-12716893D02*
X9236491Y-12754988D01*
X9236491Y-12754988D02*
X9226968Y-12774036D01*
X9226968Y-12774036D02*
X9217444Y-12783560D01*
X9217444Y-12783560D02*
X9198396Y-12793084D01*
X9198396Y-12793084D02*
X9179348Y-12793084D01*
X9179348Y-12793084D02*
X9160301Y-12783560D01*
X9160301Y-12783560D02*
X9150777Y-12774036D01*
X9150777Y-12774036D02*
X9141253Y-12754988D01*
X9141253Y-12754988D02*
X9131729Y-12716893D01*
X9131729Y-12716893D02*
X9131729Y-12669274D01*
X9131729Y-12669274D02*
X9141253Y-12631179D01*
X9141253Y-12631179D02*
X9150777Y-12612131D01*
X9150777Y-12612131D02*
X9160301Y-12602608D01*
X9160301Y-12602608D02*
X9179348Y-12593084D01*
X9360301Y-12678798D02*
X9341253Y-12669274D01*
X9341253Y-12669274D02*
X9331729Y-12659750D01*
X9331729Y-12659750D02*
X9322206Y-12640703D01*
X9322206Y-12640703D02*
X9322206Y-12631179D01*
X9322206Y-12631179D02*
X9331729Y-12612131D01*
X9331729Y-12612131D02*
X9341253Y-12602608D01*
X9341253Y-12602608D02*
X9360301Y-12593084D01*
X9360301Y-12593084D02*
X9398396Y-12593084D01*
X9398396Y-12593084D02*
X9417444Y-12602608D01*
X9417444Y-12602608D02*
X9426968Y-12612131D01*
X9426968Y-12612131D02*
X9436491Y-12631179D01*
X9436491Y-12631179D02*
X9436491Y-12640703D01*
X9436491Y-12640703D02*
X9426968Y-12659750D01*
X9426968Y-12659750D02*
X9417444Y-12669274D01*
X9417444Y-12669274D02*
X9398396Y-12678798D01*
X9398396Y-12678798D02*
X9360301Y-12678798D01*
X9360301Y-12678798D02*
X9341253Y-12688322D01*
X9341253Y-12688322D02*
X9331729Y-12697846D01*
X9331729Y-12697846D02*
X9322206Y-12716893D01*
X9322206Y-12716893D02*
X9322206Y-12754988D01*
X9322206Y-12754988D02*
X9331729Y-12774036D01*
X9331729Y-12774036D02*
X9341253Y-12783560D01*
X9341253Y-12783560D02*
X9360301Y-12793084D01*
X9360301Y-12793084D02*
X9398396Y-12793084D01*
X9398396Y-12793084D02*
X9417444Y-12783560D01*
X9417444Y-12783560D02*
X9426968Y-12774036D01*
X9426968Y-12774036D02*
X9436491Y-12754988D01*
X9436491Y-12754988D02*
X9436491Y-12716893D01*
X9436491Y-12716893D02*
X9426968Y-12697846D01*
X9426968Y-12697846D02*
X9417444Y-12688322D01*
X9417444Y-12688322D02*
X9398396Y-12678798D01*
X9512682Y-12612131D02*
X9522206Y-12602608D01*
X9522206Y-12602608D02*
X9541253Y-12593084D01*
X9541253Y-12593084D02*
X9588872Y-12593084D01*
X9588872Y-12593084D02*
X9607920Y-12602608D01*
X9607920Y-12602608D02*
X9617444Y-12612131D01*
X9617444Y-12612131D02*
X9626968Y-12631179D01*
X9626968Y-12631179D02*
X9626968Y-12650227D01*
X9626968Y-12650227D02*
X9617444Y-12678798D01*
X9617444Y-12678798D02*
X9503158Y-12793084D01*
X9503158Y-12793084D02*
X9626968Y-12793084D01*
X9693634Y-12593084D02*
X9826968Y-12593084D01*
X9826968Y-12593084D02*
X9741253Y-12793084D01*
X9893634Y-12593084D02*
X9893634Y-12631179D01*
X9969825Y-12593084D02*
X9969825Y-12631179D01*
X10265063Y-12869274D02*
X10255539Y-12859750D01*
X10255539Y-12859750D02*
X10236491Y-12831179D01*
X10236491Y-12831179D02*
X10226968Y-12812131D01*
X10226968Y-12812131D02*
X10217444Y-12783560D01*
X10217444Y-12783560D02*
X10207920Y-12735941D01*
X10207920Y-12735941D02*
X10207920Y-12697846D01*
X10207920Y-12697846D02*
X10217444Y-12650227D01*
X10217444Y-12650227D02*
X10226968Y-12621655D01*
X10226968Y-12621655D02*
X10236491Y-12602608D01*
X10236491Y-12602608D02*
X10255539Y-12574036D01*
X10255539Y-12574036D02*
X10265063Y-12564512D01*
X10426968Y-12659750D02*
X10426968Y-12793084D01*
X10379349Y-12583560D02*
X10331730Y-12726417D01*
X10331730Y-12726417D02*
X10455539Y-12726417D01*
X10684111Y-12793084D02*
X10684111Y-12593084D01*
X10769825Y-12793084D02*
X10769825Y-12688322D01*
X10769825Y-12688322D02*
X10760301Y-12669274D01*
X10760301Y-12669274D02*
X10741253Y-12659750D01*
X10741253Y-12659750D02*
X10712682Y-12659750D01*
X10712682Y-12659750D02*
X10693634Y-12669274D01*
X10693634Y-12669274D02*
X10684111Y-12678798D01*
X10893634Y-12793084D02*
X10874587Y-12783560D01*
X10874587Y-12783560D02*
X10865063Y-12774036D01*
X10865063Y-12774036D02*
X10855539Y-12754988D01*
X10855539Y-12754988D02*
X10855539Y-12697846D01*
X10855539Y-12697846D02*
X10865063Y-12678798D01*
X10865063Y-12678798D02*
X10874587Y-12669274D01*
X10874587Y-12669274D02*
X10893634Y-12659750D01*
X10893634Y-12659750D02*
X10922206Y-12659750D01*
X10922206Y-12659750D02*
X10941253Y-12669274D01*
X10941253Y-12669274D02*
X10950777Y-12678798D01*
X10950777Y-12678798D02*
X10960301Y-12697846D01*
X10960301Y-12697846D02*
X10960301Y-12754988D01*
X10960301Y-12754988D02*
X10950777Y-12774036D01*
X10950777Y-12774036D02*
X10941253Y-12783560D01*
X10941253Y-12783560D02*
X10922206Y-12793084D01*
X10922206Y-12793084D02*
X10893634Y-12793084D01*
X11074587Y-12793084D02*
X11055539Y-12783560D01*
X11055539Y-12783560D02*
X11046015Y-12764512D01*
X11046015Y-12764512D02*
X11046015Y-12593084D01*
X11226968Y-12783560D02*
X11207920Y-12793084D01*
X11207920Y-12793084D02*
X11169825Y-12793084D01*
X11169825Y-12793084D02*
X11150777Y-12783560D01*
X11150777Y-12783560D02*
X11141253Y-12764512D01*
X11141253Y-12764512D02*
X11141253Y-12688322D01*
X11141253Y-12688322D02*
X11150777Y-12669274D01*
X11150777Y-12669274D02*
X11169825Y-12659750D01*
X11169825Y-12659750D02*
X11207920Y-12659750D01*
X11207920Y-12659750D02*
X11226968Y-12669274D01*
X11226968Y-12669274D02*
X11236491Y-12688322D01*
X11236491Y-12688322D02*
X11236491Y-12707369D01*
X11236491Y-12707369D02*
X11141253Y-12726417D01*
X11312682Y-12783560D02*
X11331730Y-12793084D01*
X11331730Y-12793084D02*
X11369825Y-12793084D01*
X11369825Y-12793084D02*
X11388872Y-12783560D01*
X11388872Y-12783560D02*
X11398396Y-12764512D01*
X11398396Y-12764512D02*
X11398396Y-12754988D01*
X11398396Y-12754988D02*
X11388872Y-12735941D01*
X11388872Y-12735941D02*
X11369825Y-12726417D01*
X11369825Y-12726417D02*
X11341253Y-12726417D01*
X11341253Y-12726417D02*
X11322206Y-12716893D01*
X11322206Y-12716893D02*
X11312682Y-12697846D01*
X11312682Y-12697846D02*
X11312682Y-12688322D01*
X11312682Y-12688322D02*
X11322206Y-12669274D01*
X11322206Y-12669274D02*
X11341253Y-12659750D01*
X11341253Y-12659750D02*
X11369825Y-12659750D01*
X11369825Y-12659750D02*
X11388872Y-12669274D01*
X11465063Y-12869274D02*
X11474587Y-12859750D01*
X11474587Y-12859750D02*
X11493634Y-12831179D01*
X11493634Y-12831179D02*
X11503158Y-12812131D01*
X11503158Y-12812131D02*
X11512682Y-12783560D01*
X11512682Y-12783560D02*
X11522206Y-12735941D01*
X11522206Y-12735941D02*
X11522206Y-12697846D01*
X11522206Y-12697846D02*
X11512682Y-12650227D01*
X11512682Y-12650227D02*
X11503158Y-12621655D01*
X11503158Y-12621655D02*
X11493634Y-12602608D01*
X11493634Y-12602608D02*
X11474587Y-12574036D01*
X11474587Y-12574036D02*
X11465063Y-12564512D01*
X11826968Y-12869274D02*
X11817444Y-12859750D01*
X11817444Y-12859750D02*
X11798396Y-12831179D01*
X11798396Y-12831179D02*
X11788872Y-12812131D01*
X11788872Y-12812131D02*
X11779349Y-12783560D01*
X11779349Y-12783560D02*
X11769825Y-12735941D01*
X11769825Y-12735941D02*
X11769825Y-12697846D01*
X11769825Y-12697846D02*
X11779349Y-12650227D01*
X11779349Y-12650227D02*
X11788872Y-12621655D01*
X11788872Y-12621655D02*
X11798396Y-12602608D01*
X11798396Y-12602608D02*
X11817444Y-12574036D01*
X11817444Y-12574036D02*
X11826968Y-12564512D01*
X11903158Y-12659750D02*
X11903158Y-12793084D01*
X11903158Y-12678798D02*
X11912682Y-12669274D01*
X11912682Y-12669274D02*
X11931730Y-12659750D01*
X11931730Y-12659750D02*
X11960301Y-12659750D01*
X11960301Y-12659750D02*
X11979349Y-12669274D01*
X11979349Y-12669274D02*
X11988872Y-12688322D01*
X11988872Y-12688322D02*
X11988872Y-12793084D01*
X12112682Y-12793084D02*
X12093634Y-12783560D01*
X12093634Y-12783560D02*
X12084111Y-12774036D01*
X12084111Y-12774036D02*
X12074587Y-12754988D01*
X12074587Y-12754988D02*
X12074587Y-12697846D01*
X12074587Y-12697846D02*
X12084111Y-12678798D01*
X12084111Y-12678798D02*
X12093634Y-12669274D01*
X12093634Y-12669274D02*
X12112682Y-12659750D01*
X12112682Y-12659750D02*
X12141253Y-12659750D01*
X12141253Y-12659750D02*
X12160301Y-12669274D01*
X12160301Y-12669274D02*
X12169825Y-12678798D01*
X12169825Y-12678798D02*
X12179349Y-12697846D01*
X12179349Y-12697846D02*
X12179349Y-12754988D01*
X12179349Y-12754988D02*
X12169825Y-12774036D01*
X12169825Y-12774036D02*
X12160301Y-12783560D01*
X12160301Y-12783560D02*
X12141253Y-12793084D01*
X12141253Y-12793084D02*
X12112682Y-12793084D01*
X12236492Y-12659750D02*
X12312682Y-12659750D01*
X12265063Y-12593084D02*
X12265063Y-12764512D01*
X12265063Y-12764512D02*
X12274587Y-12783560D01*
X12274587Y-12783560D02*
X12293634Y-12793084D01*
X12293634Y-12793084D02*
X12312682Y-12793084D01*
X12531730Y-12659750D02*
X12531730Y-12859750D01*
X12531730Y-12669274D02*
X12550777Y-12659750D01*
X12550777Y-12659750D02*
X12588873Y-12659750D01*
X12588873Y-12659750D02*
X12607920Y-12669274D01*
X12607920Y-12669274D02*
X12617444Y-12678798D01*
X12617444Y-12678798D02*
X12626968Y-12697846D01*
X12626968Y-12697846D02*
X12626968Y-12754988D01*
X12626968Y-12754988D02*
X12617444Y-12774036D01*
X12617444Y-12774036D02*
X12607920Y-12783560D01*
X12607920Y-12783560D02*
X12588873Y-12793084D01*
X12588873Y-12793084D02*
X12550777Y-12793084D01*
X12550777Y-12793084D02*
X12531730Y-12783560D01*
X12741253Y-12793084D02*
X12722206Y-12783560D01*
X12722206Y-12783560D02*
X12712682Y-12764512D01*
X12712682Y-12764512D02*
X12712682Y-12593084D01*
X12903158Y-12793084D02*
X12903158Y-12688322D01*
X12903158Y-12688322D02*
X12893634Y-12669274D01*
X12893634Y-12669274D02*
X12874587Y-12659750D01*
X12874587Y-12659750D02*
X12836492Y-12659750D01*
X12836492Y-12659750D02*
X12817444Y-12669274D01*
X12903158Y-12783560D02*
X12884111Y-12793084D01*
X12884111Y-12793084D02*
X12836492Y-12793084D01*
X12836492Y-12793084D02*
X12817444Y-12783560D01*
X12817444Y-12783560D02*
X12807920Y-12764512D01*
X12807920Y-12764512D02*
X12807920Y-12745465D01*
X12807920Y-12745465D02*
X12817444Y-12726417D01*
X12817444Y-12726417D02*
X12836492Y-12716893D01*
X12836492Y-12716893D02*
X12884111Y-12716893D01*
X12884111Y-12716893D02*
X12903158Y-12707369D01*
X12969825Y-12659750D02*
X13046015Y-12659750D01*
X12998396Y-12593084D02*
X12998396Y-12764512D01*
X12998396Y-12764512D02*
X13007920Y-12783560D01*
X13007920Y-12783560D02*
X13026968Y-12793084D01*
X13026968Y-12793084D02*
X13046015Y-12793084D01*
X13188873Y-12783560D02*
X13169825Y-12793084D01*
X13169825Y-12793084D02*
X13131730Y-12793084D01*
X13131730Y-12793084D02*
X13112682Y-12783560D01*
X13112682Y-12783560D02*
X13103158Y-12764512D01*
X13103158Y-12764512D02*
X13103158Y-12688322D01*
X13103158Y-12688322D02*
X13112682Y-12669274D01*
X13112682Y-12669274D02*
X13131730Y-12659750D01*
X13131730Y-12659750D02*
X13169825Y-12659750D01*
X13169825Y-12659750D02*
X13188873Y-12669274D01*
X13188873Y-12669274D02*
X13198396Y-12688322D01*
X13198396Y-12688322D02*
X13198396Y-12707369D01*
X13198396Y-12707369D02*
X13103158Y-12726417D01*
X13369825Y-12793084D02*
X13369825Y-12593084D01*
X13369825Y-12783560D02*
X13350777Y-12793084D01*
X13350777Y-12793084D02*
X13312682Y-12793084D01*
X13312682Y-12793084D02*
X13293634Y-12783560D01*
X13293634Y-12783560D02*
X13284111Y-12774036D01*
X13284111Y-12774036D02*
X13274587Y-12754988D01*
X13274587Y-12754988D02*
X13274587Y-12697846D01*
X13274587Y-12697846D02*
X13284111Y-12678798D01*
X13284111Y-12678798D02*
X13293634Y-12669274D01*
X13293634Y-12669274D02*
X13312682Y-12659750D01*
X13312682Y-12659750D02*
X13350777Y-12659750D01*
X13350777Y-12659750D02*
X13369825Y-12669274D01*
X13446015Y-12869274D02*
X13455539Y-12859750D01*
X13455539Y-12859750D02*
X13474587Y-12831179D01*
X13474587Y-12831179D02*
X13484111Y-12812131D01*
X13484111Y-12812131D02*
X13493634Y-12783560D01*
X13493634Y-12783560D02*
X13503158Y-12735941D01*
X13503158Y-12735941D02*
X13503158Y-12697846D01*
X13503158Y-12697846D02*
X13493634Y-12650227D01*
X13493634Y-12650227D02*
X13484111Y-12621655D01*
X13484111Y-12621655D02*
X13474587Y-12602608D01*
X13474587Y-12602608D02*
X13455539Y-12574036D01*
X13455539Y-12574036D02*
X13446015Y-12564512D01*
M02*
