M48
; DRILL file {KiCad 8.0.6} date 2024-11-01T15:42:28-0400
; FORMAT={-:-/ absolute / metric / decimal}
; #@! TF.CreationDate,2024-11-01T15:42:28-04:00
; #@! TF.GenerationSoftware,Kicad,Pcbnew,8.0.6
; #@! TF.FileFunction,Plated,1,2,PTH
FMAT,2
METRIC
; #@! TA.AperFunction,Plated,PTH,ComponentDrill
T1C0.800
; #@! TA.AperFunction,Plated,PTH,ComponentDrill
T2C1.100
; #@! TA.AperFunction,Plated,PTH,ComponentDrill
T3C6.100
%
G90
G05
T1
X71.75Y-85.0
X73.2Y-91.7
X73.2Y-94.24
X73.2Y-96.78
X73.2Y-99.32
X73.5Y-69.42
X73.5Y-79.58
X76.75Y-85.0
X78.92Y-66.5
X80.82Y-91.7
X80.82Y-94.24
X80.82Y-96.78
X80.82Y-99.32
X81.84Y-111.5
X81.92Y-105.0
X82.42Y-83.5
X84.0Y-76.0
X86.0Y-91.19
X86.0Y-98.81
X89.0Y-76.0
X89.08Y-66.5
X92.0Y-71.5
X92.0Y-111.5
X92.08Y-105.0
X92.5Y-87.92
X92.5Y-98.08
X92.58Y-83.5
X142.0Y-118.0
X145.0Y-118.0
X148.5Y-118.0
X151.5Y-118.0
X169.5Y-62.0
X174.5Y-62.0
X177.0Y-66.5
X177.0Y-69.0
X199.42Y-82.0
X200.18Y-86.06
X200.18Y-96.22
X200.5Y-112.5
X200.52Y-104.72
X201.5Y-69.0
X205.34Y-64.72
X205.5Y-71.0
X207.5Y-87.69
X207.5Y-95.31
X209.58Y-82.0
X210.5Y-71.0
X210.66Y-112.5
X210.68Y-104.72
X213.7Y-88.2
X213.7Y-90.74
X213.7Y-93.28
X213.7Y-95.82
X215.5Y-64.72
X216.25Y-80.72
X219.0Y-66.92
X219.0Y-77.08
X221.25Y-80.72
X221.32Y-88.2
X221.32Y-90.74
X221.32Y-93.28
X221.32Y-95.82
T2
X104.555Y-78.88
X104.555Y-81.42
X104.555Y-83.96
X105.055Y-106.92
X105.055Y-109.46
X105.055Y-112.0
X106.055Y-66.46
X108.595Y-66.46
X111.135Y-66.46
X119.0Y-107.0
X119.0Y-112.08
X119.055Y-78.38
X119.055Y-83.46
X175.055Y-78.46
X175.055Y-83.54
X175.055Y-107.42
X175.055Y-112.5
X188.5Y-107.46
X188.5Y-110.0
X188.5Y-112.54
X188.555Y-77.96
X188.555Y-80.5
X188.555Y-83.04
X189.46Y-64.945
X192.0Y-64.945
X194.54Y-64.945
T3
X131.53Y-65.5
X133.5Y-93.0
X161.5Y-65.5
X163.47Y-93.0
M30
